ISO-10303-21;
HEADER;
/* Generated by software containing ST-Developer
 * from STEP Tools, Inc. (www.steptools.com) 
 */

FILE_DESCRIPTION(
/* description */ (''),
/* implementation_level */ '2;1');

FILE_NAME(
/* name */ 'rt_forearm.step',
/* time_stamp */ '2026-07-20T18:38:24-04:00',
/* author */ (''),
/* organization */ (''),
/* preprocessor_version */ 'ST-DEVELOPER v20.1',
/* originating_system */ 'Autodesk Translation Framework v15.8.0.0',
/* authorisation */ '');

FILE_SCHEMA (('AUTOMOTIVE_DESIGN { 1 0 10303 214 3 1 1 }'));
ENDSEC;

DATA;
#10=MECHANICAL_DESIGN_GEOMETRIC_PRESENTATION_REPRESENTATION('',(#13),#1706);
#11=SHAPE_REPRESENTATION_RELATIONSHIP('SRR','None',#1713,#12);
#12=ADVANCED_BREP_SHAPE_REPRESENTATION('',(#14),#1705);
#13=STYLED_ITEM('',(#1722),#14);
#14=MANIFOLD_SOLID_BREP('Body1',#930);
#15=B_SPLINE_CURVE_WITH_KNOTS('',3,(#1418,#1419,#1420,#1421,#1422,#1423,
#1424,#1425,#1426,#1427,#1428,#1429,#1430,#1431,#1432,#1433,#1434,#1435,
#1436,#1437),.UNSPECIFIED.,.F.,.F.,(4,2,2,2,2,2,2,2,2,4),(0.,0.0630222418670921,
0.126044483734184,0.206524473694109,0.287004463654034,0.375733497814963,
0.464462531975892,0.528926533550649,0.561158534338028,0.56762343689527),
 .UNSPECIFIED.);
#16=B_SPLINE_CURVE_WITH_KNOTS('',3,(#1438,#1439,#1440,#1441,#1442,#1443,
#1444,#1445,#1446,#1447,#1448,#1449,#1450,#1451,#1452,#1453,#1454,#1455,
#1456,#1457),.UNSPECIFIED.,.F.,.F.,(4,2,2,2,2,2,2,2,2,4),(0.619157633355543,
0.625622535912785,0.657854536700163,0.72231853827492,0.811047572435849,
0.899776606596779,0.980256596556704,1.06073658651663,1.12375882838372,1.18678107025081),
 .UNSPECIFIED.);
#17=B_SPLINE_CURVE_WITH_KNOTS('',3,(#1476,#1477,#1478,#1479,#1480,#1481,
#1482,#1483,#1484,#1485,#1486,#1487,#1488,#1489,#1490,#1491,#1492,#1493,
#1494,#1495),.UNSPECIFIED.,.F.,.F.,(4,2,2,2,2,2,2,2,2,4),(0.619157633355543,
0.625622535912785,0.657854536700163,0.72231853827492,0.811047572435849,
0.899776606596779,0.980256596556704,1.06073658651663,1.12375882838372,1.18678107025081),
 .UNSPECIFIED.);
#18=B_SPLINE_CURVE_WITH_KNOTS('',3,(#1497,#1498,#1499,#1500,#1501,#1502,
#1503,#1504,#1505,#1506,#1507,#1508,#1509,#1510,#1511,#1512,#1513,#1514,
#1515,#1516),.UNSPECIFIED.,.F.,.F.,(4,2,2,2,2,2,2,2,2,4),(0.,0.0630222418670921,
0.126044483734184,0.206524473694109,0.287004463654034,0.375733497814963,
0.464462531975892,0.528926533550649,0.561158534338028,0.567623436895269),
 .UNSPECIFIED.);
#19=B_SPLINE_CURVE_WITH_KNOTS('',3,(#1528,#1529,#1530,#1531,#1532,#1533,
#1534,#1535,#1536,#1537,#1538,#1539,#1540,#1541,#1542,#1543,#1544,#1545,
#1546,#1547,#1548,#1549,#1550,#1551,#1552,#1553,#1554,#1555,#1556,#1557,
#1558,#1559,#1560,#1561,#1562),.UNSPECIFIED.,.F.,.F.,(4,2,2,2,2,2,2,2,3,
2,2,2,2,2,2,2,4),(-1.09308010632254,-1.02939834983411,-0.90105779681783,
-0.719856881754849,-0.538655966691868,-0.389752091577835,-0.240848216463802,
-0.120424108231901,0.,0.120424108231901,0.240848216463802,0.389752091577835,
0.538655966691868,0.719856881754849,0.90105779681783,1.02939834983411,1.093080106156),
 .UNSPECIFIED.);
#20=B_SPLINE_CURVE_WITH_KNOTS('',3,(#1574,#1575,#1576,#1577,#1578,#1579,
#1580,#1581,#1582,#1583,#1584,#1585,#1586,#1587,#1588,#1589,#1590,#1591,
#1592,#1593,#1594,#1595,#1596,#1597,#1598,#1599,#1600,#1601,#1602,#1603,
#1604,#1605,#1606,#1607,#1608),.UNSPECIFIED.,.F.,.F.,(4,2,2,2,2,2,2,2,3,
2,2,2,2,2,2,2,4),(-1.09308010632254,-1.02939834983411,-0.90105779681783,
-0.719856881754849,-0.538655966691868,-0.389752091577835,-0.240848216463802,
-0.120424108231901,0.,0.120424108231901,0.240848216463802,0.389752091577835,
0.538655966691868,0.719856881754849,0.90105779681783,1.02939834983411,1.093080106156),
 .UNSPECIFIED.);
#21=CIRCLE('',#950,2.3);
#22=CIRCLE('',#951,2.3);
#23=CIRCLE('',#954,2.3);
#24=CIRCLE('',#955,2.3);
#25=CIRCLE('',#958,2.3);
#26=CIRCLE('',#959,2.3);
#27=CIRCLE('',#962,2.3);
#28=CIRCLE('',#963,2.3);
#29=CIRCLE('',#966,5.25);
#30=CIRCLE('',#967,5.25);
#31=CIRCLE('',#970,1.7);
#32=CIRCLE('',#973,1.7);
#33=CIRCLE('',#974,1.7);
#34=CIRCLE('',#977,1.7);
#35=CIRCLE('',#979,15.);
#36=CIRCLE('',#982,15.);
#37=CIRCLE('',#983,4.175);
#38=CIRCLE('',#984,15.);
#39=CIRCLE('',#986,15.);
#40=CIRCLE('',#987,15.);
#41=CIRCLE('',#988,15.);
#42=CIRCLE('',#989,15.);
#43=CIRCLE('',#990,15.);
#44=CIRCLE('',#992,3.25);
#45=CIRCLE('',#993,1.7);
#46=CIRCLE('',#996,1.7);
#47=CIRCLE('',#998,1.7);
#48=CIRCLE('',#1000,1.7);
#49=CIRCLE('',#1003,1.7);
#50=CIRCLE('',#1004,1.7);
#51=CIRCLE('',#1006,1.7);
#52=CIRCLE('',#1011,3.25);
#53=CIRCLE('',#1012,1.7);
#54=CIRCLE('',#1015,1.7);
#55=CIRCLE('',#1017,1.7);
#56=CIRCLE('',#1021,4.175);
#57=CYLINDRICAL_SURFACE('',#949,2.3);
#58=CYLINDRICAL_SURFACE('',#953,2.3);
#59=CYLINDRICAL_SURFACE('',#957,2.3);
#60=CYLINDRICAL_SURFACE('',#961,2.3);
#61=CYLINDRICAL_SURFACE('',#965,5.25);
#62=CYLINDRICAL_SURFACE('',#980,1.7);
#63=CYLINDRICAL_SURFACE('',#985,15.);
#64=CYLINDRICAL_SURFACE('',#994,3.25);
#65=CYLINDRICAL_SURFACE('',#995,1.7);
#66=CYLINDRICAL_SURFACE('',#997,1.7);
#67=CYLINDRICAL_SURFACE('',#1009,1.7);
#68=CYLINDRICAL_SURFACE('',#1013,3.25);
#69=CYLINDRICAL_SURFACE('',#1014,1.7);
#70=CYLINDRICAL_SURFACE('',#1016,1.7);
#71=CYLINDRICAL_SURFACE('',#1022,4.175);
#72=FACE_BOUND('',#143,.T.);
#73=FACE_BOUND('',#164,.T.);
#74=FACE_BOUND('',#165,.T.);
#75=FACE_BOUND('',#166,.T.);
#76=FACE_BOUND('',#168,.T.);
#77=FACE_BOUND('',#180,.T.);
#78=FACE_BOUND('',#185,.T.);
#79=FACE_BOUND('',#186,.T.);
#80=FACE_BOUND('',#188,.T.);
#81=FACE_BOUND('',#189,.T.);
#82=FACE_BOUND('',#199,.T.);
#83=FACE_BOUND('',#200,.T.);
#84=FACE_BOUND('',#201,.T.);
#85=FACE_BOUND('',#202,.T.);
#86=FACE_BOUND('',#203,.T.);
#87=FACE_OUTER_BOUND('',#139,.T.);
#88=FACE_OUTER_BOUND('',#140,.T.);
#89=FACE_OUTER_BOUND('',#141,.T.);
#90=FACE_OUTER_BOUND('',#142,.T.);
#91=FACE_OUTER_BOUND('',#144,.T.);
#92=FACE_OUTER_BOUND('',#145,.T.);
#93=FACE_OUTER_BOUND('',#146,.T.);
#94=FACE_OUTER_BOUND('',#147,.T.);
#95=FACE_OUTER_BOUND('',#148,.T.);
#96=FACE_OUTER_BOUND('',#149,.T.);
#97=FACE_OUTER_BOUND('',#150,.T.);
#98=FACE_OUTER_BOUND('',#151,.T.);
#99=FACE_OUTER_BOUND('',#152,.T.);
#100=FACE_OUTER_BOUND('',#153,.T.);
#101=FACE_OUTER_BOUND('',#154,.T.);
#102=FACE_OUTER_BOUND('',#155,.T.);
#103=FACE_OUTER_BOUND('',#156,.T.);
#104=FACE_OUTER_BOUND('',#157,.T.);
#105=FACE_OUTER_BOUND('',#158,.T.);
#106=FACE_OUTER_BOUND('',#159,.T.);
#107=FACE_OUTER_BOUND('',#160,.T.);
#108=FACE_OUTER_BOUND('',#161,.T.);
#109=FACE_OUTER_BOUND('',#162,.T.);
#110=FACE_OUTER_BOUND('',#163,.T.);
#111=FACE_OUTER_BOUND('',#167,.T.);
#112=FACE_OUTER_BOUND('',#169,.T.);
#113=FACE_OUTER_BOUND('',#170,.T.);
#114=FACE_OUTER_BOUND('',#171,.T.);
#115=FACE_OUTER_BOUND('',#172,.T.);
#116=FACE_OUTER_BOUND('',#173,.T.);
#117=FACE_OUTER_BOUND('',#174,.T.);
#118=FACE_OUTER_BOUND('',#175,.T.);
#119=FACE_OUTER_BOUND('',#176,.T.);
#120=FACE_OUTER_BOUND('',#177,.T.);
#121=FACE_OUTER_BOUND('',#178,.T.);
#122=FACE_OUTER_BOUND('',#179,.T.);
#123=FACE_OUTER_BOUND('',#181,.T.);
#124=FACE_OUTER_BOUND('',#182,.T.);
#125=FACE_OUTER_BOUND('',#183,.T.);
#126=FACE_OUTER_BOUND('',#184,.T.);
#127=FACE_OUTER_BOUND('',#187,.T.);
#128=FACE_OUTER_BOUND('',#190,.T.);
#129=FACE_OUTER_BOUND('',#191,.T.);
#130=FACE_OUTER_BOUND('',#192,.T.);
#131=FACE_OUTER_BOUND('',#193,.T.);
#132=FACE_OUTER_BOUND('',#194,.T.);
#133=FACE_OUTER_BOUND('',#195,.T.);
#134=FACE_OUTER_BOUND('',#196,.T.);
#135=FACE_OUTER_BOUND('',#197,.T.);
#136=FACE_OUTER_BOUND('',#198,.T.);
#137=FACE_OUTER_BOUND('',#204,.T.);
#138=FACE_OUTER_BOUND('',#205,.T.);
#139=EDGE_LOOP('',(#587,#588,#589,#590));
#140=EDGE_LOOP('',(#591,#592,#593,#594));
#141=EDGE_LOOP('',(#595,#596,#597,#598));
#142=EDGE_LOOP('',(#599,#600,#601,#602,#603,#604,#605,#606));
#143=EDGE_LOOP('',(#607,#608,#609,#610));
#144=EDGE_LOOP('',(#611,#612,#613,#614));
#145=EDGE_LOOP('',(#615,#616,#617,#618));
#146=EDGE_LOOP('',(#619));
#147=EDGE_LOOP('',(#620,#621,#622,#623));
#148=EDGE_LOOP('',(#624));
#149=EDGE_LOOP('',(#625,#626,#627,#628));
#150=EDGE_LOOP('',(#629));
#151=EDGE_LOOP('',(#630,#631,#632,#633));
#152=EDGE_LOOP('',(#634));
#153=EDGE_LOOP('',(#635,#636,#637,#638));
#154=EDGE_LOOP('',(#639));
#155=EDGE_LOOP('',(#640,#641,#642,#643,#644));
#156=EDGE_LOOP('',(#645,#646,#647,#648));
#157=EDGE_LOOP('',(#649,#650,#651,#652,#653,#654,#655));
#158=EDGE_LOOP('',(#656,#657,#658,#659));
#159=EDGE_LOOP('',(#660,#661,#662));
#160=EDGE_LOOP('',(#663,#664,#665,#666,#667,#668,#669));
#161=EDGE_LOOP('',(#670,#671,#672,#673));
#162=EDGE_LOOP('',(#674,#675,#676,#677,#678,#679,#680,#681,#682));
#163=EDGE_LOOP('',(#683,#684,#685,#686,#687,#688,#689,#690,#691,#692,#693,
#694,#695,#696,#697,#698,#699,#700));
#164=EDGE_LOOP('',(#701,#702));
#165=EDGE_LOOP('',(#703,#704,#705,#706));
#166=EDGE_LOOP('',(#707,#708));
#167=EDGE_LOOP('',(#709,#710));
#168=EDGE_LOOP('',(#711));
#169=EDGE_LOOP('',(#712,#713));
#170=EDGE_LOOP('',(#714,#715,#716,#717));
#171=EDGE_LOOP('',(#718,#719,#720,#721,#722));
#172=EDGE_LOOP('',(#723,#724,#725));
#173=EDGE_LOOP('',(#726,#727,#728,#729));
#174=EDGE_LOOP('',(#730,#731,#732,#733,#734,#735,#736));
#175=EDGE_LOOP('',(#737,#738,#739,#740,#741));
#176=EDGE_LOOP('',(#742,#743,#744,#745,#746,#747,#748));
#177=EDGE_LOOP('',(#749,#750,#751,#752));
#178=EDGE_LOOP('',(#753,#754,#755,#756));
#179=EDGE_LOOP('',(#757,#758));
#180=EDGE_LOOP('',(#759));
#181=EDGE_LOOP('',(#760,#761));
#182=EDGE_LOOP('',(#762,#763,#764,#765));
#183=EDGE_LOOP('',(#766,#767,#768,#769,#770));
#184=EDGE_LOOP('',(#771,#772,#773,#774));
#185=EDGE_LOOP('',(#775));
#186=EDGE_LOOP('',(#776));
#187=EDGE_LOOP('',(#777,#778,#779,#780));
#188=EDGE_LOOP('',(#781));
#189=EDGE_LOOP('',(#782));
#190=EDGE_LOOP('',(#783,#784,#785,#786,#787,#788,#789,#790,#791));
#191=EDGE_LOOP('',(#792,#793,#794,#795));
#192=EDGE_LOOP('',(#796,#797,#798,#799));
#193=EDGE_LOOP('',(#800,#801,#802,#803));
#194=EDGE_LOOP('',(#804,#805,#806,#807));
#195=EDGE_LOOP('',(#808,#809,#810,#811));
#196=EDGE_LOOP('',(#812,#813,#814,#815));
#197=EDGE_LOOP('',(#816,#817,#818,#819));
#198=EDGE_LOOP('',(#820,#821,#822,#823,#824,#825,#826,#827));
#199=EDGE_LOOP('',(#828));
#200=EDGE_LOOP('',(#829));
#201=EDGE_LOOP('',(#830));
#202=EDGE_LOOP('',(#831));
#203=EDGE_LOOP('',(#832));
#204=EDGE_LOOP('',(#833,#834,#835,#836));
#205=EDGE_LOOP('',(#837,#838,#839,#840));
#206=LINE('',#1299,#291);
#207=LINE('',#1301,#292);
#208=LINE('',#1303,#293);
#209=LINE('',#1304,#294);
#210=LINE('',#1307,#295);
#211=LINE('',#1309,#296);
#212=LINE('',#1310,#297);
#213=LINE('',#1313,#298);
#214=LINE('',#1315,#299);
#215=LINE('',#1316,#300);
#216=LINE('',#1319,#301);
#217=LINE('',#1321,#302);
#218=LINE('',#1323,#303);
#219=LINE('',#1325,#304);
#220=LINE('',#1326,#305);
#221=LINE('',#1329,#306);
#222=LINE('',#1331,#307);
#223=LINE('',#1333,#308);
#224=LINE('',#1334,#309);
#225=LINE('',#1337,#310);
#226=LINE('',#1338,#311);
#227=LINE('',#1343,#312);
#228=LINE('',#1350,#313);
#229=LINE('',#1357,#314);
#230=LINE('',#1364,#315);
#231=LINE('',#1371,#316);
#232=LINE('',#1379,#317);
#233=LINE('',#1381,#318);
#234=LINE('',#1383,#319);
#235=LINE('',#1384,#320);
#236=LINE('',#1387,#321);
#237=LINE('',#1389,#322);
#238=LINE('',#1390,#323);
#239=LINE('',#1393,#324);
#240=LINE('',#1395,#325);
#241=LINE('',#1400,#326);
#242=LINE('',#1401,#327);
#243=LINE('',#1404,#328);
#244=LINE('',#1406,#329);
#245=LINE('',#1407,#330);
#246=LINE('',#1412,#331);
#247=LINE('',#1413,#332);
#248=LINE('',#1462,#333);
#249=LINE('',#1466,#334);
#250=LINE('',#1470,#335);
#251=LINE('',#1474,#336);
#252=LINE('',#1518,#337);
#253=LINE('',#1522,#338);
#254=LINE('',#1525,#339);
#255=LINE('',#1563,#340);
#256=LINE('',#1566,#341);
#257=LINE('',#1570,#342);
#258=LINE('',#1609,#343);
#259=LINE('',#1617,#344);
#260=LINE('',#1622,#345);
#261=LINE('',#1626,#346);
#262=LINE('',#1629,#347);
#263=LINE('',#1631,#348);
#264=LINE('',#1632,#349);
#265=LINE('',#1635,#350);
#266=LINE('',#1637,#351);
#267=LINE('',#1642,#352);
#268=LINE('',#1643,#353);
#269=LINE('',#1647,#354);
#270=LINE('',#1649,#355);
#271=LINE('',#1650,#356);
#272=LINE('',#1652,#357);
#273=LINE('',#1654,#358);
#274=LINE('',#1663,#359);
#275=LINE('',#1668,#360);
#276=LINE('',#1671,#361);
#277=LINE('',#1672,#362);
#278=LINE('',#1675,#363);
#279=LINE('',#1676,#364);
#280=LINE('',#1681,#365);
#281=LINE('',#1682,#366);
#282=LINE('',#1684,#367);
#283=LINE('',#1688,#368);
#284=LINE('',#1689,#369);
#285=LINE('',#1690,#370);
#286=LINE('',#1693,#371);
#287=LINE('',#1694,#372);
#288=LINE('',#1696,#373);
#289=LINE('',#1698,#374);
#290=LINE('',#1701,#375);
#291=VECTOR('',#1036,10.);
#292=VECTOR('',#1037,10.);
#293=VECTOR('',#1038,10.);
#294=VECTOR('',#1039,10.);
#295=VECTOR('',#1042,10.);
#296=VECTOR('',#1043,10.);
#297=VECTOR('',#1044,10.);
#298=VECTOR('',#1047,10.);
#299=VECTOR('',#1048,10.);
#300=VECTOR('',#1049,10.);
#301=VECTOR('',#1052,10.);
#302=VECTOR('',#1053,10.);
#303=VECTOR('',#1054,10.);
#304=VECTOR('',#1055,10.);
#305=VECTOR('',#1056,10.);
#306=VECTOR('',#1057,10.);
#307=VECTOR('',#1058,10.);
#308=VECTOR('',#1059,10.);
#309=VECTOR('',#1060,10.);
#310=VECTOR('',#1063,10.);
#311=VECTOR('',#1064,10.);
#312=VECTOR('',#1069,2.3);
#313=VECTOR('',#1078,2.3);
#314=VECTOR('',#1087,2.3);
#315=VECTOR('',#1096,2.3);
#316=VECTOR('',#1105,5.25);
#317=VECTOR('',#1114,10.);
#318=VECTOR('',#1115,10.);
#319=VECTOR('',#1116,10.);
#320=VECTOR('',#1117,10.);
#321=VECTOR('',#1120,10.);
#322=VECTOR('',#1121,10.);
#323=VECTOR('',#1122,10.);
#324=VECTOR('',#1125,10.);
#325=VECTOR('',#1126,10.);
#326=VECTOR('',#1131,10.);
#327=VECTOR('',#1132,10.);
#328=VECTOR('',#1135,10.);
#329=VECTOR('',#1136,10.);
#330=VECTOR('',#1137,10.);
#331=VECTOR('',#1142,10.);
#332=VECTOR('',#1143,10.);
#333=VECTOR('',#1154,10.);
#334=VECTOR('',#1157,10.);
#335=VECTOR('',#1162,10.);
#336=VECTOR('',#1165,10.);
#337=VECTOR('',#1166,10.);
#338=VECTOR('',#1169,10.);
#339=VECTOR('',#1172,10.);
#340=VECTOR('',#1173,10.);
#341=VECTOR('',#1174,10.);
#342=VECTOR('',#1177,10.);
#343=VECTOR('',#1180,10.);
#344=VECTOR('',#1191,1.7);
#345=VECTOR('',#1198,1.7);
#346=VECTOR('',#1203,10.);
#347=VECTOR('',#1206,10.);
#348=VECTOR('',#1207,10.);
#349=VECTOR('',#1208,10.);
#350=VECTOR('',#1211,10.);
#351=VECTOR('',#1212,10.);
#352=VECTOR('',#1217,10.);
#353=VECTOR('',#1218,10.);
#354=VECTOR('',#1223,10.);
#355=VECTOR('',#1224,10.);
#356=VECTOR('',#1225,10.);
#357=VECTOR('',#1228,10.);
#358=VECTOR('',#1231,10.);
#359=VECTOR('',#1244,1.7);
#360=VECTOR('',#1251,1.7);
#361=VECTOR('',#1254,10.);
#362=VECTOR('',#1255,10.);
#363=VECTOR('',#1258,10.);
#364=VECTOR('',#1259,10.);
#365=VECTOR('',#1268,10.);
#366=VECTOR('',#1269,10.);
#367=VECTOR('',#1272,10.);
#368=VECTOR('',#1275,10.);
#369=VECTOR('',#1276,10.);
#370=VECTOR('',#1277,10.);
#371=VECTOR('',#1280,10.);
#372=VECTOR('',#1281,10.);
#373=VECTOR('',#1284,10.);
#374=VECTOR('',#1287,10.);
#375=VECTOR('',#1292,10.);
#376=VERTEX_POINT('',#1297);
#377=VERTEX_POINT('',#1298);
#378=VERTEX_POINT('',#1300);
#379=VERTEX_POINT('',#1302);
#380=VERTEX_POINT('',#1306);
#381=VERTEX_POINT('',#1308);
#382=VERTEX_POINT('',#1312);
#383=VERTEX_POINT('',#1314);
#384=VERTEX_POINT('',#1318);
#385=VERTEX_POINT('',#1320);
#386=VERTEX_POINT('',#1322);
#387=VERTEX_POINT('',#1324);
#388=VERTEX_POINT('',#1327);
#389=VERTEX_POINT('',#1328);
#390=VERTEX_POINT('',#1330);
#391=VERTEX_POINT('',#1332);
#392=VERTEX_POINT('',#1336);
#393=VERTEX_POINT('',#1340);
#394=VERTEX_POINT('',#1342);
#395=VERTEX_POINT('',#1347);
#396=VERTEX_POINT('',#1349);
#397=VERTEX_POINT('',#1354);
#398=VERTEX_POINT('',#1356);
#399=VERTEX_POINT('',#1361);
#400=VERTEX_POINT('',#1363);
#401=VERTEX_POINT('',#1368);
#402=VERTEX_POINT('',#1370);
#403=VERTEX_POINT('',#1375);
#404=VERTEX_POINT('',#1376);
#405=VERTEX_POINT('',#1378);
#406=VERTEX_POINT('',#1380);
#407=VERTEX_POINT('',#1382);
#408=VERTEX_POINT('',#1386);
#409=VERTEX_POINT('',#1388);
#410=VERTEX_POINT('',#1392);
#411=VERTEX_POINT('',#1394);
#412=VERTEX_POINT('',#1396);
#413=VERTEX_POINT('',#1399);
#414=VERTEX_POINT('',#1403);
#415=VERTEX_POINT('',#1405);
#416=VERTEX_POINT('',#1409);
#417=VERTEX_POINT('',#1411);
#418=VERTEX_POINT('',#1417);
#419=VERTEX_POINT('',#1459);
#420=VERTEX_POINT('',#1461);
#421=VERTEX_POINT('',#1463);
#422=VERTEX_POINT('',#1465);
#423=VERTEX_POINT('',#1469);
#424=VERTEX_POINT('',#1471);
#425=VERTEX_POINT('',#1473);
#426=VERTEX_POINT('',#1475);
#427=VERTEX_POINT('',#1496);
#428=VERTEX_POINT('',#1517);
#429=VERTEX_POINT('',#1519);
#430=VERTEX_POINT('',#1521);
#431=VERTEX_POINT('',#1523);
#432=VERTEX_POINT('',#1526);
#433=VERTEX_POINT('',#1527);
#434=VERTEX_POINT('',#1564);
#435=VERTEX_POINT('',#1565);
#436=VERTEX_POINT('',#1567);
#437=VERTEX_POINT('',#1569);
#438=VERTEX_POINT('',#1572);
#439=VERTEX_POINT('',#1573);
#440=VERTEX_POINT('',#1612);
#441=VERTEX_POINT('',#1616);
#442=VERTEX_POINT('',#1620);
#443=VERTEX_POINT('',#1624);
#444=VERTEX_POINT('',#1628);
#445=VERTEX_POINT('',#1630);
#446=VERTEX_POINT('',#1634);
#447=VERTEX_POINT('',#1636);
#448=VERTEX_POINT('',#1638);
#449=VERTEX_POINT('',#1641);
#450=VERTEX_POINT('',#1646);
#451=VERTEX_POINT('',#1648);
#452=VERTEX_POINT('',#1658);
#453=VERTEX_POINT('',#1662);
#454=VERTEX_POINT('',#1666);
#455=VERTEX_POINT('',#1670);
#456=VERTEX_POINT('',#1674);
#457=VERTEX_POINT('',#1686);
#458=VERTEX_POINT('',#1687);
#459=VERTEX_POINT('',#1692);
#460=EDGE_CURVE('',#376,#377,#206,.T.);
#461=EDGE_CURVE('',#376,#378,#207,.T.);
#462=EDGE_CURVE('',#379,#378,#208,.T.);
#463=EDGE_CURVE('',#377,#379,#209,.T.);
#464=EDGE_CURVE('',#380,#376,#210,.T.);
#465=EDGE_CURVE('',#381,#380,#211,.T.);
#466=EDGE_CURVE('',#378,#381,#212,.T.);
#467=EDGE_CURVE('',#382,#380,#213,.T.);
#468=EDGE_CURVE('',#383,#382,#214,.T.);
#469=EDGE_CURVE('',#381,#383,#215,.T.);
#470=EDGE_CURVE('',#384,#377,#216,.T.);
#471=EDGE_CURVE('',#385,#384,#217,.T.);
#472=EDGE_CURVE('',#386,#385,#218,.T.);
#473=EDGE_CURVE('',#386,#387,#219,.T.);
#474=EDGE_CURVE('',#382,#387,#220,.T.);
#475=EDGE_CURVE('',#388,#389,#221,.T.);
#476=EDGE_CURVE('',#390,#388,#222,.T.);
#477=EDGE_CURVE('',#391,#390,#223,.T.);
#478=EDGE_CURVE('',#389,#391,#224,.T.);
#479=EDGE_CURVE('',#379,#392,#225,.T.);
#480=EDGE_CURVE('',#392,#384,#226,.T.);
#481=EDGE_CURVE('',#393,#393,#21,.T.);
#482=EDGE_CURVE('',#393,#394,#227,.T.);
#483=EDGE_CURVE('',#394,#394,#22,.T.);
#484=EDGE_CURVE('',#395,#395,#23,.T.);
#485=EDGE_CURVE('',#395,#396,#228,.T.);
#486=EDGE_CURVE('',#396,#396,#24,.T.);
#487=EDGE_CURVE('',#397,#397,#25,.T.);
#488=EDGE_CURVE('',#397,#398,#229,.T.);
#489=EDGE_CURVE('',#398,#398,#26,.T.);
#490=EDGE_CURVE('',#399,#399,#27,.T.);
#491=EDGE_CURVE('',#399,#400,#230,.T.);
#492=EDGE_CURVE('',#400,#400,#28,.T.);
#493=EDGE_CURVE('',#401,#401,#29,.T.);
#494=EDGE_CURVE('',#401,#402,#231,.T.);
#495=EDGE_CURVE('',#402,#402,#30,.T.);
#496=EDGE_CURVE('',#403,#404,#31,.T.);
#497=EDGE_CURVE('',#405,#403,#232,.T.);
#498=EDGE_CURVE('',#406,#405,#233,.T.);
#499=EDGE_CURVE('',#407,#406,#234,.T.);
#500=EDGE_CURVE('',#404,#407,#235,.T.);
#501=EDGE_CURVE('',#406,#408,#236,.T.);
#502=EDGE_CURVE('',#405,#409,#237,.T.);
#503=EDGE_CURVE('',#409,#408,#238,.T.);
#504=EDGE_CURVE('',#408,#410,#239,.T.);
#505=EDGE_CURVE('',#411,#409,#240,.T.);
#506=EDGE_CURVE('',#412,#411,#32,.T.);
#507=EDGE_CURVE('',#411,#412,#33,.T.);
#508=EDGE_CURVE('',#413,#411,#241,.T.);
#509=EDGE_CURVE('',#410,#413,#242,.T.);
#510=EDGE_CURVE('',#410,#414,#243,.T.);
#511=EDGE_CURVE('',#415,#413,#244,.T.);
#512=EDGE_CURVE('',#414,#415,#245,.T.);
#513=EDGE_CURVE('',#416,#403,#34,.T.);
#514=EDGE_CURVE('',#417,#416,#246,.T.);
#515=EDGE_CURVE('',#403,#417,#247,.T.);
#516=EDGE_CURVE('',#415,#417,#35,.T.);
#517=EDGE_CURVE('',#418,#404,#15,.T.);
#518=EDGE_CURVE('',#416,#418,#16,.T.);
#519=EDGE_CURVE('',#414,#419,#36,.T.);
#520=EDGE_CURVE('',#419,#420,#248,.T.);
#521=EDGE_CURVE('',#420,#421,#37,.T.);
#522=EDGE_CURVE('',#421,#422,#249,.T.);
#523=EDGE_CURVE('',#422,#407,#38,.T.);
#524=EDGE_CURVE('',#422,#423,#250,.T.);
#525=EDGE_CURVE('',#424,#423,#39,.T.);
#526=EDGE_CURVE('',#424,#425,#251,.T.);
#527=EDGE_CURVE('',#425,#426,#17,.T.);
#528=EDGE_CURVE('',#426,#427,#18,.T.);
#529=EDGE_CURVE('',#427,#428,#252,.T.);
#530=EDGE_CURVE('',#428,#429,#40,.T.);
#531=EDGE_CURVE('',#429,#430,#253,.T.);
#532=EDGE_CURVE('',#431,#430,#41,.T.);
#533=EDGE_CURVE('',#431,#419,#254,.T.);
#534=EDGE_CURVE('',#432,#433,#19,.T.);
#535=EDGE_CURVE('',#433,#432,#255,.T.);
#536=EDGE_CURVE('',#434,#435,#256,.T.);
#537=EDGE_CURVE('',#436,#434,#42,.T.);
#538=EDGE_CURVE('',#437,#436,#257,.T.);
#539=EDGE_CURVE('',#435,#437,#43,.T.);
#540=EDGE_CURVE('',#438,#439,#20,.T.);
#541=EDGE_CURVE('',#439,#438,#258,.T.);
#542=EDGE_CURVE('',#438,#439,#44,.T.);
#543=EDGE_CURVE('',#440,#440,#45,.T.);
#544=EDGE_CURVE('',#440,#441,#259,.T.);
#545=EDGE_CURVE('',#441,#441,#46,.T.);
#546=EDGE_CURVE('',#442,#442,#47,.T.);
#547=EDGE_CURVE('',#442,#412,#260,.T.);
#548=EDGE_CURVE('',#443,#427,#48,.T.);
#549=EDGE_CURVE('',#428,#443,#261,.T.);
#550=EDGE_CURVE('',#429,#444,#262,.T.);
#551=EDGE_CURVE('',#444,#445,#263,.T.);
#552=EDGE_CURVE('',#430,#445,#264,.T.);
#553=EDGE_CURVE('',#445,#446,#265,.T.);
#554=EDGE_CURVE('',#447,#444,#266,.T.);
#555=EDGE_CURVE('',#448,#447,#49,.T.);
#556=EDGE_CURVE('',#447,#448,#50,.T.);
#557=EDGE_CURVE('',#449,#447,#267,.T.);
#558=EDGE_CURVE('',#446,#449,#268,.T.);
#559=EDGE_CURVE('',#425,#443,#51,.T.);
#560=EDGE_CURVE('',#450,#424,#269,.T.);
#561=EDGE_CURVE('',#451,#450,#270,.T.);
#562=EDGE_CURVE('',#443,#451,#271,.T.);
#563=EDGE_CURVE('',#451,#449,#272,.T.);
#564=EDGE_CURVE('',#446,#450,#273,.T.);
#565=EDGE_CURVE('',#432,#433,#52,.T.);
#566=EDGE_CURVE('',#452,#452,#53,.T.);
#567=EDGE_CURVE('',#452,#453,#274,.T.);
#568=EDGE_CURVE('',#453,#453,#54,.T.);
#569=EDGE_CURVE('',#454,#454,#55,.T.);
#570=EDGE_CURVE('',#454,#448,#275,.T.);
#571=EDGE_CURVE('',#455,#431,#276,.T.);
#572=EDGE_CURVE('',#420,#455,#277,.T.);
#573=EDGE_CURVE('',#456,#421,#278,.T.);
#574=EDGE_CURVE('',#423,#456,#279,.T.);
#575=EDGE_CURVE('',#456,#455,#56,.T.);
#576=EDGE_CURVE('',#436,#388,#280,.T.);
#577=EDGE_CURVE('',#389,#437,#281,.T.);
#578=EDGE_CURVE('',#390,#434,#282,.T.);
#579=EDGE_CURVE('',#457,#458,#283,.T.);
#580=EDGE_CURVE('',#458,#386,#284,.T.);
#581=EDGE_CURVE('',#385,#457,#285,.T.);
#582=EDGE_CURVE('',#387,#459,#286,.T.);
#583=EDGE_CURVE('',#459,#383,#287,.T.);
#584=EDGE_CURVE('',#457,#392,#288,.T.);
#585=EDGE_CURVE('',#458,#459,#289,.T.);
#586=EDGE_CURVE('',#435,#391,#290,.T.);
#587=ORIENTED_EDGE('',*,*,#460,.F.);
#588=ORIENTED_EDGE('',*,*,#461,.T.);
#589=ORIENTED_EDGE('',*,*,#462,.F.);
#590=ORIENTED_EDGE('',*,*,#463,.F.);
#591=ORIENTED_EDGE('',*,*,#464,.F.);
#592=ORIENTED_EDGE('',*,*,#465,.F.);
#593=ORIENTED_EDGE('',*,*,#466,.F.);
#594=ORIENTED_EDGE('',*,*,#461,.F.);
#595=ORIENTED_EDGE('',*,*,#467,.F.);
#596=ORIENTED_EDGE('',*,*,#468,.F.);
#597=ORIENTED_EDGE('',*,*,#469,.F.);
#598=ORIENTED_EDGE('',*,*,#465,.T.);
#599=ORIENTED_EDGE('',*,*,#467,.T.);
#600=ORIENTED_EDGE('',*,*,#464,.T.);
#601=ORIENTED_EDGE('',*,*,#460,.T.);
#602=ORIENTED_EDGE('',*,*,#470,.F.);
#603=ORIENTED_EDGE('',*,*,#471,.F.);
#604=ORIENTED_EDGE('',*,*,#472,.F.);
#605=ORIENTED_EDGE('',*,*,#473,.T.);
#606=ORIENTED_EDGE('',*,*,#474,.F.);
#607=ORIENTED_EDGE('',*,*,#475,.F.);
#608=ORIENTED_EDGE('',*,*,#476,.F.);
#609=ORIENTED_EDGE('',*,*,#477,.F.);
#610=ORIENTED_EDGE('',*,*,#478,.F.);
#611=ORIENTED_EDGE('',*,*,#463,.T.);
#612=ORIENTED_EDGE('',*,*,#479,.T.);
#613=ORIENTED_EDGE('',*,*,#480,.T.);
#614=ORIENTED_EDGE('',*,*,#470,.T.);
#615=ORIENTED_EDGE('',*,*,#481,.T.);
#616=ORIENTED_EDGE('',*,*,#482,.T.);
#617=ORIENTED_EDGE('',*,*,#483,.F.);
#618=ORIENTED_EDGE('',*,*,#482,.F.);
#619=ORIENTED_EDGE('',*,*,#481,.F.);
#620=ORIENTED_EDGE('',*,*,#484,.T.);
#621=ORIENTED_EDGE('',*,*,#485,.T.);
#622=ORIENTED_EDGE('',*,*,#486,.F.);
#623=ORIENTED_EDGE('',*,*,#485,.F.);
#624=ORIENTED_EDGE('',*,*,#484,.F.);
#625=ORIENTED_EDGE('',*,*,#487,.T.);
#626=ORIENTED_EDGE('',*,*,#488,.T.);
#627=ORIENTED_EDGE('',*,*,#489,.F.);
#628=ORIENTED_EDGE('',*,*,#488,.F.);
#629=ORIENTED_EDGE('',*,*,#487,.F.);
#630=ORIENTED_EDGE('',*,*,#490,.T.);
#631=ORIENTED_EDGE('',*,*,#491,.T.);
#632=ORIENTED_EDGE('',*,*,#492,.F.);
#633=ORIENTED_EDGE('',*,*,#491,.F.);
#634=ORIENTED_EDGE('',*,*,#490,.F.);
#635=ORIENTED_EDGE('',*,*,#493,.T.);
#636=ORIENTED_EDGE('',*,*,#494,.T.);
#637=ORIENTED_EDGE('',*,*,#495,.F.);
#638=ORIENTED_EDGE('',*,*,#494,.F.);
#639=ORIENTED_EDGE('',*,*,#493,.F.);
#640=ORIENTED_EDGE('',*,*,#496,.F.);
#641=ORIENTED_EDGE('',*,*,#497,.F.);
#642=ORIENTED_EDGE('',*,*,#498,.F.);
#643=ORIENTED_EDGE('',*,*,#499,.F.);
#644=ORIENTED_EDGE('',*,*,#500,.F.);
#645=ORIENTED_EDGE('',*,*,#501,.F.);
#646=ORIENTED_EDGE('',*,*,#498,.T.);
#647=ORIENTED_EDGE('',*,*,#502,.T.);
#648=ORIENTED_EDGE('',*,*,#503,.T.);
#649=ORIENTED_EDGE('',*,*,#504,.F.);
#650=ORIENTED_EDGE('',*,*,#503,.F.);
#651=ORIENTED_EDGE('',*,*,#505,.F.);
#652=ORIENTED_EDGE('',*,*,#506,.F.);
#653=ORIENTED_EDGE('',*,*,#507,.F.);
#654=ORIENTED_EDGE('',*,*,#508,.F.);
#655=ORIENTED_EDGE('',*,*,#509,.F.);
#656=ORIENTED_EDGE('',*,*,#510,.F.);
#657=ORIENTED_EDGE('',*,*,#509,.T.);
#658=ORIENTED_EDGE('',*,*,#511,.F.);
#659=ORIENTED_EDGE('',*,*,#512,.F.);
#660=ORIENTED_EDGE('',*,*,#513,.F.);
#661=ORIENTED_EDGE('',*,*,#514,.F.);
#662=ORIENTED_EDGE('',*,*,#515,.F.);
#663=ORIENTED_EDGE('',*,*,#515,.T.);
#664=ORIENTED_EDGE('',*,*,#516,.F.);
#665=ORIENTED_EDGE('',*,*,#511,.T.);
#666=ORIENTED_EDGE('',*,*,#508,.T.);
#667=ORIENTED_EDGE('',*,*,#505,.T.);
#668=ORIENTED_EDGE('',*,*,#502,.F.);
#669=ORIENTED_EDGE('',*,*,#497,.T.);
#670=ORIENTED_EDGE('',*,*,#496,.T.);
#671=ORIENTED_EDGE('',*,*,#517,.F.);
#672=ORIENTED_EDGE('',*,*,#518,.F.);
#673=ORIENTED_EDGE('',*,*,#513,.T.);
#674=ORIENTED_EDGE('',*,*,#499,.T.);
#675=ORIENTED_EDGE('',*,*,#501,.T.);
#676=ORIENTED_EDGE('',*,*,#504,.T.);
#677=ORIENTED_EDGE('',*,*,#510,.T.);
#678=ORIENTED_EDGE('',*,*,#519,.T.);
#679=ORIENTED_EDGE('',*,*,#520,.T.);
#680=ORIENTED_EDGE('',*,*,#521,.T.);
#681=ORIENTED_EDGE('',*,*,#522,.T.);
#682=ORIENTED_EDGE('',*,*,#523,.T.);
#683=ORIENTED_EDGE('',*,*,#500,.T.);
#684=ORIENTED_EDGE('',*,*,#523,.F.);
#685=ORIENTED_EDGE('',*,*,#524,.T.);
#686=ORIENTED_EDGE('',*,*,#525,.F.);
#687=ORIENTED_EDGE('',*,*,#526,.T.);
#688=ORIENTED_EDGE('',*,*,#527,.T.);
#689=ORIENTED_EDGE('',*,*,#528,.T.);
#690=ORIENTED_EDGE('',*,*,#529,.T.);
#691=ORIENTED_EDGE('',*,*,#530,.T.);
#692=ORIENTED_EDGE('',*,*,#531,.T.);
#693=ORIENTED_EDGE('',*,*,#532,.F.);
#694=ORIENTED_EDGE('',*,*,#533,.T.);
#695=ORIENTED_EDGE('',*,*,#519,.F.);
#696=ORIENTED_EDGE('',*,*,#512,.T.);
#697=ORIENTED_EDGE('',*,*,#516,.T.);
#698=ORIENTED_EDGE('',*,*,#514,.T.);
#699=ORIENTED_EDGE('',*,*,#518,.T.);
#700=ORIENTED_EDGE('',*,*,#517,.T.);
#701=ORIENTED_EDGE('',*,*,#534,.T.);
#702=ORIENTED_EDGE('',*,*,#535,.T.);
#703=ORIENTED_EDGE('',*,*,#536,.F.);
#704=ORIENTED_EDGE('',*,*,#537,.F.);
#705=ORIENTED_EDGE('',*,*,#538,.F.);
#706=ORIENTED_EDGE('',*,*,#539,.F.);
#707=ORIENTED_EDGE('',*,*,#540,.T.);
#708=ORIENTED_EDGE('',*,*,#541,.T.);
#709=ORIENTED_EDGE('',*,*,#541,.F.);
#710=ORIENTED_EDGE('',*,*,#542,.F.);
#711=ORIENTED_EDGE('',*,*,#543,.F.);
#712=ORIENTED_EDGE('',*,*,#540,.F.);
#713=ORIENTED_EDGE('',*,*,#542,.T.);
#714=ORIENTED_EDGE('',*,*,#543,.T.);
#715=ORIENTED_EDGE('',*,*,#544,.T.);
#716=ORIENTED_EDGE('',*,*,#545,.F.);
#717=ORIENTED_EDGE('',*,*,#544,.F.);
#718=ORIENTED_EDGE('',*,*,#546,.F.);
#719=ORIENTED_EDGE('',*,*,#547,.T.);
#720=ORIENTED_EDGE('',*,*,#506,.T.);
#721=ORIENTED_EDGE('',*,*,#507,.T.);
#722=ORIENTED_EDGE('',*,*,#547,.F.);
#723=ORIENTED_EDGE('',*,*,#548,.F.);
#724=ORIENTED_EDGE('',*,*,#549,.F.);
#725=ORIENTED_EDGE('',*,*,#529,.F.);
#726=ORIENTED_EDGE('',*,*,#531,.F.);
#727=ORIENTED_EDGE('',*,*,#550,.T.);
#728=ORIENTED_EDGE('',*,*,#551,.T.);
#729=ORIENTED_EDGE('',*,*,#552,.F.);
#730=ORIENTED_EDGE('',*,*,#553,.F.);
#731=ORIENTED_EDGE('',*,*,#551,.F.);
#732=ORIENTED_EDGE('',*,*,#554,.F.);
#733=ORIENTED_EDGE('',*,*,#555,.F.);
#734=ORIENTED_EDGE('',*,*,#556,.F.);
#735=ORIENTED_EDGE('',*,*,#557,.F.);
#736=ORIENTED_EDGE('',*,*,#558,.F.);
#737=ORIENTED_EDGE('',*,*,#559,.F.);
#738=ORIENTED_EDGE('',*,*,#526,.F.);
#739=ORIENTED_EDGE('',*,*,#560,.F.);
#740=ORIENTED_EDGE('',*,*,#561,.F.);
#741=ORIENTED_EDGE('',*,*,#562,.F.);
#742=ORIENTED_EDGE('',*,*,#562,.T.);
#743=ORIENTED_EDGE('',*,*,#563,.T.);
#744=ORIENTED_EDGE('',*,*,#557,.T.);
#745=ORIENTED_EDGE('',*,*,#554,.T.);
#746=ORIENTED_EDGE('',*,*,#550,.F.);
#747=ORIENTED_EDGE('',*,*,#530,.F.);
#748=ORIENTED_EDGE('',*,*,#549,.T.);
#749=ORIENTED_EDGE('',*,*,#564,.F.);
#750=ORIENTED_EDGE('',*,*,#558,.T.);
#751=ORIENTED_EDGE('',*,*,#563,.F.);
#752=ORIENTED_EDGE('',*,*,#561,.T.);
#753=ORIENTED_EDGE('',*,*,#548,.T.);
#754=ORIENTED_EDGE('',*,*,#528,.F.);
#755=ORIENTED_EDGE('',*,*,#527,.F.);
#756=ORIENTED_EDGE('',*,*,#559,.T.);
#757=ORIENTED_EDGE('',*,*,#535,.F.);
#758=ORIENTED_EDGE('',*,*,#565,.F.);
#759=ORIENTED_EDGE('',*,*,#566,.F.);
#760=ORIENTED_EDGE('',*,*,#534,.F.);
#761=ORIENTED_EDGE('',*,*,#565,.T.);
#762=ORIENTED_EDGE('',*,*,#566,.T.);
#763=ORIENTED_EDGE('',*,*,#567,.T.);
#764=ORIENTED_EDGE('',*,*,#568,.F.);
#765=ORIENTED_EDGE('',*,*,#567,.F.);
#766=ORIENTED_EDGE('',*,*,#569,.F.);
#767=ORIENTED_EDGE('',*,*,#570,.T.);
#768=ORIENTED_EDGE('',*,*,#555,.T.);
#769=ORIENTED_EDGE('',*,*,#556,.T.);
#770=ORIENTED_EDGE('',*,*,#570,.F.);
#771=ORIENTED_EDGE('',*,*,#533,.F.);
#772=ORIENTED_EDGE('',*,*,#571,.F.);
#773=ORIENTED_EDGE('',*,*,#572,.F.);
#774=ORIENTED_EDGE('',*,*,#520,.F.);
#775=ORIENTED_EDGE('',*,*,#546,.T.);
#776=ORIENTED_EDGE('',*,*,#569,.T.);
#777=ORIENTED_EDGE('',*,*,#524,.F.);
#778=ORIENTED_EDGE('',*,*,#522,.F.);
#779=ORIENTED_EDGE('',*,*,#573,.F.);
#780=ORIENTED_EDGE('',*,*,#574,.F.);
#781=ORIENTED_EDGE('',*,*,#545,.T.);
#782=ORIENTED_EDGE('',*,*,#568,.T.);
#783=ORIENTED_EDGE('',*,*,#560,.T.);
#784=ORIENTED_EDGE('',*,*,#525,.T.);
#785=ORIENTED_EDGE('',*,*,#574,.T.);
#786=ORIENTED_EDGE('',*,*,#575,.T.);
#787=ORIENTED_EDGE('',*,*,#571,.T.);
#788=ORIENTED_EDGE('',*,*,#532,.T.);
#789=ORIENTED_EDGE('',*,*,#552,.T.);
#790=ORIENTED_EDGE('',*,*,#553,.T.);
#791=ORIENTED_EDGE('',*,*,#564,.T.);
#792=ORIENTED_EDGE('',*,*,#572,.T.);
#793=ORIENTED_EDGE('',*,*,#575,.F.);
#794=ORIENTED_EDGE('',*,*,#573,.T.);
#795=ORIENTED_EDGE('',*,*,#521,.F.);
#796=ORIENTED_EDGE('',*,*,#538,.T.);
#797=ORIENTED_EDGE('',*,*,#576,.T.);
#798=ORIENTED_EDGE('',*,*,#475,.T.);
#799=ORIENTED_EDGE('',*,*,#577,.T.);
#800=ORIENTED_EDGE('',*,*,#537,.T.);
#801=ORIENTED_EDGE('',*,*,#578,.F.);
#802=ORIENTED_EDGE('',*,*,#476,.T.);
#803=ORIENTED_EDGE('',*,*,#576,.F.);
#804=ORIENTED_EDGE('',*,*,#579,.T.);
#805=ORIENTED_EDGE('',*,*,#580,.T.);
#806=ORIENTED_EDGE('',*,*,#472,.T.);
#807=ORIENTED_EDGE('',*,*,#581,.T.);
#808=ORIENTED_EDGE('',*,*,#468,.T.);
#809=ORIENTED_EDGE('',*,*,#474,.T.);
#810=ORIENTED_EDGE('',*,*,#582,.T.);
#811=ORIENTED_EDGE('',*,*,#583,.T.);
#812=ORIENTED_EDGE('',*,*,#471,.T.);
#813=ORIENTED_EDGE('',*,*,#480,.F.);
#814=ORIENTED_EDGE('',*,*,#584,.F.);
#815=ORIENTED_EDGE('',*,*,#581,.F.);
#816=ORIENTED_EDGE('',*,*,#585,.T.);
#817=ORIENTED_EDGE('',*,*,#582,.F.);
#818=ORIENTED_EDGE('',*,*,#473,.F.);
#819=ORIENTED_EDGE('',*,*,#580,.F.);
#820=ORIENTED_EDGE('',*,*,#469,.T.);
#821=ORIENTED_EDGE('',*,*,#583,.F.);
#822=ORIENTED_EDGE('',*,*,#585,.F.);
#823=ORIENTED_EDGE('',*,*,#579,.F.);
#824=ORIENTED_EDGE('',*,*,#584,.T.);
#825=ORIENTED_EDGE('',*,*,#479,.F.);
#826=ORIENTED_EDGE('',*,*,#462,.T.);
#827=ORIENTED_EDGE('',*,*,#466,.T.);
#828=ORIENTED_EDGE('',*,*,#483,.T.);
#829=ORIENTED_EDGE('',*,*,#486,.T.);
#830=ORIENTED_EDGE('',*,*,#489,.T.);
#831=ORIENTED_EDGE('',*,*,#492,.T.);
#832=ORIENTED_EDGE('',*,*,#495,.T.);
#833=ORIENTED_EDGE('',*,*,#536,.T.);
#834=ORIENTED_EDGE('',*,*,#586,.T.);
#835=ORIENTED_EDGE('',*,*,#477,.T.);
#836=ORIENTED_EDGE('',*,*,#578,.T.);
#837=ORIENTED_EDGE('',*,*,#539,.T.);
#838=ORIENTED_EDGE('',*,*,#577,.F.);
#839=ORIENTED_EDGE('',*,*,#478,.T.);
#840=ORIENTED_EDGE('',*,*,#586,.F.);
#841=PLANE('',#944);
#842=PLANE('',#945);
#843=PLANE('',#946);
#844=PLANE('',#947);
#845=PLANE('',#948);
#846=PLANE('',#952);
#847=PLANE('',#956);
#848=PLANE('',#960);
#849=PLANE('',#964);
#850=PLANE('',#968);
#851=PLANE('',#969);
#852=PLANE('',#971);
#853=PLANE('',#972);
#854=PLANE('',#975);
#855=PLANE('',#976);
#856=PLANE('',#978);
#857=PLANE('',#981);
#858=PLANE('',#991);
#859=PLANE('',#999);
#860=PLANE('',#1001);
#861=PLANE('',#1002);
#862=PLANE('',#1005);
#863=PLANE('',#1007);
#864=PLANE('',#1008);
#865=PLANE('',#1010);
#866=PLANE('',#1018);
#867=PLANE('',#1019);
#868=PLANE('',#1020);
#869=PLANE('',#1023);
#870=PLANE('',#1024);
#871=PLANE('',#1025);
#872=PLANE('',#1026);
#873=PLANE('',#1027);
#874=PLANE('',#1028);
#875=PLANE('',#1029);
#876=PLANE('',#1030);
#877=PLANE('',#1031);
#878=ADVANCED_FACE('',(#87),#841,.T.);
#879=ADVANCED_FACE('',(#88),#842,.F.);
#880=ADVANCED_FACE('',(#89),#843,.T.);
#881=ADVANCED_FACE('',(#90,#72),#844,.F.);
#882=ADVANCED_FACE('',(#91),#845,.F.);
#883=ADVANCED_FACE('',(#92),#57,.F.);
#884=ADVANCED_FACE('',(#93),#846,.F.);
#885=ADVANCED_FACE('',(#94),#58,.F.);
#886=ADVANCED_FACE('',(#95),#847,.F.);
#887=ADVANCED_FACE('',(#96),#59,.F.);
#888=ADVANCED_FACE('',(#97),#848,.F.);
#889=ADVANCED_FACE('',(#98),#60,.F.);
#890=ADVANCED_FACE('',(#99),#849,.F.);
#891=ADVANCED_FACE('',(#100),#61,.F.);
#892=ADVANCED_FACE('',(#101),#850,.F.);
#893=ADVANCED_FACE('',(#102),#851,.F.);
#894=ADVANCED_FACE('',(#103),#852,.T.);
#895=ADVANCED_FACE('',(#104),#853,.T.);
#896=ADVANCED_FACE('',(#105),#854,.T.);
#897=ADVANCED_FACE('',(#106),#855,.F.);
#898=ADVANCED_FACE('',(#107),#856,.T.);
#899=ADVANCED_FACE('',(#108),#62,.F.);
#900=ADVANCED_FACE('',(#109),#857,.T.);
#901=ADVANCED_FACE('',(#110,#73,#74,#75),#63,.T.);
#902=ADVANCED_FACE('',(#111,#76),#858,.F.);
#903=ADVANCED_FACE('',(#112),#64,.F.);
#904=ADVANCED_FACE('',(#113),#65,.F.);
#905=ADVANCED_FACE('',(#114),#66,.F.);
#906=ADVANCED_FACE('',(#115),#859,.F.);
#907=ADVANCED_FACE('',(#116),#860,.T.);
#908=ADVANCED_FACE('',(#117),#861,.T.);
#909=ADVANCED_FACE('',(#118),#862,.F.);
#910=ADVANCED_FACE('',(#119),#863,.T.);
#911=ADVANCED_FACE('',(#120),#864,.T.);
#912=ADVANCED_FACE('',(#121),#67,.F.);
#913=ADVANCED_FACE('',(#122,#77),#865,.F.);
#914=ADVANCED_FACE('',(#123),#68,.F.);
#915=ADVANCED_FACE('',(#124),#69,.F.);
#916=ADVANCED_FACE('',(#125),#70,.F.);
#917=ADVANCED_FACE('',(#126,#78,#79),#866,.F.);
#918=ADVANCED_FACE('',(#127,#80,#81),#867,.T.);
#919=ADVANCED_FACE('',(#128),#868,.T.);
#920=ADVANCED_FACE('',(#129),#71,.F.);
#921=ADVANCED_FACE('',(#130),#869,.F.);
#922=ADVANCED_FACE('',(#131),#870,.F.);
#923=ADVANCED_FACE('',(#132),#871,.T.);
#924=ADVANCED_FACE('',(#133),#872,.F.);
#925=ADVANCED_FACE('',(#134),#873,.F.);
#926=ADVANCED_FACE('',(#135),#874,.F.);
#927=ADVANCED_FACE('',(#136,#82,#83,#84,#85,#86),#875,.F.);
#928=ADVANCED_FACE('',(#137),#876,.T.);
#929=ADVANCED_FACE('',(#138),#877,.F.);
#930=CLOSED_SHELL('',(#878,#879,#880,#881,#882,#883,#884,#885,#886,#887,
#888,#889,#890,#891,#892,#893,#894,#895,#896,#897,#898,#899,#900,#901,#902,
#903,#904,#905,#906,#907,#908,#909,#910,#911,#912,#913,#914,#915,#916,#917,
#918,#919,#920,#921,#922,#923,#924,#925,#926,#927,#928,#929));
#931=DERIVED_UNIT_ELEMENT(#933,1.);
#932=DERIVED_UNIT_ELEMENT(#1708,-3.);
#933=(
MASS_UNIT()
NAMED_UNIT(*)
SI_UNIT(.KILO.,.GRAM.)
);
#934=DERIVED_UNIT((#931,#932));
#935=MEASURE_REPRESENTATION_ITEM('density measure',
POSITIVE_RATIO_MEASURE(7850.),#934);
#936=PROPERTY_DEFINITION_REPRESENTATION(#941,#938);
#937=PROPERTY_DEFINITION_REPRESENTATION(#942,#939);
#938=REPRESENTATION('material name',(#940),#1705);
#939=REPRESENTATION('density',(#935),#1705);
#940=DESCRIPTIVE_REPRESENTATION_ITEM('Steel','Steel');
#941=PROPERTY_DEFINITION('material property','material name',#1715);
#942=PROPERTY_DEFINITION('material property','density of part',#1715);
#943=AXIS2_PLACEMENT_3D('',#1295,#1032,#1033);
#944=AXIS2_PLACEMENT_3D('',#1296,#1034,#1035);
#945=AXIS2_PLACEMENT_3D('',#1305,#1040,#1041);
#946=AXIS2_PLACEMENT_3D('',#1311,#1045,#1046);
#947=AXIS2_PLACEMENT_3D('',#1317,#1050,#1051);
#948=AXIS2_PLACEMENT_3D('',#1335,#1061,#1062);
#949=AXIS2_PLACEMENT_3D('',#1339,#1065,#1066);
#950=AXIS2_PLACEMENT_3D('',#1341,#1067,#1068);
#951=AXIS2_PLACEMENT_3D('',#1344,#1070,#1071);
#952=AXIS2_PLACEMENT_3D('',#1345,#1072,#1073);
#953=AXIS2_PLACEMENT_3D('',#1346,#1074,#1075);
#954=AXIS2_PLACEMENT_3D('',#1348,#1076,#1077);
#955=AXIS2_PLACEMENT_3D('',#1351,#1079,#1080);
#956=AXIS2_PLACEMENT_3D('',#1352,#1081,#1082);
#957=AXIS2_PLACEMENT_3D('',#1353,#1083,#1084);
#958=AXIS2_PLACEMENT_3D('',#1355,#1085,#1086);
#959=AXIS2_PLACEMENT_3D('',#1358,#1088,#1089);
#960=AXIS2_PLACEMENT_3D('',#1359,#1090,#1091);
#961=AXIS2_PLACEMENT_3D('',#1360,#1092,#1093);
#962=AXIS2_PLACEMENT_3D('',#1362,#1094,#1095);
#963=AXIS2_PLACEMENT_3D('',#1365,#1097,#1098);
#964=AXIS2_PLACEMENT_3D('',#1366,#1099,#1100);
#965=AXIS2_PLACEMENT_3D('',#1367,#1101,#1102);
#966=AXIS2_PLACEMENT_3D('',#1369,#1103,#1104);
#967=AXIS2_PLACEMENT_3D('',#1372,#1106,#1107);
#968=AXIS2_PLACEMENT_3D('',#1373,#1108,#1109);
#969=AXIS2_PLACEMENT_3D('',#1374,#1110,#1111);
#970=AXIS2_PLACEMENT_3D('',#1377,#1112,#1113);
#971=AXIS2_PLACEMENT_3D('',#1385,#1118,#1119);
#972=AXIS2_PLACEMENT_3D('',#1391,#1123,#1124);
#973=AXIS2_PLACEMENT_3D('',#1397,#1127,#1128);
#974=AXIS2_PLACEMENT_3D('',#1398,#1129,#1130);
#975=AXIS2_PLACEMENT_3D('',#1402,#1133,#1134);
#976=AXIS2_PLACEMENT_3D('',#1408,#1138,#1139);
#977=AXIS2_PLACEMENT_3D('',#1410,#1140,#1141);
#978=AXIS2_PLACEMENT_3D('',#1414,#1144,#1145);
#979=AXIS2_PLACEMENT_3D('',#1415,#1146,#1147);
#980=AXIS2_PLACEMENT_3D('',#1416,#1148,#1149);
#981=AXIS2_PLACEMENT_3D('',#1458,#1150,#1151);
#982=AXIS2_PLACEMENT_3D('',#1460,#1152,#1153);
#983=AXIS2_PLACEMENT_3D('',#1464,#1155,#1156);
#984=AXIS2_PLACEMENT_3D('',#1467,#1158,#1159);
#985=AXIS2_PLACEMENT_3D('',#1468,#1160,#1161);
#986=AXIS2_PLACEMENT_3D('',#1472,#1163,#1164);
#987=AXIS2_PLACEMENT_3D('',#1520,#1167,#1168);
#988=AXIS2_PLACEMENT_3D('',#1524,#1170,#1171);
#989=AXIS2_PLACEMENT_3D('',#1568,#1175,#1176);
#990=AXIS2_PLACEMENT_3D('',#1571,#1178,#1179);
#991=AXIS2_PLACEMENT_3D('',#1610,#1181,#1182);
#992=AXIS2_PLACEMENT_3D('',#1611,#1183,#1184);
#993=AXIS2_PLACEMENT_3D('',#1613,#1185,#1186);
#994=AXIS2_PLACEMENT_3D('',#1614,#1187,#1188);
#995=AXIS2_PLACEMENT_3D('',#1615,#1189,#1190);
#996=AXIS2_PLACEMENT_3D('',#1618,#1192,#1193);
#997=AXIS2_PLACEMENT_3D('',#1619,#1194,#1195);
#998=AXIS2_PLACEMENT_3D('',#1621,#1196,#1197);
#999=AXIS2_PLACEMENT_3D('',#1623,#1199,#1200);
#1000=AXIS2_PLACEMENT_3D('',#1625,#1201,#1202);
#1001=AXIS2_PLACEMENT_3D('',#1627,#1204,#1205);
#1002=AXIS2_PLACEMENT_3D('',#1633,#1209,#1210);
#1003=AXIS2_PLACEMENT_3D('',#1639,#1213,#1214);
#1004=AXIS2_PLACEMENT_3D('',#1640,#1215,#1216);
#1005=AXIS2_PLACEMENT_3D('',#1644,#1219,#1220);
#1006=AXIS2_PLACEMENT_3D('',#1645,#1221,#1222);
#1007=AXIS2_PLACEMENT_3D('',#1651,#1226,#1227);
#1008=AXIS2_PLACEMENT_3D('',#1653,#1229,#1230);
#1009=AXIS2_PLACEMENT_3D('',#1655,#1232,#1233);
#1010=AXIS2_PLACEMENT_3D('',#1656,#1234,#1235);
#1011=AXIS2_PLACEMENT_3D('',#1657,#1236,#1237);
#1012=AXIS2_PLACEMENT_3D('',#1659,#1238,#1239);
#1013=AXIS2_PLACEMENT_3D('',#1660,#1240,#1241);
#1014=AXIS2_PLACEMENT_3D('',#1661,#1242,#1243);
#1015=AXIS2_PLACEMENT_3D('',#1664,#1245,#1246);
#1016=AXIS2_PLACEMENT_3D('',#1665,#1247,#1248);
#1017=AXIS2_PLACEMENT_3D('',#1667,#1249,#1250);
#1018=AXIS2_PLACEMENT_3D('',#1669,#1252,#1253);
#1019=AXIS2_PLACEMENT_3D('',#1673,#1256,#1257);
#1020=AXIS2_PLACEMENT_3D('',#1677,#1260,#1261);
#1021=AXIS2_PLACEMENT_3D('',#1678,#1262,#1263);
#1022=AXIS2_PLACEMENT_3D('',#1679,#1264,#1265);
#1023=AXIS2_PLACEMENT_3D('',#1680,#1266,#1267);
#1024=AXIS2_PLACEMENT_3D('',#1683,#1270,#1271);
#1025=AXIS2_PLACEMENT_3D('',#1685,#1273,#1274);
#1026=AXIS2_PLACEMENT_3D('',#1691,#1278,#1279);
#1027=AXIS2_PLACEMENT_3D('',#1695,#1282,#1283);
#1028=AXIS2_PLACEMENT_3D('',#1697,#1285,#1286);
#1029=AXIS2_PLACEMENT_3D('',#1699,#1288,#1289);
#1030=AXIS2_PLACEMENT_3D('',#1700,#1290,#1291);
#1031=AXIS2_PLACEMENT_3D('',#1702,#1293,#1294);
#1032=DIRECTION('axis',(0.,0.,1.));
#1033=DIRECTION('refdir',(1.,0.,0.));
#1034=DIRECTION('center_axis',(0.,1.,0.));
#1035=DIRECTION('ref_axis',(0.,0.,1.));
#1036=DIRECTION('',(0.,0.,-1.));
#1037=DIRECTION('',(1.,0.,0.));
#1038=DIRECTION('',(0.,0.,1.));
#1039=DIRECTION('',(1.,0.,0.));
#1040=DIRECTION('center_axis',(0.,0.,1.));
#1041=DIRECTION('ref_axis',(1.,0.,0.));
#1042=DIRECTION('',(0.,-1.,0.));
#1043=DIRECTION('',(-1.,0.,0.));
#1044=DIRECTION('',(0.,1.,0.));
#1045=DIRECTION('center_axis',(0.,-1.,0.));
#1046=DIRECTION('ref_axis',(0.,0.,-1.));
#1047=DIRECTION('',(0.,0.,1.));
#1048=DIRECTION('',(-1.,0.,0.));
#1049=DIRECTION('',(0.,0.,-1.));
#1050=DIRECTION('center_axis',(1.,0.,0.));
#1051=DIRECTION('ref_axis',(0.,0.,-1.));
#1052=DIRECTION('',(0.,1.,0.));
#1053=DIRECTION('',(0.,0.,-1.));
#1054=DIRECTION('',(0.,-1.,0.));
#1055=DIRECTION('',(0.,0.,-1.));
#1056=DIRECTION('',(0.,1.,0.));
#1057=DIRECTION('',(0.,-1.,0.));
#1058=DIRECTION('',(0.,0.,-1.));
#1059=DIRECTION('',(0.,1.,0.));
#1060=DIRECTION('',(0.,0.,1.));
#1061=DIRECTION('center_axis',(0.,0.,1.));
#1062=DIRECTION('ref_axis',(1.,0.,0.));
#1063=DIRECTION('',(0.,-1.,0.));
#1064=DIRECTION('',(-1.,0.,0.));
#1065=DIRECTION('center_axis',(1.,0.,0.));
#1066=DIRECTION('ref_axis',(0.,0.,-1.));
#1067=DIRECTION('center_axis',(-1.,0.,0.));
#1068=DIRECTION('ref_axis',(0.,0.,-1.));
#1069=DIRECTION('',(1.,0.,0.));
#1070=DIRECTION('center_axis',(-1.,0.,0.));
#1071=DIRECTION('ref_axis',(0.,0.,-1.));
#1072=DIRECTION('center_axis',(-1.,0.,0.));
#1073=DIRECTION('ref_axis',(0.,0.,1.));
#1074=DIRECTION('center_axis',(1.,0.,0.));
#1075=DIRECTION('ref_axis',(0.,0.,-1.));
#1076=DIRECTION('center_axis',(-1.,0.,0.));
#1077=DIRECTION('ref_axis',(0.,0.,-1.));
#1078=DIRECTION('',(1.,0.,0.));
#1079=DIRECTION('center_axis',(-1.,0.,0.));
#1080=DIRECTION('ref_axis',(0.,0.,-1.));
#1081=DIRECTION('center_axis',(-1.,0.,0.));
#1082=DIRECTION('ref_axis',(0.,0.,1.));
#1083=DIRECTION('center_axis',(1.,0.,0.));
#1084=DIRECTION('ref_axis',(0.,0.,-1.));
#1085=DIRECTION('center_axis',(-1.,0.,0.));
#1086=DIRECTION('ref_axis',(0.,0.,-1.));
#1087=DIRECTION('',(1.,0.,0.));
#1088=DIRECTION('center_axis',(-1.,0.,0.));
#1089=DIRECTION('ref_axis',(0.,0.,-1.));
#1090=DIRECTION('center_axis',(-1.,0.,0.));
#1091=DIRECTION('ref_axis',(0.,0.,1.));
#1092=DIRECTION('center_axis',(1.,0.,0.));
#1093=DIRECTION('ref_axis',(0.,0.,-1.));
#1094=DIRECTION('center_axis',(-1.,0.,0.));
#1095=DIRECTION('ref_axis',(0.,0.,-1.));
#1096=DIRECTION('',(1.,0.,0.));
#1097=DIRECTION('center_axis',(-1.,0.,0.));
#1098=DIRECTION('ref_axis',(0.,0.,-1.));
#1099=DIRECTION('center_axis',(-1.,0.,0.));
#1100=DIRECTION('ref_axis',(0.,0.,1.));
#1101=DIRECTION('center_axis',(1.,0.,0.));
#1102=DIRECTION('ref_axis',(0.,0.,-1.));
#1103=DIRECTION('center_axis',(-1.,0.,0.));
#1104=DIRECTION('ref_axis',(0.,0.,-1.));
#1105=DIRECTION('',(1.,0.,0.));
#1106=DIRECTION('center_axis',(-1.,0.,0.));
#1107=DIRECTION('ref_axis',(0.,0.,-1.));
#1108=DIRECTION('center_axis',(-1.,0.,0.));
#1109=DIRECTION('ref_axis',(0.,0.,1.));
#1110=DIRECTION('center_axis',(0.,0.,1.));
#1111=DIRECTION('ref_axis',(1.,0.,0.));
#1112=DIRECTION('center_axis',(0.,0.,-1.));
#1113=DIRECTION('ref_axis',(1.,0.,0.));
#1114=DIRECTION('',(-1.,0.,0.));
#1115=DIRECTION('',(0.,1.,0.));
#1116=DIRECTION('',(1.,0.,0.));
#1117=DIRECTION('',(0.,-1.,0.));
#1118=DIRECTION('center_axis',(-1.,0.,0.));
#1119=DIRECTION('ref_axis',(0.,0.,1.));
#1120=DIRECTION('',(0.,0.,-1.));
#1121=DIRECTION('',(0.,0.,-1.));
#1122=DIRECTION('',(0.,-1.,0.));
#1123=DIRECTION('center_axis',(0.,0.,1.));
#1124=DIRECTION('ref_axis',(1.,0.,0.));
#1125=DIRECTION('',(-1.,0.,0.));
#1126=DIRECTION('',(1.,0.,0.));
#1127=DIRECTION('center_axis',(0.,0.,1.));
#1128=DIRECTION('ref_axis',(1.,0.,0.));
#1129=DIRECTION('center_axis',(0.,0.,1.));
#1130=DIRECTION('ref_axis',(1.,0.,0.));
#1131=DIRECTION('',(1.,0.,0.));
#1132=DIRECTION('',(0.,1.,0.));
#1133=DIRECTION('center_axis',(1.,0.,0.));
#1134=DIRECTION('ref_axis',(0.,0.,-1.));
#1135=DIRECTION('',(0.,0.,1.));
#1136=DIRECTION('',(0.,0.,-1.));
#1137=DIRECTION('',(0.,1.,0.));
#1138=DIRECTION('center_axis',(0.,0.,1.));
#1139=DIRECTION('ref_axis',(1.,0.,0.));
#1140=DIRECTION('center_axis',(0.,0.,-1.));
#1141=DIRECTION('ref_axis',(1.,0.,0.));
#1142=DIRECTION('',(0.,-1.,0.));
#1143=DIRECTION('',(-1.,0.,0.));
#1144=DIRECTION('center_axis',(0.,-1.,0.));
#1145=DIRECTION('ref_axis',(0.,0.,-1.));
#1146=DIRECTION('center_axis',(0.,1.,0.));
#1147=DIRECTION('ref_axis',(1.,0.,0.));
#1148=DIRECTION('center_axis',(0.,0.,1.));
#1149=DIRECTION('ref_axis',(1.,0.,0.));
#1150=DIRECTION('center_axis',(0.,-1.,0.));
#1151=DIRECTION('ref_axis',(-1.,0.,0.));
#1152=DIRECTION('center_axis',(0.,-1.,0.));
#1153=DIRECTION('ref_axis',(1.,0.,0.));
#1154=DIRECTION('',(1.,0.,0.));
#1155=DIRECTION('center_axis',(0.,1.,0.));
#1156=DIRECTION('ref_axis',(1.,0.,0.));
#1157=DIRECTION('',(-1.,0.,0.));
#1158=DIRECTION('center_axis',(0.,-1.,0.));
#1159=DIRECTION('ref_axis',(1.,0.,0.));
#1160=DIRECTION('center_axis',(0.,1.,0.));
#1161=DIRECTION('ref_axis',(1.,0.,0.));
#1162=DIRECTION('',(0.,1.,0.));
#1163=DIRECTION('center_axis',(0.,1.,0.));
#1164=DIRECTION('ref_axis',(1.,0.,0.));
#1165=DIRECTION('',(0.,-1.,0.));
#1166=DIRECTION('',(0.,-1.,0.));
#1167=DIRECTION('center_axis',(0.,-1.,0.));
#1168=DIRECTION('ref_axis',(1.,0.,0.));
#1169=DIRECTION('',(0.,1.,0.));
#1170=DIRECTION('center_axis',(0.,1.,0.));
#1171=DIRECTION('ref_axis',(1.,0.,0.));
#1172=DIRECTION('',(0.,-1.,0.));
#1173=DIRECTION('',(0.,-1.,0.));
#1174=DIRECTION('',(0.,-1.,0.));
#1175=DIRECTION('center_axis',(0.,-1.,0.));
#1176=DIRECTION('ref_axis',(1.,0.,0.));
#1177=DIRECTION('',(0.,1.,0.));
#1178=DIRECTION('center_axis',(0.,1.,0.));
#1179=DIRECTION('ref_axis',(1.,0.,0.));
#1180=DIRECTION('',(0.,-1.,0.));
#1181=DIRECTION('center_axis',(0.,0.,1.));
#1182=DIRECTION('ref_axis',(1.,0.,0.));
#1183=DIRECTION('center_axis',(0.,0.,1.));
#1184=DIRECTION('ref_axis',(1.,0.,0.));
#1185=DIRECTION('center_axis',(0.,0.,-1.));
#1186=DIRECTION('ref_axis',(1.,0.,0.));
#1187=DIRECTION('center_axis',(0.,0.,1.));
#1188=DIRECTION('ref_axis',(1.,0.,0.));
#1189=DIRECTION('center_axis',(0.,0.,1.));
#1190=DIRECTION('ref_axis',(1.,0.,0.));
#1191=DIRECTION('',(0.,0.,1.));
#1192=DIRECTION('center_axis',(0.,0.,-1.));
#1193=DIRECTION('ref_axis',(1.,0.,0.));
#1194=DIRECTION('center_axis',(0.,0.,1.));
#1195=DIRECTION('ref_axis',(1.,0.,0.));
#1196=DIRECTION('center_axis',(0.,0.,1.));
#1197=DIRECTION('ref_axis',(1.,0.,0.));
#1198=DIRECTION('',(0.,0.,1.));
#1199=DIRECTION('center_axis',(0.,0.,1.));
#1200=DIRECTION('ref_axis',(1.,0.,0.));
#1201=DIRECTION('center_axis',(0.,0.,-1.));
#1202=DIRECTION('ref_axis',(1.,0.,0.));
#1203=DIRECTION('',(1.,0.,0.));
#1204=DIRECTION('center_axis',(1.,0.,0.));
#1205=DIRECTION('ref_axis',(0.,0.,-1.));
#1206=DIRECTION('',(0.,0.,-1.));
#1207=DIRECTION('',(0.,1.,0.));
#1208=DIRECTION('',(0.,0.,-1.));
#1209=DIRECTION('center_axis',(0.,0.,1.));
#1210=DIRECTION('ref_axis',(1.,0.,0.));
#1211=DIRECTION('',(1.,0.,0.));
#1212=DIRECTION('',(-1.,0.,0.));
#1213=DIRECTION('center_axis',(0.,0.,1.));
#1214=DIRECTION('ref_axis',(1.,0.,0.));
#1215=DIRECTION('center_axis',(0.,0.,1.));
#1216=DIRECTION('ref_axis',(1.,0.,0.));
#1217=DIRECTION('',(-1.,0.,0.));
#1218=DIRECTION('',(0.,-1.,0.));
#1219=DIRECTION('center_axis',(0.,0.,1.));
#1220=DIRECTION('ref_axis',(1.,0.,0.));
#1221=DIRECTION('center_axis',(0.,0.,-1.));
#1222=DIRECTION('ref_axis',(1.,0.,0.));
#1223=DIRECTION('',(-1.,0.,0.));
#1224=DIRECTION('',(0.,1.,0.));
#1225=DIRECTION('',(1.,0.,0.));
#1226=DIRECTION('center_axis',(0.,1.,0.));
#1227=DIRECTION('ref_axis',(0.,0.,1.));
#1228=DIRECTION('',(0.,0.,-1.));
#1229=DIRECTION('center_axis',(-1.,0.,0.));
#1230=DIRECTION('ref_axis',(0.,0.,1.));
#1231=DIRECTION('',(0.,0.,1.));
#1232=DIRECTION('center_axis',(0.,0.,1.));
#1233=DIRECTION('ref_axis',(1.,0.,0.));
#1234=DIRECTION('center_axis',(0.,0.,1.));
#1235=DIRECTION('ref_axis',(1.,0.,0.));
#1236=DIRECTION('center_axis',(0.,0.,1.));
#1237=DIRECTION('ref_axis',(1.,0.,0.));
#1238=DIRECTION('center_axis',(0.,0.,-1.));
#1239=DIRECTION('ref_axis',(1.,0.,0.));
#1240=DIRECTION('center_axis',(0.,0.,1.));
#1241=DIRECTION('ref_axis',(1.,0.,0.));
#1242=DIRECTION('center_axis',(0.,0.,1.));
#1243=DIRECTION('ref_axis',(1.,0.,0.));
#1244=DIRECTION('',(0.,0.,1.));
#1245=DIRECTION('center_axis',(0.,0.,-1.));
#1246=DIRECTION('ref_axis',(1.,0.,0.));
#1247=DIRECTION('center_axis',(0.,0.,1.));
#1248=DIRECTION('ref_axis',(1.,0.,0.));
#1249=DIRECTION('center_axis',(0.,0.,1.));
#1250=DIRECTION('ref_axis',(1.,0.,0.));
#1251=DIRECTION('',(0.,0.,1.));
#1252=DIRECTION('center_axis',(0.,0.,1.));
#1253=DIRECTION('ref_axis',(1.,0.,0.));
#1254=DIRECTION('',(-1.,0.,0.));
#1255=DIRECTION('',(0.,1.,0.));
#1256=DIRECTION('center_axis',(0.,0.,1.));
#1257=DIRECTION('ref_axis',(1.,0.,0.));
#1258=DIRECTION('',(0.,-1.,0.));
#1259=DIRECTION('',(1.,0.,0.));
#1260=DIRECTION('center_axis',(0.,1.,0.));
#1261=DIRECTION('ref_axis',(1.,0.,0.));
#1262=DIRECTION('center_axis',(0.,-1.,0.));
#1263=DIRECTION('ref_axis',(1.,0.,0.));
#1264=DIRECTION('center_axis',(0.,1.,0.));
#1265=DIRECTION('ref_axis',(1.,0.,0.));
#1266=DIRECTION('center_axis',(0.,0.,1.));
#1267=DIRECTION('ref_axis',(1.,0.,0.));
#1268=DIRECTION('',(1.,0.,0.));
#1269=DIRECTION('',(-1.,0.,0.));
#1270=DIRECTION('center_axis',(0.,-1.,0.));
#1271=DIRECTION('ref_axis',(0.,0.,-1.));
#1272=DIRECTION('',(-1.,0.,0.));
#1273=DIRECTION('center_axis',(0.,0.,1.));
#1274=DIRECTION('ref_axis',(1.,0.,0.));
#1275=DIRECTION('',(0.,1.,0.));
#1276=DIRECTION('',(-1.,0.,0.));
#1277=DIRECTION('',(1.,0.,0.));
#1278=DIRECTION('center_axis',(0.,0.,1.));
#1279=DIRECTION('ref_axis',(1.,0.,0.));
#1280=DIRECTION('',(1.,0.,0.));
#1281=DIRECTION('',(0.,-1.,0.));
#1282=DIRECTION('center_axis',(0.,1.,0.));
#1283=DIRECTION('ref_axis',(0.,0.,1.));
#1284=DIRECTION('',(0.,0.,-1.));
#1285=DIRECTION('center_axis',(0.,-1.,0.));
#1286=DIRECTION('ref_axis',(0.,0.,-1.));
#1287=DIRECTION('',(0.,0.,-1.));
#1288=DIRECTION('center_axis',(-1.,0.,0.));
#1289=DIRECTION('ref_axis',(0.,0.,1.));
#1290=DIRECTION('center_axis',(0.,0.,1.));
#1291=DIRECTION('ref_axis',(1.,0.,0.));
#1292=DIRECTION('',(1.,0.,0.));
#1293=DIRECTION('center_axis',(0.,1.,0.));
#1294=DIRECTION('ref_axis',(0.,0.,1.));
#1295=CARTESIAN_POINT('',(0.,0.,0.));
#1296=CARTESIAN_POINT('Origin',(234.,-4.,72.5));
#1297=CARTESIAN_POINT('',(228.,-4.,76.));
#1298=CARTESIAN_POINT('',(228.,-4.,70.));
#1299=CARTESIAN_POINT('',(228.,-4.,81.25));
#1300=CARTESIAN_POINT('',(240.,-4.,76.));
#1301=CARTESIAN_POINT('',(234.,-4.,76.));
#1302=CARTESIAN_POINT('',(240.,-4.,70.));
#1303=CARTESIAN_POINT('',(240.,-4.,81.25));
#1304=CARTESIAN_POINT('',(234.,-4.,70.));
#1305=CARTESIAN_POINT('Origin',(234.,0.,76.));
#1306=CARTESIAN_POINT('',(228.,4.,76.));
#1307=CARTESIAN_POINT('',(228.,0.,76.));
#1308=CARTESIAN_POINT('',(240.,4.,76.));
#1309=CARTESIAN_POINT('',(234.,4.,76.));
#1310=CARTESIAN_POINT('',(240.,0.,76.));
#1311=CARTESIAN_POINT('Origin',(234.,4.,72.5));
#1312=CARTESIAN_POINT('',(228.,4.,70.));
#1313=CARTESIAN_POINT('',(228.,4.,81.25));
#1314=CARTESIAN_POINT('',(240.,4.,70.));
#1315=CARTESIAN_POINT('',(234.,4.,70.));
#1316=CARTESIAN_POINT('',(240.,4.,81.25));
#1317=CARTESIAN_POINT('Origin',(228.,0.,90.));
#1318=CARTESIAN_POINT('',(228.,-20.,70.));
#1319=CARTESIAN_POINT('',(228.,0.,70.));
#1320=CARTESIAN_POINT('',(228.,-20.,110.));
#1321=CARTESIAN_POINT('',(228.,-20.,90.));
#1322=CARTESIAN_POINT('',(228.,20.,110.));
#1323=CARTESIAN_POINT('',(228.,0.,110.));
#1324=CARTESIAN_POINT('',(228.,20.,70.));
#1325=CARTESIAN_POINT('',(228.,20.,90.));
#1326=CARTESIAN_POINT('',(228.,0.,70.));
#1327=CARTESIAN_POINT('',(228.,12.,78.));
#1328=CARTESIAN_POINT('',(228.,-12.,78.));
#1329=CARTESIAN_POINT('',(228.,0.,78.));
#1330=CARTESIAN_POINT('',(228.,12.,102.));
#1331=CARTESIAN_POINT('',(228.,12.,90.));
#1332=CARTESIAN_POINT('',(228.,-12.,102.));
#1333=CARTESIAN_POINT('',(228.,0.,102.));
#1334=CARTESIAN_POINT('',(228.,-12.,90.));
#1335=CARTESIAN_POINT('Origin',(234.,0.,70.));
#1336=CARTESIAN_POINT('',(240.,-20.,70.));
#1337=CARTESIAN_POINT('',(240.,0.,70.));
#1338=CARTESIAN_POINT('',(234.,-20.,70.));
#1339=CARTESIAN_POINT('Origin',(237.25,5.65685424949238,84.3431457505076));
#1340=CARTESIAN_POINT('',(233.5,5.65685424949238,86.6431457505076));
#1341=CARTESIAN_POINT('Origin',(233.5,5.65685424949238,84.3431457505076));
#1342=CARTESIAN_POINT('',(240.,5.65685424949238,86.6431457505076));
#1343=CARTESIAN_POINT('',(237.25,5.65685424949238,86.6431457505076));
#1344=CARTESIAN_POINT('Origin',(240.,5.65685424949238,84.3431457505076));
#1345=CARTESIAN_POINT('Origin',(233.5,5.65685424949238,84.3431457505076));
#1346=CARTESIAN_POINT('Origin',(237.25,-5.65685424949238,84.3431457505076));
#1347=CARTESIAN_POINT('',(233.5,-5.65685424949238,86.6431457505076));
#1348=CARTESIAN_POINT('Origin',(233.5,-5.65685424949238,84.3431457505076));
#1349=CARTESIAN_POINT('',(240.,-5.65685424949238,86.6431457505076));
#1350=CARTESIAN_POINT('',(237.25,-5.65685424949238,86.6431457505076));
#1351=CARTESIAN_POINT('Origin',(240.,-5.65685424949238,84.3431457505076));
#1352=CARTESIAN_POINT('Origin',(233.5,-5.65685424949238,84.3431457505076));
#1353=CARTESIAN_POINT('Origin',(237.25,-5.65685424949238,95.6568542494924));
#1354=CARTESIAN_POINT('',(233.5,-5.65685424949238,97.9568542494924));
#1355=CARTESIAN_POINT('Origin',(233.5,-5.65685424949238,95.6568542494924));
#1356=CARTESIAN_POINT('',(240.,-5.65685424949238,97.9568542494924));
#1357=CARTESIAN_POINT('',(237.25,-5.65685424949238,97.9568542494924));
#1358=CARTESIAN_POINT('Origin',(240.,-5.65685424949238,95.6568542494924));
#1359=CARTESIAN_POINT('Origin',(233.5,-5.65685424949238,95.6568542494924));
#1360=CARTESIAN_POINT('Origin',(237.25,5.65685424949238,95.6568542494924));
#1361=CARTESIAN_POINT('',(233.5,5.65685424949238,97.9568542494924));
#1362=CARTESIAN_POINT('Origin',(233.5,5.65685424949238,95.6568542494924));
#1363=CARTESIAN_POINT('',(240.,5.65685424949238,97.9568542494924));
#1364=CARTESIAN_POINT('',(237.25,5.65685424949238,97.9568542494924));
#1365=CARTESIAN_POINT('Origin',(240.,5.65685424949238,95.6568542494924));
#1366=CARTESIAN_POINT('Origin',(233.5,5.65685424949238,95.6568542494924));
#1367=CARTESIAN_POINT('Origin',(234.,0.,90.));
#1368=CARTESIAN_POINT('',(227.,-6.42939569552361E-16,95.25));
#1369=CARTESIAN_POINT('Origin',(227.,0.,90.));
#1370=CARTESIAN_POINT('',(240.,6.42939569552361E-16,95.25));
#1371=CARTESIAN_POINT('',(234.,-6.42939569552361E-16,95.25));
#1372=CARTESIAN_POINT('Origin',(240.,0.,90.));
#1373=CARTESIAN_POINT('Origin',(227.,0.,90.));
#1374=CARTESIAN_POINT('Origin',(110.5,-9.4,100.));
#1375=CARTESIAN_POINT('',(110.5,-4.8,100.));
#1376=CARTESIAN_POINT('',(108.819660116165,-6.75779424895382,100.000000002048));
#1377=CARTESIAN_POINT('Origin',(110.5,-6.5,100.));
#1378=CARTESIAN_POINT('',(113.35,-4.8,100.));
#1379=CARTESIAN_POINT('',(110.5,-4.8,100.));
#1380=CARTESIAN_POINT('',(113.35,-13.,100.));
#1381=CARTESIAN_POINT('',(113.35,-9.4,100.));
#1382=CARTESIAN_POINT('',(108.819660112501,-13.,100.));
#1383=CARTESIAN_POINT('',(115.25,-13.,100.));
#1384=CARTESIAN_POINT('',(108.819660112501,0.,100.));
#1385=CARTESIAN_POINT('Origin',(113.35,-9.4,98.7));
#1386=CARTESIAN_POINT('',(113.35,-13.,97.4));
#1387=CARTESIAN_POINT('',(113.35,-13.,94.35));
#1388=CARTESIAN_POINT('',(113.35,-4.8,97.4));
#1389=CARTESIAN_POINT('',(113.35,-4.8,98.7));
#1390=CARTESIAN_POINT('',(113.35,-9.4,97.4));
#1391=CARTESIAN_POINT('Origin',(110.5,-9.4,97.4));
#1392=CARTESIAN_POINT('',(107.65,-13.,97.4));
#1393=CARTESIAN_POINT('',(115.25,-13.,97.4));
#1394=CARTESIAN_POINT('',(110.5,-4.8,97.4));
#1395=CARTESIAN_POINT('',(110.5,-4.8,97.4));
#1396=CARTESIAN_POINT('',(108.8,-6.5,97.4));
#1397=CARTESIAN_POINT('Origin',(110.5,-6.5,97.4));
#1398=CARTESIAN_POINT('Origin',(110.5,-6.5,97.4));
#1399=CARTESIAN_POINT('',(107.65,-4.8,97.4));
#1400=CARTESIAN_POINT('',(110.5,-4.8,97.4));
#1401=CARTESIAN_POINT('',(107.65,-9.4,97.4));
#1402=CARTESIAN_POINT('Origin',(107.65,-9.4,98.7));
#1403=CARTESIAN_POINT('',(107.65,-13.,98.513371834943));
#1404=CARTESIAN_POINT('',(107.65,-13.,94.35));
#1405=CARTESIAN_POINT('',(107.65,-4.8,98.513371834943));
#1406=CARTESIAN_POINT('',(107.65,-4.8,98.7));
#1407=CARTESIAN_POINT('',(107.65,0.,98.513371834943));
#1408=CARTESIAN_POINT('Origin',(110.5,-9.4,100.));
#1409=CARTESIAN_POINT('',(108.819660116165,-6.24220575104617,100.000000002048));
#1410=CARTESIAN_POINT('Origin',(110.5,-6.5,100.));
#1411=CARTESIAN_POINT('',(108.819660112501,-4.8,100.));
#1412=CARTESIAN_POINT('',(108.819660112501,0.,100.));
#1413=CARTESIAN_POINT('',(110.5,-4.8,100.));
#1414=CARTESIAN_POINT('Origin',(110.5,-4.8,98.7));
#1415=CARTESIAN_POINT('Origin',(120.,-4.8,90.));
#1416=CARTESIAN_POINT('Origin',(110.5,-6.5,90.));
#1417=CARTESIAN_POINT('',(112.2,-6.5,102.812493902438));
#1418=CARTESIAN_POINT('Ctrl Pts',(112.2,-6.5,102.812493902438));
#1419=CARTESIAN_POINT('Ctrl Pts',(112.2,-6.71007413955697,102.812493902438));
#1420=CARTESIAN_POINT('Ctrl Pts',(112.158467611107,-6.93157689346913,102.787468240784));
#1421=CARTESIAN_POINT('Ctrl Pts',(111.997579442694,-7.33308392833151,102.687404772416));
#1422=CARTESIAN_POINT('Ctrl Pts',(111.878517638345,-7.51314687099793,102.612130040715));
#1423=CARTESIAN_POINT('Ctrl Pts',(111.582101817208,-7.8338030608507,102.416868258048));
#1424=CARTESIAN_POINT('Ctrl Pts',(111.37459540563,-7.97691437917402,102.275003489879));
#1425=CARTESIAN_POINT('Ctrl Pts',(110.937202017495,-8.15983354195108,101.955710275907));
#1426=CARTESIAN_POINT('Ctrl Pts',(110.707605945422,-8.2,101.77808896727));
#1427=CARTESIAN_POINT('Ctrl Pts',(110.271114844416,-8.2,101.420869916349));
#1428=CARTESIAN_POINT('Ctrl Pts',(110.030680254337,-8.15174817288609,101.211754441602));
#1429=CARTESIAN_POINT('Ctrl Pts',(109.588508613238,-7.95523760380671,100.802389593186));
#1430=CARTESIAN_POINT('Ctrl Pts',(109.386460649145,-7.80754918556317,100.602202532533));
#1431=CARTESIAN_POINT('Ctrl Pts',(109.107559345262,-7.49126043128216,100.314222980932));
#1432=CARTESIAN_POINT('Ctrl Pts',(108.996980372111,-7.32125796790467,100.195420840146));
#1433=CARTESIAN_POINT('Ctrl Pts',(108.881488438631,-7.03038041055876,100.068861027823));
#1434=CARTESIAN_POINT('Ctrl Pts',(108.851090856821,-6.92745427656647,100.035074325041));
#1435=CARTESIAN_POINT('Ctrl Pts',(108.826633793591,-6.80051167653572,100.007793639318));
#1436=CARTESIAN_POINT('Ctrl Pts',(108.822943222333,-6.77919400577164,100.003670628378));
#1437=CARTESIAN_POINT('Ctrl Pts',(108.819660116165,-6.75779424895383,100.000000004097));
#1438=CARTESIAN_POINT('Ctrl Pts',(108.819660116165,-6.24220575104617,100.000000004097));
#1439=CARTESIAN_POINT('Ctrl Pts',(108.822943222333,-6.22080599422836,100.003670628378));
#1440=CARTESIAN_POINT('Ctrl Pts',(108.826633793591,-6.19948832346428,100.007793639318));
#1441=CARTESIAN_POINT('Ctrl Pts',(108.851090856821,-6.07254572343352,100.035074325041));
#1442=CARTESIAN_POINT('Ctrl Pts',(108.881488438631,-5.96961958944123,100.068861027823));
#1443=CARTESIAN_POINT('Ctrl Pts',(108.996980372111,-5.67874203209533,100.195420840146));
#1444=CARTESIAN_POINT('Ctrl Pts',(109.107559345262,-5.50873956871784,100.314222980932));
#1445=CARTESIAN_POINT('Ctrl Pts',(109.386460649145,-5.19245081443683,100.602202532533));
#1446=CARTESIAN_POINT('Ctrl Pts',(109.588508613238,-5.04476239619329,100.802389593186));
#1447=CARTESIAN_POINT('Ctrl Pts',(110.030680254337,-4.84825182711391,101.211754441602));
#1448=CARTESIAN_POINT('Ctrl Pts',(110.271114844416,-4.8,101.420869916349));
#1449=CARTESIAN_POINT('Ctrl Pts',(110.707605945422,-4.8,101.77808896727));
#1450=CARTESIAN_POINT('Ctrl Pts',(110.937202017495,-4.84016645804892,101.955710275907));
#1451=CARTESIAN_POINT('Ctrl Pts',(111.37459540563,-5.02308562082598,102.275003489879));
#1452=CARTESIAN_POINT('Ctrl Pts',(111.582101817208,-5.1661969391493,102.416868258048));
#1453=CARTESIAN_POINT('Ctrl Pts',(111.878517638345,-5.48685312900207,102.612130040715));
#1454=CARTESIAN_POINT('Ctrl Pts',(111.997579442694,-5.66691607166849,102.687404772416));
#1455=CARTESIAN_POINT('Ctrl Pts',(112.158467611107,-6.06842310653087,102.787468240784));
#1456=CARTESIAN_POINT('Ctrl Pts',(112.2,-6.28992586044303,102.812493902438));
#1457=CARTESIAN_POINT('Ctrl Pts',(112.2,-6.5,102.812493902438));
#1458=CARTESIAN_POINT('Origin',(120.,-13.,90.));
#1459=CARTESIAN_POINT('',(105.018761733421,-13.,90.75));
#1460=CARTESIAN_POINT('Origin',(120.,-13.,90.));
#1461=CARTESIAN_POINT('',(115.89291770231,-13.,90.75));
#1462=CARTESIAN_POINT('',(115.00625,-13.,90.75));
#1463=CARTESIAN_POINT('',(115.89291770231,-13.,89.25));
#1464=CARTESIAN_POINT('Origin',(120.,-13.,90.));
#1465=CARTESIAN_POINT('',(105.018761733421,-13.,89.25));
#1466=CARTESIAN_POINT('',(115.00625,-13.,89.25));
#1467=CARTESIAN_POINT('Origin',(120.,-13.,90.));
#1468=CARTESIAN_POINT('Origin',(120.,0.,90.));
#1469=CARTESIAN_POINT('',(105.018761733421,13.,89.25));
#1470=CARTESIAN_POINT('',(105.018761733421,0.,89.25));
#1471=CARTESIAN_POINT('',(108.819660112501,13.,100.));
#1472=CARTESIAN_POINT('Origin',(120.,13.,90.));
#1473=CARTESIAN_POINT('',(108.819660116165,6.75779424895383,100.000000002048));
#1474=CARTESIAN_POINT('',(108.819660112501,0.,100.));
#1475=CARTESIAN_POINT('',(112.2,6.5,102.812493902438));
#1476=CARTESIAN_POINT('Ctrl Pts',(108.819660116165,6.75779424895382,100.000000004097));
#1477=CARTESIAN_POINT('Ctrl Pts',(108.822943222333,6.77919400577163,100.003670628378));
#1478=CARTESIAN_POINT('Ctrl Pts',(108.826633793591,6.80051167653572,100.007793639318));
#1479=CARTESIAN_POINT('Ctrl Pts',(108.851090856821,6.92745427656648,100.035074325041));
#1480=CARTESIAN_POINT('Ctrl Pts',(108.881488438631,7.03038041055877,100.068861027823));
#1481=CARTESIAN_POINT('Ctrl Pts',(108.996980372111,7.32125796790467,100.195420840146));
#1482=CARTESIAN_POINT('Ctrl Pts',(109.107559345262,7.49126043128216,100.314222980932));
#1483=CARTESIAN_POINT('Ctrl Pts',(109.386460649145,7.80754918556317,100.602202532533));
#1484=CARTESIAN_POINT('Ctrl Pts',(109.588508613238,7.95523760380671,100.802389593186));
#1485=CARTESIAN_POINT('Ctrl Pts',(110.030680254337,8.15174817288609,101.211754441602));
#1486=CARTESIAN_POINT('Ctrl Pts',(110.271114844416,8.2,101.420869916349));
#1487=CARTESIAN_POINT('Ctrl Pts',(110.707605945422,8.2,101.77808896727));
#1488=CARTESIAN_POINT('Ctrl Pts',(110.937202017495,8.15983354195108,101.955710275907));
#1489=CARTESIAN_POINT('Ctrl Pts',(111.37459540563,7.97691437917402,102.275003489879));
#1490=CARTESIAN_POINT('Ctrl Pts',(111.582101817208,7.8338030608507,102.416868258048));
#1491=CARTESIAN_POINT('Ctrl Pts',(111.878517638345,7.51314687099793,102.612130040715));
#1492=CARTESIAN_POINT('Ctrl Pts',(111.997579442694,7.33308392833151,102.687404772416));
#1493=CARTESIAN_POINT('Ctrl Pts',(112.158467611107,6.93157689346913,102.787468240784));
#1494=CARTESIAN_POINT('Ctrl Pts',(112.2,6.71007413955698,102.812493902438));
#1495=CARTESIAN_POINT('Ctrl Pts',(112.2,6.5,102.812493902438));
#1496=CARTESIAN_POINT('',(108.819660116165,6.24220575104617,100.000000002048));
#1497=CARTESIAN_POINT('Ctrl Pts',(112.2,6.5,102.812493902438));
#1498=CARTESIAN_POINT('Ctrl Pts',(112.2,6.28992586044303,102.812493902438));
#1499=CARTESIAN_POINT('Ctrl Pts',(112.158467611107,6.06842310653087,102.787468240784));
#1500=CARTESIAN_POINT('Ctrl Pts',(111.997579442694,5.66691607166849,102.687404772416));
#1501=CARTESIAN_POINT('Ctrl Pts',(111.878517638345,5.48685312900207,102.612130040715));
#1502=CARTESIAN_POINT('Ctrl Pts',(111.582101817208,5.1661969391493,102.416868258048));
#1503=CARTESIAN_POINT('Ctrl Pts',(111.37459540563,5.02308562082598,102.275003489879));
#1504=CARTESIAN_POINT('Ctrl Pts',(110.937202017495,4.84016645804892,101.955710275907));
#1505=CARTESIAN_POINT('Ctrl Pts',(110.707605945422,4.8,101.77808896727));
#1506=CARTESIAN_POINT('Ctrl Pts',(110.271114844416,4.8,101.420869916349));
#1507=CARTESIAN_POINT('Ctrl Pts',(110.030680254337,4.84825182711391,101.211754441602));
#1508=CARTESIAN_POINT('Ctrl Pts',(109.588508613238,5.04476239619329,100.802389593186));
#1509=CARTESIAN_POINT('Ctrl Pts',(109.386460649145,5.19245081443683,100.602202532533));
#1510=CARTESIAN_POINT('Ctrl Pts',(109.107559345262,5.50873956871784,100.314222980932));
#1511=CARTESIAN_POINT('Ctrl Pts',(108.996980372111,5.67874203209533,100.195420840146));
#1512=CARTESIAN_POINT('Ctrl Pts',(108.881488438631,5.96961958944123,100.068861027823));
#1513=CARTESIAN_POINT('Ctrl Pts',(108.851090856821,6.07254572343352,100.035074325041));
#1514=CARTESIAN_POINT('Ctrl Pts',(108.826633793591,6.19948832346428,100.007793639318));
#1515=CARTESIAN_POINT('Ctrl Pts',(108.822943222333,6.22080599422836,100.003670628378));
#1516=CARTESIAN_POINT('Ctrl Pts',(108.819660116165,6.24220575104617,100.000000004097));
#1517=CARTESIAN_POINT('',(108.819660112501,4.8,100.));
#1518=CARTESIAN_POINT('',(108.819660112501,0.,100.));
#1519=CARTESIAN_POINT('',(107.65,4.8,98.513371834943));
#1520=CARTESIAN_POINT('Origin',(120.,4.8,90.));
#1521=CARTESIAN_POINT('',(107.65,13.,98.513371834943));
#1522=CARTESIAN_POINT('',(107.65,0.,98.513371834943));
#1523=CARTESIAN_POINT('',(105.018761733421,13.,90.75));
#1524=CARTESIAN_POINT('Origin',(120.,13.,90.));
#1525=CARTESIAN_POINT('',(105.018761733421,0.,90.75));
#1526=CARTESIAN_POINT('',(107.31142245955,5.87113334597796,82.));
#1527=CARTESIAN_POINT('',(107.31142245955,7.12886665402204,82.));
#1528=CARTESIAN_POINT('Ctrl Pts',(107.31142245955,5.87113334597797,82.));
#1529=CARTESIAN_POINT('Ctrl Pts',(107.350691462235,5.67202553958448,81.9377165268124));
#1530=CARTESIAN_POINT('Ctrl Pts',(107.407721071874,5.48159806399611,81.8482524790739));
#1531=CARTESIAN_POINT('Ctrl Pts',(107.620827326721,4.9435744660107,81.5251546498612));
#1532=CARTESIAN_POINT('Ctrl Pts',(107.820528681702,4.63237126634347,81.237417419336));
#1533=CARTESIAN_POINT('Ctrl Pts',(108.329110252971,4.03844549796576,80.5642025164448));
#1534=CARTESIAN_POINT('Ctrl Pts',(108.705808586076,3.74980278170255,80.1094676527714));
#1535=CARTESIAN_POINT('Ctrl Pts',(109.557065338858,3.35459369964115,79.2145233030086));
#1536=CARTESIAN_POINT('Ctrl Pts',(110.032574652385,3.25,78.7743484988891));
#1537=CARTESIAN_POINT('Ctrl Pts',(110.884111998342,3.25,78.0774606085154));
#1538=CARTESIAN_POINT('Ctrl Pts',(111.316741961179,3.3222926383561,77.7586814115887));
#1539=CARTESIAN_POINT('Ctrl Pts',(112.149236846016,3.66364479774692,77.2088168517513));
#1540=CARTESIAN_POINT('Ctrl Pts',(112.548063733059,3.93395834204004,76.9769398828806));
#1541=CARTESIAN_POINT('Ctrl Pts',(113.124946531889,4.5470926784491,76.6650978718328));
#1542=CARTESIAN_POINT('Ctrl Pts',(113.358013684425,4.89713928289026,76.5495694198223));
#1543=CARTESIAN_POINT('Ctrl Pts',(113.67070314058,5.67292791065004,76.3996299858494));
#1544=CARTESIAN_POINT('Ctrl Pts',(113.75,6.09858630589366,76.3641098567054));
#1545=CARTESIAN_POINT('Ctrl Pts',(113.75,6.5,76.3641098567054));
#1546=CARTESIAN_POINT('Ctrl Pts',(113.75,6.90141369410634,76.3641098567054));
#1547=CARTESIAN_POINT('Ctrl Pts',(113.67070314058,7.32707208934996,76.3996299858494));
#1548=CARTESIAN_POINT('Ctrl Pts',(113.358013684425,8.10286071710974,76.5495694198223));
#1549=CARTESIAN_POINT('Ctrl Pts',(113.124946531889,8.4529073215509,76.6650978718328));
#1550=CARTESIAN_POINT('Ctrl Pts',(112.548063733059,9.06604165795996,76.9769398828806));
#1551=CARTESIAN_POINT('Ctrl Pts',(112.149236846016,9.33635520225309,77.2088168517513));
#1552=CARTESIAN_POINT('Ctrl Pts',(111.316741961179,9.67770736164391,77.7586814115887));
#1553=CARTESIAN_POINT('Ctrl Pts',(110.884111998342,9.75,78.0774606085154));
#1554=CARTESIAN_POINT('Ctrl Pts',(110.032574652385,9.75,78.7743484988891));
#1555=CARTESIAN_POINT('Ctrl Pts',(109.557065338858,9.64540630035885,79.2145233030086));
#1556=CARTESIAN_POINT('Ctrl Pts',(108.705808586076,9.25019721829745,80.1094676527714));
#1557=CARTESIAN_POINT('Ctrl Pts',(108.329110252971,8.96155450203424,80.5642025164448));
#1558=CARTESIAN_POINT('Ctrl Pts',(107.820528681702,8.36762873365653,81.237417419336));
#1559=CARTESIAN_POINT('Ctrl Pts',(107.620827326721,8.0564255339893,81.5251546498612));
#1560=CARTESIAN_POINT('Ctrl Pts',(107.407721072059,7.51840193647049,81.8482524787937));
#1561=CARTESIAN_POINT('Ctrl Pts',(107.350691448271,7.32797438961061,81.937716548961));
#1562=CARTESIAN_POINT('Ctrl Pts',(107.31142245955,7.12886665402203,82.));
#1563=CARTESIAN_POINT('',(107.31142245955,0.,82.));
#1564=CARTESIAN_POINT('',(129.,12.,102.));
#1565=CARTESIAN_POINT('',(129.,-12.,102.));
#1566=CARTESIAN_POINT('',(129.,0.,102.));
#1567=CARTESIAN_POINT('',(129.,12.,78.));
#1568=CARTESIAN_POINT('Origin',(120.,12.,90.));
#1569=CARTESIAN_POINT('',(129.,-12.,78.));
#1570=CARTESIAN_POINT('',(129.,0.,78.));
#1571=CARTESIAN_POINT('Origin',(120.,-12.,90.));
#1572=CARTESIAN_POINT('',(107.31142245955,-7.12886665402204,82.));
#1573=CARTESIAN_POINT('',(107.31142245955,-5.87113334597796,82.));
#1574=CARTESIAN_POINT('Ctrl Pts',(107.31142245955,-7.12886665402203,82.));
#1575=CARTESIAN_POINT('Ctrl Pts',(107.350691462235,-7.32797446041552,81.9377165268124));
#1576=CARTESIAN_POINT('Ctrl Pts',(107.407721071874,-7.51840193600389,81.8482524790739));
#1577=CARTESIAN_POINT('Ctrl Pts',(107.620827326721,-8.0564255339893,81.5251546498612));
#1578=CARTESIAN_POINT('Ctrl Pts',(107.820528681702,-8.36762873365653,81.237417419336));
#1579=CARTESIAN_POINT('Ctrl Pts',(108.329110252971,-8.96155450203423,80.5642025164448));
#1580=CARTESIAN_POINT('Ctrl Pts',(108.705808586076,-9.25019721829745,80.1094676527714));
#1581=CARTESIAN_POINT('Ctrl Pts',(109.557065338858,-9.64540630035885,79.2145233030086));
#1582=CARTESIAN_POINT('Ctrl Pts',(110.032574652385,-9.75,78.7743484988891));
#1583=CARTESIAN_POINT('Ctrl Pts',(110.884111998342,-9.75,78.0774606085154));
#1584=CARTESIAN_POINT('Ctrl Pts',(111.316741961179,-9.6777073616439,77.7586814115887));
#1585=CARTESIAN_POINT('Ctrl Pts',(112.149236846016,-9.33635520225308,77.2088168517513));
#1586=CARTESIAN_POINT('Ctrl Pts',(112.548063733059,-9.06604165795996,76.9769398828806));
#1587=CARTESIAN_POINT('Ctrl Pts',(113.124946531889,-8.4529073215509,76.6650978718328));
#1588=CARTESIAN_POINT('Ctrl Pts',(113.358013684425,-8.10286071710974,76.5495694198223));
#1589=CARTESIAN_POINT('Ctrl Pts',(113.67070314058,-7.32707208934996,76.3996299858494));
#1590=CARTESIAN_POINT('Ctrl Pts',(113.75,-6.90141369410634,76.3641098567054));
#1591=CARTESIAN_POINT('Ctrl Pts',(113.75,-6.5,76.3641098567054));
#1592=CARTESIAN_POINT('Ctrl Pts',(113.75,-6.09858630589366,76.3641098567054));
#1593=CARTESIAN_POINT('Ctrl Pts',(113.67070314058,-5.67292791065004,76.3996299858494));
#1594=CARTESIAN_POINT('Ctrl Pts',(113.358013684425,-4.89713928289026,76.5495694198223));
#1595=CARTESIAN_POINT('Ctrl Pts',(113.124946531889,-4.5470926784491,76.6650978718328));
#1596=CARTESIAN_POINT('Ctrl Pts',(112.548063733059,-3.93395834204004,76.9769398828806));
#1597=CARTESIAN_POINT('Ctrl Pts',(112.149236846016,-3.66364479774691,77.2088168517513));
#1598=CARTESIAN_POINT('Ctrl Pts',(111.316741961179,-3.3222926383561,77.7586814115887));
#1599=CARTESIAN_POINT('Ctrl Pts',(110.884111998342,-3.25,78.0774606085154));
#1600=CARTESIAN_POINT('Ctrl Pts',(110.032574652385,-3.25,78.7743484988891));
#1601=CARTESIAN_POINT('Ctrl Pts',(109.557065338858,-3.35459369964115,79.2145233030086));
#1602=CARTESIAN_POINT('Ctrl Pts',(108.705808586076,-3.74980278170255,80.1094676527714));
#1603=CARTESIAN_POINT('Ctrl Pts',(108.329110252971,-4.03844549796576,80.5642025164448));
#1604=CARTESIAN_POINT('Ctrl Pts',(107.820528681702,-4.63237126634347,81.237417419336));
#1605=CARTESIAN_POINT('Ctrl Pts',(107.620827326721,-4.9435744660107,81.5251546498612));
#1606=CARTESIAN_POINT('Ctrl Pts',(107.407721072059,-5.48159806352951,81.8482524787937));
#1607=CARTESIAN_POINT('Ctrl Pts',(107.350691448271,-5.67202561038939,81.937716548961));
#1608=CARTESIAN_POINT('Ctrl Pts',(107.31142245955,-5.87113334597797,82.));
#1609=CARTESIAN_POINT('',(107.31142245955,0.,82.));
#1610=CARTESIAN_POINT('Origin',(110.5,-6.5,82.));
#1611=CARTESIAN_POINT('Origin',(110.5,-6.5,82.));
#1612=CARTESIAN_POINT('',(108.8,-6.5,82.));
#1613=CARTESIAN_POINT('Origin',(110.5,-6.5,82.));
#1614=CARTESIAN_POINT('Origin',(110.5,-6.5,78.));
#1615=CARTESIAN_POINT('Origin',(110.5,-6.5,90.));
#1616=CARTESIAN_POINT('',(108.8,-6.5,89.25));
#1617=CARTESIAN_POINT('',(108.8,-6.5,90.));
#1618=CARTESIAN_POINT('Origin',(110.5,-6.5,89.25));
#1619=CARTESIAN_POINT('Origin',(110.5,-6.5,90.));
#1620=CARTESIAN_POINT('',(108.8,-6.5,90.75));
#1621=CARTESIAN_POINT('Origin',(110.5,-6.5,90.75));
#1622=CARTESIAN_POINT('',(108.8,-6.5,90.));
#1623=CARTESIAN_POINT('Origin',(110.5,9.4,100.));
#1624=CARTESIAN_POINT('',(110.5,4.8,100.));
#1625=CARTESIAN_POINT('Origin',(110.5,6.5,100.));
#1626=CARTESIAN_POINT('',(110.5,4.8,100.));
#1627=CARTESIAN_POINT('Origin',(107.65,9.4,98.7));
#1628=CARTESIAN_POINT('',(107.65,4.8,97.4));
#1629=CARTESIAN_POINT('',(107.65,4.8,98.7));
#1630=CARTESIAN_POINT('',(107.65,13.,97.4));
#1631=CARTESIAN_POINT('',(107.65,9.4,97.4));
#1632=CARTESIAN_POINT('',(107.65,13.,94.35));
#1633=CARTESIAN_POINT('Origin',(110.5,9.4,97.4));
#1634=CARTESIAN_POINT('',(113.35,13.,97.4));
#1635=CARTESIAN_POINT('',(115.25,13.,97.4));
#1636=CARTESIAN_POINT('',(110.5,4.8,97.4));
#1637=CARTESIAN_POINT('',(110.5,4.8,97.4));
#1638=CARTESIAN_POINT('',(108.8,6.5,97.4));
#1639=CARTESIAN_POINT('Origin',(110.5,6.5,97.4));
#1640=CARTESIAN_POINT('Origin',(110.5,6.5,97.4));
#1641=CARTESIAN_POINT('',(113.35,4.8,97.4));
#1642=CARTESIAN_POINT('',(110.5,4.8,97.4));
#1643=CARTESIAN_POINT('',(113.35,9.4,97.4));
#1644=CARTESIAN_POINT('Origin',(110.5,9.4,100.));
#1645=CARTESIAN_POINT('Origin',(110.5,6.5,100.));
#1646=CARTESIAN_POINT('',(113.35,13.,100.));
#1647=CARTESIAN_POINT('',(115.25,13.,100.));
#1648=CARTESIAN_POINT('',(113.35,4.8,100.));
#1649=CARTESIAN_POINT('',(113.35,9.4,100.));
#1650=CARTESIAN_POINT('',(110.5,4.8,100.));
#1651=CARTESIAN_POINT('Origin',(110.5,4.8,98.7));
#1652=CARTESIAN_POINT('',(113.35,4.8,98.7));
#1653=CARTESIAN_POINT('Origin',(113.35,9.4,98.7));
#1654=CARTESIAN_POINT('',(113.35,13.,94.35));
#1655=CARTESIAN_POINT('Origin',(110.5,6.5,90.));
#1656=CARTESIAN_POINT('Origin',(110.5,6.5,82.));
#1657=CARTESIAN_POINT('Origin',(110.5,6.5,82.));
#1658=CARTESIAN_POINT('',(108.8,6.5,82.));
#1659=CARTESIAN_POINT('Origin',(110.5,6.5,82.));
#1660=CARTESIAN_POINT('Origin',(110.5,6.5,78.));
#1661=CARTESIAN_POINT('Origin',(110.5,6.5,90.));
#1662=CARTESIAN_POINT('',(108.8,6.5,89.25));
#1663=CARTESIAN_POINT('',(108.8,6.5,90.));
#1664=CARTESIAN_POINT('Origin',(110.5,6.5,89.25));
#1665=CARTESIAN_POINT('Origin',(110.5,6.5,90.));
#1666=CARTESIAN_POINT('',(108.8,6.5,90.75));
#1667=CARTESIAN_POINT('Origin',(110.5,6.5,90.75));
#1668=CARTESIAN_POINT('',(108.8,6.5,90.));
#1669=CARTESIAN_POINT('Origin',(110.0125,0.,90.75));
#1670=CARTESIAN_POINT('',(115.89291770231,13.,90.75));
#1671=CARTESIAN_POINT('',(115.00625,13.,90.75));
#1672=CARTESIAN_POINT('',(115.89291770231,0.,90.75));
#1673=CARTESIAN_POINT('Origin',(110.0125,0.,89.25));
#1674=CARTESIAN_POINT('',(115.89291770231,13.,89.25));
#1675=CARTESIAN_POINT('',(115.89291770231,0.,89.25));
#1676=CARTESIAN_POINT('',(115.00625,13.,89.25));
#1677=CARTESIAN_POINT('Origin',(120.,13.,90.));
#1678=CARTESIAN_POINT('Origin',(120.,13.,90.));
#1679=CARTESIAN_POINT('Origin',(120.,0.,90.));
#1680=CARTESIAN_POINT('Origin',(174.5,0.,78.));
#1681=CARTESIAN_POINT('',(174.5,12.,78.));
#1682=CARTESIAN_POINT('',(174.5,-12.,78.));
#1683=CARTESIAN_POINT('Origin',(174.5,12.,90.));
#1684=CARTESIAN_POINT('',(174.5,12.,102.));
#1685=CARTESIAN_POINT('Origin',(234.,0.,110.));
#1686=CARTESIAN_POINT('',(240.,-20.,110.));
#1687=CARTESIAN_POINT('',(240.,20.,110.));
#1688=CARTESIAN_POINT('',(240.,0.,110.));
#1689=CARTESIAN_POINT('',(234.,20.,110.));
#1690=CARTESIAN_POINT('',(234.,-20.,110.));
#1691=CARTESIAN_POINT('Origin',(234.,0.,70.));
#1692=CARTESIAN_POINT('',(240.,20.,70.));
#1693=CARTESIAN_POINT('',(234.,20.,70.));
#1694=CARTESIAN_POINT('',(240.,0.,70.));
#1695=CARTESIAN_POINT('Origin',(234.,-20.,90.));
#1696=CARTESIAN_POINT('',(240.,-20.,90.));
#1697=CARTESIAN_POINT('Origin',(234.,20.,90.));
#1698=CARTESIAN_POINT('',(240.,20.,90.));
#1699=CARTESIAN_POINT('Origin',(240.,0.,90.));
#1700=CARTESIAN_POINT('Origin',(174.5,0.,102.));
#1701=CARTESIAN_POINT('',(174.5,-12.,102.));
#1702=CARTESIAN_POINT('Origin',(174.5,-12.,90.));
#1703=UNCERTAINTY_MEASURE_WITH_UNIT(LENGTH_MEASURE(0.01),#1707,
'DISTANCE_ACCURACY_VALUE',
'Maximum model space distance between geometric entities at asserted c
onnectivities');
#1704=UNCERTAINTY_MEASURE_WITH_UNIT(LENGTH_MEASURE(0.01),#1707,
'DISTANCE_ACCURACY_VALUE',
'Maximum model space distance between geometric entities at asserted c
onnectivities');
#1705=(
GEOMETRIC_REPRESENTATION_CONTEXT(3)
GLOBAL_UNCERTAINTY_ASSIGNED_CONTEXT((#1703))
GLOBAL_UNIT_ASSIGNED_CONTEXT((#1707,#1709,#1710))
REPRESENTATION_CONTEXT('','3D')
);
#1706=(
GEOMETRIC_REPRESENTATION_CONTEXT(3)
GLOBAL_UNCERTAINTY_ASSIGNED_CONTEXT((#1704))
GLOBAL_UNIT_ASSIGNED_CONTEXT((#1707,#1709,#1710))
REPRESENTATION_CONTEXT('','3D')
);
#1707=(
LENGTH_UNIT()
NAMED_UNIT(*)
SI_UNIT(.MILLI.,.METRE.)
);
#1708=(
LENGTH_UNIT()
NAMED_UNIT(*)
SI_UNIT($,.METRE.)
);
#1709=(
NAMED_UNIT(*)
PLANE_ANGLE_UNIT()
SI_UNIT($,.RADIAN.)
);
#1710=(
NAMED_UNIT(*)
SI_UNIT($,.STERADIAN.)
SOLID_ANGLE_UNIT()
);
#1711=SHAPE_DEFINITION_REPRESENTATION(#1712,#1713);
#1712=PRODUCT_DEFINITION_SHAPE('',$,#1715);
#1713=SHAPE_REPRESENTATION('',(#943),#1705);
#1714=PRODUCT_DEFINITION_CONTEXT('part definition',#1719,'design');
#1715=PRODUCT_DEFINITION('rt_forearm','rt_forearm',#1716,#1714);
#1716=PRODUCT_DEFINITION_FORMATION('',$,#1721);
#1717=PRODUCT_RELATED_PRODUCT_CATEGORY('rt_forearm','rt_forearm',(#1721));
#1718=APPLICATION_PROTOCOL_DEFINITION('international standard',
'automotive_design',2009,#1719);
#1719=APPLICATION_CONTEXT(
'Core Data for Automotive Mechanical Design Process');
#1720=PRODUCT_CONTEXT('part definition',#1719,'mechanical');
#1721=PRODUCT('rt_forearm','rt_forearm',$,(#1720));
#1722=PRESENTATION_STYLE_ASSIGNMENT((#1723));
#1723=SURFACE_STYLE_USAGE(.BOTH.,#1724);
#1724=SURFACE_SIDE_STYLE('',(#1725));
#1725=SURFACE_STYLE_FILL_AREA(#1726);
#1726=FILL_AREA_STYLE('Steel - Satin',(#1727));
#1727=FILL_AREA_STYLE_COLOUR('Steel - Satin',#1728);
#1728=COLOUR_RGB('Steel - Satin',0.627450980392157,0.627450980392157,0.627450980392157);
ENDSEC;
END-ISO-10303-21;
