ISO-10303-21;
HEADER;
/* Generated by software containing ST-Developer
 * from STEP Tools, Inc. (www.steptools.com) 
 */

FILE_DESCRIPTION(
/* description */ (''),
/* implementation_level */ '2;1');

FILE_NAME(
/* name */ 'rt_upper_arm.step',
/* time_stamp */ '2026-07-20T18:38:24-04:00',
/* author */ (''),
/* organization */ (''),
/* preprocessor_version */ 'ST-DEVELOPER v20.1',
/* originating_system */ 'Autodesk Translation Framework v15.8.0.0',
/* authorisation */ '');

FILE_SCHEMA (('AUTOMOTIVE_DESIGN { 1 0 10303 214 3 1 1 }'));
ENDSEC;

DATA;
#10=MECHANICAL_DESIGN_GEOMETRIC_PRESENTATION_REPRESENTATION('',(#13),#2115);
#11=SHAPE_REPRESENTATION_RELATIONSHIP('SRR','None',#2122,#12);
#12=ADVANCED_BREP_SHAPE_REPRESENTATION('',(#14),#2114);
#13=STYLED_ITEM('',(#2131),#14);
#14=MANIFOLD_SOLID_BREP('Body1',#1163);
#15=B_SPLINE_CURVE_WITH_KNOTS('',3,(#1749,#1750,#1751,#1752,#1753,#1754,
#1755,#1756,#1757,#1758,#1759,#1760,#1761,#1762,#1763,#1764,#1765,#1766,
#1767,#1768),.UNSPECIFIED.,.F.,.F.,(4,2,2,2,2,2,2,2,2,4),(0.,0.0630222418670921,
0.126044483734184,0.206524473694109,0.287004463654035,0.375733497814963,
0.464462531975892,0.528926533550649,0.561158534338027,0.567623436895269),
 .UNSPECIFIED.);
#16=B_SPLINE_CURVE_WITH_KNOTS('',3,(#1769,#1770,#1771,#1772,#1773,#1774,
#1775,#1776,#1777,#1778,#1779,#1780,#1781,#1782,#1783,#1784,#1785,#1786,
#1787,#1788),.UNSPECIFIED.,.F.,.F.,(4,2,2,2,2,2,2,2,2,4),(0.619157633355543,
0.625622535912784,0.657854536700163,0.72231853827492,0.811047572435849,
0.899776606596777,0.980256596556702,1.06073658651663,1.12375882838372,1.18678107025081),
 .UNSPECIFIED.);
#17=B_SPLINE_CURVE_WITH_KNOTS('',3,(#1807,#1808,#1809,#1810,#1811,#1812,
#1813,#1814,#1815,#1816,#1817,#1818,#1819,#1820,#1821,#1822,#1823,#1824,
#1825,#1826),.UNSPECIFIED.,.F.,.F.,(4,2,2,2,2,2,2,2,2,4),(0.619157633355543,
0.625622535912784,0.657854536700163,0.72231853827492,0.811047572435849,
0.899776606596777,0.980256596556702,1.06073658651663,1.12375882838372,1.18678107025081),
 .UNSPECIFIED.);
#18=B_SPLINE_CURVE_WITH_KNOTS('',3,(#1828,#1829,#1830,#1831,#1832,#1833,
#1834,#1835,#1836,#1837,#1838,#1839,#1840,#1841,#1842,#1843,#1844,#1845,
#1846,#1847),.UNSPECIFIED.,.F.,.F.,(4,2,2,2,2,2,2,2,2,4),(0.,0.0630222418670921,
0.126044483734184,0.206524473694109,0.287004463654035,0.375733497814963,
0.464462531975892,0.528926533550649,0.561158534338027,0.567623436895269),
 .UNSPECIFIED.);
#19=B_SPLINE_CURVE_WITH_KNOTS('',3,(#1859,#1860,#1861,#1862,#1863,#1864,
#1865,#1866,#1867,#1868,#1869,#1870,#1871,#1872,#1873,#1874,#1875,#1876,
#1877,#1878,#1879,#1880,#1881,#1882,#1883,#1884,#1885,#1886,#1887,#1888,
#1889,#1890,#1891,#1892,#1893),.UNSPECIFIED.,.F.,.F.,(4,2,2,2,2,2,2,2,3,
2,2,2,2,2,2,2,4),(-1.09308010632253,-1.02939834983412,-0.901057796817832,
-0.719856881754851,-0.53865596669187,-0.389752091577836,-0.240848216463802,
-0.120424108231901,0.,0.120424108231901,0.240848216463802,0.389752091577836,
0.538655966691869,0.719856881754851,0.901057796817832,1.02939834983412,
1.093080106156),.UNSPECIFIED.);
#20=B_SPLINE_CURVE_WITH_KNOTS('',3,(#1905,#1906,#1907,#1908,#1909,#1910,
#1911,#1912,#1913,#1914,#1915,#1916,#1917,#1918,#1919,#1920,#1921,#1922,
#1923,#1924,#1925,#1926,#1927,#1928,#1929,#1930,#1931,#1932,#1933,#1934,
#1935,#1936,#1937,#1938,#1939),.UNSPECIFIED.,.F.,.F.,(4,2,2,2,2,2,2,2,3,
2,2,2,2,2,2,2,4),(-1.09308010632253,-1.02939834983412,-0.901057796817832,
-0.719856881754851,-0.53865596669187,-0.389752091577836,-0.240848216463802,
-0.120424108231901,0.,0.120424108231901,0.240848216463802,0.389752091577836,
0.538655966691869,0.719856881754851,0.901057796817832,1.02939834983412,
1.093080106156),.UNSPECIFIED.);
#21=FACE_BOUND('',#164,.T.);
#22=FACE_BOUND('',#168,.T.);
#23=FACE_BOUND('',#179,.T.);
#24=FACE_BOUND('',#180,.T.);
#25=FACE_BOUND('',#181,.T.);
#26=FACE_BOUND('',#183,.T.);
#27=FACE_BOUND('',#195,.T.);
#28=FACE_BOUND('',#200,.T.);
#29=FACE_BOUND('',#201,.T.);
#30=FACE_BOUND('',#203,.T.);
#31=FACE_BOUND('',#204,.T.);
#32=FACE_BOUND('',#211,.T.);
#33=FACE_BOUND('',#214,.T.);
#34=FACE_BOUND('',#215,.T.);
#35=FACE_BOUND('',#216,.T.);
#36=FACE_BOUND('',#217,.T.);
#37=FACE_BOUND('',#218,.T.);
#38=FACE_BOUND('',#219,.T.);
#39=FACE_BOUND('',#220,.T.);
#40=FACE_BOUND('',#223,.T.);
#41=FACE_BOUND('',#226,.T.);
#42=PLANE('',#1180);
#43=PLANE('',#1184);
#44=PLANE('',#1188);
#45=PLANE('',#1192);
#46=PLANE('',#1196);
#47=PLANE('',#1200);
#48=PLANE('',#1204);
#49=PLANE('',#1211);
#50=PLANE('',#1215);
#51=PLANE('',#1217);
#52=PLANE('',#1218);
#53=PLANE('',#1221);
#54=PLANE('',#1222);
#55=PLANE('',#1224);
#56=PLANE('',#1227);
#57=PLANE('',#1237);
#58=PLANE('',#1245);
#59=PLANE('',#1247);
#60=PLANE('',#1248);
#61=PLANE('',#1251);
#62=PLANE('',#1253);
#63=PLANE('',#1254);
#64=PLANE('',#1256);
#65=PLANE('',#1264);
#66=PLANE('',#1265);
#67=PLANE('',#1266);
#68=PLANE('',#1269);
#69=PLANE('',#1270);
#70=PLANE('',#1276);
#71=PLANE('',#1277);
#72=PLANE('',#1278);
#73=PLANE('',#1284);
#74=PLANE('',#1285);
#75=PLANE('',#1286);
#76=PLANE('',#1287);
#77=PLANE('',#1288);
#78=PLANE('',#1289);
#79=PLANE('',#1290);
#80=PLANE('',#1291);
#81=PLANE('',#1292);
#82=PLANE('',#1293);
#83=PLANE('',#1294);
#84=PLANE('',#1295);
#85=FACE_OUTER_BOUND('',#150,.T.);
#86=FACE_OUTER_BOUND('',#151,.T.);
#87=FACE_OUTER_BOUND('',#152,.T.);
#88=FACE_OUTER_BOUND('',#153,.T.);
#89=FACE_OUTER_BOUND('',#154,.T.);
#90=FACE_OUTER_BOUND('',#155,.T.);
#91=FACE_OUTER_BOUND('',#156,.T.);
#92=FACE_OUTER_BOUND('',#157,.T.);
#93=FACE_OUTER_BOUND('',#158,.T.);
#94=FACE_OUTER_BOUND('',#159,.T.);
#95=FACE_OUTER_BOUND('',#160,.T.);
#96=FACE_OUTER_BOUND('',#161,.T.);
#97=FACE_OUTER_BOUND('',#162,.T.);
#98=FACE_OUTER_BOUND('',#163,.T.);
#99=FACE_OUTER_BOUND('',#165,.T.);
#100=FACE_OUTER_BOUND('',#166,.T.);
#101=FACE_OUTER_BOUND('',#167,.T.);
#102=FACE_OUTER_BOUND('',#169,.T.);
#103=FACE_OUTER_BOUND('',#170,.T.);
#104=FACE_OUTER_BOUND('',#171,.T.);
#105=FACE_OUTER_BOUND('',#172,.T.);
#106=FACE_OUTER_BOUND('',#173,.T.);
#107=FACE_OUTER_BOUND('',#174,.T.);
#108=FACE_OUTER_BOUND('',#175,.T.);
#109=FACE_OUTER_BOUND('',#176,.T.);
#110=FACE_OUTER_BOUND('',#177,.T.);
#111=FACE_OUTER_BOUND('',#178,.T.);
#112=FACE_OUTER_BOUND('',#182,.T.);
#113=FACE_OUTER_BOUND('',#184,.T.);
#114=FACE_OUTER_BOUND('',#185,.T.);
#115=FACE_OUTER_BOUND('',#186,.T.);
#116=FACE_OUTER_BOUND('',#187,.T.);
#117=FACE_OUTER_BOUND('',#188,.T.);
#118=FACE_OUTER_BOUND('',#189,.T.);
#119=FACE_OUTER_BOUND('',#190,.T.);
#120=FACE_OUTER_BOUND('',#191,.T.);
#121=FACE_OUTER_BOUND('',#192,.T.);
#122=FACE_OUTER_BOUND('',#193,.T.);
#123=FACE_OUTER_BOUND('',#194,.T.);
#124=FACE_OUTER_BOUND('',#196,.T.);
#125=FACE_OUTER_BOUND('',#197,.T.);
#126=FACE_OUTER_BOUND('',#198,.T.);
#127=FACE_OUTER_BOUND('',#199,.T.);
#128=FACE_OUTER_BOUND('',#202,.T.);
#129=FACE_OUTER_BOUND('',#205,.T.);
#130=FACE_OUTER_BOUND('',#206,.T.);
#131=FACE_OUTER_BOUND('',#207,.T.);
#132=FACE_OUTER_BOUND('',#208,.T.);
#133=FACE_OUTER_BOUND('',#209,.T.);
#134=FACE_OUTER_BOUND('',#210,.T.);
#135=FACE_OUTER_BOUND('',#212,.T.);
#136=FACE_OUTER_BOUND('',#213,.T.);
#137=FACE_OUTER_BOUND('',#221,.T.);
#138=FACE_OUTER_BOUND('',#222,.T.);
#139=FACE_OUTER_BOUND('',#224,.T.);
#140=FACE_OUTER_BOUND('',#225,.T.);
#141=FACE_OUTER_BOUND('',#227,.T.);
#142=FACE_OUTER_BOUND('',#228,.T.);
#143=FACE_OUTER_BOUND('',#229,.T.);
#144=FACE_OUTER_BOUND('',#230,.T.);
#145=FACE_OUTER_BOUND('',#231,.T.);
#146=FACE_OUTER_BOUND('',#232,.T.);
#147=FACE_OUTER_BOUND('',#233,.T.);
#148=FACE_OUTER_BOUND('',#234,.T.);
#149=FACE_OUTER_BOUND('',#235,.T.);
#150=EDGE_LOOP('',(#756,#757,#758,#759));
#151=EDGE_LOOP('',(#760));
#152=EDGE_LOOP('',(#761,#762,#763,#764));
#153=EDGE_LOOP('',(#765));
#154=EDGE_LOOP('',(#766,#767,#768,#769));
#155=EDGE_LOOP('',(#770));
#156=EDGE_LOOP('',(#771,#772,#773,#774));
#157=EDGE_LOOP('',(#775));
#158=EDGE_LOOP('',(#776,#777,#778,#779));
#159=EDGE_LOOP('',(#780));
#160=EDGE_LOOP('',(#781,#782,#783,#784));
#161=EDGE_LOOP('',(#785));
#162=EDGE_LOOP('',(#786,#787,#788,#789));
#163=EDGE_LOOP('',(#790));
#164=EDGE_LOOP('',(#791));
#165=EDGE_LOOP('',(#792,#793,#794,#795));
#166=EDGE_LOOP('',(#796,#797,#798,#799));
#167=EDGE_LOOP('',(#800));
#168=EDGE_LOOP('',(#801));
#169=EDGE_LOOP('',(#802,#803,#804,#805));
#170=EDGE_LOOP('',(#806,#807,#808,#809,#810));
#171=EDGE_LOOP('',(#811,#812,#813,#814));
#172=EDGE_LOOP('',(#815,#816,#817,#818,#819,#820,#821));
#173=EDGE_LOOP('',(#822,#823,#824,#825));
#174=EDGE_LOOP('',(#826,#827,#828));
#175=EDGE_LOOP('',(#829,#830,#831,#832,#833,#834,#835));
#176=EDGE_LOOP('',(#836,#837,#838,#839));
#177=EDGE_LOOP('',(#840,#841,#842,#843,#844,#845,#846,#847,#848));
#178=EDGE_LOOP('',(#849,#850,#851,#852,#853,#854,#855,#856,#857,#858,#859,
#860,#861,#862,#863,#864,#865,#866));
#179=EDGE_LOOP('',(#867,#868));
#180=EDGE_LOOP('',(#869,#870,#871,#872));
#181=EDGE_LOOP('',(#873,#874));
#182=EDGE_LOOP('',(#875,#876));
#183=EDGE_LOOP('',(#877));
#184=EDGE_LOOP('',(#878,#879));
#185=EDGE_LOOP('',(#880,#881,#882,#883));
#186=EDGE_LOOP('',(#884,#885,#886,#887,#888));
#187=EDGE_LOOP('',(#889,#890,#891));
#188=EDGE_LOOP('',(#892,#893,#894,#895));
#189=EDGE_LOOP('',(#896,#897,#898,#899,#900,#901,#902));
#190=EDGE_LOOP('',(#903,#904,#905,#906,#907));
#191=EDGE_LOOP('',(#908,#909,#910,#911,#912,#913,#914));
#192=EDGE_LOOP('',(#915,#916,#917,#918));
#193=EDGE_LOOP('',(#919,#920,#921,#922));
#194=EDGE_LOOP('',(#923,#924));
#195=EDGE_LOOP('',(#925));
#196=EDGE_LOOP('',(#926,#927));
#197=EDGE_LOOP('',(#928,#929,#930,#931));
#198=EDGE_LOOP('',(#932,#933,#934,#935,#936));
#199=EDGE_LOOP('',(#937,#938,#939,#940));
#200=EDGE_LOOP('',(#941));
#201=EDGE_LOOP('',(#942));
#202=EDGE_LOOP('',(#943,#944,#945,#946));
#203=EDGE_LOOP('',(#947));
#204=EDGE_LOOP('',(#948));
#205=EDGE_LOOP('',(#949,#950,#951,#952,#953,#954,#955,#956,#957));
#206=EDGE_LOOP('',(#958,#959,#960,#961));
#207=EDGE_LOOP('',(#962,#963,#964,#965,#966,#967,#968,#969));
#208=EDGE_LOOP('',(#970,#971,#972,#973));
#209=EDGE_LOOP('',(#974,#975,#976,#977,#978,#979,#980,#981));
#210=EDGE_LOOP('',(#982));
#211=EDGE_LOOP('',(#983));
#212=EDGE_LOOP('',(#984,#985,#986,#987,#988,#989));
#213=EDGE_LOOP('',(#990,#991,#992,#993));
#214=EDGE_LOOP('',(#994));
#215=EDGE_LOOP('',(#995));
#216=EDGE_LOOP('',(#996));
#217=EDGE_LOOP('',(#997));
#218=EDGE_LOOP('',(#998));
#219=EDGE_LOOP('',(#999));
#220=EDGE_LOOP('',(#1000));
#221=EDGE_LOOP('',(#1001,#1002,#1003,#1004,#1005,#1006,#1007,#1008));
#222=EDGE_LOOP('',(#1009));
#223=EDGE_LOOP('',(#1010));
#224=EDGE_LOOP('',(#1011,#1012,#1013,#1014,#1015,#1016));
#225=EDGE_LOOP('',(#1017,#1018,#1019,#1020));
#226=EDGE_LOOP('',(#1021));
#227=EDGE_LOOP('',(#1022,#1023,#1024,#1025,#1026,#1027,#1028,#1029,#1030,
#1031,#1032,#1033));
#228=EDGE_LOOP('',(#1034,#1035,#1036,#1037,#1038,#1039));
#229=EDGE_LOOP('',(#1040,#1041,#1042,#1043,#1044,#1045));
#230=EDGE_LOOP('',(#1046,#1047,#1048,#1049));
#231=EDGE_LOOP('',(#1050,#1051,#1052,#1053));
#232=EDGE_LOOP('',(#1054,#1055,#1056,#1057,#1058));
#233=EDGE_LOOP('',(#1059,#1060,#1061,#1062,#1063));
#234=EDGE_LOOP('',(#1064,#1065,#1066,#1067,#1068,#1069,#1070,#1071));
#235=EDGE_LOOP('',(#1072,#1073,#1074,#1075));
#236=LINE('',#1641,#336);
#237=LINE('',#1648,#337);
#238=LINE('',#1655,#338);
#239=LINE('',#1662,#339);
#240=LINE('',#1669,#340);
#241=LINE('',#1676,#341);
#242=LINE('',#1683,#342);
#243=LINE('',#1691,#343);
#244=LINE('',#1696,#344);
#245=LINE('',#1703,#345);
#246=LINE('',#1710,#346);
#247=LINE('',#1712,#347);
#248=LINE('',#1714,#348);
#249=LINE('',#1715,#349);
#250=LINE('',#1718,#350);
#251=LINE('',#1720,#351);
#252=LINE('',#1721,#352);
#253=LINE('',#1724,#353);
#254=LINE('',#1726,#354);
#255=LINE('',#1731,#355);
#256=LINE('',#1732,#356);
#257=LINE('',#1735,#357);
#258=LINE('',#1737,#358);
#259=LINE('',#1738,#359);
#260=LINE('',#1743,#360);
#261=LINE('',#1744,#361);
#262=LINE('',#1793,#362);
#263=LINE('',#1797,#363);
#264=LINE('',#1801,#364);
#265=LINE('',#1805,#365);
#266=LINE('',#1849,#366);
#267=LINE('',#1853,#367);
#268=LINE('',#1856,#368);
#269=LINE('',#1894,#369);
#270=LINE('',#1899,#370);
#271=LINE('',#1902,#371);
#272=LINE('',#1940,#372);
#273=LINE('',#1948,#373);
#274=LINE('',#1953,#374);
#275=LINE('',#1957,#375);
#276=LINE('',#1960,#376);
#277=LINE('',#1962,#377);
#278=LINE('',#1963,#378);
#279=LINE('',#1966,#379);
#280=LINE('',#1968,#380);
#281=LINE('',#1973,#381);
#282=LINE('',#1974,#382);
#283=LINE('',#1978,#383);
#284=LINE('',#1980,#384);
#285=LINE('',#1981,#385);
#286=LINE('',#1983,#386);
#287=LINE('',#1985,#387);
#288=LINE('',#1994,#388);
#289=LINE('',#1999,#389);
#290=LINE('',#2002,#390);
#291=LINE('',#2003,#391);
#292=LINE('',#2006,#392);
#293=LINE('',#2007,#393);
#294=LINE('',#2013,#394);
#295=LINE('',#2015,#395);
#296=LINE('',#2017,#396);
#297=LINE('',#2019,#397);
#298=LINE('',#2021,#398);
#299=LINE('',#2023,#399);
#300=LINE('',#2024,#400);
#301=LINE('',#2027,#401);
#302=LINE('',#2028,#402);
#303=LINE('',#2033,#403);
#304=LINE('',#2037,#404);
#305=LINE('',#2041,#405);
#306=LINE('',#2046,#406);
#307=LINE('',#2047,#407);
#308=LINE('',#2049,#408);
#309=LINE('',#2050,#409);
#310=LINE('',#2053,#410);
#311=LINE('',#2054,#411);
#312=LINE('',#2059,#412);
#313=LINE('',#2063,#413);
#314=LINE('',#2067,#414);
#315=LINE('',#2072,#415);
#316=LINE('',#2074,#416);
#317=LINE('',#2076,#417);
#318=LINE('',#2078,#418);
#319=LINE('',#2079,#419);
#320=LINE('',#2082,#420);
#321=LINE('',#2083,#421);
#322=LINE('',#2085,#422);
#323=LINE('',#2086,#423);
#324=LINE('',#2088,#424);
#325=LINE('',#2090,#425);
#326=LINE('',#2091,#426);
#327=LINE('',#2094,#427);
#328=LINE('',#2095,#428);
#329=LINE('',#2098,#429);
#330=LINE('',#2100,#430);
#331=LINE('',#2101,#431);
#332=LINE('',#2103,#432);
#333=LINE('',#2104,#433);
#334=LINE('',#2106,#434);
#335=LINE('',#2110,#435);
#336=VECTOR('',#1302,2.3);
#337=VECTOR('',#1311,2.3);
#338=VECTOR('',#1320,2.3);
#339=VECTOR('',#1329,2.3);
#340=VECTOR('',#1338,2.3);
#341=VECTOR('',#1347,2.3);
#342=VECTOR('',#1356,18.65);
#343=VECTOR('',#1367,13.5);
#344=VECTOR('',#1372,11.1);
#345=VECTOR('',#1381,8.);
#346=VECTOR('',#1388,10.);
#347=VECTOR('',#1389,10.);
#348=VECTOR('',#1390,10.);
#349=VECTOR('',#1391,10.);
#350=VECTOR('',#1394,10.);
#351=VECTOR('',#1395,10.);
#352=VECTOR('',#1396,10.);
#353=VECTOR('',#1399,10.);
#354=VECTOR('',#1400,10.);
#355=VECTOR('',#1405,10.);
#356=VECTOR('',#1406,10.);
#357=VECTOR('',#1409,10.);
#358=VECTOR('',#1410,10.);
#359=VECTOR('',#1411,10.);
#360=VECTOR('',#1416,10.);
#361=VECTOR('',#1417,10.);
#362=VECTOR('',#1428,10.);
#363=VECTOR('',#1431,10.);
#364=VECTOR('',#1436,10.);
#365=VECTOR('',#1439,10.);
#366=VECTOR('',#1440,10.);
#367=VECTOR('',#1443,10.);
#368=VECTOR('',#1446,10.);
#369=VECTOR('',#1447,10.);
#370=VECTOR('',#1450,10.);
#371=VECTOR('',#1453,10.);
#372=VECTOR('',#1454,10.);
#373=VECTOR('',#1465,1.7);
#374=VECTOR('',#1472,1.7);
#375=VECTOR('',#1477,10.);
#376=VECTOR('',#1480,10.);
#377=VECTOR('',#1481,10.);
#378=VECTOR('',#1482,10.);
#379=VECTOR('',#1485,10.);
#380=VECTOR('',#1486,10.);
#381=VECTOR('',#1491,10.);
#382=VECTOR('',#1492,10.);
#383=VECTOR('',#1497,10.);
#384=VECTOR('',#1498,10.);
#385=VECTOR('',#1499,10.);
#386=VECTOR('',#1502,10.);
#387=VECTOR('',#1505,10.);
#388=VECTOR('',#1518,1.7);
#389=VECTOR('',#1525,1.7);
#390=VECTOR('',#1528,10.);
#391=VECTOR('',#1529,10.);
#392=VECTOR('',#1532,10.);
#393=VECTOR('',#1533,10.);
#394=VECTOR('',#1542,10.);
#395=VECTOR('',#1543,10.);
#396=VECTOR('',#1544,10.);
#397=VECTOR('',#1545,10.);
#398=VECTOR('',#1546,10.);
#399=VECTOR('',#1547,10.);
#400=VECTOR('',#1548,10.);
#401=VECTOR('',#1551,10.);
#402=VECTOR('',#1552,10.);
#403=VECTOR('',#1557,38.);
#404=VECTOR('',#1560,10.);
#405=VECTOR('',#1563,10.);
#406=VECTOR('',#1570,10.);
#407=VECTOR('',#1571,10.);
#408=VECTOR('',#1572,10.);
#409=VECTOR('',#1573,10.);
#410=VECTOR('',#1576,10.);
#411=VECTOR('',#1577,10.);
#412=VECTOR('',#1582,23.);
#413=VECTOR('',#1585,10.);
#414=VECTOR('',#1588,10.);
#415=VECTOR('',#1595,10.);
#416=VECTOR('',#1596,10.);
#417=VECTOR('',#1597,10.);
#418=VECTOR('',#1598,10.);
#419=VECTOR('',#1599,10.);
#420=VECTOR('',#1602,10.);
#421=VECTOR('',#1603,10.);
#422=VECTOR('',#1606,10.);
#423=VECTOR('',#1607,10.);
#424=VECTOR('',#1608,10.);
#425=VECTOR('',#1609,10.);
#426=VECTOR('',#1610,10.);
#427=VECTOR('',#1613,10.);
#428=VECTOR('',#1614,10.);
#429=VECTOR('',#1617,10.);
#430=VECTOR('',#1618,10.);
#431=VECTOR('',#1619,10.);
#432=VECTOR('',#1622,10.);
#433=VECTOR('',#1623,10.);
#434=VECTOR('',#1626,10.);
#435=VECTOR('',#1633,10.);
#436=CIRCLE('',#1178,2.3);
#437=CIRCLE('',#1179,2.3);
#438=CIRCLE('',#1182,2.3);
#439=CIRCLE('',#1183,2.3);
#440=CIRCLE('',#1186,2.3);
#441=CIRCLE('',#1187,2.3);
#442=CIRCLE('',#1190,2.3);
#443=CIRCLE('',#1191,2.3);
#444=CIRCLE('',#1194,2.3);
#445=CIRCLE('',#1195,2.3);
#446=CIRCLE('',#1198,2.3);
#447=CIRCLE('',#1199,2.3);
#448=CIRCLE('',#1202,18.65);
#449=CIRCLE('',#1203,18.65);
#450=CIRCLE('',#1205,13.5);
#451=CIRCLE('',#1207,13.5);
#452=CIRCLE('',#1209,11.1);
#453=CIRCLE('',#1210,11.1);
#454=CIRCLE('',#1212,8.);
#455=CIRCLE('',#1214,8.);
#456=CIRCLE('',#1216,1.7);
#457=CIRCLE('',#1219,1.7);
#458=CIRCLE('',#1220,1.7);
#459=CIRCLE('',#1223,1.7);
#460=CIRCLE('',#1225,15.);
#461=CIRCLE('',#1228,15.);
#462=CIRCLE('',#1229,4.175);
#463=CIRCLE('',#1230,15.);
#464=CIRCLE('',#1232,15.);
#465=CIRCLE('',#1233,15.);
#466=CIRCLE('',#1234,15.);
#467=CIRCLE('',#1235,15.);
#468=CIRCLE('',#1236,15.);
#469=CIRCLE('',#1238,3.25);
#470=CIRCLE('',#1239,1.7);
#471=CIRCLE('',#1242,1.7);
#472=CIRCLE('',#1244,1.7);
#473=CIRCLE('',#1246,1.7);
#474=CIRCLE('',#1249,1.7);
#475=CIRCLE('',#1250,1.7);
#476=CIRCLE('',#1252,1.7);
#477=CIRCLE('',#1257,3.25);
#478=CIRCLE('',#1258,1.7);
#479=CIRCLE('',#1261,1.7);
#480=CIRCLE('',#1263,1.7);
#481=CIRCLE('',#1267,4.175);
#482=CIRCLE('',#1272,38.);
#483=CIRCLE('',#1273,38.);
#484=CIRCLE('',#1274,38.);
#485=CIRCLE('',#1275,38.);
#486=CIRCLE('',#1280,23.);
#487=CIRCLE('',#1281,23.);
#488=CIRCLE('',#1282,23.);
#489=CIRCLE('',#1283,23.);
#490=VERTEX_POINT('',#1638);
#491=VERTEX_POINT('',#1640);
#492=VERTEX_POINT('',#1645);
#493=VERTEX_POINT('',#1647);
#494=VERTEX_POINT('',#1652);
#495=VERTEX_POINT('',#1654);
#496=VERTEX_POINT('',#1659);
#497=VERTEX_POINT('',#1661);
#498=VERTEX_POINT('',#1666);
#499=VERTEX_POINT('',#1668);
#500=VERTEX_POINT('',#1673);
#501=VERTEX_POINT('',#1675);
#502=VERTEX_POINT('',#1680);
#503=VERTEX_POINT('',#1682);
#504=VERTEX_POINT('',#1686);
#505=VERTEX_POINT('',#1689);
#506=VERTEX_POINT('',#1693);
#507=VERTEX_POINT('',#1695);
#508=VERTEX_POINT('',#1699);
#509=VERTEX_POINT('',#1702);
#510=VERTEX_POINT('',#1706);
#511=VERTEX_POINT('',#1707);
#512=VERTEX_POINT('',#1709);
#513=VERTEX_POINT('',#1711);
#514=VERTEX_POINT('',#1713);
#515=VERTEX_POINT('',#1717);
#516=VERTEX_POINT('',#1719);
#517=VERTEX_POINT('',#1723);
#518=VERTEX_POINT('',#1725);
#519=VERTEX_POINT('',#1727);
#520=VERTEX_POINT('',#1730);
#521=VERTEX_POINT('',#1734);
#522=VERTEX_POINT('',#1736);
#523=VERTEX_POINT('',#1740);
#524=VERTEX_POINT('',#1742);
#525=VERTEX_POINT('',#1748);
#526=VERTEX_POINT('',#1790);
#527=VERTEX_POINT('',#1792);
#528=VERTEX_POINT('',#1794);
#529=VERTEX_POINT('',#1796);
#530=VERTEX_POINT('',#1800);
#531=VERTEX_POINT('',#1802);
#532=VERTEX_POINT('',#1804);
#533=VERTEX_POINT('',#1806);
#534=VERTEX_POINT('',#1827);
#535=VERTEX_POINT('',#1848);
#536=VERTEX_POINT('',#1850);
#537=VERTEX_POINT('',#1852);
#538=VERTEX_POINT('',#1854);
#539=VERTEX_POINT('',#1857);
#540=VERTEX_POINT('',#1858);
#541=VERTEX_POINT('',#1895);
#542=VERTEX_POINT('',#1896);
#543=VERTEX_POINT('',#1898);
#544=VERTEX_POINT('',#1900);
#545=VERTEX_POINT('',#1903);
#546=VERTEX_POINT('',#1904);
#547=VERTEX_POINT('',#1943);
#548=VERTEX_POINT('',#1947);
#549=VERTEX_POINT('',#1951);
#550=VERTEX_POINT('',#1955);
#551=VERTEX_POINT('',#1959);
#552=VERTEX_POINT('',#1961);
#553=VERTEX_POINT('',#1965);
#554=VERTEX_POINT('',#1967);
#555=VERTEX_POINT('',#1969);
#556=VERTEX_POINT('',#1972);
#557=VERTEX_POINT('',#1977);
#558=VERTEX_POINT('',#1979);
#559=VERTEX_POINT('',#1989);
#560=VERTEX_POINT('',#1993);
#561=VERTEX_POINT('',#1997);
#562=VERTEX_POINT('',#2001);
#563=VERTEX_POINT('',#2005);
#564=VERTEX_POINT('',#2012);
#565=VERTEX_POINT('',#2014);
#566=VERTEX_POINT('',#2016);
#567=VERTEX_POINT('',#2018);
#568=VERTEX_POINT('',#2020);
#569=VERTEX_POINT('',#2022);
#570=VERTEX_POINT('',#2026);
#571=VERTEX_POINT('',#2030);
#572=VERTEX_POINT('',#2032);
#573=VERTEX_POINT('',#2034);
#574=VERTEX_POINT('',#2036);
#575=VERTEX_POINT('',#2038);
#576=VERTEX_POINT('',#2040);
#577=VERTEX_POINT('',#2045);
#578=VERTEX_POINT('',#2048);
#579=VERTEX_POINT('',#2052);
#580=VERTEX_POINT('',#2056);
#581=VERTEX_POINT('',#2058);
#582=VERTEX_POINT('',#2060);
#583=VERTEX_POINT('',#2062);
#584=VERTEX_POINT('',#2064);
#585=VERTEX_POINT('',#2066);
#586=VERTEX_POINT('',#2071);
#587=VERTEX_POINT('',#2073);
#588=VERTEX_POINT('',#2075);
#589=VERTEX_POINT('',#2077);
#590=VERTEX_POINT('',#2081);
#591=VERTEX_POINT('',#2087);
#592=VERTEX_POINT('',#2089);
#593=VERTEX_POINT('',#2093);
#594=VERTEX_POINT('',#2097);
#595=VERTEX_POINT('',#2099);
#596=EDGE_CURVE('',#490,#490,#436,.T.);
#597=EDGE_CURVE('',#490,#491,#236,.T.);
#598=EDGE_CURVE('',#491,#491,#437,.T.);
#599=EDGE_CURVE('',#492,#492,#438,.T.);
#600=EDGE_CURVE('',#492,#493,#237,.T.);
#601=EDGE_CURVE('',#493,#493,#439,.T.);
#602=EDGE_CURVE('',#494,#494,#440,.T.);
#603=EDGE_CURVE('',#494,#495,#238,.T.);
#604=EDGE_CURVE('',#495,#495,#441,.T.);
#605=EDGE_CURVE('',#496,#496,#442,.T.);
#606=EDGE_CURVE('',#496,#497,#239,.T.);
#607=EDGE_CURVE('',#497,#497,#443,.T.);
#608=EDGE_CURVE('',#498,#498,#444,.T.);
#609=EDGE_CURVE('',#498,#499,#240,.T.);
#610=EDGE_CURVE('',#499,#499,#445,.T.);
#611=EDGE_CURVE('',#500,#500,#446,.T.);
#612=EDGE_CURVE('',#500,#501,#241,.T.);
#613=EDGE_CURVE('',#501,#501,#447,.T.);
#614=EDGE_CURVE('',#502,#502,#448,.T.);
#615=EDGE_CURVE('',#502,#503,#242,.T.);
#616=EDGE_CURVE('',#503,#503,#449,.T.);
#617=EDGE_CURVE('',#504,#504,#450,.T.);
#618=EDGE_CURVE('',#505,#505,#451,.T.);
#619=EDGE_CURVE('',#505,#504,#243,.T.);
#620=EDGE_CURVE('',#506,#506,#452,.T.);
#621=EDGE_CURVE('',#506,#507,#244,.T.);
#622=EDGE_CURVE('',#507,#507,#453,.T.);
#623=EDGE_CURVE('',#508,#508,#454,.T.);
#624=EDGE_CURVE('',#508,#509,#245,.T.);
#625=EDGE_CURVE('',#509,#509,#455,.T.);
#626=EDGE_CURVE('',#510,#511,#456,.T.);
#627=EDGE_CURVE('',#512,#510,#246,.T.);
#628=EDGE_CURVE('',#513,#512,#247,.T.);
#629=EDGE_CURVE('',#514,#513,#248,.T.);
#630=EDGE_CURVE('',#511,#514,#249,.T.);
#631=EDGE_CURVE('',#513,#515,#250,.T.);
#632=EDGE_CURVE('',#512,#516,#251,.T.);
#633=EDGE_CURVE('',#516,#515,#252,.T.);
#634=EDGE_CURVE('',#515,#517,#253,.T.);
#635=EDGE_CURVE('',#518,#516,#254,.T.);
#636=EDGE_CURVE('',#519,#518,#457,.T.);
#637=EDGE_CURVE('',#518,#519,#458,.T.);
#638=EDGE_CURVE('',#520,#518,#255,.T.);
#639=EDGE_CURVE('',#517,#520,#256,.T.);
#640=EDGE_CURVE('',#517,#521,#257,.T.);
#641=EDGE_CURVE('',#522,#520,#258,.T.);
#642=EDGE_CURVE('',#521,#522,#259,.T.);
#643=EDGE_CURVE('',#523,#510,#459,.T.);
#644=EDGE_CURVE('',#524,#523,#260,.T.);
#645=EDGE_CURVE('',#510,#524,#261,.T.);
#646=EDGE_CURVE('',#522,#524,#460,.T.);
#647=EDGE_CURVE('',#525,#511,#15,.T.);
#648=EDGE_CURVE('',#523,#525,#16,.T.);
#649=EDGE_CURVE('',#521,#526,#461,.T.);
#650=EDGE_CURVE('',#526,#527,#262,.T.);
#651=EDGE_CURVE('',#527,#528,#462,.T.);
#652=EDGE_CURVE('',#528,#529,#263,.T.);
#653=EDGE_CURVE('',#529,#514,#463,.T.);
#654=EDGE_CURVE('',#529,#530,#264,.T.);
#655=EDGE_CURVE('',#531,#530,#464,.T.);
#656=EDGE_CURVE('',#531,#532,#265,.T.);
#657=EDGE_CURVE('',#532,#533,#17,.T.);
#658=EDGE_CURVE('',#533,#534,#18,.T.);
#659=EDGE_CURVE('',#534,#535,#266,.T.);
#660=EDGE_CURVE('',#535,#536,#465,.T.);
#661=EDGE_CURVE('',#536,#537,#267,.T.);
#662=EDGE_CURVE('',#538,#537,#466,.T.);
#663=EDGE_CURVE('',#538,#526,#268,.T.);
#664=EDGE_CURVE('',#539,#540,#19,.T.);
#665=EDGE_CURVE('',#540,#539,#269,.T.);
#666=EDGE_CURVE('',#541,#542,#467,.T.);
#667=EDGE_CURVE('',#543,#541,#270,.T.);
#668=EDGE_CURVE('',#544,#543,#468,.T.);
#669=EDGE_CURVE('',#542,#544,#271,.T.);
#670=EDGE_CURVE('',#545,#546,#20,.T.);
#671=EDGE_CURVE('',#546,#545,#272,.T.);
#672=EDGE_CURVE('',#545,#546,#469,.T.);
#673=EDGE_CURVE('',#547,#547,#470,.T.);
#674=EDGE_CURVE('',#547,#548,#273,.T.);
#675=EDGE_CURVE('',#548,#548,#471,.T.);
#676=EDGE_CURVE('',#549,#549,#472,.T.);
#677=EDGE_CURVE('',#549,#519,#274,.T.);
#678=EDGE_CURVE('',#550,#534,#473,.T.);
#679=EDGE_CURVE('',#535,#550,#275,.T.);
#680=EDGE_CURVE('',#536,#551,#276,.T.);
#681=EDGE_CURVE('',#551,#552,#277,.T.);
#682=EDGE_CURVE('',#537,#552,#278,.T.);
#683=EDGE_CURVE('',#552,#553,#279,.T.);
#684=EDGE_CURVE('',#554,#551,#280,.T.);
#685=EDGE_CURVE('',#555,#554,#474,.T.);
#686=EDGE_CURVE('',#554,#555,#475,.T.);
#687=EDGE_CURVE('',#556,#554,#281,.T.);
#688=EDGE_CURVE('',#553,#556,#282,.T.);
#689=EDGE_CURVE('',#532,#550,#476,.T.);
#690=EDGE_CURVE('',#557,#531,#283,.T.);
#691=EDGE_CURVE('',#558,#557,#284,.T.);
#692=EDGE_CURVE('',#550,#558,#285,.T.);
#693=EDGE_CURVE('',#558,#556,#286,.T.);
#694=EDGE_CURVE('',#553,#557,#287,.T.);
#695=EDGE_CURVE('',#539,#540,#477,.T.);
#696=EDGE_CURVE('',#559,#559,#478,.T.);
#697=EDGE_CURVE('',#559,#560,#288,.T.);
#698=EDGE_CURVE('',#560,#560,#479,.T.);
#699=EDGE_CURVE('',#561,#561,#480,.T.);
#700=EDGE_CURVE('',#561,#555,#289,.T.);
#701=EDGE_CURVE('',#562,#538,#290,.T.);
#702=EDGE_CURVE('',#527,#562,#291,.T.);
#703=EDGE_CURVE('',#563,#528,#292,.T.);
#704=EDGE_CURVE('',#530,#563,#293,.T.);
#705=EDGE_CURVE('',#563,#562,#481,.T.);
#706=EDGE_CURVE('',#564,#543,#294,.T.);
#707=EDGE_CURVE('',#565,#564,#295,.T.);
#708=EDGE_CURVE('',#565,#566,#296,.T.);
#709=EDGE_CURVE('',#566,#567,#297,.T.);
#710=EDGE_CURVE('',#567,#568,#298,.T.);
#711=EDGE_CURVE('',#569,#568,#299,.T.);
#712=EDGE_CURVE('',#544,#569,#300,.T.);
#713=EDGE_CURVE('',#541,#570,#301,.T.);
#714=EDGE_CURVE('',#570,#564,#302,.T.);
#715=EDGE_CURVE('',#571,#571,#482,.T.);
#716=EDGE_CURVE('',#571,#572,#303,.T.);
#717=EDGE_CURVE('',#573,#572,#483,.T.);
#718=EDGE_CURVE('',#574,#573,#304,.T.);
#719=EDGE_CURVE('',#575,#574,#484,.T.);
#720=EDGE_CURVE('',#576,#575,#305,.T.);
#721=EDGE_CURVE('',#572,#576,#485,.T.);
#722=EDGE_CURVE('',#575,#577,#306,.T.);
#723=EDGE_CURVE('',#577,#568,#307,.T.);
#724=EDGE_CURVE('',#567,#578,#308,.T.);
#725=EDGE_CURVE('',#578,#576,#309,.T.);
#726=EDGE_CURVE('',#579,#574,#310,.T.);
#727=EDGE_CURVE('',#577,#579,#311,.T.);
#728=EDGE_CURVE('',#580,#580,#486,.T.);
#729=EDGE_CURVE('',#580,#581,#312,.T.);
#730=EDGE_CURVE('',#582,#581,#487,.T.);
#731=EDGE_CURVE('',#583,#582,#313,.T.);
#732=EDGE_CURVE('',#584,#583,#488,.T.);
#733=EDGE_CURVE('',#585,#584,#314,.T.);
#734=EDGE_CURVE('',#581,#585,#489,.T.);
#735=EDGE_CURVE('',#584,#586,#315,.T.);
#736=EDGE_CURVE('',#586,#587,#316,.T.);
#737=EDGE_CURVE('',#588,#587,#317,.T.);
#738=EDGE_CURVE('',#588,#589,#318,.T.);
#739=EDGE_CURVE('',#589,#585,#319,.T.);
#740=EDGE_CURVE('',#590,#583,#320,.T.);
#741=EDGE_CURVE('',#586,#590,#321,.T.);
#742=EDGE_CURVE('',#565,#579,#322,.T.);
#743=EDGE_CURVE('',#587,#570,#323,.T.);
#744=EDGE_CURVE('',#591,#590,#324,.T.);
#745=EDGE_CURVE('',#592,#591,#325,.T.);
#746=EDGE_CURVE('',#569,#592,#326,.T.);
#747=EDGE_CURVE('',#573,#593,#327,.T.);
#748=EDGE_CURVE('',#593,#566,#328,.T.);
#749=EDGE_CURVE('',#582,#594,#329,.T.);
#750=EDGE_CURVE('',#594,#595,#330,.T.);
#751=EDGE_CURVE('',#591,#595,#331,.T.);
#752=EDGE_CURVE('',#595,#588,#332,.T.);
#753=EDGE_CURVE('',#594,#589,#333,.T.);
#754=EDGE_CURVE('',#578,#593,#334,.T.);
#755=EDGE_CURVE('',#592,#542,#335,.T.);
#756=ORIENTED_EDGE('',*,*,#596,.T.);
#757=ORIENTED_EDGE('',*,*,#597,.T.);
#758=ORIENTED_EDGE('',*,*,#598,.F.);
#759=ORIENTED_EDGE('',*,*,#597,.F.);
#760=ORIENTED_EDGE('',*,*,#596,.F.);
#761=ORIENTED_EDGE('',*,*,#599,.T.);
#762=ORIENTED_EDGE('',*,*,#600,.T.);
#763=ORIENTED_EDGE('',*,*,#601,.F.);
#764=ORIENTED_EDGE('',*,*,#600,.F.);
#765=ORIENTED_EDGE('',*,*,#599,.F.);
#766=ORIENTED_EDGE('',*,*,#602,.T.);
#767=ORIENTED_EDGE('',*,*,#603,.T.);
#768=ORIENTED_EDGE('',*,*,#604,.F.);
#769=ORIENTED_EDGE('',*,*,#603,.F.);
#770=ORIENTED_EDGE('',*,*,#602,.F.);
#771=ORIENTED_EDGE('',*,*,#605,.T.);
#772=ORIENTED_EDGE('',*,*,#606,.T.);
#773=ORIENTED_EDGE('',*,*,#607,.F.);
#774=ORIENTED_EDGE('',*,*,#606,.F.);
#775=ORIENTED_EDGE('',*,*,#605,.F.);
#776=ORIENTED_EDGE('',*,*,#608,.T.);
#777=ORIENTED_EDGE('',*,*,#609,.T.);
#778=ORIENTED_EDGE('',*,*,#610,.F.);
#779=ORIENTED_EDGE('',*,*,#609,.F.);
#780=ORIENTED_EDGE('',*,*,#608,.F.);
#781=ORIENTED_EDGE('',*,*,#611,.T.);
#782=ORIENTED_EDGE('',*,*,#612,.T.);
#783=ORIENTED_EDGE('',*,*,#613,.F.);
#784=ORIENTED_EDGE('',*,*,#612,.F.);
#785=ORIENTED_EDGE('',*,*,#611,.F.);
#786=ORIENTED_EDGE('',*,*,#614,.T.);
#787=ORIENTED_EDGE('',*,*,#615,.T.);
#788=ORIENTED_EDGE('',*,*,#616,.F.);
#789=ORIENTED_EDGE('',*,*,#615,.F.);
#790=ORIENTED_EDGE('',*,*,#614,.F.);
#791=ORIENTED_EDGE('',*,*,#617,.F.);
#792=ORIENTED_EDGE('',*,*,#618,.F.);
#793=ORIENTED_EDGE('',*,*,#619,.T.);
#794=ORIENTED_EDGE('',*,*,#617,.T.);
#795=ORIENTED_EDGE('',*,*,#619,.F.);
#796=ORIENTED_EDGE('',*,*,#620,.F.);
#797=ORIENTED_EDGE('',*,*,#621,.T.);
#798=ORIENTED_EDGE('',*,*,#622,.T.);
#799=ORIENTED_EDGE('',*,*,#621,.F.);
#800=ORIENTED_EDGE('',*,*,#622,.F.);
#801=ORIENTED_EDGE('',*,*,#623,.F.);
#802=ORIENTED_EDGE('',*,*,#623,.T.);
#803=ORIENTED_EDGE('',*,*,#624,.T.);
#804=ORIENTED_EDGE('',*,*,#625,.F.);
#805=ORIENTED_EDGE('',*,*,#624,.F.);
#806=ORIENTED_EDGE('',*,*,#626,.F.);
#807=ORIENTED_EDGE('',*,*,#627,.F.);
#808=ORIENTED_EDGE('',*,*,#628,.F.);
#809=ORIENTED_EDGE('',*,*,#629,.F.);
#810=ORIENTED_EDGE('',*,*,#630,.F.);
#811=ORIENTED_EDGE('',*,*,#631,.F.);
#812=ORIENTED_EDGE('',*,*,#628,.T.);
#813=ORIENTED_EDGE('',*,*,#632,.T.);
#814=ORIENTED_EDGE('',*,*,#633,.T.);
#815=ORIENTED_EDGE('',*,*,#634,.F.);
#816=ORIENTED_EDGE('',*,*,#633,.F.);
#817=ORIENTED_EDGE('',*,*,#635,.F.);
#818=ORIENTED_EDGE('',*,*,#636,.F.);
#819=ORIENTED_EDGE('',*,*,#637,.F.);
#820=ORIENTED_EDGE('',*,*,#638,.F.);
#821=ORIENTED_EDGE('',*,*,#639,.F.);
#822=ORIENTED_EDGE('',*,*,#640,.F.);
#823=ORIENTED_EDGE('',*,*,#639,.T.);
#824=ORIENTED_EDGE('',*,*,#641,.F.);
#825=ORIENTED_EDGE('',*,*,#642,.F.);
#826=ORIENTED_EDGE('',*,*,#643,.F.);
#827=ORIENTED_EDGE('',*,*,#644,.F.);
#828=ORIENTED_EDGE('',*,*,#645,.F.);
#829=ORIENTED_EDGE('',*,*,#645,.T.);
#830=ORIENTED_EDGE('',*,*,#646,.F.);
#831=ORIENTED_EDGE('',*,*,#641,.T.);
#832=ORIENTED_EDGE('',*,*,#638,.T.);
#833=ORIENTED_EDGE('',*,*,#635,.T.);
#834=ORIENTED_EDGE('',*,*,#632,.F.);
#835=ORIENTED_EDGE('',*,*,#627,.T.);
#836=ORIENTED_EDGE('',*,*,#626,.T.);
#837=ORIENTED_EDGE('',*,*,#647,.F.);
#838=ORIENTED_EDGE('',*,*,#648,.F.);
#839=ORIENTED_EDGE('',*,*,#643,.T.);
#840=ORIENTED_EDGE('',*,*,#629,.T.);
#841=ORIENTED_EDGE('',*,*,#631,.T.);
#842=ORIENTED_EDGE('',*,*,#634,.T.);
#843=ORIENTED_EDGE('',*,*,#640,.T.);
#844=ORIENTED_EDGE('',*,*,#649,.T.);
#845=ORIENTED_EDGE('',*,*,#650,.T.);
#846=ORIENTED_EDGE('',*,*,#651,.T.);
#847=ORIENTED_EDGE('',*,*,#652,.T.);
#848=ORIENTED_EDGE('',*,*,#653,.T.);
#849=ORIENTED_EDGE('',*,*,#630,.T.);
#850=ORIENTED_EDGE('',*,*,#653,.F.);
#851=ORIENTED_EDGE('',*,*,#654,.T.);
#852=ORIENTED_EDGE('',*,*,#655,.F.);
#853=ORIENTED_EDGE('',*,*,#656,.T.);
#854=ORIENTED_EDGE('',*,*,#657,.T.);
#855=ORIENTED_EDGE('',*,*,#658,.T.);
#856=ORIENTED_EDGE('',*,*,#659,.T.);
#857=ORIENTED_EDGE('',*,*,#660,.T.);
#858=ORIENTED_EDGE('',*,*,#661,.T.);
#859=ORIENTED_EDGE('',*,*,#662,.F.);
#860=ORIENTED_EDGE('',*,*,#663,.T.);
#861=ORIENTED_EDGE('',*,*,#649,.F.);
#862=ORIENTED_EDGE('',*,*,#642,.T.);
#863=ORIENTED_EDGE('',*,*,#646,.T.);
#864=ORIENTED_EDGE('',*,*,#644,.T.);
#865=ORIENTED_EDGE('',*,*,#648,.T.);
#866=ORIENTED_EDGE('',*,*,#647,.T.);
#867=ORIENTED_EDGE('',*,*,#664,.T.);
#868=ORIENTED_EDGE('',*,*,#665,.T.);
#869=ORIENTED_EDGE('',*,*,#666,.F.);
#870=ORIENTED_EDGE('',*,*,#667,.F.);
#871=ORIENTED_EDGE('',*,*,#668,.F.);
#872=ORIENTED_EDGE('',*,*,#669,.F.);
#873=ORIENTED_EDGE('',*,*,#670,.T.);
#874=ORIENTED_EDGE('',*,*,#671,.T.);
#875=ORIENTED_EDGE('',*,*,#671,.F.);
#876=ORIENTED_EDGE('',*,*,#672,.F.);
#877=ORIENTED_EDGE('',*,*,#673,.F.);
#878=ORIENTED_EDGE('',*,*,#670,.F.);
#879=ORIENTED_EDGE('',*,*,#672,.T.);
#880=ORIENTED_EDGE('',*,*,#673,.T.);
#881=ORIENTED_EDGE('',*,*,#674,.T.);
#882=ORIENTED_EDGE('',*,*,#675,.F.);
#883=ORIENTED_EDGE('',*,*,#674,.F.);
#884=ORIENTED_EDGE('',*,*,#676,.F.);
#885=ORIENTED_EDGE('',*,*,#677,.T.);
#886=ORIENTED_EDGE('',*,*,#636,.T.);
#887=ORIENTED_EDGE('',*,*,#637,.T.);
#888=ORIENTED_EDGE('',*,*,#677,.F.);
#889=ORIENTED_EDGE('',*,*,#678,.F.);
#890=ORIENTED_EDGE('',*,*,#679,.F.);
#891=ORIENTED_EDGE('',*,*,#659,.F.);
#892=ORIENTED_EDGE('',*,*,#661,.F.);
#893=ORIENTED_EDGE('',*,*,#680,.T.);
#894=ORIENTED_EDGE('',*,*,#681,.T.);
#895=ORIENTED_EDGE('',*,*,#682,.F.);
#896=ORIENTED_EDGE('',*,*,#683,.F.);
#897=ORIENTED_EDGE('',*,*,#681,.F.);
#898=ORIENTED_EDGE('',*,*,#684,.F.);
#899=ORIENTED_EDGE('',*,*,#685,.F.);
#900=ORIENTED_EDGE('',*,*,#686,.F.);
#901=ORIENTED_EDGE('',*,*,#687,.F.);
#902=ORIENTED_EDGE('',*,*,#688,.F.);
#903=ORIENTED_EDGE('',*,*,#689,.F.);
#904=ORIENTED_EDGE('',*,*,#656,.F.);
#905=ORIENTED_EDGE('',*,*,#690,.F.);
#906=ORIENTED_EDGE('',*,*,#691,.F.);
#907=ORIENTED_EDGE('',*,*,#692,.F.);
#908=ORIENTED_EDGE('',*,*,#692,.T.);
#909=ORIENTED_EDGE('',*,*,#693,.T.);
#910=ORIENTED_EDGE('',*,*,#687,.T.);
#911=ORIENTED_EDGE('',*,*,#684,.T.);
#912=ORIENTED_EDGE('',*,*,#680,.F.);
#913=ORIENTED_EDGE('',*,*,#660,.F.);
#914=ORIENTED_EDGE('',*,*,#679,.T.);
#915=ORIENTED_EDGE('',*,*,#694,.F.);
#916=ORIENTED_EDGE('',*,*,#688,.T.);
#917=ORIENTED_EDGE('',*,*,#693,.F.);
#918=ORIENTED_EDGE('',*,*,#691,.T.);
#919=ORIENTED_EDGE('',*,*,#678,.T.);
#920=ORIENTED_EDGE('',*,*,#658,.F.);
#921=ORIENTED_EDGE('',*,*,#657,.F.);
#922=ORIENTED_EDGE('',*,*,#689,.T.);
#923=ORIENTED_EDGE('',*,*,#665,.F.);
#924=ORIENTED_EDGE('',*,*,#695,.F.);
#925=ORIENTED_EDGE('',*,*,#696,.F.);
#926=ORIENTED_EDGE('',*,*,#664,.F.);
#927=ORIENTED_EDGE('',*,*,#695,.T.);
#928=ORIENTED_EDGE('',*,*,#696,.T.);
#929=ORIENTED_EDGE('',*,*,#697,.T.);
#930=ORIENTED_EDGE('',*,*,#698,.F.);
#931=ORIENTED_EDGE('',*,*,#697,.F.);
#932=ORIENTED_EDGE('',*,*,#699,.F.);
#933=ORIENTED_EDGE('',*,*,#700,.T.);
#934=ORIENTED_EDGE('',*,*,#685,.T.);
#935=ORIENTED_EDGE('',*,*,#686,.T.);
#936=ORIENTED_EDGE('',*,*,#700,.F.);
#937=ORIENTED_EDGE('',*,*,#663,.F.);
#938=ORIENTED_EDGE('',*,*,#701,.F.);
#939=ORIENTED_EDGE('',*,*,#702,.F.);
#940=ORIENTED_EDGE('',*,*,#650,.F.);
#941=ORIENTED_EDGE('',*,*,#676,.T.);
#942=ORIENTED_EDGE('',*,*,#699,.T.);
#943=ORIENTED_EDGE('',*,*,#654,.F.);
#944=ORIENTED_EDGE('',*,*,#652,.F.);
#945=ORIENTED_EDGE('',*,*,#703,.F.);
#946=ORIENTED_EDGE('',*,*,#704,.F.);
#947=ORIENTED_EDGE('',*,*,#675,.T.);
#948=ORIENTED_EDGE('',*,*,#698,.T.);
#949=ORIENTED_EDGE('',*,*,#690,.T.);
#950=ORIENTED_EDGE('',*,*,#655,.T.);
#951=ORIENTED_EDGE('',*,*,#704,.T.);
#952=ORIENTED_EDGE('',*,*,#705,.T.);
#953=ORIENTED_EDGE('',*,*,#701,.T.);
#954=ORIENTED_EDGE('',*,*,#662,.T.);
#955=ORIENTED_EDGE('',*,*,#682,.T.);
#956=ORIENTED_EDGE('',*,*,#683,.T.);
#957=ORIENTED_EDGE('',*,*,#694,.T.);
#958=ORIENTED_EDGE('',*,*,#702,.T.);
#959=ORIENTED_EDGE('',*,*,#705,.F.);
#960=ORIENTED_EDGE('',*,*,#703,.T.);
#961=ORIENTED_EDGE('',*,*,#651,.F.);
#962=ORIENTED_EDGE('',*,*,#668,.T.);
#963=ORIENTED_EDGE('',*,*,#706,.F.);
#964=ORIENTED_EDGE('',*,*,#707,.F.);
#965=ORIENTED_EDGE('',*,*,#708,.T.);
#966=ORIENTED_EDGE('',*,*,#709,.T.);
#967=ORIENTED_EDGE('',*,*,#710,.T.);
#968=ORIENTED_EDGE('',*,*,#711,.F.);
#969=ORIENTED_EDGE('',*,*,#712,.F.);
#970=ORIENTED_EDGE('',*,*,#667,.T.);
#971=ORIENTED_EDGE('',*,*,#713,.T.);
#972=ORIENTED_EDGE('',*,*,#714,.T.);
#973=ORIENTED_EDGE('',*,*,#706,.T.);
#974=ORIENTED_EDGE('',*,*,#715,.F.);
#975=ORIENTED_EDGE('',*,*,#716,.T.);
#976=ORIENTED_EDGE('',*,*,#717,.F.);
#977=ORIENTED_EDGE('',*,*,#718,.F.);
#978=ORIENTED_EDGE('',*,*,#719,.F.);
#979=ORIENTED_EDGE('',*,*,#720,.F.);
#980=ORIENTED_EDGE('',*,*,#721,.F.);
#981=ORIENTED_EDGE('',*,*,#716,.F.);
#982=ORIENTED_EDGE('',*,*,#715,.T.);
#983=ORIENTED_EDGE('',*,*,#616,.T.);
#984=ORIENTED_EDGE('',*,*,#720,.T.);
#985=ORIENTED_EDGE('',*,*,#722,.T.);
#986=ORIENTED_EDGE('',*,*,#723,.T.);
#987=ORIENTED_EDGE('',*,*,#710,.F.);
#988=ORIENTED_EDGE('',*,*,#724,.T.);
#989=ORIENTED_EDGE('',*,*,#725,.T.);
#990=ORIENTED_EDGE('',*,*,#726,.F.);
#991=ORIENTED_EDGE('',*,*,#727,.F.);
#992=ORIENTED_EDGE('',*,*,#722,.F.);
#993=ORIENTED_EDGE('',*,*,#719,.T.);
#994=ORIENTED_EDGE('',*,*,#598,.T.);
#995=ORIENTED_EDGE('',*,*,#601,.T.);
#996=ORIENTED_EDGE('',*,*,#604,.T.);
#997=ORIENTED_EDGE('',*,*,#607,.T.);
#998=ORIENTED_EDGE('',*,*,#610,.T.);
#999=ORIENTED_EDGE('',*,*,#613,.T.);
#1000=ORIENTED_EDGE('',*,*,#618,.T.);
#1001=ORIENTED_EDGE('',*,*,#728,.F.);
#1002=ORIENTED_EDGE('',*,*,#729,.T.);
#1003=ORIENTED_EDGE('',*,*,#730,.F.);
#1004=ORIENTED_EDGE('',*,*,#731,.F.);
#1005=ORIENTED_EDGE('',*,*,#732,.F.);
#1006=ORIENTED_EDGE('',*,*,#733,.F.);
#1007=ORIENTED_EDGE('',*,*,#734,.F.);
#1008=ORIENTED_EDGE('',*,*,#729,.F.);
#1009=ORIENTED_EDGE('',*,*,#728,.T.);
#1010=ORIENTED_EDGE('',*,*,#625,.T.);
#1011=ORIENTED_EDGE('',*,*,#733,.T.);
#1012=ORIENTED_EDGE('',*,*,#735,.T.);
#1013=ORIENTED_EDGE('',*,*,#736,.T.);
#1014=ORIENTED_EDGE('',*,*,#737,.F.);
#1015=ORIENTED_EDGE('',*,*,#738,.T.);
#1016=ORIENTED_EDGE('',*,*,#739,.T.);
#1017=ORIENTED_EDGE('',*,*,#740,.F.);
#1018=ORIENTED_EDGE('',*,*,#741,.F.);
#1019=ORIENTED_EDGE('',*,*,#735,.F.);
#1020=ORIENTED_EDGE('',*,*,#732,.T.);
#1021=ORIENTED_EDGE('',*,*,#620,.T.);
#1022=ORIENTED_EDGE('',*,*,#727,.T.);
#1023=ORIENTED_EDGE('',*,*,#742,.F.);
#1024=ORIENTED_EDGE('',*,*,#707,.T.);
#1025=ORIENTED_EDGE('',*,*,#714,.F.);
#1026=ORIENTED_EDGE('',*,*,#743,.F.);
#1027=ORIENTED_EDGE('',*,*,#736,.F.);
#1028=ORIENTED_EDGE('',*,*,#741,.T.);
#1029=ORIENTED_EDGE('',*,*,#744,.F.);
#1030=ORIENTED_EDGE('',*,*,#745,.F.);
#1031=ORIENTED_EDGE('',*,*,#746,.F.);
#1032=ORIENTED_EDGE('',*,*,#711,.T.);
#1033=ORIENTED_EDGE('',*,*,#723,.F.);
#1034=ORIENTED_EDGE('',*,*,#718,.T.);
#1035=ORIENTED_EDGE('',*,*,#747,.T.);
#1036=ORIENTED_EDGE('',*,*,#748,.T.);
#1037=ORIENTED_EDGE('',*,*,#708,.F.);
#1038=ORIENTED_EDGE('',*,*,#742,.T.);
#1039=ORIENTED_EDGE('',*,*,#726,.T.);
#1040=ORIENTED_EDGE('',*,*,#731,.T.);
#1041=ORIENTED_EDGE('',*,*,#749,.T.);
#1042=ORIENTED_EDGE('',*,*,#750,.T.);
#1043=ORIENTED_EDGE('',*,*,#751,.F.);
#1044=ORIENTED_EDGE('',*,*,#744,.T.);
#1045=ORIENTED_EDGE('',*,*,#740,.T.);
#1046=ORIENTED_EDGE('',*,*,#738,.F.);
#1047=ORIENTED_EDGE('',*,*,#752,.F.);
#1048=ORIENTED_EDGE('',*,*,#750,.F.);
#1049=ORIENTED_EDGE('',*,*,#753,.T.);
#1050=ORIENTED_EDGE('',*,*,#724,.F.);
#1051=ORIENTED_EDGE('',*,*,#709,.F.);
#1052=ORIENTED_EDGE('',*,*,#748,.F.);
#1053=ORIENTED_EDGE('',*,*,#754,.F.);
#1054=ORIENTED_EDGE('',*,*,#717,.T.);
#1055=ORIENTED_EDGE('',*,*,#721,.T.);
#1056=ORIENTED_EDGE('',*,*,#725,.F.);
#1057=ORIENTED_EDGE('',*,*,#754,.T.);
#1058=ORIENTED_EDGE('',*,*,#747,.F.);
#1059=ORIENTED_EDGE('',*,*,#730,.T.);
#1060=ORIENTED_EDGE('',*,*,#734,.T.);
#1061=ORIENTED_EDGE('',*,*,#739,.F.);
#1062=ORIENTED_EDGE('',*,*,#753,.F.);
#1063=ORIENTED_EDGE('',*,*,#749,.F.);
#1064=ORIENTED_EDGE('',*,*,#666,.T.);
#1065=ORIENTED_EDGE('',*,*,#755,.F.);
#1066=ORIENTED_EDGE('',*,*,#745,.T.);
#1067=ORIENTED_EDGE('',*,*,#751,.T.);
#1068=ORIENTED_EDGE('',*,*,#752,.T.);
#1069=ORIENTED_EDGE('',*,*,#737,.T.);
#1070=ORIENTED_EDGE('',*,*,#743,.T.);
#1071=ORIENTED_EDGE('',*,*,#713,.F.);
#1072=ORIENTED_EDGE('',*,*,#669,.T.);
#1073=ORIENTED_EDGE('',*,*,#712,.T.);
#1074=ORIENTED_EDGE('',*,*,#746,.T.);
#1075=ORIENTED_EDGE('',*,*,#755,.T.);
#1076=CYLINDRICAL_SURFACE('',#1177,2.3);
#1077=CYLINDRICAL_SURFACE('',#1181,2.3);
#1078=CYLINDRICAL_SURFACE('',#1185,2.3);
#1079=CYLINDRICAL_SURFACE('',#1189,2.3);
#1080=CYLINDRICAL_SURFACE('',#1193,2.3);
#1081=CYLINDRICAL_SURFACE('',#1197,2.3);
#1082=CYLINDRICAL_SURFACE('',#1201,18.65);
#1083=CYLINDRICAL_SURFACE('',#1206,13.5);
#1084=CYLINDRICAL_SURFACE('',#1208,11.1);
#1085=CYLINDRICAL_SURFACE('',#1213,8.);
#1086=CYLINDRICAL_SURFACE('',#1226,1.7);
#1087=CYLINDRICAL_SURFACE('',#1231,15.);
#1088=CYLINDRICAL_SURFACE('',#1240,3.25);
#1089=CYLINDRICAL_SURFACE('',#1241,1.7);
#1090=CYLINDRICAL_SURFACE('',#1243,1.7);
#1091=CYLINDRICAL_SURFACE('',#1255,1.7);
#1092=CYLINDRICAL_SURFACE('',#1259,3.25);
#1093=CYLINDRICAL_SURFACE('',#1260,1.7);
#1094=CYLINDRICAL_SURFACE('',#1262,1.7);
#1095=CYLINDRICAL_SURFACE('',#1268,4.175);
#1096=CYLINDRICAL_SURFACE('',#1271,38.);
#1097=CYLINDRICAL_SURFACE('',#1279,23.);
#1098=ADVANCED_FACE('',(#85),#1076,.F.);
#1099=ADVANCED_FACE('',(#86),#42,.F.);
#1100=ADVANCED_FACE('',(#87),#1077,.F.);
#1101=ADVANCED_FACE('',(#88),#43,.F.);
#1102=ADVANCED_FACE('',(#89),#1078,.F.);
#1103=ADVANCED_FACE('',(#90),#44,.F.);
#1104=ADVANCED_FACE('',(#91),#1079,.F.);
#1105=ADVANCED_FACE('',(#92),#45,.F.);
#1106=ADVANCED_FACE('',(#93),#1080,.F.);
#1107=ADVANCED_FACE('',(#94),#46,.F.);
#1108=ADVANCED_FACE('',(#95),#1081,.F.);
#1109=ADVANCED_FACE('',(#96),#47,.F.);
#1110=ADVANCED_FACE('',(#97),#1082,.F.);
#1111=ADVANCED_FACE('',(#98,#21),#48,.F.);
#1112=ADVANCED_FACE('',(#99),#1083,.F.);
#1113=ADVANCED_FACE('',(#100),#1084,.F.);
#1114=ADVANCED_FACE('',(#101,#22),#49,.F.);
#1115=ADVANCED_FACE('',(#102),#1085,.F.);
#1116=ADVANCED_FACE('',(#103),#50,.F.);
#1117=ADVANCED_FACE('',(#104),#51,.T.);
#1118=ADVANCED_FACE('',(#105),#52,.T.);
#1119=ADVANCED_FACE('',(#106),#53,.T.);
#1120=ADVANCED_FACE('',(#107),#54,.F.);
#1121=ADVANCED_FACE('',(#108),#55,.T.);
#1122=ADVANCED_FACE('',(#109),#1086,.F.);
#1123=ADVANCED_FACE('',(#110),#56,.T.);
#1124=ADVANCED_FACE('',(#111,#23,#24,#25),#1087,.T.);
#1125=ADVANCED_FACE('',(#112,#26),#57,.F.);
#1126=ADVANCED_FACE('',(#113),#1088,.F.);
#1127=ADVANCED_FACE('',(#114),#1089,.F.);
#1128=ADVANCED_FACE('',(#115),#1090,.F.);
#1129=ADVANCED_FACE('',(#116),#58,.F.);
#1130=ADVANCED_FACE('',(#117),#59,.T.);
#1131=ADVANCED_FACE('',(#118),#60,.T.);
#1132=ADVANCED_FACE('',(#119),#61,.F.);
#1133=ADVANCED_FACE('',(#120),#62,.T.);
#1134=ADVANCED_FACE('',(#121),#63,.T.);
#1135=ADVANCED_FACE('',(#122),#1091,.F.);
#1136=ADVANCED_FACE('',(#123,#27),#64,.F.);
#1137=ADVANCED_FACE('',(#124),#1092,.F.);
#1138=ADVANCED_FACE('',(#125),#1093,.F.);
#1139=ADVANCED_FACE('',(#126),#1094,.F.);
#1140=ADVANCED_FACE('',(#127,#28,#29),#65,.F.);
#1141=ADVANCED_FACE('',(#128,#30,#31),#66,.T.);
#1142=ADVANCED_FACE('',(#129),#67,.T.);
#1143=ADVANCED_FACE('',(#130),#1095,.F.);
#1144=ADVANCED_FACE('',(#131),#68,.F.);
#1145=ADVANCED_FACE('',(#132),#69,.F.);
#1146=ADVANCED_FACE('',(#133),#1096,.T.);
#1147=ADVANCED_FACE('',(#134,#32),#70,.T.);
#1148=ADVANCED_FACE('',(#135),#71,.T.);
#1149=ADVANCED_FACE('',(#136,#33,#34,#35,#36,#37,#38,#39),#72,.F.);
#1150=ADVANCED_FACE('',(#137),#1097,.T.);
#1151=ADVANCED_FACE('',(#138,#40),#73,.T.);
#1152=ADVANCED_FACE('',(#139),#74,.F.);
#1153=ADVANCED_FACE('',(#140,#41),#75,.F.);
#1154=ADVANCED_FACE('',(#141),#76,.F.);
#1155=ADVANCED_FACE('',(#142),#77,.F.);
#1156=ADVANCED_FACE('',(#143),#78,.T.);
#1157=ADVANCED_FACE('',(#144),#79,.F.);
#1158=ADVANCED_FACE('',(#145),#80,.F.);
#1159=ADVANCED_FACE('',(#146),#81,.F.);
#1160=ADVANCED_FACE('',(#147),#82,.F.);
#1161=ADVANCED_FACE('',(#148),#83,.F.);
#1162=ADVANCED_FACE('',(#149),#84,.T.);
#1163=CLOSED_SHELL('',(#1098,#1099,#1100,#1101,#1102,#1103,#1104,#1105,
#1106,#1107,#1108,#1109,#1110,#1111,#1112,#1113,#1114,#1115,#1116,#1117,
#1118,#1119,#1120,#1121,#1122,#1123,#1124,#1125,#1126,#1127,#1128,#1129,
#1130,#1131,#1132,#1133,#1134,#1135,#1136,#1137,#1138,#1139,#1140,#1141,
#1142,#1143,#1144,#1145,#1146,#1147,#1148,#1149,#1150,#1151,#1152,#1153,
#1154,#1155,#1156,#1157,#1158,#1159,#1160,#1161,#1162));
#1164=DERIVED_UNIT_ELEMENT(#1166,1.);
#1165=DERIVED_UNIT_ELEMENT(#2117,-3.);
#1166=(
MASS_UNIT()
NAMED_UNIT(*)
SI_UNIT(.KILO.,.GRAM.)
);
#1167=DERIVED_UNIT((#1164,#1165));
#1168=MEASURE_REPRESENTATION_ITEM('density measure',
POSITIVE_RATIO_MEASURE(7850.),#1167);
#1169=PROPERTY_DEFINITION_REPRESENTATION(#1174,#1171);
#1170=PROPERTY_DEFINITION_REPRESENTATION(#1175,#1172);
#1171=REPRESENTATION('material name',(#1173),#2114);
#1172=REPRESENTATION('density',(#1168),#2114);
#1173=DESCRIPTIVE_REPRESENTATION_ITEM('Steel','Steel');
#1174=PROPERTY_DEFINITION('material property','material name',#2124);
#1175=PROPERTY_DEFINITION('material property','density of part',#2124);
#1176=AXIS2_PLACEMENT_3D('',#1636,#1296,#1297);
#1177=AXIS2_PLACEMENT_3D('',#1637,#1298,#1299);
#1178=AXIS2_PLACEMENT_3D('',#1639,#1300,#1301);
#1179=AXIS2_PLACEMENT_3D('',#1642,#1303,#1304);
#1180=AXIS2_PLACEMENT_3D('',#1643,#1305,#1306);
#1181=AXIS2_PLACEMENT_3D('',#1644,#1307,#1308);
#1182=AXIS2_PLACEMENT_3D('',#1646,#1309,#1310);
#1183=AXIS2_PLACEMENT_3D('',#1649,#1312,#1313);
#1184=AXIS2_PLACEMENT_3D('',#1650,#1314,#1315);
#1185=AXIS2_PLACEMENT_3D('',#1651,#1316,#1317);
#1186=AXIS2_PLACEMENT_3D('',#1653,#1318,#1319);
#1187=AXIS2_PLACEMENT_3D('',#1656,#1321,#1322);
#1188=AXIS2_PLACEMENT_3D('',#1657,#1323,#1324);
#1189=AXIS2_PLACEMENT_3D('',#1658,#1325,#1326);
#1190=AXIS2_PLACEMENT_3D('',#1660,#1327,#1328);
#1191=AXIS2_PLACEMENT_3D('',#1663,#1330,#1331);
#1192=AXIS2_PLACEMENT_3D('',#1664,#1332,#1333);
#1193=AXIS2_PLACEMENT_3D('',#1665,#1334,#1335);
#1194=AXIS2_PLACEMENT_3D('',#1667,#1336,#1337);
#1195=AXIS2_PLACEMENT_3D('',#1670,#1339,#1340);
#1196=AXIS2_PLACEMENT_3D('',#1671,#1341,#1342);
#1197=AXIS2_PLACEMENT_3D('',#1672,#1343,#1344);
#1198=AXIS2_PLACEMENT_3D('',#1674,#1345,#1346);
#1199=AXIS2_PLACEMENT_3D('',#1677,#1348,#1349);
#1200=AXIS2_PLACEMENT_3D('',#1678,#1350,#1351);
#1201=AXIS2_PLACEMENT_3D('',#1679,#1352,#1353);
#1202=AXIS2_PLACEMENT_3D('',#1681,#1354,#1355);
#1203=AXIS2_PLACEMENT_3D('',#1684,#1357,#1358);
#1204=AXIS2_PLACEMENT_3D('',#1685,#1359,#1360);
#1205=AXIS2_PLACEMENT_3D('',#1687,#1361,#1362);
#1206=AXIS2_PLACEMENT_3D('',#1688,#1363,#1364);
#1207=AXIS2_PLACEMENT_3D('',#1690,#1365,#1366);
#1208=AXIS2_PLACEMENT_3D('',#1692,#1368,#1369);
#1209=AXIS2_PLACEMENT_3D('',#1694,#1370,#1371);
#1210=AXIS2_PLACEMENT_3D('',#1697,#1373,#1374);
#1211=AXIS2_PLACEMENT_3D('',#1698,#1375,#1376);
#1212=AXIS2_PLACEMENT_3D('',#1700,#1377,#1378);
#1213=AXIS2_PLACEMENT_3D('',#1701,#1379,#1380);
#1214=AXIS2_PLACEMENT_3D('',#1704,#1382,#1383);
#1215=AXIS2_PLACEMENT_3D('',#1705,#1384,#1385);
#1216=AXIS2_PLACEMENT_3D('',#1708,#1386,#1387);
#1217=AXIS2_PLACEMENT_3D('',#1716,#1392,#1393);
#1218=AXIS2_PLACEMENT_3D('',#1722,#1397,#1398);
#1219=AXIS2_PLACEMENT_3D('',#1728,#1401,#1402);
#1220=AXIS2_PLACEMENT_3D('',#1729,#1403,#1404);
#1221=AXIS2_PLACEMENT_3D('',#1733,#1407,#1408);
#1222=AXIS2_PLACEMENT_3D('',#1739,#1412,#1413);
#1223=AXIS2_PLACEMENT_3D('',#1741,#1414,#1415);
#1224=AXIS2_PLACEMENT_3D('',#1745,#1418,#1419);
#1225=AXIS2_PLACEMENT_3D('',#1746,#1420,#1421);
#1226=AXIS2_PLACEMENT_3D('',#1747,#1422,#1423);
#1227=AXIS2_PLACEMENT_3D('',#1789,#1424,#1425);
#1228=AXIS2_PLACEMENT_3D('',#1791,#1426,#1427);
#1229=AXIS2_PLACEMENT_3D('',#1795,#1429,#1430);
#1230=AXIS2_PLACEMENT_3D('',#1798,#1432,#1433);
#1231=AXIS2_PLACEMENT_3D('',#1799,#1434,#1435);
#1232=AXIS2_PLACEMENT_3D('',#1803,#1437,#1438);
#1233=AXIS2_PLACEMENT_3D('',#1851,#1441,#1442);
#1234=AXIS2_PLACEMENT_3D('',#1855,#1444,#1445);
#1235=AXIS2_PLACEMENT_3D('',#1897,#1448,#1449);
#1236=AXIS2_PLACEMENT_3D('',#1901,#1451,#1452);
#1237=AXIS2_PLACEMENT_3D('',#1941,#1455,#1456);
#1238=AXIS2_PLACEMENT_3D('',#1942,#1457,#1458);
#1239=AXIS2_PLACEMENT_3D('',#1944,#1459,#1460);
#1240=AXIS2_PLACEMENT_3D('',#1945,#1461,#1462);
#1241=AXIS2_PLACEMENT_3D('',#1946,#1463,#1464);
#1242=AXIS2_PLACEMENT_3D('',#1949,#1466,#1467);
#1243=AXIS2_PLACEMENT_3D('',#1950,#1468,#1469);
#1244=AXIS2_PLACEMENT_3D('',#1952,#1470,#1471);
#1245=AXIS2_PLACEMENT_3D('',#1954,#1473,#1474);
#1246=AXIS2_PLACEMENT_3D('',#1956,#1475,#1476);
#1247=AXIS2_PLACEMENT_3D('',#1958,#1478,#1479);
#1248=AXIS2_PLACEMENT_3D('',#1964,#1483,#1484);
#1249=AXIS2_PLACEMENT_3D('',#1970,#1487,#1488);
#1250=AXIS2_PLACEMENT_3D('',#1971,#1489,#1490);
#1251=AXIS2_PLACEMENT_3D('',#1975,#1493,#1494);
#1252=AXIS2_PLACEMENT_3D('',#1976,#1495,#1496);
#1253=AXIS2_PLACEMENT_3D('',#1982,#1500,#1501);
#1254=AXIS2_PLACEMENT_3D('',#1984,#1503,#1504);
#1255=AXIS2_PLACEMENT_3D('',#1986,#1506,#1507);
#1256=AXIS2_PLACEMENT_3D('',#1987,#1508,#1509);
#1257=AXIS2_PLACEMENT_3D('',#1988,#1510,#1511);
#1258=AXIS2_PLACEMENT_3D('',#1990,#1512,#1513);
#1259=AXIS2_PLACEMENT_3D('',#1991,#1514,#1515);
#1260=AXIS2_PLACEMENT_3D('',#1992,#1516,#1517);
#1261=AXIS2_PLACEMENT_3D('',#1995,#1519,#1520);
#1262=AXIS2_PLACEMENT_3D('',#1996,#1521,#1522);
#1263=AXIS2_PLACEMENT_3D('',#1998,#1523,#1524);
#1264=AXIS2_PLACEMENT_3D('',#2000,#1526,#1527);
#1265=AXIS2_PLACEMENT_3D('',#2004,#1530,#1531);
#1266=AXIS2_PLACEMENT_3D('',#2008,#1534,#1535);
#1267=AXIS2_PLACEMENT_3D('',#2009,#1536,#1537);
#1268=AXIS2_PLACEMENT_3D('',#2010,#1538,#1539);
#1269=AXIS2_PLACEMENT_3D('',#2011,#1540,#1541);
#1270=AXIS2_PLACEMENT_3D('',#2025,#1549,#1550);
#1271=AXIS2_PLACEMENT_3D('',#2029,#1553,#1554);
#1272=AXIS2_PLACEMENT_3D('',#2031,#1555,#1556);
#1273=AXIS2_PLACEMENT_3D('',#2035,#1558,#1559);
#1274=AXIS2_PLACEMENT_3D('',#2039,#1561,#1562);
#1275=AXIS2_PLACEMENT_3D('',#2042,#1564,#1565);
#1276=AXIS2_PLACEMENT_3D('',#2043,#1566,#1567);
#1277=AXIS2_PLACEMENT_3D('',#2044,#1568,#1569);
#1278=AXIS2_PLACEMENT_3D('',#2051,#1574,#1575);
#1279=AXIS2_PLACEMENT_3D('',#2055,#1578,#1579);
#1280=AXIS2_PLACEMENT_3D('',#2057,#1580,#1581);
#1281=AXIS2_PLACEMENT_3D('',#2061,#1583,#1584);
#1282=AXIS2_PLACEMENT_3D('',#2065,#1586,#1587);
#1283=AXIS2_PLACEMENT_3D('',#2068,#1589,#1590);
#1284=AXIS2_PLACEMENT_3D('',#2069,#1591,#1592);
#1285=AXIS2_PLACEMENT_3D('',#2070,#1593,#1594);
#1286=AXIS2_PLACEMENT_3D('',#2080,#1600,#1601);
#1287=AXIS2_PLACEMENT_3D('',#2084,#1604,#1605);
#1288=AXIS2_PLACEMENT_3D('',#2092,#1611,#1612);
#1289=AXIS2_PLACEMENT_3D('',#2096,#1615,#1616);
#1290=AXIS2_PLACEMENT_3D('',#2102,#1620,#1621);
#1291=AXIS2_PLACEMENT_3D('',#2105,#1624,#1625);
#1292=AXIS2_PLACEMENT_3D('',#2107,#1627,#1628);
#1293=AXIS2_PLACEMENT_3D('',#2108,#1629,#1630);
#1294=AXIS2_PLACEMENT_3D('',#2109,#1631,#1632);
#1295=AXIS2_PLACEMENT_3D('',#2111,#1634,#1635);
#1296=DIRECTION('axis',(0.,0.,1.));
#1297=DIRECTION('refdir',(1.,0.,0.));
#1298=DIRECTION('center_axis',(0.,1.,0.));
#1299=DIRECTION('ref_axis',(1.,0.,0.));
#1300=DIRECTION('center_axis',(0.,-1.,0.));
#1301=DIRECTION('ref_axis',(1.,0.,0.));
#1302=DIRECTION('',(0.,1.,0.));
#1303=DIRECTION('center_axis',(0.,-1.,0.));
#1304=DIRECTION('ref_axis',(1.,0.,0.));
#1305=DIRECTION('center_axis',(0.,-1.,0.));
#1306=DIRECTION('ref_axis',(-1.,0.,0.));
#1307=DIRECTION('center_axis',(0.,1.,0.));
#1308=DIRECTION('ref_axis',(1.,0.,0.));
#1309=DIRECTION('center_axis',(0.,-1.,0.));
#1310=DIRECTION('ref_axis',(1.,0.,0.));
#1311=DIRECTION('',(0.,1.,0.));
#1312=DIRECTION('center_axis',(0.,-1.,0.));
#1313=DIRECTION('ref_axis',(1.,0.,0.));
#1314=DIRECTION('center_axis',(0.,-1.,0.));
#1315=DIRECTION('ref_axis',(-1.,0.,0.));
#1316=DIRECTION('center_axis',(0.,1.,0.));
#1317=DIRECTION('ref_axis',(1.,0.,0.));
#1318=DIRECTION('center_axis',(0.,-1.,0.));
#1319=DIRECTION('ref_axis',(1.,0.,0.));
#1320=DIRECTION('',(0.,1.,0.));
#1321=DIRECTION('center_axis',(0.,-1.,0.));
#1322=DIRECTION('ref_axis',(1.,0.,0.));
#1323=DIRECTION('center_axis',(0.,-1.,0.));
#1324=DIRECTION('ref_axis',(-1.,0.,0.));
#1325=DIRECTION('center_axis',(0.,1.,0.));
#1326=DIRECTION('ref_axis',(1.,0.,0.));
#1327=DIRECTION('center_axis',(0.,-1.,0.));
#1328=DIRECTION('ref_axis',(1.,0.,0.));
#1329=DIRECTION('',(0.,1.,0.));
#1330=DIRECTION('center_axis',(0.,-1.,0.));
#1331=DIRECTION('ref_axis',(1.,0.,0.));
#1332=DIRECTION('center_axis',(0.,-1.,0.));
#1333=DIRECTION('ref_axis',(-1.,0.,0.));
#1334=DIRECTION('center_axis',(0.,1.,0.));
#1335=DIRECTION('ref_axis',(1.,0.,0.));
#1336=DIRECTION('center_axis',(0.,-1.,0.));
#1337=DIRECTION('ref_axis',(1.,0.,0.));
#1338=DIRECTION('',(0.,1.,0.));
#1339=DIRECTION('center_axis',(0.,-1.,0.));
#1340=DIRECTION('ref_axis',(1.,0.,0.));
#1341=DIRECTION('center_axis',(0.,-1.,0.));
#1342=DIRECTION('ref_axis',(-1.,0.,0.));
#1343=DIRECTION('center_axis',(0.,1.,0.));
#1344=DIRECTION('ref_axis',(1.,0.,0.));
#1345=DIRECTION('center_axis',(0.,-1.,0.));
#1346=DIRECTION('ref_axis',(1.,0.,0.));
#1347=DIRECTION('',(0.,1.,0.));
#1348=DIRECTION('center_axis',(0.,-1.,0.));
#1349=DIRECTION('ref_axis',(1.,0.,0.));
#1350=DIRECTION('center_axis',(0.,-1.,0.));
#1351=DIRECTION('ref_axis',(-1.,0.,0.));
#1352=DIRECTION('center_axis',(0.,-1.,0.));
#1353=DIRECTION('ref_axis',(1.,0.,0.));
#1354=DIRECTION('center_axis',(0.,1.,0.));
#1355=DIRECTION('ref_axis',(1.,0.,0.));
#1356=DIRECTION('',(0.,-1.,0.));
#1357=DIRECTION('center_axis',(0.,1.,0.));
#1358=DIRECTION('ref_axis',(1.,0.,0.));
#1359=DIRECTION('center_axis',(0.,1.,0.));
#1360=DIRECTION('ref_axis',(-1.,0.,0.));
#1361=DIRECTION('center_axis',(0.,-1.,0.));
#1362=DIRECTION('ref_axis',(1.,0.,0.));
#1363=DIRECTION('center_axis',(0.,-1.,0.));
#1364=DIRECTION('ref_axis',(1.,0.,0.));
#1365=DIRECTION('center_axis',(0.,-1.,0.));
#1366=DIRECTION('ref_axis',(1.,0.,0.));
#1367=DIRECTION('',(0.,-1.,0.));
#1368=DIRECTION('center_axis',(0.,1.,0.));
#1369=DIRECTION('ref_axis',(1.,0.,0.));
#1370=DIRECTION('center_axis',(0.,1.,0.));
#1371=DIRECTION('ref_axis',(1.,0.,0.));
#1372=DIRECTION('',(0.,1.,0.));
#1373=DIRECTION('center_axis',(0.,1.,0.));
#1374=DIRECTION('ref_axis',(1.,0.,0.));
#1375=DIRECTION('center_axis',(0.,1.,0.));
#1376=DIRECTION('ref_axis',(1.,0.,0.));
#1377=DIRECTION('center_axis',(0.,-1.,0.));
#1378=DIRECTION('ref_axis',(1.,0.,0.));
#1379=DIRECTION('center_axis',(0.,1.,0.));
#1380=DIRECTION('ref_axis',(1.,0.,0.));
#1381=DIRECTION('',(0.,1.,0.));
#1382=DIRECTION('center_axis',(0.,-1.,0.));
#1383=DIRECTION('ref_axis',(1.,0.,0.));
#1384=DIRECTION('center_axis',(0.,0.,1.));
#1385=DIRECTION('ref_axis',(1.,0.,0.));
#1386=DIRECTION('center_axis',(0.,0.,-1.));
#1387=DIRECTION('ref_axis',(1.,0.,0.));
#1388=DIRECTION('',(-1.,0.,0.));
#1389=DIRECTION('',(0.,1.,0.));
#1390=DIRECTION('',(1.,0.,0.));
#1391=DIRECTION('',(0.,-1.,0.));
#1392=DIRECTION('center_axis',(-1.,0.,0.));
#1393=DIRECTION('ref_axis',(0.,0.,1.));
#1394=DIRECTION('',(0.,0.,-1.));
#1395=DIRECTION('',(0.,0.,-1.));
#1396=DIRECTION('',(0.,-1.,0.));
#1397=DIRECTION('center_axis',(0.,0.,1.));
#1398=DIRECTION('ref_axis',(1.,0.,0.));
#1399=DIRECTION('',(-1.,0.,0.));
#1400=DIRECTION('',(1.,0.,0.));
#1401=DIRECTION('center_axis',(0.,0.,1.));
#1402=DIRECTION('ref_axis',(1.,0.,0.));
#1403=DIRECTION('center_axis',(0.,0.,1.));
#1404=DIRECTION('ref_axis',(1.,0.,0.));
#1405=DIRECTION('',(1.,0.,0.));
#1406=DIRECTION('',(0.,1.,0.));
#1407=DIRECTION('center_axis',(1.,0.,0.));
#1408=DIRECTION('ref_axis',(0.,0.,-1.));
#1409=DIRECTION('',(0.,0.,1.));
#1410=DIRECTION('',(0.,0.,-1.));
#1411=DIRECTION('',(0.,1.,0.));
#1412=DIRECTION('center_axis',(0.,0.,1.));
#1413=DIRECTION('ref_axis',(1.,0.,0.));
#1414=DIRECTION('center_axis',(0.,0.,-1.));
#1415=DIRECTION('ref_axis',(1.,0.,0.));
#1416=DIRECTION('',(0.,-1.,0.));
#1417=DIRECTION('',(-1.,0.,0.));
#1418=DIRECTION('center_axis',(0.,-1.,0.));
#1419=DIRECTION('ref_axis',(0.,0.,-1.));
#1420=DIRECTION('center_axis',(0.,1.,0.));
#1421=DIRECTION('ref_axis',(1.,0.,0.));
#1422=DIRECTION('center_axis',(0.,0.,1.));
#1423=DIRECTION('ref_axis',(1.,0.,0.));
#1424=DIRECTION('center_axis',(0.,-1.,0.));
#1425=DIRECTION('ref_axis',(-1.,0.,0.));
#1426=DIRECTION('center_axis',(0.,-1.,0.));
#1427=DIRECTION('ref_axis',(1.,0.,0.));
#1428=DIRECTION('',(1.,0.,0.));
#1429=DIRECTION('center_axis',(0.,1.,0.));
#1430=DIRECTION('ref_axis',(1.,0.,0.));
#1431=DIRECTION('',(-1.,0.,0.));
#1432=DIRECTION('center_axis',(0.,-1.,0.));
#1433=DIRECTION('ref_axis',(1.,0.,0.));
#1434=DIRECTION('center_axis',(0.,1.,0.));
#1435=DIRECTION('ref_axis',(1.,0.,0.));
#1436=DIRECTION('',(0.,1.,0.));
#1437=DIRECTION('center_axis',(0.,1.,0.));
#1438=DIRECTION('ref_axis',(1.,0.,0.));
#1439=DIRECTION('',(0.,-1.,0.));
#1440=DIRECTION('',(0.,-1.,0.));
#1441=DIRECTION('center_axis',(0.,-1.,0.));
#1442=DIRECTION('ref_axis',(1.,0.,0.));
#1443=DIRECTION('',(0.,1.,0.));
#1444=DIRECTION('center_axis',(0.,1.,0.));
#1445=DIRECTION('ref_axis',(1.,0.,0.));
#1446=DIRECTION('',(0.,-1.,0.));
#1447=DIRECTION('',(0.,-1.,0.));
#1448=DIRECTION('center_axis',(0.,-1.,0.));
#1449=DIRECTION('ref_axis',(1.,0.,0.));
#1450=DIRECTION('',(0.,1.,0.));
#1451=DIRECTION('center_axis',(0.,1.,0.));
#1452=DIRECTION('ref_axis',(1.,0.,0.));
#1453=DIRECTION('',(0.,-1.,0.));
#1454=DIRECTION('',(0.,-1.,0.));
#1455=DIRECTION('center_axis',(0.,0.,1.));
#1456=DIRECTION('ref_axis',(1.,0.,0.));
#1457=DIRECTION('center_axis',(0.,0.,1.));
#1458=DIRECTION('ref_axis',(1.,0.,0.));
#1459=DIRECTION('center_axis',(0.,0.,-1.));
#1460=DIRECTION('ref_axis',(1.,0.,0.));
#1461=DIRECTION('center_axis',(0.,0.,1.));
#1462=DIRECTION('ref_axis',(1.,0.,0.));
#1463=DIRECTION('center_axis',(0.,0.,1.));
#1464=DIRECTION('ref_axis',(1.,0.,0.));
#1465=DIRECTION('',(0.,0.,1.));
#1466=DIRECTION('center_axis',(0.,0.,-1.));
#1467=DIRECTION('ref_axis',(1.,0.,0.));
#1468=DIRECTION('center_axis',(0.,0.,1.));
#1469=DIRECTION('ref_axis',(1.,0.,0.));
#1470=DIRECTION('center_axis',(0.,0.,1.));
#1471=DIRECTION('ref_axis',(1.,0.,0.));
#1472=DIRECTION('',(0.,0.,1.));
#1473=DIRECTION('center_axis',(0.,0.,1.));
#1474=DIRECTION('ref_axis',(1.,0.,0.));
#1475=DIRECTION('center_axis',(0.,0.,-1.));
#1476=DIRECTION('ref_axis',(1.,0.,0.));
#1477=DIRECTION('',(1.,0.,0.));
#1478=DIRECTION('center_axis',(1.,0.,0.));
#1479=DIRECTION('ref_axis',(0.,0.,-1.));
#1480=DIRECTION('',(0.,0.,-1.));
#1481=DIRECTION('',(0.,1.,0.));
#1482=DIRECTION('',(0.,0.,-1.));
#1483=DIRECTION('center_axis',(0.,0.,1.));
#1484=DIRECTION('ref_axis',(1.,0.,0.));
#1485=DIRECTION('',(1.,0.,0.));
#1486=DIRECTION('',(-1.,0.,0.));
#1487=DIRECTION('center_axis',(0.,0.,1.));
#1488=DIRECTION('ref_axis',(1.,0.,0.));
#1489=DIRECTION('center_axis',(0.,0.,1.));
#1490=DIRECTION('ref_axis',(1.,0.,0.));
#1491=DIRECTION('',(-1.,0.,0.));
#1492=DIRECTION('',(0.,-1.,0.));
#1493=DIRECTION('center_axis',(0.,0.,1.));
#1494=DIRECTION('ref_axis',(1.,0.,0.));
#1495=DIRECTION('center_axis',(0.,0.,-1.));
#1496=DIRECTION('ref_axis',(1.,0.,0.));
#1497=DIRECTION('',(-1.,0.,0.));
#1498=DIRECTION('',(0.,1.,0.));
#1499=DIRECTION('',(1.,0.,0.));
#1500=DIRECTION('center_axis',(0.,1.,0.));
#1501=DIRECTION('ref_axis',(0.,0.,1.));
#1502=DIRECTION('',(0.,0.,-1.));
#1503=DIRECTION('center_axis',(-1.,0.,0.));
#1504=DIRECTION('ref_axis',(0.,0.,1.));
#1505=DIRECTION('',(0.,0.,1.));
#1506=DIRECTION('center_axis',(0.,0.,1.));
#1507=DIRECTION('ref_axis',(1.,0.,0.));
#1508=DIRECTION('center_axis',(0.,0.,1.));
#1509=DIRECTION('ref_axis',(1.,0.,0.));
#1510=DIRECTION('center_axis',(0.,0.,1.));
#1511=DIRECTION('ref_axis',(1.,0.,0.));
#1512=DIRECTION('center_axis',(0.,0.,-1.));
#1513=DIRECTION('ref_axis',(1.,0.,0.));
#1514=DIRECTION('center_axis',(0.,0.,1.));
#1515=DIRECTION('ref_axis',(1.,0.,0.));
#1516=DIRECTION('center_axis',(0.,0.,1.));
#1517=DIRECTION('ref_axis',(1.,0.,0.));
#1518=DIRECTION('',(0.,0.,1.));
#1519=DIRECTION('center_axis',(0.,0.,-1.));
#1520=DIRECTION('ref_axis',(1.,0.,0.));
#1521=DIRECTION('center_axis',(0.,0.,1.));
#1522=DIRECTION('ref_axis',(1.,0.,0.));
#1523=DIRECTION('center_axis',(0.,0.,1.));
#1524=DIRECTION('ref_axis',(1.,0.,0.));
#1525=DIRECTION('',(0.,0.,1.));
#1526=DIRECTION('center_axis',(0.,0.,1.));
#1527=DIRECTION('ref_axis',(1.,0.,0.));
#1528=DIRECTION('',(-1.,0.,0.));
#1529=DIRECTION('',(0.,1.,0.));
#1530=DIRECTION('center_axis',(0.,0.,1.));
#1531=DIRECTION('ref_axis',(1.,0.,0.));
#1532=DIRECTION('',(0.,-1.,0.));
#1533=DIRECTION('',(1.,0.,0.));
#1534=DIRECTION('center_axis',(0.,1.,0.));
#1535=DIRECTION('ref_axis',(1.,0.,0.));
#1536=DIRECTION('center_axis',(0.,-1.,0.));
#1537=DIRECTION('ref_axis',(1.,0.,0.));
#1538=DIRECTION('center_axis',(0.,1.,0.));
#1539=DIRECTION('ref_axis',(1.,0.,0.));
#1540=DIRECTION('center_axis',(0.,1.,0.));
#1541=DIRECTION('ref_axis',(0.,0.,1.));
#1542=DIRECTION('',(-1.,0.,0.));
#1543=DIRECTION('',(0.,0.,-1.));
#1544=DIRECTION('',(-1.,0.,0.));
#1545=DIRECTION('',(0.,0.,1.));
#1546=DIRECTION('',(1.,0.,0.));
#1547=DIRECTION('',(0.,0.,-1.));
#1548=DIRECTION('',(1.,0.,0.));
#1549=DIRECTION('center_axis',(0.,0.,1.));
#1550=DIRECTION('ref_axis',(1.,0.,0.));
#1551=DIRECTION('',(1.,0.,0.));
#1552=DIRECTION('',(0.,-1.,0.));
#1553=DIRECTION('center_axis',(0.,-1.,0.));
#1554=DIRECTION('ref_axis',(1.,0.,0.));
#1555=DIRECTION('center_axis',(0.,-1.,0.));
#1556=DIRECTION('ref_axis',(1.,0.,0.));
#1557=DIRECTION('',(0.,1.,0.));
#1558=DIRECTION('center_axis',(0.,1.,0.));
#1559=DIRECTION('ref_axis',(1.,0.,0.));
#1560=DIRECTION('',(0.,-1.,0.));
#1561=DIRECTION('center_axis',(0.,1.,0.));
#1562=DIRECTION('ref_axis',(1.,0.,0.));
#1563=DIRECTION('',(0.,1.,0.));
#1564=DIRECTION('center_axis',(0.,1.,0.));
#1565=DIRECTION('ref_axis',(1.,0.,0.));
#1566=DIRECTION('center_axis',(0.,-1.,0.));
#1567=DIRECTION('ref_axis',(1.,0.,0.));
#1568=DIRECTION('center_axis',(0.,0.,1.));
#1569=DIRECTION('ref_axis',(1.,0.,0.));
#1570=DIRECTION('',(-1.,0.,0.));
#1571=DIRECTION('',(0.,1.,0.));
#1572=DIRECTION('',(0.,-1.,0.));
#1573=DIRECTION('',(1.,0.,0.));
#1574=DIRECTION('center_axis',(0.,-1.,0.));
#1575=DIRECTION('ref_axis',(0.,0.,-1.));
#1576=DIRECTION('',(1.,0.,0.));
#1577=DIRECTION('',(0.,0.,-1.));
#1578=DIRECTION('center_axis',(0.,1.,0.));
#1579=DIRECTION('ref_axis',(1.,0.,0.));
#1580=DIRECTION('center_axis',(0.,1.,0.));
#1581=DIRECTION('ref_axis',(1.,0.,0.));
#1582=DIRECTION('',(0.,-1.,0.));
#1583=DIRECTION('center_axis',(0.,-1.,0.));
#1584=DIRECTION('ref_axis',(1.,0.,0.));
#1585=DIRECTION('',(0.,1.,0.));
#1586=DIRECTION('center_axis',(0.,-1.,0.));
#1587=DIRECTION('ref_axis',(1.,0.,0.));
#1588=DIRECTION('',(0.,-1.,0.));
#1589=DIRECTION('center_axis',(0.,-1.,0.));
#1590=DIRECTION('ref_axis',(1.,0.,0.));
#1591=DIRECTION('center_axis',(0.,1.,0.));
#1592=DIRECTION('ref_axis',(1.,0.,0.));
#1593=DIRECTION('center_axis',(0.,0.,1.));
#1594=DIRECTION('ref_axis',(1.,0.,0.));
#1595=DIRECTION('',(-1.,0.,0.));
#1596=DIRECTION('',(0.,-1.,0.));
#1597=DIRECTION('',(1.,0.,0.));
#1598=DIRECTION('',(0.,1.,0.));
#1599=DIRECTION('',(1.,0.,0.));
#1600=DIRECTION('center_axis',(0.,1.,0.));
#1601=DIRECTION('ref_axis',(0.,0.,1.));
#1602=DIRECTION('',(1.,0.,0.));
#1603=DIRECTION('',(0.,0.,1.));
#1604=DIRECTION('center_axis',(-1.,0.,0.));
#1605=DIRECTION('ref_axis',(0.,0.,1.));
#1606=DIRECTION('',(0.,-1.,0.));
#1607=DIRECTION('',(0.,0.,-1.));
#1608=DIRECTION('',(0.,1.,0.));
#1609=DIRECTION('',(0.,0.,-1.));
#1610=DIRECTION('',(0.,1.,0.));
#1611=DIRECTION('center_axis',(0.,0.,1.));
#1612=DIRECTION('ref_axis',(1.,0.,0.));
#1613=DIRECTION('',(-1.,0.,0.));
#1614=DIRECTION('',(0.,1.,0.));
#1615=DIRECTION('center_axis',(0.,0.,1.));
#1616=DIRECTION('ref_axis',(1.,0.,0.));
#1617=DIRECTION('',(-1.,0.,0.));
#1618=DIRECTION('',(0.,-1.,0.));
#1619=DIRECTION('',(-1.,0.,0.));
#1620=DIRECTION('center_axis',(1.,0.,0.));
#1621=DIRECTION('ref_axis',(0.,0.,-1.));
#1622=DIRECTION('',(0.,0.,-1.));
#1623=DIRECTION('',(0.,0.,-1.));
#1624=DIRECTION('center_axis',(1.,0.,0.));
#1625=DIRECTION('ref_axis',(0.,0.,-1.));
#1626=DIRECTION('',(0.,0.,-1.));
#1627=DIRECTION('center_axis',(0.,1.,0.));
#1628=DIRECTION('ref_axis',(0.,0.,1.));
#1629=DIRECTION('center_axis',(0.,-1.,0.));
#1630=DIRECTION('ref_axis',(0.,0.,-1.));
#1631=DIRECTION('center_axis',(0.,-1.,0.));
#1632=DIRECTION('ref_axis',(0.,0.,-1.));
#1633=DIRECTION('',(-1.,0.,0.));
#1634=DIRECTION('center_axis',(0.,0.,1.));
#1635=DIRECTION('ref_axis',(1.,0.,0.));
#1636=CARTESIAN_POINT('',(0.,0.,0.));
#1637=CARTESIAN_POINT('Origin',(136.5,-23.,61.4211616751135));
#1638=CARTESIAN_POINT('',(134.2,-26.75,61.4211616751135));
#1639=CARTESIAN_POINT('Origin',(136.5,-26.75,61.4211616751135));
#1640=CARTESIAN_POINT('',(134.2,-23.5,61.4211616751135));
#1641=CARTESIAN_POINT('',(134.2,-23.,61.4211616751135));
#1642=CARTESIAN_POINT('Origin',(136.5,-23.5,61.4211616751135));
#1643=CARTESIAN_POINT('Origin',(136.5,-26.75,61.4211616751135));
#1644=CARTESIAN_POINT('Origin',(103.5,-23.,61.4211616751135));
#1645=CARTESIAN_POINT('',(101.2,-26.75,61.4211616751135));
#1646=CARTESIAN_POINT('Origin',(103.5,-26.75,61.4211616751135));
#1647=CARTESIAN_POINT('',(101.2,-23.5,61.4211616751135));
#1648=CARTESIAN_POINT('',(101.2,-23.,61.4211616751135));
#1649=CARTESIAN_POINT('Origin',(103.5,-23.5,61.4211616751135));
#1650=CARTESIAN_POINT('Origin',(103.5,-26.75,61.4211616751135));
#1651=CARTESIAN_POINT('Origin',(87.,-23.,90.));
#1652=CARTESIAN_POINT('',(84.7,-26.75,90.));
#1653=CARTESIAN_POINT('Origin',(87.,-26.75,90.));
#1654=CARTESIAN_POINT('',(84.7,-23.5,90.));
#1655=CARTESIAN_POINT('',(84.7,-23.,90.));
#1656=CARTESIAN_POINT('Origin',(87.,-23.5,90.));
#1657=CARTESIAN_POINT('Origin',(87.,-26.75,90.));
#1658=CARTESIAN_POINT('Origin',(103.5,-23.,118.578838324886));
#1659=CARTESIAN_POINT('',(101.2,-26.75,118.578838324886));
#1660=CARTESIAN_POINT('Origin',(103.5,-26.75,118.578838324886));
#1661=CARTESIAN_POINT('',(101.2,-23.5,118.578838324886));
#1662=CARTESIAN_POINT('',(101.2,-23.,118.578838324886));
#1663=CARTESIAN_POINT('Origin',(103.5,-23.5,118.578838324886));
#1664=CARTESIAN_POINT('Origin',(103.5,-26.75,118.578838324886));
#1665=CARTESIAN_POINT('Origin',(136.5,-23.,118.578838324886));
#1666=CARTESIAN_POINT('',(134.2,-26.75,118.578838324886));
#1667=CARTESIAN_POINT('Origin',(136.5,-26.75,118.578838324886));
#1668=CARTESIAN_POINT('',(134.2,-23.5,118.578838324886));
#1669=CARTESIAN_POINT('',(134.2,-23.,118.578838324886));
#1670=CARTESIAN_POINT('Origin',(136.5,-23.5,118.578838324886));
#1671=CARTESIAN_POINT('Origin',(136.5,-26.75,118.578838324886));
#1672=CARTESIAN_POINT('Origin',(153.,-23.,90.));
#1673=CARTESIAN_POINT('',(150.7,-26.75,90.));
#1674=CARTESIAN_POINT('Origin',(153.,-26.75,90.));
#1675=CARTESIAN_POINT('',(150.7,-23.5,90.));
#1676=CARTESIAN_POINT('',(150.7,-23.,90.));
#1677=CARTESIAN_POINT('Origin',(153.,-23.5,90.));
#1678=CARTESIAN_POINT('Origin',(153.,-26.75,90.));
#1679=CARTESIAN_POINT('Origin',(120.,-32.5,90.));
#1680=CARTESIAN_POINT('',(101.35,-28.5,90.));
#1681=CARTESIAN_POINT('Origin',(120.,-28.5,90.));
#1682=CARTESIAN_POINT('',(101.35,-35.5,90.));
#1683=CARTESIAN_POINT('',(101.35,-32.5,90.));
#1684=CARTESIAN_POINT('Origin',(120.,-35.5,90.));
#1685=CARTESIAN_POINT('Origin',(120.,-28.5,90.));
#1686=CARTESIAN_POINT('',(106.5,-28.5,90.));
#1687=CARTESIAN_POINT('Origin',(120.,-28.5,90.));
#1688=CARTESIAN_POINT('Origin',(120.,-29.5,90.));
#1689=CARTESIAN_POINT('',(106.5,-23.5,90.));
#1690=CARTESIAN_POINT('Origin',(120.,-23.5,90.));
#1691=CARTESIAN_POINT('',(106.5,-29.5,90.));
#1692=CARTESIAN_POINT('Origin',(120.,17.2,90.));
#1693=CARTESIAN_POINT('',(108.9,13.75,90.));
#1694=CARTESIAN_POINT('Origin',(120.,13.75,90.));
#1695=CARTESIAN_POINT('',(108.9,20.75,90.));
#1696=CARTESIAN_POINT('',(108.9,17.2,90.));
#1697=CARTESIAN_POINT('Origin',(120.,20.75,90.));
#1698=CARTESIAN_POINT('Origin',(120.,20.75,90.));
#1699=CARTESIAN_POINT('',(112.,20.75,90.));
#1700=CARTESIAN_POINT('Origin',(120.,20.75,90.));
#1701=CARTESIAN_POINT('Origin',(120.,19.75,90.));
#1702=CARTESIAN_POINT('',(112.,25.75,90.));
#1703=CARTESIAN_POINT('',(112.,19.75,90.));
#1704=CARTESIAN_POINT('Origin',(120.,25.75,90.));
#1705=CARTESIAN_POINT('Origin',(-9.5,-9.4,100.));
#1706=CARTESIAN_POINT('',(-9.5,-4.8,100.));
#1707=CARTESIAN_POINT('',(-11.1803398838349,-6.75779424895384,100.000000002048));
#1708=CARTESIAN_POINT('Origin',(-9.5,-6.5,100.));
#1709=CARTESIAN_POINT('',(-6.65,-4.8,100.));
#1710=CARTESIAN_POINT('',(-9.5,-4.8,100.));
#1711=CARTESIAN_POINT('',(-6.65,-13.,100.));
#1712=CARTESIAN_POINT('',(-6.65,-9.4,100.));
#1713=CARTESIAN_POINT('',(-11.1803398874989,-13.,100.));
#1714=CARTESIAN_POINT('',(-4.75,-13.,100.));
#1715=CARTESIAN_POINT('',(-11.1803398874989,0.,100.));
#1716=CARTESIAN_POINT('Origin',(-6.65,-9.4,98.7));
#1717=CARTESIAN_POINT('',(-6.65,-13.,97.4));
#1718=CARTESIAN_POINT('',(-6.65,-13.,94.35));
#1719=CARTESIAN_POINT('',(-6.65,-4.8,97.4));
#1720=CARTESIAN_POINT('',(-6.65,-4.8,98.7));
#1721=CARTESIAN_POINT('',(-6.65,-9.4,97.4));
#1722=CARTESIAN_POINT('Origin',(-9.5,-9.4,97.4));
#1723=CARTESIAN_POINT('',(-12.35,-13.,97.4));
#1724=CARTESIAN_POINT('',(-4.75,-13.,97.4));
#1725=CARTESIAN_POINT('',(-9.5,-4.8,97.4));
#1726=CARTESIAN_POINT('',(-9.5,-4.8,97.4));
#1727=CARTESIAN_POINT('',(-11.2,-6.5,97.4));
#1728=CARTESIAN_POINT('Origin',(-9.5,-6.5,97.4));
#1729=CARTESIAN_POINT('Origin',(-9.5,-6.5,97.4));
#1730=CARTESIAN_POINT('',(-12.35,-4.8,97.4));
#1731=CARTESIAN_POINT('',(-9.5,-4.8,97.4));
#1732=CARTESIAN_POINT('',(-12.35,-9.4,97.4));
#1733=CARTESIAN_POINT('Origin',(-12.35,-9.4,98.7));
#1734=CARTESIAN_POINT('',(-12.35,-13.,98.513371834943));
#1735=CARTESIAN_POINT('',(-12.35,-13.,94.35));
#1736=CARTESIAN_POINT('',(-12.35,-4.8,98.513371834943));
#1737=CARTESIAN_POINT('',(-12.35,-4.8,98.7));
#1738=CARTESIAN_POINT('',(-12.35,0.,98.513371834943));
#1739=CARTESIAN_POINT('Origin',(-9.5,-9.4,100.));
#1740=CARTESIAN_POINT('',(-11.1803398838349,-6.24220575104616,100.000000002048));
#1741=CARTESIAN_POINT('Origin',(-9.5,-6.5,100.));
#1742=CARTESIAN_POINT('',(-11.1803398874989,-4.8,100.));
#1743=CARTESIAN_POINT('',(-11.1803398874989,0.,100.));
#1744=CARTESIAN_POINT('',(-9.5,-4.8,100.));
#1745=CARTESIAN_POINT('Origin',(-9.5,-4.8,98.7));
#1746=CARTESIAN_POINT('Origin',(0.,-4.8,90.));
#1747=CARTESIAN_POINT('Origin',(-9.5,-6.5,90.));
#1748=CARTESIAN_POINT('',(-7.8,-6.5,102.812493902438));
#1749=CARTESIAN_POINT('Ctrl Pts',(-7.8,-6.5,102.812493902438));
#1750=CARTESIAN_POINT('Ctrl Pts',(-7.8,-6.71007413955697,102.812493902438));
#1751=CARTESIAN_POINT('Ctrl Pts',(-7.84153238889337,-6.93157689346913,102.787468240784));
#1752=CARTESIAN_POINT('Ctrl Pts',(-8.00242055730603,-7.33308392833151,102.687404772416));
#1753=CARTESIAN_POINT('Ctrl Pts',(-8.12148236165547,-7.51314687099793,102.612130040715));
#1754=CARTESIAN_POINT('Ctrl Pts',(-8.41789818279229,-7.8338030608507,102.416868258048));
#1755=CARTESIAN_POINT('Ctrl Pts',(-8.62540459436954,-7.97691437917403,102.275003489879));
#1756=CARTESIAN_POINT('Ctrl Pts',(-9.06279798250542,-8.15983354195108,101.955710275907));
#1757=CARTESIAN_POINT('Ctrl Pts',(-9.29239405457772,-8.2,101.77808896727));
#1758=CARTESIAN_POINT('Ctrl Pts',(-9.72888515558411,-8.2,101.420869916349));
#1759=CARTESIAN_POINT('Ctrl Pts',(-9.96931974566252,-8.15174817288609,101.211754441602));
#1760=CARTESIAN_POINT('Ctrl Pts',(-10.4114913867624,-7.95523760380672,100.802389593186));
#1761=CARTESIAN_POINT('Ctrl Pts',(-10.6135393508548,-7.80754918556317,100.602202532533));
#1762=CARTESIAN_POINT('Ctrl Pts',(-10.8924406547376,-7.49126043128217,100.314222980932));
#1763=CARTESIAN_POINT('Ctrl Pts',(-11.0030196278892,-7.32125796790468,100.195420840146));
#1764=CARTESIAN_POINT('Ctrl Pts',(-11.1185115613687,-7.03038041055878,100.068861027823));
#1765=CARTESIAN_POINT('Ctrl Pts',(-11.1489091431789,-6.92745427656648,100.035074325041));
#1766=CARTESIAN_POINT('Ctrl Pts',(-11.1733662064089,-6.80051167653573,100.007793639318));
#1767=CARTESIAN_POINT('Ctrl Pts',(-11.1770567776671,-6.77919400577165,100.003670628378));
#1768=CARTESIAN_POINT('Ctrl Pts',(-11.1803398838349,-6.75779424895384,100.000000004097));
#1769=CARTESIAN_POINT('Ctrl Pts',(-11.1803398838349,-6.24220575104616,100.000000004097));
#1770=CARTESIAN_POINT('Ctrl Pts',(-11.1770567776671,-6.22080599422835,100.003670628378));
#1771=CARTESIAN_POINT('Ctrl Pts',(-11.1733662064089,-6.19948832346427,100.007793639318));
#1772=CARTESIAN_POINT('Ctrl Pts',(-11.1489091431789,-6.07254572343352,100.035074325041));
#1773=CARTESIAN_POINT('Ctrl Pts',(-11.1185115613687,-5.96961958944122,100.068861027823));
#1774=CARTESIAN_POINT('Ctrl Pts',(-11.0030196278892,-5.67874203209532,100.195420840146));
#1775=CARTESIAN_POINT('Ctrl Pts',(-10.8924406547376,-5.50873956871784,100.314222980932));
#1776=CARTESIAN_POINT('Ctrl Pts',(-10.6135393508548,-5.19245081443683,100.602202532533));
#1777=CARTESIAN_POINT('Ctrl Pts',(-10.4114913867624,-5.04476239619328,100.802389593186));
#1778=CARTESIAN_POINT('Ctrl Pts',(-9.96931974566252,-4.84825182711391,101.211754441602));
#1779=CARTESIAN_POINT('Ctrl Pts',(-9.72888515558411,-4.8,101.420869916349));
#1780=CARTESIAN_POINT('Ctrl Pts',(-9.29239405457772,-4.8,101.77808896727));
#1781=CARTESIAN_POINT('Ctrl Pts',(-9.06279798250542,-4.84016645804892,101.955710275907));
#1782=CARTESIAN_POINT('Ctrl Pts',(-8.62540459436954,-5.02308562082597,102.275003489879));
#1783=CARTESIAN_POINT('Ctrl Pts',(-8.41789818279229,-5.1661969391493,102.416868258048));
#1784=CARTESIAN_POINT('Ctrl Pts',(-8.12148236165547,-5.48685312900207,102.612130040715));
#1785=CARTESIAN_POINT('Ctrl Pts',(-8.00242055730603,-5.66691607166849,102.687404772416));
#1786=CARTESIAN_POINT('Ctrl Pts',(-7.84153238889337,-6.06842310653087,102.787468240784));
#1787=CARTESIAN_POINT('Ctrl Pts',(-7.8,-6.28992586044303,102.812493902438));
#1788=CARTESIAN_POINT('Ctrl Pts',(-7.8,-6.5,102.812493902438));
#1789=CARTESIAN_POINT('Origin',(0.,-13.,90.));
#1790=CARTESIAN_POINT('',(-14.9812382665786,-13.,90.75));
#1791=CARTESIAN_POINT('Origin',(0.,-13.,90.));
#1792=CARTESIAN_POINT('',(-4.10708229769018,-13.,90.75));
#1793=CARTESIAN_POINT('',(-4.99375,-13.,90.75));
#1794=CARTESIAN_POINT('',(-4.10708229769018,-13.,89.25));
#1795=CARTESIAN_POINT('Origin',(0.,-13.,90.));
#1796=CARTESIAN_POINT('',(-14.9812382665786,-13.,89.25));
#1797=CARTESIAN_POINT('',(-4.99375,-13.,89.25));
#1798=CARTESIAN_POINT('Origin',(0.,-13.,90.));
#1799=CARTESIAN_POINT('Origin',(0.,0.,90.));
#1800=CARTESIAN_POINT('',(-14.9812382665786,13.,89.25));
#1801=CARTESIAN_POINT('',(-14.9812382665786,0.,89.25));
#1802=CARTESIAN_POINT('',(-11.1803398874989,13.,100.));
#1803=CARTESIAN_POINT('Origin',(0.,13.,90.));
#1804=CARTESIAN_POINT('',(-11.1803398838349,6.75779424895384,100.000000002048));
#1805=CARTESIAN_POINT('',(-11.1803398874989,0.,100.));
#1806=CARTESIAN_POINT('',(-7.8,6.5,102.812493902438));
#1807=CARTESIAN_POINT('Ctrl Pts',(-11.1803398838349,6.75779424895384,100.000000004097));
#1808=CARTESIAN_POINT('Ctrl Pts',(-11.1770567776671,6.77919400577165,100.003670628378));
#1809=CARTESIAN_POINT('Ctrl Pts',(-11.1733662064089,6.80051167653573,100.007793639318));
#1810=CARTESIAN_POINT('Ctrl Pts',(-11.1489091431789,6.92745427656648,100.035074325041));
#1811=CARTESIAN_POINT('Ctrl Pts',(-11.1185115613687,7.03038041055878,100.068861027823));
#1812=CARTESIAN_POINT('Ctrl Pts',(-11.0030196278892,7.32125796790468,100.195420840146));
#1813=CARTESIAN_POINT('Ctrl Pts',(-10.8924406547376,7.49126043128217,100.314222980932));
#1814=CARTESIAN_POINT('Ctrl Pts',(-10.6135393508548,7.80754918556317,100.602202532533));
#1815=CARTESIAN_POINT('Ctrl Pts',(-10.4114913867624,7.95523760380672,100.802389593186));
#1816=CARTESIAN_POINT('Ctrl Pts',(-9.96931974566252,8.15174817288609,101.211754441602));
#1817=CARTESIAN_POINT('Ctrl Pts',(-9.72888515558411,8.2,101.420869916349));
#1818=CARTESIAN_POINT('Ctrl Pts',(-9.29239405457772,8.2,101.77808896727));
#1819=CARTESIAN_POINT('Ctrl Pts',(-9.06279798250542,8.15983354195108,101.955710275907));
#1820=CARTESIAN_POINT('Ctrl Pts',(-8.62540459436954,7.97691437917403,102.275003489879));
#1821=CARTESIAN_POINT('Ctrl Pts',(-8.41789818279229,7.8338030608507,102.416868258048));
#1822=CARTESIAN_POINT('Ctrl Pts',(-8.12148236165547,7.51314687099793,102.612130040715));
#1823=CARTESIAN_POINT('Ctrl Pts',(-8.00242055730603,7.33308392833151,102.687404772416));
#1824=CARTESIAN_POINT('Ctrl Pts',(-7.84153238889337,6.93157689346913,102.787468240784));
#1825=CARTESIAN_POINT('Ctrl Pts',(-7.8,6.71007413955698,102.812493902438));
#1826=CARTESIAN_POINT('Ctrl Pts',(-7.8,6.5,102.812493902438));
#1827=CARTESIAN_POINT('',(-11.1803398838349,6.24220575104617,100.000000002048));
#1828=CARTESIAN_POINT('Ctrl Pts',(-7.8,6.5,102.812493902438));
#1829=CARTESIAN_POINT('Ctrl Pts',(-7.8,6.28992586044303,102.812493902438));
#1830=CARTESIAN_POINT('Ctrl Pts',(-7.84153238889337,6.06842310653087,102.787468240784));
#1831=CARTESIAN_POINT('Ctrl Pts',(-8.00242055730603,5.66691607166849,102.687404772416));
#1832=CARTESIAN_POINT('Ctrl Pts',(-8.12148236165547,5.48685312900207,102.612130040715));
#1833=CARTESIAN_POINT('Ctrl Pts',(-8.41789818279229,5.1661969391493,102.416868258048));
#1834=CARTESIAN_POINT('Ctrl Pts',(-8.62540459436954,5.02308562082597,102.275003489879));
#1835=CARTESIAN_POINT('Ctrl Pts',(-9.06279798250542,4.84016645804892,101.955710275907));
#1836=CARTESIAN_POINT('Ctrl Pts',(-9.29239405457772,4.8,101.77808896727));
#1837=CARTESIAN_POINT('Ctrl Pts',(-9.72888515558411,4.8,101.420869916349));
#1838=CARTESIAN_POINT('Ctrl Pts',(-9.96931974566252,4.84825182711391,101.211754441602));
#1839=CARTESIAN_POINT('Ctrl Pts',(-10.4114913867624,5.04476239619328,100.802389593186));
#1840=CARTESIAN_POINT('Ctrl Pts',(-10.6135393508548,5.19245081443683,100.602202532533));
#1841=CARTESIAN_POINT('Ctrl Pts',(-10.8924406547376,5.50873956871783,100.314222980932));
#1842=CARTESIAN_POINT('Ctrl Pts',(-11.0030196278892,5.67874203209532,100.195420840146));
#1843=CARTESIAN_POINT('Ctrl Pts',(-11.1185115613687,5.96961958944123,100.068861027823));
#1844=CARTESIAN_POINT('Ctrl Pts',(-11.1489091431789,6.07254572343352,100.035074325041));
#1845=CARTESIAN_POINT('Ctrl Pts',(-11.1733662064089,6.19948832346427,100.007793639318));
#1846=CARTESIAN_POINT('Ctrl Pts',(-11.1770567776671,6.22080599422835,100.003670628378));
#1847=CARTESIAN_POINT('Ctrl Pts',(-11.1803398838349,6.24220575104616,100.000000004097));
#1848=CARTESIAN_POINT('',(-11.1803398874989,4.8,100.));
#1849=CARTESIAN_POINT('',(-11.1803398874989,0.,100.));
#1850=CARTESIAN_POINT('',(-12.35,4.8,98.513371834943));
#1851=CARTESIAN_POINT('Origin',(0.,4.8,90.));
#1852=CARTESIAN_POINT('',(-12.35,13.,98.513371834943));
#1853=CARTESIAN_POINT('',(-12.35,0.,98.513371834943));
#1854=CARTESIAN_POINT('',(-14.9812382665786,13.,90.75));
#1855=CARTESIAN_POINT('Origin',(0.,13.,90.));
#1856=CARTESIAN_POINT('',(-14.9812382665786,0.,90.75));
#1857=CARTESIAN_POINT('',(-12.6885775404495,5.87113334597793,82.));
#1858=CARTESIAN_POINT('',(-12.6885775404495,7.12886665402207,82.));
#1859=CARTESIAN_POINT('Ctrl Pts',(-12.6885775404495,5.87113334597793,82.));
#1860=CARTESIAN_POINT('Ctrl Pts',(-12.6493085377648,5.67202553958445,81.9377165268124));
#1861=CARTESIAN_POINT('Ctrl Pts',(-12.5922789281257,5.48159806399609,81.8482524790739));
#1862=CARTESIAN_POINT('Ctrl Pts',(-12.3791726732795,4.94357446601068,81.5251546498612));
#1863=CARTESIAN_POINT('Ctrl Pts',(-12.1794713182976,4.63237126634347,81.237417419336));
#1864=CARTESIAN_POINT('Ctrl Pts',(-11.6708897470291,4.03844549796576,80.5642025164448));
#1865=CARTESIAN_POINT('Ctrl Pts',(-11.2941914139245,3.74980278170256,80.1094676527714));
#1866=CARTESIAN_POINT('Ctrl Pts',(-10.442934661142,3.35459369964116,79.2145233030086));
#1867=CARTESIAN_POINT('Ctrl Pts',(-9.96742534761453,3.25,78.7743484988891));
#1868=CARTESIAN_POINT('Ctrl Pts',(-9.11588800165752,3.25,78.0774606085154));
#1869=CARTESIAN_POINT('Ctrl Pts',(-8.68325803882101,3.3222926383561,77.7586814115887));
#1870=CARTESIAN_POINT('Ctrl Pts',(-7.85076315398384,3.66364479774691,77.2088168517513));
#1871=CARTESIAN_POINT('Ctrl Pts',(-7.45193626694098,3.93395834204004,76.9769398828806));
#1872=CARTESIAN_POINT('Ctrl Pts',(-6.87505346811077,4.5470926784491,76.6650978718328));
#1873=CARTESIAN_POINT('Ctrl Pts',(-6.64198631557522,4.89713928289026,76.5495694198223));
#1874=CARTESIAN_POINT('Ctrl Pts',(-6.32929685941995,5.67292791065003,76.3996299858494));
#1875=CARTESIAN_POINT('Ctrl Pts',(-6.25,6.09858630589366,76.3641098567054));
#1876=CARTESIAN_POINT('Ctrl Pts',(-6.25,6.5,76.3641098567054));
#1877=CARTESIAN_POINT('Ctrl Pts',(-6.25,6.90141369410634,76.3641098567054));
#1878=CARTESIAN_POINT('Ctrl Pts',(-6.32929685941995,7.32707208934997,76.3996299858494));
#1879=CARTESIAN_POINT('Ctrl Pts',(-6.64198631557522,8.10286071710974,76.5495694198223));
#1880=CARTESIAN_POINT('Ctrl Pts',(-6.87505346811077,8.4529073215509,76.6650978718328));
#1881=CARTESIAN_POINT('Ctrl Pts',(-7.45193626694098,9.06604165795996,76.9769398828806));
#1882=CARTESIAN_POINT('Ctrl Pts',(-7.85076315398384,9.33635520225309,77.2088168517513));
#1883=CARTESIAN_POINT('Ctrl Pts',(-8.68325803882101,9.6777073616439,77.7586814115887));
#1884=CARTESIAN_POINT('Ctrl Pts',(-9.11588800165752,9.75,78.0774606085154));
#1885=CARTESIAN_POINT('Ctrl Pts',(-9.96742534761453,9.75,78.7743484988891));
#1886=CARTESIAN_POINT('Ctrl Pts',(-10.442934661142,9.64540630035884,79.2145233030086));
#1887=CARTESIAN_POINT('Ctrl Pts',(-11.2941914139245,9.25019721829744,80.1094676527714));
#1888=CARTESIAN_POINT('Ctrl Pts',(-11.6708897470291,8.96155450203424,80.5642025164448));
#1889=CARTESIAN_POINT('Ctrl Pts',(-12.1794713182976,8.36762873365653,81.237417419336));
#1890=CARTESIAN_POINT('Ctrl Pts',(-12.3791726732795,8.05642553398932,81.5251546498612));
#1891=CARTESIAN_POINT('Ctrl Pts',(-12.5922789279409,7.51840193647051,81.8482524787937));
#1892=CARTESIAN_POINT('Ctrl Pts',(-12.6493085517293,7.32797438961063,81.937716548961));
#1893=CARTESIAN_POINT('Ctrl Pts',(-12.6885775404495,7.12886665402207,82.));
#1894=CARTESIAN_POINT('',(-12.6885775404495,0.,82.));
#1895=CARTESIAN_POINT('',(5.38516480713449,12.,76.));
#1896=CARTESIAN_POINT('',(5.38516480713449,12.,104.));
#1897=CARTESIAN_POINT('Origin',(0.,12.,90.));
#1898=CARTESIAN_POINT('',(5.38516480713449,-12.,76.));
#1899=CARTESIAN_POINT('',(5.38516480713449,0.,76.));
#1900=CARTESIAN_POINT('',(5.38516480713449,-12.,104.));
#1901=CARTESIAN_POINT('Origin',(0.,-12.,90.));
#1902=CARTESIAN_POINT('',(5.38516480713449,0.,104.));
#1903=CARTESIAN_POINT('',(-12.6885775404495,-7.12886665402207,82.));
#1904=CARTESIAN_POINT('',(-12.6885775404495,-5.87113334597793,82.));
#1905=CARTESIAN_POINT('Ctrl Pts',(-12.6885775404495,-7.12886665402207,82.));
#1906=CARTESIAN_POINT('Ctrl Pts',(-12.6493085377648,-7.32797446041555,81.9377165268124));
#1907=CARTESIAN_POINT('Ctrl Pts',(-12.5922789281257,-7.51840193600391,81.8482524790739));
#1908=CARTESIAN_POINT('Ctrl Pts',(-12.3791726732795,-8.05642553398932,81.5251546498612));
#1909=CARTESIAN_POINT('Ctrl Pts',(-12.1794713182976,-8.36762873365653,81.237417419336));
#1910=CARTESIAN_POINT('Ctrl Pts',(-11.6708897470291,-8.96155450203423,80.5642025164448));
#1911=CARTESIAN_POINT('Ctrl Pts',(-11.2941914139245,-9.25019721829744,80.1094676527714));
#1912=CARTESIAN_POINT('Ctrl Pts',(-10.442934661142,-9.64540630035884,79.2145233030086));
#1913=CARTESIAN_POINT('Ctrl Pts',(-9.96742534761453,-9.75,78.7743484988891));
#1914=CARTESIAN_POINT('Ctrl Pts',(-9.11588800165752,-9.75,78.0774606085154));
#1915=CARTESIAN_POINT('Ctrl Pts',(-8.68325803882101,-9.6777073616439,77.7586814115887));
#1916=CARTESIAN_POINT('Ctrl Pts',(-7.85076315398384,-9.33635520225309,77.2088168517513));
#1917=CARTESIAN_POINT('Ctrl Pts',(-7.45193626694098,-9.06604165795996,76.9769398828806));
#1918=CARTESIAN_POINT('Ctrl Pts',(-6.87505346811077,-8.4529073215509,76.6650978718328));
#1919=CARTESIAN_POINT('Ctrl Pts',(-6.64198631557522,-8.10286071710974,76.5495694198223));
#1920=CARTESIAN_POINT('Ctrl Pts',(-6.32929685941995,-7.32707208934997,76.3996299858494));
#1921=CARTESIAN_POINT('Ctrl Pts',(-6.25,-6.90141369410634,76.3641098567054));
#1922=CARTESIAN_POINT('Ctrl Pts',(-6.25,-6.5,76.3641098567054));
#1923=CARTESIAN_POINT('Ctrl Pts',(-6.25,-6.09858630589366,76.3641098567054));
#1924=CARTESIAN_POINT('Ctrl Pts',(-6.32929685941995,-5.67292791065003,76.3996299858494));
#1925=CARTESIAN_POINT('Ctrl Pts',(-6.64198631557522,-4.89713928289026,76.5495694198223));
#1926=CARTESIAN_POINT('Ctrl Pts',(-6.87505346811077,-4.5470926784491,76.6650978718328));
#1927=CARTESIAN_POINT('Ctrl Pts',(-7.45193626694098,-3.93395834204004,76.9769398828806));
#1928=CARTESIAN_POINT('Ctrl Pts',(-7.85076315398384,-3.66364479774691,77.2088168517513));
#1929=CARTESIAN_POINT('Ctrl Pts',(-8.68325803882101,-3.3222926383561,77.7586814115887));
#1930=CARTESIAN_POINT('Ctrl Pts',(-9.11588800165752,-3.25,78.0774606085154));
#1931=CARTESIAN_POINT('Ctrl Pts',(-9.96742534761453,-3.25,78.7743484988891));
#1932=CARTESIAN_POINT('Ctrl Pts',(-10.442934661142,-3.35459369964116,79.2145233030086));
#1933=CARTESIAN_POINT('Ctrl Pts',(-11.2941914139245,-3.74980278170256,80.1094676527714));
#1934=CARTESIAN_POINT('Ctrl Pts',(-11.6708897470291,-4.03844549796576,80.5642025164448));
#1935=CARTESIAN_POINT('Ctrl Pts',(-12.1794713182976,-4.63237126634347,81.237417419336));
#1936=CARTESIAN_POINT('Ctrl Pts',(-12.3791726732795,-4.94357446601068,81.5251546498612));
#1937=CARTESIAN_POINT('Ctrl Pts',(-12.5922789279409,-5.48159806352949,81.8482524787937));
#1938=CARTESIAN_POINT('Ctrl Pts',(-12.6493085517293,-5.67202561038937,81.937716548961));
#1939=CARTESIAN_POINT('Ctrl Pts',(-12.6885775404495,-5.87113334597793,82.));
#1940=CARTESIAN_POINT('',(-12.6885775404495,0.,82.));
#1941=CARTESIAN_POINT('Origin',(-9.5,-6.5,82.));
#1942=CARTESIAN_POINT('Origin',(-9.5,-6.5,82.));
#1943=CARTESIAN_POINT('',(-11.2,-6.5,82.));
#1944=CARTESIAN_POINT('Origin',(-9.5,-6.5,82.));
#1945=CARTESIAN_POINT('Origin',(-9.5,-6.5,78.));
#1946=CARTESIAN_POINT('Origin',(-9.5,-6.5,90.));
#1947=CARTESIAN_POINT('',(-11.2,-6.5,89.25));
#1948=CARTESIAN_POINT('',(-11.2,-6.5,90.));
#1949=CARTESIAN_POINT('Origin',(-9.5,-6.5,89.25));
#1950=CARTESIAN_POINT('Origin',(-9.5,-6.5,90.));
#1951=CARTESIAN_POINT('',(-11.2,-6.5,90.75));
#1952=CARTESIAN_POINT('Origin',(-9.5,-6.5,90.75));
#1953=CARTESIAN_POINT('',(-11.2,-6.5,90.));
#1954=CARTESIAN_POINT('Origin',(-9.5,9.4,100.));
#1955=CARTESIAN_POINT('',(-9.5,4.8,100.));
#1956=CARTESIAN_POINT('Origin',(-9.5,6.5,100.));
#1957=CARTESIAN_POINT('',(-9.5,4.8,100.));
#1958=CARTESIAN_POINT('Origin',(-12.35,9.4,98.7));
#1959=CARTESIAN_POINT('',(-12.35,4.8,97.4));
#1960=CARTESIAN_POINT('',(-12.35,4.8,98.7));
#1961=CARTESIAN_POINT('',(-12.35,13.,97.4));
#1962=CARTESIAN_POINT('',(-12.35,9.4,97.4));
#1963=CARTESIAN_POINT('',(-12.35,13.,94.35));
#1964=CARTESIAN_POINT('Origin',(-9.5,9.4,97.4));
#1965=CARTESIAN_POINT('',(-6.65,13.,97.4));
#1966=CARTESIAN_POINT('',(-4.75,13.,97.4));
#1967=CARTESIAN_POINT('',(-9.5,4.8,97.4));
#1968=CARTESIAN_POINT('',(-9.5,4.8,97.4));
#1969=CARTESIAN_POINT('',(-11.2,6.5,97.4));
#1970=CARTESIAN_POINT('Origin',(-9.5,6.5,97.4));
#1971=CARTESIAN_POINT('Origin',(-9.5,6.5,97.4));
#1972=CARTESIAN_POINT('',(-6.65,4.8,97.4));
#1973=CARTESIAN_POINT('',(-9.5,4.8,97.4));
#1974=CARTESIAN_POINT('',(-6.65,9.4,97.4));
#1975=CARTESIAN_POINT('Origin',(-9.5,9.4,100.));
#1976=CARTESIAN_POINT('Origin',(-9.5,6.5,100.));
#1977=CARTESIAN_POINT('',(-6.65,13.,100.));
#1978=CARTESIAN_POINT('',(-4.75,13.,100.));
#1979=CARTESIAN_POINT('',(-6.65,4.8,100.));
#1980=CARTESIAN_POINT('',(-6.65,9.4,100.));
#1981=CARTESIAN_POINT('',(-9.5,4.8,100.));
#1982=CARTESIAN_POINT('Origin',(-9.5,4.8,98.7));
#1983=CARTESIAN_POINT('',(-6.65,4.8,98.7));
#1984=CARTESIAN_POINT('Origin',(-6.65,9.4,98.7));
#1985=CARTESIAN_POINT('',(-6.65,13.,94.35));
#1986=CARTESIAN_POINT('Origin',(-9.5,6.5,90.));
#1987=CARTESIAN_POINT('Origin',(-9.5,6.5,82.));
#1988=CARTESIAN_POINT('Origin',(-9.5,6.5,82.));
#1989=CARTESIAN_POINT('',(-11.2,6.5,82.));
#1990=CARTESIAN_POINT('Origin',(-9.5,6.5,82.));
#1991=CARTESIAN_POINT('Origin',(-9.5,6.5,78.));
#1992=CARTESIAN_POINT('Origin',(-9.5,6.5,90.));
#1993=CARTESIAN_POINT('',(-11.2,6.5,89.25));
#1994=CARTESIAN_POINT('',(-11.2,6.5,90.));
#1995=CARTESIAN_POINT('Origin',(-9.5,6.5,89.25));
#1996=CARTESIAN_POINT('Origin',(-9.5,6.5,90.));
#1997=CARTESIAN_POINT('',(-11.2,6.5,90.75));
#1998=CARTESIAN_POINT('Origin',(-9.5,6.5,90.75));
#1999=CARTESIAN_POINT('',(-11.2,6.5,90.));
#2000=CARTESIAN_POINT('Origin',(-9.9875,0.,90.75));
#2001=CARTESIAN_POINT('',(-4.10708229769018,13.,90.75));
#2002=CARTESIAN_POINT('',(-4.99375,13.,90.75));
#2003=CARTESIAN_POINT('',(-4.10708229769018,0.,90.75));
#2004=CARTESIAN_POINT('Origin',(-9.9875,0.,89.25));
#2005=CARTESIAN_POINT('',(-4.10708229769018,13.,89.25));
#2006=CARTESIAN_POINT('',(-4.10708229769018,0.,89.25));
#2007=CARTESIAN_POINT('',(-4.99375,13.,89.25));
#2008=CARTESIAN_POINT('Origin',(0.,13.,90.));
#2009=CARTESIAN_POINT('Origin',(0.,13.,90.));
#2010=CARTESIAN_POINT('Origin',(0.,0.,90.));
#2011=CARTESIAN_POINT('Origin',(31.,-12.,90.));
#2012=CARTESIAN_POINT('',(62.,-12.,76.));
#2013=CARTESIAN_POINT('',(31.,-12.,76.));
#2014=CARTESIAN_POINT('',(62.,-12.,77.));
#2015=CARTESIAN_POINT('',(62.,-12.,90.));
#2016=CARTESIAN_POINT('',(52.,-12.,77.));
#2017=CARTESIAN_POINT('',(44.,-12.,77.));
#2018=CARTESIAN_POINT('',(52.,-12.,103.));
#2019=CARTESIAN_POINT('',(52.,-12.,90.));
#2020=CARTESIAN_POINT('',(62.,-12.,103.));
#2021=CARTESIAN_POINT('',(44.,-12.,103.));
#2022=CARTESIAN_POINT('',(62.,-12.,104.));
#2023=CARTESIAN_POINT('',(62.,-12.,90.));
#2024=CARTESIAN_POINT('',(31.,-12.,104.));
#2025=CARTESIAN_POINT('Origin',(31.,0.,76.));
#2026=CARTESIAN_POINT('',(62.,12.,76.));
#2027=CARTESIAN_POINT('',(31.,12.,76.));
#2028=CARTESIAN_POINT('',(62.,0.,76.));
#2029=CARTESIAN_POINT('Origin',(120.,-29.5,90.));
#2030=CARTESIAN_POINT('',(82.,-35.5,90.));
#2031=CARTESIAN_POINT('Origin',(120.,-35.5,90.));
#2032=CARTESIAN_POINT('',(82.,-34.5,90.));
#2033=CARTESIAN_POINT('',(82.,-29.5,90.));
#2034=CARTESIAN_POINT('',(84.2928578572857,-34.5,77.));
#2035=CARTESIAN_POINT('Origin',(120.,-34.5,90.));
#2036=CARTESIAN_POINT('',(84.2928578572857,-23.5,77.));
#2037=CARTESIAN_POINT('',(84.2928578572857,-29.5,77.));
#2038=CARTESIAN_POINT('',(84.2928578572858,-23.5,103.));
#2039=CARTESIAN_POINT('Origin',(120.,-23.5,90.));
#2040=CARTESIAN_POINT('',(84.2928578572858,-34.5,103.));
#2041=CARTESIAN_POINT('',(84.2928578572858,-29.5,103.));
#2042=CARTESIAN_POINT('Origin',(120.,-34.5,90.));
#2043=CARTESIAN_POINT('Origin',(120.,-35.5,90.));
#2044=CARTESIAN_POINT('Origin',(57.,-4.875,103.));
#2045=CARTESIAN_POINT('',(62.,-23.5,103.));
#2046=CARTESIAN_POINT('',(86.,-23.5,103.));
#2047=CARTESIAN_POINT('',(62.,-4.875,103.));
#2048=CARTESIAN_POINT('',(52.,-34.5,103.));
#2049=CARTESIAN_POINT('',(52.,-4.875,103.));
#2050=CARTESIAN_POINT('',(86.,-34.5,103.));
#2051=CARTESIAN_POINT('Origin',(86.,-23.5,90.));
#2052=CARTESIAN_POINT('',(62.,-23.5,77.));
#2053=CARTESIAN_POINT('',(86.,-23.5,77.));
#2054=CARTESIAN_POINT('',(62.,-23.5,90.));
#2055=CARTESIAN_POINT('Origin',(120.,19.75,90.));
#2056=CARTESIAN_POINT('',(97.,25.75,90.));
#2057=CARTESIAN_POINT('Origin',(120.,25.75,90.));
#2058=CARTESIAN_POINT('',(97.,24.75,90.));
#2059=CARTESIAN_POINT('',(97.,19.75,90.));
#2060=CARTESIAN_POINT('',(101.02633403899,24.75,103.));
#2061=CARTESIAN_POINT('Origin',(120.,24.75,90.));
#2062=CARTESIAN_POINT('',(101.02633403899,13.75,103.));
#2063=CARTESIAN_POINT('',(101.02633403899,19.75,103.));
#2064=CARTESIAN_POINT('',(101.02633403899,13.75,77.));
#2065=CARTESIAN_POINT('Origin',(120.,13.75,90.));
#2066=CARTESIAN_POINT('',(101.02633403899,24.75,77.));
#2067=CARTESIAN_POINT('',(101.02633403899,19.75,77.));
#2068=CARTESIAN_POINT('Origin',(120.,24.75,90.));
#2069=CARTESIAN_POINT('Origin',(120.,25.75,90.));
#2070=CARTESIAN_POINT('Origin',(57.,-4.875,77.));
#2071=CARTESIAN_POINT('',(62.,13.75,77.));
#2072=CARTESIAN_POINT('',(86.,13.75,77.));
#2073=CARTESIAN_POINT('',(62.,12.,77.));
#2074=CARTESIAN_POINT('',(62.,-4.875,77.));
#2075=CARTESIAN_POINT('',(52.,12.,77.));
#2076=CARTESIAN_POINT('',(44.,12.,77.));
#2077=CARTESIAN_POINT('',(52.,24.75,77.));
#2078=CARTESIAN_POINT('',(52.,-4.875,77.));
#2079=CARTESIAN_POINT('',(86.,24.75,77.));
#2080=CARTESIAN_POINT('Origin',(86.,13.75,90.));
#2081=CARTESIAN_POINT('',(62.,13.75,103.));
#2082=CARTESIAN_POINT('',(86.,13.75,103.));
#2083=CARTESIAN_POINT('',(62.,13.75,90.));
#2084=CARTESIAN_POINT('Origin',(62.,0.,90.));
#2085=CARTESIAN_POINT('',(62.,-4.875,77.));
#2086=CARTESIAN_POINT('',(62.,12.,90.));
#2087=CARTESIAN_POINT('',(62.,12.,103.));
#2088=CARTESIAN_POINT('',(62.,-4.875,103.));
#2089=CARTESIAN_POINT('',(62.,12.,104.));
#2090=CARTESIAN_POINT('',(62.,12.,90.));
#2091=CARTESIAN_POINT('',(62.,0.,104.));
#2092=CARTESIAN_POINT('Origin',(57.,-4.875,77.));
#2093=CARTESIAN_POINT('',(52.,-34.5,77.));
#2094=CARTESIAN_POINT('',(86.,-34.5,77.));
#2095=CARTESIAN_POINT('',(52.,-4.875,77.));
#2096=CARTESIAN_POINT('Origin',(57.,-4.875,103.));
#2097=CARTESIAN_POINT('',(52.,24.75,103.));
#2098=CARTESIAN_POINT('',(57.,24.75,103.));
#2099=CARTESIAN_POINT('',(52.,12.,103.));
#2100=CARTESIAN_POINT('',(52.,-4.875,103.));
#2101=CARTESIAN_POINT('',(44.,12.,103.));
#2102=CARTESIAN_POINT('Origin',(52.,-4.875,90.));
#2103=CARTESIAN_POINT('',(52.,12.,90.));
#2104=CARTESIAN_POINT('',(52.,24.75,90.));
#2105=CARTESIAN_POINT('Origin',(52.,-4.875,90.));
#2106=CARTESIAN_POINT('',(52.,-34.5,90.));
#2107=CARTESIAN_POINT('Origin',(57.,-34.5,90.));
#2108=CARTESIAN_POINT('Origin',(57.,24.75,90.));
#2109=CARTESIAN_POINT('Origin',(31.,12.,90.));
#2110=CARTESIAN_POINT('',(31.,12.,104.));
#2111=CARTESIAN_POINT('Origin',(31.,0.,104.));
#2112=UNCERTAINTY_MEASURE_WITH_UNIT(LENGTH_MEASURE(0.01),#2116,
'DISTANCE_ACCURACY_VALUE',
'Maximum model space distance between geometric entities at asserted c
onnectivities');
#2113=UNCERTAINTY_MEASURE_WITH_UNIT(LENGTH_MEASURE(0.01),#2116,
'DISTANCE_ACCURACY_VALUE',
'Maximum model space distance between geometric entities at asserted c
onnectivities');
#2114=(
GEOMETRIC_REPRESENTATION_CONTEXT(3)
GLOBAL_UNCERTAINTY_ASSIGNED_CONTEXT((#2112))
GLOBAL_UNIT_ASSIGNED_CONTEXT((#2116,#2118,#2119))
REPRESENTATION_CONTEXT('','3D')
);
#2115=(
GEOMETRIC_REPRESENTATION_CONTEXT(3)
GLOBAL_UNCERTAINTY_ASSIGNED_CONTEXT((#2113))
GLOBAL_UNIT_ASSIGNED_CONTEXT((#2116,#2118,#2119))
REPRESENTATION_CONTEXT('','3D')
);
#2116=(
LENGTH_UNIT()
NAMED_UNIT(*)
SI_UNIT(.MILLI.,.METRE.)
);
#2117=(
LENGTH_UNIT()
NAMED_UNIT(*)
SI_UNIT($,.METRE.)
);
#2118=(
NAMED_UNIT(*)
PLANE_ANGLE_UNIT()
SI_UNIT($,.RADIAN.)
);
#2119=(
NAMED_UNIT(*)
SI_UNIT($,.STERADIAN.)
SOLID_ANGLE_UNIT()
);
#2120=SHAPE_DEFINITION_REPRESENTATION(#2121,#2122);
#2121=PRODUCT_DEFINITION_SHAPE('',$,#2124);
#2122=SHAPE_REPRESENTATION('',(#1176),#2114);
#2123=PRODUCT_DEFINITION_CONTEXT('part definition',#2128,'design');
#2124=PRODUCT_DEFINITION('rt_upper_arm','rt_upper_arm',#2125,#2123);
#2125=PRODUCT_DEFINITION_FORMATION('',$,#2130);
#2126=PRODUCT_RELATED_PRODUCT_CATEGORY('rt_upper_arm','rt_upper_arm',(#2130));
#2127=APPLICATION_PROTOCOL_DEFINITION('international standard',
'automotive_design',2009,#2128);
#2128=APPLICATION_CONTEXT(
'Core Data for Automotive Mechanical Design Process');
#2129=PRODUCT_CONTEXT('part definition',#2128,'mechanical');
#2130=PRODUCT('rt_upper_arm','rt_upper_arm',$,(#2129));
#2131=PRESENTATION_STYLE_ASSIGNMENT((#2132));
#2132=SURFACE_STYLE_USAGE(.BOTH.,#2133);
#2133=SURFACE_SIDE_STYLE('',(#2134));
#2134=SURFACE_STYLE_FILL_AREA(#2135);
#2135=FILL_AREA_STYLE('Steel - Satin',(#2136));
#2136=FILL_AREA_STYLE_COLOUR('Steel - Satin',#2137);
#2137=COLOUR_RGB('Steel - Satin',0.627450980392157,0.627450980392157,0.627450980392157);
ENDSEC;
END-ISO-10303-21;
