ISO-10303-21;
HEADER;
/* Generated by software containing ST-Developer
 * from STEP Tools, Inc. (www.steptools.com) 
 */

FILE_DESCRIPTION(
/* description */ (''),
/* implementation_level */ '2;1');

FILE_NAME(
/* name */ 'rt_yaw_column.step',
/* time_stamp */ '2026-07-20T18:38:23-04:00',
/* author */ (''),
/* organization */ (''),
/* preprocessor_version */ 'ST-DEVELOPER v20.1',
/* originating_system */ 'Autodesk Translation Framework v15.8.0.0',
/* authorisation */ '');

FILE_SCHEMA (('AUTOMOTIVE_DESIGN { 1 0 10303 214 3 1 1 }'));
ENDSEC;

DATA;
#10=MECHANICAL_DESIGN_GEOMETRIC_PRESENTATION_REPRESENTATION('',(#13),#1400);
#11=SHAPE_REPRESENTATION_RELATIONSHIP('SRR','None',#1407,#12);
#12=ADVANCED_BREP_SHAPE_REPRESENTATION('',(#14),#1399);
#13=STYLED_ITEM('',(#1416),#14);
#14=MANIFOLD_SOLID_BREP('Body1',#792);
#15=FACE_BOUND('',#120,.T.);
#16=FACE_BOUND('',#121,.T.);
#17=FACE_BOUND('',#122,.T.);
#18=FACE_BOUND('',#123,.T.);
#19=FACE_BOUND('',#124,.T.);
#20=FACE_BOUND('',#125,.T.);
#21=FACE_BOUND('',#126,.T.);
#22=FACE_BOUND('',#127,.T.);
#23=FACE_BOUND('',#142,.T.);
#24=FACE_BOUND('',#146,.T.);
#25=FACE_BOUND('',#150,.T.);
#26=FACE_BOUND('',#153,.T.);
#27=FACE_BOUND('',#156,.T.);
#28=FACE_BOUND('',#159,.T.);
#29=FACE_BOUND('',#168,.T.);
#30=FACE_BOUND('',#169,.T.);
#31=FACE_BOUND('',#170,.T.);
#32=FACE_BOUND('',#171,.T.);
#33=FACE_BOUND('',#172,.T.);
#34=FACE_BOUND('',#178,.T.);
#35=FACE_BOUND('',#180,.T.);
#36=FACE_BOUND('',#181,.T.);
#37=FACE_BOUND('',#182,.T.);
#38=FACE_BOUND('',#183,.T.);
#39=FACE_BOUND('',#188,.T.);
#40=FACE_BOUND('',#191,.T.);
#41=B_SPLINE_CURVE_WITH_KNOTS('',3,(#1173,#1174,#1175,#1176,#1177,#1178,
#1179,#1180,#1181,#1182,#1183,#1184,#1185,#1186),.UNSPECIFIED.,.F.,.F.,
(4,2,2,2,2,2,4),(2.96759279952585,3.07587156000308,3.58418514247732,4.09249872495156,
4.6008123074258,5.10912588990004,5.21740465037727),.UNSPECIFIED.);
#42=CYLINDRICAL_SURFACE('',#808,26.);
#43=CYLINDRICAL_SURFACE('',#819,2.3);
#44=CYLINDRICAL_SURFACE('',#822,2.3);
#45=CYLINDRICAL_SURFACE('',#825,2.3);
#46=CYLINDRICAL_SURFACE('',#828,2.3);
#47=CYLINDRICAL_SURFACE('',#831,2.3);
#48=CYLINDRICAL_SURFACE('',#834,2.3);
#49=CYLINDRICAL_SURFACE('',#837,18.65);
#50=CYLINDRICAL_SURFACE('',#842,13.5);
#51=CYLINDRICAL_SURFACE('',#843,11.1);
#52=CYLINDRICAL_SURFACE('',#848,8.);
#53=CYLINDRICAL_SURFACE('',#850,3.25);
#54=CYLINDRICAL_SURFACE('',#855,3.25);
#55=CYLINDRICAL_SURFACE('',#860,3.25);
#56=CYLINDRICAL_SURFACE('',#865,3.25);
#57=CYLINDRICAL_SURFACE('',#870,1.7);
#58=CYLINDRICAL_SURFACE('',#872,1.7);
#59=CYLINDRICAL_SURFACE('',#874,1.7);
#60=CYLINDRICAL_SURFACE('',#876,1.7);
#61=CYLINDRICAL_SURFACE('',#878,4.25);
#62=CYLINDRICAL_SURFACE('',#882,38.);
#63=CYLINDRICAL_SURFACE('',#887,34.);
#64=CYLINDRICAL_SURFACE('',#890,23.);
#65=CYLINDRICAL_SURFACE('',#893,23.);
#66=CYLINDRICAL_SURFACE('',#907,34.);
#67=FACE_OUTER_BOUND('',#117,.T.);
#68=FACE_OUTER_BOUND('',#118,.T.);
#69=FACE_OUTER_BOUND('',#119,.T.);
#70=FACE_OUTER_BOUND('',#128,.T.);
#71=FACE_OUTER_BOUND('',#129,.T.);
#72=FACE_OUTER_BOUND('',#130,.T.);
#73=FACE_OUTER_BOUND('',#131,.T.);
#74=FACE_OUTER_BOUND('',#132,.T.);
#75=FACE_OUTER_BOUND('',#133,.T.);
#76=FACE_OUTER_BOUND('',#134,.T.);
#77=FACE_OUTER_BOUND('',#135,.T.);
#78=FACE_OUTER_BOUND('',#136,.T.);
#79=FACE_OUTER_BOUND('',#137,.T.);
#80=FACE_OUTER_BOUND('',#138,.T.);
#81=FACE_OUTER_BOUND('',#139,.T.);
#82=FACE_OUTER_BOUND('',#140,.T.);
#83=FACE_OUTER_BOUND('',#141,.T.);
#84=FACE_OUTER_BOUND('',#143,.T.);
#85=FACE_OUTER_BOUND('',#144,.T.);
#86=FACE_OUTER_BOUND('',#145,.T.);
#87=FACE_OUTER_BOUND('',#147,.T.);
#88=FACE_OUTER_BOUND('',#148,.T.);
#89=FACE_OUTER_BOUND('',#149,.T.);
#90=FACE_OUTER_BOUND('',#151,.T.);
#91=FACE_OUTER_BOUND('',#152,.T.);
#92=FACE_OUTER_BOUND('',#154,.T.);
#93=FACE_OUTER_BOUND('',#155,.T.);
#94=FACE_OUTER_BOUND('',#157,.T.);
#95=FACE_OUTER_BOUND('',#158,.T.);
#96=FACE_OUTER_BOUND('',#160,.T.);
#97=FACE_OUTER_BOUND('',#161,.T.);
#98=FACE_OUTER_BOUND('',#162,.T.);
#99=FACE_OUTER_BOUND('',#163,.T.);
#100=FACE_OUTER_BOUND('',#164,.T.);
#101=FACE_OUTER_BOUND('',#165,.T.);
#102=FACE_OUTER_BOUND('',#166,.T.);
#103=FACE_OUTER_BOUND('',#167,.T.);
#104=FACE_OUTER_BOUND('',#173,.T.);
#105=FACE_OUTER_BOUND('',#174,.T.);
#106=FACE_OUTER_BOUND('',#175,.T.);
#107=FACE_OUTER_BOUND('',#176,.T.);
#108=FACE_OUTER_BOUND('',#177,.T.);
#109=FACE_OUTER_BOUND('',#179,.T.);
#110=FACE_OUTER_BOUND('',#184,.T.);
#111=FACE_OUTER_BOUND('',#185,.T.);
#112=FACE_OUTER_BOUND('',#186,.T.);
#113=FACE_OUTER_BOUND('',#187,.T.);
#114=FACE_OUTER_BOUND('',#189,.T.);
#115=FACE_OUTER_BOUND('',#190,.T.);
#116=FACE_OUTER_BOUND('',#192,.T.);
#117=EDGE_LOOP('',(#513,#514));
#118=EDGE_LOOP('',(#515,#516,#517,#518));
#119=EDGE_LOOP('',(#519,#520,#521,#522,#523));
#120=EDGE_LOOP('',(#524));
#121=EDGE_LOOP('',(#525));
#122=EDGE_LOOP('',(#526));
#123=EDGE_LOOP('',(#527));
#124=EDGE_LOOP('',(#528));
#125=EDGE_LOOP('',(#529));
#126=EDGE_LOOP('',(#530));
#127=EDGE_LOOP('',(#531,#532,#533,#534));
#128=EDGE_LOOP('',(#535,#536,#537,#538));
#129=EDGE_LOOP('',(#539));
#130=EDGE_LOOP('',(#540,#541,#542,#543));
#131=EDGE_LOOP('',(#544));
#132=EDGE_LOOP('',(#545,#546,#547,#548));
#133=EDGE_LOOP('',(#549));
#134=EDGE_LOOP('',(#550,#551,#552,#553));
#135=EDGE_LOOP('',(#554));
#136=EDGE_LOOP('',(#555,#556,#557,#558));
#137=EDGE_LOOP('',(#559));
#138=EDGE_LOOP('',(#560,#561,#562,#563));
#139=EDGE_LOOP('',(#564));
#140=EDGE_LOOP('',(#565,#566,#567,#568));
#141=EDGE_LOOP('',(#569));
#142=EDGE_LOOP('',(#570));
#143=EDGE_LOOP('',(#571,#572,#573,#574));
#144=EDGE_LOOP('',(#575,#576,#577,#578));
#145=EDGE_LOOP('',(#579));
#146=EDGE_LOOP('',(#580));
#147=EDGE_LOOP('',(#581,#582,#583,#584));
#148=EDGE_LOOP('',(#585,#586,#587,#588));
#149=EDGE_LOOP('',(#589));
#150=EDGE_LOOP('',(#590));
#151=EDGE_LOOP('',(#591,#592,#593,#594));
#152=EDGE_LOOP('',(#595));
#153=EDGE_LOOP('',(#596));
#154=EDGE_LOOP('',(#597,#598,#599,#600));
#155=EDGE_LOOP('',(#601));
#156=EDGE_LOOP('',(#602));
#157=EDGE_LOOP('',(#603,#604,#605,#606));
#158=EDGE_LOOP('',(#607));
#159=EDGE_LOOP('',(#608));
#160=EDGE_LOOP('',(#609,#610,#611,#612));
#161=EDGE_LOOP('',(#613,#614,#615,#616));
#162=EDGE_LOOP('',(#617,#618,#619,#620));
#163=EDGE_LOOP('',(#621,#622,#623,#624));
#164=EDGE_LOOP('',(#625,#626,#627,#628));
#165=EDGE_LOOP('',(#629));
#166=EDGE_LOOP('',(#630,#631,#632,#633,#634,#635));
#167=EDGE_LOOP('',(#636,#637,#638,#639,#640,#641,#642,#643));
#168=EDGE_LOOP('',(#644));
#169=EDGE_LOOP('',(#645));
#170=EDGE_LOOP('',(#646));
#171=EDGE_LOOP('',(#647));
#172=EDGE_LOOP('',(#648));
#173=EDGE_LOOP('',(#649,#650,#651,#652,#653,#654));
#174=EDGE_LOOP('',(#655,#656,#657,#658));
#175=EDGE_LOOP('',(#659,#660,#661,#662));
#176=EDGE_LOOP('',(#663,#664));
#177=EDGE_LOOP('',(#665));
#178=EDGE_LOOP('',(#666));
#179=EDGE_LOOP('',(#667,#668,#669,#670,#671,#672));
#180=EDGE_LOOP('',(#673));
#181=EDGE_LOOP('',(#674));
#182=EDGE_LOOP('',(#675));
#183=EDGE_LOOP('',(#676));
#184=EDGE_LOOP('',(#677,#678,#679));
#185=EDGE_LOOP('',(#680,#681,#682));
#186=EDGE_LOOP('',(#683,#684,#685,#686,#687,#688));
#187=EDGE_LOOP('',(#689,#690,#691,#692));
#188=EDGE_LOOP('',(#693));
#189=EDGE_LOOP('',(#694,#695,#696,#697,#698,#699));
#190=EDGE_LOOP('',(#700,#701,#702,#703,#704,#705,#706,#707,#708,#709));
#191=EDGE_LOOP('',(#710));
#192=EDGE_LOOP('',(#711,#712,#713,#714,#715,#716));
#193=CIRCLE('',#807,26.);
#194=CIRCLE('',#810,38.);
#195=CIRCLE('',#811,38.);
#196=CIRCLE('',#812,2.3);
#197=CIRCLE('',#813,2.3);
#198=CIRCLE('',#814,2.3);
#199=CIRCLE('',#815,2.3);
#200=CIRCLE('',#816,2.3);
#201=CIRCLE('',#817,2.3);
#202=CIRCLE('',#818,13.5);
#203=CIRCLE('',#820,2.3);
#204=CIRCLE('',#823,2.3);
#205=CIRCLE('',#826,2.3);
#206=CIRCLE('',#829,2.3);
#207=CIRCLE('',#832,2.3);
#208=CIRCLE('',#835,2.3);
#209=CIRCLE('',#838,18.65);
#210=CIRCLE('',#839,18.65);
#211=CIRCLE('',#841,13.5);
#212=CIRCLE('',#844,11.1);
#213=CIRCLE('',#845,11.1);
#214=CIRCLE('',#847,8.);
#215=CIRCLE('',#849,8.);
#216=CIRCLE('',#851,3.25);
#217=CIRCLE('',#852,3.25);
#218=CIRCLE('',#854,1.7);
#219=CIRCLE('',#856,3.25);
#220=CIRCLE('',#857,3.25);
#221=CIRCLE('',#859,1.7);
#222=CIRCLE('',#861,3.25);
#223=CIRCLE('',#862,3.25);
#224=CIRCLE('',#864,1.7);
#225=CIRCLE('',#866,3.25);
#226=CIRCLE('',#867,3.25);
#227=CIRCLE('',#869,1.7);
#228=CIRCLE('',#871,1.7);
#229=CIRCLE('',#873,1.7);
#230=CIRCLE('',#875,1.7);
#231=CIRCLE('',#877,1.7);
#232=CIRCLE('',#879,4.25);
#233=CIRCLE('',#880,4.25);
#234=CIRCLE('',#883,38.);
#235=CIRCLE('',#885,34.);
#236=CIRCLE('',#886,34.);
#237=CIRCLE('',#888,34.);
#238=CIRCLE('',#889,34.);
#239=CIRCLE('',#891,23.);
#240=CIRCLE('',#892,23.);
#241=CIRCLE('',#894,23.);
#242=CIRCLE('',#895,23.);
#243=CIRCLE('',#899,34.);
#244=CIRCLE('',#901,34.);
#245=LINE('',#1167,#294);
#246=LINE('',#1171,#295);
#247=LINE('',#1187,#296);
#248=LINE('',#1208,#297);
#249=LINE('',#1210,#298);
#250=LINE('',#1212,#299);
#251=LINE('',#1213,#300);
#252=LINE('',#1217,#301);
#253=LINE('',#1222,#302);
#254=LINE('',#1227,#303);
#255=LINE('',#1232,#304);
#256=LINE('',#1237,#305);
#257=LINE('',#1242,#306);
#258=LINE('',#1248,#307);
#259=LINE('',#1254,#308);
#260=LINE('',#1259,#309);
#261=LINE('',#1266,#310);
#262=LINE('',#1272,#311);
#263=LINE('',#1281,#312);
#264=LINE('',#1290,#313);
#265=LINE('',#1299,#314);
#266=LINE('',#1307,#315);
#267=LINE('',#1311,#316);
#268=LINE('',#1315,#317);
#269=LINE('',#1319,#318);
#270=LINE('',#1324,#319);
#271=LINE('',#1330,#320);
#272=LINE('',#1335,#321);
#273=LINE('',#1337,#322);
#274=LINE('',#1339,#323);
#275=LINE('',#1341,#324);
#276=LINE('',#1343,#325);
#277=LINE('',#1349,#326);
#278=LINE('',#1352,#327);
#279=LINE('',#1356,#328);
#280=LINE('',#1360,#329);
#281=LINE('',#1371,#330);
#282=LINE('',#1373,#331);
#283=LINE('',#1374,#332);
#284=LINE('',#1380,#333);
#285=LINE('',#1381,#334);
#286=LINE('',#1384,#335);
#287=LINE('',#1385,#336);
#288=LINE('',#1387,#337);
#289=LINE('',#1388,#338);
#290=LINE('',#1390,#339);
#291=LINE('',#1392,#340);
#292=LINE('',#1393,#341);
#293=LINE('',#1395,#342);
#294=VECTOR('',#912,10.);
#295=VECTOR('',#917,10.);
#296=VECTOR('',#918,10.);
#297=VECTOR('',#939,10.);
#298=VECTOR('',#940,10.);
#299=VECTOR('',#941,10.);
#300=VECTOR('',#942,10.);
#301=VECTOR('',#947,2.3);
#302=VECTOR('',#954,2.3);
#303=VECTOR('',#961,2.3);
#304=VECTOR('',#968,2.3);
#305=VECTOR('',#975,2.3);
#306=VECTOR('',#982,2.3);
#307=VECTOR('',#989,18.65);
#308=VECTOR('',#998,13.5);
#309=VECTOR('',#1003,11.1);
#310=VECTOR('',#1012,8.);
#311=VECTOR('',#1019,3.25);
#312=VECTOR('',#1030,3.25);
#313=VECTOR('',#1041,3.25);
#314=VECTOR('',#1052,3.25);
#315=VECTOR('',#1063,1.7);
#316=VECTOR('',#1068,1.7);
#317=VECTOR('',#1073,1.7);
#318=VECTOR('',#1078,1.7);
#319=VECTOR('',#1083,4.25);
#320=VECTOR('',#1092,38.);
#321=VECTOR('',#1097,10.);
#322=VECTOR('',#1098,10.);
#323=VECTOR('',#1099,10.);
#324=VECTOR('',#1100,10.);
#325=VECTOR('',#1101,10.);
#326=VECTOR('',#1108,10.);
#327=VECTOR('',#1111,10.);
#328=VECTOR('',#1114,10.);
#329=VECTOR('',#1117,10.);
#330=VECTOR('',#1134,10.);
#331=VECTOR('',#1135,10.);
#332=VECTOR('',#1136,10.);
#333=VECTOR('',#1141,10.);
#334=VECTOR('',#1142,10.);
#335=VECTOR('',#1145,10.);
#336=VECTOR('',#1146,10.);
#337=VECTOR('',#1149,10.);
#338=VECTOR('',#1150,10.);
#339=VECTOR('',#1153,10.);
#340=VECTOR('',#1156,10.);
#341=VECTOR('',#1157,10.);
#342=VECTOR('',#1160,10.);
#343=VERTEX_POINT('',#1165);
#344=VERTEX_POINT('',#1166);
#345=VERTEX_POINT('',#1170);
#346=VERTEX_POINT('',#1172);
#347=VERTEX_POINT('',#1189);
#348=VERTEX_POINT('',#1192);
#349=VERTEX_POINT('',#1194);
#350=VERTEX_POINT('',#1196);
#351=VERTEX_POINT('',#1198);
#352=VERTEX_POINT('',#1200);
#353=VERTEX_POINT('',#1202);
#354=VERTEX_POINT('',#1204);
#355=VERTEX_POINT('',#1206);
#356=VERTEX_POINT('',#1207);
#357=VERTEX_POINT('',#1209);
#358=VERTEX_POINT('',#1211);
#359=VERTEX_POINT('',#1215);
#360=VERTEX_POINT('',#1220);
#361=VERTEX_POINT('',#1225);
#362=VERTEX_POINT('',#1230);
#363=VERTEX_POINT('',#1235);
#364=VERTEX_POINT('',#1240);
#365=VERTEX_POINT('',#1245);
#366=VERTEX_POINT('',#1247);
#367=VERTEX_POINT('',#1251);
#368=VERTEX_POINT('',#1256);
#369=VERTEX_POINT('',#1258);
#370=VERTEX_POINT('',#1262);
#371=VERTEX_POINT('',#1265);
#372=VERTEX_POINT('',#1269);
#373=VERTEX_POINT('',#1271);
#374=VERTEX_POINT('',#1275);
#375=VERTEX_POINT('',#1278);
#376=VERTEX_POINT('',#1280);
#377=VERTEX_POINT('',#1284);
#378=VERTEX_POINT('',#1287);
#379=VERTEX_POINT('',#1289);
#380=VERTEX_POINT('',#1293);
#381=VERTEX_POINT('',#1296);
#382=VERTEX_POINT('',#1298);
#383=VERTEX_POINT('',#1302);
#384=VERTEX_POINT('',#1305);
#385=VERTEX_POINT('',#1309);
#386=VERTEX_POINT('',#1313);
#387=VERTEX_POINT('',#1317);
#388=VERTEX_POINT('',#1321);
#389=VERTEX_POINT('',#1323);
#390=VERTEX_POINT('',#1328);
#391=VERTEX_POINT('',#1332);
#392=VERTEX_POINT('',#1334);
#393=VERTEX_POINT('',#1336);
#394=VERTEX_POINT('',#1338);
#395=VERTEX_POINT('',#1340);
#396=VERTEX_POINT('',#1342);
#397=VERTEX_POINT('',#1346);
#398=VERTEX_POINT('',#1348);
#399=VERTEX_POINT('',#1350);
#400=VERTEX_POINT('',#1354);
#401=VERTEX_POINT('',#1355);
#402=VERTEX_POINT('',#1357);
#403=VERTEX_POINT('',#1359);
#404=VERTEX_POINT('',#1368);
#405=VERTEX_POINT('',#1370);
#406=VERTEX_POINT('',#1372);
#407=VERTEX_POINT('',#1376);
#408=VERTEX_POINT('',#1377);
#409=VERTEX_POINT('',#1379);
#410=VERTEX_POINT('',#1383);
#411=EDGE_CURVE('',#343,#344,#245,.T.);
#412=EDGE_CURVE('',#344,#343,#193,.T.);
#413=EDGE_CURVE('',#345,#343,#246,.T.);
#414=EDGE_CURVE('',#346,#345,#41,.T.);
#415=EDGE_CURVE('',#344,#346,#247,.T.);
#416=EDGE_CURVE('',#346,#347,#194,.T.);
#417=EDGE_CURVE('',#347,#345,#195,.T.);
#418=EDGE_CURVE('',#348,#348,#196,.T.);
#419=EDGE_CURVE('',#349,#349,#197,.T.);
#420=EDGE_CURVE('',#350,#350,#198,.T.);
#421=EDGE_CURVE('',#351,#351,#199,.T.);
#422=EDGE_CURVE('',#352,#352,#200,.T.);
#423=EDGE_CURVE('',#353,#353,#201,.T.);
#424=EDGE_CURVE('',#354,#354,#202,.T.);
#425=EDGE_CURVE('',#355,#356,#248,.T.);
#426=EDGE_CURVE('',#357,#355,#249,.T.);
#427=EDGE_CURVE('',#358,#357,#250,.T.);
#428=EDGE_CURVE('',#356,#358,#251,.T.);
#429=EDGE_CURVE('',#359,#359,#203,.T.);
#430=EDGE_CURVE('',#359,#348,#252,.T.);
#431=EDGE_CURVE('',#360,#360,#204,.T.);
#432=EDGE_CURVE('',#360,#349,#253,.T.);
#433=EDGE_CURVE('',#361,#361,#205,.T.);
#434=EDGE_CURVE('',#361,#350,#254,.T.);
#435=EDGE_CURVE('',#362,#362,#206,.T.);
#436=EDGE_CURVE('',#362,#351,#255,.T.);
#437=EDGE_CURVE('',#363,#363,#207,.T.);
#438=EDGE_CURVE('',#363,#352,#256,.T.);
#439=EDGE_CURVE('',#364,#364,#208,.T.);
#440=EDGE_CURVE('',#364,#353,#257,.T.);
#441=EDGE_CURVE('',#365,#365,#209,.T.);
#442=EDGE_CURVE('',#365,#366,#258,.T.);
#443=EDGE_CURVE('',#366,#366,#210,.T.);
#444=EDGE_CURVE('',#367,#367,#211,.T.);
#445=EDGE_CURVE('',#354,#367,#259,.T.);
#446=EDGE_CURVE('',#368,#368,#212,.T.);
#447=EDGE_CURVE('',#368,#369,#260,.T.);
#448=EDGE_CURVE('',#369,#369,#213,.T.);
#449=EDGE_CURVE('',#370,#370,#214,.T.);
#450=EDGE_CURVE('',#370,#371,#261,.T.);
#451=EDGE_CURVE('',#371,#371,#215,.T.);
#452=EDGE_CURVE('',#372,#372,#216,.T.);
#453=EDGE_CURVE('',#372,#373,#262,.T.);
#454=EDGE_CURVE('',#373,#373,#217,.T.);
#455=EDGE_CURVE('',#374,#374,#218,.T.);
#456=EDGE_CURVE('',#375,#375,#219,.T.);
#457=EDGE_CURVE('',#375,#376,#263,.T.);
#458=EDGE_CURVE('',#376,#376,#220,.T.);
#459=EDGE_CURVE('',#377,#377,#221,.T.);
#460=EDGE_CURVE('',#378,#378,#222,.T.);
#461=EDGE_CURVE('',#378,#379,#264,.T.);
#462=EDGE_CURVE('',#379,#379,#223,.T.);
#463=EDGE_CURVE('',#380,#380,#224,.T.);
#464=EDGE_CURVE('',#381,#381,#225,.T.);
#465=EDGE_CURVE('',#381,#382,#265,.T.);
#466=EDGE_CURVE('',#382,#382,#226,.T.);
#467=EDGE_CURVE('',#383,#383,#227,.T.);
#468=EDGE_CURVE('',#384,#384,#228,.T.);
#469=EDGE_CURVE('',#384,#374,#266,.T.);
#470=EDGE_CURVE('',#385,#385,#229,.T.);
#471=EDGE_CURVE('',#385,#377,#267,.T.);
#472=EDGE_CURVE('',#386,#386,#230,.T.);
#473=EDGE_CURVE('',#386,#380,#268,.T.);
#474=EDGE_CURVE('',#387,#387,#231,.T.);
#475=EDGE_CURVE('',#387,#383,#269,.T.);
#476=EDGE_CURVE('',#388,#388,#232,.T.);
#477=EDGE_CURVE('',#388,#389,#270,.T.);
#478=EDGE_CURVE('',#389,#389,#233,.T.);
#479=EDGE_CURVE('',#390,#390,#234,.T.);
#480=EDGE_CURVE('',#390,#347,#271,.T.);
#481=EDGE_CURVE('',#357,#391,#235,.T.);
#482=EDGE_CURVE('',#391,#392,#272,.T.);
#483=EDGE_CURVE('',#392,#393,#273,.T.);
#484=EDGE_CURVE('',#393,#394,#274,.T.);
#485=EDGE_CURVE('',#394,#395,#275,.T.);
#486=EDGE_CURVE('',#395,#396,#276,.T.);
#487=EDGE_CURVE('',#396,#358,#236,.T.);
#488=EDGE_CURVE('',#397,#355,#237,.T.);
#489=EDGE_CURVE('',#397,#398,#277,.T.);
#490=EDGE_CURVE('',#398,#399,#238,.T.);
#491=EDGE_CURVE('',#399,#391,#278,.T.);
#492=EDGE_CURVE('',#400,#401,#279,.T.);
#493=EDGE_CURVE('',#402,#401,#239,.T.);
#494=EDGE_CURVE('',#402,#403,#280,.T.);
#495=EDGE_CURVE('',#400,#403,#240,.T.);
#496=EDGE_CURVE('',#395,#392,#241,.T.);
#497=EDGE_CURVE('',#393,#394,#242,.T.);
#498=EDGE_CURVE('',#356,#404,#243,.T.);
#499=EDGE_CURVE('',#404,#405,#281,.T.);
#500=EDGE_CURVE('',#405,#406,#282,.T.);
#501=EDGE_CURVE('',#406,#397,#283,.T.);
#502=EDGE_CURVE('',#407,#408,#244,.T.);
#503=EDGE_CURVE('',#407,#409,#284,.T.);
#504=EDGE_CURVE('',#409,#408,#285,.T.);
#505=EDGE_CURVE('',#398,#410,#286,.T.);
#506=EDGE_CURVE('',#410,#399,#287,.T.);
#507=EDGE_CURVE('',#401,#406,#288,.T.);
#508=EDGE_CURVE('',#400,#410,#289,.T.);
#509=EDGE_CURVE('',#402,#405,#290,.T.);
#510=EDGE_CURVE('',#408,#404,#291,.T.);
#511=EDGE_CURVE('',#403,#409,#292,.T.);
#512=EDGE_CURVE('',#396,#407,#293,.T.);
#513=ORIENTED_EDGE('',*,*,#411,.F.);
#514=ORIENTED_EDGE('',*,*,#412,.F.);
#515=ORIENTED_EDGE('',*,*,#413,.F.);
#516=ORIENTED_EDGE('',*,*,#414,.F.);
#517=ORIENTED_EDGE('',*,*,#415,.F.);
#518=ORIENTED_EDGE('',*,*,#412,.T.);
#519=ORIENTED_EDGE('',*,*,#413,.T.);
#520=ORIENTED_EDGE('',*,*,#411,.T.);
#521=ORIENTED_EDGE('',*,*,#415,.T.);
#522=ORIENTED_EDGE('',*,*,#416,.T.);
#523=ORIENTED_EDGE('',*,*,#417,.T.);
#524=ORIENTED_EDGE('',*,*,#418,.T.);
#525=ORIENTED_EDGE('',*,*,#419,.T.);
#526=ORIENTED_EDGE('',*,*,#420,.T.);
#527=ORIENTED_EDGE('',*,*,#421,.T.);
#528=ORIENTED_EDGE('',*,*,#422,.T.);
#529=ORIENTED_EDGE('',*,*,#423,.T.);
#530=ORIENTED_EDGE('',*,*,#424,.T.);
#531=ORIENTED_EDGE('',*,*,#425,.F.);
#532=ORIENTED_EDGE('',*,*,#426,.F.);
#533=ORIENTED_EDGE('',*,*,#427,.F.);
#534=ORIENTED_EDGE('',*,*,#428,.F.);
#535=ORIENTED_EDGE('',*,*,#429,.T.);
#536=ORIENTED_EDGE('',*,*,#430,.T.);
#537=ORIENTED_EDGE('',*,*,#418,.F.);
#538=ORIENTED_EDGE('',*,*,#430,.F.);
#539=ORIENTED_EDGE('',*,*,#429,.F.);
#540=ORIENTED_EDGE('',*,*,#431,.T.);
#541=ORIENTED_EDGE('',*,*,#432,.T.);
#542=ORIENTED_EDGE('',*,*,#419,.F.);
#543=ORIENTED_EDGE('',*,*,#432,.F.);
#544=ORIENTED_EDGE('',*,*,#431,.F.);
#545=ORIENTED_EDGE('',*,*,#433,.T.);
#546=ORIENTED_EDGE('',*,*,#434,.T.);
#547=ORIENTED_EDGE('',*,*,#420,.F.);
#548=ORIENTED_EDGE('',*,*,#434,.F.);
#549=ORIENTED_EDGE('',*,*,#433,.F.);
#550=ORIENTED_EDGE('',*,*,#435,.T.);
#551=ORIENTED_EDGE('',*,*,#436,.T.);
#552=ORIENTED_EDGE('',*,*,#421,.F.);
#553=ORIENTED_EDGE('',*,*,#436,.F.);
#554=ORIENTED_EDGE('',*,*,#435,.F.);
#555=ORIENTED_EDGE('',*,*,#437,.T.);
#556=ORIENTED_EDGE('',*,*,#438,.T.);
#557=ORIENTED_EDGE('',*,*,#422,.F.);
#558=ORIENTED_EDGE('',*,*,#438,.F.);
#559=ORIENTED_EDGE('',*,*,#437,.F.);
#560=ORIENTED_EDGE('',*,*,#439,.T.);
#561=ORIENTED_EDGE('',*,*,#440,.T.);
#562=ORIENTED_EDGE('',*,*,#423,.F.);
#563=ORIENTED_EDGE('',*,*,#440,.F.);
#564=ORIENTED_EDGE('',*,*,#439,.F.);
#565=ORIENTED_EDGE('',*,*,#441,.T.);
#566=ORIENTED_EDGE('',*,*,#442,.T.);
#567=ORIENTED_EDGE('',*,*,#443,.F.);
#568=ORIENTED_EDGE('',*,*,#442,.F.);
#569=ORIENTED_EDGE('',*,*,#441,.F.);
#570=ORIENTED_EDGE('',*,*,#444,.F.);
#571=ORIENTED_EDGE('',*,*,#424,.F.);
#572=ORIENTED_EDGE('',*,*,#445,.T.);
#573=ORIENTED_EDGE('',*,*,#444,.T.);
#574=ORIENTED_EDGE('',*,*,#445,.F.);
#575=ORIENTED_EDGE('',*,*,#446,.F.);
#576=ORIENTED_EDGE('',*,*,#447,.T.);
#577=ORIENTED_EDGE('',*,*,#448,.T.);
#578=ORIENTED_EDGE('',*,*,#447,.F.);
#579=ORIENTED_EDGE('',*,*,#448,.F.);
#580=ORIENTED_EDGE('',*,*,#449,.F.);
#581=ORIENTED_EDGE('',*,*,#449,.T.);
#582=ORIENTED_EDGE('',*,*,#450,.T.);
#583=ORIENTED_EDGE('',*,*,#451,.F.);
#584=ORIENTED_EDGE('',*,*,#450,.F.);
#585=ORIENTED_EDGE('',*,*,#452,.T.);
#586=ORIENTED_EDGE('',*,*,#453,.T.);
#587=ORIENTED_EDGE('',*,*,#454,.F.);
#588=ORIENTED_EDGE('',*,*,#453,.F.);
#589=ORIENTED_EDGE('',*,*,#452,.F.);
#590=ORIENTED_EDGE('',*,*,#455,.F.);
#591=ORIENTED_EDGE('',*,*,#456,.T.);
#592=ORIENTED_EDGE('',*,*,#457,.T.);
#593=ORIENTED_EDGE('',*,*,#458,.F.);
#594=ORIENTED_EDGE('',*,*,#457,.F.);
#595=ORIENTED_EDGE('',*,*,#456,.F.);
#596=ORIENTED_EDGE('',*,*,#459,.F.);
#597=ORIENTED_EDGE('',*,*,#460,.T.);
#598=ORIENTED_EDGE('',*,*,#461,.T.);
#599=ORIENTED_EDGE('',*,*,#462,.F.);
#600=ORIENTED_EDGE('',*,*,#461,.F.);
#601=ORIENTED_EDGE('',*,*,#460,.F.);
#602=ORIENTED_EDGE('',*,*,#463,.F.);
#603=ORIENTED_EDGE('',*,*,#464,.T.);
#604=ORIENTED_EDGE('',*,*,#465,.T.);
#605=ORIENTED_EDGE('',*,*,#466,.F.);
#606=ORIENTED_EDGE('',*,*,#465,.F.);
#607=ORIENTED_EDGE('',*,*,#464,.F.);
#608=ORIENTED_EDGE('',*,*,#467,.F.);
#609=ORIENTED_EDGE('',*,*,#468,.F.);
#610=ORIENTED_EDGE('',*,*,#469,.T.);
#611=ORIENTED_EDGE('',*,*,#455,.T.);
#612=ORIENTED_EDGE('',*,*,#469,.F.);
#613=ORIENTED_EDGE('',*,*,#470,.F.);
#614=ORIENTED_EDGE('',*,*,#471,.T.);
#615=ORIENTED_EDGE('',*,*,#459,.T.);
#616=ORIENTED_EDGE('',*,*,#471,.F.);
#617=ORIENTED_EDGE('',*,*,#472,.F.);
#618=ORIENTED_EDGE('',*,*,#473,.T.);
#619=ORIENTED_EDGE('',*,*,#463,.T.);
#620=ORIENTED_EDGE('',*,*,#473,.F.);
#621=ORIENTED_EDGE('',*,*,#474,.F.);
#622=ORIENTED_EDGE('',*,*,#475,.T.);
#623=ORIENTED_EDGE('',*,*,#467,.T.);
#624=ORIENTED_EDGE('',*,*,#475,.F.);
#625=ORIENTED_EDGE('',*,*,#476,.F.);
#626=ORIENTED_EDGE('',*,*,#477,.T.);
#627=ORIENTED_EDGE('',*,*,#478,.T.);
#628=ORIENTED_EDGE('',*,*,#477,.F.);
#629=ORIENTED_EDGE('',*,*,#478,.F.);
#630=ORIENTED_EDGE('',*,*,#479,.F.);
#631=ORIENTED_EDGE('',*,*,#480,.T.);
#632=ORIENTED_EDGE('',*,*,#416,.F.);
#633=ORIENTED_EDGE('',*,*,#414,.T.);
#634=ORIENTED_EDGE('',*,*,#417,.F.);
#635=ORIENTED_EDGE('',*,*,#480,.F.);
#636=ORIENTED_EDGE('',*,*,#427,.T.);
#637=ORIENTED_EDGE('',*,*,#481,.T.);
#638=ORIENTED_EDGE('',*,*,#482,.T.);
#639=ORIENTED_EDGE('',*,*,#483,.T.);
#640=ORIENTED_EDGE('',*,*,#484,.T.);
#641=ORIENTED_EDGE('',*,*,#485,.T.);
#642=ORIENTED_EDGE('',*,*,#486,.T.);
#643=ORIENTED_EDGE('',*,*,#487,.T.);
#644=ORIENTED_EDGE('',*,*,#468,.T.);
#645=ORIENTED_EDGE('',*,*,#470,.T.);
#646=ORIENTED_EDGE('',*,*,#472,.T.);
#647=ORIENTED_EDGE('',*,*,#474,.T.);
#648=ORIENTED_EDGE('',*,*,#476,.T.);
#649=ORIENTED_EDGE('',*,*,#426,.T.);
#650=ORIENTED_EDGE('',*,*,#488,.F.);
#651=ORIENTED_EDGE('',*,*,#489,.T.);
#652=ORIENTED_EDGE('',*,*,#490,.T.);
#653=ORIENTED_EDGE('',*,*,#491,.T.);
#654=ORIENTED_EDGE('',*,*,#481,.F.);
#655=ORIENTED_EDGE('',*,*,#492,.T.);
#656=ORIENTED_EDGE('',*,*,#493,.F.);
#657=ORIENTED_EDGE('',*,*,#494,.T.);
#658=ORIENTED_EDGE('',*,*,#495,.F.);
#659=ORIENTED_EDGE('',*,*,#483,.F.);
#660=ORIENTED_EDGE('',*,*,#496,.F.);
#661=ORIENTED_EDGE('',*,*,#485,.F.);
#662=ORIENTED_EDGE('',*,*,#497,.F.);
#663=ORIENTED_EDGE('',*,*,#484,.F.);
#664=ORIENTED_EDGE('',*,*,#497,.T.);
#665=ORIENTED_EDGE('',*,*,#479,.T.);
#666=ORIENTED_EDGE('',*,*,#443,.T.);
#667=ORIENTED_EDGE('',*,*,#425,.T.);
#668=ORIENTED_EDGE('',*,*,#498,.T.);
#669=ORIENTED_EDGE('',*,*,#499,.T.);
#670=ORIENTED_EDGE('',*,*,#500,.T.);
#671=ORIENTED_EDGE('',*,*,#501,.T.);
#672=ORIENTED_EDGE('',*,*,#488,.T.);
#673=ORIENTED_EDGE('',*,*,#454,.T.);
#674=ORIENTED_EDGE('',*,*,#458,.T.);
#675=ORIENTED_EDGE('',*,*,#462,.T.);
#676=ORIENTED_EDGE('',*,*,#466,.T.);
#677=ORIENTED_EDGE('',*,*,#502,.F.);
#678=ORIENTED_EDGE('',*,*,#503,.T.);
#679=ORIENTED_EDGE('',*,*,#504,.T.);
#680=ORIENTED_EDGE('',*,*,#490,.F.);
#681=ORIENTED_EDGE('',*,*,#505,.T.);
#682=ORIENTED_EDGE('',*,*,#506,.T.);
#683=ORIENTED_EDGE('',*,*,#489,.F.);
#684=ORIENTED_EDGE('',*,*,#501,.F.);
#685=ORIENTED_EDGE('',*,*,#507,.F.);
#686=ORIENTED_EDGE('',*,*,#492,.F.);
#687=ORIENTED_EDGE('',*,*,#508,.T.);
#688=ORIENTED_EDGE('',*,*,#505,.F.);
#689=ORIENTED_EDGE('',*,*,#507,.T.);
#690=ORIENTED_EDGE('',*,*,#500,.F.);
#691=ORIENTED_EDGE('',*,*,#509,.F.);
#692=ORIENTED_EDGE('',*,*,#493,.T.);
#693=ORIENTED_EDGE('',*,*,#446,.T.);
#694=ORIENTED_EDGE('',*,*,#510,.F.);
#695=ORIENTED_EDGE('',*,*,#504,.F.);
#696=ORIENTED_EDGE('',*,*,#511,.F.);
#697=ORIENTED_EDGE('',*,*,#494,.F.);
#698=ORIENTED_EDGE('',*,*,#509,.T.);
#699=ORIENTED_EDGE('',*,*,#499,.F.);
#700=ORIENTED_EDGE('',*,*,#482,.F.);
#701=ORIENTED_EDGE('',*,*,#491,.F.);
#702=ORIENTED_EDGE('',*,*,#506,.F.);
#703=ORIENTED_EDGE('',*,*,#508,.F.);
#704=ORIENTED_EDGE('',*,*,#495,.T.);
#705=ORIENTED_EDGE('',*,*,#511,.T.);
#706=ORIENTED_EDGE('',*,*,#503,.F.);
#707=ORIENTED_EDGE('',*,*,#512,.F.);
#708=ORIENTED_EDGE('',*,*,#486,.F.);
#709=ORIENTED_EDGE('',*,*,#496,.T.);
#710=ORIENTED_EDGE('',*,*,#451,.T.);
#711=ORIENTED_EDGE('',*,*,#428,.T.);
#712=ORIENTED_EDGE('',*,*,#487,.F.);
#713=ORIENTED_EDGE('',*,*,#512,.T.);
#714=ORIENTED_EDGE('',*,*,#502,.T.);
#715=ORIENTED_EDGE('',*,*,#510,.T.);
#716=ORIENTED_EDGE('',*,*,#498,.F.);
#717=PLANE('',#806);
#718=PLANE('',#809);
#719=PLANE('',#821);
#720=PLANE('',#824);
#721=PLANE('',#827);
#722=PLANE('',#830);
#723=PLANE('',#833);
#724=PLANE('',#836);
#725=PLANE('',#840);
#726=PLANE('',#846);
#727=PLANE('',#853);
#728=PLANE('',#858);
#729=PLANE('',#863);
#730=PLANE('',#868);
#731=PLANE('',#881);
#732=PLANE('',#884);
#733=PLANE('',#896);
#734=PLANE('',#897);
#735=PLANE('',#898);
#736=PLANE('',#900);
#737=PLANE('',#902);
#738=PLANE('',#903);
#739=PLANE('',#904);
#740=PLANE('',#905);
#741=PLANE('',#906);
#742=ADVANCED_FACE('',(#67),#717,.F.);
#743=ADVANCED_FACE('',(#68),#42,.F.);
#744=ADVANCED_FACE('',(#69,#15,#16,#17,#18,#19,#20,#21,#22),#718,.F.);
#745=ADVANCED_FACE('',(#70),#43,.F.);
#746=ADVANCED_FACE('',(#71),#719,.F.);
#747=ADVANCED_FACE('',(#72),#44,.F.);
#748=ADVANCED_FACE('',(#73),#720,.F.);
#749=ADVANCED_FACE('',(#74),#45,.F.);
#750=ADVANCED_FACE('',(#75),#721,.F.);
#751=ADVANCED_FACE('',(#76),#46,.F.);
#752=ADVANCED_FACE('',(#77),#722,.F.);
#753=ADVANCED_FACE('',(#78),#47,.F.);
#754=ADVANCED_FACE('',(#79),#723,.F.);
#755=ADVANCED_FACE('',(#80),#48,.F.);
#756=ADVANCED_FACE('',(#81),#724,.F.);
#757=ADVANCED_FACE('',(#82),#49,.F.);
#758=ADVANCED_FACE('',(#83,#23),#725,.F.);
#759=ADVANCED_FACE('',(#84),#50,.F.);
#760=ADVANCED_FACE('',(#85),#51,.F.);
#761=ADVANCED_FACE('',(#86,#24),#726,.F.);
#762=ADVANCED_FACE('',(#87),#52,.F.);
#763=ADVANCED_FACE('',(#88),#53,.F.);
#764=ADVANCED_FACE('',(#89,#25),#727,.F.);
#765=ADVANCED_FACE('',(#90),#54,.F.);
#766=ADVANCED_FACE('',(#91,#26),#728,.F.);
#767=ADVANCED_FACE('',(#92),#55,.F.);
#768=ADVANCED_FACE('',(#93,#27),#729,.F.);
#769=ADVANCED_FACE('',(#94),#56,.F.);
#770=ADVANCED_FACE('',(#95,#28),#730,.F.);
#771=ADVANCED_FACE('',(#96),#57,.F.);
#772=ADVANCED_FACE('',(#97),#58,.F.);
#773=ADVANCED_FACE('',(#98),#59,.F.);
#774=ADVANCED_FACE('',(#99),#60,.F.);
#775=ADVANCED_FACE('',(#100),#61,.F.);
#776=ADVANCED_FACE('',(#101),#731,.F.);
#777=ADVANCED_FACE('',(#102),#62,.T.);
#778=ADVANCED_FACE('',(#103,#29,#30,#31,#32,#33),#732,.T.);
#779=ADVANCED_FACE('',(#104),#63,.T.);
#780=ADVANCED_FACE('',(#105),#64,.T.);
#781=ADVANCED_FACE('',(#106),#65,.T.);
#782=ADVANCED_FACE('',(#107),#733,.T.);
#783=ADVANCED_FACE('',(#108,#34),#734,.F.);
#784=ADVANCED_FACE('',(#109,#35,#36,#37,#38),#735,.T.);
#785=ADVANCED_FACE('',(#110),#736,.F.);
#786=ADVANCED_FACE('',(#111),#737,.F.);
#787=ADVANCED_FACE('',(#112),#738,.F.);
#788=ADVANCED_FACE('',(#113,#39),#739,.F.);
#789=ADVANCED_FACE('',(#114),#740,.F.);
#790=ADVANCED_FACE('',(#115,#40),#741,.T.);
#791=ADVANCED_FACE('',(#116),#66,.T.);
#792=CLOSED_SHELL('',(#742,#743,#744,#745,#746,#747,#748,#749,#750,#751,
#752,#753,#754,#755,#756,#757,#758,#759,#760,#761,#762,#763,#764,#765,#766,
#767,#768,#769,#770,#771,#772,#773,#774,#775,#776,#777,#778,#779,#780,#781,
#782,#783,#784,#785,#786,#787,#788,#789,#790,#791));
#793=DERIVED_UNIT_ELEMENT(#795,1.);
#794=DERIVED_UNIT_ELEMENT(#1402,-3.);
#795=(
MASS_UNIT()
NAMED_UNIT(*)
SI_UNIT(.KILO.,.GRAM.)
);
#796=DERIVED_UNIT((#793,#794));
#797=MEASURE_REPRESENTATION_ITEM('density measure',
POSITIVE_RATIO_MEASURE(7850.),#796);
#798=PROPERTY_DEFINITION_REPRESENTATION(#803,#800);
#799=PROPERTY_DEFINITION_REPRESENTATION(#804,#801);
#800=REPRESENTATION('material name',(#802),#1399);
#801=REPRESENTATION('density',(#797),#1399);
#802=DESCRIPTIVE_REPRESENTATION_ITEM('Steel','Steel');
#803=PROPERTY_DEFINITION('material property','material name',#1409);
#804=PROPERTY_DEFINITION('material property','density of part',#1409);
#805=AXIS2_PLACEMENT_3D('',#1163,#908,#909);
#806=AXIS2_PLACEMENT_3D('',#1164,#910,#911);
#807=AXIS2_PLACEMENT_3D('',#1168,#913,#914);
#808=AXIS2_PLACEMENT_3D('',#1169,#915,#916);
#809=AXIS2_PLACEMENT_3D('',#1188,#919,#920);
#810=AXIS2_PLACEMENT_3D('',#1190,#921,#922);
#811=AXIS2_PLACEMENT_3D('',#1191,#923,#924);
#812=AXIS2_PLACEMENT_3D('',#1193,#925,#926);
#813=AXIS2_PLACEMENT_3D('',#1195,#927,#928);
#814=AXIS2_PLACEMENT_3D('',#1197,#929,#930);
#815=AXIS2_PLACEMENT_3D('',#1199,#931,#932);
#816=AXIS2_PLACEMENT_3D('',#1201,#933,#934);
#817=AXIS2_PLACEMENT_3D('',#1203,#935,#936);
#818=AXIS2_PLACEMENT_3D('',#1205,#937,#938);
#819=AXIS2_PLACEMENT_3D('',#1214,#943,#944);
#820=AXIS2_PLACEMENT_3D('',#1216,#945,#946);
#821=AXIS2_PLACEMENT_3D('',#1218,#948,#949);
#822=AXIS2_PLACEMENT_3D('',#1219,#950,#951);
#823=AXIS2_PLACEMENT_3D('',#1221,#952,#953);
#824=AXIS2_PLACEMENT_3D('',#1223,#955,#956);
#825=AXIS2_PLACEMENT_3D('',#1224,#957,#958);
#826=AXIS2_PLACEMENT_3D('',#1226,#959,#960);
#827=AXIS2_PLACEMENT_3D('',#1228,#962,#963);
#828=AXIS2_PLACEMENT_3D('',#1229,#964,#965);
#829=AXIS2_PLACEMENT_3D('',#1231,#966,#967);
#830=AXIS2_PLACEMENT_3D('',#1233,#969,#970);
#831=AXIS2_PLACEMENT_3D('',#1234,#971,#972);
#832=AXIS2_PLACEMENT_3D('',#1236,#973,#974);
#833=AXIS2_PLACEMENT_3D('',#1238,#976,#977);
#834=AXIS2_PLACEMENT_3D('',#1239,#978,#979);
#835=AXIS2_PLACEMENT_3D('',#1241,#980,#981);
#836=AXIS2_PLACEMENT_3D('',#1243,#983,#984);
#837=AXIS2_PLACEMENT_3D('',#1244,#985,#986);
#838=AXIS2_PLACEMENT_3D('',#1246,#987,#988);
#839=AXIS2_PLACEMENT_3D('',#1249,#990,#991);
#840=AXIS2_PLACEMENT_3D('',#1250,#992,#993);
#841=AXIS2_PLACEMENT_3D('',#1252,#994,#995);
#842=AXIS2_PLACEMENT_3D('',#1253,#996,#997);
#843=AXIS2_PLACEMENT_3D('',#1255,#999,#1000);
#844=AXIS2_PLACEMENT_3D('',#1257,#1001,#1002);
#845=AXIS2_PLACEMENT_3D('',#1260,#1004,#1005);
#846=AXIS2_PLACEMENT_3D('',#1261,#1006,#1007);
#847=AXIS2_PLACEMENT_3D('',#1263,#1008,#1009);
#848=AXIS2_PLACEMENT_3D('',#1264,#1010,#1011);
#849=AXIS2_PLACEMENT_3D('',#1267,#1013,#1014);
#850=AXIS2_PLACEMENT_3D('',#1268,#1015,#1016);
#851=AXIS2_PLACEMENT_3D('',#1270,#1017,#1018);
#852=AXIS2_PLACEMENT_3D('',#1273,#1020,#1021);
#853=AXIS2_PLACEMENT_3D('',#1274,#1022,#1023);
#854=AXIS2_PLACEMENT_3D('',#1276,#1024,#1025);
#855=AXIS2_PLACEMENT_3D('',#1277,#1026,#1027);
#856=AXIS2_PLACEMENT_3D('',#1279,#1028,#1029);
#857=AXIS2_PLACEMENT_3D('',#1282,#1031,#1032);
#858=AXIS2_PLACEMENT_3D('',#1283,#1033,#1034);
#859=AXIS2_PLACEMENT_3D('',#1285,#1035,#1036);
#860=AXIS2_PLACEMENT_3D('',#1286,#1037,#1038);
#861=AXIS2_PLACEMENT_3D('',#1288,#1039,#1040);
#862=AXIS2_PLACEMENT_3D('',#1291,#1042,#1043);
#863=AXIS2_PLACEMENT_3D('',#1292,#1044,#1045);
#864=AXIS2_PLACEMENT_3D('',#1294,#1046,#1047);
#865=AXIS2_PLACEMENT_3D('',#1295,#1048,#1049);
#866=AXIS2_PLACEMENT_3D('',#1297,#1050,#1051);
#867=AXIS2_PLACEMENT_3D('',#1300,#1053,#1054);
#868=AXIS2_PLACEMENT_3D('',#1301,#1055,#1056);
#869=AXIS2_PLACEMENT_3D('',#1303,#1057,#1058);
#870=AXIS2_PLACEMENT_3D('',#1304,#1059,#1060);
#871=AXIS2_PLACEMENT_3D('',#1306,#1061,#1062);
#872=AXIS2_PLACEMENT_3D('',#1308,#1064,#1065);
#873=AXIS2_PLACEMENT_3D('',#1310,#1066,#1067);
#874=AXIS2_PLACEMENT_3D('',#1312,#1069,#1070);
#875=AXIS2_PLACEMENT_3D('',#1314,#1071,#1072);
#876=AXIS2_PLACEMENT_3D('',#1316,#1074,#1075);
#877=AXIS2_PLACEMENT_3D('',#1318,#1076,#1077);
#878=AXIS2_PLACEMENT_3D('',#1320,#1079,#1080);
#879=AXIS2_PLACEMENT_3D('',#1322,#1081,#1082);
#880=AXIS2_PLACEMENT_3D('',#1325,#1084,#1085);
#881=AXIS2_PLACEMENT_3D('',#1326,#1086,#1087);
#882=AXIS2_PLACEMENT_3D('',#1327,#1088,#1089);
#883=AXIS2_PLACEMENT_3D('',#1329,#1090,#1091);
#884=AXIS2_PLACEMENT_3D('',#1331,#1093,#1094);
#885=AXIS2_PLACEMENT_3D('',#1333,#1095,#1096);
#886=AXIS2_PLACEMENT_3D('',#1344,#1102,#1103);
#887=AXIS2_PLACEMENT_3D('',#1345,#1104,#1105);
#888=AXIS2_PLACEMENT_3D('',#1347,#1106,#1107);
#889=AXIS2_PLACEMENT_3D('',#1351,#1109,#1110);
#890=AXIS2_PLACEMENT_3D('',#1353,#1112,#1113);
#891=AXIS2_PLACEMENT_3D('',#1358,#1115,#1116);
#892=AXIS2_PLACEMENT_3D('',#1361,#1118,#1119);
#893=AXIS2_PLACEMENT_3D('',#1362,#1120,#1121);
#894=AXIS2_PLACEMENT_3D('',#1363,#1122,#1123);
#895=AXIS2_PLACEMENT_3D('',#1364,#1124,#1125);
#896=AXIS2_PLACEMENT_3D('',#1365,#1126,#1127);
#897=AXIS2_PLACEMENT_3D('',#1366,#1128,#1129);
#898=AXIS2_PLACEMENT_3D('',#1367,#1130,#1131);
#899=AXIS2_PLACEMENT_3D('',#1369,#1132,#1133);
#900=AXIS2_PLACEMENT_3D('',#1375,#1137,#1138);
#901=AXIS2_PLACEMENT_3D('',#1378,#1139,#1140);
#902=AXIS2_PLACEMENT_3D('',#1382,#1143,#1144);
#903=AXIS2_PLACEMENT_3D('',#1386,#1147,#1148);
#904=AXIS2_PLACEMENT_3D('',#1389,#1151,#1152);
#905=AXIS2_PLACEMENT_3D('',#1391,#1154,#1155);
#906=AXIS2_PLACEMENT_3D('',#1394,#1158,#1159);
#907=AXIS2_PLACEMENT_3D('',#1396,#1161,#1162);
#908=DIRECTION('axis',(0.,0.,1.));
#909=DIRECTION('refdir',(1.,0.,0.));
#910=DIRECTION('center_axis',(0.,0.,1.));
#911=DIRECTION('ref_axis',(1.,0.,0.));
#912=DIRECTION('',(-1.,0.,0.));
#913=DIRECTION('center_axis',(0.,0.,1.));
#914=DIRECTION('ref_axis',(1.,0.,0.));
#915=DIRECTION('center_axis',(0.,0.,1.));
#916=DIRECTION('ref_axis',(1.,0.,0.));
#917=DIRECTION('',(0.,0.,1.));
#918=DIRECTION('',(0.,0.,-1.));
#919=DIRECTION('center_axis',(0.,-1.,0.));
#920=DIRECTION('ref_axis',(0.,0.,-1.));
#921=DIRECTION('center_axis',(0.,1.,0.));
#922=DIRECTION('ref_axis',(1.,0.,0.));
#923=DIRECTION('center_axis',(0.,1.,0.));
#924=DIRECTION('ref_axis',(1.,0.,0.));
#925=DIRECTION('center_axis',(0.,-1.,0.));
#926=DIRECTION('ref_axis',(1.,0.,0.));
#927=DIRECTION('center_axis',(0.,-1.,0.));
#928=DIRECTION('ref_axis',(1.,0.,0.));
#929=DIRECTION('center_axis',(0.,-1.,0.));
#930=DIRECTION('ref_axis',(1.,0.,0.));
#931=DIRECTION('center_axis',(0.,-1.,0.));
#932=DIRECTION('ref_axis',(1.,0.,0.));
#933=DIRECTION('center_axis',(0.,-1.,0.));
#934=DIRECTION('ref_axis',(1.,0.,0.));
#935=DIRECTION('center_axis',(0.,-1.,0.));
#936=DIRECTION('ref_axis',(1.,0.,0.));
#937=DIRECTION('center_axis',(0.,-1.,0.));
#938=DIRECTION('ref_axis',(1.,0.,0.));
#939=DIRECTION('',(1.,0.,0.));
#940=DIRECTION('',(0.,0.,1.));
#941=DIRECTION('',(-1.,0.,0.));
#942=DIRECTION('',(0.,0.,-1.));
#943=DIRECTION('center_axis',(0.,1.,0.));
#944=DIRECTION('ref_axis',(1.,0.,0.));
#945=DIRECTION('center_axis',(0.,-1.,0.));
#946=DIRECTION('ref_axis',(1.,0.,0.));
#947=DIRECTION('',(0.,1.,0.));
#948=DIRECTION('center_axis',(0.,-1.,0.));
#949=DIRECTION('ref_axis',(-1.,0.,0.));
#950=DIRECTION('center_axis',(0.,1.,0.));
#951=DIRECTION('ref_axis',(1.,0.,0.));
#952=DIRECTION('center_axis',(0.,-1.,0.));
#953=DIRECTION('ref_axis',(1.,0.,0.));
#954=DIRECTION('',(0.,1.,0.));
#955=DIRECTION('center_axis',(0.,-1.,0.));
#956=DIRECTION('ref_axis',(-1.,0.,0.));
#957=DIRECTION('center_axis',(0.,1.,0.));
#958=DIRECTION('ref_axis',(1.,0.,0.));
#959=DIRECTION('center_axis',(0.,-1.,0.));
#960=DIRECTION('ref_axis',(1.,0.,0.));
#961=DIRECTION('',(0.,1.,0.));
#962=DIRECTION('center_axis',(0.,-1.,0.));
#963=DIRECTION('ref_axis',(-1.,0.,0.));
#964=DIRECTION('center_axis',(0.,1.,0.));
#965=DIRECTION('ref_axis',(1.,0.,0.));
#966=DIRECTION('center_axis',(0.,-1.,0.));
#967=DIRECTION('ref_axis',(1.,0.,0.));
#968=DIRECTION('',(0.,1.,0.));
#969=DIRECTION('center_axis',(0.,-1.,0.));
#970=DIRECTION('ref_axis',(-1.,0.,0.));
#971=DIRECTION('center_axis',(0.,1.,0.));
#972=DIRECTION('ref_axis',(1.,0.,0.));
#973=DIRECTION('center_axis',(0.,-1.,0.));
#974=DIRECTION('ref_axis',(1.,0.,0.));
#975=DIRECTION('',(0.,1.,0.));
#976=DIRECTION('center_axis',(0.,-1.,0.));
#977=DIRECTION('ref_axis',(-1.,0.,0.));
#978=DIRECTION('center_axis',(0.,1.,0.));
#979=DIRECTION('ref_axis',(1.,0.,0.));
#980=DIRECTION('center_axis',(0.,-1.,0.));
#981=DIRECTION('ref_axis',(1.,0.,0.));
#982=DIRECTION('',(0.,1.,0.));
#983=DIRECTION('center_axis',(0.,-1.,0.));
#984=DIRECTION('ref_axis',(-1.,0.,0.));
#985=DIRECTION('center_axis',(0.,-1.,0.));
#986=DIRECTION('ref_axis',(1.,0.,0.));
#987=DIRECTION('center_axis',(0.,1.,0.));
#988=DIRECTION('ref_axis',(1.,0.,0.));
#989=DIRECTION('',(0.,-1.,0.));
#990=DIRECTION('center_axis',(0.,1.,0.));
#991=DIRECTION('ref_axis',(1.,0.,0.));
#992=DIRECTION('center_axis',(0.,1.,0.));
#993=DIRECTION('ref_axis',(-1.,0.,0.));
#994=DIRECTION('center_axis',(0.,-1.,0.));
#995=DIRECTION('ref_axis',(1.,0.,0.));
#996=DIRECTION('center_axis',(0.,-1.,0.));
#997=DIRECTION('ref_axis',(1.,0.,0.));
#998=DIRECTION('',(0.,-1.,0.));
#999=DIRECTION('center_axis',(0.,1.,0.));
#1000=DIRECTION('ref_axis',(1.,0.,0.));
#1001=DIRECTION('center_axis',(0.,1.,0.));
#1002=DIRECTION('ref_axis',(1.,0.,0.));
#1003=DIRECTION('',(0.,1.,0.));
#1004=DIRECTION('center_axis',(0.,1.,0.));
#1005=DIRECTION('ref_axis',(1.,0.,0.));
#1006=DIRECTION('center_axis',(0.,1.,0.));
#1007=DIRECTION('ref_axis',(1.,0.,0.));
#1008=DIRECTION('center_axis',(0.,-1.,0.));
#1009=DIRECTION('ref_axis',(1.,0.,0.));
#1010=DIRECTION('center_axis',(0.,1.,0.));
#1011=DIRECTION('ref_axis',(1.,0.,0.));
#1012=DIRECTION('',(0.,1.,0.));
#1013=DIRECTION('center_axis',(0.,-1.,0.));
#1014=DIRECTION('ref_axis',(1.,0.,0.));
#1015=DIRECTION('center_axis',(0.,0.,1.));
#1016=DIRECTION('ref_axis',(1.,0.,0.));
#1017=DIRECTION('center_axis',(0.,0.,-1.));
#1018=DIRECTION('ref_axis',(1.,0.,0.));
#1019=DIRECTION('',(0.,0.,1.));
#1020=DIRECTION('center_axis',(0.,0.,-1.));
#1021=DIRECTION('ref_axis',(1.,0.,0.));
#1022=DIRECTION('center_axis',(0.,0.,-1.));
#1023=DIRECTION('ref_axis',(-1.,0.,0.));
#1024=DIRECTION('center_axis',(0.,0.,1.));
#1025=DIRECTION('ref_axis',(1.,0.,0.));
#1026=DIRECTION('center_axis',(0.,0.,1.));
#1027=DIRECTION('ref_axis',(1.,0.,0.));
#1028=DIRECTION('center_axis',(0.,0.,-1.));
#1029=DIRECTION('ref_axis',(1.,0.,0.));
#1030=DIRECTION('',(0.,0.,1.));
#1031=DIRECTION('center_axis',(0.,0.,-1.));
#1032=DIRECTION('ref_axis',(1.,0.,0.));
#1033=DIRECTION('center_axis',(0.,0.,-1.));
#1034=DIRECTION('ref_axis',(-1.,0.,0.));
#1035=DIRECTION('center_axis',(0.,0.,1.));
#1036=DIRECTION('ref_axis',(1.,0.,0.));
#1037=DIRECTION('center_axis',(0.,0.,1.));
#1038=DIRECTION('ref_axis',(1.,0.,0.));
#1039=DIRECTION('center_axis',(0.,0.,-1.));
#1040=DIRECTION('ref_axis',(1.,0.,0.));
#1041=DIRECTION('',(0.,0.,1.));
#1042=DIRECTION('center_axis',(0.,0.,-1.));
#1043=DIRECTION('ref_axis',(1.,0.,0.));
#1044=DIRECTION('center_axis',(0.,0.,-1.));
#1045=DIRECTION('ref_axis',(-1.,0.,0.));
#1046=DIRECTION('center_axis',(0.,0.,1.));
#1047=DIRECTION('ref_axis',(1.,0.,0.));
#1048=DIRECTION('center_axis',(0.,0.,1.));
#1049=DIRECTION('ref_axis',(1.,0.,0.));
#1050=DIRECTION('center_axis',(0.,0.,-1.));
#1051=DIRECTION('ref_axis',(1.,0.,0.));
#1052=DIRECTION('',(0.,0.,1.));
#1053=DIRECTION('center_axis',(0.,0.,-1.));
#1054=DIRECTION('ref_axis',(1.,0.,0.));
#1055=DIRECTION('center_axis',(0.,0.,-1.));
#1056=DIRECTION('ref_axis',(-1.,0.,0.));
#1057=DIRECTION('center_axis',(0.,0.,1.));
#1058=DIRECTION('ref_axis',(1.,0.,0.));
#1059=DIRECTION('center_axis',(0.,0.,1.));
#1060=DIRECTION('ref_axis',(1.,0.,0.));
#1061=DIRECTION('center_axis',(0.,0.,1.));
#1062=DIRECTION('ref_axis',(1.,0.,0.));
#1063=DIRECTION('',(0.,0.,1.));
#1064=DIRECTION('center_axis',(0.,0.,1.));
#1065=DIRECTION('ref_axis',(1.,0.,0.));
#1066=DIRECTION('center_axis',(0.,0.,1.));
#1067=DIRECTION('ref_axis',(1.,0.,0.));
#1068=DIRECTION('',(0.,0.,1.));
#1069=DIRECTION('center_axis',(0.,0.,1.));
#1070=DIRECTION('ref_axis',(1.,0.,0.));
#1071=DIRECTION('center_axis',(0.,0.,1.));
#1072=DIRECTION('ref_axis',(1.,0.,0.));
#1073=DIRECTION('',(0.,0.,1.));
#1074=DIRECTION('center_axis',(0.,0.,1.));
#1075=DIRECTION('ref_axis',(1.,0.,0.));
#1076=DIRECTION('center_axis',(0.,0.,1.));
#1077=DIRECTION('ref_axis',(1.,0.,0.));
#1078=DIRECTION('',(0.,0.,1.));
#1079=DIRECTION('center_axis',(0.,0.,1.));
#1080=DIRECTION('ref_axis',(1.,0.,0.));
#1081=DIRECTION('center_axis',(0.,0.,1.));
#1082=DIRECTION('ref_axis',(1.,0.,0.));
#1083=DIRECTION('',(0.,0.,1.));
#1084=DIRECTION('center_axis',(0.,0.,1.));
#1085=DIRECTION('ref_axis',(1.,0.,0.));
#1086=DIRECTION('center_axis',(0.,0.,1.));
#1087=DIRECTION('ref_axis',(1.,0.,0.));
#1088=DIRECTION('center_axis',(0.,-1.,0.));
#1089=DIRECTION('ref_axis',(1.,0.,0.));
#1090=DIRECTION('center_axis',(0.,-1.,0.));
#1091=DIRECTION('ref_axis',(1.,0.,0.));
#1092=DIRECTION('',(0.,1.,0.));
#1093=DIRECTION('center_axis',(0.,0.,-1.));
#1094=DIRECTION('ref_axis',(-1.,0.,0.));
#1095=DIRECTION('center_axis',(0.,0.,-1.));
#1096=DIRECTION('ref_axis',(1.,0.,0.));
#1097=DIRECTION('',(1.,0.,0.));
#1098=DIRECTION('',(0.,-1.,0.));
#1099=DIRECTION('',(1.,0.,0.));
#1100=DIRECTION('',(0.,1.,0.));
#1101=DIRECTION('',(1.,0.,0.));
#1102=DIRECTION('center_axis',(0.,0.,-1.));
#1103=DIRECTION('ref_axis',(1.,0.,0.));
#1104=DIRECTION('center_axis',(0.,0.,1.));
#1105=DIRECTION('ref_axis',(-0.998844999963273,0.0480485800869102,0.));
#1106=DIRECTION('center_axis',(0.,0.,1.));
#1107=DIRECTION('ref_axis',(1.,0.,0.));
#1108=DIRECTION('',(0.,0.,-1.));
#1109=DIRECTION('center_axis',(0.,0.,-1.));
#1110=DIRECTION('ref_axis',(1.,0.,0.));
#1111=DIRECTION('',(0.,0.,-1.));
#1112=DIRECTION('center_axis',(0.,1.,0.));
#1113=DIRECTION('ref_axis',(1.,0.,0.));
#1114=DIRECTION('',(0.,-1.,0.));
#1115=DIRECTION('center_axis',(0.,-1.,0.));
#1116=DIRECTION('ref_axis',(1.,0.,0.));
#1117=DIRECTION('',(0.,1.,0.));
#1118=DIRECTION('center_axis',(0.,1.,0.));
#1119=DIRECTION('ref_axis',(1.,0.,0.));
#1120=DIRECTION('center_axis',(0.,1.,0.));
#1121=DIRECTION('ref_axis',(1.,0.,0.));
#1122=DIRECTION('center_axis',(0.,1.,0.));
#1123=DIRECTION('ref_axis',(1.,0.,0.));
#1124=DIRECTION('center_axis',(0.,-1.,0.));
#1125=DIRECTION('ref_axis',(1.,0.,0.));
#1126=DIRECTION('center_axis',(0.,-1.,0.));
#1127=DIRECTION('ref_axis',(-1.,0.,0.));
#1128=DIRECTION('center_axis',(0.,1.,0.));
#1129=DIRECTION('ref_axis',(0.,0.,1.));
#1130=DIRECTION('center_axis',(0.,0.,1.));
#1131=DIRECTION('ref_axis',(1.,0.,0.));
#1132=DIRECTION('center_axis',(0.,0.,1.));
#1133=DIRECTION('ref_axis',(1.,0.,0.));
#1134=DIRECTION('',(0.,-1.,0.));
#1135=DIRECTION('',(-1.,0.,0.));
#1136=DIRECTION('',(0.,1.,0.));
#1137=DIRECTION('center_axis',(0.,0.,1.));
#1138=DIRECTION('ref_axis',(1.,0.,0.));
#1139=DIRECTION('center_axis',(0.,0.,-1.));
#1140=DIRECTION('ref_axis',(1.,0.,0.));
#1141=DIRECTION('',(1.,0.,0.));
#1142=DIRECTION('',(0.,-1.,0.));
#1143=DIRECTION('center_axis',(0.,0.,1.));
#1144=DIRECTION('ref_axis',(1.,0.,0.));
#1145=DIRECTION('',(0.,1.,0.));
#1146=DIRECTION('',(1.,0.,0.));
#1147=DIRECTION('center_axis',(1.,0.,0.));
#1148=DIRECTION('ref_axis',(0.,0.,-1.));
#1149=DIRECTION('',(0.,0.,-1.));
#1150=DIRECTION('',(0.,0.,-1.));
#1151=DIRECTION('center_axis',(0.,1.,0.));
#1152=DIRECTION('ref_axis',(0.,0.,1.));
#1153=DIRECTION('',(0.,0.,-1.));
#1154=DIRECTION('center_axis',(-1.,0.,0.));
#1155=DIRECTION('ref_axis',(0.,0.,1.));
#1156=DIRECTION('',(0.,0.,1.));
#1157=DIRECTION('',(0.,0.,-1.));
#1158=DIRECTION('center_axis',(0.,1.,0.));
#1159=DIRECTION('ref_axis',(0.,0.,1.));
#1160=DIRECTION('',(0.,0.,1.));
#1161=DIRECTION('center_axis',(0.,0.,1.));
#1162=DIRECTION('ref_axis',(1.,0.,0.));
#1163=CARTESIAN_POINT('',(0.,0.,0.));
#1164=CARTESIAN_POINT('Origin',(0.,0.,54.5));
#1165=CARTESIAN_POINT('',(11.1242977306435,-23.5,54.5));
#1166=CARTESIAN_POINT('',(-11.1242977306435,-23.5,54.5));
#1167=CARTESIAN_POINT('',(0.,-23.5,54.5));
#1168=CARTESIAN_POINT('Origin',(0.,0.,54.5));
#1169=CARTESIAN_POINT('Origin',(0.,0.,47.25));
#1170=CARTESIAN_POINT('',(11.1242977306435,-23.5,53.6647554019517));
#1171=CARTESIAN_POINT('',(11.1242977306435,-23.5,47.25));
#1172=CARTESIAN_POINT('',(-11.1242977306435,-23.5,53.6647554019517));
#1173=CARTESIAN_POINT('Ctrl Pts',(-11.1242977306435,-23.5,53.6647554019517));
#1174=CARTESIAN_POINT('Ctrl Pts',(-10.7923390053132,-23.6571407529727,53.5631238391066));
#1175=CARTESIAN_POINT('Ctrl Pts',(-10.4562706315788,-23.8076120914349,53.4652137109882));
#1176=CARTESIAN_POINT('Ctrl Pts',(-8.52179516910829,-24.6247038259663,52.9309253132578));
#1177=CARTESIAN_POINT('Ctrl Pts',(-6.84216296844236,-25.1439126082541,52.5813913717205));
#1178=CARTESIAN_POINT('Ctrl Pts',(-3.42850146019125,-25.8317036429929,52.1157969132153));
#1179=CARTESIAN_POINT('Ctrl Pts',(-1.69437860824748,-26.,52.));
#1180=CARTESIAN_POINT('Ctrl Pts',(1.69437860824747,-26.,52.));
#1181=CARTESIAN_POINT('Ctrl Pts',(3.42850146019124,-25.831703642993,52.1157969132153));
#1182=CARTESIAN_POINT('Ctrl Pts',(6.84216296844235,-25.1439126082541,52.5813913717205));
#1183=CARTESIAN_POINT('Ctrl Pts',(8.52179516910828,-24.6247038259663,52.9309253132578));
#1184=CARTESIAN_POINT('Ctrl Pts',(10.4562706315788,-23.8076120914349,53.4652137109882));
#1185=CARTESIAN_POINT('Ctrl Pts',(10.7923390053132,-23.6571407529727,53.5631238391066));
#1186=CARTESIAN_POINT('Ctrl Pts',(11.1242977306435,-23.5,53.6647554019517));
#1187=CARTESIAN_POINT('',(-11.1242977306435,-23.5,47.25));
#1188=CARTESIAN_POINT('Origin',(0.,-23.5,80.));
#1189=CARTESIAN_POINT('',(-38.,-23.5,90.));
#1190=CARTESIAN_POINT('Origin',(0.,-23.5,90.));
#1191=CARTESIAN_POINT('Origin',(0.,-23.5,90.));
#1192=CARTESIAN_POINT('',(14.2,-23.5,61.4211616751135));
#1193=CARTESIAN_POINT('Origin',(16.5,-23.5,61.4211616751135));
#1194=CARTESIAN_POINT('',(-18.8,-23.5,61.4211616751135));
#1195=CARTESIAN_POINT('Origin',(-16.5,-23.5,61.4211616751135));
#1196=CARTESIAN_POINT('',(-35.3,-23.5,90.));
#1197=CARTESIAN_POINT('Origin',(-33.,-23.5,90.));
#1198=CARTESIAN_POINT('',(-18.8,-23.5,118.578838324886));
#1199=CARTESIAN_POINT('Origin',(-16.5,-23.5,118.578838324886));
#1200=CARTESIAN_POINT('',(14.2,-23.5,118.578838324886));
#1201=CARTESIAN_POINT('Origin',(16.5,-23.5,118.578838324886));
#1202=CARTESIAN_POINT('',(30.7,-23.5,90.));
#1203=CARTESIAN_POINT('Origin',(33.,-23.5,90.));
#1204=CARTESIAN_POINT('',(-13.5,-23.5,90.));
#1205=CARTESIAN_POINT('Origin',(0.,-23.5,90.));
#1206=CARTESIAN_POINT('',(-24.5713247506112,-23.5,73.5));
#1207=CARTESIAN_POINT('',(24.5713247506112,-23.5,73.5));
#1208=CARTESIAN_POINT('',(0.,-23.5,73.5));
#1209=CARTESIAN_POINT('',(-24.5713247506112,-23.5,68.5));
#1210=CARTESIAN_POINT('',(-24.5713247506112,-23.5,71.));
#1211=CARTESIAN_POINT('',(24.5713247506112,-23.5,68.5));
#1212=CARTESIAN_POINT('',(0.,-23.5,68.5));
#1213=CARTESIAN_POINT('',(24.5713247506112,-23.5,71.));
#1214=CARTESIAN_POINT('Origin',(16.5,-23.,61.4211616751135));
#1215=CARTESIAN_POINT('',(14.2,-26.75,61.4211616751135));
#1216=CARTESIAN_POINT('Origin',(16.5,-26.75,61.4211616751135));
#1217=CARTESIAN_POINT('',(14.2,-23.,61.4211616751135));
#1218=CARTESIAN_POINT('Origin',(16.5,-26.75,61.4211616751135));
#1219=CARTESIAN_POINT('Origin',(-16.5,-23.,61.4211616751135));
#1220=CARTESIAN_POINT('',(-18.8,-26.75,61.4211616751135));
#1221=CARTESIAN_POINT('Origin',(-16.5,-26.75,61.4211616751135));
#1222=CARTESIAN_POINT('',(-18.8,-23.,61.4211616751135));
#1223=CARTESIAN_POINT('Origin',(-16.5,-26.75,61.4211616751135));
#1224=CARTESIAN_POINT('Origin',(-33.,-23.,90.));
#1225=CARTESIAN_POINT('',(-35.3,-26.75,90.));
#1226=CARTESIAN_POINT('Origin',(-33.,-26.75,90.));
#1227=CARTESIAN_POINT('',(-35.3,-23.,90.));
#1228=CARTESIAN_POINT('Origin',(-33.,-26.75,90.));
#1229=CARTESIAN_POINT('Origin',(-16.5,-23.,118.578838324886));
#1230=CARTESIAN_POINT('',(-18.8,-26.75,118.578838324886));
#1231=CARTESIAN_POINT('Origin',(-16.5,-26.75,118.578838324886));
#1232=CARTESIAN_POINT('',(-18.8,-23.,118.578838324886));
#1233=CARTESIAN_POINT('Origin',(-16.5,-26.75,118.578838324886));
#1234=CARTESIAN_POINT('Origin',(16.5,-23.,118.578838324886));
#1235=CARTESIAN_POINT('',(14.2,-26.75,118.578838324886));
#1236=CARTESIAN_POINT('Origin',(16.5,-26.75,118.578838324886));
#1237=CARTESIAN_POINT('',(14.2,-23.,118.578838324886));
#1238=CARTESIAN_POINT('Origin',(16.5,-26.75,118.578838324886));
#1239=CARTESIAN_POINT('Origin',(33.,-23.,90.));
#1240=CARTESIAN_POINT('',(30.7,-26.75,90.));
#1241=CARTESIAN_POINT('Origin',(33.,-26.75,90.));
#1242=CARTESIAN_POINT('',(30.7,-23.,90.));
#1243=CARTESIAN_POINT('Origin',(33.,-26.75,90.));
#1244=CARTESIAN_POINT('Origin',(0.,-32.5,90.));
#1245=CARTESIAN_POINT('',(-18.65,-28.5,90.));
#1246=CARTESIAN_POINT('Origin',(0.,-28.5,90.));
#1247=CARTESIAN_POINT('',(-18.65,-35.5,90.));
#1248=CARTESIAN_POINT('',(-18.65,-32.5,90.));
#1249=CARTESIAN_POINT('Origin',(0.,-35.5,90.));
#1250=CARTESIAN_POINT('Origin',(0.,-28.5,90.));
#1251=CARTESIAN_POINT('',(-13.5,-28.5,90.));
#1252=CARTESIAN_POINT('Origin',(0.,-28.5,90.));
#1253=CARTESIAN_POINT('Origin',(0.,-29.5,90.));
#1254=CARTESIAN_POINT('',(-13.5,-29.5,90.));
#1255=CARTESIAN_POINT('Origin',(0.,17.2,90.));
#1256=CARTESIAN_POINT('',(-11.1,13.75,90.));
#1257=CARTESIAN_POINT('Origin',(0.,13.75,90.));
#1258=CARTESIAN_POINT('',(-11.1,20.75,90.));
#1259=CARTESIAN_POINT('',(-11.1,17.2,90.));
#1260=CARTESIAN_POINT('Origin',(0.,20.75,90.));
#1261=CARTESIAN_POINT('Origin',(0.,20.75,90.));
#1262=CARTESIAN_POINT('',(-8.,20.75,90.));
#1263=CARTESIAN_POINT('Origin',(0.,20.75,90.));
#1264=CARTESIAN_POINT('Origin',(0.,19.75,90.));
#1265=CARTESIAN_POINT('',(-8.,25.75,90.));
#1266=CARTESIAN_POINT('',(-8.,19.75,90.));
#1267=CARTESIAN_POINT('Origin',(0.,25.75,90.));
#1268=CARTESIAN_POINT('Origin',(6.01040764008565,-6.01040764008566,72.5));
#1269=CARTESIAN_POINT('',(2.76040764008565,-6.01040764008566,70.5));
#1270=CARTESIAN_POINT('Origin',(6.01040764008565,-6.01040764008566,70.5));
#1271=CARTESIAN_POINT('',(2.76040764008565,-6.01040764008566,73.5));
#1272=CARTESIAN_POINT('',(2.76040764008565,-6.01040764008566,72.5));
#1273=CARTESIAN_POINT('Origin',(6.01040764008565,-6.01040764008566,73.5));
#1274=CARTESIAN_POINT('Origin',(6.01040764008565,-6.01040764008566,70.5));
#1275=CARTESIAN_POINT('',(4.31040764008565,-6.01040764008566,70.5));
#1276=CARTESIAN_POINT('Origin',(6.01040764008565,-6.01040764008566,70.5));
#1277=CARTESIAN_POINT('Origin',(-6.01040764008566,-6.01040764008565,72.5));
#1278=CARTESIAN_POINT('',(-9.26040764008565,-6.01040764008565,70.5));
#1279=CARTESIAN_POINT('Origin',(-6.01040764008566,-6.01040764008565,70.5));
#1280=CARTESIAN_POINT('',(-9.26040764008565,-6.01040764008565,73.5));
#1281=CARTESIAN_POINT('',(-9.26040764008565,-6.01040764008565,72.5));
#1282=CARTESIAN_POINT('Origin',(-6.01040764008566,-6.01040764008565,73.5));
#1283=CARTESIAN_POINT('Origin',(-6.01040764008566,-6.01040764008565,70.5));
#1284=CARTESIAN_POINT('',(-7.71040764008565,-6.01040764008565,70.5));
#1285=CARTESIAN_POINT('Origin',(-6.01040764008566,-6.01040764008565,70.5));
#1286=CARTESIAN_POINT('Origin',(-6.01040764008565,6.01040764008565,72.5));
#1287=CARTESIAN_POINT('',(-9.26040764008565,6.01040764008565,70.5));
#1288=CARTESIAN_POINT('Origin',(-6.01040764008565,6.01040764008565,70.5));
#1289=CARTESIAN_POINT('',(-9.26040764008565,6.01040764008565,73.5));
#1290=CARTESIAN_POINT('',(-9.26040764008565,6.01040764008565,72.5));
#1291=CARTESIAN_POINT('Origin',(-6.01040764008565,6.01040764008565,73.5));
#1292=CARTESIAN_POINT('Origin',(-6.01040764008565,6.01040764008565,70.5));
#1293=CARTESIAN_POINT('',(-7.71040764008565,6.01040764008565,70.5));
#1294=CARTESIAN_POINT('Origin',(-6.01040764008565,6.01040764008565,70.5));
#1295=CARTESIAN_POINT('Origin',(6.01040764008565,6.01040764008565,72.5));
#1296=CARTESIAN_POINT('',(2.76040764008565,6.01040764008565,70.5));
#1297=CARTESIAN_POINT('Origin',(6.01040764008565,6.01040764008565,70.5));
#1298=CARTESIAN_POINT('',(2.76040764008565,6.01040764008565,73.5));
#1299=CARTESIAN_POINT('',(2.76040764008565,6.01040764008565,72.5));
#1300=CARTESIAN_POINT('Origin',(6.01040764008565,6.01040764008565,73.5));
#1301=CARTESIAN_POINT('Origin',(6.01040764008565,6.01040764008565,70.5));
#1302=CARTESIAN_POINT('',(4.31040764008565,6.01040764008565,70.5));
#1303=CARTESIAN_POINT('Origin',(6.01040764008565,6.01040764008565,70.5));
#1304=CARTESIAN_POINT('Origin',(6.01040764008565,-6.01040764008566,71.));
#1305=CARTESIAN_POINT('',(4.31040764008565,-6.01040764008566,68.5));
#1306=CARTESIAN_POINT('Origin',(6.01040764008565,-6.01040764008566,68.5));
#1307=CARTESIAN_POINT('',(4.31040764008565,-6.01040764008566,71.));
#1308=CARTESIAN_POINT('Origin',(-6.01040764008566,-6.01040764008565,71.));
#1309=CARTESIAN_POINT('',(-7.71040764008565,-6.01040764008565,68.5));
#1310=CARTESIAN_POINT('Origin',(-6.01040764008566,-6.01040764008565,68.5));
#1311=CARTESIAN_POINT('',(-7.71040764008565,-6.01040764008565,71.));
#1312=CARTESIAN_POINT('Origin',(-6.01040764008565,6.01040764008565,71.));
#1313=CARTESIAN_POINT('',(-7.71040764008565,6.01040764008565,68.5));
#1314=CARTESIAN_POINT('Origin',(-6.01040764008565,6.01040764008565,68.5));
#1315=CARTESIAN_POINT('',(-7.71040764008565,6.01040764008565,71.));
#1316=CARTESIAN_POINT('Origin',(6.01040764008565,6.01040764008565,71.));
#1317=CARTESIAN_POINT('',(4.31040764008565,6.01040764008565,68.5));
#1318=CARTESIAN_POINT('Origin',(6.01040764008565,6.01040764008565,68.5));
#1319=CARTESIAN_POINT('',(4.31040764008565,6.01040764008565,71.));
#1320=CARTESIAN_POINT('Origin',(0.,0.,69.5));
#1321=CARTESIAN_POINT('',(-4.25,-5.20474889637625E-16,68.5));
#1322=CARTESIAN_POINT('Origin',(0.,0.,68.5));
#1323=CARTESIAN_POINT('',(-4.25,-5.20474889637625E-16,71.5));
#1324=CARTESIAN_POINT('',(-4.25,-5.20474889637625E-16,69.5));
#1325=CARTESIAN_POINT('Origin',(0.,0.,71.5));
#1326=CARTESIAN_POINT('Origin',(0.,0.,71.5));
#1327=CARTESIAN_POINT('Origin',(0.,-29.5,90.));
#1328=CARTESIAN_POINT('',(-38.,-35.5,90.));
#1329=CARTESIAN_POINT('Origin',(0.,-35.5,90.));
#1330=CARTESIAN_POINT('',(-38.,-29.5,90.));
#1331=CARTESIAN_POINT('Origin',(0.,0.,68.5));
#1332=CARTESIAN_POINT('',(-22.2021958373491,25.75,68.5));
#1333=CARTESIAN_POINT('Origin',(0.,0.,68.5));
#1334=CARTESIAN_POINT('',(-8.17006731918408,25.75,68.5));
#1335=CARTESIAN_POINT('',(0.,25.75,68.5));
#1336=CARTESIAN_POINT('',(-8.17006731918408,13.75,68.5));
#1337=CARTESIAN_POINT('',(-8.17006731918408,19.75,68.5));
#1338=CARTESIAN_POINT('',(8.17006731918408,13.75,68.5));
#1339=CARTESIAN_POINT('',(0.,13.75,68.5));
#1340=CARTESIAN_POINT('',(8.17006731918408,25.75,68.5));
#1341=CARTESIAN_POINT('',(8.17006731918408,19.75,68.5));
#1342=CARTESIAN_POINT('',(22.2021958373491,25.75,68.5));
#1343=CARTESIAN_POINT('',(0.,25.75,68.5));
#1344=CARTESIAN_POINT('Origin',(0.,0.,68.5));
#1345=CARTESIAN_POINT('Origin',(0.,0.,71.));
#1346=CARTESIAN_POINT('',(-23.,25.0399680510978,73.5));
#1347=CARTESIAN_POINT('Origin',(0.,0.,73.5));
#1348=CARTESIAN_POINT('',(-23.,25.0399680510978,70.));
#1349=CARTESIAN_POINT('',(-23.,25.0399680510978,71.));
#1350=CARTESIAN_POINT('',(-22.2021958373491,25.75,70.));
#1351=CARTESIAN_POINT('Origin',(0.,0.,70.));
#1352=CARTESIAN_POINT('',(-22.2021958373491,25.75,71.));
#1353=CARTESIAN_POINT('Origin',(0.,19.75,90.));
#1354=CARTESIAN_POINT('',(-23.,25.75,90.));
#1355=CARTESIAN_POINT('',(-23.,13.75,90.));
#1356=CARTESIAN_POINT('',(-23.,19.75,90.));
#1357=CARTESIAN_POINT('',(23.,13.75,90.));
#1358=CARTESIAN_POINT('Origin',(0.,13.75,90.));
#1359=CARTESIAN_POINT('',(23.,25.75,90.));
#1360=CARTESIAN_POINT('',(23.,19.75,90.));
#1361=CARTESIAN_POINT('Origin',(0.,25.75,90.));
#1362=CARTESIAN_POINT('Origin',(0.,19.75,90.));
#1363=CARTESIAN_POINT('Origin',(0.,25.75,90.));
#1364=CARTESIAN_POINT('Origin',(0.,13.75,90.));
#1365=CARTESIAN_POINT('Origin',(0.,13.75,90.));
#1366=CARTESIAN_POINT('Origin',(0.,-35.5,80.));
#1367=CARTESIAN_POINT('Origin',(0.,0.,73.5));
#1368=CARTESIAN_POINT('',(23.,25.0399680510978,73.5));
#1369=CARTESIAN_POINT('Origin',(0.,0.,73.5));
#1370=CARTESIAN_POINT('',(23.,13.75,73.5));
#1371=CARTESIAN_POINT('',(23.,9.875,73.5));
#1372=CARTESIAN_POINT('',(-23.,13.75,73.5));
#1373=CARTESIAN_POINT('',(0.,13.75,73.5));
#1374=CARTESIAN_POINT('',(-23.,9.875,73.5));
#1375=CARTESIAN_POINT('Origin',(0.,19.75,70.));
#1376=CARTESIAN_POINT('',(22.2021958373491,25.75,70.));
#1377=CARTESIAN_POINT('',(23.,25.0399680510978,70.));
#1378=CARTESIAN_POINT('Origin',(0.,0.,70.));
#1379=CARTESIAN_POINT('',(23.,25.75,70.));
#1380=CARTESIAN_POINT('',(0.,25.75,70.));
#1381=CARTESIAN_POINT('',(23.,19.75,70.));
#1382=CARTESIAN_POINT('Origin',(0.,19.75,70.));
#1383=CARTESIAN_POINT('',(-23.,25.75,70.));
#1384=CARTESIAN_POINT('',(-23.,19.75,70.));
#1385=CARTESIAN_POINT('',(0.,25.75,70.));
#1386=CARTESIAN_POINT('Origin',(-23.,19.75,80.));
#1387=CARTESIAN_POINT('',(-23.,13.75,80.));
#1388=CARTESIAN_POINT('',(-23.,25.75,80.));
#1389=CARTESIAN_POINT('Origin',(0.,13.75,80.));
#1390=CARTESIAN_POINT('',(23.,13.75,80.));
#1391=CARTESIAN_POINT('Origin',(23.,19.75,80.));
#1392=CARTESIAN_POINT('',(23.,25.0399680510978,71.));
#1393=CARTESIAN_POINT('',(23.,25.75,80.));
#1394=CARTESIAN_POINT('Origin',(0.,25.75,71.));
#1395=CARTESIAN_POINT('',(22.2021958373491,25.75,71.));
#1396=CARTESIAN_POINT('Origin',(0.,0.,71.));
#1397=UNCERTAINTY_MEASURE_WITH_UNIT(LENGTH_MEASURE(0.01),#1401,
'DISTANCE_ACCURACY_VALUE',
'Maximum model space distance between geometric entities at asserted c
onnectivities');
#1398=UNCERTAINTY_MEASURE_WITH_UNIT(LENGTH_MEASURE(0.01),#1401,
'DISTANCE_ACCURACY_VALUE',
'Maximum model space distance between geometric entities at asserted c
onnectivities');
#1399=(
GEOMETRIC_REPRESENTATION_CONTEXT(3)
GLOBAL_UNCERTAINTY_ASSIGNED_CONTEXT((#1397))
GLOBAL_UNIT_ASSIGNED_CONTEXT((#1401,#1403,#1404))
REPRESENTATION_CONTEXT('','3D')
);
#1400=(
GEOMETRIC_REPRESENTATION_CONTEXT(3)
GLOBAL_UNCERTAINTY_ASSIGNED_CONTEXT((#1398))
GLOBAL_UNIT_ASSIGNED_CONTEXT((#1401,#1403,#1404))
REPRESENTATION_CONTEXT('','3D')
);
#1401=(
LENGTH_UNIT()
NAMED_UNIT(*)
SI_UNIT(.MILLI.,.METRE.)
);
#1402=(
LENGTH_UNIT()
NAMED_UNIT(*)
SI_UNIT($,.METRE.)
);
#1403=(
NAMED_UNIT(*)
PLANE_ANGLE_UNIT()
SI_UNIT($,.RADIAN.)
);
#1404=(
NAMED_UNIT(*)
SI_UNIT($,.STERADIAN.)
SOLID_ANGLE_UNIT()
);
#1405=SHAPE_DEFINITION_REPRESENTATION(#1406,#1407);
#1406=PRODUCT_DEFINITION_SHAPE('',$,#1409);
#1407=SHAPE_REPRESENTATION('',(#805),#1399);
#1408=PRODUCT_DEFINITION_CONTEXT('part definition',#1413,'design');
#1409=PRODUCT_DEFINITION('rt_yaw_column','rt_yaw_column',#1410,#1408);
#1410=PRODUCT_DEFINITION_FORMATION('',$,#1415);
#1411=PRODUCT_RELATED_PRODUCT_CATEGORY('rt_yaw_column','rt_yaw_column',
(#1415));
#1412=APPLICATION_PROTOCOL_DEFINITION('international standard',
'automotive_design',2009,#1413);
#1413=APPLICATION_CONTEXT(
'Core Data for Automotive Mechanical Design Process');
#1414=PRODUCT_CONTEXT('part definition',#1413,'mechanical');
#1415=PRODUCT('rt_yaw_column','rt_yaw_column',$,(#1414));
#1416=PRESENTATION_STYLE_ASSIGNMENT((#1417));
#1417=SURFACE_STYLE_USAGE(.BOTH.,#1418);
#1418=SURFACE_SIDE_STYLE('',(#1419));
#1419=SURFACE_STYLE_FILL_AREA(#1420);
#1420=FILL_AREA_STYLE('Steel - Satin',(#1421));
#1421=FILL_AREA_STYLE_COLOUR('Steel - Satin',#1422);
#1422=COLOUR_RGB('Steel - Satin',0.627450980392157,0.627450980392157,0.627450980392157);
ENDSEC;
END-ISO-10303-21;
