ISO-10303-21;
HEADER;
/* Generated by software containing ST-Developer
 * from STEP Tools, Inc. (www.steptools.com) 
 */

FILE_DESCRIPTION(
/* description */ (''),
/* implementation_level */ '2;1');

FILE_NAME(
/* name */ 'rt_grip_pinion.step',
/* time_stamp */ '2026-07-19T17:08:20-04:00',
/* author */ (''),
/* organization */ (''),
/* preprocessor_version */ 'ST-DEVELOPER v20.1',
/* originating_system */ 'Autodesk Translation Framework v15.8.0.0',
/* authorisation */ '');

FILE_SCHEMA (('AUTOMOTIVE_DESIGN { 1 0 10303 214 3 1 1 }'));
ENDSEC;

DATA;
#10=MECHANICAL_DESIGN_GEOMETRIC_PRESENTATION_REPRESENTATION('',(#13),#728);
#11=SHAPE_REPRESENTATION_RELATIONSHIP('SRR','None',#735,#12);
#12=ADVANCED_BREP_SHAPE_REPRESENTATION('',(#14),#727);
#13=STYLED_ITEM('',(#744),#14);
#14=MANIFOLD_SOLID_BREP('Body1',#386);
#15=FACE_BOUND('',#61,.T.);
#16=FACE_BOUND('',#65,.T.);
#17=FACE_BOUND('',#69,.T.);
#18=FACE_BOUND('',#86,.T.);
#19=FACE_BOUND('',#89,.T.);
#20=PLANE('',#403);
#21=PLANE('',#410);
#22=PLANE('',#415);
#23=PLANE('',#416);
#24=PLANE('',#441);
#25=PLANE('',#444);
#26=PLANE('',#447);
#27=PLANE('',#450);
#28=PLANE('',#453);
#29=PLANE('',#456);
#30=PLANE('',#459);
#31=PLANE('',#462);
#32=PLANE('',#465);
#33=FACE_OUTER_BOUND('',#59,.T.);
#34=FACE_OUTER_BOUND('',#60,.T.);
#35=FACE_OUTER_BOUND('',#62,.T.);
#36=FACE_OUTER_BOUND('',#63,.T.);
#37=FACE_OUTER_BOUND('',#64,.T.);
#38=FACE_OUTER_BOUND('',#66,.T.);
#39=FACE_OUTER_BOUND('',#67,.T.);
#40=FACE_OUTER_BOUND('',#68,.T.);
#41=FACE_OUTER_BOUND('',#70,.T.);
#42=FACE_OUTER_BOUND('',#71,.T.);
#43=FACE_OUTER_BOUND('',#72,.T.);
#44=FACE_OUTER_BOUND('',#73,.T.);
#45=FACE_OUTER_BOUND('',#74,.T.);
#46=FACE_OUTER_BOUND('',#75,.T.);
#47=FACE_OUTER_BOUND('',#76,.T.);
#48=FACE_OUTER_BOUND('',#77,.T.);
#49=FACE_OUTER_BOUND('',#78,.T.);
#50=FACE_OUTER_BOUND('',#79,.T.);
#51=FACE_OUTER_BOUND('',#80,.T.);
#52=FACE_OUTER_BOUND('',#81,.T.);
#53=FACE_OUTER_BOUND('',#82,.T.);
#54=FACE_OUTER_BOUND('',#83,.T.);
#55=FACE_OUTER_BOUND('',#84,.T.);
#56=FACE_OUTER_BOUND('',#85,.T.);
#57=FACE_OUTER_BOUND('',#87,.T.);
#58=FACE_OUTER_BOUND('',#88,.T.);
#59=EDGE_LOOP('',(#241,#242,#243,#244));
#60=EDGE_LOOP('',(#245));
#61=EDGE_LOOP('',(#246));
#62=EDGE_LOOP('',(#247,#248,#249,#250));
#63=EDGE_LOOP('',(#251,#252,#253,#254));
#64=EDGE_LOOP('',(#255));
#65=EDGE_LOOP('',(#256));
#66=EDGE_LOOP('',(#257,#258,#259,#260,#261));
#67=EDGE_LOOP('',(#262));
#68=EDGE_LOOP('',(#263,#264,#265,#266,#267,#268,#269,#270,#271,#272,#273,
#274,#275,#276,#277,#278,#279,#280,#281,#282,#283,#284,#285));
#69=EDGE_LOOP('',(#286));
#70=EDGE_LOOP('',(#287,#288,#289,#290,#291));
#71=EDGE_LOOP('',(#292));
#72=EDGE_LOOP('',(#293,#294,#295,#296,#297));
#73=EDGE_LOOP('',(#298));
#74=EDGE_LOOP('',(#299,#300,#301,#302,#303));
#75=EDGE_LOOP('',(#304));
#76=EDGE_LOOP('',(#305,#306,#307,#308,#309));
#77=EDGE_LOOP('',(#310));
#78=EDGE_LOOP('',(#311,#312,#313,#314,#315));
#79=EDGE_LOOP('',(#316));
#80=EDGE_LOOP('',(#317,#318,#319,#320,#321));
#81=EDGE_LOOP('',(#322));
#82=EDGE_LOOP('',(#323,#324,#325,#326));
#83=EDGE_LOOP('',(#327));
#84=EDGE_LOOP('',(#328,#329,#330,#331));
#85=EDGE_LOOP('',(#332));
#86=EDGE_LOOP('',(#333));
#87=EDGE_LOOP('',(#334,#335,#336,#337,#338,#339,#340,#341,#342,#343,#344));
#88=EDGE_LOOP('',(#345));
#89=EDGE_LOOP('',(#346));
#90=LINE('',#618,#103);
#91=LINE('',#626,#104);
#92=LINE('',#631,#105);
#93=LINE('',#638,#106);
#94=LINE('',#683,#107);
#95=LINE('',#688,#108);
#96=LINE('',#693,#109);
#97=LINE('',#698,#110);
#98=LINE('',#703,#111);
#99=LINE('',#708,#112);
#100=LINE('',#713,#113);
#101=LINE('',#718,#114);
#102=LINE('',#722,#115);
#103=VECTOR('',#472,2.5);
#104=VECTOR('',#483,1.25);
#105=VECTOR('',#488,2.25);
#106=VECTOR('',#497,2.25);
#107=VECTOR('',#554,2.25);
#108=VECTOR('',#561,2.25);
#109=VECTOR('',#568,2.25);
#110=VECTOR('',#575,2.25);
#111=VECTOR('',#582,2.25);
#112=VECTOR('',#589,2.25);
#113=VECTOR('',#596,2.25);
#114=VECTOR('',#603,5.7);
#115=VECTOR('',#608,11.25);
#116=CIRCLE('',#401,2.5);
#117=CIRCLE('',#402,2.5);
#118=CIRCLE('',#404,1.25);
#119=CIRCLE('',#406,1.25);
#120=CIRCLE('',#408,2.25);
#121=CIRCLE('',#409,2.25);
#122=CIRCLE('',#412,2.25);
#123=CIRCLE('',#413,2.25);
#124=CIRCLE('',#414,2.25);
#125=CIRCLE('',#417,11.25);
#126=CIRCLE('',#418,11.25);
#127=CIRCLE('',#419,2.25);
#128=CIRCLE('',#420,2.25);
#129=CIRCLE('',#421,11.25);
#130=CIRCLE('',#422,2.25);
#131=CIRCLE('',#423,2.25);
#132=CIRCLE('',#424,11.25);
#133=CIRCLE('',#425,2.25);
#134=CIRCLE('',#426,2.25);
#135=CIRCLE('',#427,11.25);
#136=CIRCLE('',#428,2.25);
#137=CIRCLE('',#429,2.25);
#138=CIRCLE('',#430,11.25);
#139=CIRCLE('',#431,2.25);
#140=CIRCLE('',#432,2.25);
#141=CIRCLE('',#433,11.25);
#142=CIRCLE('',#434,2.25);
#143=CIRCLE('',#435,2.25);
#144=CIRCLE('',#436,11.25);
#145=CIRCLE('',#437,2.25);
#146=CIRCLE('',#438,5.7);
#147=CIRCLE('',#440,2.25);
#148=CIRCLE('',#443,2.25);
#149=CIRCLE('',#446,2.25);
#150=CIRCLE('',#449,2.25);
#151=CIRCLE('',#452,2.25);
#152=CIRCLE('',#455,2.25);
#153=CIRCLE('',#458,2.25);
#154=CIRCLE('',#461,5.7);
#155=CIRCLE('',#464,11.25);
#156=VERTEX_POINT('',#615);
#157=VERTEX_POINT('',#617);
#158=VERTEX_POINT('',#621);
#159=VERTEX_POINT('',#624);
#160=VERTEX_POINT('',#628);
#161=VERTEX_POINT('',#630);
#162=VERTEX_POINT('',#635);
#163=VERTEX_POINT('',#637);
#164=VERTEX_POINT('',#639);
#165=VERTEX_POINT('',#644);
#166=VERTEX_POINT('',#646);
#167=VERTEX_POINT('',#648);
#168=VERTEX_POINT('',#651);
#169=VERTEX_POINT('',#653);
#170=VERTEX_POINT('',#656);
#171=VERTEX_POINT('',#658);
#172=VERTEX_POINT('',#661);
#173=VERTEX_POINT('',#663);
#174=VERTEX_POINT('',#666);
#175=VERTEX_POINT('',#668);
#176=VERTEX_POINT('',#671);
#177=VERTEX_POINT('',#673);
#178=VERTEX_POINT('',#678);
#179=VERTEX_POINT('',#681);
#180=VERTEX_POINT('',#686);
#181=VERTEX_POINT('',#691);
#182=VERTEX_POINT('',#696);
#183=VERTEX_POINT('',#701);
#184=VERTEX_POINT('',#706);
#185=VERTEX_POINT('',#711);
#186=VERTEX_POINT('',#716);
#187=VERTEX_POINT('',#721);
#188=EDGE_CURVE('',#156,#156,#116,.T.);
#189=EDGE_CURVE('',#156,#157,#90,.T.);
#190=EDGE_CURVE('',#157,#157,#117,.T.);
#191=EDGE_CURVE('',#158,#158,#118,.T.);
#192=EDGE_CURVE('',#159,#159,#119,.T.);
#193=EDGE_CURVE('',#159,#158,#91,.T.);
#194=EDGE_CURVE('',#160,#160,#120,.T.);
#195=EDGE_CURVE('',#160,#161,#92,.T.);
#196=EDGE_CURVE('',#161,#161,#121,.T.);
#197=EDGE_CURVE('',#162,#162,#122,.T.);
#198=EDGE_CURVE('',#162,#163,#93,.T.);
#199=EDGE_CURVE('',#164,#163,#123,.T.);
#200=EDGE_CURVE('',#163,#164,#124,.T.);
#201=EDGE_CURVE('',#165,#164,#125,.T.);
#202=EDGE_CURVE('',#164,#166,#126,.T.);
#203=EDGE_CURVE('',#166,#167,#127,.T.);
#204=EDGE_CURVE('',#167,#166,#128,.T.);
#205=EDGE_CURVE('',#166,#168,#129,.T.);
#206=EDGE_CURVE('',#168,#169,#130,.T.);
#207=EDGE_CURVE('',#169,#168,#131,.T.);
#208=EDGE_CURVE('',#168,#170,#132,.T.);
#209=EDGE_CURVE('',#170,#171,#133,.T.);
#210=EDGE_CURVE('',#171,#170,#134,.T.);
#211=EDGE_CURVE('',#170,#172,#135,.T.);
#212=EDGE_CURVE('',#172,#173,#136,.T.);
#213=EDGE_CURVE('',#173,#172,#137,.T.);
#214=EDGE_CURVE('',#172,#174,#138,.T.);
#215=EDGE_CURVE('',#174,#175,#139,.T.);
#216=EDGE_CURVE('',#175,#174,#140,.T.);
#217=EDGE_CURVE('',#174,#176,#141,.T.);
#218=EDGE_CURVE('',#176,#177,#142,.T.);
#219=EDGE_CURVE('',#177,#176,#143,.T.);
#220=EDGE_CURVE('',#176,#165,#144,.T.);
#221=EDGE_CURVE('',#165,#165,#145,.T.);
#222=EDGE_CURVE('',#178,#178,#146,.T.);
#223=EDGE_CURVE('',#179,#179,#147,.T.);
#224=EDGE_CURVE('',#179,#167,#94,.T.);
#225=EDGE_CURVE('',#180,#180,#148,.T.);
#226=EDGE_CURVE('',#180,#169,#95,.T.);
#227=EDGE_CURVE('',#181,#181,#149,.T.);
#228=EDGE_CURVE('',#181,#171,#96,.T.);
#229=EDGE_CURVE('',#182,#182,#150,.T.);
#230=EDGE_CURVE('',#182,#173,#97,.T.);
#231=EDGE_CURVE('',#183,#183,#151,.T.);
#232=EDGE_CURVE('',#183,#175,#98,.T.);
#233=EDGE_CURVE('',#184,#184,#152,.T.);
#234=EDGE_CURVE('',#184,#177,#99,.T.);
#235=EDGE_CURVE('',#185,#185,#153,.T.);
#236=EDGE_CURVE('',#185,#165,#100,.T.);
#237=EDGE_CURVE('',#186,#186,#154,.T.);
#238=EDGE_CURVE('',#186,#178,#101,.T.);
#239=EDGE_CURVE('',#165,#187,#102,.T.);
#240=EDGE_CURVE('',#187,#187,#155,.T.);
#241=ORIENTED_EDGE('',*,*,#188,.T.);
#242=ORIENTED_EDGE('',*,*,#189,.T.);
#243=ORIENTED_EDGE('',*,*,#190,.F.);
#244=ORIENTED_EDGE('',*,*,#189,.F.);
#245=ORIENTED_EDGE('',*,*,#188,.F.);
#246=ORIENTED_EDGE('',*,*,#191,.F.);
#247=ORIENTED_EDGE('',*,*,#192,.F.);
#248=ORIENTED_EDGE('',*,*,#193,.T.);
#249=ORIENTED_EDGE('',*,*,#191,.T.);
#250=ORIENTED_EDGE('',*,*,#193,.F.);
#251=ORIENTED_EDGE('',*,*,#194,.F.);
#252=ORIENTED_EDGE('',*,*,#195,.T.);
#253=ORIENTED_EDGE('',*,*,#196,.T.);
#254=ORIENTED_EDGE('',*,*,#195,.F.);
#255=ORIENTED_EDGE('',*,*,#196,.F.);
#256=ORIENTED_EDGE('',*,*,#192,.T.);
#257=ORIENTED_EDGE('',*,*,#197,.F.);
#258=ORIENTED_EDGE('',*,*,#198,.T.);
#259=ORIENTED_EDGE('',*,*,#199,.F.);
#260=ORIENTED_EDGE('',*,*,#200,.F.);
#261=ORIENTED_EDGE('',*,*,#198,.F.);
#262=ORIENTED_EDGE('',*,*,#197,.T.);
#263=ORIENTED_EDGE('',*,*,#201,.T.);
#264=ORIENTED_EDGE('',*,*,#199,.T.);
#265=ORIENTED_EDGE('',*,*,#200,.T.);
#266=ORIENTED_EDGE('',*,*,#202,.T.);
#267=ORIENTED_EDGE('',*,*,#203,.T.);
#268=ORIENTED_EDGE('',*,*,#204,.T.);
#269=ORIENTED_EDGE('',*,*,#205,.T.);
#270=ORIENTED_EDGE('',*,*,#206,.T.);
#271=ORIENTED_EDGE('',*,*,#207,.T.);
#272=ORIENTED_EDGE('',*,*,#208,.T.);
#273=ORIENTED_EDGE('',*,*,#209,.T.);
#274=ORIENTED_EDGE('',*,*,#210,.T.);
#275=ORIENTED_EDGE('',*,*,#211,.T.);
#276=ORIENTED_EDGE('',*,*,#212,.T.);
#277=ORIENTED_EDGE('',*,*,#213,.T.);
#278=ORIENTED_EDGE('',*,*,#214,.T.);
#279=ORIENTED_EDGE('',*,*,#215,.T.);
#280=ORIENTED_EDGE('',*,*,#216,.T.);
#281=ORIENTED_EDGE('',*,*,#217,.T.);
#282=ORIENTED_EDGE('',*,*,#218,.T.);
#283=ORIENTED_EDGE('',*,*,#219,.T.);
#284=ORIENTED_EDGE('',*,*,#220,.T.);
#285=ORIENTED_EDGE('',*,*,#221,.T.);
#286=ORIENTED_EDGE('',*,*,#222,.T.);
#287=ORIENTED_EDGE('',*,*,#223,.F.);
#288=ORIENTED_EDGE('',*,*,#224,.T.);
#289=ORIENTED_EDGE('',*,*,#203,.F.);
#290=ORIENTED_EDGE('',*,*,#204,.F.);
#291=ORIENTED_EDGE('',*,*,#224,.F.);
#292=ORIENTED_EDGE('',*,*,#223,.T.);
#293=ORIENTED_EDGE('',*,*,#225,.F.);
#294=ORIENTED_EDGE('',*,*,#226,.T.);
#295=ORIENTED_EDGE('',*,*,#206,.F.);
#296=ORIENTED_EDGE('',*,*,#207,.F.);
#297=ORIENTED_EDGE('',*,*,#226,.F.);
#298=ORIENTED_EDGE('',*,*,#225,.T.);
#299=ORIENTED_EDGE('',*,*,#227,.F.);
#300=ORIENTED_EDGE('',*,*,#228,.T.);
#301=ORIENTED_EDGE('',*,*,#209,.F.);
#302=ORIENTED_EDGE('',*,*,#210,.F.);
#303=ORIENTED_EDGE('',*,*,#228,.F.);
#304=ORIENTED_EDGE('',*,*,#227,.T.);
#305=ORIENTED_EDGE('',*,*,#229,.F.);
#306=ORIENTED_EDGE('',*,*,#230,.T.);
#307=ORIENTED_EDGE('',*,*,#212,.F.);
#308=ORIENTED_EDGE('',*,*,#213,.F.);
#309=ORIENTED_EDGE('',*,*,#230,.F.);
#310=ORIENTED_EDGE('',*,*,#229,.T.);
#311=ORIENTED_EDGE('',*,*,#231,.F.);
#312=ORIENTED_EDGE('',*,*,#232,.T.);
#313=ORIENTED_EDGE('',*,*,#215,.F.);
#314=ORIENTED_EDGE('',*,*,#216,.F.);
#315=ORIENTED_EDGE('',*,*,#232,.F.);
#316=ORIENTED_EDGE('',*,*,#231,.T.);
#317=ORIENTED_EDGE('',*,*,#233,.F.);
#318=ORIENTED_EDGE('',*,*,#234,.T.);
#319=ORIENTED_EDGE('',*,*,#218,.F.);
#320=ORIENTED_EDGE('',*,*,#219,.F.);
#321=ORIENTED_EDGE('',*,*,#234,.F.);
#322=ORIENTED_EDGE('',*,*,#233,.T.);
#323=ORIENTED_EDGE('',*,*,#235,.F.);
#324=ORIENTED_EDGE('',*,*,#236,.T.);
#325=ORIENTED_EDGE('',*,*,#221,.F.);
#326=ORIENTED_EDGE('',*,*,#236,.F.);
#327=ORIENTED_EDGE('',*,*,#235,.T.);
#328=ORIENTED_EDGE('',*,*,#237,.F.);
#329=ORIENTED_EDGE('',*,*,#238,.T.);
#330=ORIENTED_EDGE('',*,*,#222,.F.);
#331=ORIENTED_EDGE('',*,*,#238,.F.);
#332=ORIENTED_EDGE('',*,*,#237,.T.);
#333=ORIENTED_EDGE('',*,*,#190,.T.);
#334=ORIENTED_EDGE('',*,*,#201,.F.);
#335=ORIENTED_EDGE('',*,*,#239,.T.);
#336=ORIENTED_EDGE('',*,*,#240,.F.);
#337=ORIENTED_EDGE('',*,*,#239,.F.);
#338=ORIENTED_EDGE('',*,*,#220,.F.);
#339=ORIENTED_EDGE('',*,*,#217,.F.);
#340=ORIENTED_EDGE('',*,*,#214,.F.);
#341=ORIENTED_EDGE('',*,*,#211,.F.);
#342=ORIENTED_EDGE('',*,*,#208,.F.);
#343=ORIENTED_EDGE('',*,*,#205,.F.);
#344=ORIENTED_EDGE('',*,*,#202,.F.);
#345=ORIENTED_EDGE('',*,*,#240,.T.);
#346=ORIENTED_EDGE('',*,*,#194,.T.);
#347=CYLINDRICAL_SURFACE('',#400,2.5);
#348=CYLINDRICAL_SURFACE('',#405,1.25);
#349=CYLINDRICAL_SURFACE('',#407,2.25);
#350=CYLINDRICAL_SURFACE('',#411,2.25);
#351=CYLINDRICAL_SURFACE('',#439,2.25);
#352=CYLINDRICAL_SURFACE('',#442,2.25);
#353=CYLINDRICAL_SURFACE('',#445,2.25);
#354=CYLINDRICAL_SURFACE('',#448,2.25);
#355=CYLINDRICAL_SURFACE('',#451,2.25);
#356=CYLINDRICAL_SURFACE('',#454,2.25);
#357=CYLINDRICAL_SURFACE('',#457,2.25);
#358=CYLINDRICAL_SURFACE('',#460,5.7);
#359=CYLINDRICAL_SURFACE('',#463,11.25);
#360=ADVANCED_FACE('',(#33),#347,.F.);
#361=ADVANCED_FACE('',(#34,#15),#20,.F.);
#362=ADVANCED_FACE('',(#35),#348,.F.);
#363=ADVANCED_FACE('',(#36),#349,.F.);
#364=ADVANCED_FACE('',(#37,#16),#21,.F.);
#365=ADVANCED_FACE('',(#38),#350,.T.);
#366=ADVANCED_FACE('',(#39),#22,.T.);
#367=ADVANCED_FACE('',(#40,#17),#23,.T.);
#368=ADVANCED_FACE('',(#41),#351,.T.);
#369=ADVANCED_FACE('',(#42),#24,.T.);
#370=ADVANCED_FACE('',(#43),#352,.T.);
#371=ADVANCED_FACE('',(#44),#25,.T.);
#372=ADVANCED_FACE('',(#45),#353,.T.);
#373=ADVANCED_FACE('',(#46),#26,.T.);
#374=ADVANCED_FACE('',(#47),#354,.T.);
#375=ADVANCED_FACE('',(#48),#27,.T.);
#376=ADVANCED_FACE('',(#49),#355,.T.);
#377=ADVANCED_FACE('',(#50),#28,.T.);
#378=ADVANCED_FACE('',(#51),#356,.T.);
#379=ADVANCED_FACE('',(#52),#29,.T.);
#380=ADVANCED_FACE('',(#53),#357,.T.);
#381=ADVANCED_FACE('',(#54),#30,.T.);
#382=ADVANCED_FACE('',(#55),#358,.T.);
#383=ADVANCED_FACE('',(#56,#18),#31,.T.);
#384=ADVANCED_FACE('',(#57),#359,.T.);
#385=ADVANCED_FACE('',(#58,#19),#32,.T.);
#386=CLOSED_SHELL('',(#360,#361,#362,#363,#364,#365,#366,#367,#368,#369,
#370,#371,#372,#373,#374,#375,#376,#377,#378,#379,#380,#381,#382,#383,#384,
#385));
#387=DERIVED_UNIT_ELEMENT(#389,1.);
#388=DERIVED_UNIT_ELEMENT(#730,-3.);
#389=(
MASS_UNIT()
NAMED_UNIT(*)
SI_UNIT(.KILO.,.GRAM.)
);
#390=DERIVED_UNIT((#387,#388));
#391=MEASURE_REPRESENTATION_ITEM('density measure',
POSITIVE_RATIO_MEASURE(7850.),#390);
#392=PROPERTY_DEFINITION_REPRESENTATION(#397,#394);
#393=PROPERTY_DEFINITION_REPRESENTATION(#398,#395);
#394=REPRESENTATION('material name',(#396),#727);
#395=REPRESENTATION('density',(#391),#727);
#396=DESCRIPTIVE_REPRESENTATION_ITEM('Steel','Steel');
#397=PROPERTY_DEFINITION('material property','material name',#737);
#398=PROPERTY_DEFINITION('material property','density of part',#737);
#399=AXIS2_PLACEMENT_3D('',#613,#466,#467);
#400=AXIS2_PLACEMENT_3D('',#614,#468,#469);
#401=AXIS2_PLACEMENT_3D('',#616,#470,#471);
#402=AXIS2_PLACEMENT_3D('',#619,#473,#474);
#403=AXIS2_PLACEMENT_3D('',#620,#475,#476);
#404=AXIS2_PLACEMENT_3D('',#622,#477,#478);
#405=AXIS2_PLACEMENT_3D('',#623,#479,#480);
#406=AXIS2_PLACEMENT_3D('',#625,#481,#482);
#407=AXIS2_PLACEMENT_3D('',#627,#484,#485);
#408=AXIS2_PLACEMENT_3D('',#629,#486,#487);
#409=AXIS2_PLACEMENT_3D('',#632,#489,#490);
#410=AXIS2_PLACEMENT_3D('',#633,#491,#492);
#411=AXIS2_PLACEMENT_3D('',#634,#493,#494);
#412=AXIS2_PLACEMENT_3D('',#636,#495,#496);
#413=AXIS2_PLACEMENT_3D('',#640,#498,#499);
#414=AXIS2_PLACEMENT_3D('',#641,#500,#501);
#415=AXIS2_PLACEMENT_3D('',#642,#502,#503);
#416=AXIS2_PLACEMENT_3D('',#643,#504,#505);
#417=AXIS2_PLACEMENT_3D('',#645,#506,#507);
#418=AXIS2_PLACEMENT_3D('',#647,#508,#509);
#419=AXIS2_PLACEMENT_3D('',#649,#510,#511);
#420=AXIS2_PLACEMENT_3D('',#650,#512,#513);
#421=AXIS2_PLACEMENT_3D('',#652,#514,#515);
#422=AXIS2_PLACEMENT_3D('',#654,#516,#517);
#423=AXIS2_PLACEMENT_3D('',#655,#518,#519);
#424=AXIS2_PLACEMENT_3D('',#657,#520,#521);
#425=AXIS2_PLACEMENT_3D('',#659,#522,#523);
#426=AXIS2_PLACEMENT_3D('',#660,#524,#525);
#427=AXIS2_PLACEMENT_3D('',#662,#526,#527);
#428=AXIS2_PLACEMENT_3D('',#664,#528,#529);
#429=AXIS2_PLACEMENT_3D('',#665,#530,#531);
#430=AXIS2_PLACEMENT_3D('',#667,#532,#533);
#431=AXIS2_PLACEMENT_3D('',#669,#534,#535);
#432=AXIS2_PLACEMENT_3D('',#670,#536,#537);
#433=AXIS2_PLACEMENT_3D('',#672,#538,#539);
#434=AXIS2_PLACEMENT_3D('',#674,#540,#541);
#435=AXIS2_PLACEMENT_3D('',#675,#542,#543);
#436=AXIS2_PLACEMENT_3D('',#676,#544,#545);
#437=AXIS2_PLACEMENT_3D('',#677,#546,#547);
#438=AXIS2_PLACEMENT_3D('',#679,#548,#549);
#439=AXIS2_PLACEMENT_3D('',#680,#550,#551);
#440=AXIS2_PLACEMENT_3D('',#682,#552,#553);
#441=AXIS2_PLACEMENT_3D('',#684,#555,#556);
#442=AXIS2_PLACEMENT_3D('',#685,#557,#558);
#443=AXIS2_PLACEMENT_3D('',#687,#559,#560);
#444=AXIS2_PLACEMENT_3D('',#689,#562,#563);
#445=AXIS2_PLACEMENT_3D('',#690,#564,#565);
#446=AXIS2_PLACEMENT_3D('',#692,#566,#567);
#447=AXIS2_PLACEMENT_3D('',#694,#569,#570);
#448=AXIS2_PLACEMENT_3D('',#695,#571,#572);
#449=AXIS2_PLACEMENT_3D('',#697,#573,#574);
#450=AXIS2_PLACEMENT_3D('',#699,#576,#577);
#451=AXIS2_PLACEMENT_3D('',#700,#578,#579);
#452=AXIS2_PLACEMENT_3D('',#702,#580,#581);
#453=AXIS2_PLACEMENT_3D('',#704,#583,#584);
#454=AXIS2_PLACEMENT_3D('',#705,#585,#586);
#455=AXIS2_PLACEMENT_3D('',#707,#587,#588);
#456=AXIS2_PLACEMENT_3D('',#709,#590,#591);
#457=AXIS2_PLACEMENT_3D('',#710,#592,#593);
#458=AXIS2_PLACEMENT_3D('',#712,#594,#595);
#459=AXIS2_PLACEMENT_3D('',#714,#597,#598);
#460=AXIS2_PLACEMENT_3D('',#715,#599,#600);
#461=AXIS2_PLACEMENT_3D('',#717,#601,#602);
#462=AXIS2_PLACEMENT_3D('',#719,#604,#605);
#463=AXIS2_PLACEMENT_3D('',#720,#606,#607);
#464=AXIS2_PLACEMENT_3D('',#723,#609,#610);
#465=AXIS2_PLACEMENT_3D('',#724,#611,#612);
#466=DIRECTION('axis',(0.,0.,1.));
#467=DIRECTION('refdir',(1.,0.,0.));
#468=DIRECTION('center_axis',(1.,0.,0.));
#469=DIRECTION('ref_axis',(0.,0.,-1.));
#470=DIRECTION('center_axis',(-1.,0.,0.));
#471=DIRECTION('ref_axis',(0.,0.,-1.));
#472=DIRECTION('',(1.,0.,0.));
#473=DIRECTION('center_axis',(-1.,0.,0.));
#474=DIRECTION('ref_axis',(0.,0.,-1.));
#475=DIRECTION('center_axis',(-1.,0.,0.));
#476=DIRECTION('ref_axis',(0.,0.,1.));
#477=DIRECTION('center_axis',(1.,0.,0.));
#478=DIRECTION('ref_axis',(0.,0.,-1.));
#479=DIRECTION('center_axis',(1.,0.,0.));
#480=DIRECTION('ref_axis',(0.,0.,-1.));
#481=DIRECTION('center_axis',(1.,0.,0.));
#482=DIRECTION('ref_axis',(0.,0.,-1.));
#483=DIRECTION('',(1.,0.,0.));
#484=DIRECTION('center_axis',(1.,0.,0.));
#485=DIRECTION('ref_axis',(0.,0.,-1.));
#486=DIRECTION('center_axis',(1.,0.,0.));
#487=DIRECTION('ref_axis',(0.,0.,-1.));
#488=DIRECTION('',(1.,0.,0.));
#489=DIRECTION('center_axis',(1.,0.,0.));
#490=DIRECTION('ref_axis',(0.,0.,-1.));
#491=DIRECTION('center_axis',(1.,0.,0.));
#492=DIRECTION('ref_axis',(0.,0.,-1.));
#493=DIRECTION('center_axis',(1.,0.,0.));
#494=DIRECTION('ref_axis',(0.,0.,-1.));
#495=DIRECTION('center_axis',(1.,0.,0.));
#496=DIRECTION('ref_axis',(0.,0.,-1.));
#497=DIRECTION('',(-1.,0.,0.));
#498=DIRECTION('center_axis',(-1.,0.,0.));
#499=DIRECTION('ref_axis',(0.,0.,-1.));
#500=DIRECTION('center_axis',(-1.,0.,0.));
#501=DIRECTION('ref_axis',(0.,0.,-1.));
#502=DIRECTION('center_axis',(1.,0.,0.));
#503=DIRECTION('ref_axis',(0.,0.,-1.));
#504=DIRECTION('center_axis',(1.,0.,0.));
#505=DIRECTION('ref_axis',(0.,0.,-1.));
#506=DIRECTION('center_axis',(1.,0.,0.));
#507=DIRECTION('ref_axis',(0.,0.,-1.));
#508=DIRECTION('center_axis',(1.,0.,0.));
#509=DIRECTION('ref_axis',(0.,0.,-1.));
#510=DIRECTION('center_axis',(-1.,0.,0.));
#511=DIRECTION('ref_axis',(0.,0.,-1.));
#512=DIRECTION('center_axis',(-1.,0.,0.));
#513=DIRECTION('ref_axis',(0.,0.,-1.));
#514=DIRECTION('center_axis',(1.,0.,0.));
#515=DIRECTION('ref_axis',(0.,0.,-1.));
#516=DIRECTION('center_axis',(-1.,0.,0.));
#517=DIRECTION('ref_axis',(0.,0.,-1.));
#518=DIRECTION('center_axis',(-1.,0.,0.));
#519=DIRECTION('ref_axis',(0.,0.,-1.));
#520=DIRECTION('center_axis',(1.,0.,0.));
#521=DIRECTION('ref_axis',(0.,0.,-1.));
#522=DIRECTION('center_axis',(-1.,0.,0.));
#523=DIRECTION('ref_axis',(0.,0.,-1.));
#524=DIRECTION('center_axis',(-1.,0.,0.));
#525=DIRECTION('ref_axis',(0.,0.,-1.));
#526=DIRECTION('center_axis',(1.,0.,0.));
#527=DIRECTION('ref_axis',(0.,0.,-1.));
#528=DIRECTION('center_axis',(-1.,0.,0.));
#529=DIRECTION('ref_axis',(0.,0.,-1.));
#530=DIRECTION('center_axis',(-1.,0.,0.));
#531=DIRECTION('ref_axis',(0.,0.,-1.));
#532=DIRECTION('center_axis',(1.,0.,0.));
#533=DIRECTION('ref_axis',(0.,0.,-1.));
#534=DIRECTION('center_axis',(-1.,0.,0.));
#535=DIRECTION('ref_axis',(0.,0.,-1.));
#536=DIRECTION('center_axis',(-1.,0.,0.));
#537=DIRECTION('ref_axis',(0.,0.,-1.));
#538=DIRECTION('center_axis',(1.,0.,0.));
#539=DIRECTION('ref_axis',(0.,0.,-1.));
#540=DIRECTION('center_axis',(-1.,0.,0.));
#541=DIRECTION('ref_axis',(0.,0.,-1.));
#542=DIRECTION('center_axis',(-1.,0.,0.));
#543=DIRECTION('ref_axis',(0.,0.,-1.));
#544=DIRECTION('center_axis',(1.,0.,0.));
#545=DIRECTION('ref_axis',(0.,0.,-1.));
#546=DIRECTION('center_axis',(-1.,0.,0.));
#547=DIRECTION('ref_axis',(0.,0.,-1.));
#548=DIRECTION('center_axis',(-1.,0.,0.));
#549=DIRECTION('ref_axis',(0.,0.,-1.));
#550=DIRECTION('center_axis',(1.,0.,0.));
#551=DIRECTION('ref_axis',(0.,0.,-1.));
#552=DIRECTION('center_axis',(1.,0.,0.));
#553=DIRECTION('ref_axis',(0.,0.,-1.));
#554=DIRECTION('',(-1.,0.,0.));
#555=DIRECTION('center_axis',(1.,0.,0.));
#556=DIRECTION('ref_axis',(0.,0.,-1.));
#557=DIRECTION('center_axis',(1.,0.,0.));
#558=DIRECTION('ref_axis',(0.,0.,-1.));
#559=DIRECTION('center_axis',(1.,0.,0.));
#560=DIRECTION('ref_axis',(0.,0.,-1.));
#561=DIRECTION('',(-1.,0.,0.));
#562=DIRECTION('center_axis',(1.,0.,0.));
#563=DIRECTION('ref_axis',(0.,0.,-1.));
#564=DIRECTION('center_axis',(1.,0.,0.));
#565=DIRECTION('ref_axis',(0.,0.,-1.));
#566=DIRECTION('center_axis',(1.,0.,0.));
#567=DIRECTION('ref_axis',(0.,0.,-1.));
#568=DIRECTION('',(-1.,0.,0.));
#569=DIRECTION('center_axis',(1.,0.,0.));
#570=DIRECTION('ref_axis',(0.,0.,-1.));
#571=DIRECTION('center_axis',(1.,0.,0.));
#572=DIRECTION('ref_axis',(0.,0.,-1.));
#573=DIRECTION('center_axis',(1.,0.,0.));
#574=DIRECTION('ref_axis',(0.,0.,-1.));
#575=DIRECTION('',(-1.,0.,0.));
#576=DIRECTION('center_axis',(1.,0.,0.));
#577=DIRECTION('ref_axis',(0.,0.,-1.));
#578=DIRECTION('center_axis',(1.,0.,0.));
#579=DIRECTION('ref_axis',(0.,0.,-1.));
#580=DIRECTION('center_axis',(1.,0.,0.));
#581=DIRECTION('ref_axis',(0.,0.,-1.));
#582=DIRECTION('',(-1.,0.,0.));
#583=DIRECTION('center_axis',(1.,0.,0.));
#584=DIRECTION('ref_axis',(0.,0.,-1.));
#585=DIRECTION('center_axis',(1.,0.,0.));
#586=DIRECTION('ref_axis',(0.,0.,-1.));
#587=DIRECTION('center_axis',(1.,0.,0.));
#588=DIRECTION('ref_axis',(0.,0.,-1.));
#589=DIRECTION('',(-1.,0.,0.));
#590=DIRECTION('center_axis',(1.,0.,0.));
#591=DIRECTION('ref_axis',(0.,0.,-1.));
#592=DIRECTION('center_axis',(1.,0.,0.));
#593=DIRECTION('ref_axis',(0.,0.,-1.));
#594=DIRECTION('center_axis',(1.,0.,0.));
#595=DIRECTION('ref_axis',(0.,0.,-1.));
#596=DIRECTION('',(-1.,0.,0.));
#597=DIRECTION('center_axis',(1.,0.,0.));
#598=DIRECTION('ref_axis',(0.,0.,-1.));
#599=DIRECTION('center_axis',(1.,0.,0.));
#600=DIRECTION('ref_axis',(0.,0.,-1.));
#601=DIRECTION('center_axis',(1.,0.,0.));
#602=DIRECTION('ref_axis',(0.,0.,-1.));
#603=DIRECTION('',(-1.,0.,0.));
#604=DIRECTION('center_axis',(1.,0.,0.));
#605=DIRECTION('ref_axis',(0.,0.,-1.));
#606=DIRECTION('center_axis',(1.,0.,0.));
#607=DIRECTION('ref_axis',(0.,0.,-1.));
#608=DIRECTION('',(-1.,0.,0.));
#609=DIRECTION('center_axis',(-1.,0.,0.));
#610=DIRECTION('ref_axis',(0.,0.,-1.));
#611=DIRECTION('center_axis',(-1.,0.,0.));
#612=DIRECTION('ref_axis',(0.,0.,1.));
#613=CARTESIAN_POINT('',(0.,0.,0.));
#614=CARTESIAN_POINT('Origin',(40.9,0.,0.));
#615=CARTESIAN_POINT('',(40.1,-3.06161699786838E-16,2.5));
#616=CARTESIAN_POINT('Origin',(40.1,0.,0.));
#617=CARTESIAN_POINT('',(41.6,3.06161699786838E-16,2.5));
#618=CARTESIAN_POINT('',(40.9,-3.06161699786838E-16,2.5));
#619=CARTESIAN_POINT('Origin',(41.6,0.,0.));
#620=CARTESIAN_POINT('Origin',(40.1,0.,0.));
#621=CARTESIAN_POINT('',(40.1,-1.53080849893419E-16,1.25));
#622=CARTESIAN_POINT('Origin',(40.1,0.,0.));
#623=CARTESIAN_POINT('Origin',(38.45,0.,0.));
#624=CARTESIAN_POINT('',(35.4,-1.53080849893419E-16,1.25));
#625=CARTESIAN_POINT('Origin',(35.4,0.,0.));
#626=CARTESIAN_POINT('',(38.45,-1.53080849893419E-16,1.25));
#627=CARTESIAN_POINT('Origin',(33.45,0.,0.));
#628=CARTESIAN_POINT('',(31.6,-2.75545529808154E-16,2.25));
#629=CARTESIAN_POINT('Origin',(31.6,0.,0.));
#630=CARTESIAN_POINT('',(35.4,-2.75545529808154E-16,2.25));
#631=CARTESIAN_POINT('',(33.45,-2.75545529808154E-16,2.25));
#632=CARTESIAN_POINT('Origin',(35.4,0.,0.));
#633=CARTESIAN_POINT('Origin',(35.4,0.,0.));
#634=CARTESIAN_POINT('Origin',(37.8,-6.36396103067893,6.36396103067893));
#635=CARTESIAN_POINT('',(41.6,-6.36396103067893,8.61396103067893));
#636=CARTESIAN_POINT('Origin',(41.6,-6.36396103067893,6.36396103067893));
#637=CARTESIAN_POINT('',(34.6,-6.36396103067893,8.61396103067893));
#638=CARTESIAN_POINT('',(37.8,-6.36396103067893,8.61396103067893));
#639=CARTESIAN_POINT('',(34.6,-7.95495128834866,7.95495128834866));
#640=CARTESIAN_POINT('Origin',(34.6,-6.36396103067893,6.36396103067893));
#641=CARTESIAN_POINT('Origin',(34.6,-6.36396103067893,6.36396103067893));
#642=CARTESIAN_POINT('Origin',(41.6,-6.36396103067893,6.36396103067893));
#643=CARTESIAN_POINT('Origin',(34.6,0.,0.));
#644=CARTESIAN_POINT('',(34.6,0.,11.25));
#645=CARTESIAN_POINT('Origin',(34.6,0.,0.));
#646=CARTESIAN_POINT('',(34.6,-11.25,-2.06659147356116E-15));
#647=CARTESIAN_POINT('Origin',(34.6,0.,0.));
#648=CARTESIAN_POINT('',(34.6,-9.,2.25));
#649=CARTESIAN_POINT('Origin',(34.6,-9.,-1.65327317884893E-15));
#650=CARTESIAN_POINT('Origin',(34.6,-9.,-1.65327317884893E-15));
#651=CARTESIAN_POINT('',(34.6,-7.95495128834866,-7.95495128834866));
#652=CARTESIAN_POINT('Origin',(34.6,0.,0.));
#653=CARTESIAN_POINT('',(34.6,-6.36396103067893,-4.11396103067893));
#654=CARTESIAN_POINT('Origin',(34.6,-6.36396103067893,-6.36396103067893));
#655=CARTESIAN_POINT('Origin',(34.6,-6.36396103067893,-6.36396103067893));
#656=CARTESIAN_POINT('',(34.6,1.37772764904077E-15,-11.25));
#657=CARTESIAN_POINT('Origin',(34.6,0.,0.));
#658=CARTESIAN_POINT('',(34.6,8.26636589424463E-16,-6.75));
#659=CARTESIAN_POINT('Origin',(34.6,1.10218211923262E-15,-9.));
#660=CARTESIAN_POINT('Origin',(34.6,1.10218211923262E-15,-9.));
#661=CARTESIAN_POINT('',(34.6,7.95495128834866,-7.95495128834866));
#662=CARTESIAN_POINT('Origin',(34.6,0.,0.));
#663=CARTESIAN_POINT('',(34.6,6.36396103067893,-4.11396103067893));
#664=CARTESIAN_POINT('Origin',(34.6,6.36396103067893,-6.36396103067893));
#665=CARTESIAN_POINT('Origin',(34.6,6.36396103067893,-6.36396103067893));
#666=CARTESIAN_POINT('',(34.6,11.25,6.88863824520386E-16));
#667=CARTESIAN_POINT('Origin',(34.6,0.,0.));
#668=CARTESIAN_POINT('',(34.6,9.,2.25));
#669=CARTESIAN_POINT('Origin',(34.6,9.,5.51091059616309E-16));
#670=CARTESIAN_POINT('Origin',(34.6,9.,5.51091059616309E-16));
#671=CARTESIAN_POINT('',(34.6,7.95495128834866,7.95495128834866));
#672=CARTESIAN_POINT('Origin',(34.6,0.,0.));
#673=CARTESIAN_POINT('',(34.6,6.36396103067893,8.61396103067893));
#674=CARTESIAN_POINT('Origin',(34.6,6.36396103067893,6.36396103067893));
#675=CARTESIAN_POINT('Origin',(34.6,6.36396103067893,6.36396103067893));
#676=CARTESIAN_POINT('Origin',(34.6,0.,0.));
#677=CARTESIAN_POINT('Origin',(34.6,0.,9.));
#678=CARTESIAN_POINT('',(34.6,6.98048675513991E-16,5.7));
#679=CARTESIAN_POINT('Origin',(34.6,0.,0.));
#680=CARTESIAN_POINT('Origin',(37.8,-9.,-1.65327317884893E-15));
#681=CARTESIAN_POINT('',(41.6,-9.,2.25));
#682=CARTESIAN_POINT('Origin',(41.6,-9.,-1.65327317884893E-15));
#683=CARTESIAN_POINT('',(37.8,-9.,2.25));
#684=CARTESIAN_POINT('Origin',(41.6,-9.,-1.65327317884893E-15));
#685=CARTESIAN_POINT('Origin',(37.8,-6.36396103067893,-6.36396103067893));
#686=CARTESIAN_POINT('',(41.6,-6.36396103067893,-4.11396103067893));
#687=CARTESIAN_POINT('Origin',(41.6,-6.36396103067893,-6.36396103067893));
#688=CARTESIAN_POINT('',(37.8,-6.36396103067893,-4.11396103067893));
#689=CARTESIAN_POINT('Origin',(41.6,-6.36396103067893,-6.36396103067893));
#690=CARTESIAN_POINT('Origin',(37.8,1.10218211923262E-15,-9.));
#691=CARTESIAN_POINT('',(41.6,8.26636589424463E-16,-6.75));
#692=CARTESIAN_POINT('Origin',(41.6,1.10218211923262E-15,-9.));
#693=CARTESIAN_POINT('',(37.8,8.26636589424463E-16,-6.75));
#694=CARTESIAN_POINT('Origin',(41.6,1.10218211923262E-15,-9.));
#695=CARTESIAN_POINT('Origin',(37.8,6.36396103067893,-6.36396103067893));
#696=CARTESIAN_POINT('',(41.6,6.36396103067893,-4.11396103067893));
#697=CARTESIAN_POINT('Origin',(41.6,6.36396103067893,-6.36396103067893));
#698=CARTESIAN_POINT('',(37.8,6.36396103067893,-4.11396103067893));
#699=CARTESIAN_POINT('Origin',(41.6,6.36396103067893,-6.36396103067893));
#700=CARTESIAN_POINT('Origin',(37.8,9.,5.51091059616309E-16));
#701=CARTESIAN_POINT('',(41.6,9.,2.25));
#702=CARTESIAN_POINT('Origin',(41.6,9.,5.51091059616309E-16));
#703=CARTESIAN_POINT('',(37.8,9.,2.25));
#704=CARTESIAN_POINT('Origin',(41.6,9.,5.51091059616309E-16));
#705=CARTESIAN_POINT('Origin',(37.8,6.36396103067893,6.36396103067893));
#706=CARTESIAN_POINT('',(41.6,6.36396103067893,8.61396103067893));
#707=CARTESIAN_POINT('Origin',(41.6,6.36396103067893,6.36396103067893));
#708=CARTESIAN_POINT('',(37.8,6.36396103067893,8.61396103067893));
#709=CARTESIAN_POINT('Origin',(41.6,6.36396103067893,6.36396103067893));
#710=CARTESIAN_POINT('Origin',(37.8,0.,9.));
#711=CARTESIAN_POINT('',(41.6,-2.75545529808154E-16,11.25));
#712=CARTESIAN_POINT('Origin',(41.6,0.,9.));
#713=CARTESIAN_POINT('',(37.8,-2.75545529808154E-16,11.25));
#714=CARTESIAN_POINT('Origin',(41.6,0.,9.));
#715=CARTESIAN_POINT('Origin',(36.6,0.,0.));
#716=CARTESIAN_POINT('',(41.6,-6.98048675513991E-16,5.7));
#717=CARTESIAN_POINT('Origin',(41.6,0.,0.));
#718=CARTESIAN_POINT('',(36.6,-6.98048675513991E-16,5.7));
#719=CARTESIAN_POINT('Origin',(41.6,0.,0.));
#720=CARTESIAN_POINT('Origin',(33.1,0.,0.));
#721=CARTESIAN_POINT('',(31.6,-1.37772764904077E-15,11.25));
#722=CARTESIAN_POINT('',(33.1,-1.37772764904077E-15,11.25));
#723=CARTESIAN_POINT('Origin',(31.6,0.,0.));
#724=CARTESIAN_POINT('Origin',(31.6,0.,0.));
#725=UNCERTAINTY_MEASURE_WITH_UNIT(LENGTH_MEASURE(0.01),#729,
'DISTANCE_ACCURACY_VALUE',
'Maximum model space distance between geometric entities at asserted c
onnectivities');
#726=UNCERTAINTY_MEASURE_WITH_UNIT(LENGTH_MEASURE(0.01),#729,
'DISTANCE_ACCURACY_VALUE',
'Maximum model space distance between geometric entities at asserted c
onnectivities');
#727=(
GEOMETRIC_REPRESENTATION_CONTEXT(3)
GLOBAL_UNCERTAINTY_ASSIGNED_CONTEXT((#725))
GLOBAL_UNIT_ASSIGNED_CONTEXT((#729,#731,#732))
REPRESENTATION_CONTEXT('','3D')
);
#728=(
GEOMETRIC_REPRESENTATION_CONTEXT(3)
GLOBAL_UNCERTAINTY_ASSIGNED_CONTEXT((#726))
GLOBAL_UNIT_ASSIGNED_CONTEXT((#729,#731,#732))
REPRESENTATION_CONTEXT('','3D')
);
#729=(
LENGTH_UNIT()
NAMED_UNIT(*)
SI_UNIT(.MILLI.,.METRE.)
);
#730=(
LENGTH_UNIT()
NAMED_UNIT(*)
SI_UNIT($,.METRE.)
);
#731=(
NAMED_UNIT(*)
PLANE_ANGLE_UNIT()
SI_UNIT($,.RADIAN.)
);
#732=(
NAMED_UNIT(*)
SI_UNIT($,.STERADIAN.)
SOLID_ANGLE_UNIT()
);
#733=SHAPE_DEFINITION_REPRESENTATION(#734,#735);
#734=PRODUCT_DEFINITION_SHAPE('',$,#737);
#735=SHAPE_REPRESENTATION('',(#399),#727);
#736=PRODUCT_DEFINITION_CONTEXT('part definition',#741,'design');
#737=PRODUCT_DEFINITION('rt_grip_pinion','rt_grip_pinion',#738,#736);
#738=PRODUCT_DEFINITION_FORMATION('',$,#743);
#739=PRODUCT_RELATED_PRODUCT_CATEGORY('rt_grip_pinion','rt_grip_pinion',
(#743));
#740=APPLICATION_PROTOCOL_DEFINITION('international standard',
'automotive_design',2009,#741);
#741=APPLICATION_CONTEXT(
'Core Data for Automotive Mechanical Design Process');
#742=PRODUCT_CONTEXT('part definition',#741,'mechanical');
#743=PRODUCT('rt_grip_pinion','rt_grip_pinion',$,(#742));
#744=PRESENTATION_STYLE_ASSIGNMENT((#745));
#745=SURFACE_STYLE_USAGE(.BOTH.,#746);
#746=SURFACE_SIDE_STYLE('',(#747));
#747=SURFACE_STYLE_FILL_AREA(#748);
#748=FILL_AREA_STYLE('Steel - Satin',(#749));
#749=FILL_AREA_STYLE_COLOUR('Steel - Satin',#750);
#750=COLOUR_RGB('Steel - Satin',0.627450980392157,0.627450980392157,0.627450980392157);
ENDSEC;
END-ISO-10303-21;
