ISO-10303-21;
HEADER;
/* Generated by software containing ST-Developer
 * from STEP Tools, Inc. (www.steptools.com) 
 */

FILE_DESCRIPTION(
/* description */ (''),
/* implementation_level */ '2;1');

FILE_NAME(
/* name */ 'rt_grip_lid.step',
/* time_stamp */ '2026-07-19T17:08:19-04:00',
/* author */ (''),
/* organization */ (''),
/* preprocessor_version */ 'ST-DEVELOPER v20.1',
/* originating_system */ 'Autodesk Translation Framework v15.8.0.0',
/* authorisation */ '');

FILE_SCHEMA (('AUTOMOTIVE_DESIGN { 1 0 10303 214 3 1 1 }'));
ENDSEC;

DATA;
#10=MECHANICAL_DESIGN_GEOMETRIC_PRESENTATION_REPRESENTATION('',(#13),#733);
#11=SHAPE_REPRESENTATION_RELATIONSHIP('SRR','None',#740,#12);
#12=ADVANCED_BREP_SHAPE_REPRESENTATION('',(#14),#732);
#13=STYLED_ITEM('',(#749),#14);
#14=MANIFOLD_SOLID_BREP('Body1',#437);
#15=FACE_BOUND('',#62,.T.);
#16=PLANE('',#454);
#17=PLANE('',#460);
#18=PLANE('',#463);
#19=PLANE('',#464);
#20=PLANE('',#469);
#21=PLANE('',#471);
#22=PLANE('',#473);
#23=PLANE('',#475);
#24=PLANE('',#477);
#25=PLANE('',#478);
#26=PLANE('',#479);
#27=PLANE('',#480);
#28=PLANE('',#481);
#29=PLANE('',#482);
#30=PLANE('',#483);
#31=PLANE('',#484);
#32=PLANE('',#485);
#33=FACE_OUTER_BOUND('',#56,.T.);
#34=FACE_OUTER_BOUND('',#57,.T.);
#35=FACE_OUTER_BOUND('',#58,.T.);
#36=FACE_OUTER_BOUND('',#59,.T.);
#37=FACE_OUTER_BOUND('',#60,.T.);
#38=FACE_OUTER_BOUND('',#61,.T.);
#39=FACE_OUTER_BOUND('',#63,.T.);
#40=FACE_OUTER_BOUND('',#64,.T.);
#41=FACE_OUTER_BOUND('',#65,.T.);
#42=FACE_OUTER_BOUND('',#66,.T.);
#43=FACE_OUTER_BOUND('',#67,.T.);
#44=FACE_OUTER_BOUND('',#68,.T.);
#45=FACE_OUTER_BOUND('',#69,.T.);
#46=FACE_OUTER_BOUND('',#70,.T.);
#47=FACE_OUTER_BOUND('',#71,.T.);
#48=FACE_OUTER_BOUND('',#72,.T.);
#49=FACE_OUTER_BOUND('',#73,.T.);
#50=FACE_OUTER_BOUND('',#74,.T.);
#51=FACE_OUTER_BOUND('',#75,.T.);
#52=FACE_OUTER_BOUND('',#76,.T.);
#53=FACE_OUTER_BOUND('',#77,.T.);
#54=FACE_OUTER_BOUND('',#78,.T.);
#55=FACE_OUTER_BOUND('',#79,.T.);
#56=EDGE_LOOP('',(#288,#289,#290,#291));
#57=EDGE_LOOP('',(#292,#293,#294,#295,#296,#297,#298,#299,#300,#301,#302,
#303,#304,#305,#306,#307));
#58=EDGE_LOOP('',(#308,#309,#310,#311));
#59=EDGE_LOOP('',(#312,#313,#314,#315));
#60=EDGE_LOOP('',(#316,#317,#318,#319));
#61=EDGE_LOOP('',(#320,#321,#322,#323,#324,#325,#326,#327,#328,#329,#330,
#331,#332,#333,#334,#335));
#62=EDGE_LOOP('',(#336,#337,#338,#339));
#63=EDGE_LOOP('',(#340,#341,#342,#343));
#64=EDGE_LOOP('',(#344,#345,#346,#347));
#65=EDGE_LOOP('',(#348,#349,#350,#351));
#66=EDGE_LOOP('',(#352,#353,#354,#355));
#67=EDGE_LOOP('',(#356,#357,#358,#359));
#68=EDGE_LOOP('',(#360,#361,#362,#363));
#69=EDGE_LOOP('',(#364,#365,#366,#367));
#70=EDGE_LOOP('',(#368,#369,#370,#371));
#71=EDGE_LOOP('',(#372,#373,#374,#375));
#72=EDGE_LOOP('',(#376,#377,#378,#379));
#73=EDGE_LOOP('',(#380,#381,#382,#383));
#74=EDGE_LOOP('',(#384,#385,#386,#387));
#75=EDGE_LOOP('',(#388,#389,#390,#391));
#76=EDGE_LOOP('',(#392,#393,#394,#395));
#77=EDGE_LOOP('',(#396,#397,#398,#399));
#78=EDGE_LOOP('',(#400,#401,#402,#403));
#79=EDGE_LOOP('',(#404,#405,#406,#407));
#80=CIRCLE('',#452,3.25);
#81=CIRCLE('',#453,3.25);
#82=CIRCLE('',#455,3.25);
#83=CIRCLE('',#456,3.25);
#84=CIRCLE('',#457,3.25);
#85=CIRCLE('',#458,3.25);
#86=CIRCLE('',#459,3.25);
#87=CIRCLE('',#462,3.25);
#88=CIRCLE('',#465,3.25);
#89=CIRCLE('',#466,3.25);
#90=CIRCLE('',#467,3.25);
#91=CIRCLE('',#468,3.25);
#92=LINE('',#610,#140);
#93=LINE('',#614,#141);
#94=LINE('',#618,#142);
#95=LINE('',#622,#143);
#96=LINE('',#624,#144);
#97=LINE('',#628,#145);
#98=LINE('',#632,#146);
#99=LINE('',#634,#147);
#100=LINE('',#636,#148);
#101=LINE('',#640,#149);
#102=LINE('',#644,#150);
#103=LINE('',#645,#151);
#104=LINE('',#648,#152);
#105=LINE('',#649,#153);
#106=LINE('',#653,#154);
#107=LINE('',#656,#155);
#108=LINE('',#657,#156);
#109=LINE('',#660,#157);
#110=LINE('',#662,#158);
#111=LINE('',#666,#159);
#112=LINE('',#670,#160);
#113=LINE('',#672,#161);
#114=LINE('',#674,#162);
#115=LINE('',#678,#163);
#116=LINE('',#681,#164);
#117=LINE('',#684,#165);
#118=LINE('',#686,#166);
#119=LINE('',#688,#167);
#120=LINE('',#689,#168);
#121=LINE('',#691,#169);
#122=LINE('',#693,#170);
#123=LINE('',#694,#171);
#124=LINE('',#696,#172);
#125=LINE('',#698,#173);
#126=LINE('',#699,#174);
#127=LINE('',#701,#175);
#128=LINE('',#703,#176);
#129=LINE('',#706,#177);
#130=LINE('',#708,#178);
#131=LINE('',#711,#179);
#132=LINE('',#713,#180);
#133=LINE('',#714,#181);
#134=LINE('',#717,#182);
#135=LINE('',#718,#183);
#136=LINE('',#721,#184);
#137=LINE('',#722,#185);
#138=LINE('',#724,#186);
#139=LINE('',#727,#187);
#140=VECTOR('',#490,10.);
#141=VECTOR('',#493,10.);
#142=VECTOR('',#498,10.);
#143=VECTOR('',#501,10.);
#144=VECTOR('',#502,10.);
#145=VECTOR('',#505,10.);
#146=VECTOR('',#508,10.);
#147=VECTOR('',#509,10.);
#148=VECTOR('',#510,10.);
#149=VECTOR('',#513,10.);
#150=VECTOR('',#516,10.);
#151=VECTOR('',#517,10.);
#152=VECTOR('',#520,10.);
#153=VECTOR('',#521,10.);
#154=VECTOR('',#526,10.);
#155=VECTOR('',#529,10.);
#156=VECTOR('',#530,10.);
#157=VECTOR('',#533,10.);
#158=VECTOR('',#534,10.);
#159=VECTOR('',#537,10.);
#160=VECTOR('',#540,10.);
#161=VECTOR('',#541,10.);
#162=VECTOR('',#542,10.);
#163=VECTOR('',#545,10.);
#164=VECTOR('',#548,10.);
#165=VECTOR('',#549,10.);
#166=VECTOR('',#550,10.);
#167=VECTOR('',#551,10.);
#168=VECTOR('',#552,10.);
#169=VECTOR('',#555,10.);
#170=VECTOR('',#558,10.);
#171=VECTOR('',#559,10.);
#172=VECTOR('',#562,10.);
#173=VECTOR('',#565,10.);
#174=VECTOR('',#566,10.);
#175=VECTOR('',#569,10.);
#176=VECTOR('',#572,10.);
#177=VECTOR('',#577,10.);
#178=VECTOR('',#580,10.);
#179=VECTOR('',#583,10.);
#180=VECTOR('',#584,10.);
#181=VECTOR('',#585,10.);
#182=VECTOR('',#588,10.);
#183=VECTOR('',#589,10.);
#184=VECTOR('',#592,10.);
#185=VECTOR('',#593,10.);
#186=VECTOR('',#596,10.);
#187=VECTOR('',#601,10.);
#188=VERTEX_POINT('',#608);
#189=VERTEX_POINT('',#609);
#190=VERTEX_POINT('',#611);
#191=VERTEX_POINT('',#613);
#192=VERTEX_POINT('',#617);
#193=VERTEX_POINT('',#619);
#194=VERTEX_POINT('',#621);
#195=VERTEX_POINT('',#623);
#196=VERTEX_POINT('',#625);
#197=VERTEX_POINT('',#627);
#198=VERTEX_POINT('',#629);
#199=VERTEX_POINT('',#631);
#200=VERTEX_POINT('',#633);
#201=VERTEX_POINT('',#635);
#202=VERTEX_POINT('',#637);
#203=VERTEX_POINT('',#639);
#204=VERTEX_POINT('',#641);
#205=VERTEX_POINT('',#643);
#206=VERTEX_POINT('',#647);
#207=VERTEX_POINT('',#651);
#208=VERTEX_POINT('',#655);
#209=VERTEX_POINT('',#659);
#210=VERTEX_POINT('',#661);
#211=VERTEX_POINT('',#663);
#212=VERTEX_POINT('',#665);
#213=VERTEX_POINT('',#667);
#214=VERTEX_POINT('',#669);
#215=VERTEX_POINT('',#671);
#216=VERTEX_POINT('',#673);
#217=VERTEX_POINT('',#675);
#218=VERTEX_POINT('',#677);
#219=VERTEX_POINT('',#679);
#220=VERTEX_POINT('',#682);
#221=VERTEX_POINT('',#683);
#222=VERTEX_POINT('',#685);
#223=VERTEX_POINT('',#687);
#224=VERTEX_POINT('',#710);
#225=VERTEX_POINT('',#712);
#226=VERTEX_POINT('',#716);
#227=VERTEX_POINT('',#720);
#228=EDGE_CURVE('',#188,#189,#92,.T.);
#229=EDGE_CURVE('',#190,#188,#80,.T.);
#230=EDGE_CURVE('',#191,#190,#93,.T.);
#231=EDGE_CURVE('',#189,#191,#81,.T.);
#232=EDGE_CURVE('',#191,#192,#94,.T.);
#233=EDGE_CURVE('',#192,#193,#82,.T.);
#234=EDGE_CURVE('',#193,#194,#95,.T.);
#235=EDGE_CURVE('',#194,#195,#96,.T.);
#236=EDGE_CURVE('',#195,#196,#83,.T.);
#237=EDGE_CURVE('',#196,#197,#97,.T.);
#238=EDGE_CURVE('',#197,#198,#84,.T.);
#239=EDGE_CURVE('',#198,#199,#98,.T.);
#240=EDGE_CURVE('',#199,#200,#99,.T.);
#241=EDGE_CURVE('',#200,#201,#100,.T.);
#242=EDGE_CURVE('',#201,#202,#85,.T.);
#243=EDGE_CURVE('',#202,#203,#101,.T.);
#244=EDGE_CURVE('',#203,#204,#86,.T.);
#245=EDGE_CURVE('',#204,#205,#102,.T.);
#246=EDGE_CURVE('',#205,#189,#103,.T.);
#247=EDGE_CURVE('',#206,#190,#104,.T.);
#248=EDGE_CURVE('',#206,#192,#105,.T.);
#249=EDGE_CURVE('',#207,#206,#87,.T.);
#250=EDGE_CURVE('',#193,#207,#106,.T.);
#251=EDGE_CURVE('',#208,#207,#107,.T.);
#252=EDGE_CURVE('',#194,#208,#108,.T.);
#253=EDGE_CURVE('',#188,#209,#109,.T.);
#254=EDGE_CURVE('',#209,#210,#110,.T.);
#255=EDGE_CURVE('',#210,#211,#88,.T.);
#256=EDGE_CURVE('',#211,#212,#111,.T.);
#257=EDGE_CURVE('',#212,#213,#89,.T.);
#258=EDGE_CURVE('',#213,#214,#112,.T.);
#259=EDGE_CURVE('',#214,#215,#113,.T.);
#260=EDGE_CURVE('',#215,#216,#114,.T.);
#261=EDGE_CURVE('',#216,#217,#90,.T.);
#262=EDGE_CURVE('',#217,#218,#115,.T.);
#263=EDGE_CURVE('',#218,#219,#91,.T.);
#264=EDGE_CURVE('',#219,#208,#116,.T.);
#265=EDGE_CURVE('',#220,#221,#117,.T.);
#266=EDGE_CURVE('',#221,#222,#118,.T.);
#267=EDGE_CURVE('',#222,#223,#119,.T.);
#268=EDGE_CURVE('',#223,#220,#120,.T.);
#269=EDGE_CURVE('',#205,#209,#121,.T.);
#270=EDGE_CURVE('',#204,#210,#122,.T.);
#271=EDGE_CURVE('',#211,#203,#123,.T.);
#272=EDGE_CURVE('',#202,#212,#124,.T.);
#273=EDGE_CURVE('',#219,#195,#125,.T.);
#274=EDGE_CURVE('',#196,#218,#126,.T.);
#275=EDGE_CURVE('',#217,#197,#127,.T.);
#276=EDGE_CURVE('',#213,#201,#128,.T.);
#277=EDGE_CURVE('',#198,#216,#129,.T.);
#278=EDGE_CURVE('',#199,#215,#130,.T.);
#279=EDGE_CURVE('',#221,#224,#131,.T.);
#280=EDGE_CURVE('',#225,#224,#132,.T.);
#281=EDGE_CURVE('',#222,#225,#133,.T.);
#282=EDGE_CURVE('',#220,#226,#134,.T.);
#283=EDGE_CURVE('',#224,#226,#135,.T.);
#284=EDGE_CURVE('',#226,#227,#136,.T.);
#285=EDGE_CURVE('',#227,#225,#137,.T.);
#286=EDGE_CURVE('',#223,#227,#138,.T.);
#287=EDGE_CURVE('',#200,#214,#139,.T.);
#288=ORIENTED_EDGE('',*,*,#228,.F.);
#289=ORIENTED_EDGE('',*,*,#229,.F.);
#290=ORIENTED_EDGE('',*,*,#230,.F.);
#291=ORIENTED_EDGE('',*,*,#231,.F.);
#292=ORIENTED_EDGE('',*,*,#231,.T.);
#293=ORIENTED_EDGE('',*,*,#232,.T.);
#294=ORIENTED_EDGE('',*,*,#233,.T.);
#295=ORIENTED_EDGE('',*,*,#234,.T.);
#296=ORIENTED_EDGE('',*,*,#235,.T.);
#297=ORIENTED_EDGE('',*,*,#236,.T.);
#298=ORIENTED_EDGE('',*,*,#237,.T.);
#299=ORIENTED_EDGE('',*,*,#238,.T.);
#300=ORIENTED_EDGE('',*,*,#239,.T.);
#301=ORIENTED_EDGE('',*,*,#240,.T.);
#302=ORIENTED_EDGE('',*,*,#241,.T.);
#303=ORIENTED_EDGE('',*,*,#242,.T.);
#304=ORIENTED_EDGE('',*,*,#243,.T.);
#305=ORIENTED_EDGE('',*,*,#244,.T.);
#306=ORIENTED_EDGE('',*,*,#245,.T.);
#307=ORIENTED_EDGE('',*,*,#246,.T.);
#308=ORIENTED_EDGE('',*,*,#230,.T.);
#309=ORIENTED_EDGE('',*,*,#247,.F.);
#310=ORIENTED_EDGE('',*,*,#248,.T.);
#311=ORIENTED_EDGE('',*,*,#232,.F.);
#312=ORIENTED_EDGE('',*,*,#248,.F.);
#313=ORIENTED_EDGE('',*,*,#249,.F.);
#314=ORIENTED_EDGE('',*,*,#250,.F.);
#315=ORIENTED_EDGE('',*,*,#233,.F.);
#316=ORIENTED_EDGE('',*,*,#250,.T.);
#317=ORIENTED_EDGE('',*,*,#251,.F.);
#318=ORIENTED_EDGE('',*,*,#252,.F.);
#319=ORIENTED_EDGE('',*,*,#234,.F.);
#320=ORIENTED_EDGE('',*,*,#229,.T.);
#321=ORIENTED_EDGE('',*,*,#253,.T.);
#322=ORIENTED_EDGE('',*,*,#254,.T.);
#323=ORIENTED_EDGE('',*,*,#255,.T.);
#324=ORIENTED_EDGE('',*,*,#256,.T.);
#325=ORIENTED_EDGE('',*,*,#257,.T.);
#326=ORIENTED_EDGE('',*,*,#258,.T.);
#327=ORIENTED_EDGE('',*,*,#259,.T.);
#328=ORIENTED_EDGE('',*,*,#260,.T.);
#329=ORIENTED_EDGE('',*,*,#261,.T.);
#330=ORIENTED_EDGE('',*,*,#262,.T.);
#331=ORIENTED_EDGE('',*,*,#263,.T.);
#332=ORIENTED_EDGE('',*,*,#264,.T.);
#333=ORIENTED_EDGE('',*,*,#251,.T.);
#334=ORIENTED_EDGE('',*,*,#249,.T.);
#335=ORIENTED_EDGE('',*,*,#247,.T.);
#336=ORIENTED_EDGE('',*,*,#265,.T.);
#337=ORIENTED_EDGE('',*,*,#266,.T.);
#338=ORIENTED_EDGE('',*,*,#267,.T.);
#339=ORIENTED_EDGE('',*,*,#268,.T.);
#340=ORIENTED_EDGE('',*,*,#228,.T.);
#341=ORIENTED_EDGE('',*,*,#246,.F.);
#342=ORIENTED_EDGE('',*,*,#269,.T.);
#343=ORIENTED_EDGE('',*,*,#253,.F.);
#344=ORIENTED_EDGE('',*,*,#270,.F.);
#345=ORIENTED_EDGE('',*,*,#244,.F.);
#346=ORIENTED_EDGE('',*,*,#271,.F.);
#347=ORIENTED_EDGE('',*,*,#255,.F.);
#348=ORIENTED_EDGE('',*,*,#271,.T.);
#349=ORIENTED_EDGE('',*,*,#243,.F.);
#350=ORIENTED_EDGE('',*,*,#272,.T.);
#351=ORIENTED_EDGE('',*,*,#256,.F.);
#352=ORIENTED_EDGE('',*,*,#273,.F.);
#353=ORIENTED_EDGE('',*,*,#263,.F.);
#354=ORIENTED_EDGE('',*,*,#274,.F.);
#355=ORIENTED_EDGE('',*,*,#236,.F.);
#356=ORIENTED_EDGE('',*,*,#274,.T.);
#357=ORIENTED_EDGE('',*,*,#262,.F.);
#358=ORIENTED_EDGE('',*,*,#275,.T.);
#359=ORIENTED_EDGE('',*,*,#237,.F.);
#360=ORIENTED_EDGE('',*,*,#276,.F.);
#361=ORIENTED_EDGE('',*,*,#257,.F.);
#362=ORIENTED_EDGE('',*,*,#272,.F.);
#363=ORIENTED_EDGE('',*,*,#242,.F.);
#364=ORIENTED_EDGE('',*,*,#270,.T.);
#365=ORIENTED_EDGE('',*,*,#254,.F.);
#366=ORIENTED_EDGE('',*,*,#269,.F.);
#367=ORIENTED_EDGE('',*,*,#245,.F.);
#368=ORIENTED_EDGE('',*,*,#275,.F.);
#369=ORIENTED_EDGE('',*,*,#261,.F.);
#370=ORIENTED_EDGE('',*,*,#277,.F.);
#371=ORIENTED_EDGE('',*,*,#238,.F.);
#372=ORIENTED_EDGE('',*,*,#277,.T.);
#373=ORIENTED_EDGE('',*,*,#260,.F.);
#374=ORIENTED_EDGE('',*,*,#278,.F.);
#375=ORIENTED_EDGE('',*,*,#239,.F.);
#376=ORIENTED_EDGE('',*,*,#266,.F.);
#377=ORIENTED_EDGE('',*,*,#279,.T.);
#378=ORIENTED_EDGE('',*,*,#280,.F.);
#379=ORIENTED_EDGE('',*,*,#281,.F.);
#380=ORIENTED_EDGE('',*,*,#265,.F.);
#381=ORIENTED_EDGE('',*,*,#282,.T.);
#382=ORIENTED_EDGE('',*,*,#283,.F.);
#383=ORIENTED_EDGE('',*,*,#279,.F.);
#384=ORIENTED_EDGE('',*,*,#280,.T.);
#385=ORIENTED_EDGE('',*,*,#283,.T.);
#386=ORIENTED_EDGE('',*,*,#284,.T.);
#387=ORIENTED_EDGE('',*,*,#285,.T.);
#388=ORIENTED_EDGE('',*,*,#268,.F.);
#389=ORIENTED_EDGE('',*,*,#286,.T.);
#390=ORIENTED_EDGE('',*,*,#284,.F.);
#391=ORIENTED_EDGE('',*,*,#282,.F.);
#392=ORIENTED_EDGE('',*,*,#267,.F.);
#393=ORIENTED_EDGE('',*,*,#281,.T.);
#394=ORIENTED_EDGE('',*,*,#285,.F.);
#395=ORIENTED_EDGE('',*,*,#286,.F.);
#396=ORIENTED_EDGE('',*,*,#276,.T.);
#397=ORIENTED_EDGE('',*,*,#241,.F.);
#398=ORIENTED_EDGE('',*,*,#287,.T.);
#399=ORIENTED_EDGE('',*,*,#258,.F.);
#400=ORIENTED_EDGE('',*,*,#278,.T.);
#401=ORIENTED_EDGE('',*,*,#259,.F.);
#402=ORIENTED_EDGE('',*,*,#287,.F.);
#403=ORIENTED_EDGE('',*,*,#240,.F.);
#404=ORIENTED_EDGE('',*,*,#273,.T.);
#405=ORIENTED_EDGE('',*,*,#235,.F.);
#406=ORIENTED_EDGE('',*,*,#252,.T.);
#407=ORIENTED_EDGE('',*,*,#264,.F.);
#408=CYLINDRICAL_SURFACE('',#451,3.25);
#409=CYLINDRICAL_SURFACE('',#461,3.25);
#410=CYLINDRICAL_SURFACE('',#470,3.25);
#411=CYLINDRICAL_SURFACE('',#472,3.25);
#412=CYLINDRICAL_SURFACE('',#474,3.25);
#413=CYLINDRICAL_SURFACE('',#476,3.25);
#414=ADVANCED_FACE('',(#33),#408,.F.);
#415=ADVANCED_FACE('',(#34),#16,.T.);
#416=ADVANCED_FACE('',(#35),#17,.F.);
#417=ADVANCED_FACE('',(#36),#409,.F.);
#418=ADVANCED_FACE('',(#37),#18,.F.);
#419=ADVANCED_FACE('',(#38,#15),#19,.F.);
#420=ADVANCED_FACE('',(#39),#20,.F.);
#421=ADVANCED_FACE('',(#40),#410,.F.);
#422=ADVANCED_FACE('',(#41),#21,.F.);
#423=ADVANCED_FACE('',(#42),#411,.F.);
#424=ADVANCED_FACE('',(#43),#22,.F.);
#425=ADVANCED_FACE('',(#44),#412,.F.);
#426=ADVANCED_FACE('',(#45),#23,.F.);
#427=ADVANCED_FACE('',(#46),#413,.F.);
#428=ADVANCED_FACE('',(#47),#24,.F.);
#429=ADVANCED_FACE('',(#48),#25,.F.);
#430=ADVANCED_FACE('',(#49),#26,.F.);
#431=ADVANCED_FACE('',(#50),#27,.F.);
#432=ADVANCED_FACE('',(#51),#28,.F.);
#433=ADVANCED_FACE('',(#52),#29,.F.);
#434=ADVANCED_FACE('',(#53),#30,.F.);
#435=ADVANCED_FACE('',(#54),#31,.F.);
#436=ADVANCED_FACE('',(#55),#32,.F.);
#437=CLOSED_SHELL('',(#414,#415,#416,#417,#418,#419,#420,#421,#422,#423,
#424,#425,#426,#427,#428,#429,#430,#431,#432,#433,#434,#435,#436));
#438=DERIVED_UNIT_ELEMENT(#440,1.);
#439=DERIVED_UNIT_ELEMENT(#735,-3.);
#440=(
MASS_UNIT()
NAMED_UNIT(*)
SI_UNIT(.KILO.,.GRAM.)
);
#441=DERIVED_UNIT((#438,#439));
#442=MEASURE_REPRESENTATION_ITEM('density measure',
POSITIVE_RATIO_MEASURE(7850.),#441);
#443=PROPERTY_DEFINITION_REPRESENTATION(#448,#445);
#444=PROPERTY_DEFINITION_REPRESENTATION(#449,#446);
#445=REPRESENTATION('material name',(#447),#732);
#446=REPRESENTATION('density',(#442),#732);
#447=DESCRIPTIVE_REPRESENTATION_ITEM('Steel','Steel');
#448=PROPERTY_DEFINITION('material property','material name',#742);
#449=PROPERTY_DEFINITION('material property','density of part',#742);
#450=AXIS2_PLACEMENT_3D('',#606,#486,#487);
#451=AXIS2_PLACEMENT_3D('',#607,#488,#489);
#452=AXIS2_PLACEMENT_3D('',#612,#491,#492);
#453=AXIS2_PLACEMENT_3D('',#615,#494,#495);
#454=AXIS2_PLACEMENT_3D('',#616,#496,#497);
#455=AXIS2_PLACEMENT_3D('',#620,#499,#500);
#456=AXIS2_PLACEMENT_3D('',#626,#503,#504);
#457=AXIS2_PLACEMENT_3D('',#630,#506,#507);
#458=AXIS2_PLACEMENT_3D('',#638,#511,#512);
#459=AXIS2_PLACEMENT_3D('',#642,#514,#515);
#460=AXIS2_PLACEMENT_3D('',#646,#518,#519);
#461=AXIS2_PLACEMENT_3D('',#650,#522,#523);
#462=AXIS2_PLACEMENT_3D('',#652,#524,#525);
#463=AXIS2_PLACEMENT_3D('',#654,#527,#528);
#464=AXIS2_PLACEMENT_3D('',#658,#531,#532);
#465=AXIS2_PLACEMENT_3D('',#664,#535,#536);
#466=AXIS2_PLACEMENT_3D('',#668,#538,#539);
#467=AXIS2_PLACEMENT_3D('',#676,#543,#544);
#468=AXIS2_PLACEMENT_3D('',#680,#546,#547);
#469=AXIS2_PLACEMENT_3D('',#690,#553,#554);
#470=AXIS2_PLACEMENT_3D('',#692,#556,#557);
#471=AXIS2_PLACEMENT_3D('',#695,#560,#561);
#472=AXIS2_PLACEMENT_3D('',#697,#563,#564);
#473=AXIS2_PLACEMENT_3D('',#700,#567,#568);
#474=AXIS2_PLACEMENT_3D('',#702,#570,#571);
#475=AXIS2_PLACEMENT_3D('',#704,#573,#574);
#476=AXIS2_PLACEMENT_3D('',#705,#575,#576);
#477=AXIS2_PLACEMENT_3D('',#707,#578,#579);
#478=AXIS2_PLACEMENT_3D('',#709,#581,#582);
#479=AXIS2_PLACEMENT_3D('',#715,#586,#587);
#480=AXIS2_PLACEMENT_3D('',#719,#590,#591);
#481=AXIS2_PLACEMENT_3D('',#723,#594,#595);
#482=AXIS2_PLACEMENT_3D('',#725,#597,#598);
#483=AXIS2_PLACEMENT_3D('',#726,#599,#600);
#484=AXIS2_PLACEMENT_3D('',#728,#602,#603);
#485=AXIS2_PLACEMENT_3D('',#729,#604,#605);
#486=DIRECTION('axis',(0.,0.,1.));
#487=DIRECTION('refdir',(1.,0.,0.));
#488=DIRECTION('center_axis',(0.,0.,1.));
#489=DIRECTION('ref_axis',(-1.,-1.22464679914735E-16,0.));
#490=DIRECTION('',(0.,0.,1.));
#491=DIRECTION('center_axis',(0.,0.,1.));
#492=DIRECTION('ref_axis',(1.,0.,0.));
#493=DIRECTION('',(0.,0.,-1.));
#494=DIRECTION('center_axis',(0.,0.,-1.));
#495=DIRECTION('ref_axis',(1.,0.,0.));
#496=DIRECTION('center_axis',(0.,0.,1.));
#497=DIRECTION('ref_axis',(1.,0.,0.));
#498=DIRECTION('',(0.,1.,0.));
#499=DIRECTION('center_axis',(0.,0.,-1.));
#500=DIRECTION('ref_axis',(1.,0.,0.));
#501=DIRECTION('',(0.,1.,0.));
#502=DIRECTION('',(-1.,0.,0.));
#503=DIRECTION('center_axis',(0.,0.,-1.));
#504=DIRECTION('ref_axis',(1.,0.,0.));
#505=DIRECTION('',(-1.,0.,0.));
#506=DIRECTION('center_axis',(0.,0.,-1.));
#507=DIRECTION('ref_axis',(1.,0.,0.));
#508=DIRECTION('',(-1.,0.,0.));
#509=DIRECTION('',(0.,-1.,0.));
#510=DIRECTION('',(1.,0.,0.));
#511=DIRECTION('center_axis',(0.,0.,-1.));
#512=DIRECTION('ref_axis',(1.,0.,0.));
#513=DIRECTION('',(1.,0.,0.));
#514=DIRECTION('center_axis',(0.,0.,-1.));
#515=DIRECTION('ref_axis',(1.,0.,0.));
#516=DIRECTION('',(1.,0.,0.));
#517=DIRECTION('',(0.,1.,0.));
#518=DIRECTION('center_axis',(-1.,0.,0.));
#519=DIRECTION('ref_axis',(0.,0.,1.));
#520=DIRECTION('',(0.,-1.,0.));
#521=DIRECTION('',(0.,0.,1.));
#522=DIRECTION('center_axis',(0.,0.,1.));
#523=DIRECTION('ref_axis',(-1.,-1.22464679914735E-16,0.));
#524=DIRECTION('center_axis',(0.,0.,1.));
#525=DIRECTION('ref_axis',(1.,0.,0.));
#526=DIRECTION('',(0.,0.,-1.));
#527=DIRECTION('center_axis',(-1.,0.,0.));
#528=DIRECTION('ref_axis',(0.,0.,1.));
#529=DIRECTION('',(0.,-1.,0.));
#530=DIRECTION('',(0.,0.,-1.));
#531=DIRECTION('center_axis',(0.,0.,1.));
#532=DIRECTION('ref_axis',(1.,0.,0.));
#533=DIRECTION('',(0.,-1.,0.));
#534=DIRECTION('',(-1.,0.,0.));
#535=DIRECTION('center_axis',(0.,0.,1.));
#536=DIRECTION('ref_axis',(1.,0.,0.));
#537=DIRECTION('',(-1.,0.,0.));
#538=DIRECTION('center_axis',(0.,0.,1.));
#539=DIRECTION('ref_axis',(1.,0.,0.));
#540=DIRECTION('',(-1.,0.,0.));
#541=DIRECTION('',(0.,1.,0.));
#542=DIRECTION('',(1.,0.,0.));
#543=DIRECTION('center_axis',(0.,0.,1.));
#544=DIRECTION('ref_axis',(1.,0.,0.));
#545=DIRECTION('',(1.,0.,0.));
#546=DIRECTION('center_axis',(0.,0.,1.));
#547=DIRECTION('ref_axis',(1.,0.,0.));
#548=DIRECTION('',(1.,0.,0.));
#549=DIRECTION('',(1.,0.,0.));
#550=DIRECTION('',(0.,1.,0.));
#551=DIRECTION('',(-1.,0.,0.));
#552=DIRECTION('',(0.,-1.,0.));
#553=DIRECTION('center_axis',(-1.,0.,0.));
#554=DIRECTION('ref_axis',(0.,0.,1.));
#555=DIRECTION('',(0.,0.,-1.));
#556=DIRECTION('center_axis',(0.,0.,1.));
#557=DIRECTION('ref_axis',(6.12323399573677E-17,1.,0.));
#558=DIRECTION('',(0.,0.,-1.));
#559=DIRECTION('',(0.,0.,1.));
#560=DIRECTION('center_axis',(0.,1.,0.));
#561=DIRECTION('ref_axis',(0.,0.,1.));
#562=DIRECTION('',(0.,0.,-1.));
#563=DIRECTION('center_axis',(0.,0.,1.));
#564=DIRECTION('ref_axis',(6.12323399573677E-17,-1.,0.));
#565=DIRECTION('',(0.,0.,1.));
#566=DIRECTION('',(0.,0.,-1.));
#567=DIRECTION('center_axis',(0.,-1.,0.));
#568=DIRECTION('ref_axis',(0.,0.,-1.));
#569=DIRECTION('',(0.,0.,1.));
#570=DIRECTION('center_axis',(0.,0.,1.));
#571=DIRECTION('ref_axis',(-1.83697019872103E-16,1.,0.));
#572=DIRECTION('',(0.,0.,1.));
#573=DIRECTION('center_axis',(0.,1.,0.));
#574=DIRECTION('ref_axis',(0.,0.,1.));
#575=DIRECTION('center_axis',(0.,0.,1.));
#576=DIRECTION('ref_axis',(6.12323399573677E-17,-1.,0.));
#577=DIRECTION('',(0.,0.,-1.));
#578=DIRECTION('center_axis',(0.,-1.,0.));
#579=DIRECTION('ref_axis',(0.,0.,-1.));
#580=DIRECTION('',(0.,0.,-1.));
#581=DIRECTION('center_axis',(-1.,0.,0.));
#582=DIRECTION('ref_axis',(0.,0.,1.));
#583=DIRECTION('',(0.,0.,-1.));
#584=DIRECTION('',(0.,-1.,0.));
#585=DIRECTION('',(0.,0.,-1.));
#586=DIRECTION('center_axis',(0.,1.,0.));
#587=DIRECTION('ref_axis',(0.,0.,1.));
#588=DIRECTION('',(0.,0.,-1.));
#589=DIRECTION('',(-1.,0.,0.));
#590=DIRECTION('center_axis',(0.,0.,1.));
#591=DIRECTION('ref_axis',(1.,0.,0.));
#592=DIRECTION('',(0.,1.,0.));
#593=DIRECTION('',(1.,0.,0.));
#594=DIRECTION('center_axis',(1.,0.,0.));
#595=DIRECTION('ref_axis',(0.,0.,-1.));
#596=DIRECTION('',(0.,0.,-1.));
#597=DIRECTION('center_axis',(0.,-1.,0.));
#598=DIRECTION('ref_axis',(0.,0.,-1.));
#599=DIRECTION('center_axis',(0.,1.,0.));
#600=DIRECTION('ref_axis',(0.,0.,1.));
#601=DIRECTION('',(0.,0.,-1.));
#602=DIRECTION('center_axis',(1.,0.,0.));
#603=DIRECTION('ref_axis',(0.,0.,-1.));
#604=DIRECTION('center_axis',(0.,-1.,0.));
#605=DIRECTION('ref_axis',(0.,0.,-1.));
#606=CARTESIAN_POINT('',(0.,0.,0.));
#607=CARTESIAN_POINT('Origin',(53.5,-14.,23.55));
#608=CARTESIAN_POINT('',(55.,-16.8831406486677,22.));
#609=CARTESIAN_POINT('',(55.,-16.8831406486677,25.));
#610=CARTESIAN_POINT('',(55.,-16.8831406486677,23.55));
#611=CARTESIAN_POINT('',(55.,-11.1168593513323,22.));
#612=CARTESIAN_POINT('Origin',(53.5,-14.,22.));
#613=CARTESIAN_POINT('',(55.,-11.1168593513323,25.));
#614=CARTESIAN_POINT('',(55.,-11.1168593513323,23.55));
#615=CARTESIAN_POINT('Origin',(53.5,-14.,25.));
#616=CARTESIAN_POINT('Origin',(30.5,0.,25.));
#617=CARTESIAN_POINT('',(55.,11.1168593513323,25.));
#618=CARTESIAN_POINT('',(55.,0.,25.));
#619=CARTESIAN_POINT('',(55.,16.8831406486677,25.));
#620=CARTESIAN_POINT('Origin',(53.5,14.,25.));
#621=CARTESIAN_POINT('',(55.,20.,25.));
#622=CARTESIAN_POINT('',(55.,0.,25.));
#623=CARTESIAN_POINT('',(32.5617376914899,20.,25.));
#624=CARTESIAN_POINT('',(30.5,20.,25.));
#625=CARTESIAN_POINT('',(27.4382623085101,20.,25.));
#626=CARTESIAN_POINT('Origin',(30.,18.,25.));
#627=CARTESIAN_POINT('',(14.5617376914899,20.,25.));
#628=CARTESIAN_POINT('',(30.5,20.,25.));
#629=CARTESIAN_POINT('',(9.4382623085101,20.,25.));
#630=CARTESIAN_POINT('Origin',(12.,18.,25.));
#631=CARTESIAN_POINT('',(6.,20.,25.));
#632=CARTESIAN_POINT('',(30.5,20.,25.));
#633=CARTESIAN_POINT('',(6.,-20.,25.));
#634=CARTESIAN_POINT('',(6.,0.,25.));
#635=CARTESIAN_POINT('',(9.4382623085101,-20.,25.));
#636=CARTESIAN_POINT('',(30.5,-20.,25.));
#637=CARTESIAN_POINT('',(14.5617376914899,-20.,25.));
#638=CARTESIAN_POINT('Origin',(12.,-18.,25.));
#639=CARTESIAN_POINT('',(27.4382623085101,-20.,25.));
#640=CARTESIAN_POINT('',(30.5,-20.,25.));
#641=CARTESIAN_POINT('',(32.5617376914899,-20.,25.));
#642=CARTESIAN_POINT('Origin',(30.,-18.,25.));
#643=CARTESIAN_POINT('',(55.,-20.,25.));
#644=CARTESIAN_POINT('',(30.5,-20.,25.));
#645=CARTESIAN_POINT('',(55.,0.,25.));
#646=CARTESIAN_POINT('Origin',(55.,0.,23.5));
#647=CARTESIAN_POINT('',(55.,11.1168593513323,22.));
#648=CARTESIAN_POINT('',(55.,0.,22.));
#649=CARTESIAN_POINT('',(55.,11.1168593513323,23.55));
#650=CARTESIAN_POINT('Origin',(53.5,14.,23.55));
#651=CARTESIAN_POINT('',(55.,16.8831406486677,22.));
#652=CARTESIAN_POINT('Origin',(53.5,14.,22.));
#653=CARTESIAN_POINT('',(55.,16.8831406486677,23.55));
#654=CARTESIAN_POINT('Origin',(55.,0.,23.5));
#655=CARTESIAN_POINT('',(55.,20.,22.));
#656=CARTESIAN_POINT('',(55.,0.,22.));
#657=CARTESIAN_POINT('',(55.,20.,23.5));
#658=CARTESIAN_POINT('Origin',(30.5,0.,22.));
#659=CARTESIAN_POINT('',(55.,-20.,22.));
#660=CARTESIAN_POINT('',(55.,0.,22.));
#661=CARTESIAN_POINT('',(32.5617376914899,-20.,22.));
#662=CARTESIAN_POINT('',(30.5,-20.,22.));
#663=CARTESIAN_POINT('',(27.4382623085101,-20.,22.));
#664=CARTESIAN_POINT('Origin',(30.,-18.,22.));
#665=CARTESIAN_POINT('',(14.5617376914899,-20.,22.));
#666=CARTESIAN_POINT('',(30.5,-20.,22.));
#667=CARTESIAN_POINT('',(9.4382623085101,-20.,22.));
#668=CARTESIAN_POINT('Origin',(12.,-18.,22.));
#669=CARTESIAN_POINT('',(6.,-20.,22.));
#670=CARTESIAN_POINT('',(30.5,-20.,22.));
#671=CARTESIAN_POINT('',(6.,20.,22.));
#672=CARTESIAN_POINT('',(6.,0.,22.));
#673=CARTESIAN_POINT('',(9.4382623085101,20.,22.));
#674=CARTESIAN_POINT('',(30.5,20.,22.));
#675=CARTESIAN_POINT('',(14.5617376914899,20.,22.));
#676=CARTESIAN_POINT('Origin',(12.,18.,22.));
#677=CARTESIAN_POINT('',(27.4382623085101,20.,22.));
#678=CARTESIAN_POINT('',(30.5,20.,22.));
#679=CARTESIAN_POINT('',(32.5617376914899,20.,22.));
#680=CARTESIAN_POINT('Origin',(30.,18.,22.));
#681=CARTESIAN_POINT('',(30.5,20.,22.));
#682=CARTESIAN_POINT('',(35.,-16.,22.));
#683=CARTESIAN_POINT('',(41.3,-16.,22.));
#684=CARTESIAN_POINT('',(34.325,-16.,22.));
#685=CARTESIAN_POINT('',(41.3,16.,22.));
#686=CARTESIAN_POINT('',(41.3,0.,22.));
#687=CARTESIAN_POINT('',(35.,16.,22.));
#688=CARTESIAN_POINT('',(34.325,16.,22.));
#689=CARTESIAN_POINT('',(35.,0.,22.));
#690=CARTESIAN_POINT('Origin',(55.,0.,23.5));
#691=CARTESIAN_POINT('',(55.,-20.,23.5));
#692=CARTESIAN_POINT('Origin',(30.,-18.,23.55));
#693=CARTESIAN_POINT('',(32.5617376914899,-20.,23.55));
#694=CARTESIAN_POINT('',(27.4382623085101,-20.,23.55));
#695=CARTESIAN_POINT('Origin',(30.5,-20.,23.5));
#696=CARTESIAN_POINT('',(14.5617376914899,-20.,23.55));
#697=CARTESIAN_POINT('Origin',(30.,18.,23.55));
#698=CARTESIAN_POINT('',(32.5617376914899,20.,23.55));
#699=CARTESIAN_POINT('',(27.4382623085101,20.,23.55));
#700=CARTESIAN_POINT('Origin',(30.5,20.,23.5));
#701=CARTESIAN_POINT('',(14.5617376914899,20.,23.55));
#702=CARTESIAN_POINT('Origin',(12.,-18.,23.55));
#703=CARTESIAN_POINT('',(9.4382623085101,-20.,23.55));
#704=CARTESIAN_POINT('Origin',(30.5,-20.,23.5));
#705=CARTESIAN_POINT('Origin',(12.,18.,23.55));
#706=CARTESIAN_POINT('',(9.4382623085101,20.,23.55));
#707=CARTESIAN_POINT('Origin',(30.5,20.,23.5));
#708=CARTESIAN_POINT('',(6.,20.,23.5));
#709=CARTESIAN_POINT('Origin',(41.3,0.,19.5));
#710=CARTESIAN_POINT('',(41.3,-16.,16.5));
#711=CARTESIAN_POINT('',(41.3,-16.,19.5));
#712=CARTESIAN_POINT('',(41.3,16.,16.5));
#713=CARTESIAN_POINT('',(41.3,0.,16.5));
#714=CARTESIAN_POINT('',(41.3,16.,19.5));
#715=CARTESIAN_POINT('Origin',(38.15,-16.,19.5));
#716=CARTESIAN_POINT('',(35.,-16.,16.5));
#717=CARTESIAN_POINT('',(35.,-16.,19.5));
#718=CARTESIAN_POINT('',(38.15,-16.,16.5));
#719=CARTESIAN_POINT('Origin',(38.15,0.,16.5));
#720=CARTESIAN_POINT('',(35.,16.,16.5));
#721=CARTESIAN_POINT('',(35.,0.,16.5));
#722=CARTESIAN_POINT('',(38.15,16.,16.5));
#723=CARTESIAN_POINT('Origin',(35.,0.,19.5));
#724=CARTESIAN_POINT('',(35.,16.,19.5));
#725=CARTESIAN_POINT('Origin',(38.15,16.,19.5));
#726=CARTESIAN_POINT('Origin',(30.5,-20.,23.5));
#727=CARTESIAN_POINT('',(6.,-20.,23.5));
#728=CARTESIAN_POINT('Origin',(6.,0.,23.5));
#729=CARTESIAN_POINT('Origin',(30.5,20.,23.5));
#730=UNCERTAINTY_MEASURE_WITH_UNIT(LENGTH_MEASURE(0.01),#734,
'DISTANCE_ACCURACY_VALUE',
'Maximum model space distance between geometric entities at asserted c
onnectivities');
#731=UNCERTAINTY_MEASURE_WITH_UNIT(LENGTH_MEASURE(0.01),#734,
'DISTANCE_ACCURACY_VALUE',
'Maximum model space distance between geometric entities at asserted c
onnectivities');
#732=(
GEOMETRIC_REPRESENTATION_CONTEXT(3)
GLOBAL_UNCERTAINTY_ASSIGNED_CONTEXT((#730))
GLOBAL_UNIT_ASSIGNED_CONTEXT((#734,#736,#737))
REPRESENTATION_CONTEXT('','3D')
);
#733=(
GEOMETRIC_REPRESENTATION_CONTEXT(3)
GLOBAL_UNCERTAINTY_ASSIGNED_CONTEXT((#731))
GLOBAL_UNIT_ASSIGNED_CONTEXT((#734,#736,#737))
REPRESENTATION_CONTEXT('','3D')
);
#734=(
LENGTH_UNIT()
NAMED_UNIT(*)
SI_UNIT(.MILLI.,.METRE.)
);
#735=(
LENGTH_UNIT()
NAMED_UNIT(*)
SI_UNIT($,.METRE.)
);
#736=(
NAMED_UNIT(*)
PLANE_ANGLE_UNIT()
SI_UNIT($,.RADIAN.)
);
#737=(
NAMED_UNIT(*)
SI_UNIT($,.STERADIAN.)
SOLID_ANGLE_UNIT()
);
#738=SHAPE_DEFINITION_REPRESENTATION(#739,#740);
#739=PRODUCT_DEFINITION_SHAPE('',$,#742);
#740=SHAPE_REPRESENTATION('',(#450),#732);
#741=PRODUCT_DEFINITION_CONTEXT('part definition',#746,'design');
#742=PRODUCT_DEFINITION('rt_grip_lid','rt_grip_lid',#743,#741);
#743=PRODUCT_DEFINITION_FORMATION('',$,#748);
#744=PRODUCT_RELATED_PRODUCT_CATEGORY('rt_grip_lid','rt_grip_lid',(#748));
#745=APPLICATION_PROTOCOL_DEFINITION('international standard',
'automotive_design',2009,#746);
#746=APPLICATION_CONTEXT(
'Core Data for Automotive Mechanical Design Process');
#747=PRODUCT_CONTEXT('part definition',#746,'mechanical');
#748=PRODUCT('rt_grip_lid','rt_grip_lid',$,(#747));
#749=PRESENTATION_STYLE_ASSIGNMENT((#750));
#750=SURFACE_STYLE_USAGE(.BOTH.,#751);
#751=SURFACE_SIDE_STYLE('',(#752));
#752=SURFACE_STYLE_FILL_AREA(#753);
#753=FILL_AREA_STYLE('Steel - Satin',(#754));
#754=FILL_AREA_STYLE_COLOUR('Steel - Satin',#755);
#755=COLOUR_RGB('Steel - Satin',0.627450980392157,0.627450980392157,0.627450980392157);
ENDSEC;
END-ISO-10303-21;
