ISO-10303-21;
HEADER;
/* Generated by software containing ST-Developer
 * from STEP Tools, Inc. (www.steptools.com) 
 */

FILE_DESCRIPTION(
/* description */ (''),
/* implementation_level */ '2;1');

FILE_NAME(
/* name */ 'rt_cyc15_lid.step',
/* time_stamp */ '2026-07-20T19:47:13-04:00',
/* author */ (''),
/* organization */ (''),
/* preprocessor_version */ 'ST-DEVELOPER v20.1',
/* originating_system */ 'Autodesk Translation Framework v15.8.0.0',
/* authorisation */ '');

FILE_SCHEMA (('AUTOMOTIVE_DESIGN { 1 0 10303 214 3 1 1 }'));
ENDSEC;

DATA;
#10=MECHANICAL_DESIGN_GEOMETRIC_PRESENTATION_REPRESENTATION('',(#13),#1124);
#11=SHAPE_REPRESENTATION_RELATIONSHIP('SRR','None',#1131,#12);
#12=ADVANCED_BREP_SHAPE_REPRESENTATION('',(#14),#1123);
#13=STYLED_ITEM('',(#1140),#14);
#14=MANIFOLD_SOLID_BREP('Body1',#628);
#15=FACE_BOUND('',#150,.T.);
#16=FACE_BOUND('',#153,.T.);
#17=FACE_BOUND('',#154,.T.);
#18=FACE_BOUND('',#155,.T.);
#19=FACE_BOUND('',#156,.T.);
#20=FACE_BOUND('',#157,.T.);
#21=FACE_BOUND('',#158,.T.);
#22=FACE_BOUND('',#159,.T.);
#23=FACE_BOUND('',#160,.T.);
#24=FACE_BOUND('',#161,.T.);
#25=FACE_BOUND('',#162,.T.);
#26=FACE_BOUND('',#163,.T.);
#27=FACE_BOUND('',#164,.T.);
#28=FACE_BOUND('',#165,.T.);
#29=FACE_BOUND('',#166,.T.);
#30=FACE_BOUND('',#167,.T.);
#31=FACE_BOUND('',#168,.T.);
#32=FACE_BOUND('',#169,.T.);
#33=FACE_BOUND('',#170,.T.);
#34=FACE_BOUND('',#171,.T.);
#35=FACE_BOUND('',#172,.T.);
#36=FACE_BOUND('',#173,.T.);
#37=FACE_BOUND('',#174,.T.);
#38=FACE_BOUND('',#175,.T.);
#39=FACE_BOUND('',#177,.T.);
#40=FACE_BOUND('',#178,.T.);
#41=FACE_BOUND('',#179,.T.);
#42=FACE_BOUND('',#180,.T.);
#43=FACE_BOUND('',#181,.T.);
#44=FACE_BOUND('',#182,.T.);
#45=FACE_BOUND('',#183,.T.);
#46=PLANE('',#663);
#47=PLANE('',#667);
#48=PLANE('',#671);
#49=PLANE('',#675);
#50=PLANE('',#679);
#51=PLANE('',#683);
#52=PLANE('',#687);
#53=PLANE('',#691);
#54=PLANE('',#695);
#55=PLANE('',#699);
#56=PLANE('',#703);
#57=PLANE('',#707);
#58=PLANE('',#711);
#59=PLANE('',#715);
#60=PLANE('',#719);
#61=PLANE('',#723);
#62=PLANE('',#730);
#63=PLANE('',#734);
#64=PLANE('',#735);
#65=FACE_OUTER_BOUND('',#109,.T.);
#66=FACE_OUTER_BOUND('',#110,.T.);
#67=FACE_OUTER_BOUND('',#111,.T.);
#68=FACE_OUTER_BOUND('',#112,.T.);
#69=FACE_OUTER_BOUND('',#113,.T.);
#70=FACE_OUTER_BOUND('',#114,.T.);
#71=FACE_OUTER_BOUND('',#115,.T.);
#72=FACE_OUTER_BOUND('',#116,.T.);
#73=FACE_OUTER_BOUND('',#117,.T.);
#74=FACE_OUTER_BOUND('',#118,.T.);
#75=FACE_OUTER_BOUND('',#119,.T.);
#76=FACE_OUTER_BOUND('',#120,.T.);
#77=FACE_OUTER_BOUND('',#121,.T.);
#78=FACE_OUTER_BOUND('',#122,.T.);
#79=FACE_OUTER_BOUND('',#123,.T.);
#80=FACE_OUTER_BOUND('',#124,.T.);
#81=FACE_OUTER_BOUND('',#125,.T.);
#82=FACE_OUTER_BOUND('',#126,.T.);
#83=FACE_OUTER_BOUND('',#127,.T.);
#84=FACE_OUTER_BOUND('',#128,.T.);
#85=FACE_OUTER_BOUND('',#129,.T.);
#86=FACE_OUTER_BOUND('',#130,.T.);
#87=FACE_OUTER_BOUND('',#131,.T.);
#88=FACE_OUTER_BOUND('',#132,.T.);
#89=FACE_OUTER_BOUND('',#133,.T.);
#90=FACE_OUTER_BOUND('',#134,.T.);
#91=FACE_OUTER_BOUND('',#135,.T.);
#92=FACE_OUTER_BOUND('',#136,.T.);
#93=FACE_OUTER_BOUND('',#137,.T.);
#94=FACE_OUTER_BOUND('',#138,.T.);
#95=FACE_OUTER_BOUND('',#139,.T.);
#96=FACE_OUTER_BOUND('',#140,.T.);
#97=FACE_OUTER_BOUND('',#141,.T.);
#98=FACE_OUTER_BOUND('',#142,.T.);
#99=FACE_OUTER_BOUND('',#143,.T.);
#100=FACE_OUTER_BOUND('',#144,.T.);
#101=FACE_OUTER_BOUND('',#145,.T.);
#102=FACE_OUTER_BOUND('',#146,.T.);
#103=FACE_OUTER_BOUND('',#147,.T.);
#104=FACE_OUTER_BOUND('',#148,.T.);
#105=FACE_OUTER_BOUND('',#149,.T.);
#106=FACE_OUTER_BOUND('',#151,.T.);
#107=FACE_OUTER_BOUND('',#152,.T.);
#108=FACE_OUTER_BOUND('',#176,.T.);
#109=EDGE_LOOP('',(#409,#410,#411,#412));
#110=EDGE_LOOP('',(#413,#414,#415,#416));
#111=EDGE_LOOP('',(#417,#418,#419,#420));
#112=EDGE_LOOP('',(#421,#422,#423,#424));
#113=EDGE_LOOP('',(#425,#426,#427,#428));
#114=EDGE_LOOP('',(#429,#430,#431,#432));
#115=EDGE_LOOP('',(#433,#434,#435,#436));
#116=EDGE_LOOP('',(#437));
#117=EDGE_LOOP('',(#438,#439,#440,#441));
#118=EDGE_LOOP('',(#442));
#119=EDGE_LOOP('',(#443,#444,#445,#446));
#120=EDGE_LOOP('',(#447));
#121=EDGE_LOOP('',(#448,#449,#450,#451));
#122=EDGE_LOOP('',(#452));
#123=EDGE_LOOP('',(#453,#454,#455,#456));
#124=EDGE_LOOP('',(#457));
#125=EDGE_LOOP('',(#458,#459,#460,#461));
#126=EDGE_LOOP('',(#462));
#127=EDGE_LOOP('',(#463,#464,#465,#466));
#128=EDGE_LOOP('',(#467));
#129=EDGE_LOOP('',(#468,#469,#470,#471));
#130=EDGE_LOOP('',(#472));
#131=EDGE_LOOP('',(#473,#474,#475,#476));
#132=EDGE_LOOP('',(#477));
#133=EDGE_LOOP('',(#478,#479,#480,#481));
#134=EDGE_LOOP('',(#482));
#135=EDGE_LOOP('',(#483,#484,#485,#486));
#136=EDGE_LOOP('',(#487));
#137=EDGE_LOOP('',(#488,#489,#490,#491));
#138=EDGE_LOOP('',(#492));
#139=EDGE_LOOP('',(#493,#494,#495,#496));
#140=EDGE_LOOP('',(#497));
#141=EDGE_LOOP('',(#498,#499,#500,#501));
#142=EDGE_LOOP('',(#502));
#143=EDGE_LOOP('',(#503,#504,#505,#506));
#144=EDGE_LOOP('',(#507));
#145=EDGE_LOOP('',(#508,#509,#510,#511));
#146=EDGE_LOOP('',(#512));
#147=EDGE_LOOP('',(#513,#514,#515,#516));
#148=EDGE_LOOP('',(#517,#518,#519,#520));
#149=EDGE_LOOP('',(#521));
#150=EDGE_LOOP('',(#522));
#151=EDGE_LOOP('',(#523,#524,#525,#526));
#152=EDGE_LOOP('',(#527));
#153=EDGE_LOOP('',(#528));
#154=EDGE_LOOP('',(#529));
#155=EDGE_LOOP('',(#530));
#156=EDGE_LOOP('',(#531));
#157=EDGE_LOOP('',(#532));
#158=EDGE_LOOP('',(#533));
#159=EDGE_LOOP('',(#534));
#160=EDGE_LOOP('',(#535));
#161=EDGE_LOOP('',(#536));
#162=EDGE_LOOP('',(#537));
#163=EDGE_LOOP('',(#538));
#164=EDGE_LOOP('',(#539));
#165=EDGE_LOOP('',(#540));
#166=EDGE_LOOP('',(#541));
#167=EDGE_LOOP('',(#542));
#168=EDGE_LOOP('',(#543));
#169=EDGE_LOOP('',(#544));
#170=EDGE_LOOP('',(#545));
#171=EDGE_LOOP('',(#546));
#172=EDGE_LOOP('',(#547));
#173=EDGE_LOOP('',(#548));
#174=EDGE_LOOP('',(#549));
#175=EDGE_LOOP('',(#550));
#176=EDGE_LOOP('',(#551));
#177=EDGE_LOOP('',(#552));
#178=EDGE_LOOP('',(#553));
#179=EDGE_LOOP('',(#554));
#180=EDGE_LOOP('',(#555));
#181=EDGE_LOOP('',(#556));
#182=EDGE_LOOP('',(#557));
#183=EDGE_LOOP('',(#558));
#184=LINE('',#956,#209);
#185=LINE('',#962,#210);
#186=LINE('',#968,#211);
#187=LINE('',#974,#212);
#188=LINE('',#980,#213);
#189=LINE('',#986,#214);
#190=LINE('',#992,#215);
#191=LINE('',#999,#216);
#192=LINE('',#1006,#217);
#193=LINE('',#1013,#218);
#194=LINE('',#1020,#219);
#195=LINE('',#1027,#220);
#196=LINE('',#1034,#221);
#197=LINE('',#1041,#222);
#198=LINE('',#1048,#223);
#199=LINE('',#1055,#224);
#200=LINE('',#1062,#225);
#201=LINE('',#1069,#226);
#202=LINE('',#1076,#227);
#203=LINE('',#1083,#228);
#204=LINE('',#1090,#229);
#205=LINE('',#1097,#230);
#206=LINE('',#1104,#231);
#207=LINE('',#1110,#232);
#208=LINE('',#1117,#233);
#209=VECTOR('',#742,1.6);
#210=VECTOR('',#749,1.6);
#211=VECTOR('',#756,1.6);
#212=VECTOR('',#763,1.6);
#213=VECTOR('',#770,1.6);
#214=VECTOR('',#777,1.6);
#215=VECTOR('',#784,3.05);
#216=VECTOR('',#793,3.05);
#217=VECTOR('',#802,3.05);
#218=VECTOR('',#811,3.05);
#219=VECTOR('',#820,3.05);
#220=VECTOR('',#829,3.05);
#221=VECTOR('',#838,3.05);
#222=VECTOR('',#847,3.05);
#223=VECTOR('',#856,3.05);
#224=VECTOR('',#865,3.05);
#225=VECTOR('',#874,3.05);
#226=VECTOR('',#883,3.05);
#227=VECTOR('',#892,3.05);
#228=VECTOR('',#901,3.05);
#229=VECTOR('',#910,3.05);
#230=VECTOR('',#919,3.05);
#231=VECTOR('',#928,12.925);
#232=VECTOR('',#935,24.);
#233=VECTOR('',#944,38.);
#234=CIRCLE('',#643,1.6);
#235=CIRCLE('',#644,1.6);
#236=CIRCLE('',#646,1.6);
#237=CIRCLE('',#647,1.6);
#238=CIRCLE('',#649,1.6);
#239=CIRCLE('',#650,1.6);
#240=CIRCLE('',#652,1.6);
#241=CIRCLE('',#653,1.6);
#242=CIRCLE('',#655,1.6);
#243=CIRCLE('',#656,1.6);
#244=CIRCLE('',#658,1.6);
#245=CIRCLE('',#659,1.6);
#246=CIRCLE('',#661,3.05);
#247=CIRCLE('',#662,3.05);
#248=CIRCLE('',#665,3.05);
#249=CIRCLE('',#666,3.05);
#250=CIRCLE('',#669,3.05);
#251=CIRCLE('',#670,3.05);
#252=CIRCLE('',#673,3.05);
#253=CIRCLE('',#674,3.05);
#254=CIRCLE('',#677,3.05);
#255=CIRCLE('',#678,3.05);
#256=CIRCLE('',#681,3.05);
#257=CIRCLE('',#682,3.05);
#258=CIRCLE('',#685,3.05);
#259=CIRCLE('',#686,3.05);
#260=CIRCLE('',#689,3.05);
#261=CIRCLE('',#690,3.05);
#262=CIRCLE('',#693,3.05);
#263=CIRCLE('',#694,3.05);
#264=CIRCLE('',#697,3.05);
#265=CIRCLE('',#698,3.05);
#266=CIRCLE('',#701,3.05);
#267=CIRCLE('',#702,3.05);
#268=CIRCLE('',#705,3.05);
#269=CIRCLE('',#706,3.05);
#270=CIRCLE('',#709,3.05);
#271=CIRCLE('',#710,3.05);
#272=CIRCLE('',#713,3.05);
#273=CIRCLE('',#714,3.05);
#274=CIRCLE('',#717,3.05);
#275=CIRCLE('',#718,3.05);
#276=CIRCLE('',#721,3.05);
#277=CIRCLE('',#722,3.05);
#278=CIRCLE('',#725,12.925);
#279=CIRCLE('',#726,12.925);
#280=CIRCLE('',#728,24.);
#281=CIRCLE('',#729,24.);
#282=CIRCLE('',#732,38.);
#283=CIRCLE('',#733,38.);
#284=VERTEX_POINT('',#953);
#285=VERTEX_POINT('',#955);
#286=VERTEX_POINT('',#959);
#287=VERTEX_POINT('',#961);
#288=VERTEX_POINT('',#965);
#289=VERTEX_POINT('',#967);
#290=VERTEX_POINT('',#971);
#291=VERTEX_POINT('',#973);
#292=VERTEX_POINT('',#977);
#293=VERTEX_POINT('',#979);
#294=VERTEX_POINT('',#983);
#295=VERTEX_POINT('',#985);
#296=VERTEX_POINT('',#989);
#297=VERTEX_POINT('',#991);
#298=VERTEX_POINT('',#996);
#299=VERTEX_POINT('',#998);
#300=VERTEX_POINT('',#1003);
#301=VERTEX_POINT('',#1005);
#302=VERTEX_POINT('',#1010);
#303=VERTEX_POINT('',#1012);
#304=VERTEX_POINT('',#1017);
#305=VERTEX_POINT('',#1019);
#306=VERTEX_POINT('',#1024);
#307=VERTEX_POINT('',#1026);
#308=VERTEX_POINT('',#1031);
#309=VERTEX_POINT('',#1033);
#310=VERTEX_POINT('',#1038);
#311=VERTEX_POINT('',#1040);
#312=VERTEX_POINT('',#1045);
#313=VERTEX_POINT('',#1047);
#314=VERTEX_POINT('',#1052);
#315=VERTEX_POINT('',#1054);
#316=VERTEX_POINT('',#1059);
#317=VERTEX_POINT('',#1061);
#318=VERTEX_POINT('',#1066);
#319=VERTEX_POINT('',#1068);
#320=VERTEX_POINT('',#1073);
#321=VERTEX_POINT('',#1075);
#322=VERTEX_POINT('',#1080);
#323=VERTEX_POINT('',#1082);
#324=VERTEX_POINT('',#1087);
#325=VERTEX_POINT('',#1089);
#326=VERTEX_POINT('',#1094);
#327=VERTEX_POINT('',#1096);
#328=VERTEX_POINT('',#1101);
#329=VERTEX_POINT('',#1103);
#330=VERTEX_POINT('',#1107);
#331=VERTEX_POINT('',#1109);
#332=VERTEX_POINT('',#1114);
#333=VERTEX_POINT('',#1116);
#334=EDGE_CURVE('',#284,#284,#234,.T.);
#335=EDGE_CURVE('',#284,#285,#184,.T.);
#336=EDGE_CURVE('',#285,#285,#235,.T.);
#337=EDGE_CURVE('',#286,#286,#236,.T.);
#338=EDGE_CURVE('',#286,#287,#185,.T.);
#339=EDGE_CURVE('',#287,#287,#237,.T.);
#340=EDGE_CURVE('',#288,#288,#238,.T.);
#341=EDGE_CURVE('',#288,#289,#186,.T.);
#342=EDGE_CURVE('',#289,#289,#239,.T.);
#343=EDGE_CURVE('',#290,#290,#240,.T.);
#344=EDGE_CURVE('',#290,#291,#187,.T.);
#345=EDGE_CURVE('',#291,#291,#241,.T.);
#346=EDGE_CURVE('',#292,#292,#242,.T.);
#347=EDGE_CURVE('',#292,#293,#188,.T.);
#348=EDGE_CURVE('',#293,#293,#243,.T.);
#349=EDGE_CURVE('',#294,#294,#244,.T.);
#350=EDGE_CURVE('',#294,#295,#189,.T.);
#351=EDGE_CURVE('',#295,#295,#245,.T.);
#352=EDGE_CURVE('',#296,#296,#246,.T.);
#353=EDGE_CURVE('',#296,#297,#190,.T.);
#354=EDGE_CURVE('',#297,#297,#247,.T.);
#355=EDGE_CURVE('',#298,#298,#248,.T.);
#356=EDGE_CURVE('',#298,#299,#191,.T.);
#357=EDGE_CURVE('',#299,#299,#249,.T.);
#358=EDGE_CURVE('',#300,#300,#250,.T.);
#359=EDGE_CURVE('',#300,#301,#192,.T.);
#360=EDGE_CURVE('',#301,#301,#251,.T.);
#361=EDGE_CURVE('',#302,#302,#252,.T.);
#362=EDGE_CURVE('',#302,#303,#193,.T.);
#363=EDGE_CURVE('',#303,#303,#253,.T.);
#364=EDGE_CURVE('',#304,#304,#254,.T.);
#365=EDGE_CURVE('',#304,#305,#194,.T.);
#366=EDGE_CURVE('',#305,#305,#255,.T.);
#367=EDGE_CURVE('',#306,#306,#256,.T.);
#368=EDGE_CURVE('',#306,#307,#195,.T.);
#369=EDGE_CURVE('',#307,#307,#257,.T.);
#370=EDGE_CURVE('',#308,#308,#258,.T.);
#371=EDGE_CURVE('',#308,#309,#196,.T.);
#372=EDGE_CURVE('',#309,#309,#259,.T.);
#373=EDGE_CURVE('',#310,#310,#260,.T.);
#374=EDGE_CURVE('',#310,#311,#197,.T.);
#375=EDGE_CURVE('',#311,#311,#261,.T.);
#376=EDGE_CURVE('',#312,#312,#262,.T.);
#377=EDGE_CURVE('',#312,#313,#198,.T.);
#378=EDGE_CURVE('',#313,#313,#263,.T.);
#379=EDGE_CURVE('',#314,#314,#264,.T.);
#380=EDGE_CURVE('',#314,#315,#199,.T.);
#381=EDGE_CURVE('',#315,#315,#265,.T.);
#382=EDGE_CURVE('',#316,#316,#266,.T.);
#383=EDGE_CURVE('',#316,#317,#200,.T.);
#384=EDGE_CURVE('',#317,#317,#267,.T.);
#385=EDGE_CURVE('',#318,#318,#268,.T.);
#386=EDGE_CURVE('',#318,#319,#201,.T.);
#387=EDGE_CURVE('',#319,#319,#269,.T.);
#388=EDGE_CURVE('',#320,#320,#270,.T.);
#389=EDGE_CURVE('',#320,#321,#202,.T.);
#390=EDGE_CURVE('',#321,#321,#271,.T.);
#391=EDGE_CURVE('',#322,#322,#272,.T.);
#392=EDGE_CURVE('',#322,#323,#203,.T.);
#393=EDGE_CURVE('',#323,#323,#273,.T.);
#394=EDGE_CURVE('',#324,#324,#274,.T.);
#395=EDGE_CURVE('',#324,#325,#204,.T.);
#396=EDGE_CURVE('',#325,#325,#275,.T.);
#397=EDGE_CURVE('',#326,#326,#276,.T.);
#398=EDGE_CURVE('',#326,#327,#205,.T.);
#399=EDGE_CURVE('',#327,#327,#277,.T.);
#400=EDGE_CURVE('',#328,#328,#278,.T.);
#401=EDGE_CURVE('',#328,#329,#206,.T.);
#402=EDGE_CURVE('',#329,#329,#279,.T.);
#403=EDGE_CURVE('',#330,#330,#280,.T.);
#404=EDGE_CURVE('',#330,#331,#207,.T.);
#405=EDGE_CURVE('',#331,#331,#281,.T.);
#406=EDGE_CURVE('',#332,#332,#282,.T.);
#407=EDGE_CURVE('',#332,#333,#208,.T.);
#408=EDGE_CURVE('',#333,#333,#283,.T.);
#409=ORIENTED_EDGE('',*,*,#334,.F.);
#410=ORIENTED_EDGE('',*,*,#335,.T.);
#411=ORIENTED_EDGE('',*,*,#336,.F.);
#412=ORIENTED_EDGE('',*,*,#335,.F.);
#413=ORIENTED_EDGE('',*,*,#337,.F.);
#414=ORIENTED_EDGE('',*,*,#338,.T.);
#415=ORIENTED_EDGE('',*,*,#339,.F.);
#416=ORIENTED_EDGE('',*,*,#338,.F.);
#417=ORIENTED_EDGE('',*,*,#340,.F.);
#418=ORIENTED_EDGE('',*,*,#341,.T.);
#419=ORIENTED_EDGE('',*,*,#342,.F.);
#420=ORIENTED_EDGE('',*,*,#341,.F.);
#421=ORIENTED_EDGE('',*,*,#343,.F.);
#422=ORIENTED_EDGE('',*,*,#344,.T.);
#423=ORIENTED_EDGE('',*,*,#345,.F.);
#424=ORIENTED_EDGE('',*,*,#344,.F.);
#425=ORIENTED_EDGE('',*,*,#346,.F.);
#426=ORIENTED_EDGE('',*,*,#347,.T.);
#427=ORIENTED_EDGE('',*,*,#348,.F.);
#428=ORIENTED_EDGE('',*,*,#347,.F.);
#429=ORIENTED_EDGE('',*,*,#349,.F.);
#430=ORIENTED_EDGE('',*,*,#350,.T.);
#431=ORIENTED_EDGE('',*,*,#351,.F.);
#432=ORIENTED_EDGE('',*,*,#350,.F.);
#433=ORIENTED_EDGE('',*,*,#352,.F.);
#434=ORIENTED_EDGE('',*,*,#353,.T.);
#435=ORIENTED_EDGE('',*,*,#354,.T.);
#436=ORIENTED_EDGE('',*,*,#353,.F.);
#437=ORIENTED_EDGE('',*,*,#354,.F.);
#438=ORIENTED_EDGE('',*,*,#355,.F.);
#439=ORIENTED_EDGE('',*,*,#356,.T.);
#440=ORIENTED_EDGE('',*,*,#357,.T.);
#441=ORIENTED_EDGE('',*,*,#356,.F.);
#442=ORIENTED_EDGE('',*,*,#357,.F.);
#443=ORIENTED_EDGE('',*,*,#358,.F.);
#444=ORIENTED_EDGE('',*,*,#359,.T.);
#445=ORIENTED_EDGE('',*,*,#360,.T.);
#446=ORIENTED_EDGE('',*,*,#359,.F.);
#447=ORIENTED_EDGE('',*,*,#360,.F.);
#448=ORIENTED_EDGE('',*,*,#361,.F.);
#449=ORIENTED_EDGE('',*,*,#362,.T.);
#450=ORIENTED_EDGE('',*,*,#363,.T.);
#451=ORIENTED_EDGE('',*,*,#362,.F.);
#452=ORIENTED_EDGE('',*,*,#363,.F.);
#453=ORIENTED_EDGE('',*,*,#364,.F.);
#454=ORIENTED_EDGE('',*,*,#365,.T.);
#455=ORIENTED_EDGE('',*,*,#366,.T.);
#456=ORIENTED_EDGE('',*,*,#365,.F.);
#457=ORIENTED_EDGE('',*,*,#366,.F.);
#458=ORIENTED_EDGE('',*,*,#367,.F.);
#459=ORIENTED_EDGE('',*,*,#368,.T.);
#460=ORIENTED_EDGE('',*,*,#369,.T.);
#461=ORIENTED_EDGE('',*,*,#368,.F.);
#462=ORIENTED_EDGE('',*,*,#369,.F.);
#463=ORIENTED_EDGE('',*,*,#370,.F.);
#464=ORIENTED_EDGE('',*,*,#371,.T.);
#465=ORIENTED_EDGE('',*,*,#372,.T.);
#466=ORIENTED_EDGE('',*,*,#371,.F.);
#467=ORIENTED_EDGE('',*,*,#372,.F.);
#468=ORIENTED_EDGE('',*,*,#373,.F.);
#469=ORIENTED_EDGE('',*,*,#374,.T.);
#470=ORIENTED_EDGE('',*,*,#375,.T.);
#471=ORIENTED_EDGE('',*,*,#374,.F.);
#472=ORIENTED_EDGE('',*,*,#375,.F.);
#473=ORIENTED_EDGE('',*,*,#376,.F.);
#474=ORIENTED_EDGE('',*,*,#377,.T.);
#475=ORIENTED_EDGE('',*,*,#378,.T.);
#476=ORIENTED_EDGE('',*,*,#377,.F.);
#477=ORIENTED_EDGE('',*,*,#378,.F.);
#478=ORIENTED_EDGE('',*,*,#379,.F.);
#479=ORIENTED_EDGE('',*,*,#380,.T.);
#480=ORIENTED_EDGE('',*,*,#381,.T.);
#481=ORIENTED_EDGE('',*,*,#380,.F.);
#482=ORIENTED_EDGE('',*,*,#381,.F.);
#483=ORIENTED_EDGE('',*,*,#382,.F.);
#484=ORIENTED_EDGE('',*,*,#383,.T.);
#485=ORIENTED_EDGE('',*,*,#384,.T.);
#486=ORIENTED_EDGE('',*,*,#383,.F.);
#487=ORIENTED_EDGE('',*,*,#384,.F.);
#488=ORIENTED_EDGE('',*,*,#385,.F.);
#489=ORIENTED_EDGE('',*,*,#386,.T.);
#490=ORIENTED_EDGE('',*,*,#387,.T.);
#491=ORIENTED_EDGE('',*,*,#386,.F.);
#492=ORIENTED_EDGE('',*,*,#387,.F.);
#493=ORIENTED_EDGE('',*,*,#388,.F.);
#494=ORIENTED_EDGE('',*,*,#389,.T.);
#495=ORIENTED_EDGE('',*,*,#390,.T.);
#496=ORIENTED_EDGE('',*,*,#389,.F.);
#497=ORIENTED_EDGE('',*,*,#390,.F.);
#498=ORIENTED_EDGE('',*,*,#391,.F.);
#499=ORIENTED_EDGE('',*,*,#392,.T.);
#500=ORIENTED_EDGE('',*,*,#393,.T.);
#501=ORIENTED_EDGE('',*,*,#392,.F.);
#502=ORIENTED_EDGE('',*,*,#393,.F.);
#503=ORIENTED_EDGE('',*,*,#394,.F.);
#504=ORIENTED_EDGE('',*,*,#395,.T.);
#505=ORIENTED_EDGE('',*,*,#396,.T.);
#506=ORIENTED_EDGE('',*,*,#395,.F.);
#507=ORIENTED_EDGE('',*,*,#396,.F.);
#508=ORIENTED_EDGE('',*,*,#397,.F.);
#509=ORIENTED_EDGE('',*,*,#398,.T.);
#510=ORIENTED_EDGE('',*,*,#399,.T.);
#511=ORIENTED_EDGE('',*,*,#398,.F.);
#512=ORIENTED_EDGE('',*,*,#399,.F.);
#513=ORIENTED_EDGE('',*,*,#400,.F.);
#514=ORIENTED_EDGE('',*,*,#401,.T.);
#515=ORIENTED_EDGE('',*,*,#402,.F.);
#516=ORIENTED_EDGE('',*,*,#401,.F.);
#517=ORIENTED_EDGE('',*,*,#403,.F.);
#518=ORIENTED_EDGE('',*,*,#404,.T.);
#519=ORIENTED_EDGE('',*,*,#405,.T.);
#520=ORIENTED_EDGE('',*,*,#404,.F.);
#521=ORIENTED_EDGE('',*,*,#405,.F.);
#522=ORIENTED_EDGE('',*,*,#400,.T.);
#523=ORIENTED_EDGE('',*,*,#406,.F.);
#524=ORIENTED_EDGE('',*,*,#407,.T.);
#525=ORIENTED_EDGE('',*,*,#408,.F.);
#526=ORIENTED_EDGE('',*,*,#407,.F.);
#527=ORIENTED_EDGE('',*,*,#408,.T.);
#528=ORIENTED_EDGE('',*,*,#337,.T.);
#529=ORIENTED_EDGE('',*,*,#343,.T.);
#530=ORIENTED_EDGE('',*,*,#349,.T.);
#531=ORIENTED_EDGE('',*,*,#355,.T.);
#532=ORIENTED_EDGE('',*,*,#361,.T.);
#533=ORIENTED_EDGE('',*,*,#367,.T.);
#534=ORIENTED_EDGE('',*,*,#373,.T.);
#535=ORIENTED_EDGE('',*,*,#379,.T.);
#536=ORIENTED_EDGE('',*,*,#382,.T.);
#537=ORIENTED_EDGE('',*,*,#385,.T.);
#538=ORIENTED_EDGE('',*,*,#388,.T.);
#539=ORIENTED_EDGE('',*,*,#391,.T.);
#540=ORIENTED_EDGE('',*,*,#394,.T.);
#541=ORIENTED_EDGE('',*,*,#397,.T.);
#542=ORIENTED_EDGE('',*,*,#403,.T.);
#543=ORIENTED_EDGE('',*,*,#376,.T.);
#544=ORIENTED_EDGE('',*,*,#370,.T.);
#545=ORIENTED_EDGE('',*,*,#364,.T.);
#546=ORIENTED_EDGE('',*,*,#358,.T.);
#547=ORIENTED_EDGE('',*,*,#352,.T.);
#548=ORIENTED_EDGE('',*,*,#346,.T.);
#549=ORIENTED_EDGE('',*,*,#340,.T.);
#550=ORIENTED_EDGE('',*,*,#334,.T.);
#551=ORIENTED_EDGE('',*,*,#406,.T.);
#552=ORIENTED_EDGE('',*,*,#336,.T.);
#553=ORIENTED_EDGE('',*,*,#339,.T.);
#554=ORIENTED_EDGE('',*,*,#342,.T.);
#555=ORIENTED_EDGE('',*,*,#345,.T.);
#556=ORIENTED_EDGE('',*,*,#348,.T.);
#557=ORIENTED_EDGE('',*,*,#351,.T.);
#558=ORIENTED_EDGE('',*,*,#402,.T.);
#559=CYLINDRICAL_SURFACE('',#642,1.6);
#560=CYLINDRICAL_SURFACE('',#645,1.6);
#561=CYLINDRICAL_SURFACE('',#648,1.6);
#562=CYLINDRICAL_SURFACE('',#651,1.6);
#563=CYLINDRICAL_SURFACE('',#654,1.6);
#564=CYLINDRICAL_SURFACE('',#657,1.6);
#565=CYLINDRICAL_SURFACE('',#660,3.05);
#566=CYLINDRICAL_SURFACE('',#664,3.05);
#567=CYLINDRICAL_SURFACE('',#668,3.05);
#568=CYLINDRICAL_SURFACE('',#672,3.05);
#569=CYLINDRICAL_SURFACE('',#676,3.05);
#570=CYLINDRICAL_SURFACE('',#680,3.05);
#571=CYLINDRICAL_SURFACE('',#684,3.05);
#572=CYLINDRICAL_SURFACE('',#688,3.05);
#573=CYLINDRICAL_SURFACE('',#692,3.05);
#574=CYLINDRICAL_SURFACE('',#696,3.05);
#575=CYLINDRICAL_SURFACE('',#700,3.05);
#576=CYLINDRICAL_SURFACE('',#704,3.05);
#577=CYLINDRICAL_SURFACE('',#708,3.05);
#578=CYLINDRICAL_SURFACE('',#712,3.05);
#579=CYLINDRICAL_SURFACE('',#716,3.05);
#580=CYLINDRICAL_SURFACE('',#720,3.05);
#581=CYLINDRICAL_SURFACE('',#724,12.925);
#582=CYLINDRICAL_SURFACE('',#727,24.);
#583=CYLINDRICAL_SURFACE('',#731,38.);
#584=ADVANCED_FACE('',(#65),#559,.F.);
#585=ADVANCED_FACE('',(#66),#560,.F.);
#586=ADVANCED_FACE('',(#67),#561,.F.);
#587=ADVANCED_FACE('',(#68),#562,.F.);
#588=ADVANCED_FACE('',(#69),#563,.F.);
#589=ADVANCED_FACE('',(#70),#564,.F.);
#590=ADVANCED_FACE('',(#71),#565,.F.);
#591=ADVANCED_FACE('',(#72),#46,.F.);
#592=ADVANCED_FACE('',(#73),#566,.F.);
#593=ADVANCED_FACE('',(#74),#47,.F.);
#594=ADVANCED_FACE('',(#75),#567,.F.);
#595=ADVANCED_FACE('',(#76),#48,.F.);
#596=ADVANCED_FACE('',(#77),#568,.F.);
#597=ADVANCED_FACE('',(#78),#49,.F.);
#598=ADVANCED_FACE('',(#79),#569,.F.);
#599=ADVANCED_FACE('',(#80),#50,.F.);
#600=ADVANCED_FACE('',(#81),#570,.F.);
#601=ADVANCED_FACE('',(#82),#51,.F.);
#602=ADVANCED_FACE('',(#83),#571,.F.);
#603=ADVANCED_FACE('',(#84),#52,.F.);
#604=ADVANCED_FACE('',(#85),#572,.F.);
#605=ADVANCED_FACE('',(#86),#53,.F.);
#606=ADVANCED_FACE('',(#87),#573,.F.);
#607=ADVANCED_FACE('',(#88),#54,.F.);
#608=ADVANCED_FACE('',(#89),#574,.F.);
#609=ADVANCED_FACE('',(#90),#55,.F.);
#610=ADVANCED_FACE('',(#91),#575,.F.);
#611=ADVANCED_FACE('',(#92),#56,.F.);
#612=ADVANCED_FACE('',(#93),#576,.F.);
#613=ADVANCED_FACE('',(#94),#57,.F.);
#614=ADVANCED_FACE('',(#95),#577,.F.);
#615=ADVANCED_FACE('',(#96),#58,.F.);
#616=ADVANCED_FACE('',(#97),#578,.F.);
#617=ADVANCED_FACE('',(#98),#59,.F.);
#618=ADVANCED_FACE('',(#99),#579,.F.);
#619=ADVANCED_FACE('',(#100),#60,.F.);
#620=ADVANCED_FACE('',(#101),#580,.F.);
#621=ADVANCED_FACE('',(#102),#61,.F.);
#622=ADVANCED_FACE('',(#103),#581,.F.);
#623=ADVANCED_FACE('',(#104),#582,.F.);
#624=ADVANCED_FACE('',(#105,#15),#62,.F.);
#625=ADVANCED_FACE('',(#106),#583,.T.);
#626=ADVANCED_FACE('',(#107,#16,#17,#18,#19,#20,#21,#22,#23,#24,#25,#26,
#27,#28,#29,#30,#31,#32,#33,#34,#35,#36,#37,#38),#63,.T.);
#627=ADVANCED_FACE('',(#108,#39,#40,#41,#42,#43,#44,#45),#64,.T.);
#628=CLOSED_SHELL('',(#584,#585,#586,#587,#588,#589,#590,#591,#592,#593,
#594,#595,#596,#597,#598,#599,#600,#601,#602,#603,#604,#605,#606,#607,#608,
#609,#610,#611,#612,#613,#614,#615,#616,#617,#618,#619,#620,#621,#622,#623,
#624,#625,#626,#627));
#629=DERIVED_UNIT_ELEMENT(#631,1.);
#630=DERIVED_UNIT_ELEMENT(#1126,-3.);
#631=(
MASS_UNIT()
NAMED_UNIT(*)
SI_UNIT(.KILO.,.GRAM.)
);
#632=DERIVED_UNIT((#629,#630));
#633=MEASURE_REPRESENTATION_ITEM('density measure',
POSITIVE_RATIO_MEASURE(7850.),#632);
#634=PROPERTY_DEFINITION_REPRESENTATION(#639,#636);
#635=PROPERTY_DEFINITION_REPRESENTATION(#640,#637);
#636=REPRESENTATION('material name',(#638),#1123);
#637=REPRESENTATION('density',(#633),#1123);
#638=DESCRIPTIVE_REPRESENTATION_ITEM('Steel','Steel');
#639=PROPERTY_DEFINITION('material property','material name',#1133);
#640=PROPERTY_DEFINITION('material property','density of part',#1133);
#641=AXIS2_PLACEMENT_3D('',#951,#736,#737);
#642=AXIS2_PLACEMENT_3D('',#952,#738,#739);
#643=AXIS2_PLACEMENT_3D('',#954,#740,#741);
#644=AXIS2_PLACEMENT_3D('',#957,#743,#744);
#645=AXIS2_PLACEMENT_3D('',#958,#745,#746);
#646=AXIS2_PLACEMENT_3D('',#960,#747,#748);
#647=AXIS2_PLACEMENT_3D('',#963,#750,#751);
#648=AXIS2_PLACEMENT_3D('',#964,#752,#753);
#649=AXIS2_PLACEMENT_3D('',#966,#754,#755);
#650=AXIS2_PLACEMENT_3D('',#969,#757,#758);
#651=AXIS2_PLACEMENT_3D('',#970,#759,#760);
#652=AXIS2_PLACEMENT_3D('',#972,#761,#762);
#653=AXIS2_PLACEMENT_3D('',#975,#764,#765);
#654=AXIS2_PLACEMENT_3D('',#976,#766,#767);
#655=AXIS2_PLACEMENT_3D('',#978,#768,#769);
#656=AXIS2_PLACEMENT_3D('',#981,#771,#772);
#657=AXIS2_PLACEMENT_3D('',#982,#773,#774);
#658=AXIS2_PLACEMENT_3D('',#984,#775,#776);
#659=AXIS2_PLACEMENT_3D('',#987,#778,#779);
#660=AXIS2_PLACEMENT_3D('',#988,#780,#781);
#661=AXIS2_PLACEMENT_3D('',#990,#782,#783);
#662=AXIS2_PLACEMENT_3D('',#993,#785,#786);
#663=AXIS2_PLACEMENT_3D('',#994,#787,#788);
#664=AXIS2_PLACEMENT_3D('',#995,#789,#790);
#665=AXIS2_PLACEMENT_3D('',#997,#791,#792);
#666=AXIS2_PLACEMENT_3D('',#1000,#794,#795);
#667=AXIS2_PLACEMENT_3D('',#1001,#796,#797);
#668=AXIS2_PLACEMENT_3D('',#1002,#798,#799);
#669=AXIS2_PLACEMENT_3D('',#1004,#800,#801);
#670=AXIS2_PLACEMENT_3D('',#1007,#803,#804);
#671=AXIS2_PLACEMENT_3D('',#1008,#805,#806);
#672=AXIS2_PLACEMENT_3D('',#1009,#807,#808);
#673=AXIS2_PLACEMENT_3D('',#1011,#809,#810);
#674=AXIS2_PLACEMENT_3D('',#1014,#812,#813);
#675=AXIS2_PLACEMENT_3D('',#1015,#814,#815);
#676=AXIS2_PLACEMENT_3D('',#1016,#816,#817);
#677=AXIS2_PLACEMENT_3D('',#1018,#818,#819);
#678=AXIS2_PLACEMENT_3D('',#1021,#821,#822);
#679=AXIS2_PLACEMENT_3D('',#1022,#823,#824);
#680=AXIS2_PLACEMENT_3D('',#1023,#825,#826);
#681=AXIS2_PLACEMENT_3D('',#1025,#827,#828);
#682=AXIS2_PLACEMENT_3D('',#1028,#830,#831);
#683=AXIS2_PLACEMENT_3D('',#1029,#832,#833);
#684=AXIS2_PLACEMENT_3D('',#1030,#834,#835);
#685=AXIS2_PLACEMENT_3D('',#1032,#836,#837);
#686=AXIS2_PLACEMENT_3D('',#1035,#839,#840);
#687=AXIS2_PLACEMENT_3D('',#1036,#841,#842);
#688=AXIS2_PLACEMENT_3D('',#1037,#843,#844);
#689=AXIS2_PLACEMENT_3D('',#1039,#845,#846);
#690=AXIS2_PLACEMENT_3D('',#1042,#848,#849);
#691=AXIS2_PLACEMENT_3D('',#1043,#850,#851);
#692=AXIS2_PLACEMENT_3D('',#1044,#852,#853);
#693=AXIS2_PLACEMENT_3D('',#1046,#854,#855);
#694=AXIS2_PLACEMENT_3D('',#1049,#857,#858);
#695=AXIS2_PLACEMENT_3D('',#1050,#859,#860);
#696=AXIS2_PLACEMENT_3D('',#1051,#861,#862);
#697=AXIS2_PLACEMENT_3D('',#1053,#863,#864);
#698=AXIS2_PLACEMENT_3D('',#1056,#866,#867);
#699=AXIS2_PLACEMENT_3D('',#1057,#868,#869);
#700=AXIS2_PLACEMENT_3D('',#1058,#870,#871);
#701=AXIS2_PLACEMENT_3D('',#1060,#872,#873);
#702=AXIS2_PLACEMENT_3D('',#1063,#875,#876);
#703=AXIS2_PLACEMENT_3D('',#1064,#877,#878);
#704=AXIS2_PLACEMENT_3D('',#1065,#879,#880);
#705=AXIS2_PLACEMENT_3D('',#1067,#881,#882);
#706=AXIS2_PLACEMENT_3D('',#1070,#884,#885);
#707=AXIS2_PLACEMENT_3D('',#1071,#886,#887);
#708=AXIS2_PLACEMENT_3D('',#1072,#888,#889);
#709=AXIS2_PLACEMENT_3D('',#1074,#890,#891);
#710=AXIS2_PLACEMENT_3D('',#1077,#893,#894);
#711=AXIS2_PLACEMENT_3D('',#1078,#895,#896);
#712=AXIS2_PLACEMENT_3D('',#1079,#897,#898);
#713=AXIS2_PLACEMENT_3D('',#1081,#899,#900);
#714=AXIS2_PLACEMENT_3D('',#1084,#902,#903);
#715=AXIS2_PLACEMENT_3D('',#1085,#904,#905);
#716=AXIS2_PLACEMENT_3D('',#1086,#906,#907);
#717=AXIS2_PLACEMENT_3D('',#1088,#908,#909);
#718=AXIS2_PLACEMENT_3D('',#1091,#911,#912);
#719=AXIS2_PLACEMENT_3D('',#1092,#913,#914);
#720=AXIS2_PLACEMENT_3D('',#1093,#915,#916);
#721=AXIS2_PLACEMENT_3D('',#1095,#917,#918);
#722=AXIS2_PLACEMENT_3D('',#1098,#920,#921);
#723=AXIS2_PLACEMENT_3D('',#1099,#922,#923);
#724=AXIS2_PLACEMENT_3D('',#1100,#924,#925);
#725=AXIS2_PLACEMENT_3D('',#1102,#926,#927);
#726=AXIS2_PLACEMENT_3D('',#1105,#929,#930);
#727=AXIS2_PLACEMENT_3D('',#1106,#931,#932);
#728=AXIS2_PLACEMENT_3D('',#1108,#933,#934);
#729=AXIS2_PLACEMENT_3D('',#1111,#936,#937);
#730=AXIS2_PLACEMENT_3D('',#1112,#938,#939);
#731=AXIS2_PLACEMENT_3D('',#1113,#940,#941);
#732=AXIS2_PLACEMENT_3D('',#1115,#942,#943);
#733=AXIS2_PLACEMENT_3D('',#1118,#945,#946);
#734=AXIS2_PLACEMENT_3D('',#1119,#947,#948);
#735=AXIS2_PLACEMENT_3D('',#1120,#949,#950);
#736=DIRECTION('axis',(0.,0.,1.));
#737=DIRECTION('refdir',(1.,0.,0.));
#738=DIRECTION('center_axis',(0.,0.,1.));
#739=DIRECTION('ref_axis',(1.,0.,0.));
#740=DIRECTION('center_axis',(0.,0.,1.));
#741=DIRECTION('ref_axis',(1.,0.,0.));
#742=DIRECTION('',(0.,0.,1.));
#743=DIRECTION('center_axis',(0.,0.,-1.));
#744=DIRECTION('ref_axis',(1.,0.,0.));
#745=DIRECTION('center_axis',(0.,0.,1.));
#746=DIRECTION('ref_axis',(1.,0.,0.));
#747=DIRECTION('center_axis',(0.,0.,1.));
#748=DIRECTION('ref_axis',(1.,0.,0.));
#749=DIRECTION('',(0.,0.,1.));
#750=DIRECTION('center_axis',(0.,0.,-1.));
#751=DIRECTION('ref_axis',(1.,0.,0.));
#752=DIRECTION('center_axis',(0.,0.,1.));
#753=DIRECTION('ref_axis',(1.,0.,0.));
#754=DIRECTION('center_axis',(0.,0.,1.));
#755=DIRECTION('ref_axis',(1.,0.,0.));
#756=DIRECTION('',(0.,0.,1.));
#757=DIRECTION('center_axis',(0.,0.,-1.));
#758=DIRECTION('ref_axis',(1.,0.,0.));
#759=DIRECTION('center_axis',(0.,0.,1.));
#760=DIRECTION('ref_axis',(1.,0.,0.));
#761=DIRECTION('center_axis',(0.,0.,1.));
#762=DIRECTION('ref_axis',(1.,0.,0.));
#763=DIRECTION('',(0.,0.,1.));
#764=DIRECTION('center_axis',(0.,0.,-1.));
#765=DIRECTION('ref_axis',(1.,0.,0.));
#766=DIRECTION('center_axis',(0.,0.,1.));
#767=DIRECTION('ref_axis',(1.,0.,0.));
#768=DIRECTION('center_axis',(0.,0.,1.));
#769=DIRECTION('ref_axis',(1.,0.,0.));
#770=DIRECTION('',(0.,0.,1.));
#771=DIRECTION('center_axis',(0.,0.,-1.));
#772=DIRECTION('ref_axis',(1.,0.,0.));
#773=DIRECTION('center_axis',(0.,0.,1.));
#774=DIRECTION('ref_axis',(1.,0.,0.));
#775=DIRECTION('center_axis',(0.,0.,1.));
#776=DIRECTION('ref_axis',(1.,0.,0.));
#777=DIRECTION('',(0.,0.,1.));
#778=DIRECTION('center_axis',(0.,0.,-1.));
#779=DIRECTION('ref_axis',(1.,0.,0.));
#780=DIRECTION('center_axis',(0.,0.,1.));
#781=DIRECTION('ref_axis',(1.,0.,0.));
#782=DIRECTION('center_axis',(0.,0.,1.));
#783=DIRECTION('ref_axis',(1.,0.,0.));
#784=DIRECTION('',(0.,0.,1.));
#785=DIRECTION('center_axis',(0.,0.,1.));
#786=DIRECTION('ref_axis',(1.,0.,0.));
#787=DIRECTION('center_axis',(0.,0.,1.));
#788=DIRECTION('ref_axis',(1.,0.,0.));
#789=DIRECTION('center_axis',(0.,0.,1.));
#790=DIRECTION('ref_axis',(1.,0.,0.));
#791=DIRECTION('center_axis',(0.,0.,1.));
#792=DIRECTION('ref_axis',(1.,0.,0.));
#793=DIRECTION('',(0.,0.,1.));
#794=DIRECTION('center_axis',(0.,0.,1.));
#795=DIRECTION('ref_axis',(1.,0.,0.));
#796=DIRECTION('center_axis',(0.,0.,1.));
#797=DIRECTION('ref_axis',(1.,0.,0.));
#798=DIRECTION('center_axis',(0.,0.,1.));
#799=DIRECTION('ref_axis',(1.,0.,0.));
#800=DIRECTION('center_axis',(0.,0.,1.));
#801=DIRECTION('ref_axis',(1.,0.,0.));
#802=DIRECTION('',(0.,0.,1.));
#803=DIRECTION('center_axis',(0.,0.,1.));
#804=DIRECTION('ref_axis',(1.,0.,0.));
#805=DIRECTION('center_axis',(0.,0.,1.));
#806=DIRECTION('ref_axis',(1.,0.,0.));
#807=DIRECTION('center_axis',(0.,0.,1.));
#808=DIRECTION('ref_axis',(1.,0.,0.));
#809=DIRECTION('center_axis',(0.,0.,1.));
#810=DIRECTION('ref_axis',(1.,0.,0.));
#811=DIRECTION('',(0.,0.,1.));
#812=DIRECTION('center_axis',(0.,0.,1.));
#813=DIRECTION('ref_axis',(1.,0.,0.));
#814=DIRECTION('center_axis',(0.,0.,1.));
#815=DIRECTION('ref_axis',(1.,0.,0.));
#816=DIRECTION('center_axis',(0.,0.,1.));
#817=DIRECTION('ref_axis',(1.,0.,0.));
#818=DIRECTION('center_axis',(0.,0.,1.));
#819=DIRECTION('ref_axis',(1.,0.,0.));
#820=DIRECTION('',(0.,0.,1.));
#821=DIRECTION('center_axis',(0.,0.,1.));
#822=DIRECTION('ref_axis',(1.,0.,0.));
#823=DIRECTION('center_axis',(0.,0.,1.));
#824=DIRECTION('ref_axis',(1.,0.,0.));
#825=DIRECTION('center_axis',(0.,0.,1.));
#826=DIRECTION('ref_axis',(1.,0.,0.));
#827=DIRECTION('center_axis',(0.,0.,1.));
#828=DIRECTION('ref_axis',(1.,0.,0.));
#829=DIRECTION('',(0.,0.,1.));
#830=DIRECTION('center_axis',(0.,0.,1.));
#831=DIRECTION('ref_axis',(1.,0.,0.));
#832=DIRECTION('center_axis',(0.,0.,1.));
#833=DIRECTION('ref_axis',(1.,0.,0.));
#834=DIRECTION('center_axis',(0.,0.,1.));
#835=DIRECTION('ref_axis',(1.,0.,0.));
#836=DIRECTION('center_axis',(0.,0.,1.));
#837=DIRECTION('ref_axis',(1.,0.,0.));
#838=DIRECTION('',(0.,0.,1.));
#839=DIRECTION('center_axis',(0.,0.,1.));
#840=DIRECTION('ref_axis',(1.,0.,0.));
#841=DIRECTION('center_axis',(0.,0.,1.));
#842=DIRECTION('ref_axis',(1.,0.,0.));
#843=DIRECTION('center_axis',(0.,0.,1.));
#844=DIRECTION('ref_axis',(1.,0.,0.));
#845=DIRECTION('center_axis',(0.,0.,1.));
#846=DIRECTION('ref_axis',(1.,0.,0.));
#847=DIRECTION('',(0.,0.,1.));
#848=DIRECTION('center_axis',(0.,0.,1.));
#849=DIRECTION('ref_axis',(1.,0.,0.));
#850=DIRECTION('center_axis',(0.,0.,1.));
#851=DIRECTION('ref_axis',(1.,0.,0.));
#852=DIRECTION('center_axis',(0.,0.,1.));
#853=DIRECTION('ref_axis',(1.,0.,0.));
#854=DIRECTION('center_axis',(0.,0.,1.));
#855=DIRECTION('ref_axis',(1.,0.,0.));
#856=DIRECTION('',(0.,0.,1.));
#857=DIRECTION('center_axis',(0.,0.,1.));
#858=DIRECTION('ref_axis',(1.,0.,0.));
#859=DIRECTION('center_axis',(0.,0.,1.));
#860=DIRECTION('ref_axis',(1.,0.,0.));
#861=DIRECTION('center_axis',(0.,0.,1.));
#862=DIRECTION('ref_axis',(1.,0.,0.));
#863=DIRECTION('center_axis',(0.,0.,1.));
#864=DIRECTION('ref_axis',(1.,0.,0.));
#865=DIRECTION('',(0.,0.,1.));
#866=DIRECTION('center_axis',(0.,0.,1.));
#867=DIRECTION('ref_axis',(1.,0.,0.));
#868=DIRECTION('center_axis',(0.,0.,1.));
#869=DIRECTION('ref_axis',(1.,0.,0.));
#870=DIRECTION('center_axis',(0.,0.,1.));
#871=DIRECTION('ref_axis',(1.,0.,0.));
#872=DIRECTION('center_axis',(0.,0.,1.));
#873=DIRECTION('ref_axis',(1.,0.,0.));
#874=DIRECTION('',(0.,0.,1.));
#875=DIRECTION('center_axis',(0.,0.,1.));
#876=DIRECTION('ref_axis',(1.,0.,0.));
#877=DIRECTION('center_axis',(0.,0.,1.));
#878=DIRECTION('ref_axis',(1.,0.,0.));
#879=DIRECTION('center_axis',(0.,0.,1.));
#880=DIRECTION('ref_axis',(1.,0.,0.));
#881=DIRECTION('center_axis',(0.,0.,1.));
#882=DIRECTION('ref_axis',(1.,0.,0.));
#883=DIRECTION('',(0.,0.,1.));
#884=DIRECTION('center_axis',(0.,0.,1.));
#885=DIRECTION('ref_axis',(1.,0.,0.));
#886=DIRECTION('center_axis',(0.,0.,1.));
#887=DIRECTION('ref_axis',(1.,0.,0.));
#888=DIRECTION('center_axis',(0.,0.,1.));
#889=DIRECTION('ref_axis',(1.,0.,0.));
#890=DIRECTION('center_axis',(0.,0.,1.));
#891=DIRECTION('ref_axis',(1.,0.,0.));
#892=DIRECTION('',(0.,0.,1.));
#893=DIRECTION('center_axis',(0.,0.,1.));
#894=DIRECTION('ref_axis',(1.,0.,0.));
#895=DIRECTION('center_axis',(0.,0.,1.));
#896=DIRECTION('ref_axis',(1.,0.,0.));
#897=DIRECTION('center_axis',(0.,0.,1.));
#898=DIRECTION('ref_axis',(1.,0.,0.));
#899=DIRECTION('center_axis',(0.,0.,1.));
#900=DIRECTION('ref_axis',(1.,0.,0.));
#901=DIRECTION('',(0.,0.,1.));
#902=DIRECTION('center_axis',(0.,0.,1.));
#903=DIRECTION('ref_axis',(1.,0.,0.));
#904=DIRECTION('center_axis',(0.,0.,1.));
#905=DIRECTION('ref_axis',(1.,0.,0.));
#906=DIRECTION('center_axis',(0.,0.,1.));
#907=DIRECTION('ref_axis',(1.,0.,0.));
#908=DIRECTION('center_axis',(0.,0.,1.));
#909=DIRECTION('ref_axis',(1.,0.,0.));
#910=DIRECTION('',(0.,0.,1.));
#911=DIRECTION('center_axis',(0.,0.,1.));
#912=DIRECTION('ref_axis',(1.,0.,0.));
#913=DIRECTION('center_axis',(0.,0.,1.));
#914=DIRECTION('ref_axis',(1.,0.,0.));
#915=DIRECTION('center_axis',(0.,0.,1.));
#916=DIRECTION('ref_axis',(1.,0.,0.));
#917=DIRECTION('center_axis',(0.,0.,1.));
#918=DIRECTION('ref_axis',(1.,0.,0.));
#919=DIRECTION('',(0.,0.,1.));
#920=DIRECTION('center_axis',(0.,0.,1.));
#921=DIRECTION('ref_axis',(1.,0.,0.));
#922=DIRECTION('center_axis',(0.,0.,1.));
#923=DIRECTION('ref_axis',(1.,0.,0.));
#924=DIRECTION('center_axis',(0.,0.,1.));
#925=DIRECTION('ref_axis',(1.,0.,0.));
#926=DIRECTION('center_axis',(0.,0.,1.));
#927=DIRECTION('ref_axis',(1.,0.,0.));
#928=DIRECTION('',(0.,0.,1.));
#929=DIRECTION('center_axis',(0.,0.,-1.));
#930=DIRECTION('ref_axis',(1.,0.,0.));
#931=DIRECTION('center_axis',(0.,0.,1.));
#932=DIRECTION('ref_axis',(1.,0.,0.));
#933=DIRECTION('center_axis',(0.,0.,1.));
#934=DIRECTION('ref_axis',(1.,0.,0.));
#935=DIRECTION('',(0.,0.,1.));
#936=DIRECTION('center_axis',(0.,0.,1.));
#937=DIRECTION('ref_axis',(1.,0.,0.));
#938=DIRECTION('center_axis',(0.,0.,1.));
#939=DIRECTION('ref_axis',(1.,0.,0.));
#940=DIRECTION('center_axis',(0.,0.,1.));
#941=DIRECTION('ref_axis',(1.,0.,0.));
#942=DIRECTION('center_axis',(0.,0.,1.));
#943=DIRECTION('ref_axis',(1.,0.,0.));
#944=DIRECTION('',(0.,0.,-1.));
#945=DIRECTION('center_axis',(0.,0.,-1.));
#946=DIRECTION('ref_axis',(1.,0.,0.));
#947=DIRECTION('center_axis',(0.,0.,-1.));
#948=DIRECTION('ref_axis',(-1.,0.,0.));
#949=DIRECTION('center_axis',(0.,0.,1.));
#950=DIRECTION('ref_axis',(1.,0.,0.));
#951=CARTESIAN_POINT('',(0.,0.,0.));
#952=CARTESIAN_POINT('Origin',(16.5,-28.5788383248865,27.25));
#953=CARTESIAN_POINT('',(14.9,-28.5788383248865,18.5));
#954=CARTESIAN_POINT('Origin',(16.5,-28.5788383248865,18.5));
#955=CARTESIAN_POINT('',(14.9,-28.5788383248865,36.));
#956=CARTESIAN_POINT('',(14.9,-28.5788383248865,27.25));
#957=CARTESIAN_POINT('Origin',(16.5,-28.5788383248865,36.));
#958=CARTESIAN_POINT('Origin',(-16.5,-28.5788383248865,27.25));
#959=CARTESIAN_POINT('',(-18.1,-28.5788383248865,18.5));
#960=CARTESIAN_POINT('Origin',(-16.5,-28.5788383248865,18.5));
#961=CARTESIAN_POINT('',(-18.1,-28.5788383248865,36.));
#962=CARTESIAN_POINT('',(-18.1,-28.5788383248865,27.25));
#963=CARTESIAN_POINT('Origin',(-16.5,-28.5788383248865,36.));
#964=CARTESIAN_POINT('Origin',(-33.,4.04133443718627E-15,27.25));
#965=CARTESIAN_POINT('',(-34.6,3.84539094932269E-15,18.5));
#966=CARTESIAN_POINT('Origin',(-33.,4.04133443718627E-15,18.5));
#967=CARTESIAN_POINT('',(-34.6,4.23727792504984E-15,36.));
#968=CARTESIAN_POINT('',(-34.6,3.84539094932269E-15,27.25));
#969=CARTESIAN_POINT('Origin',(-33.,4.04133443718627E-15,36.));
#970=CARTESIAN_POINT('Origin',(-16.5,28.5788383248865,27.25));
#971=CARTESIAN_POINT('',(-18.1,28.5788383248865,18.5));
#972=CARTESIAN_POINT('Origin',(-16.5,28.5788383248865,18.5));
#973=CARTESIAN_POINT('',(-18.1,28.5788383248865,36.));
#974=CARTESIAN_POINT('',(-18.1,28.5788383248865,27.25));
#975=CARTESIAN_POINT('Origin',(-16.5,28.5788383248865,36.));
#976=CARTESIAN_POINT('Origin',(16.5,28.5788383248865,27.25));
#977=CARTESIAN_POINT('',(14.9,28.5788383248865,18.5));
#978=CARTESIAN_POINT('Origin',(16.5,28.5788383248865,18.5));
#979=CARTESIAN_POINT('',(14.9,28.5788383248865,36.));
#980=CARTESIAN_POINT('',(14.9,28.5788383248865,27.25));
#981=CARTESIAN_POINT('Origin',(16.5,28.5788383248865,36.));
#982=CARTESIAN_POINT('Origin',(33.,0.,27.25));
#983=CARTESIAN_POINT('',(31.4,-1.95943487863577E-16,18.5));
#984=CARTESIAN_POINT('Origin',(33.,0.,18.5));
#985=CARTESIAN_POINT('',(31.4,1.95943487863577E-16,36.));
#986=CARTESIAN_POINT('',(31.4,-1.95943487863577E-16,27.25));
#987=CARTESIAN_POINT('Origin',(33.,0.,36.));
#988=CARTESIAN_POINT('Origin',(27.4619878512905,-5.4625290164516,21.8));
#989=CARTESIAN_POINT('',(24.4119878512904,-5.4625290164516,18.5));
#990=CARTESIAN_POINT('Origin',(27.4619878512905,-5.4625290164516,18.5));
#991=CARTESIAN_POINT('',(24.4119878512904,-5.4625290164516,25.2));
#992=CARTESIAN_POINT('',(24.4119878512904,-5.4625290164516,21.8));
#993=CARTESIAN_POINT('Origin',(27.4619878512905,-5.4625290164516,25.2));
#994=CARTESIAN_POINT('Origin',(27.4619878512905,-5.4625290164516,25.2));
#995=CARTESIAN_POINT('Origin',(23.2811491444713,-15.5559665245489,21.8));
#996=CARTESIAN_POINT('',(20.2311491444713,-15.5559665245489,18.5));
#997=CARTESIAN_POINT('Origin',(23.2811491444713,-15.5559665245489,18.5));
#998=CARTESIAN_POINT('',(20.2311491444713,-15.5559665245489,25.2));
#999=CARTESIAN_POINT('',(20.2311491444713,-15.5559665245489,21.8));
#1000=CARTESIAN_POINT('Origin',(23.2811491444713,-15.5559665245489,25.2));
#1001=CARTESIAN_POINT('Origin',(23.2811491444713,-15.5559665245489,25.2));
#1002=CARTESIAN_POINT('Origin',(15.5559665245489,-23.2811491444713,21.8));
#1003=CARTESIAN_POINT('',(12.5059665245489,-23.2811491444713,18.5));
#1004=CARTESIAN_POINT('Origin',(15.5559665245489,-23.2811491444713,18.5));
#1005=CARTESIAN_POINT('',(12.5059665245489,-23.2811491444713,25.2));
#1006=CARTESIAN_POINT('',(12.5059665245489,-23.2811491444713,21.8));
#1007=CARTESIAN_POINT('Origin',(15.5559665245489,-23.2811491444713,25.2));
#1008=CARTESIAN_POINT('Origin',(15.5559665245489,-23.2811491444713,25.2));
#1009=CARTESIAN_POINT('Origin',(5.46252901645159,-27.4619878512905,21.8));
#1010=CARTESIAN_POINT('',(2.41252901645159,-27.4619878512905,18.5));
#1011=CARTESIAN_POINT('Origin',(5.46252901645159,-27.4619878512905,18.5));
#1012=CARTESIAN_POINT('',(2.41252901645159,-27.4619878512905,25.2));
#1013=CARTESIAN_POINT('',(2.41252901645159,-27.4619878512905,21.8));
#1014=CARTESIAN_POINT('Origin',(5.46252901645159,-27.4619878512905,25.2));
#1015=CARTESIAN_POINT('Origin',(5.46252901645159,-27.4619878512905,25.2));
#1016=CARTESIAN_POINT('Origin',(-5.4625290164516,-27.4619878512905,21.8));
#1017=CARTESIAN_POINT('',(-8.5125290164516,-27.4619878512905,18.5));
#1018=CARTESIAN_POINT('Origin',(-5.4625290164516,-27.4619878512905,18.5));
#1019=CARTESIAN_POINT('',(-8.5125290164516,-27.4619878512905,25.2));
#1020=CARTESIAN_POINT('',(-8.5125290164516,-27.4619878512905,21.8));
#1021=CARTESIAN_POINT('Origin',(-5.4625290164516,-27.4619878512905,25.2));
#1022=CARTESIAN_POINT('Origin',(-5.4625290164516,-27.4619878512905,25.2));
#1023=CARTESIAN_POINT('Origin',(-15.5559665245489,-23.2811491444713,21.8));
#1024=CARTESIAN_POINT('',(-18.6059665245489,-23.2811491444713,18.5));
#1025=CARTESIAN_POINT('Origin',(-15.5559665245489,-23.2811491444713,18.5));
#1026=CARTESIAN_POINT('',(-18.6059665245489,-23.2811491444713,25.2));
#1027=CARTESIAN_POINT('',(-18.6059665245489,-23.2811491444713,21.8));
#1028=CARTESIAN_POINT('Origin',(-15.5559665245489,-23.2811491444713,25.2));
#1029=CARTESIAN_POINT('Origin',(-15.5559665245489,-23.2811491444713,25.2));
#1030=CARTESIAN_POINT('Origin',(-23.2811491444713,-15.5559665245489,21.8));
#1031=CARTESIAN_POINT('',(-26.3311491444713,-15.5559665245489,18.5));
#1032=CARTESIAN_POINT('Origin',(-23.2811491444713,-15.5559665245489,18.5));
#1033=CARTESIAN_POINT('',(-26.3311491444713,-15.5559665245489,25.2));
#1034=CARTESIAN_POINT('',(-26.3311491444713,-15.5559665245489,21.8));
#1035=CARTESIAN_POINT('Origin',(-23.2811491444713,-15.5559665245489,25.2));
#1036=CARTESIAN_POINT('Origin',(-23.2811491444713,-15.5559665245489,25.2));
#1037=CARTESIAN_POINT('Origin',(-27.4619878512905,-5.46252901645159,21.8));
#1038=CARTESIAN_POINT('',(-30.5119878512905,-5.46252901645159,18.5));
#1039=CARTESIAN_POINT('Origin',(-27.4619878512905,-5.46252901645159,18.5));
#1040=CARTESIAN_POINT('',(-30.5119878512905,-5.46252901645159,25.2));
#1041=CARTESIAN_POINT('',(-30.5119878512905,-5.46252901645159,21.8));
#1042=CARTESIAN_POINT('Origin',(-27.4619878512905,-5.46252901645159,25.2));
#1043=CARTESIAN_POINT('Origin',(-27.4619878512905,-5.46252901645159,25.2));
#1044=CARTESIAN_POINT('Origin',(-27.4619878512905,5.4625290164516,21.8));
#1045=CARTESIAN_POINT('',(-30.5119878512905,5.4625290164516,18.5));
#1046=CARTESIAN_POINT('Origin',(-27.4619878512905,5.4625290164516,18.5));
#1047=CARTESIAN_POINT('',(-30.5119878512905,5.4625290164516,25.2));
#1048=CARTESIAN_POINT('',(-30.5119878512905,5.4625290164516,21.8));
#1049=CARTESIAN_POINT('Origin',(-27.4619878512905,5.4625290164516,25.2));
#1050=CARTESIAN_POINT('Origin',(-27.4619878512905,5.4625290164516,25.2));
#1051=CARTESIAN_POINT('Origin',(-23.2811491444713,15.5559665245489,21.8));
#1052=CARTESIAN_POINT('',(-26.3311491444713,15.5559665245489,18.5));
#1053=CARTESIAN_POINT('Origin',(-23.2811491444713,15.5559665245489,18.5));
#1054=CARTESIAN_POINT('',(-26.3311491444713,15.5559665245489,25.2));
#1055=CARTESIAN_POINT('',(-26.3311491444713,15.5559665245489,21.8));
#1056=CARTESIAN_POINT('Origin',(-23.2811491444713,15.5559665245489,25.2));
#1057=CARTESIAN_POINT('Origin',(-23.2811491444713,15.5559665245489,25.2));
#1058=CARTESIAN_POINT('Origin',(-15.5559665245489,23.2811491444713,21.8));
#1059=CARTESIAN_POINT('',(-18.6059665245489,23.2811491444713,18.5));
#1060=CARTESIAN_POINT('Origin',(-15.5559665245489,23.2811491444713,18.5));
#1061=CARTESIAN_POINT('',(-18.6059665245489,23.2811491444713,25.2));
#1062=CARTESIAN_POINT('',(-18.6059665245489,23.2811491444713,21.8));
#1063=CARTESIAN_POINT('Origin',(-15.5559665245489,23.2811491444713,25.2));
#1064=CARTESIAN_POINT('Origin',(-15.5559665245489,23.2811491444713,25.2));
#1065=CARTESIAN_POINT('Origin',(-5.46252901645159,27.4619878512905,21.8));
#1066=CARTESIAN_POINT('',(-8.51252901645159,27.4619878512905,18.5));
#1067=CARTESIAN_POINT('Origin',(-5.46252901645159,27.4619878512905,18.5));
#1068=CARTESIAN_POINT('',(-8.51252901645159,27.4619878512905,25.2));
#1069=CARTESIAN_POINT('',(-8.51252901645159,27.4619878512905,21.8));
#1070=CARTESIAN_POINT('Origin',(-5.46252901645159,27.4619878512905,25.2));
#1071=CARTESIAN_POINT('Origin',(-5.46252901645159,27.4619878512905,25.2));
#1072=CARTESIAN_POINT('Origin',(5.46252901645159,27.4619878512905,21.8));
#1073=CARTESIAN_POINT('',(2.41252901645159,27.4619878512905,18.5));
#1074=CARTESIAN_POINT('Origin',(5.46252901645159,27.4619878512905,18.5));
#1075=CARTESIAN_POINT('',(2.41252901645159,27.4619878512905,25.2));
#1076=CARTESIAN_POINT('',(2.41252901645159,27.4619878512905,21.8));
#1077=CARTESIAN_POINT('Origin',(5.46252901645159,27.4619878512905,25.2));
#1078=CARTESIAN_POINT('Origin',(5.46252901645159,27.4619878512905,25.2));
#1079=CARTESIAN_POINT('Origin',(15.5559665245489,23.2811491444713,21.8));
#1080=CARTESIAN_POINT('',(12.5059665245489,23.2811491444713,18.5));
#1081=CARTESIAN_POINT('Origin',(15.5559665245489,23.2811491444713,18.5));
#1082=CARTESIAN_POINT('',(12.5059665245489,23.2811491444713,25.2));
#1083=CARTESIAN_POINT('',(12.5059665245489,23.2811491444713,21.8));
#1084=CARTESIAN_POINT('Origin',(15.5559665245489,23.2811491444713,25.2));
#1085=CARTESIAN_POINT('Origin',(15.5559665245489,23.2811491444713,25.2));
#1086=CARTESIAN_POINT('Origin',(23.2811491444713,15.5559665245489,21.8));
#1087=CARTESIAN_POINT('',(20.2311491444713,15.5559665245489,18.5));
#1088=CARTESIAN_POINT('Origin',(23.2811491444713,15.5559665245489,18.5));
#1089=CARTESIAN_POINT('',(20.2311491444713,15.5559665245489,25.2));
#1090=CARTESIAN_POINT('',(20.2311491444713,15.5559665245489,21.8));
#1091=CARTESIAN_POINT('Origin',(23.2811491444713,15.5559665245489,25.2));
#1092=CARTESIAN_POINT('Origin',(23.2811491444713,15.5559665245489,25.2));
#1093=CARTESIAN_POINT('Origin',(27.4619878512905,5.46252901645159,21.8));
#1094=CARTESIAN_POINT('',(24.4119878512904,5.46252901645159,18.5));
#1095=CARTESIAN_POINT('Origin',(27.4619878512905,5.46252901645159,18.5));
#1096=CARTESIAN_POINT('',(24.4119878512904,5.46252901645159,25.2));
#1097=CARTESIAN_POINT('',(24.4119878512904,5.46252901645159,21.8));
#1098=CARTESIAN_POINT('Origin',(27.4619878512905,5.46252901645159,25.2));
#1099=CARTESIAN_POINT('Origin',(27.4619878512905,5.46252901645159,25.2));
#1100=CARTESIAN_POINT('Origin',(0.,0.,34.45));
#1101=CARTESIAN_POINT('',(-12.925,-1.58285598789795E-15,31.9));
#1102=CARTESIAN_POINT('Origin',(0.,0.,31.9));
#1103=CARTESIAN_POINT('',(-12.925,1.58285598789795E-15,36.));
#1104=CARTESIAN_POINT('',(-12.925,-1.58285598789795E-15,34.45));
#1105=CARTESIAN_POINT('Origin',(0.,0.,36.));
#1106=CARTESIAN_POINT('Origin',(0.,0.,24.7));
#1107=CARTESIAN_POINT('',(-24.,-2.93915231795365E-15,18.5));
#1108=CARTESIAN_POINT('Origin',(0.,0.,18.5));
#1109=CARTESIAN_POINT('',(-24.,-2.93915231795365E-15,31.9));
#1110=CARTESIAN_POINT('',(-24.,-2.93915231795365E-15,24.7));
#1111=CARTESIAN_POINT('Origin',(0.,0.,31.9));
#1112=CARTESIAN_POINT('Origin',(0.,0.,31.9));
#1113=CARTESIAN_POINT('Origin',(0.,0.,27.25));
#1114=CARTESIAN_POINT('',(-38.,-4.65365783675994E-15,36.));
#1115=CARTESIAN_POINT('Origin',(0.,0.,36.));
#1116=CARTESIAN_POINT('',(-38.,-4.65365783675994E-15,18.5));
#1117=CARTESIAN_POINT('',(-38.,-4.65365783675994E-15,27.25));
#1118=CARTESIAN_POINT('Origin',(0.,0.,18.5));
#1119=CARTESIAN_POINT('Origin',(0.,0.,18.5));
#1120=CARTESIAN_POINT('Origin',(0.,0.,36.));
#1121=UNCERTAINTY_MEASURE_WITH_UNIT(LENGTH_MEASURE(0.01),#1125,
'DISTANCE_ACCURACY_VALUE',
'Maximum model space distance between geometric entities at asserted c
onnectivities');
#1122=UNCERTAINTY_MEASURE_WITH_UNIT(LENGTH_MEASURE(0.01),#1125,
'DISTANCE_ACCURACY_VALUE',
'Maximum model space distance between geometric entities at asserted c
onnectivities');
#1123=(
GEOMETRIC_REPRESENTATION_CONTEXT(3)
GLOBAL_UNCERTAINTY_ASSIGNED_CONTEXT((#1121))
GLOBAL_UNIT_ASSIGNED_CONTEXT((#1125,#1127,#1128))
REPRESENTATION_CONTEXT('','3D')
);
#1124=(
GEOMETRIC_REPRESENTATION_CONTEXT(3)
GLOBAL_UNCERTAINTY_ASSIGNED_CONTEXT((#1122))
GLOBAL_UNIT_ASSIGNED_CONTEXT((#1125,#1127,#1128))
REPRESENTATION_CONTEXT('','3D')
);
#1125=(
LENGTH_UNIT()
NAMED_UNIT(*)
SI_UNIT(.MILLI.,.METRE.)
);
#1126=(
LENGTH_UNIT()
NAMED_UNIT(*)
SI_UNIT($,.METRE.)
);
#1127=(
NAMED_UNIT(*)
PLANE_ANGLE_UNIT()
SI_UNIT($,.RADIAN.)
);
#1128=(
NAMED_UNIT(*)
SI_UNIT($,.STERADIAN.)
SOLID_ANGLE_UNIT()
);
#1129=SHAPE_DEFINITION_REPRESENTATION(#1130,#1131);
#1130=PRODUCT_DEFINITION_SHAPE('',$,#1133);
#1131=SHAPE_REPRESENTATION('',(#641),#1123);
#1132=PRODUCT_DEFINITION_CONTEXT('part definition',#1137,'design');
#1133=PRODUCT_DEFINITION('rt_cyc15_lid','rt_cyc15_lid',#1134,#1132);
#1134=PRODUCT_DEFINITION_FORMATION('',$,#1139);
#1135=PRODUCT_RELATED_PRODUCT_CATEGORY('rt_cyc15_lid','rt_cyc15_lid',(#1139));
#1136=APPLICATION_PROTOCOL_DEFINITION('international standard',
'automotive_design',2009,#1137);
#1137=APPLICATION_CONTEXT(
'Core Data for Automotive Mechanical Design Process');
#1138=PRODUCT_CONTEXT('part definition',#1137,'mechanical');
#1139=PRODUCT('rt_cyc15_lid','rt_cyc15_lid',$,(#1138));
#1140=PRESENTATION_STYLE_ASSIGNMENT((#1141));
#1141=SURFACE_STYLE_USAGE(.BOTH.,#1142);
#1142=SURFACE_SIDE_STYLE('',(#1143));
#1143=SURFACE_STYLE_FILL_AREA(#1144);
#1144=FILL_AREA_STYLE('Steel - Satin',(#1145));
#1145=FILL_AREA_STYLE_COLOUR('Steel - Satin',#1146);
#1146=COLOUR_RGB('Steel - Satin',0.627450980392157,0.627450980392157,0.627450980392157);
ENDSEC;
END-ISO-10303-21;
