<svg xmlns="http://www.w3.org/2000/svg" width="381" height="381" viewBox="0 0 381 381">
<rect width="100%" height="100%" fill="white"/>
<circle cx="190.5" cy="190.5" r="166.5" fill="none" stroke="#aaa" stroke-dasharray="4 3"/>
<circle cx="358.5" cy="190.5" r="18.0" fill="#888"/><circle cx="345.7" cy="126.2" r="18.0" fill="#888"/><circle cx="309.3" cy="71.7" r="18.0" fill="#888"/><circle cx="254.8" cy="35.3" r="18.0" fill="#888"/><circle cx="190.5" cy="22.5" r="18.0" fill="#888"/><circle cx="126.2" cy="35.3" r="18.0" fill="#888"/><circle cx="71.7" cy="71.7" r="18.0" fill="#888"/><circle cx="35.3" cy="126.2" r="18.0" fill="#888"/><circle cx="22.5" cy="190.5" r="18.0" fill="#888"/><circle cx="35.3" cy="254.8" r="18.0" fill="#888"/><circle cx="71.7" cy="309.3" r="18.0" fill="#888"/><circle cx="126.2" cy="345.7" r="18.0" fill="#888"/><circle cx="190.5" cy="358.5" r="18.0" fill="#888"/><circle cx="254.8" cy="345.7" r="18.0" fill="#888"/><circle cx="309.3" cy="309.3" r="18.0" fill="#888"/><circle cx="345.7" cy="254.8" r="18.0" fill="#888"/>
<path d="M 339.6,190.5 L 339.6,189.2 L 339.8,187.9 L 339.9,186.6 L 340.2,185.4 L 340.4,184.3 L 340.8,183.3 L 341.1,182.3 L 341.4,181.5 L 341.8,180.7 L 342.1,180.0 L 342.4,179.3 L 342.7,178.7 L 343.0,178.2 L 343.3,177.7 L 343.6,177.2 L 343.8,176.8 L 344.1,176.4 L 344.3,176.0 L 344.5,175.7 L 344.7,175.4 L 344.9,175.1 L 345.1,174.7 L 345.3,174.4 L 345.4,174.2 L 345.6,173.9 L 345.7,173.6 L 345.9,173.3 L 346.1,173.0 L 346.2,172.8 L 346.3,172.5 L 346.5,172.2 L 346.6,171.9 L 346.8,171.6 L 346.9,171.3 L 347.0,171.0 L 347.1,170.7 L 347.3,170.4 L 347.4,170.1 L 347.5,169.8 L 347.6,169.5 L 347.7,169.1 L 347.8,168.8 L 347.9,168.5 L 348.0,168.1 L 348.1,167.8 L 348.2,167.4 L 348.3,167.0 L 348.3,166.7 L 348.4,166.3 L 348.5,165.9 L 348.5,165.5 L 348.6,165.1 L 348.6,164.7 L 348.6,164.3 L 348.7,163.9 L 348.7,163.5 L 348.7,163.1 L 348.7,162.6 L 348.7,162.2 L 348.7,161.8 L 348.6,161.4 L 348.6,160.9 L 348.6,160.5 L 348.5,160.1 L 348.5,159.7 L 348.4,159.2 L 348.3,158.8 L 348.2,158.4 L 348.1,157.9 L 348.0,157.5 L 347.9,157.1 L 347.8,156.7 L 347.7,156.3 L 347.6,155.9 L 347.4,155.4 L 347.3,155.0 L 347.1,154.6 L 347.0,154.3 L 346.8,153.9 L 346.6,153.5 L 346.4,153.1 L 346.2,152.7 L 346.1,152.4 L 345.9,152.0 L 345.7,151.7 L 345.4,151.3 L 345.2,151.0 L 345.0,150.7 L 344.8,150.4 L 344.6,150.1 L 344.4,149.8 L 344.1,149.5 L 343.9,149.2 L 343.7,148.9 L 343.5,148.6 L 343.2,148.4 L 343.0,148.1 L 342.8,147.9 L 342.5,147.6 L 342.3,147.4 L 342.0,147.2 L 341.8,147.0 L 341.6,146.7 L 341.3,146.5 L 341.1,146.3 L 340.9,146.1 L 340.6,145.9 L 340.4,145.7 L 340.1,145.5 L 339.9,145.3 L 339.6,145.2 L 339.3,145.0 L 339.1,144.8 L 338.8,144.6 L 338.5,144.4 L 338.2,144.2 L 337.9,143.9 L 337.6,143.7 L 337.2,143.5 L 336.9,143.2 L 336.5,143.0 L 336.1,142.7 L 335.6,142.3 L 335.1,142.0 L 334.6,141.6 L 334.1,141.1 L 333.5,140.7 L 332.9,140.1 L 332.3,139.5 L 331.6,138.8 L 330.9,138.0 L 330.2,137.2 L 329.5,136.2 L 328.8,135.2 L 328.1,134.1 L 327.5,132.9 L 327.0,131.7 L 326.5,130.5 L 326.1,129.3 L 325.8,128.1 L 325.6,126.9 L 325.4,125.8 L 325.3,124.8 L 325.2,123.8 L 325.2,122.9 L 325.2,122.1 L 325.2,121.3 L 325.3,120.6 L 325.3,120.0 L 325.4,119.4 L 325.4,118.8 L 325.5,118.3 L 325.5,117.9 L 325.6,117.4 L 325.7,117.0 L 325.7,116.6 L 325.8,116.2 L 325.8,115.9 L 325.8,115.5 L 325.9,115.2 L 325.9,114.8 L 326.0,114.5 L 326.0,114.2 L 326.0,113.9 L 326.0,113.6 L 326.1,113.3 L 326.1,112.9 L 326.1,112.6 L 326.1,112.3 L 326.1,112.0 L 326.1,111.7 L 326.1,111.3 L 326.1,111.0 L 326.1,110.7 L 326.0,110.4 L 326.0,110.0 L 326.0,109.7 L 325.9,109.3 L 325.9,109.0 L 325.8,108.6 L 325.8,108.3 L 325.7,107.9 L 325.6,107.5 L 325.6,107.2 L 325.5,106.8 L 325.4,106.4 L 325.3,106.0 L 325.2,105.7 L 325.0,105.3 L 324.9,104.9 L 324.8,104.5 L 324.6,104.1 L 324.5,103.7 L 324.3,103.4 L 324.1,103.0 L 323.9,102.6 L 323.7,102.2 L 323.5,101.8 L 323.3,101.5 L 323.1,101.1 L 322.9,100.7 L 322.7,100.3 L 322.4,100.0 L 322.2,99.6 L 321.9,99.3 L 321.7,98.9 L 321.4,98.6 L 321.1,98.2 L 320.8,97.9 L 320.6,97.6 L 320.3,97.3 L 320.0,96.9 L 319.7,96.6 L 319.4,96.3 L 319.1,96.1 L 318.7,95.8 L 318.4,95.5 L 318.1,95.2 L 317.8,95.0 L 317.5,94.7 L 317.1,94.5 L 316.8,94.3 L 316.5,94.0 L 316.2,93.8 L 315.8,93.6 L 315.5,93.4 L 315.2,93.2 L 314.9,93.1 L 314.5,92.9 L 314.2,92.7 L 313.9,92.6 L 313.6,92.4 L 313.3,92.3 L 312.9,92.1 L 312.6,92.0 L 312.3,91.9 L 312.0,91.8 L 311.7,91.7 L 311.4,91.6 L 311.1,91.5 L 310.8,91.4 L 310.5,91.3 L 310.2,91.2 L 309.9,91.1 L 309.6,91.0 L 309.3,91.0 L 309.0,90.9 L 308.6,90.8 L 308.3,90.8 L 308.0,90.7 L 307.6,90.6 L 307.3,90.6 L 306.9,90.5 L 306.6,90.4 L 306.2,90.3 L 305.7,90.3 L 305.3,90.2 L 304.8,90.1 L 304.3,90.0 L 303.7,89.9 L 303.1,89.7 L 302.5,89.5 L 301.8,89.4 L 301.0,89.1 L 300.2,88.9 L 299.4,88.5 L 298.4,88.1 L 297.5,87.7 L 296.5,87.2 L 295.4,86.5 L 294.4,85.8 L 293.3,85.1 L 292.3,84.2 L 291.4,83.3 L 290.5,82.4 L 289.7,81.4 L 288.9,80.4 L 288.3,79.5 L 287.7,78.5 L 287.2,77.7 L 286.8,76.8 L 286.4,76.0 L 286.1,75.3 L 285.9,74.6 L 285.6,74.0 L 285.4,73.4 L 285.2,72.9 L 285.1,72.4 L 284.9,71.9 L 284.8,71.4 L 284.7,71.0 L 284.5,70.6 L 284.4,70.3 L 284.3,69.9 L 284.2,69.6 L 284.1,69.2 L 284.0,68.9 L 283.9,68.6 L 283.8,68.3 L 283.7,68.0 L 283.6,67.7 L 283.5,67.4 L 283.4,67.1 L 283.3,66.8 L 283.1,66.5 L 283.0,66.2 L 282.9,65.9 L 282.8,65.6 L 282.6,65.3 L 282.5,65.1 L 282.3,64.8 L 282.2,64.5 L 282.0,64.2 L 281.8,63.9 L 281.6,63.6 L 281.5,63.3 L 281.3,62.9 L 281.1,62.6 L 280.8,62.3 L 280.6,62.0 L 280.4,61.7 L 280.2,61.4 L 279.9,61.1 L 279.7,60.8 L 279.4,60.5 L 279.1,60.2 L 278.8,59.9 L 278.6,59.6 L 278.3,59.3 L 278.0,59.1 L 277.7,58.8 L 277.3,58.5 L 277.0,58.2 L 276.7,58.0 L 276.3,57.7 L 276.0,57.4 L 275.6,57.2 L 275.3,56.9 L 274.9,56.7 L 274.5,56.5 L 274.2,56.3 L 273.8,56.0 L 273.4,55.8 L 273.0,55.6 L 272.6,55.4 L 272.2,55.2 L 271.9,55.1 L 271.5,54.9 L 271.1,54.7 L 270.7,54.6 L 270.3,54.4 L 269.9,54.3 L 269.5,54.2 L 269.1,54.1 L 268.7,54.0 L 268.3,53.9 L 267.9,53.8 L 267.5,53.7 L 267.1,53.6 L 266.7,53.6 L 266.3,53.5 L 265.9,53.4 L 265.6,53.4 L 265.2,53.4 L 264.8,53.3 L 264.5,53.3 L 264.1,53.3 L 263.7,53.3 L 263.4,53.3 L 263.1,53.3 L 262.7,53.3 L 262.4,53.3 L 262.0,53.3 L 261.7,53.3 L 261.4,53.4 L 261.1,53.4 L 260.8,53.4 L 260.4,53.5 L 260.1,53.5 L 259.8,53.6 L 259.5,53.6 L 259.2,53.7 L 258.9,53.7 L 258.6,53.8 L 258.3,53.9 L 257.9,53.9 L 257.6,54.0 L 257.3,54.1 L 256.9,54.2 L 256.5,54.3 L 256.2,54.4 L 255.7,54.5 L 255.3,54.6 L 254.9,54.7 L 254.4,54.8 L 253.8,54.9 L 253.3,55.0 L 252.6,55.1 L 251.9,55.2 L 251.2,55.3 L 250.4,55.4 L 249.5,55.5 L 248.5,55.5 L 247.5,55.5 L 246.4,55.5 L 245.2,55.4 L 244.0,55.2 L 242.7,55.0 L 241.5,54.6 L 240.2,54.2 L 239.0,53.8 L 237.8,53.2 L 236.7,52.7 L 235.7,52.1 L 234.8,51.4 L 233.9,50.8 L 233.1,50.2 L 232.4,49.6 L 231.8,49.1 L 231.3,48.6 L 230.8,48.1 L 230.3,47.6 L 229.9,47.2 L 229.5,46.8 L 229.2,46.4 L 228.9,46.0 L 228.6,45.7 L 228.3,45.4 L 228.1,45.1 L 227.8,44.8 L 227.6,44.5 L 227.3,44.2 L 227.1,44.0 L 226.9,43.7 L 226.7,43.5 L 226.5,43.2 L 226.2,43.0 L 226.0,42.8 L 225.8,42.6 L 225.6,42.3 L 225.4,42.1 L 225.1,41.9 L 224.9,41.7 L 224.6,41.5 L 224.4,41.3 L 224.2,41.0 L 223.9,40.8 L 223.6,40.6 L 223.4,40.4 L 223.1,40.2 L 222.8,40.0 L 222.5,39.8 L 222.2,39.6 L 221.9,39.4 L 221.6,39.2 L 221.3,39.0 L 220.9,38.8 L 220.6,38.7 L 220.3,38.5 L 219.9,38.3 L 219.6,38.1 L 219.2,38.0 L 218.8,37.8 L 218.4,37.7 L 218.1,37.5 L 217.7,37.4 L 217.3,37.2 L 216.9,37.1 L 216.5,37.0 L 216.1,36.9 L 215.6,36.8 L 215.2,36.7 L 214.8,36.6 L 214.4,36.5 L 213.9,36.4 L 213.5,36.3 L 213.1,36.3 L 212.7,36.2 L 212.2,36.2 L 211.8,36.2 L 211.4,36.1 L 210.9,36.1 L 210.5,36.1 L 210.1,36.1 L 209.6,36.1 L 209.2,36.2 L 208.8,36.2 L 208.4,36.2 L 207.9,36.3 L 207.5,36.3 L 207.1,36.4 L 206.7,36.4 L 206.3,36.5 L 205.9,36.6 L 205.5,36.7 L 205.1,36.8 L 204.8,36.9 L 204.4,37.0 L 204.0,37.1 L 203.7,37.2 L 203.3,37.3 L 203.0,37.5 L 202.6,37.6 L 202.3,37.7 L 202.0,37.9 L 201.7,38.0 L 201.3,38.1 L 201.0,38.3 L 200.7,38.4 L 200.4,38.6 L 200.2,38.8 L 199.9,38.9 L 199.6,39.1 L 199.3,39.2 L 199.1,39.4 L 198.8,39.6 L 198.5,39.7 L 198.3,39.9 L 198.0,40.1 L 197.7,40.3 L 197.5,40.5 L 197.2,40.7 L 197.0,40.9 L 196.7,41.1 L 196.4,41.3 L 196.1,41.5 L 195.8,41.7 L 195.5,42.0 L 195.1,42.2 L 194.8,42.5 L 194.4,42.8 L 194.0,43.1 L 193.5,43.4 L 193.0,43.8 L 192.4,44.2 L 191.8,44.5 L 191.2,44.9 L 190.4,45.4 L 189.6,45.8 L 188.7,46.2 L 187.7,46.6 L 186.7,47.0 L 185.5,47.4 L 184.3,47.7 L 183.0,48.0 L 181.7,48.2 L 180.4,48.3 L 179.1,48.3 L 177.8,48.3 L 176.6,48.2 L 175.5,48.0 L 174.4,47.8 L 173.4,47.6 L 172.5,47.3 L 171.7,47.1 L 170.9,46.8 L 170.2,46.6 L 169.6,46.3 L 169.0,46.1 L 168.5,45.9 L 168.0,45.6 L 167.5,45.4 L 167.1,45.2 L 166.7,45.1 L 166.4,44.9 L 166.0,44.7 L 165.7,44.6 L 165.3,44.4 L 165.0,44.3 L 164.7,44.1 L 164.4,44.0 L 164.1,43.9 L 163.8,43.7 L 163.5,43.6 L 163.2,43.5 L 163.0,43.4 L 162.7,43.3 L 162.4,43.2 L 162.1,43.1 L 161.8,43.0 L 161.5,42.9 L 161.1,42.8 L 160.8,42.7 L 160.5,42.6 L 160.2,42.5 L 159.8,42.4 L 159.5,42.4 L 159.2,42.3 L 158.8,42.2 L 158.5,42.2 L 158.1,42.1 L 157.7,42.1 L 157.3,42.0 L 157.0,42.0 L 156.6,42.0 L 156.2,41.9 L 155.8,41.9 L 155.4,41.9 L 155.0,41.9 L 154.6,41.9 L 154.2,41.9 L 153.8,42.0 L 153.4,42.0 L 152.9,42.0 L 152.5,42.1 L 152.1,42.2 L 151.7,42.2 L 151.3,42.3 L 150.8,42.4 L 150.4,42.5 L 150.0,42.6 L 149.6,42.7 L 149.2,42.8 L 148.7,42.9 L 148.3,43.1 L 147.9,43.2 L 147.5,43.4 L 147.1,43.5 L 146.7,43.7 L 146.3,43.9 L 145.9,44.1 L 145.5,44.2 L 145.1,44.4 L 144.8,44.6 L 144.4,44.8 L 144.0,45.1 L 143.7,45.3 L 143.3,45.5 L 143.0,45.7 L 142.7,46.0 L 142.4,46.2 L 142.0,46.4 L 141.7,46.7 L 141.4,46.9 L 141.1,47.2 L 140.8,47.4 L 140.6,47.7 L 140.3,47.9 L 140.0,48.2 L 139.8,48.4 L 139.5,48.7 L 139.3,49.0 L 139.1,49.2 L 138.9,49.5 L 138.6,49.7 L 138.4,50.0 L 138.2,50.2 L 138.0,50.5 L 137.8,50.8 L 137.7,51.0 L 137.5,51.3 L 137.3,51.5 L 137.1,51.8 L 137.0,52.1 L 136.8,52.3 L 136.6,52.6 L 136.5,52.9 L 136.3,53.2 L 136.1,53.5 L 136.0,53.7 L 135.8,54.1 L 135.6,54.4 L 135.4,54.7 L 135.3,55.0 L 135.1,55.4 L 134.8,55.8 L 134.6,56.2 L 134.4,56.6 L 134.1,57.1 L 133.8,57.6 L 133.5,58.2 L 133.1,58.7 L 132.7,59.4 L 132.2,60.0 L 131.7,60.7 L 131.1,61.5 L 130.4,62.2 L 129.6,63.0 L 128.7,63.8 L 127.8,64.6 L 126.8,65.4 L 125.7,66.1 L 124.6,66.8 L 123.4,67.4 L 122.2,67.9 L 121.1,68.4 L 119.9,68.7 L 118.8,69.0 L 117.8,69.2 L 116.8,69.4 L 115.9,69.5 L 115.1,69.6 L 114.3,69.7 L 113.6,69.7 L 113.0,69.7 L 112.4,69.8 L 111.8,69.8 L 111.3,69.8 L 110.8,69.8 L 110.4,69.7 L 110.0,69.7 L 109.6,69.7 L 109.2,69.7 L 108.8,69.7 L 108.5,69.7 L 108.1,69.7 L 107.8,69.7 L 107.4,69.7 L 107.1,69.7 L 106.8,69.7 L 106.5,69.7 L 106.2,69.7 L 105.9,69.7 L 105.6,69.8 L 105.2,69.8 L 104.9,69.8 L 104.6,69.9 L 104.3,69.9 L 104.0,69.9 L 103.6,70.0 L 103.3,70.0 L 103.0,70.1 L 102.6,70.2 L 102.3,70.2 L 101.9,70.3 L 101.6,70.4 L 101.2,70.5 L 100.9,70.6 L 100.5,70.7 L 100.2,70.8 L 99.8,71.0 L 99.5,71.1 L 99.1,71.2 L 98.7,71.4 L 98.4,71.6 L 98.0,71.7 L 97.6,71.9 L 97.3,72.1 L 96.9,72.3 L 96.5,72.5 L 96.2,72.7 L 95.8,72.9 L 95.4,73.1 L 95.1,73.4 L 94.7,73.6 L 94.4,73.9 L 94.0,74.1 L 93.7,74.4 L 93.4,74.7 L 93.0,75.0 L 92.7,75.3 L 92.4,75.6 L 92.1,75.9 L 91.8,76.2 L 91.5,76.5 L 91.2,76.8 L 90.9,77.1 L 90.6,77.4 L 90.3,77.8 L 90.1,78.1 L 89.8,78.4 L 89.6,78.8 L 89.3,79.1 L 89.1,79.5 L 88.9,79.8 L 88.6,80.2 L 88.4,80.5 L 88.2,80.9 L 88.1,81.2 L 87.9,81.5 L 87.7,81.9 L 87.5,82.2 L 87.4,82.6 L 87.2,82.9 L 87.1,83.3 L 87.0,83.6 L 86.9,83.9 L 86.7,84.3 L 86.6,84.6 L 86.5,84.9 L 86.4,85.3 L 86.3,85.6 L 86.3,85.9 L 86.2,86.2 L 86.1,86.5 L 86.0,86.8 L 86.0,87.2 L 85.9,87.5 L 85.9,87.8 L 85.8,88.1 L 85.8,88.4 L 85.7,88.7 L 85.7,89.0 L 85.7,89.4 L 85.6,89.7 L 85.6,90.0 L 85.6,90.4 L 85.5,90.7 L 85.5,91.1 L 85.5,91.5 L 85.4,91.9 L 85.4,92.3 L 85.4,92.7 L 85.3,93.2 L 85.3,93.7 L 85.2,94.3 L 85.1,94.9 L 85.0,95.5 L 84.9,96.3 L 84.8,97.0 L 84.6,97.8 L 84.4,98.7 L 84.1,99.7 L 83.7,100.7 L 83.3,101.8 L 82.8,102.8 L 82.3,104.0 L 81.6,105.1 L 80.9,106.2 L 80.1,107.2 L 79.2,108.2 L 78.4,109.1 L 77.5,110.0 L 76.6,110.7 L 75.7,111.4 L 74.9,112.0 L 74.1,112.5 L 73.4,113.0 L 72.7,113.4 L 72.0,113.7 L 71.4,114.0 L 70.8,114.3 L 70.3,114.5 L 69.8,114.7 L 69.4,114.9 L 68.9,115.1 L 68.5,115.3 L 68.1,115.5 L 67.8,115.6 L 67.4,115.7 L 67.1,115.9 L 66.8,116.0 L 66.5,116.2 L 66.2,116.3 L 65.9,116.4 L 65.6,116.6 L 65.3,116.7 L 65.0,116.8 L 64.7,117.0 L 64.5,117.1 L 64.2,117.3 L 63.9,117.4 L 63.6,117.6 L 63.3,117.7 L 63.1,117.9 L 62.8,118.1 L 62.5,118.3 L 62.2,118.5 L 61.9,118.6 L 61.7,118.8 L 61.4,119.1 L 61.1,119.3 L 60.8,119.5 L 60.5,119.7 L 60.3,120.0 L 60.0,120.2 L 59.7,120.5 L 59.4,120.8 L 59.1,121.0 L 58.9,121.3 L 58.6,121.6 L 58.3,121.9 L 58.1,122.2 L 57.8,122.5 L 57.6,122.8 L 57.3,123.2 L 57.1,123.5 L 56.8,123.9 L 56.6,124.2 L 56.3,124.6 L 56.1,124.9 L 55.9,125.3 L 55.7,125.7 L 55.5,126.1 L 55.3,126.4 L 55.1,126.8 L 54.9,127.2 L 54.7,127.6 L 54.5,128.0 L 54.4,128.4 L 54.2,128.8 L 54.1,129.2 L 54.0,129.7 L 53.8,130.1 L 53.7,130.5 L 53.6,130.9 L 53.5,131.3 L 53.4,131.7 L 53.3,132.1 L 53.2,132.5 L 53.2,132.9 L 53.1,133.4 L 53.1,133.8 L 53.0,134.2 L 53.0,134.5 L 53.0,134.9 L 52.9,135.3 L 52.9,135.7 L 52.9,136.1 L 52.9,136.5 L 52.9,136.8 L 53.0,137.2 L 53.0,137.6 L 53.0,137.9 L 53.0,138.3 L 53.1,138.6 L 53.1,138.9 L 53.2,139.3 L 53.2,139.6 L 53.3,139.9 L 53.3,140.3 L 53.4,140.6 L 53.5,140.9 L 53.5,141.2 L 53.6,141.5 L 53.7,141.8 L 53.8,142.1 L 53.9,142.4 L 54.0,142.7 L 54.1,143.0 L 54.2,143.3 L 54.3,143.6 L 54.4,144.0 L 54.5,144.3 L 54.6,144.6 L 54.7,145.0 L 54.8,145.4 L 55.0,145.7 L 55.1,146.2 L 55.3,146.6 L 55.4,147.1 L 55.6,147.6 L 55.8,148.1 L 56.0,148.7 L 56.1,149.4 L 56.3,150.1 L 56.5,150.9 L 56.7,151.8 L 56.8,152.7 L 56.9,153.7 L 57.0,154.8 L 57.0,156.0 L 57.0,157.2 L 56.9,158.5 L 56.7,159.8 L 56.5,161.1 L 56.1,162.4 L 55.7,163.6 L 55.3,164.8 L 54.8,165.9 L 54.3,166.9 L 53.8,167.8 L 53.2,168.6 L 52.7,169.4 L 52.2,170.1 L 51.8,170.7 L 51.3,171.2 L 50.9,171.7 L 50.5,172.2 L 50.1,172.6 L 49.8,173.0 L 49.5,173.3 L 49.2,173.7 L 48.9,174.0 L 48.6,174.3 L 48.3,174.6 L 48.1,174.8 L 47.8,175.1 L 47.6,175.3 L 47.4,175.6 L 47.2,175.8 L 46.9,176.1 L 46.7,176.3 L 46.5,176.6 L 46.3,176.8 L 46.1,177.0 L 45.9,177.3 L 45.7,177.5 L 45.6,177.8 L 45.4,178.0 L 45.2,178.3 L 45.0,178.6 L 44.8,178.9 L 44.6,179.1 L 44.4,179.4 L 44.3,179.7 L 44.1,180.0 L 43.9,180.3 L 43.8,180.7 L 43.6,181.0 L 43.4,181.3 L 43.3,181.6 L 43.1,182.0 L 43.0,182.3 L 42.8,182.7 L 42.7,183.1 L 42.6,183.4 L 42.4,183.8 L 42.3,184.2 L 42.2,184.6 L 42.1,185.0 L 42.0,185.4 L 41.9,185.8 L 41.8,186.2 L 41.7,186.6 L 41.7,187.1 L 41.6,187.5 L 41.6,187.9 L 41.5,188.3 L 41.5,188.8 L 41.4,189.2 L 41.4,189.6 L 41.4,190.1 L 41.4,190.5 L 41.4,190.9 L 41.4,191.4 L 41.4,191.8 L 41.5,192.2 L 41.5,192.7 L 41.6,193.1 L 41.6,193.5 L 41.7,193.9 L 41.7,194.4 L 41.8,194.8 L 41.9,195.2 L 42.0,195.6 L 42.1,196.0 L 42.2,196.4 L 42.3,196.8 L 42.4,197.2 L 42.6,197.6 L 42.7,197.9 L 42.8,198.3 L 43.0,198.7 L 43.1,199.0 L 43.3,199.4 L 43.4,199.7 L 43.6,200.0 L 43.8,200.3 L 43.9,200.7 L 44.1,201.0 L 44.3,201.3 L 44.4,201.6 L 44.6,201.9 L 44.8,202.1 L 45.0,202.4 L 45.2,202.7 L 45.4,203.0 L 45.6,203.2 L 45.7,203.5 L 45.9,203.7 L 46.1,204.0 L 46.3,204.2 L 46.5,204.4 L 46.7,204.7 L 46.9,204.9 L 47.2,205.2 L 47.4,205.4 L 47.6,205.7 L 47.8,205.9 L 48.1,206.2 L 48.3,206.4 L 48.6,206.7 L 48.9,207.0 L 49.2,207.3 L 49.5,207.7 L 49.8,208.0 L 50.1,208.4 L 50.5,208.8 L 50.9,209.3 L 51.3,209.8 L 51.8,210.3 L 52.2,210.9 L 52.7,211.6 L 53.2,212.4 L 53.8,213.2 L 54.3,214.1 L 54.8,215.1 L 55.3,216.2 L 55.7,217.4 L 56.1,218.6 L 56.5,219.9 L 56.7,221.2 L 56.9,222.5 L 57.0,223.8 L 57.0,225.0 L 57.0,226.2 L 56.9,227.3 L 56.8,228.3 L 56.7,229.2 L 56.5,230.1 L 56.3,230.9 L 56.1,231.6 L 56.0,232.3 L 55.8,232.9 L 55.6,233.4 L 55.4,233.9 L 55.3,234.4 L 55.1,234.8 L 55.0,235.3 L 54.8,235.6 L 54.7,236.0 L 54.6,236.4 L 54.5,236.7 L 54.4,237.0 L 54.3,237.4 L 54.2,237.7 L 54.1,238.0 L 54.0,238.3 L 53.9,238.6 L 53.8,238.9 L 53.7,239.2 L 53.6,239.5 L 53.5,239.8 L 53.5,240.1 L 53.4,240.4 L 53.3,240.7 L 53.3,241.1 L 53.2,241.4 L 53.2,241.7 L 53.1,242.1 L 53.1,242.4 L 53.0,242.7 L 53.0,243.1 L 53.0,243.4 L 53.0,243.8 L 52.9,244.2 L 52.9,244.5 L 52.9,244.9 L 52.9,245.3 L 52.9,245.7 L 53.0,246.1 L 53.0,246.5 L 53.0,246.8 L 53.1,247.2 L 53.1,247.6 L 53.2,248.1 L 53.2,248.5 L 53.3,248.9 L 53.4,249.3 L 53.5,249.7 L 53.6,250.1 L 53.7,250.5 L 53.8,250.9 L 54.0,251.3 L 54.1,251.8 L 54.2,252.2 L 54.4,252.6 L 54.5,253.0 L 54.7,253.4 L 54.9,253.8 L 55.1,254.2 L 55.3,254.6 L 55.5,254.9 L 55.7,255.3 L 55.9,255.7 L 56.1,256.1 L 56.3,256.4 L 56.6,256.8 L 56.8,257.1 L 57.1,257.5 L 57.3,257.8 L 57.6,258.2 L 57.8,258.5 L 58.1,258.8 L 58.3,259.1 L 58.6,259.4 L 58.9,259.7 L 59.1,260.0 L 59.4,260.2 L 59.7,260.5 L 60.0,260.8 L 60.3,261.0 L 60.5,261.3 L 60.8,261.5 L 61.1,261.7 L 61.4,261.9 L 61.7,262.2 L 61.9,262.4 L 62.2,262.5 L 62.5,262.7 L 62.8,262.9 L 63.1,263.1 L 63.3,263.3 L 63.6,263.4 L 63.9,263.6 L 64.2,263.7 L 64.5,263.9 L 64.7,264.0 L 65.0,264.2 L 65.3,264.3 L 65.6,264.4 L 65.9,264.6 L 66.2,264.7 L 66.5,264.8 L 66.8,265.0 L 67.1,265.1 L 67.4,265.3 L 67.8,265.4 L 68.1,265.5 L 68.5,265.7 L 68.9,265.9 L 69.4,266.1 L 69.8,266.3 L 70.3,266.5 L 70.8,266.7 L 71.4,267.0 L 72.0,267.3 L 72.7,267.6 L 73.4,268.0 L 74.1,268.5 L 74.9,269.0 L 75.7,269.6 L 76.6,270.3 L 77.5,271.0 L 78.4,271.9 L 79.2,272.8 L 80.1,273.8 L 80.9,274.8 L 81.6,275.9 L 82.3,277.0 L 82.8,278.2 L 83.3,279.2 L 83.7,280.3 L 84.1,281.3 L 84.4,282.3 L 84.6,283.2 L 84.8,284.0 L 84.9,284.7 L 85.0,285.5 L 85.1,286.1 L 85.2,286.7 L 85.3,287.3 L 85.3,287.8 L 85.4,288.3 L 85.4,288.7 L 85.4,289.1 L 85.5,289.5 L 85.5,289.9 L 85.5,290.3 L 85.6,290.6 L 85.6,291.0 L 85.6,291.3 L 85.7,291.6 L 85.7,292.0 L 85.7,292.3 L 85.8,292.6 L 85.8,292.9 L 85.9,293.2 L 85.9,293.5 L 86.0,293.8 L 86.0,294.2 L 86.1,294.5 L 86.2,294.8 L 86.3,295.1 L 86.3,295.4 L 86.4,295.7 L 86.5,296.1 L 86.6,296.4 L 86.7,296.7 L 86.9,297.1 L 87.0,297.4 L 87.1,297.7 L 87.2,298.1 L 87.4,298.4 L 87.5,298.8 L 87.7,299.1 L 87.9,299.5 L 88.1,299.8 L 88.2,300.1 L 88.4,300.5 L 88.6,300.8 L 88.9,301.2 L 89.1,301.5 L 89.3,301.9 L 89.6,302.2 L 89.8,302.6 L 90.1,302.9 L 90.3,303.2 L 90.6,303.6 L 90.9,303.9 L 91.2,304.2 L 91.5,304.5 L 91.8,304.8 L 92.1,305.1 L 92.4,305.4 L 92.7,305.7 L 93.0,306.0 L 93.4,306.3 L 93.7,306.6 L 94.0,306.9 L 94.4,307.1 L 94.7,307.4 L 95.1,307.6 L 95.4,307.9 L 95.8,308.1 L 96.2,308.3 L 96.5,308.5 L 96.9,308.7 L 97.3,308.9 L 97.6,309.1 L 98.0,309.3 L 98.4,309.4 L 98.7,309.6 L 99.1,309.8 L 99.5,309.9 L 99.8,310.0 L 100.2,310.2 L 100.5,310.3 L 100.9,310.4 L 101.2,310.5 L 101.6,310.6 L 101.9,310.7 L 102.3,310.8 L 102.6,310.8 L 103.0,310.9 L 103.3,311.0 L 103.6,311.0 L 104.0,311.1 L 104.3,311.1 L 104.6,311.1 L 104.9,311.2 L 105.2,311.2 L 105.6,311.2 L 105.9,311.3 L 106.2,311.3 L 106.5,311.3 L 106.8,311.3 L 107.1,311.3 L 107.4,311.3 L 107.8,311.3 L 108.1,311.3 L 108.5,311.3 L 108.8,311.3 L 109.2,311.3 L 109.6,311.3 L 110.0,311.3 L 110.4,311.3 L 110.8,311.2 L 111.3,311.2 L 111.8,311.2 L 112.4,311.2 L 113.0,311.3 L 113.6,311.3 L 114.3,311.3 L 115.1,311.4 L 115.9,311.5 L 116.8,311.6 L 117.8,311.8 L 118.8,312.0 L 119.9,312.3 L 121.1,312.6 L 122.2,313.1 L 123.4,313.6 L 124.6,314.2 L 125.7,314.9 L 126.8,315.6 L 127.8,316.4 L 128.7,317.2 L 129.6,318.0 L 130.4,318.8 L 131.1,319.5 L 131.7,320.3 L 132.2,321.0 L 132.7,321.6 L 133.1,322.3 L 133.5,322.8 L 133.8,323.4 L 134.1,323.9 L 134.4,324.4 L 134.6,324.8 L 134.8,325.2 L 135.1,325.6 L 135.3,326.0 L 135.4,326.3 L 135.6,326.6 L 135.8,326.9 L 136.0,327.3 L 136.1,327.5 L 136.3,327.8 L 136.5,328.1 L 136.6,328.4 L 136.8,328.7 L 137.0,328.9 L 137.1,329.2 L 137.3,329.5 L 137.5,329.7 L 137.7,330.0 L 137.8,330.2 L 138.0,330.5 L 138.2,330.8 L 138.4,331.0 L 138.6,331.3 L 138.9,331.5 L 139.1,331.8 L 139.3,332.0 L 139.5,332.3 L 139.8,332.6 L 140.0,332.8 L 140.3,333.1 L 140.6,333.3 L 140.8,333.6 L 141.1,333.8 L 141.4,334.1 L 141.7,334.3 L 142.0,334.6 L 142.4,334.8 L 142.7,335.0 L 143.0,335.3 L 143.3,335.5 L 143.7,335.7 L 144.0,335.9 L 144.4,336.2 L 144.8,336.4 L 145.1,336.6 L 145.5,336.8 L 145.9,336.9 L 146.3,337.1 L 146.7,337.3 L 147.1,337.5 L 147.5,337.6 L 147.9,337.8 L 148.3,337.9 L 148.7,338.1 L 149.2,338.2 L 149.6,338.3 L 150.0,338.4 L 150.4,338.5 L 150.8,338.6 L 151.3,338.7 L 151.7,338.8 L 152.1,338.8 L 152.5,338.9 L 152.9,339.0 L 153.4,339.0 L 153.8,339.0 L 154.2,339.1 L 154.6,339.1 L 155.0,339.1 L 155.4,339.1 L 155.8,339.1 L 156.2,339.1 L 156.6,339.0 L 157.0,339.0 L 157.3,339.0 L 157.7,338.9 L 158.1,338.9 L 158.5,338.8 L 158.8,338.8 L 159.2,338.7 L 159.5,338.6 L 159.8,338.6 L 160.2,338.5 L 160.5,338.4 L 160.8,338.3 L 161.1,338.2 L 161.5,338.1 L 161.8,338.0 L 162.1,337.9 L 162.4,337.8 L 162.7,337.7 L 163.0,337.6 L 163.2,337.5 L 163.5,337.4 L 163.8,337.3 L 164.1,337.1 L 164.4,337.0 L 164.7,336.9 L 165.0,336.7 L 165.3,336.6 L 165.7,336.4 L 166.0,336.3 L 166.4,336.1 L 166.7,335.9 L 167.1,335.8 L 167.5,335.6 L 168.0,335.4 L 168.5,335.1 L 169.0,334.9 L 169.6,334.7 L 170.2,334.4 L 170.9,334.2 L 171.7,333.9 L 172.5,333.7 L 173.4,333.4 L 174.4,333.2 L 175.5,333.0 L 176.6,332.8 L 177.8,332.7 L 179.1,332.7 L 180.4,332.7 L 181.7,332.8 L 183.0,333.0 L 184.3,333.3 L 185.5,333.6 L 186.7,334.0 L 187.7,334.4 L 188.7,334.8 L 189.6,335.2 L 190.4,335.6 L 191.2,336.1 L 191.8,336.5 L 192.4,336.8 L 193.0,337.2 L 193.5,337.6 L 194.0,337.9 L 194.4,338.2 L 194.8,338.5 L 195.1,338.8 L 195.5,339.0 L 195.8,339.3 L 196.1,339.5 L 196.4,339.7 L 196.7,339.9 L 197.0,340.1 L 197.2,340.3 L 197.5,340.5 L 197.7,340.7 L 198.0,340.9 L 198.3,341.1 L 198.5,341.3 L 198.8,341.4 L 199.1,341.6 L 199.3,341.8 L 199.6,341.9 L 199.9,342.1 L 200.2,342.2 L 200.4,342.4 L 200.7,342.6 L 201.0,342.7 L 201.3,342.9 L 201.7,343.0 L 202.0,343.1 L 202.3,343.3 L 202.6,343.4 L 203.0,343.5 L 203.3,343.7 L 203.7,343.8 L 204.0,343.9 L 204.4,344.0 L 204.8,344.1 L 205.1,344.2 L 205.5,344.3 L 205.9,344.4 L 206.3,344.5 L 206.7,344.6 L 207.1,344.6 L 207.5,344.7 L 207.9,344.7 L 208.4,344.8 L 208.8,344.8 L 209.2,344.8 L 209.6,344.9 L 210.1,344.9 L 210.5,344.9 L 210.9,344.9 L 211.4,344.9 L 211.8,344.8 L 212.2,344.8 L 212.7,344.8 L 213.1,344.7 L 213.5,344.7 L 213.9,344.6 L 214.4,344.5 L 214.8,344.4 L 215.2,344.3 L 215.6,344.2 L 216.1,344.1 L 216.5,344.0 L 216.9,343.9 L 217.3,343.8 L 217.7,343.6 L 218.1,343.5 L 218.4,343.3 L 218.8,343.2 L 219.2,343.0 L 219.6,342.9 L 219.9,342.7 L 220.3,342.5 L 220.6,342.3 L 220.9,342.2 L 221.3,342.0 L 221.6,341.8 L 221.9,341.6 L 222.2,341.4 L 222.5,341.2 L 222.8,341.0 L 223.1,340.8 L 223.4,340.6 L 223.6,340.4 L 223.9,340.2 L 224.2,340.0 L 224.4,339.7 L 224.6,339.5 L 224.9,339.3 L 225.1,339.1 L 225.4,338.9 L 225.6,338.7 L 225.8,338.4 L 226.0,338.2 L 226.2,338.0 L 226.5,337.8 L 226.7,337.5 L 226.9,337.3 L 227.1,337.0 L 227.3,336.8 L 227.6,336.5 L 227.8,336.2 L 228.1,335.9 L 228.3,335.6 L 228.6,335.3 L 228.9,335.0 L 229.2,334.6 L 229.5,334.2 L 229.9,333.8 L 230.3,333.4 L 230.8,332.9 L 231.3,332.4 L 231.8,331.9 L 232.4,331.4 L 233.1,330.8 L 233.9,330.2 L 234.8,329.6 L 235.7,328.9 L 236.7,328.3 L 237.8,327.8 L 239.0,327.2 L 240.2,326.8 L 241.5,326.4 L 242.7,326.0 L 244.0,325.8 L 245.2,325.6 L 246.4,325.5 L 247.5,325.5 L 248.5,325.5 L 249.5,325.5 L 250.4,325.6 L 251.2,325.7 L 251.9,325.8 L 252.6,325.9 L 253.3,326.0 L 253.8,326.1 L 254.4,326.2 L 254.9,326.3 L 255.3,326.4 L 255.7,326.5 L 256.2,326.6 L 256.5,326.7 L 256.9,326.8 L 257.3,326.9 L 257.6,327.0 L 257.9,327.1 L 258.3,327.1 L 258.6,327.2 L 258.9,327.3 L 259.2,327.3 L 259.5,327.4 L 259.8,327.4 L 260.1,327.5 L 260.4,327.5 L 260.8,327.6 L 261.1,327.6 L 261.4,327.6 L 261.7,327.7 L 262.0,327.7 L 262.4,327.7 L 262.7,327.7 L 263.1,327.7 L 263.4,327.7 L 263.7,327.7 L 264.1,327.7 L 264.5,327.7 L 264.8,327.7 L 265.2,327.6 L 265.6,327.6 L 265.9,327.6 L 266.3,327.5 L 266.7,327.4 L 267.1,327.4 L 267.5,327.3 L 267.9,327.2 L 268.3,327.1 L 268.7,327.0 L 269.1,326.9 L 269.5,326.8 L 269.9,326.7 L 270.3,326.6 L 270.7,326.4 L 271.1,326.3 L 271.5,326.1 L 271.9,325.9 L 272.2,325.8 L 272.6,325.6 L 273.0,325.4 L 273.4,325.2 L 273.8,325.0 L 274.2,324.7 L 274.5,324.5 L 274.9,324.3 L 275.3,324.1 L 275.6,323.8 L 276.0,323.6 L 276.3,323.3 L 276.7,323.0 L 277.0,322.8 L 277.3,322.5 L 277.7,322.2 L 278.0,321.9 L 278.3,321.7 L 278.6,321.4 L 278.8,321.1 L 279.1,320.8 L 279.4,320.5 L 279.7,320.2 L 279.9,319.9 L 280.2,319.6 L 280.4,319.3 L 280.6,319.0 L 280.8,318.7 L 281.1,318.4 L 281.3,318.1 L 281.5,317.7 L 281.6,317.4 L 281.8,317.1 L 282.0,316.8 L 282.2,316.5 L 282.3,316.2 L 282.5,315.9 L 282.6,315.7 L 282.8,315.4 L 282.9,315.1 L 283.0,314.8 L 283.1,314.5 L 283.3,314.2 L 283.4,313.9 L 283.5,313.6 L 283.6,313.3 L 283.7,313.0 L 283.8,312.7 L 283.9,312.4 L 284.0,312.1 L 284.1,311.8 L 284.2,311.4 L 284.3,311.1 L 284.4,310.7 L 284.5,310.4 L 284.7,310.0 L 284.8,309.6 L 284.9,309.1 L 285.1,308.6 L 285.2,308.1 L 285.4,307.6 L 285.6,307.0 L 285.9,306.4 L 286.1,305.7 L 286.4,305.0 L 286.8,304.2 L 287.2,303.3 L 287.7,302.5 L 288.3,301.5 L 288.9,300.6 L 289.7,299.6 L 290.5,298.6 L 291.4,297.7 L 292.3,296.8 L 293.3,295.9 L 294.4,295.2 L 295.4,294.5 L 296.5,293.8 L 297.5,293.3 L 298.4,292.9 L 299.4,292.5 L 300.2,292.1 L 301.0,291.9 L 301.8,291.6 L 302.5,291.5 L 303.1,291.3 L 303.7,291.1 L 304.3,291.0 L 304.8,290.9 L 305.3,290.8 L 305.7,290.7 L 306.2,290.7 L 306.6,290.6 L 306.9,290.5 L 307.3,290.4 L 307.6,290.4 L 308.0,290.3 L 308.3,290.2 L 308.6,290.2 L 309.0,290.1 L 309.3,290.0 L 309.6,290.0 L 309.9,289.9 L 310.2,289.8 L 310.5,289.7 L 310.8,289.6 L 311.1,289.5 L 311.4,289.4 L 311.7,289.3 L 312.0,289.2 L 312.3,289.1 L 312.6,289.0 L 312.9,288.9 L 313.3,288.7 L 313.6,288.6 L 313.9,288.4 L 314.2,288.3 L 314.5,288.1 L 314.9,287.9 L 315.2,287.8 L 315.5,287.6 L 315.8,287.4 L 316.2,287.2 L 316.5,287.0 L 316.8,286.7 L 317.1,286.5 L 317.5,286.3 L 317.8,286.0 L 318.1,285.8 L 318.4,285.5 L 318.7,285.2 L 319.1,284.9 L 319.4,284.7 L 319.7,284.4 L 320.0,284.1 L 320.3,283.7 L 320.6,283.4 L 320.8,283.1 L 321.1,282.8 L 321.4,282.4 L 321.7,282.1 L 321.9,281.7 L 322.2,281.4 L 322.4,281.0 L 322.7,280.7 L 322.9,280.3 L 323.1,279.9 L 323.3,279.5 L 323.5,279.2 L 323.7,278.8 L 323.9,278.4 L 324.1,278.0 L 324.3,277.6 L 324.5,277.3 L 324.6,276.9 L 324.8,276.5 L 324.9,276.1 L 325.0,275.7 L 325.2,275.3 L 325.3,275.0 L 325.4,274.6 L 325.5,274.2 L 325.6,273.8 L 325.6,273.5 L 325.7,273.1 L 325.8,272.7 L 325.8,272.4 L 325.9,272.0 L 325.9,271.7 L 326.0,271.3 L 326.0,271.0 L 326.0,270.6 L 326.1,270.3 L 326.1,270.0 L 326.1,269.7 L 326.1,269.3 L 326.1,269.0 L 326.1,268.7 L 326.1,268.4 L 326.1,268.1 L 326.1,267.7 L 326.0,267.4 L 326.0,267.1 L 326.0,266.8 L 326.0,266.5 L 325.9,266.2 L 325.9,265.8 L 325.8,265.5 L 325.8,265.1 L 325.8,264.8 L 325.7,264.4 L 325.7,264.0 L 325.6,263.6 L 325.5,263.1 L 325.5,262.7 L 325.4,262.2 L 325.4,261.6 L 325.3,261.0 L 325.3,260.4 L 325.2,259.7 L 325.2,258.9 L 325.2,258.1 L 325.2,257.2 L 325.3,256.2 L 325.4,255.2 L 325.6,254.1 L 325.8,252.9 L 326.1,251.7 L 326.5,250.5 L 327.0,249.3 L 327.5,248.1 L 328.1,246.9 L 328.8,245.8 L 329.5,244.8 L 330.2,243.8 L 330.9,243.0 L 331.6,242.2 L 332.3,241.5 L 332.9,240.9 L 333.5,240.3 L 334.1,239.9 L 334.6,239.4 L 335.1,239.0 L 335.6,238.7 L 336.1,238.3 L 336.5,238.0 L 336.9,237.8 L 337.2,237.5 L 337.6,237.3 L 337.9,237.1 L 338.2,236.8 L 338.5,236.6 L 338.8,236.4 L 339.1,236.2 L 339.3,236.0 L 339.6,235.8 L 339.9,235.7 L 340.1,235.5 L 340.4,235.3 L 340.6,235.1 L 340.9,234.9 L 341.1,234.7 L 341.3,234.5 L 341.6,234.3 L 341.8,234.0 L 342.0,233.8 L 342.3,233.6 L 342.5,233.4 L 342.8,233.1 L 343.0,232.9 L 343.2,232.6 L 343.5,232.4 L 343.7,232.1 L 343.9,231.8 L 344.1,231.5 L 344.4,231.2 L 344.6,230.9 L 344.8,230.6 L 345.0,230.3 L 345.2,230.0 L 345.4,229.7 L 345.7,229.3 L 345.9,229.0 L 346.1,228.6 L 346.2,228.3 L 346.4,227.9 L 346.6,227.5 L 346.8,227.1 L 347.0,226.7 L 347.1,226.4 L 347.3,226.0 L 347.4,225.6 L 347.6,225.1 L 347.7,224.7 L 347.8,224.3 L 347.9,223.9 L 348.0,223.5 L 348.1,223.1 L 348.2,222.6 L 348.3,222.2 L 348.4,221.8 L 348.5,221.3 L 348.5,220.9 L 348.6,220.5 L 348.6,220.1 L 348.6,219.6 L 348.7,219.2 L 348.7,218.8 L 348.7,218.4 L 348.7,217.9 L 348.7,217.5 L 348.7,217.1 L 348.6,216.7 L 348.6,216.3 L 348.6,215.9 L 348.5,215.5 L 348.5,215.1 L 348.4,214.7 L 348.3,214.3 L 348.3,214.0 L 348.2,213.6 L 348.1,213.2 L 348.0,212.9 L 347.9,212.5 L 347.8,212.2 L 347.7,211.9 L 347.6,211.5 L 347.5,211.2 L 347.4,210.9 L 347.3,210.6 L 347.1,210.3 L 347.0,210.0 L 346.9,209.7 L 346.8,209.4 L 346.6,209.1 L 346.5,208.8 L 346.3,208.5 L 346.2,208.2 L 346.1,208.0 L 345.9,207.7 L 345.7,207.4 L 345.6,207.1 L 345.4,206.8 L 345.3,206.6 L 345.1,206.3 L 344.9,205.9 L 344.7,205.6 L 344.5,205.3 L 344.3,205.0 L 344.1,204.6 L 343.8,204.2 L 343.6,203.8 L 343.3,203.3 L 343.0,202.8 L 342.7,202.3 L 342.4,201.7 L 342.1,201.0 L 341.8,200.3 L 341.4,199.5 L 341.1,198.7 L 340.8,197.7 L 340.4,196.7 L 340.2,195.6 L 339.9,194.4 L 339.8,193.1 L 339.6,191.8 Z" fill="#e8eefc" stroke="#26c" stroke-width="1.5"/>
<circle cx="196.5" cy="190.5" r="72.6" fill="#fff" stroke="#26c"/>
<circle cx="304.5" cy="190.5" r="24.9" fill="#fff" stroke="#26c"/><circle cx="304.5" cy="190.5" r="18.0" fill="#bcd"/><circle cx="250.5" cy="97.0" r="24.9" fill="#fff" stroke="#26c"/><circle cx="250.5" cy="97.0" r="18.0" fill="#bcd"/><circle cx="142.5" cy="97.0" r="24.9" fill="#fff" stroke="#26c"/><circle cx="142.5" cy="97.0" r="18.0" fill="#bcd"/><circle cx="88.5" cy="190.5" r="24.9" fill="#fff" stroke="#26c"/><circle cx="88.5" cy="190.5" r="18.0" fill="#bcd"/><circle cx="142.5" cy="284.0" r="24.9" fill="#fff" stroke="#26c"/><circle cx="142.5" cy="284.0" r="18.0" fill="#bcd"/><circle cx="250.5" cy="284.0" r="24.9" fill="#fff" stroke="#26c"/><circle cx="250.5" cy="284.0" r="18.0" fill="#bcd"/>
<text x="8" y="371" font-family="monospace" font-size="14">rt_cyc15 disc — Zc=15 Zp=16 R=28.0 e=1.0 (cam at 0°)</text>
</svg>