ISO-10303-21;
HEADER;
/* Generated by software containing ST-Developer
 * from STEP Tools, Inc. (www.steptools.com) 
 */

FILE_DESCRIPTION(
/* description */ (''),
/* implementation_level */ '2;1');

FILE_NAME(
/* name */ 'rt_cyc20_lid.step',
/* time_stamp */ '2026-07-20T19:47:15-04:00',
/* author */ (''),
/* organization */ (''),
/* preprocessor_version */ 'ST-DEVELOPER v20.1',
/* originating_system */ 'Autodesk Translation Framework v15.8.0.0',
/* authorisation */ '');

FILE_SCHEMA (('AUTOMOTIVE_DESIGN { 1 0 10303 214 3 1 1 }'));
ENDSEC;

DATA;
#10=MECHANICAL_DESIGN_GEOMETRIC_PRESENTATION_REPRESENTATION('',(#13),#1349);
#11=SHAPE_REPRESENTATION_RELATIONSHIP('SRR','None',#1356,#12);
#12=ADVANCED_BREP_SHAPE_REPRESENTATION('',(#14),#1348);
#13=STYLED_ITEM('',(#1365),#14);
#14=MANIFOLD_SOLID_BREP('Body1',#753);
#15=FACE_BOUND('',#180,.T.);
#16=FACE_BOUND('',#183,.T.);
#17=FACE_BOUND('',#184,.T.);
#18=FACE_BOUND('',#185,.T.);
#19=FACE_BOUND('',#186,.T.);
#20=FACE_BOUND('',#187,.T.);
#21=FACE_BOUND('',#188,.T.);
#22=FACE_BOUND('',#189,.T.);
#23=FACE_BOUND('',#190,.T.);
#24=FACE_BOUND('',#191,.T.);
#25=FACE_BOUND('',#192,.T.);
#26=FACE_BOUND('',#193,.T.);
#27=FACE_BOUND('',#194,.T.);
#28=FACE_BOUND('',#195,.T.);
#29=FACE_BOUND('',#196,.T.);
#30=FACE_BOUND('',#197,.T.);
#31=FACE_BOUND('',#198,.T.);
#32=FACE_BOUND('',#199,.T.);
#33=FACE_BOUND('',#200,.T.);
#34=FACE_BOUND('',#201,.T.);
#35=FACE_BOUND('',#202,.T.);
#36=FACE_BOUND('',#203,.T.);
#37=FACE_BOUND('',#204,.T.);
#38=FACE_BOUND('',#205,.T.);
#39=FACE_BOUND('',#206,.T.);
#40=FACE_BOUND('',#207,.T.);
#41=FACE_BOUND('',#208,.T.);
#42=FACE_BOUND('',#209,.T.);
#43=FACE_BOUND('',#210,.T.);
#44=FACE_BOUND('',#212,.T.);
#45=FACE_BOUND('',#213,.T.);
#46=FACE_BOUND('',#214,.T.);
#47=FACE_BOUND('',#215,.T.);
#48=FACE_BOUND('',#216,.T.);
#49=FACE_BOUND('',#217,.T.);
#50=FACE_BOUND('',#218,.T.);
#51=PLANE('',#788);
#52=PLANE('',#792);
#53=PLANE('',#796);
#54=PLANE('',#800);
#55=PLANE('',#804);
#56=PLANE('',#808);
#57=PLANE('',#812);
#58=PLANE('',#816);
#59=PLANE('',#820);
#60=PLANE('',#824);
#61=PLANE('',#828);
#62=PLANE('',#832);
#63=PLANE('',#836);
#64=PLANE('',#840);
#65=PLANE('',#844);
#66=PLANE('',#848);
#67=PLANE('',#852);
#68=PLANE('',#856);
#69=PLANE('',#860);
#70=PLANE('',#864);
#71=PLANE('',#868);
#72=PLANE('',#875);
#73=PLANE('',#879);
#74=PLANE('',#880);
#75=FACE_OUTER_BOUND('',#129,.T.);
#76=FACE_OUTER_BOUND('',#130,.T.);
#77=FACE_OUTER_BOUND('',#131,.T.);
#78=FACE_OUTER_BOUND('',#132,.T.);
#79=FACE_OUTER_BOUND('',#133,.T.);
#80=FACE_OUTER_BOUND('',#134,.T.);
#81=FACE_OUTER_BOUND('',#135,.T.);
#82=FACE_OUTER_BOUND('',#136,.T.);
#83=FACE_OUTER_BOUND('',#137,.T.);
#84=FACE_OUTER_BOUND('',#138,.T.);
#85=FACE_OUTER_BOUND('',#139,.T.);
#86=FACE_OUTER_BOUND('',#140,.T.);
#87=FACE_OUTER_BOUND('',#141,.T.);
#88=FACE_OUTER_BOUND('',#142,.T.);
#89=FACE_OUTER_BOUND('',#143,.T.);
#90=FACE_OUTER_BOUND('',#144,.T.);
#91=FACE_OUTER_BOUND('',#145,.T.);
#92=FACE_OUTER_BOUND('',#146,.T.);
#93=FACE_OUTER_BOUND('',#147,.T.);
#94=FACE_OUTER_BOUND('',#148,.T.);
#95=FACE_OUTER_BOUND('',#149,.T.);
#96=FACE_OUTER_BOUND('',#150,.T.);
#97=FACE_OUTER_BOUND('',#151,.T.);
#98=FACE_OUTER_BOUND('',#152,.T.);
#99=FACE_OUTER_BOUND('',#153,.T.);
#100=FACE_OUTER_BOUND('',#154,.T.);
#101=FACE_OUTER_BOUND('',#155,.T.);
#102=FACE_OUTER_BOUND('',#156,.T.);
#103=FACE_OUTER_BOUND('',#157,.T.);
#104=FACE_OUTER_BOUND('',#158,.T.);
#105=FACE_OUTER_BOUND('',#159,.T.);
#106=FACE_OUTER_BOUND('',#160,.T.);
#107=FACE_OUTER_BOUND('',#161,.T.);
#108=FACE_OUTER_BOUND('',#162,.T.);
#109=FACE_OUTER_BOUND('',#163,.T.);
#110=FACE_OUTER_BOUND('',#164,.T.);
#111=FACE_OUTER_BOUND('',#165,.T.);
#112=FACE_OUTER_BOUND('',#166,.T.);
#113=FACE_OUTER_BOUND('',#167,.T.);
#114=FACE_OUTER_BOUND('',#168,.T.);
#115=FACE_OUTER_BOUND('',#169,.T.);
#116=FACE_OUTER_BOUND('',#170,.T.);
#117=FACE_OUTER_BOUND('',#171,.T.);
#118=FACE_OUTER_BOUND('',#172,.T.);
#119=FACE_OUTER_BOUND('',#173,.T.);
#120=FACE_OUTER_BOUND('',#174,.T.);
#121=FACE_OUTER_BOUND('',#175,.T.);
#122=FACE_OUTER_BOUND('',#176,.T.);
#123=FACE_OUTER_BOUND('',#177,.T.);
#124=FACE_OUTER_BOUND('',#178,.T.);
#125=FACE_OUTER_BOUND('',#179,.T.);
#126=FACE_OUTER_BOUND('',#181,.T.);
#127=FACE_OUTER_BOUND('',#182,.T.);
#128=FACE_OUTER_BOUND('',#211,.T.);
#129=EDGE_LOOP('',(#489,#490,#491,#492));
#130=EDGE_LOOP('',(#493,#494,#495,#496));
#131=EDGE_LOOP('',(#497,#498,#499,#500));
#132=EDGE_LOOP('',(#501,#502,#503,#504));
#133=EDGE_LOOP('',(#505,#506,#507,#508));
#134=EDGE_LOOP('',(#509,#510,#511,#512));
#135=EDGE_LOOP('',(#513,#514,#515,#516));
#136=EDGE_LOOP('',(#517));
#137=EDGE_LOOP('',(#518,#519,#520,#521));
#138=EDGE_LOOP('',(#522));
#139=EDGE_LOOP('',(#523,#524,#525,#526));
#140=EDGE_LOOP('',(#527));
#141=EDGE_LOOP('',(#528,#529,#530,#531));
#142=EDGE_LOOP('',(#532));
#143=EDGE_LOOP('',(#533,#534,#535,#536));
#144=EDGE_LOOP('',(#537));
#145=EDGE_LOOP('',(#538,#539,#540,#541));
#146=EDGE_LOOP('',(#542));
#147=EDGE_LOOP('',(#543,#544,#545,#546));
#148=EDGE_LOOP('',(#547));
#149=EDGE_LOOP('',(#548,#549,#550,#551));
#150=EDGE_LOOP('',(#552));
#151=EDGE_LOOP('',(#553,#554,#555,#556));
#152=EDGE_LOOP('',(#557));
#153=EDGE_LOOP('',(#558,#559,#560,#561));
#154=EDGE_LOOP('',(#562));
#155=EDGE_LOOP('',(#563,#564,#565,#566));
#156=EDGE_LOOP('',(#567));
#157=EDGE_LOOP('',(#568,#569,#570,#571));
#158=EDGE_LOOP('',(#572));
#159=EDGE_LOOP('',(#573,#574,#575,#576));
#160=EDGE_LOOP('',(#577));
#161=EDGE_LOOP('',(#578,#579,#580,#581));
#162=EDGE_LOOP('',(#582));
#163=EDGE_LOOP('',(#583,#584,#585,#586));
#164=EDGE_LOOP('',(#587));
#165=EDGE_LOOP('',(#588,#589,#590,#591));
#166=EDGE_LOOP('',(#592));
#167=EDGE_LOOP('',(#593,#594,#595,#596));
#168=EDGE_LOOP('',(#597));
#169=EDGE_LOOP('',(#598,#599,#600,#601));
#170=EDGE_LOOP('',(#602));
#171=EDGE_LOOP('',(#603,#604,#605,#606));
#172=EDGE_LOOP('',(#607));
#173=EDGE_LOOP('',(#608,#609,#610,#611));
#174=EDGE_LOOP('',(#612));
#175=EDGE_LOOP('',(#613,#614,#615,#616));
#176=EDGE_LOOP('',(#617));
#177=EDGE_LOOP('',(#618,#619,#620,#621));
#178=EDGE_LOOP('',(#622,#623,#624,#625));
#179=EDGE_LOOP('',(#626));
#180=EDGE_LOOP('',(#627));
#181=EDGE_LOOP('',(#628,#629,#630,#631));
#182=EDGE_LOOP('',(#632));
#183=EDGE_LOOP('',(#633));
#184=EDGE_LOOP('',(#634));
#185=EDGE_LOOP('',(#635));
#186=EDGE_LOOP('',(#636));
#187=EDGE_LOOP('',(#637));
#188=EDGE_LOOP('',(#638));
#189=EDGE_LOOP('',(#639));
#190=EDGE_LOOP('',(#640));
#191=EDGE_LOOP('',(#641));
#192=EDGE_LOOP('',(#642));
#193=EDGE_LOOP('',(#643));
#194=EDGE_LOOP('',(#644));
#195=EDGE_LOOP('',(#645));
#196=EDGE_LOOP('',(#646));
#197=EDGE_LOOP('',(#647));
#198=EDGE_LOOP('',(#648));
#199=EDGE_LOOP('',(#649));
#200=EDGE_LOOP('',(#650));
#201=EDGE_LOOP('',(#651));
#202=EDGE_LOOP('',(#652));
#203=EDGE_LOOP('',(#653));
#204=EDGE_LOOP('',(#654));
#205=EDGE_LOOP('',(#655));
#206=EDGE_LOOP('',(#656));
#207=EDGE_LOOP('',(#657));
#208=EDGE_LOOP('',(#658));
#209=EDGE_LOOP('',(#659));
#210=EDGE_LOOP('',(#660));
#211=EDGE_LOOP('',(#661));
#212=EDGE_LOOP('',(#662));
#213=EDGE_LOOP('',(#663));
#214=EDGE_LOOP('',(#664));
#215=EDGE_LOOP('',(#665));
#216=EDGE_LOOP('',(#666));
#217=EDGE_LOOP('',(#667));
#218=EDGE_LOOP('',(#668));
#219=LINE('',#1146,#249);
#220=LINE('',#1152,#250);
#221=LINE('',#1158,#251);
#222=LINE('',#1164,#252);
#223=LINE('',#1170,#253);
#224=LINE('',#1176,#254);
#225=LINE('',#1182,#255);
#226=LINE('',#1189,#256);
#227=LINE('',#1196,#257);
#228=LINE('',#1203,#258);
#229=LINE('',#1210,#259);
#230=LINE('',#1217,#260);
#231=LINE('',#1224,#261);
#232=LINE('',#1231,#262);
#233=LINE('',#1238,#263);
#234=LINE('',#1245,#264);
#235=LINE('',#1252,#265);
#236=LINE('',#1259,#266);
#237=LINE('',#1266,#267);
#238=LINE('',#1273,#268);
#239=LINE('',#1280,#269);
#240=LINE('',#1287,#270);
#241=LINE('',#1294,#271);
#242=LINE('',#1301,#272);
#243=LINE('',#1308,#273);
#244=LINE('',#1315,#274);
#245=LINE('',#1322,#275);
#246=LINE('',#1329,#276);
#247=LINE('',#1335,#277);
#248=LINE('',#1342,#278);
#249=VECTOR('',#887,1.6);
#250=VECTOR('',#894,1.6);
#251=VECTOR('',#901,1.6);
#252=VECTOR('',#908,1.6);
#253=VECTOR('',#915,1.6);
#254=VECTOR('',#922,1.6);
#255=VECTOR('',#929,3.05);
#256=VECTOR('',#938,3.05);
#257=VECTOR('',#947,3.05);
#258=VECTOR('',#956,3.05);
#259=VECTOR('',#965,3.05);
#260=VECTOR('',#974,3.05);
#261=VECTOR('',#983,3.05);
#262=VECTOR('',#992,3.05);
#263=VECTOR('',#1001,3.05);
#264=VECTOR('',#1010,3.05);
#265=VECTOR('',#1019,3.05);
#266=VECTOR('',#1028,3.05);
#267=VECTOR('',#1037,3.05);
#268=VECTOR('',#1046,3.05);
#269=VECTOR('',#1055,3.05);
#270=VECTOR('',#1064,3.05);
#271=VECTOR('',#1073,3.05);
#272=VECTOR('',#1082,3.05);
#273=VECTOR('',#1091,3.05);
#274=VECTOR('',#1100,3.05);
#275=VECTOR('',#1109,3.05);
#276=VECTOR('',#1118,12.925);
#277=VECTOR('',#1125,24.);
#278=VECTOR('',#1134,38.);
#279=CIRCLE('',#768,1.6);
#280=CIRCLE('',#769,1.6);
#281=CIRCLE('',#771,1.6);
#282=CIRCLE('',#772,1.6);
#283=CIRCLE('',#774,1.6);
#284=CIRCLE('',#775,1.6);
#285=CIRCLE('',#777,1.6);
#286=CIRCLE('',#778,1.6);
#287=CIRCLE('',#780,1.6);
#288=CIRCLE('',#781,1.6);
#289=CIRCLE('',#783,1.6);
#290=CIRCLE('',#784,1.6);
#291=CIRCLE('',#786,3.05);
#292=CIRCLE('',#787,3.05);
#293=CIRCLE('',#790,3.05);
#294=CIRCLE('',#791,3.05);
#295=CIRCLE('',#794,3.05);
#296=CIRCLE('',#795,3.05);
#297=CIRCLE('',#798,3.05);
#298=CIRCLE('',#799,3.05);
#299=CIRCLE('',#802,3.05);
#300=CIRCLE('',#803,3.05);
#301=CIRCLE('',#806,3.05);
#302=CIRCLE('',#807,3.05);
#303=CIRCLE('',#810,3.05);
#304=CIRCLE('',#811,3.05);
#305=CIRCLE('',#814,3.05);
#306=CIRCLE('',#815,3.05);
#307=CIRCLE('',#818,3.05);
#308=CIRCLE('',#819,3.05);
#309=CIRCLE('',#822,3.05);
#310=CIRCLE('',#823,3.05);
#311=CIRCLE('',#826,3.05);
#312=CIRCLE('',#827,3.05);
#313=CIRCLE('',#830,3.05);
#314=CIRCLE('',#831,3.05);
#315=CIRCLE('',#834,3.05);
#316=CIRCLE('',#835,3.05);
#317=CIRCLE('',#838,3.05);
#318=CIRCLE('',#839,3.05);
#319=CIRCLE('',#842,3.05);
#320=CIRCLE('',#843,3.05);
#321=CIRCLE('',#846,3.05);
#322=CIRCLE('',#847,3.05);
#323=CIRCLE('',#850,3.05);
#324=CIRCLE('',#851,3.05);
#325=CIRCLE('',#854,3.05);
#326=CIRCLE('',#855,3.05);
#327=CIRCLE('',#858,3.05);
#328=CIRCLE('',#859,3.05);
#329=CIRCLE('',#862,3.05);
#330=CIRCLE('',#863,3.05);
#331=CIRCLE('',#866,3.05);
#332=CIRCLE('',#867,3.05);
#333=CIRCLE('',#870,12.925);
#334=CIRCLE('',#871,12.925);
#335=CIRCLE('',#873,24.);
#336=CIRCLE('',#874,24.);
#337=CIRCLE('',#877,38.);
#338=CIRCLE('',#878,38.);
#339=VERTEX_POINT('',#1143);
#340=VERTEX_POINT('',#1145);
#341=VERTEX_POINT('',#1149);
#342=VERTEX_POINT('',#1151);
#343=VERTEX_POINT('',#1155);
#344=VERTEX_POINT('',#1157);
#345=VERTEX_POINT('',#1161);
#346=VERTEX_POINT('',#1163);
#347=VERTEX_POINT('',#1167);
#348=VERTEX_POINT('',#1169);
#349=VERTEX_POINT('',#1173);
#350=VERTEX_POINT('',#1175);
#351=VERTEX_POINT('',#1179);
#352=VERTEX_POINT('',#1181);
#353=VERTEX_POINT('',#1186);
#354=VERTEX_POINT('',#1188);
#355=VERTEX_POINT('',#1193);
#356=VERTEX_POINT('',#1195);
#357=VERTEX_POINT('',#1200);
#358=VERTEX_POINT('',#1202);
#359=VERTEX_POINT('',#1207);
#360=VERTEX_POINT('',#1209);
#361=VERTEX_POINT('',#1214);
#362=VERTEX_POINT('',#1216);
#363=VERTEX_POINT('',#1221);
#364=VERTEX_POINT('',#1223);
#365=VERTEX_POINT('',#1228);
#366=VERTEX_POINT('',#1230);
#367=VERTEX_POINT('',#1235);
#368=VERTEX_POINT('',#1237);
#369=VERTEX_POINT('',#1242);
#370=VERTEX_POINT('',#1244);
#371=VERTEX_POINT('',#1249);
#372=VERTEX_POINT('',#1251);
#373=VERTEX_POINT('',#1256);
#374=VERTEX_POINT('',#1258);
#375=VERTEX_POINT('',#1263);
#376=VERTEX_POINT('',#1265);
#377=VERTEX_POINT('',#1270);
#378=VERTEX_POINT('',#1272);
#379=VERTEX_POINT('',#1277);
#380=VERTEX_POINT('',#1279);
#381=VERTEX_POINT('',#1284);
#382=VERTEX_POINT('',#1286);
#383=VERTEX_POINT('',#1291);
#384=VERTEX_POINT('',#1293);
#385=VERTEX_POINT('',#1298);
#386=VERTEX_POINT('',#1300);
#387=VERTEX_POINT('',#1305);
#388=VERTEX_POINT('',#1307);
#389=VERTEX_POINT('',#1312);
#390=VERTEX_POINT('',#1314);
#391=VERTEX_POINT('',#1319);
#392=VERTEX_POINT('',#1321);
#393=VERTEX_POINT('',#1326);
#394=VERTEX_POINT('',#1328);
#395=VERTEX_POINT('',#1332);
#396=VERTEX_POINT('',#1334);
#397=VERTEX_POINT('',#1339);
#398=VERTEX_POINT('',#1341);
#399=EDGE_CURVE('',#339,#339,#279,.T.);
#400=EDGE_CURVE('',#339,#340,#219,.T.);
#401=EDGE_CURVE('',#340,#340,#280,.T.);
#402=EDGE_CURVE('',#341,#341,#281,.T.);
#403=EDGE_CURVE('',#341,#342,#220,.T.);
#404=EDGE_CURVE('',#342,#342,#282,.T.);
#405=EDGE_CURVE('',#343,#343,#283,.T.);
#406=EDGE_CURVE('',#343,#344,#221,.T.);
#407=EDGE_CURVE('',#344,#344,#284,.T.);
#408=EDGE_CURVE('',#345,#345,#285,.T.);
#409=EDGE_CURVE('',#345,#346,#222,.T.);
#410=EDGE_CURVE('',#346,#346,#286,.T.);
#411=EDGE_CURVE('',#347,#347,#287,.T.);
#412=EDGE_CURVE('',#347,#348,#223,.T.);
#413=EDGE_CURVE('',#348,#348,#288,.T.);
#414=EDGE_CURVE('',#349,#349,#289,.T.);
#415=EDGE_CURVE('',#349,#350,#224,.T.);
#416=EDGE_CURVE('',#350,#350,#290,.T.);
#417=EDGE_CURVE('',#351,#351,#291,.T.);
#418=EDGE_CURVE('',#351,#352,#225,.T.);
#419=EDGE_CURVE('',#352,#352,#292,.T.);
#420=EDGE_CURVE('',#353,#353,#293,.T.);
#421=EDGE_CURVE('',#353,#354,#226,.T.);
#422=EDGE_CURVE('',#354,#354,#294,.T.);
#423=EDGE_CURVE('',#355,#355,#295,.T.);
#424=EDGE_CURVE('',#355,#356,#227,.T.);
#425=EDGE_CURVE('',#356,#356,#296,.T.);
#426=EDGE_CURVE('',#357,#357,#297,.T.);
#427=EDGE_CURVE('',#357,#358,#228,.T.);
#428=EDGE_CURVE('',#358,#358,#298,.T.);
#429=EDGE_CURVE('',#359,#359,#299,.T.);
#430=EDGE_CURVE('',#359,#360,#229,.T.);
#431=EDGE_CURVE('',#360,#360,#300,.T.);
#432=EDGE_CURVE('',#361,#361,#301,.T.);
#433=EDGE_CURVE('',#361,#362,#230,.T.);
#434=EDGE_CURVE('',#362,#362,#302,.T.);
#435=EDGE_CURVE('',#363,#363,#303,.T.);
#436=EDGE_CURVE('',#363,#364,#231,.T.);
#437=EDGE_CURVE('',#364,#364,#304,.T.);
#438=EDGE_CURVE('',#365,#365,#305,.T.);
#439=EDGE_CURVE('',#365,#366,#232,.T.);
#440=EDGE_CURVE('',#366,#366,#306,.T.);
#441=EDGE_CURVE('',#367,#367,#307,.T.);
#442=EDGE_CURVE('',#367,#368,#233,.T.);
#443=EDGE_CURVE('',#368,#368,#308,.T.);
#444=EDGE_CURVE('',#369,#369,#309,.T.);
#445=EDGE_CURVE('',#369,#370,#234,.T.);
#446=EDGE_CURVE('',#370,#370,#310,.T.);
#447=EDGE_CURVE('',#371,#371,#311,.T.);
#448=EDGE_CURVE('',#371,#372,#235,.T.);
#449=EDGE_CURVE('',#372,#372,#312,.T.);
#450=EDGE_CURVE('',#373,#373,#313,.T.);
#451=EDGE_CURVE('',#373,#374,#236,.T.);
#452=EDGE_CURVE('',#374,#374,#314,.T.);
#453=EDGE_CURVE('',#375,#375,#315,.T.);
#454=EDGE_CURVE('',#375,#376,#237,.T.);
#455=EDGE_CURVE('',#376,#376,#316,.T.);
#456=EDGE_CURVE('',#377,#377,#317,.T.);
#457=EDGE_CURVE('',#377,#378,#238,.T.);
#458=EDGE_CURVE('',#378,#378,#318,.T.);
#459=EDGE_CURVE('',#379,#379,#319,.T.);
#460=EDGE_CURVE('',#379,#380,#239,.T.);
#461=EDGE_CURVE('',#380,#380,#320,.T.);
#462=EDGE_CURVE('',#381,#381,#321,.T.);
#463=EDGE_CURVE('',#381,#382,#240,.T.);
#464=EDGE_CURVE('',#382,#382,#322,.T.);
#465=EDGE_CURVE('',#383,#383,#323,.T.);
#466=EDGE_CURVE('',#383,#384,#241,.T.);
#467=EDGE_CURVE('',#384,#384,#324,.T.);
#468=EDGE_CURVE('',#385,#385,#325,.T.);
#469=EDGE_CURVE('',#385,#386,#242,.T.);
#470=EDGE_CURVE('',#386,#386,#326,.T.);
#471=EDGE_CURVE('',#387,#387,#327,.T.);
#472=EDGE_CURVE('',#387,#388,#243,.T.);
#473=EDGE_CURVE('',#388,#388,#328,.T.);
#474=EDGE_CURVE('',#389,#389,#329,.T.);
#475=EDGE_CURVE('',#389,#390,#244,.T.);
#476=EDGE_CURVE('',#390,#390,#330,.T.);
#477=EDGE_CURVE('',#391,#391,#331,.T.);
#478=EDGE_CURVE('',#391,#392,#245,.T.);
#479=EDGE_CURVE('',#392,#392,#332,.T.);
#480=EDGE_CURVE('',#393,#393,#333,.T.);
#481=EDGE_CURVE('',#393,#394,#246,.T.);
#482=EDGE_CURVE('',#394,#394,#334,.T.);
#483=EDGE_CURVE('',#395,#395,#335,.T.);
#484=EDGE_CURVE('',#395,#396,#247,.T.);
#485=EDGE_CURVE('',#396,#396,#336,.T.);
#486=EDGE_CURVE('',#397,#397,#337,.T.);
#487=EDGE_CURVE('',#397,#398,#248,.T.);
#488=EDGE_CURVE('',#398,#398,#338,.T.);
#489=ORIENTED_EDGE('',*,*,#399,.F.);
#490=ORIENTED_EDGE('',*,*,#400,.T.);
#491=ORIENTED_EDGE('',*,*,#401,.F.);
#492=ORIENTED_EDGE('',*,*,#400,.F.);
#493=ORIENTED_EDGE('',*,*,#402,.F.);
#494=ORIENTED_EDGE('',*,*,#403,.T.);
#495=ORIENTED_EDGE('',*,*,#404,.F.);
#496=ORIENTED_EDGE('',*,*,#403,.F.);
#497=ORIENTED_EDGE('',*,*,#405,.F.);
#498=ORIENTED_EDGE('',*,*,#406,.T.);
#499=ORIENTED_EDGE('',*,*,#407,.F.);
#500=ORIENTED_EDGE('',*,*,#406,.F.);
#501=ORIENTED_EDGE('',*,*,#408,.F.);
#502=ORIENTED_EDGE('',*,*,#409,.T.);
#503=ORIENTED_EDGE('',*,*,#410,.F.);
#504=ORIENTED_EDGE('',*,*,#409,.F.);
#505=ORIENTED_EDGE('',*,*,#411,.F.);
#506=ORIENTED_EDGE('',*,*,#412,.T.);
#507=ORIENTED_EDGE('',*,*,#413,.F.);
#508=ORIENTED_EDGE('',*,*,#412,.F.);
#509=ORIENTED_EDGE('',*,*,#414,.F.);
#510=ORIENTED_EDGE('',*,*,#415,.T.);
#511=ORIENTED_EDGE('',*,*,#416,.F.);
#512=ORIENTED_EDGE('',*,*,#415,.F.);
#513=ORIENTED_EDGE('',*,*,#417,.F.);
#514=ORIENTED_EDGE('',*,*,#418,.T.);
#515=ORIENTED_EDGE('',*,*,#419,.T.);
#516=ORIENTED_EDGE('',*,*,#418,.F.);
#517=ORIENTED_EDGE('',*,*,#419,.F.);
#518=ORIENTED_EDGE('',*,*,#420,.F.);
#519=ORIENTED_EDGE('',*,*,#421,.T.);
#520=ORIENTED_EDGE('',*,*,#422,.T.);
#521=ORIENTED_EDGE('',*,*,#421,.F.);
#522=ORIENTED_EDGE('',*,*,#422,.F.);
#523=ORIENTED_EDGE('',*,*,#423,.F.);
#524=ORIENTED_EDGE('',*,*,#424,.T.);
#525=ORIENTED_EDGE('',*,*,#425,.T.);
#526=ORIENTED_EDGE('',*,*,#424,.F.);
#527=ORIENTED_EDGE('',*,*,#425,.F.);
#528=ORIENTED_EDGE('',*,*,#426,.F.);
#529=ORIENTED_EDGE('',*,*,#427,.T.);
#530=ORIENTED_EDGE('',*,*,#428,.T.);
#531=ORIENTED_EDGE('',*,*,#427,.F.);
#532=ORIENTED_EDGE('',*,*,#428,.F.);
#533=ORIENTED_EDGE('',*,*,#429,.F.);
#534=ORIENTED_EDGE('',*,*,#430,.T.);
#535=ORIENTED_EDGE('',*,*,#431,.T.);
#536=ORIENTED_EDGE('',*,*,#430,.F.);
#537=ORIENTED_EDGE('',*,*,#431,.F.);
#538=ORIENTED_EDGE('',*,*,#432,.F.);
#539=ORIENTED_EDGE('',*,*,#433,.T.);
#540=ORIENTED_EDGE('',*,*,#434,.T.);
#541=ORIENTED_EDGE('',*,*,#433,.F.);
#542=ORIENTED_EDGE('',*,*,#434,.F.);
#543=ORIENTED_EDGE('',*,*,#435,.F.);
#544=ORIENTED_EDGE('',*,*,#436,.T.);
#545=ORIENTED_EDGE('',*,*,#437,.T.);
#546=ORIENTED_EDGE('',*,*,#436,.F.);
#547=ORIENTED_EDGE('',*,*,#437,.F.);
#548=ORIENTED_EDGE('',*,*,#438,.F.);
#549=ORIENTED_EDGE('',*,*,#439,.T.);
#550=ORIENTED_EDGE('',*,*,#440,.T.);
#551=ORIENTED_EDGE('',*,*,#439,.F.);
#552=ORIENTED_EDGE('',*,*,#440,.F.);
#553=ORIENTED_EDGE('',*,*,#441,.F.);
#554=ORIENTED_EDGE('',*,*,#442,.T.);
#555=ORIENTED_EDGE('',*,*,#443,.T.);
#556=ORIENTED_EDGE('',*,*,#442,.F.);
#557=ORIENTED_EDGE('',*,*,#443,.F.);
#558=ORIENTED_EDGE('',*,*,#444,.F.);
#559=ORIENTED_EDGE('',*,*,#445,.T.);
#560=ORIENTED_EDGE('',*,*,#446,.T.);
#561=ORIENTED_EDGE('',*,*,#445,.F.);
#562=ORIENTED_EDGE('',*,*,#446,.F.);
#563=ORIENTED_EDGE('',*,*,#447,.F.);
#564=ORIENTED_EDGE('',*,*,#448,.T.);
#565=ORIENTED_EDGE('',*,*,#449,.T.);
#566=ORIENTED_EDGE('',*,*,#448,.F.);
#567=ORIENTED_EDGE('',*,*,#449,.F.);
#568=ORIENTED_EDGE('',*,*,#450,.F.);
#569=ORIENTED_EDGE('',*,*,#451,.T.);
#570=ORIENTED_EDGE('',*,*,#452,.T.);
#571=ORIENTED_EDGE('',*,*,#451,.F.);
#572=ORIENTED_EDGE('',*,*,#452,.F.);
#573=ORIENTED_EDGE('',*,*,#453,.F.);
#574=ORIENTED_EDGE('',*,*,#454,.T.);
#575=ORIENTED_EDGE('',*,*,#455,.T.);
#576=ORIENTED_EDGE('',*,*,#454,.F.);
#577=ORIENTED_EDGE('',*,*,#455,.F.);
#578=ORIENTED_EDGE('',*,*,#456,.F.);
#579=ORIENTED_EDGE('',*,*,#457,.T.);
#580=ORIENTED_EDGE('',*,*,#458,.T.);
#581=ORIENTED_EDGE('',*,*,#457,.F.);
#582=ORIENTED_EDGE('',*,*,#458,.F.);
#583=ORIENTED_EDGE('',*,*,#459,.F.);
#584=ORIENTED_EDGE('',*,*,#460,.T.);
#585=ORIENTED_EDGE('',*,*,#461,.T.);
#586=ORIENTED_EDGE('',*,*,#460,.F.);
#587=ORIENTED_EDGE('',*,*,#461,.F.);
#588=ORIENTED_EDGE('',*,*,#462,.F.);
#589=ORIENTED_EDGE('',*,*,#463,.T.);
#590=ORIENTED_EDGE('',*,*,#464,.T.);
#591=ORIENTED_EDGE('',*,*,#463,.F.);
#592=ORIENTED_EDGE('',*,*,#464,.F.);
#593=ORIENTED_EDGE('',*,*,#465,.F.);
#594=ORIENTED_EDGE('',*,*,#466,.T.);
#595=ORIENTED_EDGE('',*,*,#467,.T.);
#596=ORIENTED_EDGE('',*,*,#466,.F.);
#597=ORIENTED_EDGE('',*,*,#467,.F.);
#598=ORIENTED_EDGE('',*,*,#468,.F.);
#599=ORIENTED_EDGE('',*,*,#469,.T.);
#600=ORIENTED_EDGE('',*,*,#470,.T.);
#601=ORIENTED_EDGE('',*,*,#469,.F.);
#602=ORIENTED_EDGE('',*,*,#470,.F.);
#603=ORIENTED_EDGE('',*,*,#471,.F.);
#604=ORIENTED_EDGE('',*,*,#472,.T.);
#605=ORIENTED_EDGE('',*,*,#473,.T.);
#606=ORIENTED_EDGE('',*,*,#472,.F.);
#607=ORIENTED_EDGE('',*,*,#473,.F.);
#608=ORIENTED_EDGE('',*,*,#474,.F.);
#609=ORIENTED_EDGE('',*,*,#475,.T.);
#610=ORIENTED_EDGE('',*,*,#476,.T.);
#611=ORIENTED_EDGE('',*,*,#475,.F.);
#612=ORIENTED_EDGE('',*,*,#476,.F.);
#613=ORIENTED_EDGE('',*,*,#477,.F.);
#614=ORIENTED_EDGE('',*,*,#478,.T.);
#615=ORIENTED_EDGE('',*,*,#479,.T.);
#616=ORIENTED_EDGE('',*,*,#478,.F.);
#617=ORIENTED_EDGE('',*,*,#479,.F.);
#618=ORIENTED_EDGE('',*,*,#480,.F.);
#619=ORIENTED_EDGE('',*,*,#481,.T.);
#620=ORIENTED_EDGE('',*,*,#482,.F.);
#621=ORIENTED_EDGE('',*,*,#481,.F.);
#622=ORIENTED_EDGE('',*,*,#483,.F.);
#623=ORIENTED_EDGE('',*,*,#484,.T.);
#624=ORIENTED_EDGE('',*,*,#485,.T.);
#625=ORIENTED_EDGE('',*,*,#484,.F.);
#626=ORIENTED_EDGE('',*,*,#485,.F.);
#627=ORIENTED_EDGE('',*,*,#480,.T.);
#628=ORIENTED_EDGE('',*,*,#486,.F.);
#629=ORIENTED_EDGE('',*,*,#487,.T.);
#630=ORIENTED_EDGE('',*,*,#488,.F.);
#631=ORIENTED_EDGE('',*,*,#487,.F.);
#632=ORIENTED_EDGE('',*,*,#488,.T.);
#633=ORIENTED_EDGE('',*,*,#402,.T.);
#634=ORIENTED_EDGE('',*,*,#408,.T.);
#635=ORIENTED_EDGE('',*,*,#414,.T.);
#636=ORIENTED_EDGE('',*,*,#420,.T.);
#637=ORIENTED_EDGE('',*,*,#426,.T.);
#638=ORIENTED_EDGE('',*,*,#432,.T.);
#639=ORIENTED_EDGE('',*,*,#438,.T.);
#640=ORIENTED_EDGE('',*,*,#444,.T.);
#641=ORIENTED_EDGE('',*,*,#450,.T.);
#642=ORIENTED_EDGE('',*,*,#456,.T.);
#643=ORIENTED_EDGE('',*,*,#483,.T.);
#644=ORIENTED_EDGE('',*,*,#477,.T.);
#645=ORIENTED_EDGE('',*,*,#474,.T.);
#646=ORIENTED_EDGE('',*,*,#471,.T.);
#647=ORIENTED_EDGE('',*,*,#468,.T.);
#648=ORIENTED_EDGE('',*,*,#465,.T.);
#649=ORIENTED_EDGE('',*,*,#462,.T.);
#650=ORIENTED_EDGE('',*,*,#459,.T.);
#651=ORIENTED_EDGE('',*,*,#453,.T.);
#652=ORIENTED_EDGE('',*,*,#447,.T.);
#653=ORIENTED_EDGE('',*,*,#441,.T.);
#654=ORIENTED_EDGE('',*,*,#435,.T.);
#655=ORIENTED_EDGE('',*,*,#429,.T.);
#656=ORIENTED_EDGE('',*,*,#423,.T.);
#657=ORIENTED_EDGE('',*,*,#417,.T.);
#658=ORIENTED_EDGE('',*,*,#411,.T.);
#659=ORIENTED_EDGE('',*,*,#405,.T.);
#660=ORIENTED_EDGE('',*,*,#399,.T.);
#661=ORIENTED_EDGE('',*,*,#486,.T.);
#662=ORIENTED_EDGE('',*,*,#401,.T.);
#663=ORIENTED_EDGE('',*,*,#404,.T.);
#664=ORIENTED_EDGE('',*,*,#407,.T.);
#665=ORIENTED_EDGE('',*,*,#410,.T.);
#666=ORIENTED_EDGE('',*,*,#413,.T.);
#667=ORIENTED_EDGE('',*,*,#416,.T.);
#668=ORIENTED_EDGE('',*,*,#482,.T.);
#669=CYLINDRICAL_SURFACE('',#767,1.6);
#670=CYLINDRICAL_SURFACE('',#770,1.6);
#671=CYLINDRICAL_SURFACE('',#773,1.6);
#672=CYLINDRICAL_SURFACE('',#776,1.6);
#673=CYLINDRICAL_SURFACE('',#779,1.6);
#674=CYLINDRICAL_SURFACE('',#782,1.6);
#675=CYLINDRICAL_SURFACE('',#785,3.05);
#676=CYLINDRICAL_SURFACE('',#789,3.05);
#677=CYLINDRICAL_SURFACE('',#793,3.05);
#678=CYLINDRICAL_SURFACE('',#797,3.05);
#679=CYLINDRICAL_SURFACE('',#801,3.05);
#680=CYLINDRICAL_SURFACE('',#805,3.05);
#681=CYLINDRICAL_SURFACE('',#809,3.05);
#682=CYLINDRICAL_SURFACE('',#813,3.05);
#683=CYLINDRICAL_SURFACE('',#817,3.05);
#684=CYLINDRICAL_SURFACE('',#821,3.05);
#685=CYLINDRICAL_SURFACE('',#825,3.05);
#686=CYLINDRICAL_SURFACE('',#829,3.05);
#687=CYLINDRICAL_SURFACE('',#833,3.05);
#688=CYLINDRICAL_SURFACE('',#837,3.05);
#689=CYLINDRICAL_SURFACE('',#841,3.05);
#690=CYLINDRICAL_SURFACE('',#845,3.05);
#691=CYLINDRICAL_SURFACE('',#849,3.05);
#692=CYLINDRICAL_SURFACE('',#853,3.05);
#693=CYLINDRICAL_SURFACE('',#857,3.05);
#694=CYLINDRICAL_SURFACE('',#861,3.05);
#695=CYLINDRICAL_SURFACE('',#865,3.05);
#696=CYLINDRICAL_SURFACE('',#869,12.925);
#697=CYLINDRICAL_SURFACE('',#872,24.);
#698=CYLINDRICAL_SURFACE('',#876,38.);
#699=ADVANCED_FACE('',(#75),#669,.F.);
#700=ADVANCED_FACE('',(#76),#670,.F.);
#701=ADVANCED_FACE('',(#77),#671,.F.);
#702=ADVANCED_FACE('',(#78),#672,.F.);
#703=ADVANCED_FACE('',(#79),#673,.F.);
#704=ADVANCED_FACE('',(#80),#674,.F.);
#705=ADVANCED_FACE('',(#81),#675,.F.);
#706=ADVANCED_FACE('',(#82),#51,.F.);
#707=ADVANCED_FACE('',(#83),#676,.F.);
#708=ADVANCED_FACE('',(#84),#52,.F.);
#709=ADVANCED_FACE('',(#85),#677,.F.);
#710=ADVANCED_FACE('',(#86),#53,.F.);
#711=ADVANCED_FACE('',(#87),#678,.F.);
#712=ADVANCED_FACE('',(#88),#54,.F.);
#713=ADVANCED_FACE('',(#89),#679,.F.);
#714=ADVANCED_FACE('',(#90),#55,.F.);
#715=ADVANCED_FACE('',(#91),#680,.F.);
#716=ADVANCED_FACE('',(#92),#56,.F.);
#717=ADVANCED_FACE('',(#93),#681,.F.);
#718=ADVANCED_FACE('',(#94),#57,.F.);
#719=ADVANCED_FACE('',(#95),#682,.F.);
#720=ADVANCED_FACE('',(#96),#58,.F.);
#721=ADVANCED_FACE('',(#97),#683,.F.);
#722=ADVANCED_FACE('',(#98),#59,.F.);
#723=ADVANCED_FACE('',(#99),#684,.F.);
#724=ADVANCED_FACE('',(#100),#60,.F.);
#725=ADVANCED_FACE('',(#101),#685,.F.);
#726=ADVANCED_FACE('',(#102),#61,.F.);
#727=ADVANCED_FACE('',(#103),#686,.F.);
#728=ADVANCED_FACE('',(#104),#62,.F.);
#729=ADVANCED_FACE('',(#105),#687,.F.);
#730=ADVANCED_FACE('',(#106),#63,.F.);
#731=ADVANCED_FACE('',(#107),#688,.F.);
#732=ADVANCED_FACE('',(#108),#64,.F.);
#733=ADVANCED_FACE('',(#109),#689,.F.);
#734=ADVANCED_FACE('',(#110),#65,.F.);
#735=ADVANCED_FACE('',(#111),#690,.F.);
#736=ADVANCED_FACE('',(#112),#66,.F.);
#737=ADVANCED_FACE('',(#113),#691,.F.);
#738=ADVANCED_FACE('',(#114),#67,.F.);
#739=ADVANCED_FACE('',(#115),#692,.F.);
#740=ADVANCED_FACE('',(#116),#68,.F.);
#741=ADVANCED_FACE('',(#117),#693,.F.);
#742=ADVANCED_FACE('',(#118),#69,.F.);
#743=ADVANCED_FACE('',(#119),#694,.F.);
#744=ADVANCED_FACE('',(#120),#70,.F.);
#745=ADVANCED_FACE('',(#121),#695,.F.);
#746=ADVANCED_FACE('',(#122),#71,.F.);
#747=ADVANCED_FACE('',(#123),#696,.F.);
#748=ADVANCED_FACE('',(#124),#697,.F.);
#749=ADVANCED_FACE('',(#125,#15),#72,.F.);
#750=ADVANCED_FACE('',(#126),#698,.T.);
#751=ADVANCED_FACE('',(#127,#16,#17,#18,#19,#20,#21,#22,#23,#24,#25,#26,
#27,#28,#29,#30,#31,#32,#33,#34,#35,#36,#37,#38,#39,#40,#41,#42,#43),#73,
 .T.);
#752=ADVANCED_FACE('',(#128,#44,#45,#46,#47,#48,#49,#50),#74,.T.);
#753=CLOSED_SHELL('',(#699,#700,#701,#702,#703,#704,#705,#706,#707,#708,
#709,#710,#711,#712,#713,#714,#715,#716,#717,#718,#719,#720,#721,#722,#723,
#724,#725,#726,#727,#728,#729,#730,#731,#732,#733,#734,#735,#736,#737,#738,
#739,#740,#741,#742,#743,#744,#745,#746,#747,#748,#749,#750,#751,#752));
#754=DERIVED_UNIT_ELEMENT(#756,1.);
#755=DERIVED_UNIT_ELEMENT(#1351,-3.);
#756=(
MASS_UNIT()
NAMED_UNIT(*)
SI_UNIT(.KILO.,.GRAM.)
);
#757=DERIVED_UNIT((#754,#755));
#758=MEASURE_REPRESENTATION_ITEM('density measure',
POSITIVE_RATIO_MEASURE(7850.),#757);
#759=PROPERTY_DEFINITION_REPRESENTATION(#764,#761);
#760=PROPERTY_DEFINITION_REPRESENTATION(#765,#762);
#761=REPRESENTATION('material name',(#763),#1348);
#762=REPRESENTATION('density',(#758),#1348);
#763=DESCRIPTIVE_REPRESENTATION_ITEM('Steel','Steel');
#764=PROPERTY_DEFINITION('material property','material name',#1358);
#765=PROPERTY_DEFINITION('material property','density of part',#1358);
#766=AXIS2_PLACEMENT_3D('',#1141,#881,#882);
#767=AXIS2_PLACEMENT_3D('',#1142,#883,#884);
#768=AXIS2_PLACEMENT_3D('',#1144,#885,#886);
#769=AXIS2_PLACEMENT_3D('',#1147,#888,#889);
#770=AXIS2_PLACEMENT_3D('',#1148,#890,#891);
#771=AXIS2_PLACEMENT_3D('',#1150,#892,#893);
#772=AXIS2_PLACEMENT_3D('',#1153,#895,#896);
#773=AXIS2_PLACEMENT_3D('',#1154,#897,#898);
#774=AXIS2_PLACEMENT_3D('',#1156,#899,#900);
#775=AXIS2_PLACEMENT_3D('',#1159,#902,#903);
#776=AXIS2_PLACEMENT_3D('',#1160,#904,#905);
#777=AXIS2_PLACEMENT_3D('',#1162,#906,#907);
#778=AXIS2_PLACEMENT_3D('',#1165,#909,#910);
#779=AXIS2_PLACEMENT_3D('',#1166,#911,#912);
#780=AXIS2_PLACEMENT_3D('',#1168,#913,#914);
#781=AXIS2_PLACEMENT_3D('',#1171,#916,#917);
#782=AXIS2_PLACEMENT_3D('',#1172,#918,#919);
#783=AXIS2_PLACEMENT_3D('',#1174,#920,#921);
#784=AXIS2_PLACEMENT_3D('',#1177,#923,#924);
#785=AXIS2_PLACEMENT_3D('',#1178,#925,#926);
#786=AXIS2_PLACEMENT_3D('',#1180,#927,#928);
#787=AXIS2_PLACEMENT_3D('',#1183,#930,#931);
#788=AXIS2_PLACEMENT_3D('',#1184,#932,#933);
#789=AXIS2_PLACEMENT_3D('',#1185,#934,#935);
#790=AXIS2_PLACEMENT_3D('',#1187,#936,#937);
#791=AXIS2_PLACEMENT_3D('',#1190,#939,#940);
#792=AXIS2_PLACEMENT_3D('',#1191,#941,#942);
#793=AXIS2_PLACEMENT_3D('',#1192,#943,#944);
#794=AXIS2_PLACEMENT_3D('',#1194,#945,#946);
#795=AXIS2_PLACEMENT_3D('',#1197,#948,#949);
#796=AXIS2_PLACEMENT_3D('',#1198,#950,#951);
#797=AXIS2_PLACEMENT_3D('',#1199,#952,#953);
#798=AXIS2_PLACEMENT_3D('',#1201,#954,#955);
#799=AXIS2_PLACEMENT_3D('',#1204,#957,#958);
#800=AXIS2_PLACEMENT_3D('',#1205,#959,#960);
#801=AXIS2_PLACEMENT_3D('',#1206,#961,#962);
#802=AXIS2_PLACEMENT_3D('',#1208,#963,#964);
#803=AXIS2_PLACEMENT_3D('',#1211,#966,#967);
#804=AXIS2_PLACEMENT_3D('',#1212,#968,#969);
#805=AXIS2_PLACEMENT_3D('',#1213,#970,#971);
#806=AXIS2_PLACEMENT_3D('',#1215,#972,#973);
#807=AXIS2_PLACEMENT_3D('',#1218,#975,#976);
#808=AXIS2_PLACEMENT_3D('',#1219,#977,#978);
#809=AXIS2_PLACEMENT_3D('',#1220,#979,#980);
#810=AXIS2_PLACEMENT_3D('',#1222,#981,#982);
#811=AXIS2_PLACEMENT_3D('',#1225,#984,#985);
#812=AXIS2_PLACEMENT_3D('',#1226,#986,#987);
#813=AXIS2_PLACEMENT_3D('',#1227,#988,#989);
#814=AXIS2_PLACEMENT_3D('',#1229,#990,#991);
#815=AXIS2_PLACEMENT_3D('',#1232,#993,#994);
#816=AXIS2_PLACEMENT_3D('',#1233,#995,#996);
#817=AXIS2_PLACEMENT_3D('',#1234,#997,#998);
#818=AXIS2_PLACEMENT_3D('',#1236,#999,#1000);
#819=AXIS2_PLACEMENT_3D('',#1239,#1002,#1003);
#820=AXIS2_PLACEMENT_3D('',#1240,#1004,#1005);
#821=AXIS2_PLACEMENT_3D('',#1241,#1006,#1007);
#822=AXIS2_PLACEMENT_3D('',#1243,#1008,#1009);
#823=AXIS2_PLACEMENT_3D('',#1246,#1011,#1012);
#824=AXIS2_PLACEMENT_3D('',#1247,#1013,#1014);
#825=AXIS2_PLACEMENT_3D('',#1248,#1015,#1016);
#826=AXIS2_PLACEMENT_3D('',#1250,#1017,#1018);
#827=AXIS2_PLACEMENT_3D('',#1253,#1020,#1021);
#828=AXIS2_PLACEMENT_3D('',#1254,#1022,#1023);
#829=AXIS2_PLACEMENT_3D('',#1255,#1024,#1025);
#830=AXIS2_PLACEMENT_3D('',#1257,#1026,#1027);
#831=AXIS2_PLACEMENT_3D('',#1260,#1029,#1030);
#832=AXIS2_PLACEMENT_3D('',#1261,#1031,#1032);
#833=AXIS2_PLACEMENT_3D('',#1262,#1033,#1034);
#834=AXIS2_PLACEMENT_3D('',#1264,#1035,#1036);
#835=AXIS2_PLACEMENT_3D('',#1267,#1038,#1039);
#836=AXIS2_PLACEMENT_3D('',#1268,#1040,#1041);
#837=AXIS2_PLACEMENT_3D('',#1269,#1042,#1043);
#838=AXIS2_PLACEMENT_3D('',#1271,#1044,#1045);
#839=AXIS2_PLACEMENT_3D('',#1274,#1047,#1048);
#840=AXIS2_PLACEMENT_3D('',#1275,#1049,#1050);
#841=AXIS2_PLACEMENT_3D('',#1276,#1051,#1052);
#842=AXIS2_PLACEMENT_3D('',#1278,#1053,#1054);
#843=AXIS2_PLACEMENT_3D('',#1281,#1056,#1057);
#844=AXIS2_PLACEMENT_3D('',#1282,#1058,#1059);
#845=AXIS2_PLACEMENT_3D('',#1283,#1060,#1061);
#846=AXIS2_PLACEMENT_3D('',#1285,#1062,#1063);
#847=AXIS2_PLACEMENT_3D('',#1288,#1065,#1066);
#848=AXIS2_PLACEMENT_3D('',#1289,#1067,#1068);
#849=AXIS2_PLACEMENT_3D('',#1290,#1069,#1070);
#850=AXIS2_PLACEMENT_3D('',#1292,#1071,#1072);
#851=AXIS2_PLACEMENT_3D('',#1295,#1074,#1075);
#852=AXIS2_PLACEMENT_3D('',#1296,#1076,#1077);
#853=AXIS2_PLACEMENT_3D('',#1297,#1078,#1079);
#854=AXIS2_PLACEMENT_3D('',#1299,#1080,#1081);
#855=AXIS2_PLACEMENT_3D('',#1302,#1083,#1084);
#856=AXIS2_PLACEMENT_3D('',#1303,#1085,#1086);
#857=AXIS2_PLACEMENT_3D('',#1304,#1087,#1088);
#858=AXIS2_PLACEMENT_3D('',#1306,#1089,#1090);
#859=AXIS2_PLACEMENT_3D('',#1309,#1092,#1093);
#860=AXIS2_PLACEMENT_3D('',#1310,#1094,#1095);
#861=AXIS2_PLACEMENT_3D('',#1311,#1096,#1097);
#862=AXIS2_PLACEMENT_3D('',#1313,#1098,#1099);
#863=AXIS2_PLACEMENT_3D('',#1316,#1101,#1102);
#864=AXIS2_PLACEMENT_3D('',#1317,#1103,#1104);
#865=AXIS2_PLACEMENT_3D('',#1318,#1105,#1106);
#866=AXIS2_PLACEMENT_3D('',#1320,#1107,#1108);
#867=AXIS2_PLACEMENT_3D('',#1323,#1110,#1111);
#868=AXIS2_PLACEMENT_3D('',#1324,#1112,#1113);
#869=AXIS2_PLACEMENT_3D('',#1325,#1114,#1115);
#870=AXIS2_PLACEMENT_3D('',#1327,#1116,#1117);
#871=AXIS2_PLACEMENT_3D('',#1330,#1119,#1120);
#872=AXIS2_PLACEMENT_3D('',#1331,#1121,#1122);
#873=AXIS2_PLACEMENT_3D('',#1333,#1123,#1124);
#874=AXIS2_PLACEMENT_3D('',#1336,#1126,#1127);
#875=AXIS2_PLACEMENT_3D('',#1337,#1128,#1129);
#876=AXIS2_PLACEMENT_3D('',#1338,#1130,#1131);
#877=AXIS2_PLACEMENT_3D('',#1340,#1132,#1133);
#878=AXIS2_PLACEMENT_3D('',#1343,#1135,#1136);
#879=AXIS2_PLACEMENT_3D('',#1344,#1137,#1138);
#880=AXIS2_PLACEMENT_3D('',#1345,#1139,#1140);
#881=DIRECTION('axis',(0.,0.,1.));
#882=DIRECTION('refdir',(1.,0.,0.));
#883=DIRECTION('center_axis',(0.,0.,1.));
#884=DIRECTION('ref_axis',(1.,0.,0.));
#885=DIRECTION('center_axis',(0.,0.,1.));
#886=DIRECTION('ref_axis',(1.,0.,0.));
#887=DIRECTION('',(0.,0.,1.));
#888=DIRECTION('center_axis',(0.,0.,-1.));
#889=DIRECTION('ref_axis',(1.,0.,0.));
#890=DIRECTION('center_axis',(0.,0.,1.));
#891=DIRECTION('ref_axis',(1.,0.,0.));
#892=DIRECTION('center_axis',(0.,0.,1.));
#893=DIRECTION('ref_axis',(1.,0.,0.));
#894=DIRECTION('',(0.,0.,1.));
#895=DIRECTION('center_axis',(0.,0.,-1.));
#896=DIRECTION('ref_axis',(1.,0.,0.));
#897=DIRECTION('center_axis',(0.,0.,1.));
#898=DIRECTION('ref_axis',(1.,0.,0.));
#899=DIRECTION('center_axis',(0.,0.,1.));
#900=DIRECTION('ref_axis',(1.,0.,0.));
#901=DIRECTION('',(0.,0.,1.));
#902=DIRECTION('center_axis',(0.,0.,-1.));
#903=DIRECTION('ref_axis',(1.,0.,0.));
#904=DIRECTION('center_axis',(0.,0.,1.));
#905=DIRECTION('ref_axis',(1.,0.,0.));
#906=DIRECTION('center_axis',(0.,0.,1.));
#907=DIRECTION('ref_axis',(1.,0.,0.));
#908=DIRECTION('',(0.,0.,1.));
#909=DIRECTION('center_axis',(0.,0.,-1.));
#910=DIRECTION('ref_axis',(1.,0.,0.));
#911=DIRECTION('center_axis',(0.,0.,1.));
#912=DIRECTION('ref_axis',(1.,0.,0.));
#913=DIRECTION('center_axis',(0.,0.,1.));
#914=DIRECTION('ref_axis',(1.,0.,0.));
#915=DIRECTION('',(0.,0.,1.));
#916=DIRECTION('center_axis',(0.,0.,-1.));
#917=DIRECTION('ref_axis',(1.,0.,0.));
#918=DIRECTION('center_axis',(0.,0.,1.));
#919=DIRECTION('ref_axis',(1.,0.,0.));
#920=DIRECTION('center_axis',(0.,0.,1.));
#921=DIRECTION('ref_axis',(1.,0.,0.));
#922=DIRECTION('',(0.,0.,1.));
#923=DIRECTION('center_axis',(0.,0.,-1.));
#924=DIRECTION('ref_axis',(1.,0.,0.));
#925=DIRECTION('center_axis',(0.,0.,1.));
#926=DIRECTION('ref_axis',(1.,0.,0.));
#927=DIRECTION('center_axis',(0.,0.,1.));
#928=DIRECTION('ref_axis',(1.,0.,0.));
#929=DIRECTION('',(0.,0.,1.));
#930=DIRECTION('center_axis',(0.,0.,1.));
#931=DIRECTION('ref_axis',(1.,0.,0.));
#932=DIRECTION('center_axis',(0.,0.,1.));
#933=DIRECTION('ref_axis',(1.,0.,0.));
#934=DIRECTION('center_axis',(0.,0.,1.));
#935=DIRECTION('ref_axis',(1.,0.,0.));
#936=DIRECTION('center_axis',(0.,0.,1.));
#937=DIRECTION('ref_axis',(1.,0.,0.));
#938=DIRECTION('',(0.,0.,1.));
#939=DIRECTION('center_axis',(0.,0.,1.));
#940=DIRECTION('ref_axis',(1.,0.,0.));
#941=DIRECTION('center_axis',(0.,0.,1.));
#942=DIRECTION('ref_axis',(1.,0.,0.));
#943=DIRECTION('center_axis',(0.,0.,1.));
#944=DIRECTION('ref_axis',(1.,0.,0.));
#945=DIRECTION('center_axis',(0.,0.,1.));
#946=DIRECTION('ref_axis',(1.,0.,0.));
#947=DIRECTION('',(0.,0.,1.));
#948=DIRECTION('center_axis',(0.,0.,1.));
#949=DIRECTION('ref_axis',(1.,0.,0.));
#950=DIRECTION('center_axis',(0.,0.,1.));
#951=DIRECTION('ref_axis',(1.,0.,0.));
#952=DIRECTION('center_axis',(0.,0.,1.));
#953=DIRECTION('ref_axis',(1.,0.,0.));
#954=DIRECTION('center_axis',(0.,0.,1.));
#955=DIRECTION('ref_axis',(1.,0.,0.));
#956=DIRECTION('',(0.,0.,1.));
#957=DIRECTION('center_axis',(0.,0.,1.));
#958=DIRECTION('ref_axis',(1.,0.,0.));
#959=DIRECTION('center_axis',(0.,0.,1.));
#960=DIRECTION('ref_axis',(1.,0.,0.));
#961=DIRECTION('center_axis',(0.,0.,1.));
#962=DIRECTION('ref_axis',(1.,0.,0.));
#963=DIRECTION('center_axis',(0.,0.,1.));
#964=DIRECTION('ref_axis',(1.,0.,0.));
#965=DIRECTION('',(0.,0.,1.));
#966=DIRECTION('center_axis',(0.,0.,1.));
#967=DIRECTION('ref_axis',(1.,0.,0.));
#968=DIRECTION('center_axis',(0.,0.,1.));
#969=DIRECTION('ref_axis',(1.,0.,0.));
#970=DIRECTION('center_axis',(0.,0.,1.));
#971=DIRECTION('ref_axis',(1.,0.,0.));
#972=DIRECTION('center_axis',(0.,0.,1.));
#973=DIRECTION('ref_axis',(1.,0.,0.));
#974=DIRECTION('',(0.,0.,1.));
#975=DIRECTION('center_axis',(0.,0.,1.));
#976=DIRECTION('ref_axis',(1.,0.,0.));
#977=DIRECTION('center_axis',(0.,0.,1.));
#978=DIRECTION('ref_axis',(1.,0.,0.));
#979=DIRECTION('center_axis',(0.,0.,1.));
#980=DIRECTION('ref_axis',(1.,0.,0.));
#981=DIRECTION('center_axis',(0.,0.,1.));
#982=DIRECTION('ref_axis',(1.,0.,0.));
#983=DIRECTION('',(0.,0.,1.));
#984=DIRECTION('center_axis',(0.,0.,1.));
#985=DIRECTION('ref_axis',(1.,0.,0.));
#986=DIRECTION('center_axis',(0.,0.,1.));
#987=DIRECTION('ref_axis',(1.,0.,0.));
#988=DIRECTION('center_axis',(0.,0.,1.));
#989=DIRECTION('ref_axis',(1.,0.,0.));
#990=DIRECTION('center_axis',(0.,0.,1.));
#991=DIRECTION('ref_axis',(1.,0.,0.));
#992=DIRECTION('',(0.,0.,1.));
#993=DIRECTION('center_axis',(0.,0.,1.));
#994=DIRECTION('ref_axis',(1.,0.,0.));
#995=DIRECTION('center_axis',(0.,0.,1.));
#996=DIRECTION('ref_axis',(1.,0.,0.));
#997=DIRECTION('center_axis',(0.,0.,1.));
#998=DIRECTION('ref_axis',(1.,0.,0.));
#999=DIRECTION('center_axis',(0.,0.,1.));
#1000=DIRECTION('ref_axis',(1.,0.,0.));
#1001=DIRECTION('',(0.,0.,1.));
#1002=DIRECTION('center_axis',(0.,0.,1.));
#1003=DIRECTION('ref_axis',(1.,0.,0.));
#1004=DIRECTION('center_axis',(0.,0.,1.));
#1005=DIRECTION('ref_axis',(1.,0.,0.));
#1006=DIRECTION('center_axis',(0.,0.,1.));
#1007=DIRECTION('ref_axis',(1.,0.,0.));
#1008=DIRECTION('center_axis',(0.,0.,1.));
#1009=DIRECTION('ref_axis',(1.,0.,0.));
#1010=DIRECTION('',(0.,0.,1.));
#1011=DIRECTION('center_axis',(0.,0.,1.));
#1012=DIRECTION('ref_axis',(1.,0.,0.));
#1013=DIRECTION('center_axis',(0.,0.,1.));
#1014=DIRECTION('ref_axis',(1.,0.,0.));
#1015=DIRECTION('center_axis',(0.,0.,1.));
#1016=DIRECTION('ref_axis',(1.,0.,0.));
#1017=DIRECTION('center_axis',(0.,0.,1.));
#1018=DIRECTION('ref_axis',(1.,0.,0.));
#1019=DIRECTION('',(0.,0.,1.));
#1020=DIRECTION('center_axis',(0.,0.,1.));
#1021=DIRECTION('ref_axis',(1.,0.,0.));
#1022=DIRECTION('center_axis',(0.,0.,1.));
#1023=DIRECTION('ref_axis',(1.,0.,0.));
#1024=DIRECTION('center_axis',(0.,0.,1.));
#1025=DIRECTION('ref_axis',(1.,0.,0.));
#1026=DIRECTION('center_axis',(0.,0.,1.));
#1027=DIRECTION('ref_axis',(1.,0.,0.));
#1028=DIRECTION('',(0.,0.,1.));
#1029=DIRECTION('center_axis',(0.,0.,1.));
#1030=DIRECTION('ref_axis',(1.,0.,0.));
#1031=DIRECTION('center_axis',(0.,0.,1.));
#1032=DIRECTION('ref_axis',(1.,0.,0.));
#1033=DIRECTION('center_axis',(0.,0.,1.));
#1034=DIRECTION('ref_axis',(1.,0.,0.));
#1035=DIRECTION('center_axis',(0.,0.,1.));
#1036=DIRECTION('ref_axis',(1.,0.,0.));
#1037=DIRECTION('',(0.,0.,1.));
#1038=DIRECTION('center_axis',(0.,0.,1.));
#1039=DIRECTION('ref_axis',(1.,0.,0.));
#1040=DIRECTION('center_axis',(0.,0.,1.));
#1041=DIRECTION('ref_axis',(1.,0.,0.));
#1042=DIRECTION('center_axis',(0.,0.,1.));
#1043=DIRECTION('ref_axis',(1.,0.,0.));
#1044=DIRECTION('center_axis',(0.,0.,1.));
#1045=DIRECTION('ref_axis',(1.,0.,0.));
#1046=DIRECTION('',(0.,0.,1.));
#1047=DIRECTION('center_axis',(0.,0.,1.));
#1048=DIRECTION('ref_axis',(1.,0.,0.));
#1049=DIRECTION('center_axis',(0.,0.,1.));
#1050=DIRECTION('ref_axis',(1.,0.,0.));
#1051=DIRECTION('center_axis',(0.,0.,1.));
#1052=DIRECTION('ref_axis',(1.,0.,0.));
#1053=DIRECTION('center_axis',(0.,0.,1.));
#1054=DIRECTION('ref_axis',(1.,0.,0.));
#1055=DIRECTION('',(0.,0.,1.));
#1056=DIRECTION('center_axis',(0.,0.,1.));
#1057=DIRECTION('ref_axis',(1.,0.,0.));
#1058=DIRECTION('center_axis',(0.,0.,1.));
#1059=DIRECTION('ref_axis',(1.,0.,0.));
#1060=DIRECTION('center_axis',(0.,0.,1.));
#1061=DIRECTION('ref_axis',(1.,0.,0.));
#1062=DIRECTION('center_axis',(0.,0.,1.));
#1063=DIRECTION('ref_axis',(1.,0.,0.));
#1064=DIRECTION('',(0.,0.,1.));
#1065=DIRECTION('center_axis',(0.,0.,1.));
#1066=DIRECTION('ref_axis',(1.,0.,0.));
#1067=DIRECTION('center_axis',(0.,0.,1.));
#1068=DIRECTION('ref_axis',(1.,0.,0.));
#1069=DIRECTION('center_axis',(0.,0.,1.));
#1070=DIRECTION('ref_axis',(1.,0.,0.));
#1071=DIRECTION('center_axis',(0.,0.,1.));
#1072=DIRECTION('ref_axis',(1.,0.,0.));
#1073=DIRECTION('',(0.,0.,1.));
#1074=DIRECTION('center_axis',(0.,0.,1.));
#1075=DIRECTION('ref_axis',(1.,0.,0.));
#1076=DIRECTION('center_axis',(0.,0.,1.));
#1077=DIRECTION('ref_axis',(1.,0.,0.));
#1078=DIRECTION('center_axis',(0.,0.,1.));
#1079=DIRECTION('ref_axis',(1.,0.,0.));
#1080=DIRECTION('center_axis',(0.,0.,1.));
#1081=DIRECTION('ref_axis',(1.,0.,0.));
#1082=DIRECTION('',(0.,0.,1.));
#1083=DIRECTION('center_axis',(0.,0.,1.));
#1084=DIRECTION('ref_axis',(1.,0.,0.));
#1085=DIRECTION('center_axis',(0.,0.,1.));
#1086=DIRECTION('ref_axis',(1.,0.,0.));
#1087=DIRECTION('center_axis',(0.,0.,1.));
#1088=DIRECTION('ref_axis',(1.,0.,0.));
#1089=DIRECTION('center_axis',(0.,0.,1.));
#1090=DIRECTION('ref_axis',(1.,0.,0.));
#1091=DIRECTION('',(0.,0.,1.));
#1092=DIRECTION('center_axis',(0.,0.,1.));
#1093=DIRECTION('ref_axis',(1.,0.,0.));
#1094=DIRECTION('center_axis',(0.,0.,1.));
#1095=DIRECTION('ref_axis',(1.,0.,0.));
#1096=DIRECTION('center_axis',(0.,0.,1.));
#1097=DIRECTION('ref_axis',(1.,0.,0.));
#1098=DIRECTION('center_axis',(0.,0.,1.));
#1099=DIRECTION('ref_axis',(1.,0.,0.));
#1100=DIRECTION('',(0.,0.,1.));
#1101=DIRECTION('center_axis',(0.,0.,1.));
#1102=DIRECTION('ref_axis',(1.,0.,0.));
#1103=DIRECTION('center_axis',(0.,0.,1.));
#1104=DIRECTION('ref_axis',(1.,0.,0.));
#1105=DIRECTION('center_axis',(0.,0.,1.));
#1106=DIRECTION('ref_axis',(1.,0.,0.));
#1107=DIRECTION('center_axis',(0.,0.,1.));
#1108=DIRECTION('ref_axis',(1.,0.,0.));
#1109=DIRECTION('',(0.,0.,1.));
#1110=DIRECTION('center_axis',(0.,0.,1.));
#1111=DIRECTION('ref_axis',(1.,0.,0.));
#1112=DIRECTION('center_axis',(0.,0.,1.));
#1113=DIRECTION('ref_axis',(1.,0.,0.));
#1114=DIRECTION('center_axis',(0.,0.,1.));
#1115=DIRECTION('ref_axis',(1.,0.,0.));
#1116=DIRECTION('center_axis',(0.,0.,1.));
#1117=DIRECTION('ref_axis',(1.,0.,0.));
#1118=DIRECTION('',(0.,0.,1.));
#1119=DIRECTION('center_axis',(0.,0.,-1.));
#1120=DIRECTION('ref_axis',(1.,0.,0.));
#1121=DIRECTION('center_axis',(0.,0.,1.));
#1122=DIRECTION('ref_axis',(1.,0.,0.));
#1123=DIRECTION('center_axis',(0.,0.,1.));
#1124=DIRECTION('ref_axis',(1.,0.,0.));
#1125=DIRECTION('',(0.,0.,1.));
#1126=DIRECTION('center_axis',(0.,0.,1.));
#1127=DIRECTION('ref_axis',(1.,0.,0.));
#1128=DIRECTION('center_axis',(0.,0.,1.));
#1129=DIRECTION('ref_axis',(1.,0.,0.));
#1130=DIRECTION('center_axis',(0.,0.,1.));
#1131=DIRECTION('ref_axis',(1.,0.,0.));
#1132=DIRECTION('center_axis',(0.,0.,1.));
#1133=DIRECTION('ref_axis',(1.,0.,0.));
#1134=DIRECTION('',(0.,0.,-1.));
#1135=DIRECTION('center_axis',(0.,0.,-1.));
#1136=DIRECTION('ref_axis',(1.,0.,0.));
#1137=DIRECTION('center_axis',(0.,0.,-1.));
#1138=DIRECTION('ref_axis',(-1.,0.,0.));
#1139=DIRECTION('center_axis',(0.,0.,1.));
#1140=DIRECTION('ref_axis',(1.,0.,0.));
#1141=CARTESIAN_POINT('',(0.,0.,0.));
#1142=CARTESIAN_POINT('Origin',(16.5,-28.5788383248865,27.25));
#1143=CARTESIAN_POINT('',(14.9,-28.5788383248865,18.5));
#1144=CARTESIAN_POINT('Origin',(16.5,-28.5788383248865,18.5));
#1145=CARTESIAN_POINT('',(14.9,-28.5788383248865,36.));
#1146=CARTESIAN_POINT('',(14.9,-28.5788383248865,27.25));
#1147=CARTESIAN_POINT('Origin',(16.5,-28.5788383248865,36.));
#1148=CARTESIAN_POINT('Origin',(-16.5,-28.5788383248865,27.25));
#1149=CARTESIAN_POINT('',(-18.1,-28.5788383248865,18.5));
#1150=CARTESIAN_POINT('Origin',(-16.5,-28.5788383248865,18.5));
#1151=CARTESIAN_POINT('',(-18.1,-28.5788383248865,36.));
#1152=CARTESIAN_POINT('',(-18.1,-28.5788383248865,27.25));
#1153=CARTESIAN_POINT('Origin',(-16.5,-28.5788383248865,36.));
#1154=CARTESIAN_POINT('Origin',(-33.,4.04133443718627E-15,27.25));
#1155=CARTESIAN_POINT('',(-34.6,3.84539094932269E-15,18.5));
#1156=CARTESIAN_POINT('Origin',(-33.,4.04133443718627E-15,18.5));
#1157=CARTESIAN_POINT('',(-34.6,4.23727792504984E-15,36.));
#1158=CARTESIAN_POINT('',(-34.6,3.84539094932269E-15,27.25));
#1159=CARTESIAN_POINT('Origin',(-33.,4.04133443718627E-15,36.));
#1160=CARTESIAN_POINT('Origin',(-16.5,28.5788383248865,27.25));
#1161=CARTESIAN_POINT('',(-18.1,28.5788383248865,18.5));
#1162=CARTESIAN_POINT('Origin',(-16.5,28.5788383248865,18.5));
#1163=CARTESIAN_POINT('',(-18.1,28.5788383248865,36.));
#1164=CARTESIAN_POINT('',(-18.1,28.5788383248865,27.25));
#1165=CARTESIAN_POINT('Origin',(-16.5,28.5788383248865,36.));
#1166=CARTESIAN_POINT('Origin',(16.5,28.5788383248865,27.25));
#1167=CARTESIAN_POINT('',(14.9,28.5788383248865,18.5));
#1168=CARTESIAN_POINT('Origin',(16.5,28.5788383248865,18.5));
#1169=CARTESIAN_POINT('',(14.9,28.5788383248865,36.));
#1170=CARTESIAN_POINT('',(14.9,28.5788383248865,27.25));
#1171=CARTESIAN_POINT('Origin',(16.5,28.5788383248865,36.));
#1172=CARTESIAN_POINT('Origin',(33.,0.,27.25));
#1173=CARTESIAN_POINT('',(31.4,-1.95943487863577E-16,18.5));
#1174=CARTESIAN_POINT('Origin',(33.,0.,18.5));
#1175=CARTESIAN_POINT('',(31.4,1.95943487863577E-16,36.));
#1176=CARTESIAN_POINT('',(31.4,-1.95943487863577E-16,27.25));
#1177=CARTESIAN_POINT('Origin',(33.,0.,36.));
#1178=CARTESIAN_POINT('Origin',(26.7560385620119,-8.25314488350533,21.8));
#1179=CARTESIAN_POINT('',(23.7060385620119,-8.25314488350533,18.5));
#1180=CARTESIAN_POINT('Origin',(26.7560385620119,-8.25314488350533,18.5));
#1181=CARTESIAN_POINT('',(23.7060385620119,-8.25314488350533,25.2));
#1182=CARTESIAN_POINT('',(23.7060385620119,-8.25314488350533,21.8));
#1183=CARTESIAN_POINT('Origin',(26.7560385620119,-8.25314488350533,25.2));
#1184=CARTESIAN_POINT('Origin',(26.7560385620119,-8.25314488350533,25.2));
#1185=CARTESIAN_POINT('Origin',(23.1346856808478,-15.7729616257814,21.8));
#1186=CARTESIAN_POINT('',(20.0846856808478,-15.7729616257814,18.5));
#1187=CARTESIAN_POINT('Origin',(23.1346856808478,-15.7729616257814,18.5));
#1188=CARTESIAN_POINT('',(20.0846856808478,-15.7729616257814,25.2));
#1189=CARTESIAN_POINT('',(20.0846856808478,-15.7729616257814,21.8));
#1190=CARTESIAN_POINT('Origin',(23.1346856808478,-15.7729616257814,25.2));
#1191=CARTESIAN_POINT('Origin',(23.1346856808478,-15.7729616257814,25.2));
#1192=CARTESIAN_POINT('Origin',(17.4577144520445,-21.8912815091048,21.8));
#1193=CARTESIAN_POINT('',(14.4077144520445,-21.8912815091048,18.5));
#1194=CARTESIAN_POINT('Origin',(17.4577144520445,-21.8912815091048,18.5));
#1195=CARTESIAN_POINT('',(14.4077144520445,-21.8912815091048,25.2));
#1196=CARTESIAN_POINT('',(14.4077144520445,-21.8912815091048,21.8));
#1197=CARTESIAN_POINT('Origin',(17.4577144520445,-21.8912815091048,25.2));
#1198=CARTESIAN_POINT('Origin',(17.4577144520445,-21.8912815091048,25.2));
#1199=CARTESIAN_POINT('Origin',(10.2295486822591,-26.0644649620377,21.8));
#1200=CARTESIAN_POINT('',(7.17954868225907,-26.0644649620377,18.5));
#1201=CARTESIAN_POINT('Origin',(10.2295486822591,-26.0644649620377,18.5));
#1202=CARTESIAN_POINT('',(7.17954868225907,-26.0644649620377,25.2));
#1203=CARTESIAN_POINT('',(7.17954868225907,-26.0644649620377,21.8));
#1204=CARTESIAN_POINT('Origin',(10.2295486822591,-26.0644649620377,25.2));
#1205=CARTESIAN_POINT('Origin',(10.2295486822591,-26.0644649620377,25.2));
#1206=CARTESIAN_POINT('Origin',(2.09244262041988,-27.921706321073,21.8));
#1207=CARTESIAN_POINT('',(-0.957557379580118,-27.921706321073,18.5));
#1208=CARTESIAN_POINT('Origin',(2.09244262041988,-27.921706321073,18.5));
#1209=CARTESIAN_POINT('',(-0.957557379580118,-27.921706321073,25.2));
#1210=CARTESIAN_POINT('',(-0.957557379580118,-27.921706321073,21.8));
#1211=CARTESIAN_POINT('Origin',(2.09244262041988,-27.921706321073,25.2));
#1212=CARTESIAN_POINT('Origin',(2.09244262041988,-27.921706321073,25.2));
#1213=CARTESIAN_POINT('Origin',(-6.23058615077681,-27.2979815410911,21.8));
#1214=CARTESIAN_POINT('',(-9.28058615077681,-27.2979815410911,18.5));
#1215=CARTESIAN_POINT('Origin',(-6.23058615077681,-27.2979815410911,18.5));
#1216=CARTESIAN_POINT('',(-9.28058615077681,-27.2979815410911,25.2));
#1217=CARTESIAN_POINT('',(-9.28058615077681,-27.2979815410911,21.8));
#1218=CARTESIAN_POINT('Origin',(-6.23058615077681,-27.2979815410911,25.2));
#1219=CARTESIAN_POINT('Origin',(-6.23058615077681,-27.2979815410911,25.2));
#1220=CARTESIAN_POINT('Origin',(-14.,-24.2487113059643,21.8));
#1221=CARTESIAN_POINT('',(-17.05,-24.2487113059643,18.5));
#1222=CARTESIAN_POINT('Origin',(-14.,-24.2487113059643,18.5));
#1223=CARTESIAN_POINT('',(-17.05,-24.2487113059643,25.2));
#1224=CARTESIAN_POINT('',(-17.05,-24.2487113059643,21.8));
#1225=CARTESIAN_POINT('Origin',(-14.,-24.2487113059643,25.2));
#1226=CARTESIAN_POINT('Origin',(-14.,-24.2487113059643,25.2));
#1227=CARTESIAN_POINT('Origin',(-20.5254524112351,-19.0448366575857,21.8));
#1228=CARTESIAN_POINT('',(-23.5754524112351,-19.0448366575857,18.5));
#1229=CARTESIAN_POINT('Origin',(-20.5254524112351,-19.0448366575857,18.5));
#1230=CARTESIAN_POINT('',(-23.5754524112351,-19.0448366575857,25.2));
#1231=CARTESIAN_POINT('',(-23.5754524112351,-19.0448366575857,21.8));
#1232=CARTESIAN_POINT('Origin',(-20.5254524112351,-19.0448366575857,25.2));
#1233=CARTESIAN_POINT('Origin',(-20.5254524112351,-19.0448366575857,25.2));
#1234=CARTESIAN_POINT('Origin',(-25.2271283012677,-12.1487446952916,21.8));
#1235=CARTESIAN_POINT('',(-28.2771283012677,-12.1487446952916,18.5));
#1236=CARTESIAN_POINT('Origin',(-25.2271283012677,-12.1487446952916,18.5));
#1237=CARTESIAN_POINT('',(-28.2771283012677,-12.1487446952916,25.2));
#1238=CARTESIAN_POINT('',(-28.2771283012677,-12.1487446952916,21.8));
#1239=CARTESIAN_POINT('Origin',(-25.2271283012677,-12.1487446952916,25.2));
#1240=CARTESIAN_POINT('Origin',(-25.2271283012677,-12.1487446952916,25.2));
#1241=CARTESIAN_POINT('Origin',(-27.6872631343036,-4.17318345293287,21.8));
#1242=CARTESIAN_POINT('',(-30.7372631343036,-4.17318345293287,18.5));
#1243=CARTESIAN_POINT('Origin',(-27.6872631343036,-4.17318345293287,18.5));
#1244=CARTESIAN_POINT('',(-30.7372631343036,-4.17318345293287,25.2));
#1245=CARTESIAN_POINT('',(-30.7372631343036,-4.17318345293287,21.8));
#1246=CARTESIAN_POINT('Origin',(-27.6872631343036,-4.17318345293287,25.2));
#1247=CARTESIAN_POINT('Origin',(-27.6872631343036,-4.17318345293287,25.2));
#1248=CARTESIAN_POINT('Origin',(-27.6872631343036,4.17318345293289,21.8));
#1249=CARTESIAN_POINT('',(-30.7372631343036,4.17318345293289,18.5));
#1250=CARTESIAN_POINT('Origin',(-27.6872631343036,4.17318345293289,18.5));
#1251=CARTESIAN_POINT('',(-30.7372631343036,4.17318345293289,25.2));
#1252=CARTESIAN_POINT('',(-30.7372631343036,4.17318345293289,21.8));
#1253=CARTESIAN_POINT('Origin',(-27.6872631343036,4.17318345293289,25.2));
#1254=CARTESIAN_POINT('Origin',(-27.6872631343036,4.17318345293289,25.2));
#1255=CARTESIAN_POINT('Origin',(-25.2271283012677,12.1487446952916,21.8));
#1256=CARTESIAN_POINT('',(-28.2771283012677,12.1487446952916,18.5));
#1257=CARTESIAN_POINT('Origin',(-25.2271283012677,12.1487446952916,18.5));
#1258=CARTESIAN_POINT('',(-28.2771283012677,12.1487446952916,25.2));
#1259=CARTESIAN_POINT('',(-28.2771283012677,12.1487446952916,21.8));
#1260=CARTESIAN_POINT('Origin',(-25.2271283012677,12.1487446952916,25.2));
#1261=CARTESIAN_POINT('Origin',(-25.2271283012677,12.1487446952916,25.2));
#1262=CARTESIAN_POINT('Origin',(-20.5254524112351,19.0448366575857,21.8));
#1263=CARTESIAN_POINT('',(-23.5754524112351,19.0448366575857,18.5));
#1264=CARTESIAN_POINT('Origin',(-20.5254524112351,19.0448366575857,18.5));
#1265=CARTESIAN_POINT('',(-23.5754524112351,19.0448366575857,25.2));
#1266=CARTESIAN_POINT('',(-23.5754524112351,19.0448366575857,21.8));
#1267=CARTESIAN_POINT('Origin',(-20.5254524112351,19.0448366575857,25.2));
#1268=CARTESIAN_POINT('Origin',(-20.5254524112351,19.0448366575857,25.2));
#1269=CARTESIAN_POINT('Origin',(-14.,24.2487113059643,21.8));
#1270=CARTESIAN_POINT('',(-17.05,24.2487113059643,18.5));
#1271=CARTESIAN_POINT('Origin',(-14.,24.2487113059643,18.5));
#1272=CARTESIAN_POINT('',(-17.05,24.2487113059643,25.2));
#1273=CARTESIAN_POINT('',(-17.05,24.2487113059643,21.8));
#1274=CARTESIAN_POINT('Origin',(-14.,24.2487113059643,25.2));
#1275=CARTESIAN_POINT('Origin',(-14.,24.2487113059643,25.2));
#1276=CARTESIAN_POINT('Origin',(-6.2305861507768,27.2979815410911,21.8));
#1277=CARTESIAN_POINT('',(-9.2805861507768,27.2979815410911,18.5));
#1278=CARTESIAN_POINT('Origin',(-6.2305861507768,27.2979815410911,18.5));
#1279=CARTESIAN_POINT('',(-9.2805861507768,27.2979815410911,25.2));
#1280=CARTESIAN_POINT('',(-9.2805861507768,27.2979815410911,21.8));
#1281=CARTESIAN_POINT('Origin',(-6.2305861507768,27.2979815410911,25.2));
#1282=CARTESIAN_POINT('Origin',(-6.2305861507768,27.2979815410911,25.2));
#1283=CARTESIAN_POINT('Origin',(2.09244262041988,27.921706321073,21.8));
#1284=CARTESIAN_POINT('',(-0.957557379580117,27.921706321073,18.5));
#1285=CARTESIAN_POINT('Origin',(2.09244262041988,27.921706321073,18.5));
#1286=CARTESIAN_POINT('',(-0.957557379580117,27.921706321073,25.2));
#1287=CARTESIAN_POINT('',(-0.957557379580117,27.921706321073,21.8));
#1288=CARTESIAN_POINT('Origin',(2.09244262041988,27.921706321073,25.2));
#1289=CARTESIAN_POINT('Origin',(2.09244262041988,27.921706321073,25.2));
#1290=CARTESIAN_POINT('Origin',(10.2295486822591,26.0644649620377,21.8));
#1291=CARTESIAN_POINT('',(7.17954868225906,26.0644649620377,18.5));
#1292=CARTESIAN_POINT('Origin',(10.2295486822591,26.0644649620377,18.5));
#1293=CARTESIAN_POINT('',(7.17954868225906,26.0644649620377,25.2));
#1294=CARTESIAN_POINT('',(7.17954868225906,26.0644649620377,21.8));
#1295=CARTESIAN_POINT('Origin',(10.2295486822591,26.0644649620377,25.2));
#1296=CARTESIAN_POINT('Origin',(10.2295486822591,26.0644649620377,25.2));
#1297=CARTESIAN_POINT('Origin',(17.4577144520445,21.8912815091048,21.8));
#1298=CARTESIAN_POINT('',(14.4077144520445,21.8912815091048,18.5));
#1299=CARTESIAN_POINT('Origin',(17.4577144520445,21.8912815091048,18.5));
#1300=CARTESIAN_POINT('',(14.4077144520445,21.8912815091048,25.2));
#1301=CARTESIAN_POINT('',(14.4077144520445,21.8912815091048,21.8));
#1302=CARTESIAN_POINT('Origin',(17.4577144520445,21.8912815091048,25.2));
#1303=CARTESIAN_POINT('Origin',(17.4577144520445,21.8912815091048,25.2));
#1304=CARTESIAN_POINT('Origin',(23.1346856808479,15.7729616257814,21.8));
#1305=CARTESIAN_POINT('',(20.0846856808479,15.7729616257814,18.5));
#1306=CARTESIAN_POINT('Origin',(23.1346856808479,15.7729616257814,18.5));
#1307=CARTESIAN_POINT('',(20.0846856808479,15.7729616257814,25.2));
#1308=CARTESIAN_POINT('',(20.0846856808479,15.7729616257814,21.8));
#1309=CARTESIAN_POINT('Origin',(23.1346856808479,15.7729616257814,25.2));
#1310=CARTESIAN_POINT('Origin',(23.1346856808479,15.7729616257814,25.2));
#1311=CARTESIAN_POINT('Origin',(26.7560385620119,8.25314488350532,21.8));
#1312=CARTESIAN_POINT('',(23.7060385620119,8.25314488350532,18.5));
#1313=CARTESIAN_POINT('Origin',(26.7560385620119,8.25314488350532,18.5));
#1314=CARTESIAN_POINT('',(23.7060385620119,8.25314488350532,25.2));
#1315=CARTESIAN_POINT('',(23.7060385620119,8.25314488350532,21.8));
#1316=CARTESIAN_POINT('Origin',(26.7560385620119,8.25314488350532,25.2));
#1317=CARTESIAN_POINT('Origin',(26.7560385620119,8.25314488350532,25.2));
#1318=CARTESIAN_POINT('Origin',(28.,0.,21.8));
#1319=CARTESIAN_POINT('',(24.95,-3.73517273739943E-16,18.5));
#1320=CARTESIAN_POINT('Origin',(28.,0.,18.5));
#1321=CARTESIAN_POINT('',(24.95,-3.73517273739943E-16,25.2));
#1322=CARTESIAN_POINT('',(24.95,-3.73517273739943E-16,21.8));
#1323=CARTESIAN_POINT('Origin',(28.,0.,25.2));
#1324=CARTESIAN_POINT('Origin',(28.,0.,25.2));
#1325=CARTESIAN_POINT('Origin',(0.,0.,34.45));
#1326=CARTESIAN_POINT('',(-12.925,-1.58285598789795E-15,31.9));
#1327=CARTESIAN_POINT('Origin',(0.,0.,31.9));
#1328=CARTESIAN_POINT('',(-12.925,1.58285598789795E-15,36.));
#1329=CARTESIAN_POINT('',(-12.925,-1.58285598789795E-15,34.45));
#1330=CARTESIAN_POINT('Origin',(0.,0.,36.));
#1331=CARTESIAN_POINT('Origin',(0.,0.,24.7));
#1332=CARTESIAN_POINT('',(-24.,-2.93915231795365E-15,18.5));
#1333=CARTESIAN_POINT('Origin',(0.,0.,18.5));
#1334=CARTESIAN_POINT('',(-24.,-2.93915231795365E-15,31.9));
#1335=CARTESIAN_POINT('',(-24.,-2.93915231795365E-15,24.7));
#1336=CARTESIAN_POINT('Origin',(0.,0.,31.9));
#1337=CARTESIAN_POINT('Origin',(0.,0.,31.9));
#1338=CARTESIAN_POINT('Origin',(0.,0.,27.25));
#1339=CARTESIAN_POINT('',(-38.,-4.65365783675994E-15,36.));
#1340=CARTESIAN_POINT('Origin',(0.,0.,36.));
#1341=CARTESIAN_POINT('',(-38.,-4.65365783675994E-15,18.5));
#1342=CARTESIAN_POINT('',(-38.,-4.65365783675994E-15,27.25));
#1343=CARTESIAN_POINT('Origin',(0.,0.,18.5));
#1344=CARTESIAN_POINT('Origin',(0.,0.,18.5));
#1345=CARTESIAN_POINT('Origin',(0.,0.,36.));
#1346=UNCERTAINTY_MEASURE_WITH_UNIT(LENGTH_MEASURE(0.01),#1350,
'DISTANCE_ACCURACY_VALUE',
'Maximum model space distance between geometric entities at asserted c
onnectivities');
#1347=UNCERTAINTY_MEASURE_WITH_UNIT(LENGTH_MEASURE(0.01),#1350,
'DISTANCE_ACCURACY_VALUE',
'Maximum model space distance between geometric entities at asserted c
onnectivities');
#1348=(
GEOMETRIC_REPRESENTATION_CONTEXT(3)
GLOBAL_UNCERTAINTY_ASSIGNED_CONTEXT((#1346))
GLOBAL_UNIT_ASSIGNED_CONTEXT((#1350,#1352,#1353))
REPRESENTATION_CONTEXT('','3D')
);
#1349=(
GEOMETRIC_REPRESENTATION_CONTEXT(3)
GLOBAL_UNCERTAINTY_ASSIGNED_CONTEXT((#1347))
GLOBAL_UNIT_ASSIGNED_CONTEXT((#1350,#1352,#1353))
REPRESENTATION_CONTEXT('','3D')
);
#1350=(
LENGTH_UNIT()
NAMED_UNIT(*)
SI_UNIT(.MILLI.,.METRE.)
);
#1351=(
LENGTH_UNIT()
NAMED_UNIT(*)
SI_UNIT($,.METRE.)
);
#1352=(
NAMED_UNIT(*)
PLANE_ANGLE_UNIT()
SI_UNIT($,.RADIAN.)
);
#1353=(
NAMED_UNIT(*)
SI_UNIT($,.STERADIAN.)
SOLID_ANGLE_UNIT()
);
#1354=SHAPE_DEFINITION_REPRESENTATION(#1355,#1356);
#1355=PRODUCT_DEFINITION_SHAPE('',$,#1358);
#1356=SHAPE_REPRESENTATION('',(#766),#1348);
#1357=PRODUCT_DEFINITION_CONTEXT('part definition',#1362,'design');
#1358=PRODUCT_DEFINITION('rt_cyc20_lid','rt_cyc20_lid',#1359,#1357);
#1359=PRODUCT_DEFINITION_FORMATION('',$,#1364);
#1360=PRODUCT_RELATED_PRODUCT_CATEGORY('rt_cyc20_lid','rt_cyc20_lid',(#1364));
#1361=APPLICATION_PROTOCOL_DEFINITION('international standard',
'automotive_design',2009,#1362);
#1362=APPLICATION_CONTEXT(
'Core Data for Automotive Mechanical Design Process');
#1363=PRODUCT_CONTEXT('part definition',#1362,'mechanical');
#1364=PRODUCT('rt_cyc20_lid','rt_cyc20_lid',$,(#1363));
#1365=PRESENTATION_STYLE_ASSIGNMENT((#1366));
#1366=SURFACE_STYLE_USAGE(.BOTH.,#1367);
#1367=SURFACE_SIDE_STYLE('',(#1368));
#1368=SURFACE_STYLE_FILL_AREA(#1369);
#1369=FILL_AREA_STYLE('Steel - Satin',(#1370));
#1370=FILL_AREA_STYLE_COLOUR('Steel - Satin',#1371);
#1371=COLOUR_RGB('Steel - Satin',0.627450980392157,0.627450980392157,0.627450980392157);
ENDSEC;
END-ISO-10303-21;
