ISO-10303-21;
HEADER;
/* Generated by software containing ST-Developer
 * from STEP Tools, Inc. (www.steptools.com) 
 */

FILE_DESCRIPTION(
/* description */ (''),
/* implementation_level */ '2;1');

FILE_NAME(
/* name */ 'rt_cyc20_output.step',
/* time_stamp */ '2026-07-20T19:47:16-04:00',
/* author */ (''),
/* organization */ (''),
/* preprocessor_version */ 'ST-DEVELOPER v20.1',
/* originating_system */ 'Autodesk Translation Framework v15.8.0.0',
/* authorisation */ '');

FILE_SCHEMA (('AUTOMOTIVE_DESIGN { 1 0 10303 214 3 1 1 }'));
ENDSEC;

DATA;
#10=MECHANICAL_DESIGN_GEOMETRIC_PRESENTATION_REPRESENTATION('',(#13),#1234);
#11=SHAPE_REPRESENTATION_RELATIONSHIP('SRR','None',#1241,#12);
#12=ADVANCED_BREP_SHAPE_REPRESENTATION('',(#14),#1233);
#13=STYLED_ITEM('',(#1250),#14);
#14=MANIFOLD_SOLID_BREP('Body1',#667);
#15=CONICAL_SURFACE('',#720,3.425,0.777133888737794);
#16=CONICAL_SURFACE('',#723,3.425,0.777133888737794);
#17=CONICAL_SURFACE('',#726,3.425,0.777133888737794);
#18=CONICAL_SURFACE('',#729,3.425,0.777133888737794);
#19=CONICAL_SURFACE('',#732,3.425,0.777133888737794);
#20=CONICAL_SURFACE('',#735,3.425,0.777133888737794);
#21=FACE_BOUND('',#185,.T.);
#22=FACE_BOUND('',#186,.T.);
#23=FACE_BOUND('',#196,.T.);
#24=FACE_BOUND('',#199,.T.);
#25=FACE_BOUND('',#224,.T.);
#26=FACE_BOUND('',#227,.T.);
#27=FACE_BOUND('',#231,.T.);
#28=FACE_BOUND('',#232,.T.);
#29=FACE_BOUND('',#233,.T.);
#30=FACE_BOUND('',#234,.T.);
#31=FACE_BOUND('',#235,.T.);
#32=FACE_BOUND('',#236,.T.);
#33=FACE_BOUND('',#237,.T.);
#34=FACE_BOUND('',#239,.T.);
#35=LINE('',#1024,#75);
#36=LINE('',#1029,#76);
#37=LINE('',#1033,#77);
#38=LINE('',#1037,#78);
#39=LINE('',#1042,#79);
#40=LINE('',#1060,#80);
#41=LINE('',#1077,#81);
#42=LINE('',#1081,#82);
#43=LINE('',#1088,#83);
#44=LINE('',#1090,#84);
#45=LINE('',#1092,#85);
#46=LINE('',#1096,#86);
#47=LINE('',#1098,#87);
#48=LINE('',#1101,#88);
#49=LINE('',#1103,#89);
#50=LINE('',#1107,#90);
#51=LINE('',#1112,#91);
#52=LINE('',#1116,#92);
#53=LINE('',#1117,#93);
#54=LINE('',#1118,#94);
#55=LINE('',#1122,#95);
#56=LINE('',#1125,#96);
#57=LINE('',#1126,#97);
#58=LINE('',#1131,#98);
#59=LINE('',#1139,#99);
#60=LINE('',#1146,#100);
#61=LINE('',#1152,#101);
#62=LINE('',#1158,#102);
#63=LINE('',#1164,#103);
#64=LINE('',#1170,#104);
#65=LINE('',#1176,#105);
#66=LINE('',#1180,#106);
#67=LINE('',#1185,#107);
#68=LINE('',#1190,#108);
#69=LINE('',#1195,#109);
#70=LINE('',#1200,#110);
#71=LINE('',#1205,#111);
#72=LINE('',#1217,#112);
#73=LINE('',#1221,#113);
#74=LINE('',#1227,#114);
#75=VECTOR('',#778,10.);
#76=VECTOR('',#783,10.);
#77=VECTOR('',#786,10.);
#78=VECTOR('',#789,12.3);
#79=VECTOR('',#794,10.);
#80=VECTOR('',#797,10.);
#81=VECTOR('',#798,10.);
#82=VECTOR('',#801,10.);
#83=VECTOR('',#808,10.);
#84=VECTOR('',#809,10.);
#85=VECTOR('',#810,10.);
#86=VECTOR('',#817,10.);
#87=VECTOR('',#820,10.);
#88=VECTOR('',#825,10.);
#89=VECTOR('',#828,10.);
#90=VECTOR('',#833,1.7);
#91=VECTOR('',#840,1.7);
#92=VECTOR('',#843,10.);
#93=VECTOR('',#844,10.);
#94=VECTOR('',#845,10.);
#95=VECTOR('',#850,10.);
#96=VECTOR('',#853,10.);
#97=VECTOR('',#854,10.);
#98=VECTOR('',#859,4.175);
#99=VECTOR('',#870,4.375);
#100=VECTOR('',#879,3.425);
#101=VECTOR('',#886,3.425);
#102=VECTOR('',#893,3.425);
#103=VECTOR('',#900,3.425);
#104=VECTOR('',#907,3.425);
#105=VECTOR('',#914,3.425);
#106=VECTOR('',#919,3.125);
#107=VECTOR('',#926,3.125);
#108=VECTOR('',#933,3.125);
#109=VECTOR('',#940,3.125);
#110=VECTOR('',#947,3.125);
#111=VECTOR('',#954,3.125);
#112=VECTOR('',#971,12.525);
#113=VECTOR('',#976,11.);
#114=VECTOR('',#983,23.);
#115=PLANE('',#683);
#116=PLANE('',#693);
#117=PLANE('',#696);
#118=PLANE('',#698);
#119=PLANE('',#700);
#120=PLANE('',#701);
#121=PLANE('',#702);
#122=PLANE('',#707);
#123=PLANE('',#708);
#124=PLANE('',#710);
#125=PLANE('',#715);
#126=PLANE('',#719);
#127=PLANE('',#740);
#128=PLANE('',#743);
#129=PLANE('',#746);
#130=PLANE('',#749);
#131=PLANE('',#752);
#132=PLANE('',#755);
#133=PLANE('',#756);
#134=PLANE('',#757);
#135=PLANE('',#762);
#136=PLANE('',#768);
#137=PLANE('',#769);
#138=FACE_OUTER_BOUND('',#182,.T.);
#139=FACE_OUTER_BOUND('',#183,.T.);
#140=FACE_OUTER_BOUND('',#184,.T.);
#141=FACE_OUTER_BOUND('',#187,.T.);
#142=FACE_OUTER_BOUND('',#188,.T.);
#143=FACE_OUTER_BOUND('',#189,.T.);
#144=FACE_OUTER_BOUND('',#190,.T.);
#145=FACE_OUTER_BOUND('',#191,.T.);
#146=FACE_OUTER_BOUND('',#192,.T.);
#147=FACE_OUTER_BOUND('',#193,.T.);
#148=FACE_OUTER_BOUND('',#194,.T.);
#149=FACE_OUTER_BOUND('',#195,.T.);
#150=FACE_OUTER_BOUND('',#197,.T.);
#151=FACE_OUTER_BOUND('',#198,.T.);
#152=FACE_OUTER_BOUND('',#200,.T.);
#153=FACE_OUTER_BOUND('',#201,.T.);
#154=FACE_OUTER_BOUND('',#202,.T.);
#155=FACE_OUTER_BOUND('',#203,.T.);
#156=FACE_OUTER_BOUND('',#204,.T.);
#157=FACE_OUTER_BOUND('',#205,.T.);
#158=FACE_OUTER_BOUND('',#206,.T.);
#159=FACE_OUTER_BOUND('',#207,.T.);
#160=FACE_OUTER_BOUND('',#208,.T.);
#161=FACE_OUTER_BOUND('',#209,.T.);
#162=FACE_OUTER_BOUND('',#210,.T.);
#163=FACE_OUTER_BOUND('',#211,.T.);
#164=FACE_OUTER_BOUND('',#212,.T.);
#165=FACE_OUTER_BOUND('',#213,.T.);
#166=FACE_OUTER_BOUND('',#214,.T.);
#167=FACE_OUTER_BOUND('',#215,.T.);
#168=FACE_OUTER_BOUND('',#216,.T.);
#169=FACE_OUTER_BOUND('',#217,.T.);
#170=FACE_OUTER_BOUND('',#218,.T.);
#171=FACE_OUTER_BOUND('',#219,.T.);
#172=FACE_OUTER_BOUND('',#220,.T.);
#173=FACE_OUTER_BOUND('',#221,.T.);
#174=FACE_OUTER_BOUND('',#222,.T.);
#175=FACE_OUTER_BOUND('',#223,.T.);
#176=FACE_OUTER_BOUND('',#225,.T.);
#177=FACE_OUTER_BOUND('',#226,.T.);
#178=FACE_OUTER_BOUND('',#228,.T.);
#179=FACE_OUTER_BOUND('',#229,.T.);
#180=FACE_OUTER_BOUND('',#230,.T.);
#181=FACE_OUTER_BOUND('',#238,.T.);
#182=EDGE_LOOP('',(#432,#433));
#183=EDGE_LOOP('',(#434,#435,#436,#437,#438));
#184=EDGE_LOOP('',(#439,#440,#441,#442,#443,#444,#445,#446));
#185=EDGE_LOOP('',(#447,#448,#449,#450));
#186=EDGE_LOOP('',(#451,#452,#453,#454,#455,#456));
#187=EDGE_LOOP('',(#457,#458,#459,#460,#461));
#188=EDGE_LOOP('',(#462,#463,#464));
#189=EDGE_LOOP('',(#465,#466,#467));
#190=EDGE_LOOP('',(#468,#469,#470,#471));
#191=EDGE_LOOP('',(#472,#473,#474,#475));
#192=EDGE_LOOP('',(#476,#477,#478,#479));
#193=EDGE_LOOP('',(#480,#481,#482,#483,#484,#485,#486,#487));
#194=EDGE_LOOP('',(#488,#489,#490,#491,#492,#493));
#195=EDGE_LOOP('',(#494,#495,#496,#497));
#196=EDGE_LOOP('',(#498));
#197=EDGE_LOOP('',(#499,#500,#501,#502));
#198=EDGE_LOOP('',(#503,#504,#505,#506));
#199=EDGE_LOOP('',(#507));
#200=EDGE_LOOP('',(#508,#509,#510,#511,#512,#513,#514,#515));
#201=EDGE_LOOP('',(#516));
#202=EDGE_LOOP('',(#517,#518,#519,#520));
#203=EDGE_LOOP('',(#521));
#204=EDGE_LOOP('',(#522,#523,#524,#525));
#205=EDGE_LOOP('',(#526,#527,#528,#529));
#206=EDGE_LOOP('',(#530,#531,#532,#533));
#207=EDGE_LOOP('',(#534,#535,#536,#537));
#208=EDGE_LOOP('',(#538,#539,#540,#541));
#209=EDGE_LOOP('',(#542,#543,#544,#545));
#210=EDGE_LOOP('',(#546,#547,#548,#549));
#211=EDGE_LOOP('',(#550));
#212=EDGE_LOOP('',(#551,#552,#553,#554));
#213=EDGE_LOOP('',(#555));
#214=EDGE_LOOP('',(#556,#557,#558,#559));
#215=EDGE_LOOP('',(#560));
#216=EDGE_LOOP('',(#561,#562,#563,#564));
#217=EDGE_LOOP('',(#565));
#218=EDGE_LOOP('',(#566,#567,#568,#569));
#219=EDGE_LOOP('',(#570));
#220=EDGE_LOOP('',(#571,#572,#573,#574));
#221=EDGE_LOOP('',(#575));
#222=EDGE_LOOP('',(#576,#577,#578,#579,#580,#581));
#223=EDGE_LOOP('',(#582));
#224=EDGE_LOOP('',(#583));
#225=EDGE_LOOP('',(#584,#585,#586,#587));
#226=EDGE_LOOP('',(#588));
#227=EDGE_LOOP('',(#589));
#228=EDGE_LOOP('',(#590,#591,#592,#593));
#229=EDGE_LOOP('',(#594,#595,#596,#597));
#230=EDGE_LOOP('',(#598));
#231=EDGE_LOOP('',(#599));
#232=EDGE_LOOP('',(#600));
#233=EDGE_LOOP('',(#601));
#234=EDGE_LOOP('',(#602));
#235=EDGE_LOOP('',(#603));
#236=EDGE_LOOP('',(#604));
#237=EDGE_LOOP('',(#605));
#238=EDGE_LOOP('',(#606));
#239=EDGE_LOOP('',(#607));
#240=CIRCLE('',#682,3.);
#241=CIRCLE('',#684,1.7);
#242=CIRCLE('',#685,1.7);
#243=CIRCLE('',#687,12.3);
#244=CIRCLE('',#688,12.3);
#245=CIRCLE('',#689,12.3);
#246=CIRCLE('',#690,12.3);
#247=CIRCLE('',#691,12.3);
#248=CIRCLE('',#692,12.3);
#249=CIRCLE('',#694,1.7);
#250=CIRCLE('',#695,1.7);
#251=CIRCLE('',#697,1.7);
#252=CIRCLE('',#699,1.7);
#253=CIRCLE('',#704,1.7);
#254=CIRCLE('',#706,1.7);
#255=CIRCLE('',#709,4.175);
#256=CIRCLE('',#712,4.175);
#257=CIRCLE('',#713,4.175);
#258=CIRCLE('',#714,4.175);
#259=CIRCLE('',#717,4.375);
#260=CIRCLE('',#718,4.375);
#261=CIRCLE('',#721,3.71516393442623);
#262=CIRCLE('',#722,3.125);
#263=CIRCLE('',#724,3.71516393442623);
#264=CIRCLE('',#725,3.125);
#265=CIRCLE('',#727,3.71516393442623);
#266=CIRCLE('',#728,3.125);
#267=CIRCLE('',#730,3.71516393442623);
#268=CIRCLE('',#731,3.125);
#269=CIRCLE('',#733,3.71516393442623);
#270=CIRCLE('',#734,3.125);
#271=CIRCLE('',#736,3.71516393442623);
#272=CIRCLE('',#737,3.125);
#273=CIRCLE('',#739,3.125);
#274=CIRCLE('',#742,3.125);
#275=CIRCLE('',#745,3.125);
#276=CIRCLE('',#748,3.125);
#277=CIRCLE('',#751,3.125);
#278=CIRCLE('',#754,3.125);
#279=CIRCLE('',#758,12.525);
#280=CIRCLE('',#759,11.);
#281=CIRCLE('',#761,12.525);
#282=CIRCLE('',#764,11.);
#283=CIRCLE('',#766,23.);
#284=CIRCLE('',#767,23.);
#285=B_SPLINE_CURVE_WITH_KNOTS('',3,(#994,#995,#996,#997,#998,#999,#1000,
#1001,#1002,#1003,#1004,#1005,#1006,#1007,#1008,#1009,#1010,#1011,#1012,
#1013,#1014,#1015,#1016,#1017,#1018,#1019,#1020),.UNSPECIFIED.,.F.,.F.,
(4,2,2,2,2,2,3,2,2,2,2,2,4),(-0.729516751706489,-0.702859965749985,-0.509130164727488,
-0.365235896896714,-0.22134162906594,-0.11067081453297,0.,0.11067081453297,
0.22134162906594,0.365235896896714,0.509130164727488,0.702859965749985,
0.729516751706489),.UNSPECIFIED.);
#286=B_SPLINE_CURVE_WITH_KNOTS('',3,(#1044,#1045,#1046,#1047,#1048,#1049,
#1050,#1051,#1052,#1053,#1054,#1055,#1056,#1057),.UNSPECIFIED.,.F.,.F.,
(4,2,2,2,2,2,4),(0.534038207452913,0.558281735979228,0.591126814547577,
0.623971893115926,0.656816971684275,0.689662050252624,0.713905578778938),
 .UNSPECIFIED.);
#287=B_SPLINE_CURVE_WITH_KNOTS('',3,(#1062,#1063,#1064,#1065,#1066,#1067,
#1068,#1069,#1070,#1071,#1072,#1073,#1074,#1075),.UNSPECIFIED.,.F.,.F.,
(4,2,2,2,2,2,4),(0.534038207452913,0.558281735979227,0.591126814547577,
0.623971893115926,0.656816971684275,0.689662050252624,0.713905578778938),
 .UNSPECIFIED.);
#288=VERTEX_POINT('',#992);
#289=VERTEX_POINT('',#993);
#290=VERTEX_POINT('',#1023);
#291=VERTEX_POINT('',#1025);
#292=VERTEX_POINT('',#1027);
#293=VERTEX_POINT('',#1031);
#294=VERTEX_POINT('',#1032);
#295=VERTEX_POINT('',#1034);
#296=VERTEX_POINT('',#1036);
#297=VERTEX_POINT('',#1039);
#298=VERTEX_POINT('',#1041);
#299=VERTEX_POINT('',#1058);
#300=VERTEX_POINT('',#1059);
#301=VERTEX_POINT('',#1061);
#302=VERTEX_POINT('',#1076);
#303=VERTEX_POINT('',#1078);
#304=VERTEX_POINT('',#1080);
#305=VERTEX_POINT('',#1084);
#306=VERTEX_POINT('',#1085);
#307=VERTEX_POINT('',#1087);
#308=VERTEX_POINT('',#1089);
#309=VERTEX_POINT('',#1091);
#310=VERTEX_POINT('',#1106);
#311=VERTEX_POINT('',#1110);
#312=VERTEX_POINT('',#1114);
#313=VERTEX_POINT('',#1115);
#314=VERTEX_POINT('',#1120);
#315=VERTEX_POINT('',#1124);
#316=VERTEX_POINT('',#1128);
#317=VERTEX_POINT('',#1130);
#318=VERTEX_POINT('',#1136);
#319=VERTEX_POINT('',#1138);
#320=VERTEX_POINT('',#1143);
#321=VERTEX_POINT('',#1145);
#322=VERTEX_POINT('',#1149);
#323=VERTEX_POINT('',#1151);
#324=VERTEX_POINT('',#1155);
#325=VERTEX_POINT('',#1157);
#326=VERTEX_POINT('',#1161);
#327=VERTEX_POINT('',#1163);
#328=VERTEX_POINT('',#1167);
#329=VERTEX_POINT('',#1169);
#330=VERTEX_POINT('',#1173);
#331=VERTEX_POINT('',#1175);
#332=VERTEX_POINT('',#1179);
#333=VERTEX_POINT('',#1184);
#334=VERTEX_POINT('',#1189);
#335=VERTEX_POINT('',#1194);
#336=VERTEX_POINT('',#1199);
#337=VERTEX_POINT('',#1204);
#338=VERTEX_POINT('',#1210);
#339=VERTEX_POINT('',#1212);
#340=VERTEX_POINT('',#1215);
#341=VERTEX_POINT('',#1220);
#342=VERTEX_POINT('',#1224);
#343=VERTEX_POINT('',#1226);
#344=EDGE_CURVE('',#288,#289,#285,.T.);
#345=EDGE_CURVE('',#288,#289,#240,.T.);
#346=EDGE_CURVE('',#290,#288,#35,.T.);
#347=EDGE_CURVE('',#291,#290,#241,.T.);
#348=EDGE_CURVE('',#292,#291,#242,.T.);
#349=EDGE_CURVE('',#289,#292,#36,.T.);
#350=EDGE_CURVE('',#293,#294,#37,.T.);
#351=EDGE_CURVE('',#295,#294,#243,.T.);
#352=EDGE_CURVE('',#295,#296,#38,.T.);
#353=EDGE_CURVE('',#296,#296,#244,.T.);
#354=EDGE_CURVE('',#297,#295,#245,.T.);
#355=EDGE_CURVE('',#297,#298,#39,.T.);
#356=EDGE_CURVE('',#298,#293,#246,.T.);
#357=EDGE_CURVE('',#292,#290,#286,.T.);
#358=EDGE_CURVE('',#299,#300,#40,.T.);
#359=EDGE_CURVE('',#300,#301,#287,.T.);
#360=EDGE_CURVE('',#301,#302,#41,.T.);
#361=EDGE_CURVE('',#302,#303,#247,.T.);
#362=EDGE_CURVE('',#303,#304,#42,.T.);
#363=EDGE_CURVE('',#304,#299,#248,.T.);
#364=EDGE_CURVE('',#305,#306,#249,.T.);
#365=EDGE_CURVE('',#305,#307,#43,.T.);
#366=EDGE_CURVE('',#307,#308,#44,.T.);
#367=EDGE_CURVE('',#308,#309,#45,.T.);
#368=EDGE_CURVE('',#306,#309,#250,.T.);
#369=EDGE_CURVE('',#309,#301,#251,.T.);
#370=EDGE_CURVE('',#309,#302,#46,.T.);
#371=EDGE_CURVE('',#299,#305,#47,.T.);
#372=EDGE_CURVE('',#300,#305,#252,.T.);
#373=EDGE_CURVE('',#303,#308,#48,.T.);
#374=EDGE_CURVE('',#307,#304,#49,.T.);
#375=EDGE_CURVE('',#306,#310,#50,.T.);
#376=EDGE_CURVE('',#310,#310,#253,.T.);
#377=EDGE_CURVE('',#311,#311,#254,.T.);
#378=EDGE_CURVE('',#311,#291,#51,.T.);
#379=EDGE_CURVE('',#312,#313,#52,.T.);
#380=EDGE_CURVE('',#312,#298,#53,.T.);
#381=EDGE_CURVE('',#313,#297,#54,.T.);
#382=EDGE_CURVE('',#314,#312,#255,.T.);
#383=EDGE_CURVE('',#293,#314,#55,.T.);
#384=EDGE_CURVE('',#315,#314,#56,.T.);
#385=EDGE_CURVE('',#294,#315,#57,.T.);
#386=EDGE_CURVE('',#316,#316,#256,.T.);
#387=EDGE_CURVE('',#316,#317,#58,.T.);
#388=EDGE_CURVE('',#315,#317,#257,.T.);
#389=EDGE_CURVE('',#317,#313,#258,.T.);
#390=EDGE_CURVE('',#318,#318,#259,.T.);
#391=EDGE_CURVE('',#318,#319,#59,.T.);
#392=EDGE_CURVE('',#319,#319,#260,.T.);
#393=EDGE_CURVE('',#320,#320,#261,.T.);
#394=EDGE_CURVE('',#320,#321,#60,.T.);
#395=EDGE_CURVE('',#321,#321,#262,.T.);
#396=EDGE_CURVE('',#322,#322,#263,.T.);
#397=EDGE_CURVE('',#322,#323,#61,.T.);
#398=EDGE_CURVE('',#323,#323,#264,.T.);
#399=EDGE_CURVE('',#324,#324,#265,.T.);
#400=EDGE_CURVE('',#324,#325,#62,.T.);
#401=EDGE_CURVE('',#325,#325,#266,.T.);
#402=EDGE_CURVE('',#326,#326,#267,.T.);
#403=EDGE_CURVE('',#326,#327,#63,.T.);
#404=EDGE_CURVE('',#327,#327,#268,.T.);
#405=EDGE_CURVE('',#328,#328,#269,.T.);
#406=EDGE_CURVE('',#328,#329,#64,.T.);
#407=EDGE_CURVE('',#329,#329,#270,.T.);
#408=EDGE_CURVE('',#330,#330,#271,.T.);
#409=EDGE_CURVE('',#330,#331,#65,.T.);
#410=EDGE_CURVE('',#331,#331,#272,.T.);
#411=EDGE_CURVE('',#321,#332,#66,.T.);
#412=EDGE_CURVE('',#332,#332,#273,.T.);
#413=EDGE_CURVE('',#323,#333,#67,.T.);
#414=EDGE_CURVE('',#333,#333,#274,.T.);
#415=EDGE_CURVE('',#325,#334,#68,.T.);
#416=EDGE_CURVE('',#334,#334,#275,.T.);
#417=EDGE_CURVE('',#327,#335,#69,.T.);
#418=EDGE_CURVE('',#335,#335,#276,.T.);
#419=EDGE_CURVE('',#329,#336,#70,.T.);
#420=EDGE_CURVE('',#336,#336,#277,.T.);
#421=EDGE_CURVE('',#331,#337,#71,.T.);
#422=EDGE_CURVE('',#337,#337,#278,.T.);
#423=EDGE_CURVE('',#338,#338,#279,.T.);
#424=EDGE_CURVE('',#339,#339,#280,.T.);
#425=EDGE_CURVE('',#340,#340,#281,.T.);
#426=EDGE_CURVE('',#340,#338,#72,.T.);
#427=EDGE_CURVE('',#339,#341,#73,.T.);
#428=EDGE_CURVE('',#341,#341,#282,.T.);
#429=EDGE_CURVE('',#342,#342,#283,.T.);
#430=EDGE_CURVE('',#342,#343,#74,.T.);
#431=EDGE_CURVE('',#343,#343,#284,.T.);
#432=ORIENTED_EDGE('',*,*,#344,.F.);
#433=ORIENTED_EDGE('',*,*,#345,.T.);
#434=ORIENTED_EDGE('',*,*,#346,.F.);
#435=ORIENTED_EDGE('',*,*,#347,.F.);
#436=ORIENTED_EDGE('',*,*,#348,.F.);
#437=ORIENTED_EDGE('',*,*,#349,.F.);
#438=ORIENTED_EDGE('',*,*,#345,.F.);
#439=ORIENTED_EDGE('',*,*,#350,.T.);
#440=ORIENTED_EDGE('',*,*,#351,.F.);
#441=ORIENTED_EDGE('',*,*,#352,.T.);
#442=ORIENTED_EDGE('',*,*,#353,.F.);
#443=ORIENTED_EDGE('',*,*,#352,.F.);
#444=ORIENTED_EDGE('',*,*,#354,.F.);
#445=ORIENTED_EDGE('',*,*,#355,.T.);
#446=ORIENTED_EDGE('',*,*,#356,.T.);
#447=ORIENTED_EDGE('',*,*,#346,.T.);
#448=ORIENTED_EDGE('',*,*,#344,.T.);
#449=ORIENTED_EDGE('',*,*,#349,.T.);
#450=ORIENTED_EDGE('',*,*,#357,.T.);
#451=ORIENTED_EDGE('',*,*,#358,.T.);
#452=ORIENTED_EDGE('',*,*,#359,.T.);
#453=ORIENTED_EDGE('',*,*,#360,.T.);
#454=ORIENTED_EDGE('',*,*,#361,.T.);
#455=ORIENTED_EDGE('',*,*,#362,.T.);
#456=ORIENTED_EDGE('',*,*,#363,.T.);
#457=ORIENTED_EDGE('',*,*,#364,.F.);
#458=ORIENTED_EDGE('',*,*,#365,.T.);
#459=ORIENTED_EDGE('',*,*,#366,.T.);
#460=ORIENTED_EDGE('',*,*,#367,.T.);
#461=ORIENTED_EDGE('',*,*,#368,.F.);
#462=ORIENTED_EDGE('',*,*,#360,.F.);
#463=ORIENTED_EDGE('',*,*,#369,.F.);
#464=ORIENTED_EDGE('',*,*,#370,.T.);
#465=ORIENTED_EDGE('',*,*,#358,.F.);
#466=ORIENTED_EDGE('',*,*,#371,.T.);
#467=ORIENTED_EDGE('',*,*,#372,.F.);
#468=ORIENTED_EDGE('',*,*,#361,.F.);
#469=ORIENTED_EDGE('',*,*,#370,.F.);
#470=ORIENTED_EDGE('',*,*,#367,.F.);
#471=ORIENTED_EDGE('',*,*,#373,.F.);
#472=ORIENTED_EDGE('',*,*,#363,.F.);
#473=ORIENTED_EDGE('',*,*,#374,.F.);
#474=ORIENTED_EDGE('',*,*,#365,.F.);
#475=ORIENTED_EDGE('',*,*,#371,.F.);
#476=ORIENTED_EDGE('',*,*,#362,.F.);
#477=ORIENTED_EDGE('',*,*,#373,.T.);
#478=ORIENTED_EDGE('',*,*,#366,.F.);
#479=ORIENTED_EDGE('',*,*,#374,.T.);
#480=ORIENTED_EDGE('',*,*,#372,.T.);
#481=ORIENTED_EDGE('',*,*,#364,.T.);
#482=ORIENTED_EDGE('',*,*,#375,.T.);
#483=ORIENTED_EDGE('',*,*,#376,.F.);
#484=ORIENTED_EDGE('',*,*,#375,.F.);
#485=ORIENTED_EDGE('',*,*,#368,.T.);
#486=ORIENTED_EDGE('',*,*,#369,.T.);
#487=ORIENTED_EDGE('',*,*,#359,.F.);
#488=ORIENTED_EDGE('',*,*,#377,.F.);
#489=ORIENTED_EDGE('',*,*,#378,.T.);
#490=ORIENTED_EDGE('',*,*,#347,.T.);
#491=ORIENTED_EDGE('',*,*,#357,.F.);
#492=ORIENTED_EDGE('',*,*,#348,.T.);
#493=ORIENTED_EDGE('',*,*,#378,.F.);
#494=ORIENTED_EDGE('',*,*,#379,.F.);
#495=ORIENTED_EDGE('',*,*,#380,.T.);
#496=ORIENTED_EDGE('',*,*,#355,.F.);
#497=ORIENTED_EDGE('',*,*,#381,.F.);
#498=ORIENTED_EDGE('',*,*,#377,.T.);
#499=ORIENTED_EDGE('',*,*,#382,.F.);
#500=ORIENTED_EDGE('',*,*,#383,.F.);
#501=ORIENTED_EDGE('',*,*,#356,.F.);
#502=ORIENTED_EDGE('',*,*,#380,.F.);
#503=ORIENTED_EDGE('',*,*,#384,.F.);
#504=ORIENTED_EDGE('',*,*,#385,.F.);
#505=ORIENTED_EDGE('',*,*,#350,.F.);
#506=ORIENTED_EDGE('',*,*,#383,.T.);
#507=ORIENTED_EDGE('',*,*,#376,.T.);
#508=ORIENTED_EDGE('',*,*,#386,.T.);
#509=ORIENTED_EDGE('',*,*,#387,.T.);
#510=ORIENTED_EDGE('',*,*,#388,.F.);
#511=ORIENTED_EDGE('',*,*,#384,.T.);
#512=ORIENTED_EDGE('',*,*,#382,.T.);
#513=ORIENTED_EDGE('',*,*,#379,.T.);
#514=ORIENTED_EDGE('',*,*,#389,.F.);
#515=ORIENTED_EDGE('',*,*,#387,.F.);
#516=ORIENTED_EDGE('',*,*,#386,.F.);
#517=ORIENTED_EDGE('',*,*,#390,.F.);
#518=ORIENTED_EDGE('',*,*,#391,.T.);
#519=ORIENTED_EDGE('',*,*,#392,.T.);
#520=ORIENTED_EDGE('',*,*,#391,.F.);
#521=ORIENTED_EDGE('',*,*,#392,.F.);
#522=ORIENTED_EDGE('',*,*,#393,.F.);
#523=ORIENTED_EDGE('',*,*,#394,.T.);
#524=ORIENTED_EDGE('',*,*,#395,.F.);
#525=ORIENTED_EDGE('',*,*,#394,.F.);
#526=ORIENTED_EDGE('',*,*,#396,.F.);
#527=ORIENTED_EDGE('',*,*,#397,.T.);
#528=ORIENTED_EDGE('',*,*,#398,.F.);
#529=ORIENTED_EDGE('',*,*,#397,.F.);
#530=ORIENTED_EDGE('',*,*,#399,.F.);
#531=ORIENTED_EDGE('',*,*,#400,.T.);
#532=ORIENTED_EDGE('',*,*,#401,.F.);
#533=ORIENTED_EDGE('',*,*,#400,.F.);
#534=ORIENTED_EDGE('',*,*,#402,.F.);
#535=ORIENTED_EDGE('',*,*,#403,.T.);
#536=ORIENTED_EDGE('',*,*,#404,.F.);
#537=ORIENTED_EDGE('',*,*,#403,.F.);
#538=ORIENTED_EDGE('',*,*,#405,.F.);
#539=ORIENTED_EDGE('',*,*,#406,.T.);
#540=ORIENTED_EDGE('',*,*,#407,.F.);
#541=ORIENTED_EDGE('',*,*,#406,.F.);
#542=ORIENTED_EDGE('',*,*,#408,.F.);
#543=ORIENTED_EDGE('',*,*,#409,.T.);
#544=ORIENTED_EDGE('',*,*,#410,.F.);
#545=ORIENTED_EDGE('',*,*,#409,.F.);
#546=ORIENTED_EDGE('',*,*,#395,.T.);
#547=ORIENTED_EDGE('',*,*,#411,.T.);
#548=ORIENTED_EDGE('',*,*,#412,.T.);
#549=ORIENTED_EDGE('',*,*,#411,.F.);
#550=ORIENTED_EDGE('',*,*,#412,.F.);
#551=ORIENTED_EDGE('',*,*,#398,.T.);
#552=ORIENTED_EDGE('',*,*,#413,.T.);
#553=ORIENTED_EDGE('',*,*,#414,.T.);
#554=ORIENTED_EDGE('',*,*,#413,.F.);
#555=ORIENTED_EDGE('',*,*,#414,.F.);
#556=ORIENTED_EDGE('',*,*,#401,.T.);
#557=ORIENTED_EDGE('',*,*,#415,.T.);
#558=ORIENTED_EDGE('',*,*,#416,.T.);
#559=ORIENTED_EDGE('',*,*,#415,.F.);
#560=ORIENTED_EDGE('',*,*,#416,.F.);
#561=ORIENTED_EDGE('',*,*,#404,.T.);
#562=ORIENTED_EDGE('',*,*,#417,.T.);
#563=ORIENTED_EDGE('',*,*,#418,.T.);
#564=ORIENTED_EDGE('',*,*,#417,.F.);
#565=ORIENTED_EDGE('',*,*,#418,.F.);
#566=ORIENTED_EDGE('',*,*,#407,.T.);
#567=ORIENTED_EDGE('',*,*,#419,.T.);
#568=ORIENTED_EDGE('',*,*,#420,.T.);
#569=ORIENTED_EDGE('',*,*,#419,.F.);
#570=ORIENTED_EDGE('',*,*,#420,.F.);
#571=ORIENTED_EDGE('',*,*,#410,.T.);
#572=ORIENTED_EDGE('',*,*,#421,.T.);
#573=ORIENTED_EDGE('',*,*,#422,.T.);
#574=ORIENTED_EDGE('',*,*,#421,.F.);
#575=ORIENTED_EDGE('',*,*,#422,.F.);
#576=ORIENTED_EDGE('',*,*,#385,.T.);
#577=ORIENTED_EDGE('',*,*,#388,.T.);
#578=ORIENTED_EDGE('',*,*,#389,.T.);
#579=ORIENTED_EDGE('',*,*,#381,.T.);
#580=ORIENTED_EDGE('',*,*,#354,.T.);
#581=ORIENTED_EDGE('',*,*,#351,.T.);
#582=ORIENTED_EDGE('',*,*,#423,.T.);
#583=ORIENTED_EDGE('',*,*,#424,.T.);
#584=ORIENTED_EDGE('',*,*,#425,.F.);
#585=ORIENTED_EDGE('',*,*,#426,.T.);
#586=ORIENTED_EDGE('',*,*,#423,.F.);
#587=ORIENTED_EDGE('',*,*,#426,.F.);
#588=ORIENTED_EDGE('',*,*,#425,.T.);
#589=ORIENTED_EDGE('',*,*,#353,.T.);
#590=ORIENTED_EDGE('',*,*,#424,.F.);
#591=ORIENTED_EDGE('',*,*,#427,.T.);
#592=ORIENTED_EDGE('',*,*,#428,.F.);
#593=ORIENTED_EDGE('',*,*,#427,.F.);
#594=ORIENTED_EDGE('',*,*,#429,.F.);
#595=ORIENTED_EDGE('',*,*,#430,.T.);
#596=ORIENTED_EDGE('',*,*,#431,.F.);
#597=ORIENTED_EDGE('',*,*,#430,.F.);
#598=ORIENTED_EDGE('',*,*,#431,.T.);
#599=ORIENTED_EDGE('',*,*,#390,.T.);
#600=ORIENTED_EDGE('',*,*,#393,.T.);
#601=ORIENTED_EDGE('',*,*,#396,.T.);
#602=ORIENTED_EDGE('',*,*,#399,.T.);
#603=ORIENTED_EDGE('',*,*,#402,.T.);
#604=ORIENTED_EDGE('',*,*,#405,.T.);
#605=ORIENTED_EDGE('',*,*,#408,.T.);
#606=ORIENTED_EDGE('',*,*,#429,.T.);
#607=ORIENTED_EDGE('',*,*,#428,.T.);
#608=CYLINDRICAL_SURFACE('',#681,3.);
#609=CYLINDRICAL_SURFACE('',#686,12.3);
#610=CYLINDRICAL_SURFACE('',#703,1.7);
#611=CYLINDRICAL_SURFACE('',#705,1.7);
#612=CYLINDRICAL_SURFACE('',#711,4.175);
#613=CYLINDRICAL_SURFACE('',#716,4.375);
#614=CYLINDRICAL_SURFACE('',#738,3.125);
#615=CYLINDRICAL_SURFACE('',#741,3.125);
#616=CYLINDRICAL_SURFACE('',#744,3.125);
#617=CYLINDRICAL_SURFACE('',#747,3.125);
#618=CYLINDRICAL_SURFACE('',#750,3.125);
#619=CYLINDRICAL_SURFACE('',#753,3.125);
#620=CYLINDRICAL_SURFACE('',#760,12.525);
#621=CYLINDRICAL_SURFACE('',#763,11.);
#622=CYLINDRICAL_SURFACE('',#765,23.);
#623=ADVANCED_FACE('',(#138),#608,.F.);
#624=ADVANCED_FACE('',(#139),#115,.F.);
#625=ADVANCED_FACE('',(#140,#21,#22),#609,.T.);
#626=ADVANCED_FACE('',(#141),#116,.T.);
#627=ADVANCED_FACE('',(#142),#117,.T.);
#628=ADVANCED_FACE('',(#143),#118,.T.);
#629=ADVANCED_FACE('',(#144),#119,.T.);
#630=ADVANCED_FACE('',(#145),#120,.F.);
#631=ADVANCED_FACE('',(#146),#121,.T.);
#632=ADVANCED_FACE('',(#147),#610,.F.);
#633=ADVANCED_FACE('',(#148),#611,.F.);
#634=ADVANCED_FACE('',(#149,#23),#122,.T.);
#635=ADVANCED_FACE('',(#150),#123,.T.);
#636=ADVANCED_FACE('',(#151,#24),#124,.T.);
#637=ADVANCED_FACE('',(#152),#612,.F.);
#638=ADVANCED_FACE('',(#153),#125,.F.);
#639=ADVANCED_FACE('',(#154),#613,.F.);
#640=ADVANCED_FACE('',(#155),#126,.F.);
#641=ADVANCED_FACE('',(#156),#15,.F.);
#642=ADVANCED_FACE('',(#157),#16,.F.);
#643=ADVANCED_FACE('',(#158),#17,.F.);
#644=ADVANCED_FACE('',(#159),#18,.F.);
#645=ADVANCED_FACE('',(#160),#19,.F.);
#646=ADVANCED_FACE('',(#161),#20,.F.);
#647=ADVANCED_FACE('',(#162),#614,.F.);
#648=ADVANCED_FACE('',(#163),#127,.F.);
#649=ADVANCED_FACE('',(#164),#615,.F.);
#650=ADVANCED_FACE('',(#165),#128,.F.);
#651=ADVANCED_FACE('',(#166),#616,.F.);
#652=ADVANCED_FACE('',(#167),#129,.F.);
#653=ADVANCED_FACE('',(#168),#617,.F.);
#654=ADVANCED_FACE('',(#169),#130,.F.);
#655=ADVANCED_FACE('',(#170),#618,.F.);
#656=ADVANCED_FACE('',(#171),#131,.F.);
#657=ADVANCED_FACE('',(#172),#619,.F.);
#658=ADVANCED_FACE('',(#173),#132,.F.);
#659=ADVANCED_FACE('',(#174),#133,.T.);
#660=ADVANCED_FACE('',(#175,#25),#134,.T.);
#661=ADVANCED_FACE('',(#176),#620,.T.);
#662=ADVANCED_FACE('',(#177,#26),#135,.T.);
#663=ADVANCED_FACE('',(#178),#621,.T.);
#664=ADVANCED_FACE('',(#179),#622,.T.);
#665=ADVANCED_FACE('',(#180,#27,#28,#29,#30,#31,#32,#33),#136,.T.);
#666=ADVANCED_FACE('',(#181,#34),#137,.T.);
#667=CLOSED_SHELL('',(#623,#624,#625,#626,#627,#628,#629,#630,#631,#632,
#633,#634,#635,#636,#637,#638,#639,#640,#641,#642,#643,#644,#645,#646,#647,
#648,#649,#650,#651,#652,#653,#654,#655,#656,#657,#658,#659,#660,#661,#662,
#663,#664,#665,#666));
#668=DERIVED_UNIT_ELEMENT(#670,1.);
#669=DERIVED_UNIT_ELEMENT(#1236,-3.);
#670=(
MASS_UNIT()
NAMED_UNIT(*)
SI_UNIT(.KILO.,.GRAM.)
);
#671=DERIVED_UNIT((#668,#669));
#672=MEASURE_REPRESENTATION_ITEM('density measure',
POSITIVE_RATIO_MEASURE(7850.),#671);
#673=PROPERTY_DEFINITION_REPRESENTATION(#678,#675);
#674=PROPERTY_DEFINITION_REPRESENTATION(#679,#676);
#675=REPRESENTATION('material name',(#677),#1233);
#676=REPRESENTATION('density',(#672),#1233);
#677=DESCRIPTIVE_REPRESENTATION_ITEM('Steel','Steel');
#678=PROPERTY_DEFINITION('material property','material name',#1243);
#679=PROPERTY_DEFINITION('material property','density of part',#1243);
#680=AXIS2_PLACEMENT_3D('',#990,#770,#771);
#681=AXIS2_PLACEMENT_3D('',#991,#772,#773);
#682=AXIS2_PLACEMENT_3D('',#1021,#774,#775);
#683=AXIS2_PLACEMENT_3D('',#1022,#776,#777);
#684=AXIS2_PLACEMENT_3D('',#1026,#779,#780);
#685=AXIS2_PLACEMENT_3D('',#1028,#781,#782);
#686=AXIS2_PLACEMENT_3D('',#1030,#784,#785);
#687=AXIS2_PLACEMENT_3D('',#1035,#787,#788);
#688=AXIS2_PLACEMENT_3D('',#1038,#790,#791);
#689=AXIS2_PLACEMENT_3D('',#1040,#792,#793);
#690=AXIS2_PLACEMENT_3D('',#1043,#795,#796);
#691=AXIS2_PLACEMENT_3D('',#1079,#799,#800);
#692=AXIS2_PLACEMENT_3D('',#1082,#802,#803);
#693=AXIS2_PLACEMENT_3D('',#1083,#804,#805);
#694=AXIS2_PLACEMENT_3D('',#1086,#806,#807);
#695=AXIS2_PLACEMENT_3D('',#1093,#811,#812);
#696=AXIS2_PLACEMENT_3D('',#1094,#813,#814);
#697=AXIS2_PLACEMENT_3D('',#1095,#815,#816);
#698=AXIS2_PLACEMENT_3D('',#1097,#818,#819);
#699=AXIS2_PLACEMENT_3D('',#1099,#821,#822);
#700=AXIS2_PLACEMENT_3D('',#1100,#823,#824);
#701=AXIS2_PLACEMENT_3D('',#1102,#826,#827);
#702=AXIS2_PLACEMENT_3D('',#1104,#829,#830);
#703=AXIS2_PLACEMENT_3D('',#1105,#831,#832);
#704=AXIS2_PLACEMENT_3D('',#1108,#834,#835);
#705=AXIS2_PLACEMENT_3D('',#1109,#836,#837);
#706=AXIS2_PLACEMENT_3D('',#1111,#838,#839);
#707=AXIS2_PLACEMENT_3D('',#1113,#841,#842);
#708=AXIS2_PLACEMENT_3D('',#1119,#846,#847);
#709=AXIS2_PLACEMENT_3D('',#1121,#848,#849);
#710=AXIS2_PLACEMENT_3D('',#1123,#851,#852);
#711=AXIS2_PLACEMENT_3D('',#1127,#855,#856);
#712=AXIS2_PLACEMENT_3D('',#1129,#857,#858);
#713=AXIS2_PLACEMENT_3D('',#1132,#860,#861);
#714=AXIS2_PLACEMENT_3D('',#1133,#862,#863);
#715=AXIS2_PLACEMENT_3D('',#1134,#864,#865);
#716=AXIS2_PLACEMENT_3D('',#1135,#866,#867);
#717=AXIS2_PLACEMENT_3D('',#1137,#868,#869);
#718=AXIS2_PLACEMENT_3D('',#1140,#871,#872);
#719=AXIS2_PLACEMENT_3D('',#1141,#873,#874);
#720=AXIS2_PLACEMENT_3D('',#1142,#875,#876);
#721=AXIS2_PLACEMENT_3D('',#1144,#877,#878);
#722=AXIS2_PLACEMENT_3D('',#1147,#880,#881);
#723=AXIS2_PLACEMENT_3D('',#1148,#882,#883);
#724=AXIS2_PLACEMENT_3D('',#1150,#884,#885);
#725=AXIS2_PLACEMENT_3D('',#1153,#887,#888);
#726=AXIS2_PLACEMENT_3D('',#1154,#889,#890);
#727=AXIS2_PLACEMENT_3D('',#1156,#891,#892);
#728=AXIS2_PLACEMENT_3D('',#1159,#894,#895);
#729=AXIS2_PLACEMENT_3D('',#1160,#896,#897);
#730=AXIS2_PLACEMENT_3D('',#1162,#898,#899);
#731=AXIS2_PLACEMENT_3D('',#1165,#901,#902);
#732=AXIS2_PLACEMENT_3D('',#1166,#903,#904);
#733=AXIS2_PLACEMENT_3D('',#1168,#905,#906);
#734=AXIS2_PLACEMENT_3D('',#1171,#908,#909);
#735=AXIS2_PLACEMENT_3D('',#1172,#910,#911);
#736=AXIS2_PLACEMENT_3D('',#1174,#912,#913);
#737=AXIS2_PLACEMENT_3D('',#1177,#915,#916);
#738=AXIS2_PLACEMENT_3D('',#1178,#917,#918);
#739=AXIS2_PLACEMENT_3D('',#1181,#920,#921);
#740=AXIS2_PLACEMENT_3D('',#1182,#922,#923);
#741=AXIS2_PLACEMENT_3D('',#1183,#924,#925);
#742=AXIS2_PLACEMENT_3D('',#1186,#927,#928);
#743=AXIS2_PLACEMENT_3D('',#1187,#929,#930);
#744=AXIS2_PLACEMENT_3D('',#1188,#931,#932);
#745=AXIS2_PLACEMENT_3D('',#1191,#934,#935);
#746=AXIS2_PLACEMENT_3D('',#1192,#936,#937);
#747=AXIS2_PLACEMENT_3D('',#1193,#938,#939);
#748=AXIS2_PLACEMENT_3D('',#1196,#941,#942);
#749=AXIS2_PLACEMENT_3D('',#1197,#943,#944);
#750=AXIS2_PLACEMENT_3D('',#1198,#945,#946);
#751=AXIS2_PLACEMENT_3D('',#1201,#948,#949);
#752=AXIS2_PLACEMENT_3D('',#1202,#950,#951);
#753=AXIS2_PLACEMENT_3D('',#1203,#952,#953);
#754=AXIS2_PLACEMENT_3D('',#1206,#955,#956);
#755=AXIS2_PLACEMENT_3D('',#1207,#957,#958);
#756=AXIS2_PLACEMENT_3D('',#1208,#959,#960);
#757=AXIS2_PLACEMENT_3D('',#1209,#961,#962);
#758=AXIS2_PLACEMENT_3D('',#1211,#963,#964);
#759=AXIS2_PLACEMENT_3D('',#1213,#965,#966);
#760=AXIS2_PLACEMENT_3D('',#1214,#967,#968);
#761=AXIS2_PLACEMENT_3D('',#1216,#969,#970);
#762=AXIS2_PLACEMENT_3D('',#1218,#972,#973);
#763=AXIS2_PLACEMENT_3D('',#1219,#974,#975);
#764=AXIS2_PLACEMENT_3D('',#1222,#977,#978);
#765=AXIS2_PLACEMENT_3D('',#1223,#979,#980);
#766=AXIS2_PLACEMENT_3D('',#1225,#981,#982);
#767=AXIS2_PLACEMENT_3D('',#1228,#984,#985);
#768=AXIS2_PLACEMENT_3D('',#1229,#986,#987);
#769=AXIS2_PLACEMENT_3D('',#1230,#988,#989);
#770=DIRECTION('axis',(0.,0.,1.));
#771=DIRECTION('refdir',(1.,0.,0.));
#772=DIRECTION('center_axis',(0.,1.,0.));
#773=DIRECTION('ref_axis',(-1.,0.,-5.66553889764798E-16));
#774=DIRECTION('center_axis',(0.,-1.,0.));
#775=DIRECTION('ref_axis',(1.,0.,0.));
#776=DIRECTION('center_axis',(0.,-1.,0.));
#777=DIRECTION('ref_axis',(-1.,0.,0.));
#778=DIRECTION('',(0.,0.,1.));
#779=DIRECTION('center_axis',(0.,1.,0.));
#780=DIRECTION('ref_axis',(1.,0.,0.));
#781=DIRECTION('center_axis',(0.,1.,0.));
#782=DIRECTION('ref_axis',(1.,0.,0.));
#783=DIRECTION('',(0.,0.,1.));
#784=DIRECTION('center_axis',(0.,0.,1.));
#785=DIRECTION('ref_axis',(1.,0.,0.));
#786=DIRECTION('',(0.,0.,1.));
#787=DIRECTION('center_axis',(0.,0.,1.));
#788=DIRECTION('ref_axis',(1.,0.,0.));
#789=DIRECTION('',(0.,0.,-1.));
#790=DIRECTION('center_axis',(0.,0.,-1.));
#791=DIRECTION('ref_axis',(1.,0.,0.));
#792=DIRECTION('center_axis',(0.,0.,1.));
#793=DIRECTION('ref_axis',(1.,0.,0.));
#794=DIRECTION('',(0.,0.,-1.));
#795=DIRECTION('center_axis',(0.,0.,-1.));
#796=DIRECTION('ref_axis',(1.,0.,0.));
#797=DIRECTION('',(0.,0.,-1.));
#798=DIRECTION('',(0.,0.,-1.));
#799=DIRECTION('center_axis',(0.,0.,-1.));
#800=DIRECTION('ref_axis',(1.,0.,0.));
#801=DIRECTION('',(0.,0.,1.));
#802=DIRECTION('center_axis',(0.,0.,1.));
#803=DIRECTION('ref_axis',(1.,0.,0.));
#804=DIRECTION('center_axis',(0.,-1.,0.));
#805=DIRECTION('ref_axis',(0.,0.,-1.));
#806=DIRECTION('center_axis',(0.,-1.,0.));
#807=DIRECTION('ref_axis',(1.,0.,0.));
#808=DIRECTION('',(-1.,0.,0.));
#809=DIRECTION('',(0.,0.,-1.));
#810=DIRECTION('',(1.,0.,0.));
#811=DIRECTION('center_axis',(0.,-1.,0.));
#812=DIRECTION('ref_axis',(1.,0.,0.));
#813=DIRECTION('center_axis',(0.,-1.,0.));
#814=DIRECTION('ref_axis',(0.,0.,-1.));
#815=DIRECTION('center_axis',(0.,-1.,0.));
#816=DIRECTION('ref_axis',(1.,0.,0.));
#817=DIRECTION('',(1.,0.,0.));
#818=DIRECTION('center_axis',(0.,-1.,0.));
#819=DIRECTION('ref_axis',(0.,0.,-1.));
#820=DIRECTION('',(-1.,0.,0.));
#821=DIRECTION('center_axis',(0.,-1.,0.));
#822=DIRECTION('ref_axis',(1.,0.,0.));
#823=DIRECTION('center_axis',(0.,0.,1.));
#824=DIRECTION('ref_axis',(1.,0.,0.));
#825=DIRECTION('',(0.,1.,0.));
#826=DIRECTION('center_axis',(0.,0.,1.));
#827=DIRECTION('ref_axis',(1.,0.,0.));
#828=DIRECTION('',(0.,-1.,0.));
#829=DIRECTION('center_axis',(1.,0.,0.));
#830=DIRECTION('ref_axis',(0.,0.,-1.));
#831=DIRECTION('center_axis',(0.,1.,0.));
#832=DIRECTION('ref_axis',(1.,0.,0.));
#833=DIRECTION('',(0.,1.,0.));
#834=DIRECTION('center_axis',(0.,-1.,0.));
#835=DIRECTION('ref_axis',(1.,0.,0.));
#836=DIRECTION('center_axis',(0.,1.,0.));
#837=DIRECTION('ref_axis',(1.,0.,0.));
#838=DIRECTION('center_axis',(0.,1.,0.));
#839=DIRECTION('ref_axis',(1.,0.,0.));
#840=DIRECTION('',(0.,1.,0.));
#841=DIRECTION('center_axis',(0.,-1.,0.));
#842=DIRECTION('ref_axis',(0.,0.,-1.));
#843=DIRECTION('',(0.,0.,1.));
#844=DIRECTION('',(1.,0.,0.));
#845=DIRECTION('',(1.,0.,0.));
#846=DIRECTION('center_axis',(0.,0.,1.));
#847=DIRECTION('ref_axis',(1.,0.,0.));
#848=DIRECTION('center_axis',(0.,0.,1.));
#849=DIRECTION('ref_axis',(1.,0.,0.));
#850=DIRECTION('',(-1.,0.,0.));
#851=DIRECTION('center_axis',(0.,1.,0.));
#852=DIRECTION('ref_axis',(0.,0.,1.));
#853=DIRECTION('',(0.,0.,-1.));
#854=DIRECTION('',(-1.,0.,0.));
#855=DIRECTION('center_axis',(0.,0.,1.));
#856=DIRECTION('ref_axis',(1.,0.,0.));
#857=DIRECTION('center_axis',(0.,0.,-1.));
#858=DIRECTION('ref_axis',(1.,0.,0.));
#859=DIRECTION('',(0.,0.,1.));
#860=DIRECTION('center_axis',(0.,0.,-1.));
#861=DIRECTION('ref_axis',(1.,0.,0.));
#862=DIRECTION('center_axis',(0.,0.,-1.));
#863=DIRECTION('ref_axis',(1.,0.,0.));
#864=DIRECTION('center_axis',(0.,0.,-1.));
#865=DIRECTION('ref_axis',(-1.,0.,0.));
#866=DIRECTION('center_axis',(0.,0.,1.));
#867=DIRECTION('ref_axis',(1.,0.,0.));
#868=DIRECTION('center_axis',(0.,0.,1.));
#869=DIRECTION('ref_axis',(1.,0.,0.));
#870=DIRECTION('',(0.,0.,1.));
#871=DIRECTION('center_axis',(0.,0.,1.));
#872=DIRECTION('ref_axis',(1.,0.,0.));
#873=DIRECTION('center_axis',(0.,0.,1.));
#874=DIRECTION('ref_axis',(1.,0.,0.));
#875=DIRECTION('center_axis',(0.,0.,-1.));
#876=DIRECTION('ref_axis',(1.,0.,0.));
#877=DIRECTION('center_axis',(0.,0.,1.));
#878=DIRECTION('ref_axis',(1.,0.,0.));
#879=DIRECTION('',(0.701238976116885,8.58770067538911E-17,0.712926292385505));
#880=DIRECTION('center_axis',(0.,0.,-1.));
#881=DIRECTION('ref_axis',(1.,0.,0.));
#882=DIRECTION('center_axis',(0.,0.,-1.));
#883=DIRECTION('ref_axis',(1.,0.,0.));
#884=DIRECTION('center_axis',(0.,0.,1.));
#885=DIRECTION('ref_axis',(1.,0.,0.));
#886=DIRECTION('',(0.701238976116885,8.58770067538911E-17,0.712926292385505));
#887=DIRECTION('center_axis',(0.,0.,-1.));
#888=DIRECTION('ref_axis',(1.,0.,0.));
#889=DIRECTION('center_axis',(0.,0.,-1.));
#890=DIRECTION('ref_axis',(1.,0.,0.));
#891=DIRECTION('center_axis',(0.,0.,1.));
#892=DIRECTION('ref_axis',(1.,0.,0.));
#893=DIRECTION('',(0.701238976116885,8.58770067538911E-17,0.712926292385505));
#894=DIRECTION('center_axis',(0.,0.,-1.));
#895=DIRECTION('ref_axis',(1.,0.,0.));
#896=DIRECTION('center_axis',(0.,0.,-1.));
#897=DIRECTION('ref_axis',(1.,0.,0.));
#898=DIRECTION('center_axis',(0.,0.,1.));
#899=DIRECTION('ref_axis',(1.,0.,0.));
#900=DIRECTION('',(0.701238976116885,8.58770067538911E-17,0.712926292385505));
#901=DIRECTION('center_axis',(0.,0.,-1.));
#902=DIRECTION('ref_axis',(1.,0.,0.));
#903=DIRECTION('center_axis',(0.,0.,-1.));
#904=DIRECTION('ref_axis',(1.,0.,0.));
#905=DIRECTION('center_axis',(0.,0.,1.));
#906=DIRECTION('ref_axis',(1.,0.,0.));
#907=DIRECTION('',(0.701238976116885,8.58770067538911E-17,0.712926292385505));
#908=DIRECTION('center_axis',(0.,0.,-1.));
#909=DIRECTION('ref_axis',(1.,0.,0.));
#910=DIRECTION('center_axis',(0.,0.,-1.));
#911=DIRECTION('ref_axis',(1.,0.,0.));
#912=DIRECTION('center_axis',(0.,0.,1.));
#913=DIRECTION('ref_axis',(1.,0.,0.));
#914=DIRECTION('',(0.701238976116885,8.58770067538911E-17,0.712926292385505));
#915=DIRECTION('center_axis',(0.,0.,-1.));
#916=DIRECTION('ref_axis',(1.,0.,0.));
#917=DIRECTION('center_axis',(0.,0.,1.));
#918=DIRECTION('ref_axis',(1.,0.,0.));
#919=DIRECTION('',(0.,0.,1.));
#920=DIRECTION('center_axis',(0.,0.,1.));
#921=DIRECTION('ref_axis',(1.,0.,0.));
#922=DIRECTION('center_axis',(0.,0.,1.));
#923=DIRECTION('ref_axis',(1.,0.,0.));
#924=DIRECTION('center_axis',(0.,0.,1.));
#925=DIRECTION('ref_axis',(1.,0.,0.));
#926=DIRECTION('',(0.,0.,1.));
#927=DIRECTION('center_axis',(0.,0.,1.));
#928=DIRECTION('ref_axis',(1.,0.,0.));
#929=DIRECTION('center_axis',(0.,0.,1.));
#930=DIRECTION('ref_axis',(1.,0.,0.));
#931=DIRECTION('center_axis',(0.,0.,1.));
#932=DIRECTION('ref_axis',(1.,0.,0.));
#933=DIRECTION('',(0.,0.,1.));
#934=DIRECTION('center_axis',(0.,0.,1.));
#935=DIRECTION('ref_axis',(1.,0.,0.));
#936=DIRECTION('center_axis',(0.,0.,1.));
#937=DIRECTION('ref_axis',(1.,0.,0.));
#938=DIRECTION('center_axis',(0.,0.,1.));
#939=DIRECTION('ref_axis',(1.,0.,0.));
#940=DIRECTION('',(0.,0.,1.));
#941=DIRECTION('center_axis',(0.,0.,1.));
#942=DIRECTION('ref_axis',(1.,0.,0.));
#943=DIRECTION('center_axis',(0.,0.,1.));
#944=DIRECTION('ref_axis',(1.,0.,0.));
#945=DIRECTION('center_axis',(0.,0.,1.));
#946=DIRECTION('ref_axis',(1.,0.,0.));
#947=DIRECTION('',(0.,0.,1.));
#948=DIRECTION('center_axis',(0.,0.,1.));
#949=DIRECTION('ref_axis',(1.,0.,0.));
#950=DIRECTION('center_axis',(0.,0.,1.));
#951=DIRECTION('ref_axis',(1.,0.,0.));
#952=DIRECTION('center_axis',(0.,0.,1.));
#953=DIRECTION('ref_axis',(1.,0.,0.));
#954=DIRECTION('',(0.,0.,1.));
#955=DIRECTION('center_axis',(0.,0.,1.));
#956=DIRECTION('ref_axis',(1.,0.,0.));
#957=DIRECTION('center_axis',(0.,0.,1.));
#958=DIRECTION('ref_axis',(1.,0.,0.));
#959=DIRECTION('center_axis',(0.,0.,1.));
#960=DIRECTION('ref_axis',(1.,0.,0.));
#961=DIRECTION('center_axis',(0.,0.,-1.));
#962=DIRECTION('ref_axis',(-1.,0.,0.));
#963=DIRECTION('center_axis',(0.,0.,-1.));
#964=DIRECTION('ref_axis',(1.,0.,0.));
#965=DIRECTION('center_axis',(0.,0.,1.));
#966=DIRECTION('ref_axis',(1.,0.,0.));
#967=DIRECTION('center_axis',(0.,0.,1.));
#968=DIRECTION('ref_axis',(1.,0.,0.));
#969=DIRECTION('center_axis',(0.,0.,1.));
#970=DIRECTION('ref_axis',(1.,0.,0.));
#971=DIRECTION('',(0.,0.,-1.));
#972=DIRECTION('center_axis',(0.,0.,1.));
#973=DIRECTION('ref_axis',(1.,0.,0.));
#974=DIRECTION('center_axis',(0.,0.,1.));
#975=DIRECTION('ref_axis',(1.,0.,0.));
#976=DIRECTION('',(0.,0.,-1.));
#977=DIRECTION('center_axis',(0.,0.,-1.));
#978=DIRECTION('ref_axis',(1.,0.,0.));
#979=DIRECTION('center_axis',(0.,0.,1.));
#980=DIRECTION('ref_axis',(1.,0.,0.));
#981=DIRECTION('center_axis',(0.,0.,1.));
#982=DIRECTION('ref_axis',(1.,0.,0.));
#983=DIRECTION('',(0.,0.,-1.));
#984=DIRECTION('center_axis',(0.,0.,-1.));
#985=DIRECTION('ref_axis',(1.,0.,0.));
#986=DIRECTION('center_axis',(0.,0.,-1.));
#987=DIRECTION('ref_axis',(-1.,0.,0.));
#988=DIRECTION('center_axis',(0.,0.,1.));
#989=DIRECTION('ref_axis',(1.,0.,0.));
#990=CARTESIAN_POINT('',(0.,0.,0.));
#991=CARTESIAN_POINT('Origin',(8.5,10.2375,53.25));
#992=CARTESIAN_POINT('',(9.99046420342919,7.175,55.8535584222937));
#993=CARTESIAN_POINT('',(9.99046420342919,7.175,50.6464415777064));
#994=CARTESIAN_POINT('Ctrl Pts',(9.99046420342919,7.175,55.8535584222937));
#995=CARTESIAN_POINT('Ctrl Pts',(9.93754800007762,7.24868047879655,55.8838514651544));
#996=CARTESIAN_POINT('Ctrl Pts',(9.88347503629519,7.32224915137944,55.912664022134));
#997=CARTESIAN_POINT('Ctrl Pts',(9.42755636363039,7.92814455548593,56.1378062386462));
#998=CARTESIAN_POINT('Ctrl Pts',(8.96675989345789,8.44418324909123,56.25));
#999=CARTESIAN_POINT('Ctrl Pts',(8.15331057603216,9.22190806894294,56.25));
#1000=CARTESIAN_POINT('Ctrl Pts',(7.75616205521632,9.55856920893217,56.1862934122017));
#1001=CARTESIAN_POINT('Ctrl Pts',(6.98102790783895,10.1385176820991,55.870656356935));
#1002=CARTESIAN_POINT('Ctrl Pts',(6.60424575199107,10.3825796365623,55.6171971890826));
#1003=CARTESIAN_POINT('Ctrl Pts',(6.06920478191452,10.7017809910891,55.0411075918501));
#1004=CARTESIAN_POINT('Ctrl Pts',(5.8574099239846,10.8169593156772,54.7208591902488));
#1005=CARTESIAN_POINT('Ctrl Pts',(5.57261994459898,10.9663925201474,54.0097086152969));
#1006=CARTESIAN_POINT('Ctrl Pts',(5.5,11.0018180315801,53.6189027151099));
#1007=CARTESIAN_POINT('Ctrl Pts',(5.5,11.0018180315801,53.25));
#1008=CARTESIAN_POINT('Ctrl Pts',(5.5,11.0018180315801,52.8810972848901));
#1009=CARTESIAN_POINT('Ctrl Pts',(5.57261994459898,10.9663925201474,52.4902913847032));
#1010=CARTESIAN_POINT('Ctrl Pts',(5.8574099239846,10.8169593156772,51.7791408097512));
#1011=CARTESIAN_POINT('Ctrl Pts',(6.06920478191452,10.7017809910891,51.4588924081499));
#1012=CARTESIAN_POINT('Ctrl Pts',(6.60424575199107,10.3825796365623,50.8828028109174));
#1013=CARTESIAN_POINT('Ctrl Pts',(6.98102790783895,10.1385176820991,50.629343643065));
#1014=CARTESIAN_POINT('Ctrl Pts',(7.75616205521632,9.55856920893217,50.3137065877983));
#1015=CARTESIAN_POINT('Ctrl Pts',(8.15331057603216,9.22190806894294,50.25));
#1016=CARTESIAN_POINT('Ctrl Pts',(8.96675989345789,8.44418324909123,50.25));
#1017=CARTESIAN_POINT('Ctrl Pts',(9.42755636363039,7.92814455548593,50.3621937613538));
#1018=CARTESIAN_POINT('Ctrl Pts',(9.88347503629519,7.32224915137944,50.5873359778661));
#1019=CARTESIAN_POINT('Ctrl Pts',(9.93754800007762,7.24868047879655,50.6161485348456));
#1020=CARTESIAN_POINT('Ctrl Pts',(9.99046420342919,7.175,50.6464415777064));
#1021=CARTESIAN_POINT('Origin',(8.5,7.175,53.25));
#1022=CARTESIAN_POINT('Origin',(8.5,7.175,53.25));
#1023=CARTESIAN_POINT('',(9.99046420200605,7.17500000099079,54.0676285602512));
#1024=CARTESIAN_POINT('',(9.99046420342919,7.175,50.375));
#1025=CARTESIAN_POINT('',(6.8,7.17500000198158,53.25));
#1026=CARTESIAN_POINT('Origin',(8.5,7.175,53.25));
#1027=CARTESIAN_POINT('',(9.99046420200605,7.17500000099079,52.4323714397488));
#1028=CARTESIAN_POINT('Origin',(8.5,7.175,53.25));
#1029=CARTESIAN_POINT('',(9.99046420342919,7.175,50.375));
#1030=CARTESIAN_POINT('Origin',(0.,0.,50.375));
#1031=CARTESIAN_POINT('',(12.2771128527842,-0.75,48.25));
#1032=CARTESIAN_POINT('',(12.2771128527842,-0.75,57.75));
#1033=CARTESIAN_POINT('',(12.2771128527842,-0.75,50.375));
#1034=CARTESIAN_POINT('',(-12.3,-1.50631556295124E-15,57.75));
#1035=CARTESIAN_POINT('Origin',(0.,0.,57.75));
#1036=CARTESIAN_POINT('',(-12.3,-1.50631556295124E-15,43.));
#1037=CARTESIAN_POINT('',(-12.3,-1.50631556295124E-15,50.375));
#1038=CARTESIAN_POINT('Origin',(0.,0.,43.));
#1039=CARTESIAN_POINT('',(12.2771128527842,0.75,57.75));
#1040=CARTESIAN_POINT('Origin',(0.,0.,57.75));
#1041=CARTESIAN_POINT('',(12.2771128527842,0.75,48.25));
#1042=CARTESIAN_POINT('',(12.2771128527842,0.75,50.375));
#1043=CARTESIAN_POINT('Origin',(0.,0.,48.25));
#1044=CARTESIAN_POINT('Ctrl Pts',(9.99046420200605,7.17500000198158,52.4323714397488));
#1045=CARTESIAN_POINT('Ctrl Pts',(10.0244034726549,7.12774298896889,52.4942397139304));
#1046=CARTESIAN_POINT('Ctrl Pts',(10.0555026546507,7.08372180509255,52.5601123626801));
#1047=CARTESIAN_POINT('Ctrl Pts',(10.1194524150275,6.99219631474083,52.7231884724394));
#1048=CARTESIAN_POINT('Ctrl Pts',(10.1490445495763,6.94896660004286,52.8234190879074));
#1049=CARTESIAN_POINT('Ctrl Pts',(10.1893115843771,6.88979313315367,53.0320823503966));
#1050=CARTESIAN_POINT('Ctrl Pts',(10.2,6.87386354243376,53.1405164047722));
#1051=CARTESIAN_POINT('Ctrl Pts',(10.2,6.87386354243376,53.3594835952278));
#1052=CARTESIAN_POINT('Ctrl Pts',(10.1893115843771,6.88979313315367,53.4679176496034));
#1053=CARTESIAN_POINT('Ctrl Pts',(10.1490445495763,6.94896660004286,53.6765809120926));
#1054=CARTESIAN_POINT('Ctrl Pts',(10.1194524150275,6.99219631474083,53.7768115275606));
#1055=CARTESIAN_POINT('Ctrl Pts',(10.0555026546507,7.08372180509254,53.9398876373199));
#1056=CARTESIAN_POINT('Ctrl Pts',(10.0244034726549,7.12774298896888,54.0057602860696));
#1057=CARTESIAN_POINT('Ctrl Pts',(9.99046420200605,7.17500000198157,54.0676285602512));
#1058=CARTESIAN_POINT('',(9.99046420342919,-7.175,54.95));
#1059=CARTESIAN_POINT('',(9.99046420200605,-7.17500000099079,54.0676285602512));
#1060=CARTESIAN_POINT('',(9.99046420342919,-7.175,50.375));
#1061=CARTESIAN_POINT('',(9.99046420200605,-7.17500000099079,52.4323714397488));
#1062=CARTESIAN_POINT('Ctrl Pts',(9.99046420200605,-7.17500000198157,54.0676285602512));
#1063=CARTESIAN_POINT('Ctrl Pts',(10.0244034726549,-7.12774298896888,54.0057602860696));
#1064=CARTESIAN_POINT('Ctrl Pts',(10.0555026546507,-7.08372180509255,53.9398876373199));
#1065=CARTESIAN_POINT('Ctrl Pts',(10.1194524150275,-6.99219631474083,53.7768115275606));
#1066=CARTESIAN_POINT('Ctrl Pts',(10.1490445495763,-6.94896660004286,53.6765809120926));
#1067=CARTESIAN_POINT('Ctrl Pts',(10.1893115843771,-6.88979313315367,53.4679176496034));
#1068=CARTESIAN_POINT('Ctrl Pts',(10.2,-6.87386354243376,53.3594835952278));
#1069=CARTESIAN_POINT('Ctrl Pts',(10.2,-6.87386354243376,53.1405164047722));
#1070=CARTESIAN_POINT('Ctrl Pts',(10.1893115843771,-6.88979313315367,53.0320823503966));
#1071=CARTESIAN_POINT('Ctrl Pts',(10.1490445495763,-6.94896660004286,52.8234190879074));
#1072=CARTESIAN_POINT('Ctrl Pts',(10.1194524150275,-6.99219631474083,52.7231884724394));
#1073=CARTESIAN_POINT('Ctrl Pts',(10.0555026546507,-7.08372180509255,52.5601123626801));
#1074=CARTESIAN_POINT('Ctrl Pts',(10.0244034726549,-7.12774298896889,52.4942397139304));
#1075=CARTESIAN_POINT('Ctrl Pts',(9.99046420200605,-7.17500000198158,52.4323714397488));
#1076=CARTESIAN_POINT('',(9.99046420342919,-7.175,51.55));
#1077=CARTESIAN_POINT('',(9.99046420342919,-7.175,50.375));
#1078=CARTESIAN_POINT('',(5.65,-10.9255434647435,51.55));
#1079=CARTESIAN_POINT('Origin',(0.,0.,51.55));
#1080=CARTESIAN_POINT('',(5.65,-10.9255434647435,54.95));
#1081=CARTESIAN_POINT('',(5.65,-10.9255434647435,50.375));
#1082=CARTESIAN_POINT('Origin',(0.,0.,54.95));
#1083=CARTESIAN_POINT('Origin',(8.5,-7.175,53.25));
#1084=CARTESIAN_POINT('',(8.5,-7.175,54.95));
#1085=CARTESIAN_POINT('',(6.8,-7.17500000198158,53.25));
#1086=CARTESIAN_POINT('Origin',(8.5,-7.175,53.25));
#1087=CARTESIAN_POINT('',(5.65,-7.175,54.95));
#1088=CARTESIAN_POINT('',(8.5,-7.175,54.95));
#1089=CARTESIAN_POINT('',(5.65,-7.175,51.55));
#1090=CARTESIAN_POINT('',(5.65,-7.175,53.25));
#1091=CARTESIAN_POINT('',(8.5,-7.175,51.55));
#1092=CARTESIAN_POINT('',(8.5,-7.175,51.55));
#1093=CARTESIAN_POINT('Origin',(8.5,-7.175,53.25));
#1094=CARTESIAN_POINT('Origin',(8.5,-7.175,53.25));
#1095=CARTESIAN_POINT('Origin',(8.5,-7.175,53.25));
#1096=CARTESIAN_POINT('',(8.5,-7.175,51.55));
#1097=CARTESIAN_POINT('Origin',(8.5,-7.175,53.25));
#1098=CARTESIAN_POINT('',(8.5,-7.175,54.95));
#1099=CARTESIAN_POINT('Origin',(8.5,-7.175,53.25));
#1100=CARTESIAN_POINT('Origin',(8.5,-10.2375,51.55));
#1101=CARTESIAN_POINT('',(5.65,-10.2375,51.55));
#1102=CARTESIAN_POINT('Origin',(8.5,-10.2375,54.95));
#1103=CARTESIAN_POINT('',(5.65,-10.2375,54.95));
#1104=CARTESIAN_POINT('Origin',(5.65,-10.2375,53.25));
#1105=CARTESIAN_POINT('Origin',(8.5,0.,53.25));
#1106=CARTESIAN_POINT('',(6.8,-0.75,53.25));
#1107=CARTESIAN_POINT('',(6.8,0.,53.25));
#1108=CARTESIAN_POINT('Origin',(8.5,-0.75,53.25));
#1109=CARTESIAN_POINT('Origin',(8.5,0.,53.25));
#1110=CARTESIAN_POINT('',(6.8,0.75,53.25));
#1111=CARTESIAN_POINT('Origin',(8.5,0.75,53.25));
#1112=CARTESIAN_POINT('',(6.8,0.,53.25));
#1113=CARTESIAN_POINT('Origin',(8.6375,0.75,53.5));
#1114=CARTESIAN_POINT('',(4.10708229769017,0.75,48.25));
#1115=CARTESIAN_POINT('',(4.10708229769017,0.75,57.75));
#1116=CARTESIAN_POINT('',(4.10708229769017,0.75,43.375));
#1117=CARTESIAN_POINT('',(8.6375,0.75,48.25));
#1118=CARTESIAN_POINT('',(4.31875,0.75,57.75));
#1119=CARTESIAN_POINT('Origin',(8.6375,0.,48.25));
#1120=CARTESIAN_POINT('',(4.10708229769017,-0.75,48.25));
#1121=CARTESIAN_POINT('Origin',(0.,0.,48.25));
#1122=CARTESIAN_POINT('',(8.6375,-0.75,48.25));
#1123=CARTESIAN_POINT('Origin',(8.6375,-0.75,53.5));
#1124=CARTESIAN_POINT('',(4.10708229769017,-0.75,57.75));
#1125=CARTESIAN_POINT('',(4.10708229769017,-0.75,43.375));
#1126=CARTESIAN_POINT('',(4.31875,-0.75,57.75));
#1127=CARTESIAN_POINT('Origin',(0.,0.,43.375));
#1128=CARTESIAN_POINT('',(-4.175,-5.1129003864402E-16,28.));
#1129=CARTESIAN_POINT('Origin',(0.,0.,28.));
#1130=CARTESIAN_POINT('',(-4.175,-5.1129003864402E-16,57.75));
#1131=CARTESIAN_POINT('',(-4.175,-5.1129003864402E-16,43.375));
#1132=CARTESIAN_POINT('Origin',(0.,0.,57.75));
#1133=CARTESIAN_POINT('Origin',(0.,0.,57.75));
#1134=CARTESIAN_POINT('Origin',(0.,0.,28.));
#1135=CARTESIAN_POINT('Origin',(0.,0.,22.));
#1136=CARTESIAN_POINT('',(-4.375,-5.35782974626967E-16,19.));
#1137=CARTESIAN_POINT('Origin',(0.,0.,19.));
#1138=CARTESIAN_POINT('',(-4.375,-5.35782974626967E-16,26.));
#1139=CARTESIAN_POINT('',(-4.375,-5.35782974626967E-16,22.));
#1140=CARTESIAN_POINT('Origin',(0.,0.,26.));
#1141=CARTESIAN_POINT('Origin',(0.,0.,26.));
#1142=CARTESIAN_POINT('Origin',(9.,-15.5884572681199,19.295));
#1143=CARTESIAN_POINT('',(5.28483606557377,-15.5884572681199,19.));
#1144=CARTESIAN_POINT('Origin',(9.,-15.5884572681199,19.));
#1145=CARTESIAN_POINT('',(5.875,-15.5884572681199,19.6));
#1146=CARTESIAN_POINT('',(5.575,-15.5884572681199,19.295));
#1147=CARTESIAN_POINT('Origin',(9.,-15.5884572681199,19.6));
#1148=CARTESIAN_POINT('Origin',(-9.00000000000001,-15.5884572681199,19.295));
#1149=CARTESIAN_POINT('',(-12.7151639344262,-15.5884572681199,19.));
#1150=CARTESIAN_POINT('Origin',(-9.00000000000001,-15.5884572681199,19.));
#1151=CARTESIAN_POINT('',(-12.125,-15.5884572681199,19.6));
#1152=CARTESIAN_POINT('',(-12.425,-15.5884572681199,19.295));
#1153=CARTESIAN_POINT('Origin',(-9.00000000000001,-15.5884572681199,19.6));
#1154=CARTESIAN_POINT('Origin',(-18.,2.20436423846524E-15,19.295));
#1155=CARTESIAN_POINT('',(-21.7151639344262,1.74938787640496E-15,19.));
#1156=CARTESIAN_POINT('Origin',(-18.,2.20436423846524E-15,19.));
#1157=CARTESIAN_POINT('',(-21.125,1.82166211373169E-15,19.6));
#1158=CARTESIAN_POINT('',(-21.425,1.78492270975727E-15,19.295));
#1159=CARTESIAN_POINT('Origin',(-18.,2.20436423846524E-15,19.6));
#1160=CARTESIAN_POINT('Origin',(-9.,15.5884572681199,19.295));
#1161=CARTESIAN_POINT('',(-12.7151639344262,15.5884572681199,19.));
#1162=CARTESIAN_POINT('Origin',(-9.,15.5884572681199,19.));
#1163=CARTESIAN_POINT('',(-12.125,15.5884572681199,19.6));
#1164=CARTESIAN_POINT('',(-12.425,15.5884572681199,19.295));
#1165=CARTESIAN_POINT('Origin',(-9.,15.5884572681199,19.6));
#1166=CARTESIAN_POINT('Origin',(9.,15.5884572681199,19.295));
#1167=CARTESIAN_POINT('',(5.28483606557377,15.5884572681199,19.));
#1168=CARTESIAN_POINT('Origin',(9.,15.5884572681199,19.));
#1169=CARTESIAN_POINT('',(5.875,15.5884572681199,19.6));
#1170=CARTESIAN_POINT('',(5.575,15.5884572681199,19.295));
#1171=CARTESIAN_POINT('Origin',(9.,15.5884572681199,19.6));
#1172=CARTESIAN_POINT('Origin',(18.,0.,19.295));
#1173=CARTESIAN_POINT('',(14.2848360655738,-4.54976362060277E-16,19.));
#1174=CARTESIAN_POINT('Origin',(18.,0.,19.));
#1175=CARTESIAN_POINT('',(14.875,-3.82702124733548E-16,19.6));
#1176=CARTESIAN_POINT('',(14.575,-4.19441528707969E-16,19.295));
#1177=CARTESIAN_POINT('Origin',(18.,0.,19.6));
#1178=CARTESIAN_POINT('Origin',(9.,-15.5884572681199,24.45));
#1179=CARTESIAN_POINT('',(5.875,-15.5884572681199,30.9));
#1180=CARTESIAN_POINT('',(5.875,-15.5884572681199,24.45));
#1181=CARTESIAN_POINT('Origin',(9.,-15.5884572681199,30.9));
#1182=CARTESIAN_POINT('Origin',(9.,-15.5884572681199,30.9));
#1183=CARTESIAN_POINT('Origin',(-9.00000000000001,-15.5884572681199,24.45));
#1184=CARTESIAN_POINT('',(-12.125,-15.5884572681199,30.9));
#1185=CARTESIAN_POINT('',(-12.125,-15.5884572681199,24.45));
#1186=CARTESIAN_POINT('Origin',(-9.00000000000001,-15.5884572681199,30.9));
#1187=CARTESIAN_POINT('Origin',(-9.00000000000001,-15.5884572681199,30.9));
#1188=CARTESIAN_POINT('Origin',(-18.,2.20436423846524E-15,24.45));
#1189=CARTESIAN_POINT('',(-21.125,1.82166211373169E-15,30.9));
#1190=CARTESIAN_POINT('',(-21.125,1.82166211373169E-15,24.45));
#1191=CARTESIAN_POINT('Origin',(-18.,2.20436423846524E-15,30.9));
#1192=CARTESIAN_POINT('Origin',(-18.,2.20436423846524E-15,30.9));
#1193=CARTESIAN_POINT('Origin',(-9.,15.5884572681199,24.45));
#1194=CARTESIAN_POINT('',(-12.125,15.5884572681199,30.9));
#1195=CARTESIAN_POINT('',(-12.125,15.5884572681199,24.45));
#1196=CARTESIAN_POINT('Origin',(-9.,15.5884572681199,30.9));
#1197=CARTESIAN_POINT('Origin',(-9.,15.5884572681199,30.9));
#1198=CARTESIAN_POINT('Origin',(9.,15.5884572681199,24.45));
#1199=CARTESIAN_POINT('',(5.875,15.5884572681199,30.9));
#1200=CARTESIAN_POINT('',(5.875,15.5884572681199,24.45));
#1201=CARTESIAN_POINT('Origin',(9.,15.5884572681199,30.9));
#1202=CARTESIAN_POINT('Origin',(9.,15.5884572681199,30.9));
#1203=CARTESIAN_POINT('Origin',(18.,0.,24.45));
#1204=CARTESIAN_POINT('',(14.875,-3.82702124733548E-16,30.9));
#1205=CARTESIAN_POINT('',(14.875,-3.82702124733548E-16,24.45));
#1206=CARTESIAN_POINT('Origin',(18.,0.,30.9));
#1207=CARTESIAN_POINT('Origin',(18.,0.,30.9));
#1208=CARTESIAN_POINT('Origin',(0.,0.,57.75));
#1209=CARTESIAN_POINT('Origin',(0.,0.,36.));
#1210=CARTESIAN_POINT('',(-12.525,-1.53387011593206E-15,36.));
#1211=CARTESIAN_POINT('Origin',(0.,0.,36.));
#1212=CARTESIAN_POINT('',(-11.,-1.34711147906209E-15,36.));
#1213=CARTESIAN_POINT('Origin',(0.,0.,36.));
#1214=CARTESIAN_POINT('Origin',(0.,0.,39.5));
#1215=CARTESIAN_POINT('',(-12.525,-1.53387011593206E-15,43.));
#1216=CARTESIAN_POINT('Origin',(0.,0.,43.));
#1217=CARTESIAN_POINT('',(-12.525,-1.53387011593206E-15,39.5));
#1218=CARTESIAN_POINT('Origin',(0.,0.,43.));
#1219=CARTESIAN_POINT('Origin',(0.,0.,33.7));
#1220=CARTESIAN_POINT('',(-11.,-1.34711147906209E-15,31.4));
#1221=CARTESIAN_POINT('',(-11.,-1.34711147906209E-15,33.7));
#1222=CARTESIAN_POINT('Origin',(0.,0.,31.4));
#1223=CARTESIAN_POINT('Origin',(0.,0.,25.2));
#1224=CARTESIAN_POINT('',(-23.,-2.81668763803891E-15,31.4));
#1225=CARTESIAN_POINT('Origin',(0.,0.,31.4));
#1226=CARTESIAN_POINT('',(-23.,-2.81668763803891E-15,19.));
#1227=CARTESIAN_POINT('',(-23.,-2.81668763803891E-15,25.2));
#1228=CARTESIAN_POINT('Origin',(0.,0.,19.));
#1229=CARTESIAN_POINT('Origin',(0.,0.,19.));
#1230=CARTESIAN_POINT('Origin',(0.,0.,31.4));
#1231=UNCERTAINTY_MEASURE_WITH_UNIT(LENGTH_MEASURE(0.01),#1235,
'DISTANCE_ACCURACY_VALUE',
'Maximum model space distance between geometric entities at asserted c
onnectivities');
#1232=UNCERTAINTY_MEASURE_WITH_UNIT(LENGTH_MEASURE(0.01),#1235,
'DISTANCE_ACCURACY_VALUE',
'Maximum model space distance between geometric entities at asserted c
onnectivities');
#1233=(
GEOMETRIC_REPRESENTATION_CONTEXT(3)
GLOBAL_UNCERTAINTY_ASSIGNED_CONTEXT((#1231))
GLOBAL_UNIT_ASSIGNED_CONTEXT((#1235,#1237,#1238))
REPRESENTATION_CONTEXT('','3D')
);
#1234=(
GEOMETRIC_REPRESENTATION_CONTEXT(3)
GLOBAL_UNCERTAINTY_ASSIGNED_CONTEXT((#1232))
GLOBAL_UNIT_ASSIGNED_CONTEXT((#1235,#1237,#1238))
REPRESENTATION_CONTEXT('','3D')
);
#1235=(
LENGTH_UNIT()
NAMED_UNIT(*)
SI_UNIT(.MILLI.,.METRE.)
);
#1236=(
LENGTH_UNIT()
NAMED_UNIT(*)
SI_UNIT($,.METRE.)
);
#1237=(
NAMED_UNIT(*)
PLANE_ANGLE_UNIT()
SI_UNIT($,.RADIAN.)
);
#1238=(
NAMED_UNIT(*)
SI_UNIT($,.STERADIAN.)
SOLID_ANGLE_UNIT()
);
#1239=SHAPE_DEFINITION_REPRESENTATION(#1240,#1241);
#1240=PRODUCT_DEFINITION_SHAPE('',$,#1243);
#1241=SHAPE_REPRESENTATION('',(#680),#1233);
#1242=PRODUCT_DEFINITION_CONTEXT('part definition',#1247,'design');
#1243=PRODUCT_DEFINITION('rt_cyc20_output','rt_cyc20_output',#1244,#1242);
#1244=PRODUCT_DEFINITION_FORMATION('',$,#1249);
#1245=PRODUCT_RELATED_PRODUCT_CATEGORY('rt_cyc20_output',
'rt_cyc20_output',(#1249));
#1246=APPLICATION_PROTOCOL_DEFINITION('international standard',
'automotive_design',2009,#1247);
#1247=APPLICATION_CONTEXT(
'Core Data for Automotive Mechanical Design Process');
#1248=PRODUCT_CONTEXT('part definition',#1247,'mechanical');
#1249=PRODUCT('rt_cyc20_output','rt_cyc20_output',$,(#1248));
#1250=PRESENTATION_STYLE_ASSIGNMENT((#1251));
#1251=SURFACE_STYLE_USAGE(.BOTH.,#1252);
#1252=SURFACE_SIDE_STYLE('',(#1253));
#1253=SURFACE_STYLE_FILL_AREA(#1254);
#1254=FILL_AREA_STYLE('Steel - Satin',(#1255));
#1255=FILL_AREA_STYLE_COLOUR('Steel - Satin',#1256);
#1256=COLOUR_RGB('Steel - Satin',0.627450980392157,0.627450980392157,0.627450980392157);
ENDSEC;
END-ISO-10303-21;
