<svg xmlns="http://www.w3.org/2000/svg" width="376" height="376" viewBox="0 0 376 376">
<rect width="100%" height="100%" fill="white"/>
<circle cx="188.0" cy="188.0" r="164.1" fill="none" stroke="#aaa" stroke-dasharray="4 3"/>
<circle cx="356.0" cy="188.0" r="18.0" fill="#888"/><circle cx="348.5" cy="138.5" r="18.0" fill="#888"/><circle cx="326.8" cy="93.4" r="18.0" fill="#888"/><circle cx="292.7" cy="56.7" r="18.0" fill="#888"/><circle cx="249.4" cy="31.6" r="18.0" fill="#888"/><circle cx="200.6" cy="20.5" r="18.0" fill="#888"/><circle cx="150.6" cy="24.2" r="18.0" fill="#888"/><circle cx="104.0" cy="42.5" r="18.0" fill="#888"/><circle cx="64.8" cy="73.7" r="18.0" fill="#888"/><circle cx="36.6" cy="115.1" r="18.0" fill="#888"/><circle cx="21.9" cy="163.0" r="18.0" fill="#888"/><circle cx="21.9" cy="213.0" r="18.0" fill="#888"/><circle cx="36.6" cy="260.9" r="18.0" fill="#888"/><circle cx="64.8" cy="302.3" r="18.0" fill="#888"/><circle cx="104.0" cy="333.5" r="18.0" fill="#888"/><circle cx="150.6" cy="351.8" r="18.0" fill="#888"/><circle cx="200.6" cy="355.5" r="18.0" fill="#888"/><circle cx="249.4" cy="344.4" r="18.0" fill="#888"/><circle cx="292.7" cy="319.3" r="18.0" fill="#888"/><circle cx="326.8" cy="282.6" r="18.0" fill="#888"/><circle cx="348.5" cy="237.5" r="18.0" fill="#888"/>
<path d="M 337.1,188.0 L 337.2,186.1 L 337.4,184.3 L 337.8,182.7 L 338.2,181.2 L 338.7,179.8 L 339.2,178.7 L 339.7,177.7 L 340.1,176.9 L 340.6,176.2 L 340.9,175.6 L 341.3,175.1 L 341.6,174.6 L 341.8,174.2 L 342.1,173.9 L 342.3,173.6 L 342.5,173.3 L 342.6,173.0 L 342.8,172.8 L 342.9,172.6 L 343.1,172.4 L 343.2,172.1 L 343.3,171.9 L 343.5,171.7 L 343.6,171.5 L 343.7,171.3 L 343.8,171.1 L 343.9,170.9 L 344.0,170.7 L 344.1,170.4 L 344.2,170.2 L 344.3,170.0 L 344.3,169.7 L 344.4,169.5 L 344.5,169.2 L 344.6,169.0 L 344.6,168.7 L 344.7,168.4 L 344.8,168.1 L 344.8,167.8 L 344.9,167.5 L 344.9,167.2 L 344.9,166.9 L 344.9,166.6 L 345.0,166.3 L 345.0,166.0 L 345.0,165.6 L 344.9,165.3 L 344.9,165.0 L 344.9,164.6 L 344.9,164.3 L 344.8,164.0 L 344.8,163.7 L 344.7,163.3 L 344.6,163.0 L 344.5,162.7 L 344.5,162.4 L 344.4,162.1 L 344.3,161.8 L 344.2,161.5 L 344.0,161.2 L 343.9,160.9 L 343.8,160.6 L 343.7,160.3 L 343.5,160.1 L 343.4,159.8 L 343.2,159.6 L 343.1,159.3 L 342.9,159.1 L 342.8,158.9 L 342.6,158.6 L 342.5,158.4 L 342.3,158.2 L 342.2,158.0 L 342.0,157.8 L 341.8,157.7 L 341.7,157.5 L 341.5,157.3 L 341.3,157.2 L 341.2,157.0 L 341.0,156.8 L 340.8,156.7 L 340.6,156.5 L 340.4,156.3 L 340.2,156.2 L 340.0,156.0 L 339.8,155.8 L 339.5,155.6 L 339.2,155.4 L 338.9,155.1 L 338.6,154.9 L 338.2,154.5 L 337.7,154.2 L 337.2,153.7 L 336.6,153.2 L 336.0,152.6 L 335.2,151.9 L 334.4,151.1 L 333.6,150.0 L 332.7,148.8 L 331.8,147.4 L 331.0,145.8 L 330.3,144.1 L 329.7,142.3 L 329.3,140.5 L 329.1,138.8 L 329.0,137.2 L 329.0,135.7 L 329.1,134.4 L 329.3,133.3 L 329.4,132.3 L 329.6,131.4 L 329.8,130.7 L 329.9,130.1 L 330.1,129.5 L 330.2,129.0 L 330.3,128.6 L 330.5,128.2 L 330.6,127.9 L 330.6,127.6 L 330.7,127.3 L 330.8,127.0 L 330.9,126.8 L 330.9,126.5 L 331.0,126.3 L 331.0,126.1 L 331.1,125.8 L 331.1,125.6 L 331.2,125.4 L 331.2,125.1 L 331.2,124.9 L 331.2,124.6 L 331.3,124.4 L 331.3,124.1 L 331.3,123.9 L 331.3,123.6 L 331.3,123.4 L 331.3,123.1 L 331.3,122.8 L 331.2,122.5 L 331.2,122.2 L 331.2,122.0 L 331.1,121.7 L 331.1,121.4 L 331.0,121.1 L 330.9,120.7 L 330.8,120.4 L 330.7,120.1 L 330.6,119.8 L 330.5,119.5 L 330.4,119.2 L 330.3,118.9 L 330.2,118.6 L 330.0,118.3 L 329.9,118.0 L 329.7,117.7 L 329.5,117.4 L 329.4,117.2 L 329.2,116.9 L 329.0,116.6 L 328.8,116.3 L 328.6,116.1 L 328.4,115.8 L 328.2,115.6 L 328.0,115.4 L 327.8,115.1 L 327.6,114.9 L 327.4,114.7 L 327.2,114.5 L 327.0,114.3 L 326.7,114.2 L 326.5,114.0 L 326.3,113.8 L 326.1,113.7 L 325.9,113.5 L 325.7,113.4 L 325.5,113.3 L 325.3,113.1 L 325.0,113.0 L 324.8,112.9 L 324.6,112.8 L 324.4,112.7 L 324.2,112.6 L 324.0,112.5 L 323.8,112.4 L 323.5,112.3 L 323.3,112.2 L 323.0,112.1 L 322.8,112.0 L 322.5,111.9 L 322.1,111.8 L 321.8,111.6 L 321.4,111.5 L 320.9,111.3 L 320.4,111.1 L 319.8,110.9 L 319.1,110.6 L 318.4,110.3 L 317.5,109.9 L 316.5,109.3 L 315.4,108.7 L 314.2,107.9 L 313.0,106.9 L 311.7,105.7 L 310.5,104.4 L 309.3,102.9 L 308.3,101.3 L 307.5,99.7 L 306.8,98.2 L 306.3,96.7 L 306.0,95.4 L 305.7,94.2 L 305.6,93.2 L 305.5,92.3 L 305.4,91.5 L 305.3,90.8 L 305.3,90.2 L 305.3,89.7 L 305.3,89.2 L 305.3,88.8 L 305.2,88.4 L 305.2,88.1 L 305.2,87.8 L 305.2,87.5 L 305.2,87.2 L 305.2,87.0 L 305.2,86.7 L 305.1,86.5 L 305.1,86.2 L 305.1,86.0 L 305.0,85.8 L 305.0,85.5 L 305.0,85.3 L 304.9,85.1 L 304.9,84.8 L 304.8,84.6 L 304.7,84.3 L 304.6,84.1 L 304.6,83.8 L 304.5,83.6 L 304.4,83.3 L 304.3,83.1 L 304.1,82.8 L 304.0,82.5 L 303.9,82.3 L 303.7,82.0 L 303.6,81.7 L 303.4,81.5 L 303.3,81.2 L 303.1,80.9 L 302.9,80.7 L 302.7,80.4 L 302.5,80.2 L 302.3,79.9 L 302.1,79.7 L 301.9,79.4 L 301.6,79.2 L 301.4,78.9 L 301.1,78.7 L 300.9,78.5 L 300.6,78.3 L 300.4,78.1 L 300.1,77.9 L 299.9,77.7 L 299.6,77.5 L 299.3,77.4 L 299.1,77.2 L 298.8,77.1 L 298.5,76.9 L 298.3,76.8 L 298.0,76.7 L 297.7,76.5 L 297.5,76.4 L 297.2,76.3 L 297.0,76.2 L 296.7,76.2 L 296.5,76.1 L 296.2,76.0 L 296.0,75.9 L 295.7,75.9 L 295.5,75.8 L 295.3,75.8 L 295.0,75.8 L 294.8,75.7 L 294.6,75.7 L 294.3,75.7 L 294.1,75.6 L 293.8,75.6 L 293.6,75.6 L 293.3,75.6 L 293.0,75.6 L 292.7,75.6 L 292.4,75.6 L 292.0,75.5 L 291.6,75.5 L 291.1,75.5 L 290.6,75.5 L 290.0,75.5 L 289.3,75.4 L 288.5,75.3 L 287.6,75.2 L 286.6,75.1 L 285.4,74.8 L 284.1,74.5 L 282.6,74.0 L 281.1,73.3 L 279.5,72.5 L 277.9,71.5 L 276.4,70.3 L 275.1,69.1 L 273.9,67.8 L 272.9,66.6 L 272.1,65.4 L 271.5,64.3 L 270.9,63.3 L 270.5,62.4 L 270.2,61.7 L 269.9,61.0 L 269.7,60.4 L 269.5,59.9 L 269.3,59.4 L 269.2,59.0 L 269.0,58.7 L 268.9,58.3 L 268.8,58.0 L 268.7,57.8 L 268.6,57.5 L 268.5,57.3 L 268.4,57.0 L 268.3,56.8 L 268.2,56.6 L 268.1,56.4 L 268.0,56.2 L 267.9,56.0 L 267.8,55.8 L 267.7,55.5 L 267.5,55.3 L 267.4,55.1 L 267.3,54.9 L 267.1,54.7 L 267.0,54.5 L 266.8,54.3 L 266.6,54.1 L 266.5,53.8 L 266.3,53.6 L 266.1,53.4 L 265.9,53.2 L 265.7,53.0 L 265.4,52.8 L 265.2,52.6 L 265.0,52.4 L 264.7,52.2 L 264.5,52.0 L 264.2,51.8 L 263.9,51.6 L 263.6,51.4 L 263.4,51.3 L 263.1,51.1 L 262.8,50.9 L 262.5,50.8 L 262.2,50.6 L 261.9,50.5 L 261.6,50.4 L 261.3,50.3 L 261.0,50.2 L 260.7,50.1 L 260.4,50.0 L 260.1,49.9 L 259.7,49.8 L 259.4,49.7 L 259.1,49.7 L 258.8,49.6 L 258.6,49.6 L 258.3,49.6 L 258.0,49.5 L 257.7,49.5 L 257.4,49.5 L 257.2,49.5 L 256.9,49.5 L 256.7,49.5 L 256.4,49.5 L 256.2,49.6 L 255.9,49.6 L 255.7,49.6 L 255.4,49.6 L 255.2,49.7 L 255.0,49.7 L 254.7,49.8 L 254.5,49.8 L 254.3,49.9 L 254.0,49.9 L 253.8,50.0 L 253.5,50.1 L 253.2,50.2 L 252.9,50.2 L 252.6,50.3 L 252.2,50.5 L 251.8,50.6 L 251.3,50.7 L 250.7,50.9 L 250.1,51.0 L 249.4,51.2 L 248.5,51.4 L 247.5,51.5 L 246.4,51.7 L 245.1,51.8 L 243.6,51.8 L 242.0,51.7 L 240.3,51.5 L 238.5,51.1 L 236.7,50.5 L 235.0,49.8 L 233.4,49.0 L 232.0,48.1 L 230.8,47.2 L 229.7,46.4 L 228.9,45.6 L 228.2,44.8 L 227.6,44.2 L 227.1,43.6 L 226.6,43.1 L 226.3,42.6 L 225.9,42.2 L 225.7,41.9 L 225.4,41.6 L 225.2,41.3 L 225.0,41.0 L 224.8,40.8 L 224.6,40.6 L 224.5,40.4 L 224.3,40.2 L 224.1,40.0 L 224.0,39.8 L 223.8,39.6 L 223.6,39.5 L 223.5,39.3 L 223.3,39.1 L 223.1,39.0 L 223.0,38.8 L 222.8,38.6 L 222.6,38.5 L 222.4,38.3 L 222.2,38.2 L 221.9,38.0 L 221.7,37.9 L 221.5,37.7 L 221.2,37.6 L 221.0,37.4 L 220.7,37.3 L 220.5,37.1 L 220.2,37.0 L 219.9,36.9 L 219.6,36.8 L 219.3,36.6 L 219.0,36.5 L 218.7,36.4 L 218.4,36.3 L 218.1,36.3 L 217.8,36.2 L 217.5,36.1 L 217.1,36.0 L 216.8,36.0 L 216.5,35.9 L 216.2,35.9 L 215.8,35.9 L 215.5,35.9 L 215.2,35.8 L 214.8,35.8 L 214.5,35.8 L 214.2,35.9 L 213.9,35.9 L 213.6,35.9 L 213.3,35.9 L 213.0,36.0 L 212.7,36.0 L 212.4,36.1 L 212.1,36.2 L 211.8,36.2 L 211.6,36.3 L 211.3,36.4 L 211.1,36.5 L 210.8,36.5 L 210.6,36.6 L 210.4,36.7 L 210.1,36.8 L 209.9,36.9 L 209.7,37.0 L 209.5,37.1 L 209.3,37.2 L 209.1,37.3 L 208.9,37.5 L 208.7,37.6 L 208.4,37.7 L 208.2,37.9 L 208.0,38.0 L 207.8,38.2 L 207.5,38.3 L 207.2,38.5 L 206.9,38.7 L 206.6,39.0 L 206.2,39.2 L 205.7,39.5 L 205.2,39.9 L 204.6,40.2 L 203.9,40.7 L 203.1,41.1 L 202.1,41.6 L 201.0,42.1 L 199.6,42.6 L 198.1,43.0 L 196.5,43.4 L 194.7,43.6 L 192.8,43.7 L 190.9,43.6 L 189.1,43.4 L 187.5,43.0 L 186.0,42.6 L 184.6,42.1 L 183.5,41.6 L 182.5,41.1 L 181.7,40.7 L 181.0,40.2 L 180.4,39.9 L 179.9,39.5 L 179.4,39.2 L 179.0,39.0 L 178.7,38.7 L 178.4,38.5 L 178.1,38.3 L 177.8,38.2 L 177.6,38.0 L 177.4,37.9 L 177.2,37.7 L 176.9,37.6 L 176.7,37.5 L 176.5,37.3 L 176.3,37.2 L 176.1,37.1 L 175.9,37.0 L 175.7,36.9 L 175.5,36.8 L 175.2,36.7 L 175.0,36.6 L 174.8,36.5 L 174.5,36.5 L 174.3,36.4 L 174.0,36.3 L 173.8,36.2 L 173.5,36.2 L 173.2,36.1 L 172.9,36.0 L 172.6,36.0 L 172.3,35.9 L 172.0,35.9 L 171.7,35.9 L 171.4,35.9 L 171.1,35.8 L 170.8,35.8 L 170.4,35.8 L 170.1,35.9 L 169.8,35.9 L 169.4,35.9 L 169.1,35.9 L 168.8,36.0 L 168.5,36.0 L 168.1,36.1 L 167.8,36.2 L 167.5,36.3 L 167.2,36.3 L 166.9,36.4 L 166.6,36.5 L 166.3,36.6 L 166.0,36.8 L 165.7,36.9 L 165.4,37.0 L 165.1,37.1 L 164.9,37.3 L 164.6,37.4 L 164.4,37.6 L 164.1,37.7 L 163.9,37.9 L 163.7,38.0 L 163.4,38.2 L 163.2,38.3 L 163.0,38.5 L 162.8,38.6 L 162.6,38.8 L 162.5,39.0 L 162.3,39.1 L 162.1,39.3 L 162.0,39.5 L 161.8,39.6 L 161.6,39.8 L 161.5,40.0 L 161.3,40.2 L 161.1,40.4 L 161.0,40.6 L 160.8,40.8 L 160.6,41.0 L 160.4,41.3 L 160.2,41.6 L 159.9,41.9 L 159.7,42.2 L 159.3,42.6 L 159.0,43.1 L 158.5,43.6 L 158.0,44.2 L 157.4,44.8 L 156.7,45.6 L 155.9,46.4 L 154.8,47.2 L 153.6,48.1 L 152.2,49.0 L 150.6,49.8 L 148.9,50.5 L 147.1,51.1 L 145.3,51.5 L 143.6,51.7 L 142.0,51.8 L 140.5,51.8 L 139.2,51.7 L 138.1,51.5 L 137.1,51.4 L 136.2,51.2 L 135.5,51.0 L 134.9,50.9 L 134.3,50.7 L 133.8,50.6 L 133.4,50.5 L 133.0,50.3 L 132.7,50.2 L 132.4,50.2 L 132.1,50.1 L 131.8,50.0 L 131.6,49.9 L 131.3,49.9 L 131.1,49.8 L 130.9,49.8 L 130.6,49.7 L 130.4,49.7 L 130.2,49.6 L 129.9,49.6 L 129.7,49.6 L 129.4,49.6 L 129.2,49.5 L 128.9,49.5 L 128.7,49.5 L 128.4,49.5 L 128.2,49.5 L 127.9,49.5 L 127.6,49.5 L 127.3,49.6 L 127.0,49.6 L 126.8,49.6 L 126.5,49.7 L 126.2,49.7 L 125.9,49.8 L 125.5,49.9 L 125.2,50.0 L 124.9,50.1 L 124.6,50.2 L 124.3,50.3 L 124.0,50.4 L 123.7,50.5 L 123.4,50.6 L 123.1,50.8 L 122.8,50.9 L 122.5,51.1 L 122.2,51.3 L 122.0,51.4 L 121.7,51.6 L 121.4,51.8 L 121.1,52.0 L 120.9,52.2 L 120.6,52.4 L 120.4,52.6 L 120.2,52.8 L 119.9,53.0 L 119.7,53.2 L 119.5,53.4 L 119.3,53.6 L 119.1,53.8 L 119.0,54.1 L 118.8,54.3 L 118.6,54.5 L 118.5,54.7 L 118.3,54.9 L 118.2,55.1 L 118.1,55.3 L 117.9,55.5 L 117.8,55.8 L 117.7,56.0 L 117.6,56.2 L 117.5,56.4 L 117.4,56.6 L 117.3,56.8 L 117.2,57.0 L 117.1,57.3 L 117.0,57.5 L 116.9,57.8 L 116.8,58.0 L 116.7,58.3 L 116.6,58.7 L 116.4,59.0 L 116.3,59.4 L 116.1,59.9 L 115.9,60.4 L 115.7,61.0 L 115.4,61.7 L 115.1,62.4 L 114.7,63.3 L 114.1,64.3 L 113.5,65.4 L 112.7,66.6 L 111.7,67.8 L 110.5,69.1 L 109.2,70.3 L 107.7,71.5 L 106.1,72.5 L 104.5,73.3 L 103.0,74.0 L 101.5,74.5 L 100.2,74.8 L 99.0,75.1 L 98.0,75.2 L 97.1,75.3 L 96.3,75.4 L 95.6,75.5 L 95.0,75.5 L 94.5,75.5 L 94.0,75.5 L 93.6,75.5 L 93.2,75.6 L 92.9,75.6 L 92.6,75.6 L 92.3,75.6 L 92.0,75.6 L 91.8,75.6 L 91.5,75.6 L 91.3,75.7 L 91.0,75.7 L 90.8,75.7 L 90.6,75.8 L 90.3,75.8 L 90.1,75.8 L 89.9,75.9 L 89.6,75.9 L 89.4,76.0 L 89.1,76.1 L 88.9,76.2 L 88.6,76.2 L 88.4,76.3 L 88.1,76.4 L 87.9,76.5 L 87.6,76.7 L 87.3,76.8 L 87.1,76.9 L 86.8,77.1 L 86.5,77.2 L 86.3,77.4 L 86.0,77.5 L 85.7,77.7 L 85.5,77.9 L 85.2,78.1 L 85.0,78.3 L 84.7,78.5 L 84.5,78.7 L 84.2,78.9 L 84.0,79.2 L 83.7,79.4 L 83.5,79.7 L 83.3,79.9 L 83.1,80.2 L 82.9,80.4 L 82.7,80.7 L 82.5,80.9 L 82.3,81.2 L 82.2,81.5 L 82.0,81.7 L 81.9,82.0 L 81.7,82.3 L 81.6,82.5 L 81.5,82.8 L 81.3,83.1 L 81.2,83.3 L 81.1,83.6 L 81.0,83.8 L 81.0,84.1 L 80.9,84.3 L 80.8,84.6 L 80.7,84.8 L 80.7,85.1 L 80.6,85.3 L 80.6,85.5 L 80.6,85.8 L 80.5,86.0 L 80.5,86.2 L 80.5,86.5 L 80.4,86.7 L 80.4,87.0 L 80.4,87.2 L 80.4,87.5 L 80.4,87.8 L 80.4,88.1 L 80.4,88.4 L 80.3,88.8 L 80.3,89.2 L 80.3,89.7 L 80.3,90.2 L 80.3,90.8 L 80.2,91.5 L 80.1,92.3 L 80.0,93.2 L 79.9,94.2 L 79.6,95.4 L 79.3,96.7 L 78.8,98.2 L 78.1,99.7 L 77.3,101.3 L 76.3,102.9 L 75.1,104.4 L 73.9,105.7 L 72.6,106.9 L 71.4,107.9 L 70.2,108.7 L 69.1,109.3 L 68.1,109.9 L 67.2,110.3 L 66.5,110.6 L 65.8,110.9 L 65.2,111.1 L 64.7,111.3 L 64.2,111.5 L 63.8,111.6 L 63.5,111.8 L 63.1,111.9 L 62.8,112.0 L 62.6,112.1 L 62.3,112.2 L 62.1,112.3 L 61.8,112.4 L 61.6,112.5 L 61.4,112.6 L 61.2,112.7 L 61.0,112.8 L 60.8,112.9 L 60.6,113.0 L 60.3,113.1 L 60.1,113.3 L 59.9,113.4 L 59.7,113.5 L 59.5,113.7 L 59.3,113.8 L 59.1,114.0 L 58.9,114.2 L 58.6,114.3 L 58.4,114.5 L 58.2,114.7 L 58.0,114.9 L 57.8,115.1 L 57.6,115.4 L 57.4,115.6 L 57.2,115.8 L 57.0,116.1 L 56.8,116.3 L 56.6,116.6 L 56.4,116.9 L 56.2,117.2 L 56.1,117.4 L 55.9,117.7 L 55.7,118.0 L 55.6,118.3 L 55.4,118.6 L 55.3,118.9 L 55.2,119.2 L 55.1,119.5 L 55.0,119.8 L 54.9,120.1 L 54.8,120.4 L 54.7,120.7 L 54.6,121.1 L 54.5,121.4 L 54.5,121.7 L 54.4,122.0 L 54.4,122.2 L 54.4,122.5 L 54.3,122.8 L 54.3,123.1 L 54.3,123.4 L 54.3,123.6 L 54.3,123.9 L 54.3,124.1 L 54.3,124.4 L 54.4,124.6 L 54.4,124.9 L 54.4,125.1 L 54.4,125.4 L 54.5,125.6 L 54.5,125.8 L 54.6,126.1 L 54.6,126.3 L 54.7,126.5 L 54.7,126.8 L 54.8,127.0 L 54.9,127.3 L 55.0,127.6 L 55.0,127.9 L 55.1,128.2 L 55.3,128.6 L 55.4,129.0 L 55.5,129.5 L 55.7,130.1 L 55.8,130.7 L 56.0,131.4 L 56.2,132.3 L 56.3,133.3 L 56.5,134.4 L 56.6,135.7 L 56.6,137.2 L 56.5,138.8 L 56.3,140.5 L 55.9,142.3 L 55.3,144.1 L 54.6,145.8 L 53.8,147.4 L 52.9,148.8 L 52.0,150.0 L 51.2,151.1 L 50.4,151.9 L 49.6,152.6 L 49.0,153.2 L 48.4,153.7 L 47.9,154.2 L 47.4,154.5 L 47.0,154.9 L 46.7,155.1 L 46.4,155.4 L 46.1,155.6 L 45.8,155.8 L 45.6,156.0 L 45.4,156.2 L 45.2,156.3 L 45.0,156.5 L 44.8,156.7 L 44.6,156.8 L 44.4,157.0 L 44.3,157.2 L 44.1,157.3 L 43.9,157.5 L 43.8,157.7 L 43.6,157.8 L 43.4,158.0 L 43.3,158.2 L 43.1,158.4 L 43.0,158.6 L 42.8,158.9 L 42.7,159.1 L 42.5,159.3 L 42.4,159.6 L 42.2,159.8 L 42.1,160.1 L 41.9,160.3 L 41.8,160.6 L 41.7,160.9 L 41.6,161.2 L 41.4,161.5 L 41.3,161.8 L 41.2,162.1 L 41.1,162.4 L 41.1,162.7 L 41.0,163.0 L 40.9,163.3 L 40.8,163.7 L 40.8,164.0 L 40.7,164.3 L 40.7,164.6 L 40.7,165.0 L 40.7,165.3 L 40.6,165.6 L 40.6,166.0 L 40.6,166.3 L 40.7,166.6 L 40.7,166.9 L 40.7,167.2 L 40.7,167.5 L 40.8,167.8 L 40.8,168.1 L 40.9,168.4 L 41.0,168.7 L 41.0,169.0 L 41.1,169.2 L 41.2,169.5 L 41.3,169.7 L 41.3,170.0 L 41.4,170.2 L 41.5,170.4 L 41.6,170.7 L 41.7,170.9 L 41.8,171.1 L 41.9,171.3 L 42.0,171.5 L 42.1,171.7 L 42.3,171.9 L 42.4,172.1 L 42.5,172.4 L 42.7,172.6 L 42.8,172.8 L 43.0,173.0 L 43.1,173.3 L 43.3,173.6 L 43.5,173.9 L 43.8,174.2 L 44.0,174.6 L 44.3,175.1 L 44.7,175.6 L 45.0,176.2 L 45.5,176.9 L 45.9,177.7 L 46.4,178.7 L 46.9,179.8 L 47.4,181.2 L 47.8,182.7 L 48.2,184.3 L 48.4,186.1 L 48.5,188.0 L 48.4,189.9 L 48.2,191.7 L 47.8,193.3 L 47.4,194.8 L 46.9,196.2 L 46.4,197.3 L 45.9,198.3 L 45.5,199.1 L 45.0,199.8 L 44.7,200.4 L 44.3,200.9 L 44.0,201.4 L 43.8,201.8 L 43.5,202.1 L 43.3,202.4 L 43.1,202.7 L 43.0,203.0 L 42.8,203.2 L 42.7,203.4 L 42.5,203.6 L 42.4,203.9 L 42.3,204.1 L 42.1,204.3 L 42.0,204.5 L 41.9,204.7 L 41.8,204.9 L 41.7,205.1 L 41.6,205.3 L 41.5,205.6 L 41.4,205.8 L 41.3,206.0 L 41.3,206.3 L 41.2,206.5 L 41.1,206.8 L 41.0,207.0 L 41.0,207.3 L 40.9,207.6 L 40.8,207.9 L 40.8,208.2 L 40.7,208.5 L 40.7,208.8 L 40.7,209.1 L 40.7,209.4 L 40.6,209.7 L 40.6,210.0 L 40.6,210.4 L 40.7,210.7 L 40.7,211.0 L 40.7,211.4 L 40.7,211.7 L 40.8,212.0 L 40.8,212.3 L 40.9,212.7 L 41.0,213.0 L 41.1,213.3 L 41.1,213.6 L 41.2,213.9 L 41.3,214.2 L 41.4,214.5 L 41.6,214.8 L 41.7,215.1 L 41.8,215.4 L 41.9,215.7 L 42.1,215.9 L 42.2,216.2 L 42.4,216.4 L 42.5,216.7 L 42.7,216.9 L 42.8,217.1 L 43.0,217.4 L 43.1,217.6 L 43.3,217.8 L 43.4,218.0 L 43.6,218.2 L 43.8,218.3 L 43.9,218.5 L 44.1,218.7 L 44.3,218.8 L 44.4,219.0 L 44.6,219.2 L 44.8,219.3 L 45.0,219.5 L 45.2,219.7 L 45.4,219.8 L 45.6,220.0 L 45.8,220.2 L 46.1,220.4 L 46.4,220.6 L 46.7,220.9 L 47.0,221.1 L 47.4,221.5 L 47.9,221.8 L 48.4,222.3 L 49.0,222.8 L 49.6,223.4 L 50.4,224.1 L 51.2,224.9 L 52.0,226.0 L 52.9,227.2 L 53.8,228.6 L 54.6,230.2 L 55.3,231.9 L 55.9,233.7 L 56.3,235.5 L 56.5,237.2 L 56.6,238.8 L 56.6,240.3 L 56.5,241.6 L 56.3,242.7 L 56.2,243.7 L 56.0,244.6 L 55.8,245.3 L 55.7,245.9 L 55.5,246.5 L 55.4,247.0 L 55.3,247.4 L 55.1,247.8 L 55.0,248.1 L 55.0,248.4 L 54.9,248.7 L 54.8,249.0 L 54.7,249.2 L 54.7,249.5 L 54.6,249.7 L 54.6,249.9 L 54.5,250.2 L 54.5,250.4 L 54.4,250.6 L 54.4,250.9 L 54.4,251.1 L 54.4,251.4 L 54.3,251.6 L 54.3,251.9 L 54.3,252.1 L 54.3,252.4 L 54.3,252.6 L 54.3,252.9 L 54.3,253.2 L 54.4,253.5 L 54.4,253.8 L 54.4,254.0 L 54.5,254.3 L 54.5,254.6 L 54.6,254.9 L 54.7,255.3 L 54.8,255.6 L 54.9,255.9 L 55.0,256.2 L 55.1,256.5 L 55.2,256.8 L 55.3,257.1 L 55.4,257.4 L 55.6,257.7 L 55.7,258.0 L 55.9,258.3 L 56.1,258.6 L 56.2,258.8 L 56.4,259.1 L 56.6,259.4 L 56.8,259.7 L 57.0,259.9 L 57.2,260.2 L 57.4,260.4 L 57.6,260.6 L 57.8,260.9 L 58.0,261.1 L 58.2,261.3 L 58.4,261.5 L 58.6,261.7 L 58.9,261.8 L 59.1,262.0 L 59.3,262.2 L 59.5,262.3 L 59.7,262.5 L 59.9,262.6 L 60.1,262.7 L 60.3,262.9 L 60.6,263.0 L 60.8,263.1 L 61.0,263.2 L 61.2,263.3 L 61.4,263.4 L 61.6,263.5 L 61.8,263.6 L 62.1,263.7 L 62.3,263.8 L 62.6,263.9 L 62.8,264.0 L 63.1,264.1 L 63.5,264.2 L 63.8,264.4 L 64.2,264.5 L 64.7,264.7 L 65.2,264.9 L 65.8,265.1 L 66.5,265.4 L 67.2,265.7 L 68.1,266.1 L 69.1,266.7 L 70.2,267.3 L 71.4,268.1 L 72.6,269.1 L 73.9,270.3 L 75.1,271.6 L 76.3,273.1 L 77.3,274.7 L 78.1,276.3 L 78.8,277.8 L 79.3,279.3 L 79.6,280.6 L 79.9,281.8 L 80.0,282.8 L 80.1,283.7 L 80.2,284.5 L 80.3,285.2 L 80.3,285.8 L 80.3,286.3 L 80.3,286.8 L 80.3,287.2 L 80.4,287.6 L 80.4,287.9 L 80.4,288.2 L 80.4,288.5 L 80.4,288.8 L 80.4,289.0 L 80.4,289.3 L 80.5,289.5 L 80.5,289.8 L 80.5,290.0 L 80.6,290.2 L 80.6,290.5 L 80.6,290.7 L 80.7,290.9 L 80.7,291.2 L 80.8,291.4 L 80.9,291.7 L 81.0,291.9 L 81.0,292.2 L 81.1,292.4 L 81.2,292.7 L 81.3,292.9 L 81.5,293.2 L 81.6,293.5 L 81.7,293.7 L 81.9,294.0 L 82.0,294.3 L 82.2,294.5 L 82.3,294.8 L 82.5,295.1 L 82.7,295.3 L 82.9,295.6 L 83.1,295.8 L 83.3,296.1 L 83.5,296.3 L 83.7,296.6 L 84.0,296.8 L 84.2,297.1 L 84.5,297.3 L 84.7,297.5 L 85.0,297.7 L 85.2,297.9 L 85.5,298.1 L 85.7,298.3 L 86.0,298.5 L 86.3,298.6 L 86.5,298.8 L 86.8,298.9 L 87.1,299.1 L 87.3,299.2 L 87.6,299.3 L 87.9,299.5 L 88.1,299.6 L 88.4,299.7 L 88.6,299.8 L 88.9,299.8 L 89.1,299.9 L 89.4,300.0 L 89.6,300.1 L 89.9,300.1 L 90.1,300.2 L 90.3,300.2 L 90.6,300.2 L 90.8,300.3 L 91.0,300.3 L 91.3,300.3 L 91.5,300.4 L 91.8,300.4 L 92.0,300.4 L 92.3,300.4 L 92.6,300.4 L 92.9,300.4 L 93.2,300.4 L 93.6,300.5 L 94.0,300.5 L 94.5,300.5 L 95.0,300.5 L 95.6,300.5 L 96.3,300.6 L 97.1,300.7 L 98.0,300.8 L 99.0,300.9 L 100.2,301.2 L 101.5,301.5 L 103.0,302.0 L 104.5,302.7 L 106.1,303.5 L 107.7,304.5 L 109.2,305.7 L 110.5,306.9 L 111.7,308.2 L 112.7,309.4 L 113.5,310.6 L 114.1,311.7 L 114.7,312.7 L 115.1,313.6 L 115.4,314.3 L 115.7,315.0 L 115.9,315.6 L 116.1,316.1 L 116.3,316.6 L 116.4,317.0 L 116.6,317.3 L 116.7,317.7 L 116.8,318.0 L 116.9,318.2 L 117.0,318.5 L 117.1,318.7 L 117.2,319.0 L 117.3,319.2 L 117.4,319.4 L 117.5,319.6 L 117.6,319.8 L 117.7,320.0 L 117.8,320.2 L 117.9,320.5 L 118.1,320.7 L 118.2,320.9 L 118.3,321.1 L 118.5,321.3 L 118.6,321.5 L 118.8,321.7 L 119.0,321.9 L 119.1,322.2 L 119.3,322.4 L 119.5,322.6 L 119.7,322.8 L 119.9,323.0 L 120.2,323.2 L 120.4,323.4 L 120.6,323.6 L 120.9,323.8 L 121.1,324.0 L 121.4,324.2 L 121.7,324.4 L 122.0,324.6 L 122.2,324.7 L 122.5,324.9 L 122.8,325.1 L 123.1,325.2 L 123.4,325.4 L 123.7,325.5 L 124.0,325.6 L 124.3,325.7 L 124.6,325.8 L 124.9,325.9 L 125.2,326.0 L 125.5,326.1 L 125.9,326.2 L 126.2,326.3 L 126.5,326.3 L 126.8,326.4 L 127.0,326.4 L 127.3,326.4 L 127.6,326.5 L 127.9,326.5 L 128.2,326.5 L 128.4,326.5 L 128.7,326.5 L 128.9,326.5 L 129.2,326.5 L 129.4,326.4 L 129.7,326.4 L 129.9,326.4 L 130.2,326.4 L 130.4,326.3 L 130.6,326.3 L 130.9,326.2 L 131.1,326.2 L 131.3,326.1 L 131.6,326.1 L 131.8,326.0 L 132.1,325.9 L 132.4,325.8 L 132.7,325.8 L 133.0,325.7 L 133.4,325.5 L 133.8,325.4 L 134.3,325.3 L 134.9,325.1 L 135.5,325.0 L 136.2,324.8 L 137.1,324.6 L 138.1,324.5 L 139.2,324.3 L 140.5,324.2 L 142.0,324.2 L 143.6,324.3 L 145.3,324.5 L 147.1,324.9 L 148.9,325.5 L 150.6,326.2 L 152.2,327.0 L 153.6,327.9 L 154.8,328.8 L 155.9,329.6 L 156.7,330.4 L 157.4,331.2 L 158.0,331.8 L 158.5,332.4 L 159.0,332.9 L 159.3,333.4 L 159.7,333.8 L 159.9,334.1 L 160.2,334.4 L 160.4,334.7 L 160.6,335.0 L 160.8,335.2 L 161.0,335.4 L 161.1,335.6 L 161.3,335.8 L 161.5,336.0 L 161.6,336.2 L 161.8,336.4 L 162.0,336.5 L 162.1,336.7 L 162.3,336.9 L 162.5,337.0 L 162.6,337.2 L 162.8,337.4 L 163.0,337.5 L 163.2,337.7 L 163.4,337.8 L 163.7,338.0 L 163.9,338.1 L 164.1,338.3 L 164.4,338.4 L 164.6,338.6 L 164.9,338.7 L 165.1,338.9 L 165.4,339.0 L 165.7,339.1 L 166.0,339.2 L 166.3,339.4 L 166.6,339.5 L 166.9,339.6 L 167.2,339.7 L 167.5,339.7 L 167.8,339.8 L 168.1,339.9 L 168.5,340.0 L 168.8,340.0 L 169.1,340.1 L 169.4,340.1 L 169.8,340.1 L 170.1,340.1 L 170.4,340.2 L 170.8,340.2 L 171.1,340.2 L 171.4,340.1 L 171.7,340.1 L 172.0,340.1 L 172.3,340.1 L 172.6,340.0 L 172.9,340.0 L 173.2,339.9 L 173.5,339.8 L 173.8,339.8 L 174.0,339.7 L 174.3,339.6 L 174.5,339.5 L 174.8,339.5 L 175.0,339.4 L 175.2,339.3 L 175.5,339.2 L 175.7,339.1 L 175.9,339.0 L 176.1,338.9 L 176.3,338.8 L 176.5,338.7 L 176.7,338.5 L 176.9,338.4 L 177.2,338.3 L 177.4,338.1 L 177.6,338.0 L 177.8,337.8 L 178.1,337.7 L 178.4,337.5 L 178.7,337.3 L 179.0,337.0 L 179.4,336.8 L 179.9,336.5 L 180.4,336.1 L 181.0,335.8 L 181.7,335.3 L 182.5,334.9 L 183.5,334.4 L 184.6,333.9 L 186.0,333.4 L 187.5,333.0 L 189.1,332.6 L 190.9,332.4 L 192.8,332.3 L 194.7,332.4 L 196.5,332.6 L 198.1,333.0 L 199.6,333.4 L 201.0,333.9 L 202.1,334.4 L 203.1,334.9 L 203.9,335.3 L 204.6,335.8 L 205.2,336.1 L 205.7,336.5 L 206.2,336.8 L 206.6,337.0 L 206.9,337.3 L 207.2,337.5 L 207.5,337.7 L 207.8,337.8 L 208.0,338.0 L 208.2,338.1 L 208.4,338.3 L 208.7,338.4 L 208.9,338.5 L 209.1,338.7 L 209.3,338.8 L 209.5,338.9 L 209.7,339.0 L 209.9,339.1 L 210.1,339.2 L 210.4,339.3 L 210.6,339.4 L 210.8,339.5 L 211.1,339.5 L 211.3,339.6 L 211.6,339.7 L 211.8,339.8 L 212.1,339.8 L 212.4,339.9 L 212.7,340.0 L 213.0,340.0 L 213.3,340.1 L 213.6,340.1 L 213.9,340.1 L 214.2,340.1 L 214.5,340.2 L 214.8,340.2 L 215.2,340.2 L 215.5,340.1 L 215.8,340.1 L 216.2,340.1 L 216.5,340.1 L 216.8,340.0 L 217.1,340.0 L 217.5,339.9 L 217.8,339.8 L 218.1,339.7 L 218.4,339.7 L 218.7,339.6 L 219.0,339.5 L 219.3,339.4 L 219.6,339.2 L 219.9,339.1 L 220.2,339.0 L 220.5,338.9 L 220.7,338.7 L 221.0,338.6 L 221.2,338.4 L 221.5,338.3 L 221.7,338.1 L 221.9,338.0 L 222.2,337.8 L 222.4,337.7 L 222.6,337.5 L 222.8,337.4 L 223.0,337.2 L 223.1,337.0 L 223.3,336.9 L 223.5,336.7 L 223.6,336.5 L 223.8,336.4 L 224.0,336.2 L 224.1,336.0 L 224.3,335.8 L 224.5,335.6 L 224.6,335.4 L 224.8,335.2 L 225.0,335.0 L 225.2,334.7 L 225.4,334.4 L 225.7,334.1 L 225.9,333.8 L 226.3,333.4 L 226.6,332.9 L 227.1,332.4 L 227.6,331.8 L 228.2,331.2 L 228.9,330.4 L 229.7,329.6 L 230.8,328.8 L 232.0,327.9 L 233.4,327.0 L 235.0,326.2 L 236.7,325.5 L 238.5,324.9 L 240.3,324.5 L 242.0,324.3 L 243.6,324.2 L 245.1,324.2 L 246.4,324.3 L 247.5,324.5 L 248.5,324.6 L 249.4,324.8 L 250.1,325.0 L 250.7,325.1 L 251.3,325.3 L 251.8,325.4 L 252.2,325.5 L 252.6,325.7 L 252.9,325.8 L 253.2,325.8 L 253.5,325.9 L 253.8,326.0 L 254.0,326.1 L 254.3,326.1 L 254.5,326.2 L 254.7,326.2 L 255.0,326.3 L 255.2,326.3 L 255.4,326.4 L 255.7,326.4 L 255.9,326.4 L 256.2,326.4 L 256.4,326.5 L 256.7,326.5 L 256.9,326.5 L 257.2,326.5 L 257.4,326.5 L 257.7,326.5 L 258.0,326.5 L 258.3,326.4 L 258.6,326.4 L 258.8,326.4 L 259.1,326.3 L 259.4,326.3 L 259.7,326.2 L 260.1,326.1 L 260.4,326.0 L 260.7,325.9 L 261.0,325.8 L 261.3,325.7 L 261.6,325.6 L 261.9,325.5 L 262.2,325.4 L 262.5,325.2 L 262.8,325.1 L 263.1,324.9 L 263.4,324.7 L 263.6,324.6 L 263.9,324.4 L 264.2,324.2 L 264.5,324.0 L 264.7,323.8 L 265.0,323.6 L 265.2,323.4 L 265.4,323.2 L 265.7,323.0 L 265.9,322.8 L 266.1,322.6 L 266.3,322.4 L 266.5,322.2 L 266.6,321.9 L 266.8,321.7 L 267.0,321.5 L 267.1,321.3 L 267.3,321.1 L 267.4,320.9 L 267.5,320.7 L 267.7,320.5 L 267.8,320.2 L 267.9,320.0 L 268.0,319.8 L 268.1,319.6 L 268.2,319.4 L 268.3,319.2 L 268.4,319.0 L 268.5,318.7 L 268.6,318.5 L 268.7,318.2 L 268.8,318.0 L 268.9,317.7 L 269.0,317.3 L 269.2,317.0 L 269.3,316.6 L 269.5,316.1 L 269.7,315.6 L 269.9,315.0 L 270.2,314.3 L 270.5,313.6 L 270.9,312.7 L 271.5,311.7 L 272.1,310.6 L 272.9,309.4 L 273.9,308.2 L 275.1,306.9 L 276.4,305.7 L 277.9,304.5 L 279.5,303.5 L 281.1,302.7 L 282.6,302.0 L 284.1,301.5 L 285.4,301.2 L 286.6,300.9 L 287.6,300.8 L 288.5,300.7 L 289.3,300.6 L 290.0,300.5 L 290.6,300.5 L 291.1,300.5 L 291.6,300.5 L 292.0,300.5 L 292.4,300.4 L 292.7,300.4 L 293.0,300.4 L 293.3,300.4 L 293.6,300.4 L 293.8,300.4 L 294.1,300.4 L 294.3,300.3 L 294.6,300.3 L 294.8,300.3 L 295.0,300.2 L 295.3,300.2 L 295.5,300.2 L 295.7,300.1 L 296.0,300.1 L 296.2,300.0 L 296.5,299.9 L 296.7,299.8 L 297.0,299.8 L 297.2,299.7 L 297.5,299.6 L 297.7,299.5 L 298.0,299.3 L 298.3,299.2 L 298.5,299.1 L 298.8,298.9 L 299.1,298.8 L 299.3,298.6 L 299.6,298.5 L 299.9,298.3 L 300.1,298.1 L 300.4,297.9 L 300.6,297.7 L 300.9,297.5 L 301.1,297.3 L 301.4,297.1 L 301.6,296.8 L 301.9,296.6 L 302.1,296.3 L 302.3,296.1 L 302.5,295.8 L 302.7,295.6 L 302.9,295.3 L 303.1,295.1 L 303.3,294.8 L 303.4,294.5 L 303.6,294.3 L 303.7,294.0 L 303.9,293.7 L 304.0,293.5 L 304.1,293.2 L 304.3,292.9 L 304.4,292.7 L 304.5,292.4 L 304.6,292.2 L 304.6,291.9 L 304.7,291.7 L 304.8,291.4 L 304.9,291.2 L 304.9,290.9 L 305.0,290.7 L 305.0,290.5 L 305.0,290.2 L 305.1,290.0 L 305.1,289.8 L 305.1,289.5 L 305.2,289.3 L 305.2,289.0 L 305.2,288.8 L 305.2,288.5 L 305.2,288.2 L 305.2,287.9 L 305.2,287.6 L 305.3,287.2 L 305.3,286.8 L 305.3,286.3 L 305.3,285.8 L 305.3,285.2 L 305.4,284.5 L 305.5,283.7 L 305.6,282.8 L 305.7,281.8 L 306.0,280.6 L 306.3,279.3 L 306.8,277.8 L 307.5,276.3 L 308.3,274.7 L 309.3,273.1 L 310.5,271.6 L 311.7,270.3 L 313.0,269.1 L 314.2,268.1 L 315.4,267.3 L 316.5,266.7 L 317.5,266.1 L 318.4,265.7 L 319.1,265.4 L 319.8,265.1 L 320.4,264.9 L 320.9,264.7 L 321.4,264.5 L 321.8,264.4 L 322.1,264.2 L 322.5,264.1 L 322.8,264.0 L 323.0,263.9 L 323.3,263.8 L 323.5,263.7 L 323.8,263.6 L 324.0,263.5 L 324.2,263.4 L 324.4,263.3 L 324.6,263.2 L 324.8,263.1 L 325.0,263.0 L 325.3,262.9 L 325.5,262.7 L 325.7,262.6 L 325.9,262.5 L 326.1,262.3 L 326.3,262.2 L 326.5,262.0 L 326.7,261.8 L 327.0,261.7 L 327.2,261.5 L 327.4,261.3 L 327.6,261.1 L 327.8,260.9 L 328.0,260.6 L 328.2,260.4 L 328.4,260.2 L 328.6,259.9 L 328.8,259.7 L 329.0,259.4 L 329.2,259.1 L 329.4,258.8 L 329.5,258.6 L 329.7,258.3 L 329.9,258.0 L 330.0,257.7 L 330.2,257.4 L 330.3,257.1 L 330.4,256.8 L 330.5,256.5 L 330.6,256.2 L 330.7,255.9 L 330.8,255.6 L 330.9,255.3 L 331.0,254.9 L 331.1,254.6 L 331.1,254.3 L 331.2,254.0 L 331.2,253.8 L 331.2,253.5 L 331.3,253.2 L 331.3,252.9 L 331.3,252.6 L 331.3,252.4 L 331.3,252.1 L 331.3,251.9 L 331.3,251.6 L 331.2,251.4 L 331.2,251.1 L 331.2,250.9 L 331.2,250.6 L 331.1,250.4 L 331.1,250.2 L 331.0,249.9 L 331.0,249.7 L 330.9,249.5 L 330.9,249.2 L 330.8,249.0 L 330.7,248.7 L 330.6,248.4 L 330.6,248.1 L 330.5,247.8 L 330.3,247.4 L 330.2,247.0 L 330.1,246.5 L 329.9,245.9 L 329.8,245.3 L 329.6,244.6 L 329.4,243.7 L 329.3,242.7 L 329.1,241.6 L 329.0,240.3 L 329.0,238.8 L 329.1,237.2 L 329.3,235.5 L 329.7,233.7 L 330.3,231.9 L 331.0,230.2 L 331.8,228.6 L 332.7,227.2 L 333.6,226.0 L 334.4,224.9 L 335.2,224.1 L 336.0,223.4 L 336.6,222.8 L 337.2,222.3 L 337.7,221.8 L 338.2,221.5 L 338.6,221.1 L 338.9,220.9 L 339.2,220.6 L 339.5,220.4 L 339.8,220.2 L 340.0,220.0 L 340.2,219.8 L 340.4,219.7 L 340.6,219.5 L 340.8,219.3 L 341.0,219.2 L 341.2,219.0 L 341.3,218.8 L 341.5,218.7 L 341.7,218.5 L 341.8,218.3 L 342.0,218.2 L 342.2,218.0 L 342.3,217.8 L 342.5,217.6 L 342.6,217.4 L 342.8,217.1 L 342.9,216.9 L 343.1,216.7 L 343.2,216.4 L 343.4,216.2 L 343.5,215.9 L 343.7,215.7 L 343.8,215.4 L 343.9,215.1 L 344.0,214.8 L 344.2,214.5 L 344.3,214.2 L 344.4,213.9 L 344.5,213.6 L 344.5,213.3 L 344.6,213.0 L 344.7,212.7 L 344.8,212.3 L 344.8,212.0 L 344.9,211.7 L 344.9,211.4 L 344.9,211.0 L 344.9,210.7 L 345.0,210.4 L 345.0,210.0 L 345.0,209.7 L 344.9,209.4 L 344.9,209.1 L 344.9,208.8 L 344.9,208.5 L 344.8,208.2 L 344.8,207.9 L 344.7,207.6 L 344.6,207.3 L 344.6,207.0 L 344.5,206.8 L 344.4,206.5 L 344.3,206.3 L 344.3,206.0 L 344.2,205.8 L 344.1,205.6 L 344.0,205.3 L 343.9,205.1 L 343.8,204.9 L 343.7,204.7 L 343.6,204.5 L 343.5,204.3 L 343.3,204.1 L 343.2,203.9 L 343.1,203.6 L 342.9,203.4 L 342.8,203.2 L 342.6,203.0 L 342.5,202.7 L 342.3,202.4 L 342.1,202.1 L 341.8,201.8 L 341.6,201.4 L 341.3,200.9 L 340.9,200.4 L 340.6,199.8 L 340.1,199.1 L 339.7,198.3 L 339.2,197.3 L 338.7,196.2 L 338.2,194.8 L 337.8,193.3 L 337.4,191.7 L 337.2,189.9 Z" fill="#e8eefc" stroke="#26c" stroke-width="1.5"/>
<circle cx="192.8" cy="188.0" r="72.6" fill="#fff" stroke="#26c"/>
<circle cx="300.8" cy="188.0" r="23.7" fill="#fff" stroke="#26c"/><circle cx="300.8" cy="188.0" r="18.0" fill="#bcd"/><circle cx="246.8" cy="94.5" r="23.7" fill="#fff" stroke="#26c"/><circle cx="246.8" cy="94.5" r="18.0" fill="#bcd"/><circle cx="138.8" cy="94.5" r="23.7" fill="#fff" stroke="#26c"/><circle cx="138.8" cy="94.5" r="18.0" fill="#bcd"/><circle cx="84.8" cy="188.0" r="23.7" fill="#fff" stroke="#26c"/><circle cx="84.8" cy="188.0" r="18.0" fill="#bcd"/><circle cx="138.8" cy="281.5" r="23.7" fill="#fff" stroke="#26c"/><circle cx="138.8" cy="281.5" r="18.0" fill="#bcd"/><circle cx="246.8" cy="281.5" r="23.7" fill="#fff" stroke="#26c"/><circle cx="246.8" cy="281.5" r="18.0" fill="#bcd"/>
<text x="8" y="366" font-family="monospace" font-size="14">rt_cyc20 disc — Zc=20 Zp=21 R=28.0 e=0.8 (cam at 0°)</text>
</svg>