<svg xmlns="http://www.w3.org/2000/svg" width="390" height="390" viewBox="0 0 390 390">
<rect width="100%" height="100%" fill="white"/>
<circle cx="195.0" cy="195.0" r="171.0" fill="none" stroke="#aaa" stroke-dasharray="4 3"/>
<circle cx="357.0" cy="195.0" r="12.0" fill="#888"/><circle cx="349.8" cy="147.2" r="12.0" fill="#888"/><circle cx="328.9" cy="103.7" r="12.0" fill="#888"/><circle cx="296.0" cy="68.3" r="12.0" fill="#888"/><circle cx="254.2" cy="44.2" r="12.0" fill="#888"/><circle cx="207.1" cy="33.5" r="12.0" fill="#888"/><circle cx="159.0" cy="37.1" r="12.0" fill="#888"/><circle cx="114.0" cy="54.7" r="12.0" fill="#888"/><circle cx="76.2" cy="84.8" r="12.0" fill="#888"/><circle cx="49.0" cy="124.7" r="12.0" fill="#888"/><circle cx="34.8" cy="170.9" r="12.0" fill="#888"/><circle cx="34.8" cy="219.1" r="12.0" fill="#888"/><circle cx="49.0" cy="265.3" r="12.0" fill="#888"/><circle cx="76.2" cy="305.2" r="12.0" fill="#888"/><circle cx="114.0" cy="335.3" r="12.0" fill="#888"/><circle cx="159.0" cy="352.9" r="12.0" fill="#888"/><circle cx="207.1" cy="356.5" r="12.0" fill="#888"/><circle cx="254.2" cy="345.8" r="12.0" fill="#888"/><circle cx="296.0" cy="321.7" r="12.0" fill="#888"/><circle cx="328.9" cy="286.3" r="12.0" fill="#888"/><circle cx="349.8" cy="242.8" r="12.0" fill="#888"/>
<path d="M 344.1,195.0 L 344.2,193.6 L 344.4,192.2 L 344.7,190.9 L 345.0,189.8 L 345.4,188.8 L 345.8,188.0 L 346.2,187.2 L 346.6,186.6 L 346.9,186.1 L 347.2,185.6 L 347.5,185.2 L 347.8,184.9 L 348.0,184.5 L 348.2,184.2 L 348.4,183.9 L 348.6,183.7 L 348.8,183.4 L 349.0,183.2 L 349.2,182.9 L 349.3,182.6 L 349.5,182.4 L 349.7,182.1 L 349.8,181.9 L 350.0,181.6 L 350.1,181.3 L 350.3,181.0 L 350.4,180.7 L 350.6,180.4 L 350.7,180.1 L 350.8,179.8 L 351.0,179.4 L 351.1,179.1 L 351.2,178.7 L 351.3,178.4 L 351.4,178.0 L 351.5,177.6 L 351.6,177.2 L 351.7,176.8 L 351.8,176.4 L 351.9,176.0 L 351.9,175.5 L 352.0,175.1 L 352.0,174.7 L 352.0,174.2 L 352.0,173.8 L 352.0,173.3 L 352.0,172.9 L 352.0,172.4 L 351.9,171.9 L 351.9,171.5 L 351.8,171.0 L 351.7,170.6 L 351.7,170.1 L 351.6,169.7 L 351.4,169.2 L 351.3,168.8 L 351.2,168.3 L 351.0,167.9 L 350.9,167.5 L 350.7,167.1 L 350.6,166.7 L 350.4,166.3 L 350.2,165.9 L 350.0,165.5 L 349.8,165.1 L 349.6,164.8 L 349.4,164.4 L 349.2,164.1 L 348.9,163.8 L 348.7,163.5 L 348.5,163.2 L 348.3,162.9 L 348.0,162.6 L 347.8,162.4 L 347.6,162.1 L 347.3,161.9 L 347.1,161.7 L 346.9,161.4 L 346.6,161.2 L 346.4,161.0 L 346.2,160.8 L 345.9,160.6 L 345.7,160.4 L 345.5,160.2 L 345.2,160.0 L 345.0,159.9 L 344.7,159.7 L 344.4,159.5 L 344.1,159.2 L 343.8,159.0 L 343.5,158.8 L 343.1,158.5 L 342.7,158.1 L 342.2,157.8 L 341.7,157.3 L 341.1,156.8 L 340.5,156.2 L 339.8,155.4 L 339.1,154.5 L 338.4,153.5 L 337.8,152.3 L 337.2,151.0 L 336.8,149.6 L 336.5,148.2 L 336.3,146.9 L 336.3,145.6 L 336.4,144.5 L 336.5,143.5 L 336.6,142.7 L 336.8,141.9 L 336.9,141.3 L 337.1,140.7 L 337.2,140.2 L 337.3,139.8 L 337.5,139.4 L 337.6,139.0 L 337.7,138.7 L 337.8,138.4 L 337.9,138.0 L 338.0,137.7 L 338.1,137.4 L 338.2,137.2 L 338.3,136.9 L 338.3,136.6 L 338.4,136.3 L 338.5,136.0 L 338.5,135.7 L 338.6,135.3 L 338.6,135.0 L 338.7,134.7 L 338.7,134.3 L 338.7,134.0 L 338.8,133.6 L 338.8,133.3 L 338.8,132.9 L 338.8,132.5 L 338.8,132.1 L 338.8,131.7 L 338.7,131.3 L 338.7,130.9 L 338.6,130.5 L 338.6,130.1 L 338.5,129.7 L 338.4,129.2 L 338.3,128.8 L 338.2,128.4 L 338.1,127.9 L 337.9,127.5 L 337.8,127.1 L 337.6,126.6 L 337.4,126.2 L 337.2,125.8 L 337.1,125.4 L 336.8,125.0 L 336.6,124.6 L 336.4,124.2 L 336.2,123.8 L 335.9,123.4 L 335.6,123.0 L 335.4,122.6 L 335.1,122.3 L 334.8,121.9 L 334.5,121.6 L 334.2,121.3 L 333.9,121.0 L 333.6,120.7 L 333.3,120.4 L 333.0,120.1 L 332.7,119.8 L 332.4,119.6 L 332.1,119.3 L 331.8,119.1 L 331.5,118.9 L 331.2,118.7 L 330.9,118.5 L 330.6,118.3 L 330.3,118.1 L 330.0,118.0 L 329.7,117.8 L 329.4,117.7 L 329.1,117.5 L 328.8,117.4 L 328.6,117.3 L 328.3,117.2 L 328.0,117.1 L 327.7,117.0 L 327.4,116.9 L 327.1,116.8 L 326.8,116.7 L 326.5,116.6 L 326.1,116.4 L 325.8,116.3 L 325.4,116.2 L 325.0,116.0 L 324.5,115.9 L 323.9,115.7 L 323.4,115.4 L 322.7,115.1 L 321.9,114.8 L 321.1,114.3 L 320.2,113.7 L 319.2,113.0 L 318.2,112.1 L 317.3,111.1 L 316.4,109.9 L 315.6,108.7 L 315.0,107.5 L 314.5,106.3 L 314.2,105.2 L 313.9,104.2 L 313.8,103.3 L 313.7,102.5 L 313.6,101.8 L 313.6,101.2 L 313.6,100.7 L 313.6,100.2 L 313.6,99.7 L 313.6,99.3 L 313.6,99.0 L 313.6,98.6 L 313.6,98.3 L 313.5,98.0 L 313.5,97.7 L 313.5,97.3 L 313.5,97.0 L 313.5,96.7 L 313.5,96.4 L 313.4,96.1 L 313.4,95.8 L 313.4,95.5 L 313.3,95.2 L 313.3,94.8 L 313.2,94.5 L 313.1,94.2 L 313.0,93.8 L 312.9,93.5 L 312.8,93.1 L 312.7,92.8 L 312.6,92.4 L 312.5,92.0 L 312.3,91.7 L 312.1,91.3 L 312.0,90.9 L 311.8,90.5 L 311.6,90.1 L 311.4,89.8 L 311.2,89.4 L 310.9,89.0 L 310.7,88.6 L 310.4,88.3 L 310.1,87.9 L 309.9,87.5 L 309.6,87.2 L 309.3,86.8 L 308.9,86.5 L 308.6,86.2 L 308.3,85.9 L 308.0,85.5 L 307.6,85.2 L 307.3,84.9 L 306.9,84.7 L 306.5,84.4 L 306.2,84.1 L 305.8,83.9 L 305.4,83.6 L 305.0,83.4 L 304.7,83.2 L 304.3,83.0 L 303.9,82.8 L 303.5,82.7 L 303.1,82.5 L 302.8,82.3 L 302.4,82.2 L 302.0,82.1 L 301.7,82.0 L 301.3,81.9 L 301.0,81.8 L 300.6,81.7 L 300.3,81.6 L 300.0,81.5 L 299.6,81.5 L 299.3,81.4 L 299.0,81.4 L 298.7,81.4 L 298.4,81.3 L 298.1,81.3 L 297.8,81.3 L 297.5,81.3 L 297.1,81.3 L 296.8,81.3 L 296.5,81.2 L 296.2,81.2 L 295.8,81.2 L 295.5,81.2 L 295.1,81.2 L 294.6,81.2 L 294.1,81.2 L 293.6,81.2 L 293.0,81.2 L 292.3,81.1 L 291.5,81.0 L 290.6,80.9 L 289.6,80.6 L 288.5,80.3 L 287.3,79.8 L 286.1,79.2 L 284.9,78.4 L 283.7,77.5 L 282.7,76.6 L 281.8,75.6 L 281.1,74.6 L 280.5,73.7 L 280.0,72.9 L 279.7,72.1 L 279.4,71.4 L 279.1,70.9 L 278.9,70.3 L 278.8,69.8 L 278.6,69.4 L 278.5,69.0 L 278.4,68.7 L 278.2,68.3 L 278.1,68.0 L 278.0,67.7 L 277.9,67.4 L 277.8,67.1 L 277.7,66.8 L 277.6,66.5 L 277.5,66.2 L 277.4,66.0 L 277.3,65.7 L 277.1,65.4 L 277.0,65.1 L 276.8,64.8 L 276.7,64.5 L 276.5,64.2 L 276.3,63.9 L 276.1,63.6 L 275.9,63.3 L 275.7,63.0 L 275.5,62.7 L 275.2,62.4 L 275.0,62.1 L 274.7,61.8 L 274.4,61.5 L 274.1,61.2 L 273.8,60.9 L 273.5,60.6 L 273.2,60.3 L 272.9,60.0 L 272.5,59.7 L 272.2,59.4 L 271.8,59.2 L 271.4,58.9 L 271.0,58.6 L 270.6,58.4 L 270.2,58.2 L 269.8,58.0 L 269.4,57.7 L 269.0,57.6 L 268.6,57.4 L 268.2,57.2 L 267.7,57.0 L 267.3,56.9 L 266.9,56.7 L 266.4,56.6 L 266.0,56.5 L 265.6,56.4 L 265.1,56.3 L 264.7,56.2 L 264.3,56.2 L 263.9,56.1 L 263.5,56.1 L 263.1,56.0 L 262.7,56.0 L 262.3,56.0 L 261.9,56.0 L 261.5,56.0 L 261.2,56.0 L 260.8,56.1 L 260.5,56.1 L 260.1,56.1 L 259.8,56.2 L 259.5,56.2 L 259.1,56.3 L 258.8,56.3 L 258.5,56.4 L 258.2,56.5 L 257.9,56.5 L 257.6,56.6 L 257.4,56.7 L 257.1,56.8 L 256.8,56.9 L 256.4,57.0 L 256.1,57.1 L 255.8,57.2 L 255.4,57.3 L 255.0,57.5 L 254.6,57.6 L 254.1,57.7 L 253.5,57.9 L 252.9,58.0 L 252.1,58.2 L 251.3,58.3 L 250.3,58.4 L 249.2,58.5 L 247.9,58.5 L 246.6,58.3 L 245.2,58.0 L 243.8,57.6 L 242.5,57.0 L 241.3,56.4 L 240.3,55.7 L 239.4,55.0 L 238.6,54.3 L 238.0,53.7 L 237.5,53.1 L 237.0,52.6 L 236.7,52.1 L 236.3,51.7 L 236.0,51.3 L 235.8,51.0 L 235.6,50.7 L 235.3,50.4 L 235.1,50.1 L 234.9,49.8 L 234.8,49.6 L 234.6,49.3 L 234.4,49.1 L 234.2,48.9 L 234.0,48.6 L 233.8,48.4 L 233.6,48.2 L 233.4,47.9 L 233.1,47.7 L 232.9,47.5 L 232.7,47.2 L 232.4,47.0 L 232.2,46.8 L 231.9,46.5 L 231.6,46.3 L 231.3,46.1 L 231.0,45.9 L 230.7,45.6 L 230.4,45.4 L 230.0,45.2 L 229.7,45.0 L 229.3,44.8 L 228.9,44.6 L 228.5,44.4 L 228.1,44.2 L 227.7,44.1 L 227.3,43.9 L 226.9,43.8 L 226.5,43.6 L 226.0,43.5 L 225.6,43.4 L 225.1,43.2 L 224.7,43.1 L 224.2,43.1 L 223.8,43.0 L 223.3,42.9 L 222.9,42.9 L 222.4,42.8 L 221.9,42.8 L 221.5,42.8 L 221.0,42.8 L 220.6,42.8 L 220.1,42.8 L 219.7,42.8 L 219.3,42.9 L 218.8,42.9 L 218.4,43.0 L 218.0,43.1 L 217.6,43.2 L 217.2,43.3 L 216.8,43.4 L 216.4,43.5 L 216.1,43.6 L 215.7,43.7 L 215.4,43.8 L 215.0,44.0 L 214.7,44.1 L 214.4,44.2 L 214.1,44.4 L 213.8,44.5 L 213.5,44.7 L 213.2,44.8 L 212.9,45.0 L 212.7,45.1 L 212.4,45.3 L 212.2,45.5 L 211.9,45.6 L 211.6,45.8 L 211.4,46.0 L 211.1,46.2 L 210.9,46.4 L 210.6,46.6 L 210.3,46.8 L 209.9,47.0 L 209.6,47.3 L 209.2,47.6 L 208.7,47.9 L 208.2,48.2 L 207.6,48.6 L 206.8,49.0 L 206.0,49.4 L 205.0,49.8 L 203.9,50.1 L 202.6,50.4 L 201.2,50.6 L 199.8,50.7 L 198.4,50.6 L 197.0,50.4 L 195.7,50.1 L 194.6,49.8 L 193.6,49.4 L 192.8,49.0 L 192.0,48.6 L 191.4,48.2 L 190.9,47.9 L 190.4,47.6 L 190.0,47.3 L 189.7,47.0 L 189.3,46.8 L 189.0,46.6 L 188.7,46.4 L 188.5,46.2 L 188.2,46.0 L 188.0,45.8 L 187.7,45.6 L 187.4,45.5 L 187.2,45.3 L 186.9,45.1 L 186.7,45.0 L 186.4,44.8 L 186.1,44.7 L 185.8,44.5 L 185.5,44.4 L 185.2,44.2 L 184.9,44.1 L 184.6,44.0 L 184.2,43.8 L 183.9,43.7 L 183.5,43.6 L 183.2,43.5 L 182.8,43.4 L 182.4,43.3 L 182.0,43.2 L 181.6,43.1 L 181.2,43.0 L 180.8,42.9 L 180.3,42.9 L 179.9,42.8 L 179.5,42.8 L 179.0,42.8 L 178.6,42.8 L 178.1,42.8 L 177.7,42.8 L 177.2,42.8 L 176.7,42.9 L 176.3,42.9 L 175.8,43.0 L 175.4,43.1 L 174.9,43.1 L 174.5,43.2 L 174.0,43.4 L 173.6,43.5 L 173.1,43.6 L 172.7,43.8 L 172.3,43.9 L 171.9,44.1 L 171.5,44.2 L 171.1,44.4 L 170.7,44.6 L 170.3,44.8 L 169.9,45.0 L 169.6,45.2 L 169.2,45.4 L 168.9,45.6 L 168.6,45.9 L 168.3,46.1 L 168.0,46.3 L 167.7,46.5 L 167.4,46.8 L 167.2,47.0 L 166.9,47.2 L 166.7,47.5 L 166.5,47.7 L 166.2,47.9 L 166.0,48.2 L 165.8,48.4 L 165.6,48.6 L 165.4,48.9 L 165.2,49.1 L 165.0,49.3 L 164.8,49.6 L 164.7,49.8 L 164.5,50.1 L 164.3,50.4 L 164.0,50.7 L 163.8,51.0 L 163.6,51.3 L 163.3,51.7 L 162.9,52.1 L 162.6,52.6 L 162.1,53.1 L 161.6,53.7 L 161.0,54.3 L 160.2,55.0 L 159.3,55.7 L 158.3,56.4 L 157.1,57.0 L 155.8,57.6 L 154.4,58.0 L 153.0,58.3 L 151.7,58.5 L 150.4,58.5 L 149.3,58.4 L 148.3,58.3 L 147.5,58.2 L 146.7,58.0 L 146.1,57.9 L 145.5,57.7 L 145.0,57.6 L 144.6,57.5 L 144.2,57.3 L 143.8,57.2 L 143.5,57.1 L 143.2,57.0 L 142.8,56.9 L 142.5,56.8 L 142.2,56.7 L 142.0,56.6 L 141.7,56.5 L 141.4,56.5 L 141.1,56.4 L 140.8,56.3 L 140.5,56.3 L 140.1,56.2 L 139.8,56.2 L 139.5,56.1 L 139.1,56.1 L 138.8,56.1 L 138.4,56.0 L 138.1,56.0 L 137.7,56.0 L 137.3,56.0 L 136.9,56.0 L 136.5,56.0 L 136.1,56.1 L 135.7,56.1 L 135.3,56.2 L 134.9,56.2 L 134.5,56.3 L 134.0,56.4 L 133.6,56.5 L 133.2,56.6 L 132.7,56.7 L 132.3,56.9 L 131.9,57.0 L 131.4,57.2 L 131.0,57.4 L 130.6,57.6 L 130.2,57.7 L 129.8,58.0 L 129.4,58.2 L 129.0,58.4 L 128.6,58.6 L 128.2,58.9 L 127.8,59.2 L 127.4,59.4 L 127.1,59.7 L 126.7,60.0 L 126.4,60.3 L 126.1,60.6 L 125.8,60.9 L 125.5,61.2 L 125.2,61.5 L 124.9,61.8 L 124.6,62.1 L 124.4,62.4 L 124.1,62.7 L 123.9,63.0 L 123.7,63.3 L 123.5,63.6 L 123.3,63.9 L 123.1,64.2 L 122.9,64.5 L 122.8,64.8 L 122.6,65.1 L 122.5,65.4 L 122.3,65.7 L 122.2,66.0 L 122.1,66.2 L 122.0,66.5 L 121.9,66.8 L 121.8,67.1 L 121.7,67.4 L 121.6,67.7 L 121.5,68.0 L 121.4,68.3 L 121.2,68.7 L 121.1,69.0 L 121.0,69.4 L 120.8,69.8 L 120.7,70.3 L 120.5,70.9 L 120.2,71.4 L 119.9,72.1 L 119.6,72.9 L 119.1,73.7 L 118.5,74.6 L 117.8,75.6 L 116.9,76.6 L 115.9,77.5 L 114.7,78.4 L 113.5,79.2 L 112.3,79.8 L 111.1,80.3 L 110.0,80.6 L 109.0,80.9 L 108.1,81.0 L 107.3,81.1 L 106.6,81.2 L 106.0,81.2 L 105.5,81.2 L 105.0,81.2 L 104.5,81.2 L 104.1,81.2 L 103.8,81.2 L 103.4,81.2 L 103.1,81.2 L 102.8,81.3 L 102.5,81.3 L 102.1,81.3 L 101.8,81.3 L 101.5,81.3 L 101.2,81.3 L 100.9,81.4 L 100.6,81.4 L 100.3,81.4 L 100.0,81.5 L 99.6,81.5 L 99.3,81.6 L 99.0,81.7 L 98.6,81.8 L 98.3,81.9 L 97.9,82.0 L 97.6,82.1 L 97.2,82.2 L 96.8,82.3 L 96.5,82.5 L 96.1,82.7 L 95.7,82.8 L 95.3,83.0 L 94.9,83.2 L 94.6,83.4 L 94.2,83.6 L 93.8,83.9 L 93.4,84.1 L 93.1,84.4 L 92.7,84.7 L 92.3,84.9 L 92.0,85.2 L 91.6,85.5 L 91.3,85.9 L 91.0,86.2 L 90.7,86.5 L 90.3,86.8 L 90.0,87.2 L 89.7,87.5 L 89.5,87.9 L 89.2,88.3 L 88.9,88.6 L 88.7,89.0 L 88.4,89.4 L 88.2,89.8 L 88.0,90.1 L 87.8,90.5 L 87.6,90.9 L 87.5,91.3 L 87.3,91.7 L 87.1,92.0 L 87.0,92.4 L 86.9,92.8 L 86.8,93.1 L 86.7,93.5 L 86.6,93.8 L 86.5,94.2 L 86.4,94.5 L 86.3,94.8 L 86.3,95.2 L 86.2,95.5 L 86.2,95.8 L 86.2,96.1 L 86.1,96.4 L 86.1,96.7 L 86.1,97.0 L 86.1,97.3 L 86.1,97.7 L 86.1,98.0 L 86.0,98.3 L 86.0,98.6 L 86.0,99.0 L 86.0,99.3 L 86.0,99.7 L 86.0,100.2 L 86.0,100.7 L 86.0,101.2 L 86.0,101.8 L 85.9,102.5 L 85.8,103.3 L 85.7,104.2 L 85.4,105.2 L 85.1,106.3 L 84.6,107.5 L 84.0,108.7 L 83.2,109.9 L 82.3,111.1 L 81.4,112.1 L 80.4,113.0 L 79.4,113.7 L 78.5,114.3 L 77.7,114.8 L 76.9,115.1 L 76.2,115.4 L 75.7,115.7 L 75.1,115.9 L 74.6,116.0 L 74.2,116.2 L 73.8,116.3 L 73.5,116.4 L 73.1,116.6 L 72.8,116.7 L 72.5,116.8 L 72.2,116.9 L 71.9,117.0 L 71.6,117.1 L 71.3,117.2 L 71.0,117.3 L 70.8,117.4 L 70.5,117.5 L 70.2,117.7 L 69.9,117.8 L 69.6,118.0 L 69.3,118.1 L 69.0,118.3 L 68.7,118.5 L 68.4,118.7 L 68.1,118.9 L 67.8,119.1 L 67.5,119.3 L 67.2,119.6 L 66.9,119.8 L 66.6,120.1 L 66.3,120.4 L 66.0,120.7 L 65.7,121.0 L 65.4,121.3 L 65.1,121.6 L 64.8,121.9 L 64.5,122.3 L 64.2,122.6 L 64.0,123.0 L 63.7,123.4 L 63.4,123.8 L 63.2,124.2 L 63.0,124.6 L 62.8,125.0 L 62.5,125.4 L 62.4,125.8 L 62.2,126.2 L 62.0,126.6 L 61.8,127.1 L 61.7,127.5 L 61.5,127.9 L 61.4,128.4 L 61.3,128.8 L 61.2,129.2 L 61.1,129.7 L 61.0,130.1 L 61.0,130.5 L 60.9,130.9 L 60.9,131.3 L 60.8,131.7 L 60.8,132.1 L 60.8,132.5 L 60.8,132.9 L 60.8,133.3 L 60.8,133.6 L 60.9,134.0 L 60.9,134.3 L 60.9,134.7 L 61.0,135.0 L 61.0,135.3 L 61.1,135.7 L 61.1,136.0 L 61.2,136.3 L 61.3,136.6 L 61.3,136.9 L 61.4,137.2 L 61.5,137.4 L 61.6,137.7 L 61.7,138.0 L 61.8,138.4 L 61.9,138.7 L 62.0,139.0 L 62.1,139.4 L 62.3,139.8 L 62.4,140.2 L 62.5,140.7 L 62.7,141.3 L 62.8,141.9 L 63.0,142.7 L 63.1,143.5 L 63.2,144.5 L 63.3,145.6 L 63.3,146.9 L 63.1,148.2 L 62.8,149.6 L 62.4,151.0 L 61.8,152.3 L 61.2,153.5 L 60.5,154.5 L 59.8,155.4 L 59.1,156.2 L 58.5,156.8 L 57.9,157.3 L 57.4,157.8 L 56.9,158.1 L 56.5,158.5 L 56.1,158.8 L 55.8,159.0 L 55.5,159.2 L 55.2,159.5 L 54.9,159.7 L 54.6,159.9 L 54.4,160.0 L 54.1,160.2 L 53.9,160.4 L 53.7,160.6 L 53.4,160.8 L 53.2,161.0 L 53.0,161.2 L 52.7,161.4 L 52.5,161.7 L 52.3,161.9 L 52.0,162.1 L 51.8,162.4 L 51.6,162.6 L 51.3,162.9 L 51.1,163.2 L 50.9,163.5 L 50.7,163.8 L 50.4,164.1 L 50.2,164.4 L 50.0,164.8 L 49.8,165.1 L 49.6,165.5 L 49.4,165.9 L 49.2,166.3 L 49.0,166.7 L 48.9,167.1 L 48.7,167.5 L 48.6,167.9 L 48.4,168.3 L 48.3,168.8 L 48.2,169.2 L 48.0,169.7 L 47.9,170.1 L 47.9,170.6 L 47.8,171.0 L 47.7,171.5 L 47.7,171.9 L 47.6,172.4 L 47.6,172.9 L 47.6,173.3 L 47.6,173.8 L 47.6,174.2 L 47.6,174.7 L 47.6,175.1 L 47.7,175.5 L 47.7,176.0 L 47.8,176.4 L 47.9,176.8 L 48.0,177.2 L 48.1,177.6 L 48.2,178.0 L 48.3,178.4 L 48.4,178.7 L 48.5,179.1 L 48.6,179.4 L 48.8,179.8 L 48.9,180.1 L 49.0,180.4 L 49.2,180.7 L 49.3,181.0 L 49.5,181.3 L 49.6,181.6 L 49.8,181.9 L 49.9,182.1 L 50.1,182.4 L 50.3,182.6 L 50.4,182.9 L 50.6,183.2 L 50.8,183.4 L 51.0,183.7 L 51.2,183.9 L 51.4,184.2 L 51.6,184.5 L 51.8,184.9 L 52.1,185.2 L 52.4,185.6 L 52.7,186.1 L 53.0,186.6 L 53.4,187.2 L 53.8,188.0 L 54.2,188.8 L 54.6,189.8 L 54.9,190.9 L 55.2,192.2 L 55.4,193.6 L 55.5,195.0 L 55.4,196.4 L 55.2,197.8 L 54.9,199.1 L 54.6,200.2 L 54.2,201.2 L 53.8,202.0 L 53.4,202.8 L 53.0,203.4 L 52.7,203.9 L 52.4,204.4 L 52.1,204.8 L 51.8,205.1 L 51.6,205.5 L 51.4,205.8 L 51.2,206.1 L 51.0,206.3 L 50.8,206.6 L 50.6,206.8 L 50.4,207.1 L 50.3,207.4 L 50.1,207.6 L 49.9,207.9 L 49.8,208.1 L 49.6,208.4 L 49.5,208.7 L 49.3,209.0 L 49.2,209.3 L 49.0,209.6 L 48.9,209.9 L 48.8,210.2 L 48.6,210.6 L 48.5,210.9 L 48.4,211.3 L 48.3,211.6 L 48.2,212.0 L 48.1,212.4 L 48.0,212.8 L 47.9,213.2 L 47.8,213.6 L 47.7,214.0 L 47.7,214.5 L 47.6,214.9 L 47.6,215.3 L 47.6,215.8 L 47.6,216.2 L 47.6,216.7 L 47.6,217.1 L 47.6,217.6 L 47.7,218.1 L 47.7,218.5 L 47.8,219.0 L 47.9,219.4 L 47.9,219.9 L 48.0,220.3 L 48.2,220.8 L 48.3,221.2 L 48.4,221.7 L 48.6,222.1 L 48.7,222.5 L 48.9,222.9 L 49.0,223.3 L 49.2,223.7 L 49.4,224.1 L 49.6,224.5 L 49.8,224.9 L 50.0,225.2 L 50.2,225.6 L 50.4,225.9 L 50.7,226.2 L 50.9,226.5 L 51.1,226.8 L 51.3,227.1 L 51.6,227.4 L 51.8,227.6 L 52.0,227.9 L 52.3,228.1 L 52.5,228.3 L 52.7,228.6 L 53.0,228.8 L 53.2,229.0 L 53.4,229.2 L 53.7,229.4 L 53.9,229.6 L 54.1,229.8 L 54.4,230.0 L 54.6,230.1 L 54.9,230.3 L 55.2,230.5 L 55.5,230.8 L 55.8,231.0 L 56.1,231.2 L 56.5,231.5 L 56.9,231.9 L 57.4,232.2 L 57.9,232.7 L 58.5,233.2 L 59.1,233.8 L 59.8,234.6 L 60.5,235.5 L 61.2,236.5 L 61.8,237.7 L 62.4,239.0 L 62.8,240.4 L 63.1,241.8 L 63.3,243.1 L 63.3,244.4 L 63.2,245.5 L 63.1,246.5 L 63.0,247.3 L 62.8,248.1 L 62.7,248.7 L 62.5,249.3 L 62.4,249.8 L 62.3,250.2 L 62.1,250.6 L 62.0,251.0 L 61.9,251.3 L 61.8,251.6 L 61.7,252.0 L 61.6,252.3 L 61.5,252.6 L 61.4,252.8 L 61.3,253.1 L 61.3,253.4 L 61.2,253.7 L 61.1,254.0 L 61.1,254.3 L 61.0,254.7 L 61.0,255.0 L 60.9,255.3 L 60.9,255.7 L 60.9,256.0 L 60.8,256.4 L 60.8,256.7 L 60.8,257.1 L 60.8,257.5 L 60.8,257.9 L 60.8,258.3 L 60.9,258.7 L 60.9,259.1 L 61.0,259.5 L 61.0,259.9 L 61.1,260.3 L 61.2,260.8 L 61.3,261.2 L 61.4,261.6 L 61.5,262.1 L 61.7,262.5 L 61.8,262.9 L 62.0,263.4 L 62.2,263.8 L 62.4,264.2 L 62.5,264.6 L 62.8,265.0 L 63.0,265.4 L 63.2,265.8 L 63.4,266.2 L 63.7,266.6 L 64.0,267.0 L 64.2,267.4 L 64.5,267.7 L 64.8,268.1 L 65.1,268.4 L 65.4,268.7 L 65.7,269.0 L 66.0,269.3 L 66.3,269.6 L 66.6,269.9 L 66.9,270.2 L 67.2,270.4 L 67.5,270.7 L 67.8,270.9 L 68.1,271.1 L 68.4,271.3 L 68.7,271.5 L 69.0,271.7 L 69.3,271.9 L 69.6,272.0 L 69.9,272.2 L 70.2,272.3 L 70.5,272.5 L 70.8,272.6 L 71.0,272.7 L 71.3,272.8 L 71.6,272.9 L 71.9,273.0 L 72.2,273.1 L 72.5,273.2 L 72.8,273.3 L 73.1,273.4 L 73.5,273.6 L 73.8,273.7 L 74.2,273.8 L 74.6,274.0 L 75.1,274.1 L 75.7,274.3 L 76.2,274.6 L 76.9,274.9 L 77.7,275.2 L 78.5,275.7 L 79.4,276.3 L 80.4,277.0 L 81.4,277.9 L 82.3,278.9 L 83.2,280.1 L 84.0,281.3 L 84.6,282.5 L 85.1,283.7 L 85.4,284.8 L 85.7,285.8 L 85.8,286.7 L 85.9,287.5 L 86.0,288.2 L 86.0,288.8 L 86.0,289.3 L 86.0,289.8 L 86.0,290.3 L 86.0,290.7 L 86.0,291.0 L 86.0,291.4 L 86.0,291.7 L 86.1,292.0 L 86.1,292.3 L 86.1,292.7 L 86.1,293.0 L 86.1,293.3 L 86.1,293.6 L 86.2,293.9 L 86.2,294.2 L 86.2,294.5 L 86.3,294.8 L 86.3,295.2 L 86.4,295.5 L 86.5,295.8 L 86.6,296.2 L 86.7,296.5 L 86.8,296.9 L 86.9,297.2 L 87.0,297.6 L 87.1,298.0 L 87.3,298.3 L 87.5,298.7 L 87.6,299.1 L 87.8,299.5 L 88.0,299.9 L 88.2,300.2 L 88.4,300.6 L 88.7,301.0 L 88.9,301.4 L 89.2,301.7 L 89.5,302.1 L 89.7,302.5 L 90.0,302.8 L 90.3,303.2 L 90.7,303.5 L 91.0,303.8 L 91.3,304.1 L 91.6,304.5 L 92.0,304.8 L 92.3,305.1 L 92.7,305.3 L 93.1,305.6 L 93.4,305.9 L 93.8,306.1 L 94.2,306.4 L 94.6,306.6 L 94.9,306.8 L 95.3,307.0 L 95.7,307.2 L 96.1,307.3 L 96.5,307.5 L 96.8,307.7 L 97.2,307.8 L 97.6,307.9 L 97.9,308.0 L 98.3,308.1 L 98.6,308.2 L 99.0,308.3 L 99.3,308.4 L 99.6,308.5 L 100.0,308.5 L 100.3,308.6 L 100.6,308.6 L 100.9,308.6 L 101.2,308.7 L 101.5,308.7 L 101.8,308.7 L 102.1,308.7 L 102.5,308.7 L 102.8,308.7 L 103.1,308.8 L 103.4,308.8 L 103.8,308.8 L 104.1,308.8 L 104.5,308.8 L 105.0,308.8 L 105.5,308.8 L 106.0,308.8 L 106.6,308.8 L 107.3,308.9 L 108.1,309.0 L 109.0,309.1 L 110.0,309.4 L 111.1,309.7 L 112.3,310.2 L 113.5,310.8 L 114.7,311.6 L 115.9,312.5 L 116.9,313.4 L 117.8,314.4 L 118.5,315.4 L 119.1,316.3 L 119.6,317.1 L 119.9,317.9 L 120.2,318.6 L 120.5,319.1 L 120.7,319.7 L 120.8,320.2 L 121.0,320.6 L 121.1,321.0 L 121.2,321.3 L 121.4,321.7 L 121.5,322.0 L 121.6,322.3 L 121.7,322.6 L 121.8,322.9 L 121.9,323.2 L 122.0,323.5 L 122.1,323.8 L 122.2,324.0 L 122.3,324.3 L 122.5,324.6 L 122.6,324.9 L 122.8,325.2 L 122.9,325.5 L 123.1,325.8 L 123.3,326.1 L 123.5,326.4 L 123.7,326.7 L 123.9,327.0 L 124.1,327.3 L 124.4,327.6 L 124.6,327.9 L 124.9,328.2 L 125.2,328.5 L 125.5,328.8 L 125.8,329.1 L 126.1,329.4 L 126.4,329.7 L 126.7,330.0 L 127.1,330.3 L 127.4,330.6 L 127.8,330.8 L 128.2,331.1 L 128.6,331.4 L 129.0,331.6 L 129.4,331.8 L 129.8,332.0 L 130.2,332.3 L 130.6,332.4 L 131.0,332.6 L 131.4,332.8 L 131.9,333.0 L 132.3,333.1 L 132.7,333.3 L 133.2,333.4 L 133.6,333.5 L 134.0,333.6 L 134.5,333.7 L 134.9,333.8 L 135.3,333.8 L 135.7,333.9 L 136.1,333.9 L 136.5,334.0 L 136.9,334.0 L 137.3,334.0 L 137.7,334.0 L 138.1,334.0 L 138.4,334.0 L 138.8,333.9 L 139.1,333.9 L 139.5,333.9 L 139.8,333.8 L 140.1,333.8 L 140.5,333.7 L 140.8,333.7 L 141.1,333.6 L 141.4,333.5 L 141.7,333.5 L 142.0,333.4 L 142.2,333.3 L 142.5,333.2 L 142.8,333.1 L 143.2,333.0 L 143.5,332.9 L 143.8,332.8 L 144.2,332.7 L 144.6,332.5 L 145.0,332.4 L 145.5,332.3 L 146.1,332.1 L 146.7,332.0 L 147.5,331.8 L 148.3,331.7 L 149.3,331.6 L 150.4,331.5 L 151.7,331.5 L 153.0,331.7 L 154.4,332.0 L 155.8,332.4 L 157.1,333.0 L 158.3,333.6 L 159.3,334.3 L 160.2,335.0 L 161.0,335.7 L 161.6,336.3 L 162.1,336.9 L 162.6,337.4 L 162.9,337.9 L 163.3,338.3 L 163.6,338.7 L 163.8,339.0 L 164.0,339.3 L 164.3,339.6 L 164.5,339.9 L 164.7,340.2 L 164.8,340.4 L 165.0,340.7 L 165.2,340.9 L 165.4,341.1 L 165.6,341.4 L 165.8,341.6 L 166.0,341.8 L 166.2,342.1 L 166.5,342.3 L 166.7,342.5 L 166.9,342.8 L 167.2,343.0 L 167.4,343.2 L 167.7,343.5 L 168.0,343.7 L 168.3,343.9 L 168.6,344.1 L 168.9,344.4 L 169.2,344.6 L 169.6,344.8 L 169.9,345.0 L 170.3,345.2 L 170.7,345.4 L 171.1,345.6 L 171.5,345.8 L 171.9,345.9 L 172.3,346.1 L 172.7,346.2 L 173.1,346.4 L 173.6,346.5 L 174.0,346.6 L 174.5,346.8 L 174.9,346.9 L 175.4,346.9 L 175.8,347.0 L 176.3,347.1 L 176.7,347.1 L 177.2,347.2 L 177.7,347.2 L 178.1,347.2 L 178.6,347.2 L 179.0,347.2 L 179.5,347.2 L 179.9,347.2 L 180.3,347.1 L 180.8,347.1 L 181.2,347.0 L 181.6,346.9 L 182.0,346.8 L 182.4,346.7 L 182.8,346.6 L 183.2,346.5 L 183.5,346.4 L 183.9,346.3 L 184.2,346.2 L 184.6,346.0 L 184.9,345.9 L 185.2,345.8 L 185.5,345.6 L 185.8,345.5 L 186.1,345.3 L 186.4,345.2 L 186.7,345.0 L 186.9,344.9 L 187.2,344.7 L 187.4,344.5 L 187.7,344.4 L 188.0,344.2 L 188.2,344.0 L 188.5,343.8 L 188.7,343.6 L 189.0,343.4 L 189.3,343.2 L 189.7,343.0 L 190.0,342.7 L 190.4,342.4 L 190.9,342.1 L 191.4,341.8 L 192.0,341.4 L 192.8,341.0 L 193.6,340.6 L 194.6,340.2 L 195.7,339.9 L 197.0,339.6 L 198.4,339.4 L 199.8,339.3 L 201.2,339.4 L 202.6,339.6 L 203.9,339.9 L 205.0,340.2 L 206.0,340.6 L 206.8,341.0 L 207.6,341.4 L 208.2,341.8 L 208.7,342.1 L 209.2,342.4 L 209.6,342.7 L 209.9,343.0 L 210.3,343.2 L 210.6,343.4 L 210.9,343.6 L 211.1,343.8 L 211.4,344.0 L 211.6,344.2 L 211.9,344.4 L 212.2,344.5 L 212.4,344.7 L 212.7,344.9 L 212.9,345.0 L 213.2,345.2 L 213.5,345.3 L 213.8,345.5 L 214.1,345.6 L 214.4,345.8 L 214.7,345.9 L 215.0,346.0 L 215.4,346.2 L 215.7,346.3 L 216.1,346.4 L 216.4,346.5 L 216.8,346.6 L 217.2,346.7 L 217.6,346.8 L 218.0,346.9 L 218.4,347.0 L 218.8,347.1 L 219.3,347.1 L 219.7,347.2 L 220.1,347.2 L 220.6,347.2 L 221.0,347.2 L 221.5,347.2 L 221.9,347.2 L 222.4,347.2 L 222.9,347.1 L 223.3,347.1 L 223.8,347.0 L 224.2,346.9 L 224.7,346.9 L 225.1,346.8 L 225.6,346.6 L 226.0,346.5 L 226.5,346.4 L 226.9,346.2 L 227.3,346.1 L 227.7,345.9 L 228.1,345.8 L 228.5,345.6 L 228.9,345.4 L 229.3,345.2 L 229.7,345.0 L 230.0,344.8 L 230.4,344.6 L 230.7,344.4 L 231.0,344.1 L 231.3,343.9 L 231.6,343.7 L 231.9,343.5 L 232.2,343.2 L 232.4,343.0 L 232.7,342.8 L 232.9,342.5 L 233.1,342.3 L 233.4,342.1 L 233.6,341.8 L 233.8,341.6 L 234.0,341.4 L 234.2,341.1 L 234.4,340.9 L 234.6,340.7 L 234.8,340.4 L 234.9,340.2 L 235.1,339.9 L 235.3,339.6 L 235.6,339.3 L 235.8,339.0 L 236.0,338.7 L 236.3,338.3 L 236.7,337.9 L 237.0,337.4 L 237.5,336.9 L 238.0,336.3 L 238.6,335.7 L 239.4,335.0 L 240.3,334.3 L 241.3,333.6 L 242.5,333.0 L 243.8,332.4 L 245.2,332.0 L 246.6,331.7 L 247.9,331.5 L 249.2,331.5 L 250.3,331.6 L 251.3,331.7 L 252.1,331.8 L 252.9,332.0 L 253.5,332.1 L 254.1,332.3 L 254.6,332.4 L 255.0,332.5 L 255.4,332.7 L 255.8,332.8 L 256.1,332.9 L 256.4,333.0 L 256.8,333.1 L 257.1,333.2 L 257.4,333.3 L 257.6,333.4 L 257.9,333.5 L 258.2,333.5 L 258.5,333.6 L 258.8,333.7 L 259.1,333.7 L 259.5,333.8 L 259.8,333.8 L 260.1,333.9 L 260.5,333.9 L 260.8,333.9 L 261.2,334.0 L 261.5,334.0 L 261.9,334.0 L 262.3,334.0 L 262.7,334.0 L 263.1,334.0 L 263.5,333.9 L 263.9,333.9 L 264.3,333.8 L 264.7,333.8 L 265.1,333.7 L 265.6,333.6 L 266.0,333.5 L 266.4,333.4 L 266.9,333.3 L 267.3,333.1 L 267.7,333.0 L 268.2,332.8 L 268.6,332.6 L 269.0,332.4 L 269.4,332.3 L 269.8,332.0 L 270.2,331.8 L 270.6,331.6 L 271.0,331.4 L 271.4,331.1 L 271.8,330.8 L 272.2,330.6 L 272.5,330.3 L 272.9,330.0 L 273.2,329.7 L 273.5,329.4 L 273.8,329.1 L 274.1,328.8 L 274.4,328.5 L 274.7,328.2 L 275.0,327.9 L 275.2,327.6 L 275.5,327.3 L 275.7,327.0 L 275.9,326.7 L 276.1,326.4 L 276.3,326.1 L 276.5,325.8 L 276.7,325.5 L 276.8,325.2 L 277.0,324.9 L 277.1,324.6 L 277.3,324.3 L 277.4,324.0 L 277.5,323.8 L 277.6,323.5 L 277.7,323.2 L 277.8,322.9 L 277.9,322.6 L 278.0,322.3 L 278.1,322.0 L 278.2,321.7 L 278.4,321.3 L 278.5,321.0 L 278.6,320.6 L 278.8,320.2 L 278.9,319.7 L 279.1,319.1 L 279.4,318.6 L 279.7,317.9 L 280.0,317.1 L 280.5,316.3 L 281.1,315.4 L 281.8,314.4 L 282.7,313.4 L 283.7,312.5 L 284.9,311.6 L 286.1,310.8 L 287.3,310.2 L 288.5,309.7 L 289.6,309.4 L 290.6,309.1 L 291.5,309.0 L 292.3,308.9 L 293.0,308.8 L 293.6,308.8 L 294.1,308.8 L 294.6,308.8 L 295.1,308.8 L 295.5,308.8 L 295.8,308.8 L 296.2,308.8 L 296.5,308.8 L 296.8,308.7 L 297.1,308.7 L 297.5,308.7 L 297.8,308.7 L 298.1,308.7 L 298.4,308.7 L 298.7,308.6 L 299.0,308.6 L 299.3,308.6 L 299.6,308.5 L 300.0,308.5 L 300.3,308.4 L 300.6,308.3 L 301.0,308.2 L 301.3,308.1 L 301.7,308.0 L 302.0,307.9 L 302.4,307.8 L 302.8,307.7 L 303.1,307.5 L 303.5,307.3 L 303.9,307.2 L 304.3,307.0 L 304.7,306.8 L 305.0,306.6 L 305.4,306.4 L 305.8,306.1 L 306.2,305.9 L 306.5,305.6 L 306.9,305.3 L 307.3,305.1 L 307.6,304.8 L 308.0,304.5 L 308.3,304.1 L 308.6,303.8 L 308.9,303.5 L 309.3,303.2 L 309.6,302.8 L 309.9,302.5 L 310.1,302.1 L 310.4,301.7 L 310.7,301.4 L 310.9,301.0 L 311.2,300.6 L 311.4,300.2 L 311.6,299.9 L 311.8,299.5 L 312.0,299.1 L 312.1,298.7 L 312.3,298.3 L 312.5,298.0 L 312.6,297.6 L 312.7,297.2 L 312.8,296.9 L 312.9,296.5 L 313.0,296.2 L 313.1,295.8 L 313.2,295.5 L 313.3,295.2 L 313.3,294.8 L 313.4,294.5 L 313.4,294.2 L 313.4,293.9 L 313.5,293.6 L 313.5,293.3 L 313.5,293.0 L 313.5,292.7 L 313.5,292.3 L 313.5,292.0 L 313.6,291.7 L 313.6,291.4 L 313.6,291.0 L 313.6,290.7 L 313.6,290.3 L 313.6,289.8 L 313.6,289.3 L 313.6,288.8 L 313.6,288.2 L 313.7,287.5 L 313.8,286.7 L 313.9,285.8 L 314.2,284.8 L 314.5,283.7 L 315.0,282.5 L 315.6,281.3 L 316.4,280.1 L 317.3,278.9 L 318.2,277.9 L 319.2,277.0 L 320.2,276.3 L 321.1,275.7 L 321.9,275.2 L 322.7,274.9 L 323.4,274.6 L 323.9,274.3 L 324.5,274.1 L 325.0,274.0 L 325.4,273.8 L 325.8,273.7 L 326.1,273.6 L 326.5,273.4 L 326.8,273.3 L 327.1,273.2 L 327.4,273.1 L 327.7,273.0 L 328.0,272.9 L 328.3,272.8 L 328.6,272.7 L 328.8,272.6 L 329.1,272.5 L 329.4,272.3 L 329.7,272.2 L 330.0,272.0 L 330.3,271.9 L 330.6,271.7 L 330.9,271.5 L 331.2,271.3 L 331.5,271.1 L 331.8,270.9 L 332.1,270.7 L 332.4,270.4 L 332.7,270.2 L 333.0,269.9 L 333.3,269.6 L 333.6,269.3 L 333.9,269.0 L 334.2,268.7 L 334.5,268.4 L 334.8,268.1 L 335.1,267.7 L 335.4,267.4 L 335.6,267.0 L 335.9,266.6 L 336.2,266.2 L 336.4,265.8 L 336.6,265.4 L 336.8,265.0 L 337.1,264.6 L 337.2,264.2 L 337.4,263.8 L 337.6,263.4 L 337.8,262.9 L 337.9,262.5 L 338.1,262.1 L 338.2,261.6 L 338.3,261.2 L 338.4,260.8 L 338.5,260.3 L 338.6,259.9 L 338.6,259.5 L 338.7,259.1 L 338.7,258.7 L 338.8,258.3 L 338.8,257.9 L 338.8,257.5 L 338.8,257.1 L 338.8,256.7 L 338.8,256.4 L 338.7,256.0 L 338.7,255.7 L 338.7,255.3 L 338.6,255.0 L 338.6,254.7 L 338.5,254.3 L 338.5,254.0 L 338.4,253.7 L 338.3,253.4 L 338.3,253.1 L 338.2,252.8 L 338.1,252.6 L 338.0,252.3 L 337.9,252.0 L 337.8,251.6 L 337.7,251.3 L 337.6,251.0 L 337.5,250.6 L 337.3,250.2 L 337.2,249.8 L 337.1,249.3 L 336.9,248.7 L 336.8,248.1 L 336.6,247.3 L 336.5,246.5 L 336.4,245.5 L 336.3,244.4 L 336.3,243.1 L 336.5,241.8 L 336.8,240.4 L 337.2,239.0 L 337.8,237.7 L 338.4,236.5 L 339.1,235.5 L 339.8,234.6 L 340.5,233.8 L 341.1,233.2 L 341.7,232.7 L 342.2,232.2 L 342.7,231.9 L 343.1,231.5 L 343.5,231.2 L 343.8,231.0 L 344.1,230.8 L 344.4,230.5 L 344.7,230.3 L 345.0,230.1 L 345.2,230.0 L 345.5,229.8 L 345.7,229.6 L 345.9,229.4 L 346.2,229.2 L 346.4,229.0 L 346.6,228.8 L 346.9,228.6 L 347.1,228.3 L 347.3,228.1 L 347.6,227.9 L 347.8,227.6 L 348.0,227.4 L 348.3,227.1 L 348.5,226.8 L 348.7,226.5 L 348.9,226.2 L 349.2,225.9 L 349.4,225.6 L 349.6,225.2 L 349.8,224.9 L 350.0,224.5 L 350.2,224.1 L 350.4,223.7 L 350.6,223.3 L 350.7,222.9 L 350.9,222.5 L 351.0,222.1 L 351.2,221.7 L 351.3,221.2 L 351.4,220.8 L 351.6,220.3 L 351.7,219.9 L 351.7,219.4 L 351.8,219.0 L 351.9,218.5 L 351.9,218.1 L 352.0,217.6 L 352.0,217.1 L 352.0,216.7 L 352.0,216.2 L 352.0,215.8 L 352.0,215.3 L 352.0,214.9 L 351.9,214.5 L 351.9,214.0 L 351.8,213.6 L 351.7,213.2 L 351.6,212.8 L 351.5,212.4 L 351.4,212.0 L 351.3,211.6 L 351.2,211.3 L 351.1,210.9 L 351.0,210.6 L 350.8,210.2 L 350.7,209.9 L 350.6,209.6 L 350.4,209.3 L 350.3,209.0 L 350.1,208.7 L 350.0,208.4 L 349.8,208.1 L 349.7,207.9 L 349.5,207.6 L 349.3,207.4 L 349.2,207.1 L 349.0,206.8 L 348.8,206.6 L 348.6,206.3 L 348.4,206.1 L 348.2,205.8 L 348.0,205.5 L 347.8,205.1 L 347.5,204.8 L 347.2,204.4 L 346.9,203.9 L 346.6,203.4 L 346.2,202.8 L 345.8,202.0 L 345.4,201.2 L 345.0,200.2 L 344.7,199.1 L 344.4,197.8 L 344.2,196.4 Z" fill="#e8eefc" stroke="#26c" stroke-width="1.5"/>
<circle cx="199.8" cy="195.0" r="72.6" fill="#fff" stroke="#26c"/>
<circle cx="307.8" cy="195.0" r="23.5" fill="#fff" stroke="#26c"/><circle cx="307.8" cy="195.0" r="18.0" fill="#bcd"/><circle cx="253.8" cy="101.5" r="23.5" fill="#fff" stroke="#26c"/><circle cx="253.8" cy="101.5" r="18.0" fill="#bcd"/><circle cx="145.8" cy="101.5" r="23.5" fill="#fff" stroke="#26c"/><circle cx="145.8" cy="101.5" r="18.0" fill="#bcd"/><circle cx="91.8" cy="195.0" r="23.5" fill="#fff" stroke="#26c"/><circle cx="91.8" cy="195.0" r="18.0" fill="#bcd"/><circle cx="145.8" cy="288.5" r="23.5" fill="#fff" stroke="#26c"/><circle cx="145.8" cy="288.5" r="18.0" fill="#bcd"/><circle cx="253.8" cy="288.5" r="23.5" fill="#fff" stroke="#26c"/><circle cx="253.8" cy="288.5" r="18.0" fill="#bcd"/>
<text x="8" y="380" font-family="monospace" font-size="14">rt_cyc20 disc — Zc=20 Zp=21 R=27.0 e=0.8 (cam at 0°)</text>
</svg>