<svg xmlns="http://www.w3.org/2000/svg" width="390" height="390" viewBox="0 0 390 390">
<rect width="100%" height="100%" fill="white"/>
<circle cx="195.0" cy="195.0" r="171.0" fill="none" stroke="#aaa" stroke-dasharray="4 3"/>
<circle cx="357.0" cy="195.0" r="12.0" fill="#888"/><circle cx="344.7" cy="133.0" r="12.0" fill="#888"/><circle cx="309.6" cy="80.4" r="12.0" fill="#888"/><circle cx="257.0" cy="45.3" r="12.0" fill="#888"/><circle cx="195.0" cy="33.0" r="12.0" fill="#888"/><circle cx="133.0" cy="45.3" r="12.0" fill="#888"/><circle cx="80.4" cy="80.4" r="12.0" fill="#888"/><circle cx="45.3" cy="133.0" r="12.0" fill="#888"/><circle cx="33.0" cy="195.0" r="12.0" fill="#888"/><circle cx="45.3" cy="257.0" r="12.0" fill="#888"/><circle cx="80.4" cy="309.6" r="12.0" fill="#888"/><circle cx="133.0" cy="344.7" r="12.0" fill="#888"/><circle cx="195.0" cy="357.0" r="12.0" fill="#888"/><circle cx="257.0" cy="344.7" r="12.0" fill="#888"/><circle cx="309.6" cy="309.6" r="12.0" fill="#888"/><circle cx="344.7" cy="257.0" r="12.0" fill="#888"/>
<path d="M 344.1,195.0 L 344.1,194.0 L 344.2,193.0 L 344.4,192.0 L 344.6,191.1 L 344.8,190.2 L 345.1,189.4 L 345.3,188.7 L 345.6,188.1 L 345.9,187.4 L 346.2,186.9 L 346.5,186.4 L 346.7,185.9 L 347.0,185.5 L 347.2,185.1 L 347.5,184.7 L 347.7,184.4 L 347.9,184.0 L 348.1,183.7 L 348.3,183.4 L 348.5,183.1 L 348.7,182.8 L 348.9,182.5 L 349.1,182.2 L 349.3,181.9 L 349.5,181.6 L 349.6,181.3 L 349.8,181.0 L 350.0,180.7 L 350.2,180.3 L 350.3,180.0 L 350.5,179.7 L 350.7,179.4 L 350.8,179.0 L 351.0,178.7 L 351.2,178.3 L 351.3,178.0 L 351.5,177.6 L 351.6,177.2 L 351.8,176.9 L 351.9,176.5 L 352.0,176.1 L 352.2,175.7 L 352.3,175.2 L 352.4,174.8 L 352.5,174.4 L 352.6,173.9 L 352.7,173.5 L 352.8,173.0 L 352.9,172.6 L 353.0,172.1 L 353.1,171.6 L 353.1,171.1 L 353.2,170.6 L 353.2,170.1 L 353.2,169.6 L 353.3,169.1 L 353.3,168.6 L 353.3,168.1 L 353.3,167.6 L 353.3,167.1 L 353.2,166.6 L 353.2,166.0 L 353.1,165.5 L 353.1,165.0 L 353.0,164.5 L 352.9,163.9 L 352.8,163.4 L 352.7,162.9 L 352.6,162.4 L 352.5,161.9 L 352.4,161.3 L 352.2,160.8 L 352.1,160.3 L 351.9,159.8 L 351.7,159.3 L 351.6,158.8 L 351.4,158.4 L 351.2,157.9 L 351.0,157.4 L 350.7,156.9 L 350.5,156.5 L 350.3,156.0 L 350.1,155.6 L 349.8,155.2 L 349.6,154.7 L 349.3,154.3 L 349.0,153.9 L 348.8,153.5 L 348.5,153.1 L 348.2,152.8 L 348.0,152.4 L 347.7,152.0 L 347.4,151.7 L 347.1,151.4 L 346.8,151.0 L 346.5,150.7 L 346.3,150.4 L 346.0,150.1 L 345.7,149.8 L 345.4,149.5 L 345.1,149.3 L 344.8,149.0 L 344.5,148.8 L 344.2,148.5 L 343.9,148.3 L 343.7,148.1 L 343.4,147.8 L 343.1,147.6 L 342.8,147.4 L 342.5,147.2 L 342.2,147.0 L 342.0,146.8 L 341.7,146.6 L 341.4,146.4 L 341.1,146.2 L 340.8,146.0 L 340.5,145.8 L 340.2,145.6 L 339.8,145.4 L 339.5,145.2 L 339.2,145.0 L 338.8,144.7 L 338.4,144.5 L 338.0,144.2 L 337.6,143.9 L 337.2,143.5 L 336.7,143.2 L 336.2,142.8 L 335.7,142.3 L 335.2,141.8 L 334.6,141.2 L 334.1,140.5 L 333.5,139.8 L 332.9,139.0 L 332.4,138.2 L 332.0,137.3 L 331.5,136.4 L 331.2,135.4 L 330.9,134.4 L 330.7,133.5 L 330.5,132.6 L 330.4,131.8 L 330.3,131.0 L 330.3,130.2 L 330.3,129.5 L 330.3,128.9 L 330.4,128.3 L 330.4,127.7 L 330.5,127.2 L 330.5,126.7 L 330.6,126.3 L 330.6,125.8 L 330.7,125.4 L 330.8,125.0 L 330.8,124.7 L 330.9,124.3 L 330.9,123.9 L 331.0,123.6 L 331.0,123.2 L 331.1,122.9 L 331.1,122.5 L 331.2,122.2 L 331.2,121.8 L 331.3,121.5 L 331.3,121.1 L 331.3,120.8 L 331.3,120.4 L 331.4,120.1 L 331.4,119.7 L 331.4,119.3 L 331.4,118.9 L 331.4,118.5 L 331.4,118.1 L 331.4,117.7 L 331.4,117.3 L 331.3,116.9 L 331.3,116.5 L 331.3,116.1 L 331.2,115.6 L 331.1,115.2 L 331.1,114.8 L 331.0,114.3 L 330.9,113.9 L 330.8,113.4 L 330.7,113.0 L 330.6,112.5 L 330.5,112.0 L 330.3,111.6 L 330.2,111.1 L 330.0,110.6 L 329.9,110.2 L 329.7,109.7 L 329.5,109.2 L 329.3,108.7 L 329.1,108.3 L 328.9,107.8 L 328.6,107.3 L 328.4,106.9 L 328.1,106.4 L 327.9,106.0 L 327.6,105.5 L 327.3,105.1 L 327.0,104.6 L 326.7,104.2 L 326.4,103.7 L 326.1,103.3 L 325.8,102.9 L 325.4,102.5 L 325.1,102.1 L 324.7,101.7 L 324.4,101.3 L 324.0,100.9 L 323.7,100.6 L 323.3,100.2 L 322.9,99.8 L 322.5,99.5 L 322.1,99.2 L 321.7,98.9 L 321.4,98.5 L 321.0,98.2 L 320.6,98.0 L 320.2,97.7 L 319.8,97.4 L 319.4,97.1 L 318.9,96.9 L 318.5,96.7 L 318.1,96.4 L 317.7,96.2 L 317.3,96.0 L 316.9,95.8 L 316.6,95.6 L 316.2,95.4 L 315.8,95.3 L 315.4,95.1 L 315.0,95.0 L 314.6,94.8 L 314.2,94.7 L 313.9,94.6 L 313.5,94.4 L 313.1,94.3 L 312.8,94.2 L 312.4,94.1 L 312.1,94.0 L 311.7,94.0 L 311.4,93.9 L 311.0,93.8 L 310.7,93.7 L 310.3,93.7 L 310.0,93.6 L 309.7,93.5 L 309.3,93.5 L 309.0,93.4 L 308.6,93.4 L 308.2,93.3 L 307.9,93.2 L 307.5,93.2 L 307.1,93.1 L 306.7,93.0 L 306.2,93.0 L 305.8,92.9 L 305.3,92.8 L 304.8,92.7 L 304.2,92.5 L 303.6,92.4 L 303.0,92.2 L 302.3,91.9 L 301.6,91.7 L 300.8,91.3 L 300.0,90.9 L 299.2,90.5 L 298.4,90.0 L 297.6,89.4 L 296.8,88.7 L 296.1,88.0 L 295.4,87.3 L 294.8,86.5 L 294.2,85.7 L 293.7,85.0 L 293.3,84.3 L 292.9,83.6 L 292.6,82.9 L 292.4,82.3 L 292.1,81.7 L 291.9,81.2 L 291.8,80.7 L 291.6,80.2 L 291.5,79.7 L 291.4,79.3 L 291.2,78.9 L 291.1,78.5 L 291.0,78.1 L 290.9,77.8 L 290.8,77.4 L 290.8,77.1 L 290.7,76.7 L 290.6,76.4 L 290.5,76.0 L 290.4,75.7 L 290.3,75.4 L 290.2,75.0 L 290.0,74.7 L 289.9,74.4 L 289.8,74.0 L 289.7,73.7 L 289.5,73.3 L 289.4,73.0 L 289.3,72.6 L 289.1,72.3 L 288.9,71.9 L 288.8,71.6 L 288.6,71.2 L 288.4,70.9 L 288.2,70.5 L 288.0,70.1 L 287.8,69.7 L 287.6,69.4 L 287.3,69.0 L 287.1,68.6 L 286.8,68.2 L 286.6,67.9 L 286.3,67.5 L 286.0,67.1 L 285.7,66.7 L 285.4,66.4 L 285.1,66.0 L 284.7,65.6 L 284.4,65.3 L 284.0,64.9 L 283.7,64.6 L 283.3,64.2 L 282.9,63.9 L 282.6,63.5 L 282.2,63.2 L 281.8,62.9 L 281.3,62.5 L 280.9,62.2 L 280.5,61.9 L 280.1,61.6 L 279.6,61.3 L 279.2,61.0 L 278.7,60.8 L 278.2,60.5 L 277.8,60.3 L 277.3,60.0 L 276.8,59.8 L 276.4,59.5 L 275.9,59.3 L 275.4,59.1 L 274.9,58.9 L 274.4,58.8 L 273.9,58.6 L 273.4,58.4 L 272.9,58.3 L 272.5,58.1 L 272.0,58.0 L 271.5,57.9 L 271.0,57.8 L 270.5,57.7 L 270.0,57.6 L 269.6,57.5 L 269.1,57.4 L 268.6,57.4 L 268.2,57.3 L 267.7,57.3 L 267.3,57.3 L 266.8,57.2 L 266.4,57.2 L 265.9,57.2 L 265.5,57.2 L 265.1,57.2 L 264.7,57.2 L 264.3,57.3 L 263.9,57.3 L 263.5,57.3 L 263.1,57.4 L 262.7,57.4 L 262.3,57.5 L 262.0,57.5 L 261.6,57.6 L 261.2,57.6 L 260.9,57.7 L 260.5,57.8 L 260.2,57.8 L 259.9,57.9 L 259.5,58.0 L 259.2,58.1 L 258.8,58.2 L 258.5,58.2 L 258.1,58.3 L 257.8,58.4 L 257.4,58.5 L 257.1,58.6 L 256.7,58.7 L 256.3,58.8 L 255.9,58.9 L 255.4,59.0 L 255.0,59.1 L 254.5,59.3 L 253.9,59.4 L 253.3,59.5 L 252.7,59.5 L 252.0,59.6 L 251.3,59.7 L 250.5,59.7 L 249.6,59.7 L 248.7,59.6 L 247.8,59.5 L 246.8,59.3 L 245.8,59.1 L 244.8,58.8 L 243.9,58.4 L 243.0,58.0 L 242.1,57.5 L 241.3,57.0 L 240.6,56.6 L 240.0,56.1 L 239.4,55.6 L 238.9,55.1 L 238.4,54.7 L 238.0,54.2 L 237.6,53.8 L 237.3,53.4 L 236.9,53.1 L 236.6,52.7 L 236.4,52.4 L 236.1,52.1 L 235.8,51.8 L 235.6,51.5 L 235.4,51.2 L 235.1,50.9 L 234.9,50.6 L 234.7,50.4 L 234.5,50.1 L 234.2,49.8 L 234.0,49.6 L 233.8,49.3 L 233.5,49.0 L 233.3,48.8 L 233.1,48.5 L 232.8,48.2 L 232.6,48.0 L 232.3,47.7 L 232.0,47.5 L 231.7,47.2 L 231.4,46.9 L 231.1,46.7 L 230.8,46.4 L 230.5,46.2 L 230.2,45.9 L 229.9,45.7 L 229.5,45.4 L 229.2,45.2 L 228.8,44.9 L 228.4,44.7 L 228.1,44.4 L 227.7,44.2 L 227.3,44.0 L 226.8,43.7 L 226.4,43.5 L 226.0,43.3 L 225.6,43.1 L 225.1,42.9 L 224.7,42.7 L 224.2,42.5 L 223.7,42.3 L 223.3,42.1 L 222.8,42.0 L 222.3,41.8 L 221.8,41.6 L 221.3,41.5 L 220.8,41.4 L 220.3,41.3 L 219.8,41.1 L 219.2,41.0 L 218.7,41.0 L 218.2,40.9 L 217.7,40.8 L 217.1,40.7 L 216.6,40.7 L 216.1,40.7 L 215.6,40.6 L 215.0,40.6 L 214.5,40.6 L 214.0,40.6 L 213.4,40.6 L 212.9,40.7 L 212.4,40.7 L 211.9,40.7 L 211.4,40.8 L 210.9,40.9 L 210.4,40.9 L 209.9,41.0 L 209.4,41.1 L 208.9,41.2 L 208.4,41.3 L 208.0,41.4 L 207.5,41.6 L 207.0,41.7 L 206.6,41.8 L 206.2,42.0 L 205.7,42.1 L 205.3,42.3 L 204.9,42.5 L 204.5,42.6 L 204.1,42.8 L 203.7,43.0 L 203.3,43.1 L 203.0,43.3 L 202.6,43.5 L 202.3,43.7 L 201.9,43.9 L 201.6,44.1 L 201.3,44.3 L 200.9,44.5 L 200.6,44.7 L 200.3,44.9 L 200.0,45.1 L 199.7,45.3 L 199.4,45.5 L 199.2,45.7 L 198.9,45.9 L 198.6,46.1 L 198.3,46.3 L 198.0,46.6 L 197.8,46.8 L 197.5,47.0 L 197.2,47.2 L 196.9,47.5 L 196.6,47.7 L 196.3,48.0 L 196.0,48.2 L 195.6,48.5 L 195.2,48.8 L 194.9,49.1 L 194.4,49.4 L 193.9,49.7 L 193.4,50.0 L 192.9,50.4 L 192.2,50.7 L 191.6,51.1 L 190.8,51.4 L 190.0,51.8 L 189.1,52.1 L 188.2,52.3 L 187.2,52.5 L 186.2,52.7 L 185.2,52.8 L 184.1,52.8 L 183.2,52.7 L 182.2,52.6 L 181.3,52.5 L 180.5,52.3 L 179.8,52.1 L 179.1,51.9 L 178.4,51.7 L 177.8,51.5 L 177.3,51.3 L 176.8,51.0 L 176.3,50.8 L 175.9,50.6 L 175.5,50.4 L 175.1,50.3 L 174.8,50.1 L 174.4,49.9 L 174.1,49.7 L 173.8,49.6 L 173.4,49.4 L 173.1,49.2 L 172.8,49.1 L 172.5,48.9 L 172.2,48.8 L 171.9,48.6 L 171.5,48.5 L 171.2,48.3 L 170.9,48.2 L 170.5,48.1 L 170.2,47.9 L 169.9,47.8 L 169.5,47.7 L 169.2,47.5 L 168.8,47.4 L 168.4,47.3 L 168.0,47.2 L 167.7,47.1 L 167.3,47.0 L 166.8,46.9 L 166.4,46.8 L 166.0,46.7 L 165.6,46.6 L 165.2,46.5 L 164.7,46.5 L 164.3,46.4 L 163.8,46.4 L 163.3,46.3 L 162.9,46.3 L 162.4,46.2 L 161.9,46.2 L 161.4,46.2 L 160.9,46.2 L 160.4,46.2 L 159.9,46.2 L 159.4,46.3 L 158.9,46.3 L 158.4,46.4 L 157.9,46.4 L 157.4,46.5 L 156.9,46.6 L 156.3,46.7 L 155.8,46.8 L 155.3,46.9 L 154.8,47.0 L 154.3,47.1 L 153.8,47.3 L 153.3,47.4 L 152.8,47.6 L 152.3,47.8 L 151.8,48.0 L 151.3,48.1 L 150.8,48.4 L 150.3,48.6 L 149.8,48.8 L 149.4,49.0 L 148.9,49.3 L 148.4,49.5 L 148.0,49.8 L 147.6,50.0 L 147.1,50.3 L 146.7,50.6 L 146.3,50.8 L 145.9,51.1 L 145.5,51.4 L 145.1,51.7 L 144.7,52.0 L 144.4,52.3 L 144.0,52.6 L 143.7,52.9 L 143.3,53.3 L 143.0,53.6 L 142.7,53.9 L 142.4,54.2 L 142.1,54.5 L 141.8,54.8 L 141.5,55.2 L 141.2,55.5 L 141.0,55.8 L 140.7,56.1 L 140.5,56.4 L 140.3,56.7 L 140.0,57.1 L 139.8,57.4 L 139.6,57.7 L 139.4,58.0 L 139.2,58.3 L 139.0,58.6 L 138.9,58.9 L 138.7,59.2 L 138.5,59.5 L 138.3,59.8 L 138.2,60.1 L 138.0,60.4 L 137.9,60.7 L 137.7,61.1 L 137.5,61.4 L 137.4,61.7 L 137.2,62.1 L 137.0,62.4 L 136.8,62.8 L 136.6,63.1 L 136.4,63.5 L 136.2,64.0 L 135.9,64.4 L 135.6,64.9 L 135.3,65.4 L 135.0,65.9 L 134.6,66.5 L 134.1,67.0 L 133.6,67.7 L 133.0,68.3 L 132.4,68.9 L 131.7,69.5 L 130.9,70.1 L 130.0,70.7 L 129.2,71.2 L 128.2,71.7 L 127.3,72.1 L 126.4,72.4 L 125.5,72.7 L 124.7,72.9 L 123.9,73.1 L 123.1,73.2 L 122.4,73.2 L 121.8,73.3 L 121.2,73.3 L 120.6,73.3 L 120.1,73.3 L 119.6,73.3 L 119.2,73.3 L 118.7,73.3 L 118.3,73.3 L 117.9,73.3 L 117.5,73.2 L 117.1,73.2 L 116.8,73.2 L 116.4,73.2 L 116.1,73.2 L 115.7,73.2 L 115.4,73.2 L 115.0,73.1 L 114.7,73.1 L 114.3,73.1 L 114.0,73.1 L 113.6,73.2 L 113.3,73.2 L 112.9,73.2 L 112.5,73.2 L 112.1,73.2 L 111.8,73.3 L 111.4,73.3 L 111.0,73.4 L 110.6,73.4 L 110.2,73.5 L 109.8,73.5 L 109.4,73.6 L 108.9,73.7 L 108.5,73.8 L 108.1,73.9 L 107.7,74.0 L 107.2,74.1 L 106.8,74.3 L 106.4,74.4 L 105.9,74.6 L 105.5,74.7 L 105.0,74.9 L 104.6,75.1 L 104.1,75.3 L 103.7,75.5 L 103.2,75.7 L 102.8,75.9 L 102.3,76.1 L 101.9,76.4 L 101.4,76.7 L 101.0,76.9 L 100.5,77.2 L 100.1,77.5 L 99.7,77.8 L 99.2,78.1 L 98.8,78.4 L 98.4,78.7 L 98.0,79.1 L 97.6,79.4 L 97.2,79.8 L 96.8,80.1 L 96.4,80.5 L 96.0,80.9 L 95.7,81.2 L 95.3,81.6 L 95.0,82.0 L 94.6,82.4 L 94.3,82.8 L 94.0,83.2 L 93.7,83.7 L 93.4,84.1 L 93.1,84.5 L 92.8,84.9 L 92.5,85.3 L 92.3,85.8 L 92.0,86.2 L 91.8,86.6 L 91.6,87.0 L 91.3,87.5 L 91.1,87.9 L 90.9,88.3 L 90.7,88.7 L 90.6,89.2 L 90.4,89.6 L 90.3,90.0 L 90.1,90.4 L 90.0,90.8 L 89.8,91.2 L 89.7,91.6 L 89.6,92.0 L 89.5,92.4 L 89.4,92.8 L 89.3,93.2 L 89.2,93.6 L 89.2,93.9 L 89.1,94.3 L 89.0,94.7 L 89.0,95.0 L 88.9,95.4 L 88.9,95.8 L 88.9,96.1 L 88.8,96.5 L 88.8,96.8 L 88.8,97.2 L 88.7,97.5 L 88.7,97.8 L 88.7,98.2 L 88.7,98.6 L 88.7,98.9 L 88.6,99.3 L 88.6,99.7 L 88.6,100.1 L 88.6,100.5 L 88.5,100.9 L 88.5,101.4 L 88.4,101.9 L 88.4,102.4 L 88.3,103.0 L 88.2,103.6 L 88.1,104.2 L 87.9,104.9 L 87.8,105.7 L 87.5,106.5 L 87.2,107.3 L 86.8,108.1 L 86.4,109.0 L 85.9,109.9 L 85.3,110.7 L 84.7,111.5 L 84.1,112.3 L 83.4,113.0 L 82.7,113.6 L 82.0,114.2 L 81.3,114.7 L 80.7,115.2 L 80.0,115.5 L 79.4,115.9 L 78.9,116.2 L 78.4,116.4 L 77.9,116.6 L 77.4,116.8 L 77.0,117.0 L 76.5,117.2 L 76.1,117.4 L 75.8,117.5 L 75.4,117.7 L 75.0,117.8 L 74.7,117.9 L 74.4,118.1 L 74.0,118.2 L 73.7,118.3 L 73.4,118.4 L 73.1,118.6 L 72.7,118.7 L 72.4,118.9 L 72.1,119.0 L 71.8,119.1 L 71.5,119.3 L 71.1,119.5 L 70.8,119.6 L 70.5,119.8 L 70.1,120.0 L 69.8,120.2 L 69.5,120.4 L 69.1,120.6 L 68.8,120.8 L 68.4,121.0 L 68.1,121.3 L 67.8,121.5 L 67.4,121.7 L 67.1,122.0 L 66.7,122.3 L 66.4,122.6 L 66.0,122.9 L 65.7,123.2 L 65.3,123.5 L 65.0,123.8 L 64.6,124.1 L 64.3,124.5 L 64.0,124.8 L 63.6,125.2 L 63.3,125.6 L 63.0,126.0 L 62.7,126.3 L 62.4,126.8 L 62.1,127.2 L 61.8,127.6 L 61.5,128.0 L 61.2,128.4 L 60.9,128.9 L 60.6,129.3 L 60.4,129.8 L 60.1,130.3 L 59.9,130.7 L 59.6,131.2 L 59.4,131.7 L 59.2,132.2 L 59.0,132.7 L 58.8,133.2 L 58.6,133.7 L 58.4,134.2 L 58.3,134.7 L 58.1,135.2 L 58.0,135.7 L 57.8,136.2 L 57.7,136.7 L 57.6,137.2 L 57.5,137.7 L 57.4,138.2 L 57.3,138.7 L 57.3,139.2 L 57.2,139.7 L 57.2,140.1 L 57.1,140.6 L 57.1,141.1 L 57.1,141.6 L 57.1,142.1 L 57.1,142.5 L 57.1,143.0 L 57.1,143.4 L 57.1,143.9 L 57.1,144.3 L 57.2,144.8 L 57.2,145.2 L 57.3,145.6 L 57.3,146.0 L 57.4,146.4 L 57.5,146.8 L 57.5,147.2 L 57.6,147.6 L 57.7,148.0 L 57.8,148.3 L 57.9,148.7 L 58.0,149.1 L 58.1,149.4 L 58.2,149.7 L 58.3,150.1 L 58.4,150.4 L 58.5,150.8 L 58.6,151.1 L 58.7,151.4 L 58.8,151.7 L 59.0,152.1 L 59.1,152.4 L 59.2,152.7 L 59.4,153.1 L 59.5,153.4 L 59.6,153.8 L 59.8,154.2 L 59.9,154.6 L 60.1,155.0 L 60.2,155.5 L 60.4,156.0 L 60.5,156.5 L 60.7,157.0 L 60.9,157.7 L 61.0,158.3 L 61.1,159.0 L 61.3,159.8 L 61.3,160.7 L 61.4,161.6 L 61.4,162.5 L 61.3,163.5 L 61.2,164.5 L 61.0,165.5 L 60.7,166.5 L 60.4,167.5 L 60.0,168.4 L 59.6,169.2 L 59.2,170.0 L 58.8,170.7 L 58.4,171.3 L 58.0,171.9 L 57.6,172.4 L 57.2,172.9 L 56.8,173.3 L 56.5,173.7 L 56.1,174.0 L 55.8,174.4 L 55.5,174.7 L 55.2,175.0 L 54.9,175.3 L 54.7,175.5 L 54.4,175.8 L 54.2,176.1 L 53.9,176.3 L 53.7,176.6 L 53.4,176.8 L 53.2,177.1 L 52.9,177.3 L 52.7,177.6 L 52.5,177.9 L 52.2,178.1 L 52.0,178.4 L 51.8,178.7 L 51.5,178.9 L 51.3,179.2 L 51.1,179.5 L 50.8,179.8 L 50.6,180.2 L 50.4,180.5 L 50.2,180.8 L 49.9,181.1 L 49.7,181.5 L 49.5,181.9 L 49.3,182.2 L 49.1,182.6 L 48.9,183.0 L 48.6,183.4 L 48.4,183.8 L 48.3,184.2 L 48.1,184.6 L 47.9,185.0 L 47.7,185.5 L 47.5,185.9 L 47.4,186.4 L 47.2,186.9 L 47.1,187.3 L 46.9,187.8 L 46.8,188.3 L 46.6,188.8 L 46.5,189.3 L 46.4,189.8 L 46.3,190.3 L 46.2,190.8 L 46.2,191.3 L 46.1,191.8 L 46.0,192.4 L 46.0,192.9 L 45.9,193.4 L 45.9,193.9 L 45.9,194.5 L 45.9,195.0 L 45.9,195.5 L 45.9,196.1 L 45.9,196.6 L 46.0,197.1 L 46.0,197.6 L 46.1,198.2 L 46.2,198.7 L 46.2,199.2 L 46.3,199.7 L 46.4,200.2 L 46.5,200.7 L 46.6,201.2 L 46.8,201.7 L 46.9,202.2 L 47.1,202.7 L 47.2,203.1 L 47.4,203.6 L 47.5,204.1 L 47.7,204.5 L 47.9,205.0 L 48.1,205.4 L 48.3,205.8 L 48.4,206.2 L 48.6,206.6 L 48.9,207.0 L 49.1,207.4 L 49.3,207.8 L 49.5,208.1 L 49.7,208.5 L 49.9,208.9 L 50.2,209.2 L 50.4,209.5 L 50.6,209.8 L 50.8,210.2 L 51.1,210.5 L 51.3,210.8 L 51.5,211.1 L 51.8,211.3 L 52.0,211.6 L 52.2,211.9 L 52.5,212.1 L 52.7,212.4 L 52.9,212.7 L 53.2,212.9 L 53.4,213.2 L 53.7,213.4 L 53.9,213.7 L 54.2,213.9 L 54.4,214.2 L 54.7,214.5 L 54.9,214.7 L 55.2,215.0 L 55.5,215.3 L 55.8,215.6 L 56.1,216.0 L 56.5,216.3 L 56.8,216.7 L 57.2,217.1 L 57.6,217.6 L 58.0,218.1 L 58.4,218.7 L 58.8,219.3 L 59.2,220.0 L 59.6,220.8 L 60.0,221.6 L 60.4,222.5 L 60.7,223.5 L 61.0,224.5 L 61.2,225.5 L 61.3,226.5 L 61.4,227.5 L 61.4,228.4 L 61.3,229.3 L 61.3,230.2 L 61.1,231.0 L 61.0,231.7 L 60.9,232.3 L 60.7,233.0 L 60.5,233.5 L 60.4,234.0 L 60.2,234.5 L 60.1,235.0 L 59.9,235.4 L 59.8,235.8 L 59.6,236.2 L 59.5,236.6 L 59.4,236.9 L 59.2,237.3 L 59.1,237.6 L 59.0,237.9 L 58.8,238.3 L 58.7,238.6 L 58.6,238.9 L 58.5,239.2 L 58.4,239.6 L 58.3,239.9 L 58.2,240.3 L 58.1,240.6 L 58.0,240.9 L 57.9,241.3 L 57.8,241.7 L 57.7,242.0 L 57.6,242.4 L 57.5,242.8 L 57.5,243.2 L 57.4,243.6 L 57.3,244.0 L 57.3,244.4 L 57.2,244.8 L 57.2,245.2 L 57.1,245.7 L 57.1,246.1 L 57.1,246.6 L 57.1,247.0 L 57.1,247.5 L 57.1,247.9 L 57.1,248.4 L 57.1,248.9 L 57.1,249.4 L 57.2,249.9 L 57.2,250.3 L 57.3,250.8 L 57.3,251.3 L 57.4,251.8 L 57.5,252.3 L 57.6,252.8 L 57.7,253.3 L 57.8,253.8 L 58.0,254.3 L 58.1,254.8 L 58.3,255.3 L 58.4,255.8 L 58.6,256.3 L 58.8,256.8 L 59.0,257.3 L 59.2,257.8 L 59.4,258.3 L 59.6,258.8 L 59.9,259.3 L 60.1,259.7 L 60.4,260.2 L 60.6,260.7 L 60.9,261.1 L 61.2,261.6 L 61.5,262.0 L 61.8,262.4 L 62.1,262.8 L 62.4,263.2 L 62.7,263.7 L 63.0,264.0 L 63.3,264.4 L 63.6,264.8 L 64.0,265.2 L 64.3,265.5 L 64.6,265.9 L 65.0,266.2 L 65.3,266.5 L 65.7,266.8 L 66.0,267.1 L 66.4,267.4 L 66.7,267.7 L 67.1,268.0 L 67.4,268.3 L 67.8,268.5 L 68.1,268.7 L 68.4,269.0 L 68.8,269.2 L 69.1,269.4 L 69.5,269.6 L 69.8,269.8 L 70.1,270.0 L 70.5,270.2 L 70.8,270.4 L 71.1,270.5 L 71.5,270.7 L 71.8,270.9 L 72.1,271.0 L 72.4,271.1 L 72.7,271.3 L 73.1,271.4 L 73.4,271.6 L 73.7,271.7 L 74.0,271.8 L 74.4,271.9 L 74.7,272.1 L 75.0,272.2 L 75.4,272.3 L 75.8,272.5 L 76.1,272.6 L 76.5,272.8 L 77.0,273.0 L 77.4,273.2 L 77.9,273.4 L 78.4,273.6 L 78.9,273.8 L 79.4,274.1 L 80.0,274.5 L 80.7,274.8 L 81.3,275.3 L 82.0,275.8 L 82.7,276.4 L 83.4,277.0 L 84.1,277.7 L 84.7,278.5 L 85.3,279.3 L 85.9,280.1 L 86.4,281.0 L 86.8,281.9 L 87.2,282.7 L 87.5,283.5 L 87.8,284.3 L 87.9,285.1 L 88.1,285.8 L 88.2,286.4 L 88.3,287.0 L 88.4,287.6 L 88.4,288.1 L 88.5,288.6 L 88.5,289.1 L 88.6,289.5 L 88.6,289.9 L 88.6,290.3 L 88.6,290.7 L 88.7,291.1 L 88.7,291.4 L 88.7,291.8 L 88.7,292.2 L 88.7,292.5 L 88.8,292.8 L 88.8,293.2 L 88.8,293.5 L 88.9,293.9 L 88.9,294.2 L 88.9,294.6 L 89.0,295.0 L 89.0,295.3 L 89.1,295.7 L 89.2,296.1 L 89.2,296.4 L 89.3,296.8 L 89.4,297.2 L 89.5,297.6 L 89.6,298.0 L 89.7,298.4 L 89.8,298.8 L 90.0,299.2 L 90.1,299.6 L 90.3,300.0 L 90.4,300.4 L 90.6,300.8 L 90.7,301.3 L 90.9,301.7 L 91.1,302.1 L 91.3,302.5 L 91.6,303.0 L 91.8,303.4 L 92.0,303.8 L 92.3,304.2 L 92.5,304.7 L 92.8,305.1 L 93.1,305.5 L 93.4,305.9 L 93.7,306.3 L 94.0,306.8 L 94.3,307.2 L 94.6,307.6 L 95.0,308.0 L 95.3,308.4 L 95.7,308.8 L 96.0,309.1 L 96.4,309.5 L 96.8,309.9 L 97.2,310.2 L 97.6,310.6 L 98.0,310.9 L 98.4,311.3 L 98.8,311.6 L 99.2,311.9 L 99.7,312.2 L 100.1,312.5 L 100.5,312.8 L 101.0,313.1 L 101.4,313.3 L 101.9,313.6 L 102.3,313.9 L 102.8,314.1 L 103.2,314.3 L 103.7,314.5 L 104.1,314.7 L 104.6,314.9 L 105.0,315.1 L 105.5,315.3 L 105.9,315.4 L 106.4,315.6 L 106.8,315.7 L 107.2,315.9 L 107.7,316.0 L 108.1,316.1 L 108.5,316.2 L 108.9,316.3 L 109.4,316.4 L 109.8,316.5 L 110.2,316.5 L 110.6,316.6 L 111.0,316.6 L 111.4,316.7 L 111.8,316.7 L 112.1,316.8 L 112.5,316.8 L 112.9,316.8 L 113.3,316.8 L 113.6,316.8 L 114.0,316.9 L 114.3,316.9 L 114.7,316.9 L 115.0,316.9 L 115.4,316.8 L 115.7,316.8 L 116.1,316.8 L 116.4,316.8 L 116.8,316.8 L 117.1,316.8 L 117.5,316.8 L 117.9,316.7 L 118.3,316.7 L 118.7,316.7 L 119.2,316.7 L 119.6,316.7 L 120.1,316.7 L 120.6,316.7 L 121.2,316.7 L 121.8,316.7 L 122.4,316.8 L 123.1,316.8 L 123.9,316.9 L 124.7,317.1 L 125.5,317.3 L 126.4,317.6 L 127.3,317.9 L 128.2,318.3 L 129.2,318.8 L 130.0,319.3 L 130.9,319.9 L 131.7,320.5 L 132.4,321.1 L 133.0,321.7 L 133.6,322.3 L 134.1,323.0 L 134.6,323.5 L 135.0,324.1 L 135.3,324.6 L 135.6,325.1 L 135.9,325.6 L 136.2,326.0 L 136.4,326.5 L 136.6,326.9 L 136.8,327.2 L 137.0,327.6 L 137.2,327.9 L 137.4,328.3 L 137.5,328.6 L 137.7,328.9 L 137.9,329.3 L 138.0,329.6 L 138.2,329.9 L 138.3,330.2 L 138.5,330.5 L 138.7,330.8 L 138.9,331.1 L 139.0,331.4 L 139.2,331.7 L 139.4,332.0 L 139.6,332.3 L 139.8,332.6 L 140.0,332.9 L 140.3,333.3 L 140.5,333.6 L 140.7,333.9 L 141.0,334.2 L 141.2,334.5 L 141.5,334.8 L 141.8,335.2 L 142.1,335.5 L 142.4,335.8 L 142.7,336.1 L 143.0,336.4 L 143.3,336.7 L 143.7,337.1 L 144.0,337.4 L 144.4,337.7 L 144.7,338.0 L 145.1,338.3 L 145.5,338.6 L 145.9,338.9 L 146.3,339.2 L 146.7,339.4 L 147.1,339.7 L 147.6,340.0 L 148.0,340.2 L 148.4,340.5 L 148.9,340.7 L 149.4,341.0 L 149.8,341.2 L 150.3,341.4 L 150.8,341.6 L 151.3,341.9 L 151.8,342.0 L 152.3,342.2 L 152.8,342.4 L 153.3,342.6 L 153.8,342.7 L 154.3,342.9 L 154.8,343.0 L 155.3,343.1 L 155.8,343.2 L 156.3,343.3 L 156.9,343.4 L 157.4,343.5 L 157.9,343.6 L 158.4,343.6 L 158.9,343.7 L 159.4,343.7 L 159.9,343.8 L 160.4,343.8 L 160.9,343.8 L 161.4,343.8 L 161.9,343.8 L 162.4,343.8 L 162.9,343.7 L 163.3,343.7 L 163.8,343.6 L 164.3,343.6 L 164.7,343.5 L 165.2,343.5 L 165.6,343.4 L 166.0,343.3 L 166.4,343.2 L 166.8,343.1 L 167.3,343.0 L 167.7,342.9 L 168.0,342.8 L 168.4,342.7 L 168.8,342.6 L 169.2,342.5 L 169.5,342.3 L 169.9,342.2 L 170.2,342.1 L 170.5,341.9 L 170.9,341.8 L 171.2,341.7 L 171.5,341.5 L 171.9,341.4 L 172.2,341.2 L 172.5,341.1 L 172.8,340.9 L 173.1,340.8 L 173.4,340.6 L 173.8,340.4 L 174.1,340.3 L 174.4,340.1 L 174.8,339.9 L 175.1,339.7 L 175.5,339.6 L 175.9,339.4 L 176.3,339.2 L 176.8,339.0 L 177.3,338.7 L 177.8,338.5 L 178.4,338.3 L 179.1,338.1 L 179.8,337.9 L 180.5,337.7 L 181.3,337.5 L 182.2,337.4 L 183.2,337.3 L 184.1,337.2 L 185.2,337.2 L 186.2,337.3 L 187.2,337.5 L 188.2,337.7 L 189.1,337.9 L 190.0,338.2 L 190.8,338.6 L 191.6,338.9 L 192.2,339.3 L 192.9,339.6 L 193.4,340.0 L 193.9,340.3 L 194.4,340.6 L 194.9,340.9 L 195.2,341.2 L 195.6,341.5 L 196.0,341.8 L 196.3,342.0 L 196.6,342.3 L 196.9,342.5 L 197.2,342.8 L 197.5,343.0 L 197.8,343.2 L 198.0,343.4 L 198.3,343.7 L 198.6,343.9 L 198.9,344.1 L 199.2,344.3 L 199.4,344.5 L 199.7,344.7 L 200.0,344.9 L 200.3,345.1 L 200.6,345.3 L 200.9,345.5 L 201.3,345.7 L 201.6,345.9 L 201.9,346.1 L 202.3,346.3 L 202.6,346.5 L 203.0,346.7 L 203.3,346.9 L 203.7,347.0 L 204.1,347.2 L 204.5,347.4 L 204.9,347.5 L 205.3,347.7 L 205.7,347.9 L 206.2,348.0 L 206.6,348.2 L 207.0,348.3 L 207.5,348.4 L 208.0,348.6 L 208.4,348.7 L 208.9,348.8 L 209.4,348.9 L 209.9,349.0 L 210.4,349.1 L 210.9,349.1 L 211.4,349.2 L 211.9,349.3 L 212.4,349.3 L 212.9,349.3 L 213.4,349.4 L 214.0,349.4 L 214.5,349.4 L 215.0,349.4 L 215.6,349.4 L 216.1,349.3 L 216.6,349.3 L 217.1,349.3 L 217.7,349.2 L 218.2,349.1 L 218.7,349.0 L 219.2,349.0 L 219.8,348.9 L 220.3,348.7 L 220.8,348.6 L 221.3,348.5 L 221.8,348.4 L 222.3,348.2 L 222.8,348.0 L 223.3,347.9 L 223.7,347.7 L 224.2,347.5 L 224.7,347.3 L 225.1,347.1 L 225.6,346.9 L 226.0,346.7 L 226.4,346.5 L 226.8,346.3 L 227.3,346.0 L 227.7,345.8 L 228.1,345.6 L 228.4,345.3 L 228.8,345.1 L 229.2,344.8 L 229.5,344.6 L 229.9,344.3 L 230.2,344.1 L 230.5,343.8 L 230.8,343.6 L 231.1,343.3 L 231.4,343.1 L 231.7,342.8 L 232.0,342.5 L 232.3,342.3 L 232.6,342.0 L 232.8,341.8 L 233.1,341.5 L 233.3,341.2 L 233.5,341.0 L 233.8,340.7 L 234.0,340.4 L 234.2,340.2 L 234.5,339.9 L 234.7,339.6 L 234.9,339.4 L 235.1,339.1 L 235.4,338.8 L 235.6,338.5 L 235.8,338.2 L 236.1,337.9 L 236.4,337.6 L 236.6,337.3 L 236.9,336.9 L 237.3,336.6 L 237.6,336.2 L 238.0,335.8 L 238.4,335.3 L 238.9,334.9 L 239.4,334.4 L 240.0,333.9 L 240.6,333.4 L 241.3,333.0 L 242.1,332.5 L 243.0,332.0 L 243.9,331.6 L 244.8,331.2 L 245.8,330.9 L 246.8,330.7 L 247.8,330.5 L 248.7,330.4 L 249.6,330.3 L 250.5,330.3 L 251.3,330.3 L 252.0,330.4 L 252.7,330.5 L 253.3,330.5 L 253.9,330.6 L 254.5,330.7 L 255.0,330.9 L 255.4,331.0 L 255.9,331.1 L 256.3,331.2 L 256.7,331.3 L 257.1,331.4 L 257.4,331.5 L 257.8,331.6 L 258.1,331.7 L 258.5,331.8 L 258.8,331.8 L 259.2,331.9 L 259.5,332.0 L 259.9,332.1 L 260.2,332.2 L 260.5,332.2 L 260.9,332.3 L 261.2,332.4 L 261.6,332.4 L 262.0,332.5 L 262.3,332.5 L 262.7,332.6 L 263.1,332.6 L 263.5,332.7 L 263.9,332.7 L 264.3,332.7 L 264.7,332.8 L 265.1,332.8 L 265.5,332.8 L 265.9,332.8 L 266.4,332.8 L 266.8,332.8 L 267.3,332.7 L 267.7,332.7 L 268.2,332.7 L 268.6,332.6 L 269.1,332.6 L 269.6,332.5 L 270.0,332.4 L 270.5,332.3 L 271.0,332.2 L 271.5,332.1 L 272.0,332.0 L 272.5,331.9 L 272.9,331.7 L 273.4,331.6 L 273.9,331.4 L 274.4,331.2 L 274.9,331.1 L 275.4,330.9 L 275.9,330.7 L 276.4,330.5 L 276.8,330.2 L 277.3,330.0 L 277.8,329.8 L 278.2,329.5 L 278.7,329.2 L 279.2,329.0 L 279.6,328.7 L 280.1,328.4 L 280.5,328.1 L 280.9,327.8 L 281.3,327.5 L 281.8,327.1 L 282.2,326.8 L 282.6,326.5 L 282.9,326.1 L 283.3,325.8 L 283.7,325.4 L 284.0,325.1 L 284.4,324.7 L 284.7,324.4 L 285.1,324.0 L 285.4,323.6 L 285.7,323.3 L 286.0,322.9 L 286.3,322.5 L 286.6,322.1 L 286.8,321.8 L 287.1,321.4 L 287.3,321.0 L 287.6,320.6 L 287.8,320.3 L 288.0,319.9 L 288.2,319.5 L 288.4,319.1 L 288.6,318.8 L 288.8,318.4 L 288.9,318.1 L 289.1,317.7 L 289.3,317.4 L 289.4,317.0 L 289.5,316.7 L 289.7,316.3 L 289.8,316.0 L 289.9,315.6 L 290.0,315.3 L 290.2,315.0 L 290.3,314.6 L 290.4,314.3 L 290.5,314.0 L 290.6,313.6 L 290.7,313.3 L 290.8,312.9 L 290.8,312.6 L 290.9,312.2 L 291.0,311.9 L 291.1,311.5 L 291.2,311.1 L 291.4,310.7 L 291.5,310.3 L 291.6,309.8 L 291.8,309.3 L 291.9,308.8 L 292.1,308.3 L 292.4,307.7 L 292.6,307.1 L 292.9,306.4 L 293.3,305.7 L 293.7,305.0 L 294.2,304.3 L 294.8,303.5 L 295.4,302.7 L 296.1,302.0 L 296.8,301.3 L 297.6,300.6 L 298.4,300.0 L 299.2,299.5 L 300.0,299.1 L 300.8,298.7 L 301.6,298.3 L 302.3,298.1 L 303.0,297.8 L 303.6,297.6 L 304.2,297.5 L 304.8,297.3 L 305.3,297.2 L 305.8,297.1 L 306.2,297.0 L 306.7,297.0 L 307.1,296.9 L 307.5,296.8 L 307.9,296.8 L 308.2,296.7 L 308.6,296.6 L 309.0,296.6 L 309.3,296.5 L 309.7,296.5 L 310.0,296.4 L 310.3,296.3 L 310.7,296.3 L 311.0,296.2 L 311.4,296.1 L 311.7,296.0 L 312.1,296.0 L 312.4,295.9 L 312.8,295.8 L 313.1,295.7 L 313.5,295.6 L 313.9,295.4 L 314.2,295.3 L 314.6,295.2 L 315.0,295.0 L 315.4,294.9 L 315.8,294.7 L 316.2,294.6 L 316.6,294.4 L 316.9,294.2 L 317.3,294.0 L 317.7,293.8 L 318.1,293.6 L 318.5,293.3 L 318.9,293.1 L 319.4,292.9 L 319.8,292.6 L 320.2,292.3 L 320.6,292.0 L 321.0,291.8 L 321.4,291.5 L 321.7,291.1 L 322.1,290.8 L 322.5,290.5 L 322.9,290.2 L 323.3,289.8 L 323.7,289.4 L 324.0,289.1 L 324.4,288.7 L 324.7,288.3 L 325.1,287.9 L 325.4,287.5 L 325.8,287.1 L 326.1,286.7 L 326.4,286.3 L 326.7,285.8 L 327.0,285.4 L 327.3,284.9 L 327.6,284.5 L 327.9,284.0 L 328.1,283.6 L 328.4,283.1 L 328.6,282.7 L 328.9,282.2 L 329.1,281.7 L 329.3,281.3 L 329.5,280.8 L 329.7,280.3 L 329.9,279.8 L 330.0,279.4 L 330.2,278.9 L 330.3,278.4 L 330.5,278.0 L 330.6,277.5 L 330.7,277.0 L 330.8,276.6 L 330.9,276.1 L 331.0,275.7 L 331.1,275.2 L 331.1,274.8 L 331.2,274.4 L 331.3,273.9 L 331.3,273.5 L 331.3,273.1 L 331.4,272.7 L 331.4,272.3 L 331.4,271.9 L 331.4,271.5 L 331.4,271.1 L 331.4,270.7 L 331.4,270.3 L 331.4,269.9 L 331.3,269.6 L 331.3,269.2 L 331.3,268.9 L 331.3,268.5 L 331.2,268.2 L 331.2,267.8 L 331.1,267.5 L 331.1,267.1 L 331.0,266.8 L 331.0,266.4 L 330.9,266.1 L 330.9,265.7 L 330.8,265.3 L 330.8,265.0 L 330.7,264.6 L 330.6,264.2 L 330.6,263.7 L 330.5,263.3 L 330.5,262.8 L 330.4,262.3 L 330.4,261.7 L 330.3,261.1 L 330.3,260.5 L 330.3,259.8 L 330.3,259.0 L 330.4,258.2 L 330.5,257.4 L 330.7,256.5 L 330.9,255.6 L 331.2,254.6 L 331.5,253.6 L 332.0,252.7 L 332.4,251.8 L 332.9,251.0 L 333.5,250.2 L 334.1,249.5 L 334.6,248.8 L 335.2,248.2 L 335.7,247.7 L 336.2,247.2 L 336.7,246.8 L 337.2,246.5 L 337.6,246.1 L 338.0,245.8 L 338.4,245.5 L 338.8,245.3 L 339.2,245.0 L 339.5,244.8 L 339.8,244.6 L 340.2,244.4 L 340.5,244.2 L 340.8,244.0 L 341.1,243.8 L 341.4,243.6 L 341.7,243.4 L 342.0,243.2 L 342.2,243.0 L 342.5,242.8 L 342.8,242.6 L 343.1,242.4 L 343.4,242.2 L 343.7,241.9 L 343.9,241.7 L 344.2,241.5 L 344.5,241.2 L 344.8,241.0 L 345.1,240.7 L 345.4,240.5 L 345.7,240.2 L 346.0,239.9 L 346.3,239.6 L 346.5,239.3 L 346.8,239.0 L 347.1,238.6 L 347.4,238.3 L 347.7,238.0 L 348.0,237.6 L 348.2,237.2 L 348.5,236.9 L 348.8,236.5 L 349.0,236.1 L 349.3,235.7 L 349.6,235.3 L 349.8,234.8 L 350.1,234.4 L 350.3,234.0 L 350.5,233.5 L 350.7,233.1 L 351.0,232.6 L 351.2,232.1 L 351.4,231.6 L 351.6,231.2 L 351.7,230.7 L 351.9,230.2 L 352.1,229.7 L 352.2,229.2 L 352.4,228.7 L 352.5,228.1 L 352.6,227.6 L 352.7,227.1 L 352.8,226.6 L 352.9,226.1 L 353.0,225.5 L 353.1,225.0 L 353.1,224.5 L 353.2,224.0 L 353.2,223.4 L 353.3,222.9 L 353.3,222.4 L 353.3,221.9 L 353.3,221.4 L 353.3,220.9 L 353.2,220.4 L 353.2,219.9 L 353.2,219.4 L 353.1,218.9 L 353.1,218.4 L 353.0,217.9 L 352.9,217.4 L 352.8,217.0 L 352.7,216.5 L 352.6,216.1 L 352.5,215.6 L 352.4,215.2 L 352.3,214.8 L 352.2,214.3 L 352.0,213.9 L 351.9,213.5 L 351.8,213.1 L 351.6,212.8 L 351.5,212.4 L 351.3,212.0 L 351.2,211.7 L 351.0,211.3 L 350.8,211.0 L 350.7,210.6 L 350.5,210.3 L 350.3,210.0 L 350.2,209.7 L 350.0,209.3 L 349.8,209.0 L 349.6,208.7 L 349.5,208.4 L 349.3,208.1 L 349.1,207.8 L 348.9,207.5 L 348.7,207.2 L 348.5,206.9 L 348.3,206.6 L 348.1,206.3 L 347.9,206.0 L 347.7,205.6 L 347.5,205.3 L 347.2,204.9 L 347.0,204.5 L 346.7,204.1 L 346.5,203.6 L 346.2,203.1 L 345.9,202.6 L 345.6,201.9 L 345.3,201.3 L 345.1,200.6 L 344.8,199.8 L 344.6,198.9 L 344.4,198.0 L 344.2,197.0 L 344.1,196.0 Z" fill="#e8eefc" stroke="#26c" stroke-width="1.5"/>
<circle cx="201.0" cy="195.0" r="72.6" fill="#fff" stroke="#26c"/>
<circle cx="309.0" cy="195.0" r="24.8" fill="#fff" stroke="#26c"/><circle cx="309.0" cy="195.0" r="18.0" fill="#bcd"/><circle cx="255.0" cy="101.5" r="24.8" fill="#fff" stroke="#26c"/><circle cx="255.0" cy="101.5" r="18.0" fill="#bcd"/><circle cx="147.0" cy="101.5" r="24.8" fill="#fff" stroke="#26c"/><circle cx="147.0" cy="101.5" r="18.0" fill="#bcd"/><circle cx="93.0" cy="195.0" r="24.8" fill="#fff" stroke="#26c"/><circle cx="93.0" cy="195.0" r="18.0" fill="#bcd"/><circle cx="147.0" cy="288.5" r="24.8" fill="#fff" stroke="#26c"/><circle cx="147.0" cy="288.5" r="18.0" fill="#bcd"/><circle cx="255.0" cy="288.5" r="24.8" fill="#fff" stroke="#26c"/><circle cx="255.0" cy="288.5" r="18.0" fill="#bcd"/>
<text x="8" y="380" font-family="monospace" font-size="14">rt_cyc15 disc — Zc=15 Zp=16 R=27.0 e=1.0 (cam at 0°)</text>
</svg>